<?xml version="1.0" encoding="UTF-8" standalone="no"?>
<svg
   xmlns:dc="http://purl.org/dc/elements/1.1/"
   xmlns:cc="http://creativecommons.org/ns#"
   xmlns:rdf="http://www.w3.org/1999/02/22-rdf-syntax-ns#"
   xmlns:svg="http://www.w3.org/2000/svg"
   xmlns="http://www.w3.org/2000/svg"
   id="svg8"
   version="1.1"
   viewBox="0 0 116.41666 116.41666"
   height="400"
   width="400">
  <defs
     id="defs2" />
  <metadata
     id="metadata5">
    <rdf:RDF>
      <cc:Work
         rdf:about="">
        <dc:format>image/svg+xml</dc:format>
        <dc:type
           rdf:resource="http://purl.org/dc/dcmitype/StillImage" />
        <dc:title></dc:title>
      </cc:Work>
    </rdf:RDF>
  </metadata>
  <g
     transform="translate(-198.94252,-450.52124)"
     id="layer1">
    <g
       transform="matrix(1.6109325,0,0,1.6109325,-123.55652,-344.34469)"
       id="g822">
      <path
         style="fill:#e6e6e6;fill-opacity:1;stroke:none;stroke-width:3.25092864;stroke-miterlimit:4;stroke-dasharray:none;stroke-opacity:1;paint-order:fill markers stroke"
         d="M 129.27344,1.3671875 C 110.66833,18.198148 94.989128,42.790015 102.00586,68.019531 115.3961,116.16593 149.28619,112.73007 192.52344,210.84766 A 118.1955,118.15214 0 0 0 236.48242,118.9707 118.1955,118.15214 0 0 0 129.27344,1.3671875 Z"
         transform="matrix(0.29104168,0,0,0.29104168,202.2158,494.62521)"
         id="path4639" />
      <path
         style="fill:#e6e6e6;fill-opacity:1;stroke:none;stroke-width:3.25092864;stroke-miterlimit:4;stroke-dasharray:none;stroke-opacity:1;paint-order:fill markers stroke"
         d="M 171.80273,224.3125 C 141.43975,143.88525 110.5045,128.49043 94.84375,101.36523 v 133.40821 a 118.1955,118.15214 0 0 0 23.44336,2.34961 118.1955,118.15214 0 0 0 53.51562,-12.81055 z"
         transform="matrix(0.29104168,0,0,0.29104168,202.2158,494.62521)"
         id="path4635" />
      <path
         style="fill:#e6e6e6;fill-opacity:1;stroke:none;stroke-width:3.25092864;stroke-miterlimit:4;stroke-dasharray:none;stroke-opacity:1;paint-order:fill markers stroke"
         d="M 80.419922,230.77344 V 67.599609 C 80.430459,39.410167 87.981757,19.871867 104.22266,1.8046875 A 118.1955,118.15214 0 0 0 0.09179687,118.9707 118.1955,118.15214 0 0 0 80.419922,230.77344 Z"
         transform="matrix(0.29104168,0,0,0.29104168,202.2158,494.62521)"
         id="path824-1-5-4-1-6-3-6" />
    </g>
  </g>
</svg>
