<svg width="1575" height="909" xmlns="http://www.w3.org/2000/svg" xmlns:xlink="http://www.w3.org/1999/xlink" xml:space="preserve" overflow="hidden"><g transform="translate(-83 -503)"><rect x="489.5" y="506.5" width="848" height="188" stroke="#000000" stroke-width="6.875" stroke-miterlimit="8" fill="none"/><path d="M512.417 597.063 1314.81 597.063 1314.81 603.938 512.417 603.938ZM517 614.25 489.5 600.5 517 586.75ZM1310.23 586.75 1337.73 600.5 1310.23 614.25Z" fill="#7F7F7F"/><rect x="889" y="550" width="48.0001" height="100" fill="#FFFFFF"/><path d="M919.643 569.09 922.034 569.09 912.064 613.953C911.47 616.628 911.173 618.627 911.173 619.951 911.173 621.032 911.348 621.816 911.7 622.302 912.051 622.788 912.605 623.031 913.361 623.031 914.172 623.031 915.036 622.7 915.955 622.039 916.874 621.377 918.171 620.113 919.846 618.249L922.156 620.519C919.535 623.275 917.394 625.159 915.732 626.172 914.07 627.185 912.213 627.692 910.16 627.692 908.403 627.692 906.998 627.05 905.945 625.767 904.891 624.484 904.364 622.842 904.364 620.843 904.364 619.033 904.742 616.412 905.499 612.981L912.753 580.518C913.078 579.086 913.307 577.945 913.442 577.094 913.577 576.243 913.645 575.452 913.645 574.723 913.645 573.912 913.496 573.298 913.199 572.879 912.902 572.46 912.476 572.156 911.923 571.967 911.369 571.778 910.376 571.643 908.944 571.562L909.43 569.454Z" fill-rule="evenodd"/><text fill="#000000" fill-opacity="0" font-family="Arial,Arial_MSFontService,sans-serif" font-size="58.6025" x="904.364" y="620.367">ğ‘™</text><rect x="489.5" y="846.5" width="1003" height="189" stroke="#000000" stroke-width="6.875" stroke-miterlimit="8" fill="none"/><path d="M512.417 938.063 1469.5 938.063 1469.5 944.938 512.417 944.938ZM517 955.25 489.5 941.5 517 927.75ZM1464.92 927.75 1492.42 941.5 1464.92 955.25Z" fill="#7F7F7F"/><rect x="961" y="891" width="83.9999" height="100" fill="#FFFFFF"/><path d="M991.991 909.974 994.382 909.974 984.412 954.838C983.818 957.513 983.521 959.512 983.521 960.836 983.521 961.917 983.696 962.7 984.048 963.186 984.399 963.673 984.953 963.916 985.709 963.916 986.52 963.916 987.384 963.585 988.303 962.923 989.222 962.261 990.518 960.998 992.194 959.134L994.504 961.403C991.883 964.159 989.742 966.044 988.08 967.057 986.418 968.07 984.561 968.577 982.508 968.577 980.751 968.577 979.346 967.935 978.293 966.651 977.239 965.368 976.712 963.727 976.712 961.727 976.712 959.917 977.09 957.296 977.847 953.865L985.101 921.403C985.425 919.971 985.655 918.829 985.79 917.978 985.925 917.127 985.993 916.337 985.993 915.607 985.993 914.797 985.844 914.182 985.547 913.763 985.25 913.345 984.824 913.041 984.27 912.851 983.717 912.662 982.724 912.527 981.292 912.446L981.778 910.339Z" fill-rule="evenodd"/><text fill="#000000" fill-opacity="0" font-family="Arial,Arial_MSFontService,sans-serif" font-size="58.6025" x="976.712" y="961.251">ğ‘™</text><path d="M1014.56 949.089C1013.17 949.089 1012.01 949.452 1011.08 950.176 1010.15 950.901 1009.41 951.964 1008.86 953.363 1008.31 954.763 1007.93 956.471 1007.7 958.486 1007.47 960.502 1007.36 962.79 1007.36 965.352 1007.36 968.311 1007.5 970.867 1007.79 973.022 1008.07 975.176 1008.52 976.948 1009.13 978.338 1009.73 979.728 1010.49 980.751 1011.41 981.406 1012.32 982.061 1013.41 982.389 1014.68 982.389 1015.87 982.389 1016.92 982.081 1017.81 981.466 1018.7 980.85 1019.44 979.892 1020.03 978.591 1020.61 977.291 1021.06 975.643 1021.35 973.647 1021.65 971.651 1021.8 969.294 1021.8 966.573 1021.8 963.515 1021.64 960.884 1021.31 958.68 1020.98 956.476 1020.52 954.664 1019.92 953.244 1019.33 951.825 1018.58 950.777 1017.68 950.102 1016.77 949.427 1015.73 949.089 1014.56 949.089ZM1014.68 946.2C1017.05 946.2 1019.07 946.642 1020.74 947.526 1022.42 948.409 1023.79 949.67 1024.85 951.308 1025.92 952.946 1026.7 954.947 1027.19 957.31 1027.69 959.673 1027.94 962.344 1027.94 965.322 1027.94 971.934 1026.77 976.933 1024.42 980.319 1022.08 983.705 1018.68 985.397 1014.24 985.397 1009.83 985.397 1006.55 983.799 1004.41 980.602 1002.26 977.405 1001.19 972.56 1001.19 966.067 1001.19 962.671 1001.52 959.732 1002.19 957.25 1002.85 954.768 1003.79 952.708 1004.99 951.07 1006.19 949.432 1007.61 948.211 1009.26 947.406 1010.91 946.602 1012.72 946.2 1014.68 946.2Z" fill-rule="evenodd"/><text fill="#000000" fill-opacity="0" font-family="Arial,Arial_MSFontService,sans-serif" font-size="39.1973" x="1001.19" y="980.498">0</text><rect x="489.5" y="1219.5" width="1140" height="189" stroke="#000000" stroke-width="6.875" stroke-miterlimit="8" fill="none"/><path d="M512.416 1310.06 1607 1310.06 1607 1316.94 512.416 1316.94ZM517 1327.25 489.5 1313.5 517 1299.75ZM1602.42 1299.75 1629.92 1313.5 1602.42 1327.25Z" fill="#7F7F7F"/><rect x="1027" y="1263" width="76" height="100" fill="#FFFFFF"/><path d="M1057.37 1282.19 1059.76 1282.19 1049.79 1327.05C1049.2 1329.73 1048.9 1331.73 1048.9 1333.05 1048.9 1334.13 1049.08 1334.91 1049.43 1335.4 1049.78 1335.89 1050.33 1336.13 1051.09 1336.13 1051.9 1336.13 1052.77 1335.8 1053.68 1335.14 1054.6 1334.47 1055.9 1333.21 1057.57 1331.35L1059.88 1333.62C1057.26 1336.37 1055.12 1338.26 1053.46 1339.27 1051.8 1340.28 1049.94 1340.79 1047.89 1340.79 1046.13 1340.79 1044.73 1340.15 1043.67 1338.86 1042.62 1337.58 1042.09 1335.94 1042.09 1333.94 1042.09 1332.13 1042.47 1329.51 1043.23 1326.08L1050.48 1293.62C1050.81 1292.18 1051.04 1291.04 1051.17 1290.19 1051.31 1289.34 1051.37 1288.55 1051.37 1287.82 1051.37 1287.01 1051.23 1286.4 1050.93 1285.98 1050.63 1285.56 1050.21 1285.25 1049.65 1285.06 1049.1 1284.88 1048.1 1284.74 1046.67 1284.66L1047.16 1282.55Z" fill-rule="evenodd"/><text fill="#000000" fill-opacity="0" font-family="Arial,Arial_MSFontService,sans-serif" font-size="58.6025" x="1042.09" y="1333.46">ğ‘™</text><path d="M1075.09 1319.63 1079.74 1319.63 1078.04 1327.2 1088.17 1327.2 1087.48 1330.51 1077.38 1330.51 1074.34 1342.99C1074.15 1343.82 1073.98 1344.57 1073.85 1345.23 1073.72 1345.9 1073.62 1346.5 1073.54 1347.04 1073.46 1347.57 1073.41 1348.06 1073.38 1348.5 1073.35 1348.93 1073.33 1349.34 1073.33 1349.72 1073.33 1350.91 1073.58 1351.84 1074.08 1352.52 1074.57 1353.19 1075.39 1353.53 1076.52 1353.53 1077.47 1353.53 1078.48 1353.18 1079.56 1352.47 1080.63 1351.77 1081.85 1350.66 1083.22 1349.15L1085.28 1351.24C1084.26 1352.37 1083.3 1353.33 1082.39 1354.13 1081.47 1354.92 1080.58 1355.57 1079.71 1356.08 1078.83 1356.58 1077.97 1356.95 1077.11 1357.18 1076.26 1357.41 1075.39 1357.52 1074.49 1357.52 1072.13 1357.52 1070.37 1356.97 1069.21 1355.85 1068.05 1354.74 1067.46 1353.1 1067.46 1350.94 1067.46 1350.2 1067.52 1349.39 1067.63 1348.51 1067.74 1347.63 1067.89 1346.77 1068.09 1345.93L1071.63 1330.51 1066.51 1330.51 1067.11 1328.21C1068.3 1328.21 1069.23 1328.1 1069.89 1327.87 1070.56 1327.64 1071.12 1327.33 1071.57 1326.93 1071.87 1326.65 1072.16 1326.31 1072.44 1325.9 1072.72 1325.5 1072.99 1325.01 1073.27 1324.43 1073.55 1323.85 1073.83 1323.17 1074.12 1322.39 1074.41 1321.61 1074.73 1320.69 1075.09 1319.63Z" fill-rule="evenodd"/><text fill="#000000" fill-opacity="0" font-family="Arial,Arial_MSFontService,sans-serif" font-size="37.8867" x="1066.51" y="1352.79">ğ‘¡</text><text font-family="Calibri,Calibri_MSFontService,sans-serif" font-weight="400" font-size="64" transform="matrix(1 0 0 1 122.328 614)">Reference</text><text font-family="Calibri,Calibri_MSFontService,sans-serif" font-weight="400" font-size="64" transform="matrix(1 0 0 1 237.892 956)">Initial</text><text font-family="Calibri,Calibri_MSFontService,sans-serif" font-weight="400" font-size="64" transform="matrix(1 0 0 1 121.819 1314)">Deformed</text></g></svg>