<svg width="1816" height="1645" xmlns="http://www.w3.org/2000/svg" xmlns:xlink="http://www.w3.org/1999/xlink" xml:space="preserve" overflow="hidden"><g transform="translate(-1214 -469)"><path d="M0 0 187.902 0.000360892" stroke="#595959" stroke-width="4.58333" stroke-miterlimit="8" fill="none" fill-rule="evenodd" transform="matrix(-1 0 0 1 1830.4 1687.5)"/><path d="M18.3334-2.29164 254.073-2.29131 254.073 2.29203 18.3334 2.29169ZM18.3333 2.60411e-05 27.5 13.75 0 0 27.5-13.75Z" fill="#C00000" transform="matrix(-1 0 0 1 1898.57 1687.5)"/><path d="M1644.79 1449.83 1644.79 1687.94 1640.21 1687.94 1640.21 1449.83ZM1642.5 1449.83 1628.75 1459 1642.5 1431.5 1656.25 1459Z" fill="#C00000"/><path d="M0 0 187.902 0.000360892" stroke="#595959" stroke-width="4.58333" stroke-miterlimit="8" fill="none" fill-rule="evenodd" transform="matrix(-1 0 0 1 2796.4 918.5)"/><path d="M2608.79 680.833 2608.79 918.943 2604.21 918.943 2604.21 680.833ZM2606.5 680.833 2592.75 690 2606.5 662.5 2620.25 690Z" fill="#C00000"/><path d="M18.3334-2.29164 254.073-2.29131 254.073 2.29203 18.3334 2.29169ZM18.3333 2.60411e-05 27.5 13.75 0 0 27.5-13.75Z" fill="#C00000" transform="matrix(-1 0 0 1 2860.57 918.5)"/><path d="M0 0 91.9669 157.696" stroke="#595959" stroke-width="4.58333" stroke-miterlimit="8" fill="none" fill-rule="evenodd" transform="matrix(-1 0 0 1 2698.47 760.5)"/><path d="M2689.38 853.723C2687.93 853.723 2686.69 854.538 2685.66 856.167 2684.63 857.796 2683.72 860.366 2682.94 863.875L2680.2 876.04C2682.74 875.951 2684.93 875.114 2686.78 873.529 2688.62 871.945 2690.04 869.801 2691.05 867.097 2692.05 864.394 2692.55 861.601 2692.55 858.718 2692.55 857.161 2692.28 855.939 2691.73 855.053 2691.19 854.166 2690.4 853.723 2689.38 853.723ZM2676.97 851.521 2678.37 853.374C2675.74 855.254 2673.64 857.483 2672.09 860.061 2670.53 862.639 2669.75 865.182 2669.75 867.688 2669.75 870.016 2670.27 871.851 2671.31 873.193 2672.35 874.536 2673.91 875.422 2676.01 875.852L2678.75 863.526C2679.66 859.443 2681.11 856.431 2683.08 854.489 2685.06 852.546 2687.3 851.575 2689.78 851.575 2692.24 851.575 2694.08 852.26 2695.32 853.629 2696.55 854.999 2697.17 857.053 2697.17 859.793 2697.17 863.212 2696.46 866.318 2695.03 869.111 2693.61 871.904 2691.58 874.089 2688.95 875.664 2686.32 877.24 2683.26 878.054 2679.77 878.108L2677.24 889.307 2673.03 889.307 2675.55 878.054C2672.22 877.678 2669.66 876.573 2667.86 874.738 2666.06 872.903 2665.16 870.49 2665.16 867.5 2665.16 861.556 2669.1 856.23 2676.97 851.521Z" fill-rule="evenodd"/><text fill="#000000" fill-opacity="0" font-family="Arial,Arial_MSFontService,sans-serif" font-size="37.7856" x="2665.16" y="884.584">洧램</text><path d="M2711.75 863.778 2712.94 863.778C2712.91 864.494 2712.89 865.136 2712.88 865.702 2712.87 866.268 2712.86 866.818 2712.85 867.352 2712.84 867.886 2712.84 868.414 2712.84 868.934L2712.84 883.778C2712.84 884.182 2712.85 884.53 2712.88 884.823 2712.91 885.116 2712.95 885.363 2713.01 885.565 2713.06 885.767 2713.14 885.94 2713.24 886.083 2713.34 886.226 2713.45 886.35 2713.58 886.454 2713.74 886.61 2713.95 886.731 2714.21 886.815 2714.47 886.9 2714.8 886.971 2715.2 887.03 2715.61 887.089 2716.09 887.134 2716.66 887.167 2717.22 887.199 2717.91 887.222 2718.7 887.235L2718.7 888.934 2703.21 888.934 2703.21 887.235C2703.98 887.209 2704.63 887.18 2705.16 887.147 2705.7 887.115 2706.15 887.069 2706.53 887.011 2706.91 886.952 2707.21 886.887 2707.44 886.815 2707.67 886.744 2707.87 886.656 2708.04 886.552 2708.22 886.434 2708.37 886.307 2708.5 886.171 2708.63 886.034 2708.74 885.861 2708.82 885.653 2708.89 885.445 2708.96 885.191 2709 884.891 2709.05 884.592 2709.07 884.221 2709.07 883.778L2709.07 869.774C2709.07 869.266 2708.97 868.908 2708.78 868.7 2708.58 868.492 2708.3 868.388 2707.94 868.388 2707.53 868.388 2706.93 868.596 2706.14 869.013 2705.35 869.429 2704.32 870.048 2703.05 870.868 2702.89 870.568 2702.73 870.269 2702.59 869.97 2702.44 869.67 2702.29 869.364 2702.14 869.052 2703.75 868.166 2705.35 867.284 2706.93 866.405 2708.51 865.526 2710.12 864.651 2711.75 863.778Z" fill-rule="evenodd"/><text fill="#000000" fill-opacity="0" font-family="Arial,Arial_MSFontService,sans-serif" font-size="25.1562" x="2702.14" y="885.79">1</text><path d="M2703.62 783.835 2709.25 787.625 2718.81 795.378 2727.52 803.768 2735.39 812.698 2742.45 822.066 2748.71 831.775 2754.2 841.727 2758.94 851.825 2762.95 861.973 2766.24 872.075 2768.85 882.035 2770.78 891.759 2772.06 901.153 2772.7 910.124 2772.73 918.493 2768.15 918.507 2768.12 910.218 2768.13 910.374 2767.49 901.555 2767.51 901.7 2766.25 892.447 2766.27 892.584 2764.36 882.996 2764.39 883.129 2761.83 873.301 2761.86 873.432 2758.61 863.461 2758.66 863.592 2754.7 853.576 2754.76 853.707 2750.08 843.742 2750.15 843.876 2744.73 834.058 2744.82 834.193 2738.64 824.621 2738.73 824.757 2731.78 815.526 2731.89 815.662 2724.14 806.869 2724.27 807.004 2715.7 798.746 2715.85 798.876 2706.45 791.25 2706.61 791.371 2701.06 787.638ZM2702.34 785.736 2703.33 802.232 2686.5 776.5 2717.18 778.477Z" fill="#595959"/><path d="M0 0 0.000360892 1069.27" stroke="#595959" stroke-width="4.58333" stroke-miterlimit="8" stroke-dasharray="18.3333 13.75" fill="none" fill-rule="evenodd" transform="matrix(1 0 0 -1 2606.5 1987.77)"/><path d="M0 0 0.000360892 299.369" stroke="#595959" stroke-width="4.58333" stroke-miterlimit="8" stroke-dasharray="18.3333 13.75" fill="none" fill-rule="evenodd" transform="matrix(1 0 0 -1 1645.5 1987.87)"/><path d="M1632.22 1688.53 1323.5 1688.5" stroke="#595959" stroke-width="4.58333" stroke-miterlimit="8" stroke-dasharray="18.3333 13.75" fill="none" fill-rule="evenodd"/><path d="M0 0 1286.62 10.2104" stroke="#595959" stroke-width="4.58333" stroke-miterlimit="8" stroke-dasharray="18.3333 13.75" fill="none" fill-rule="evenodd" transform="matrix(-1 0 0 1 2607.12 918.5)"/><path d="M1321.5 1985.06 2987.48 1985.06 2987.48 1991.94 1321.5 1991.94ZM2961.72 1969.49 2994.31 1988.5 2961.72 2007.51C2960.08 2008.47 2957.98 2007.91 2957.02 2006.27 2956.07 2004.63 2956.62 2002.53 2958.26 2001.57L2985.76 1985.53 2985.76 1991.47 2958.26 1975.43C2956.62 1974.47 2956.07 1972.37 2957.02 1970.73 2957.98 1969.09 2960.08 1968.53 2961.72 1969.49Z" fill="#595959"/><path d="M3.4375-8.33837e-07 3.43786 1480.98-3.43714 1480.98-3.4375 8.33837e-07ZM19.0113 1455.21 0.000360654 1487.8-19.0106 1455.21C-19.9671 1453.57-19.4132 1451.46-17.7734 1450.51-16.1335 1449.55-14.0287 1450.1-13.0721 1451.74L2.9696 1479.24-2.96888 1479.24 13.0728 1451.74C14.0294 1450.1 16.1342 1449.55 17.7741 1450.51 19.4139 1451.46 19.9678 1453.57 19.0113 1455.21Z" fill="#595959" transform="matrix(1 0 0 -1 1321.5 1992.28)"/><path d="M2898.05 2051.13C2898.89 2051.13 2899.62 2051.22 2900.26 2051.41 2900.89 2051.6 2901.45 2051.89 2901.94 2052.28 2902.43 2052.68 2902.86 2053.18 2903.24 2053.8 2903.61 2054.43 2903.98 2055.27 2904.33 2056.34 2904.68 2057.4 2905.01 2058.73 2905.32 2060.31 2905.63 2061.89 2905.91 2063.53 2906.15 2065.23L2906.56 2065.23C2909.15 2061.59 2911.12 2058.92 2912.46 2057.23 2913.79 2055.54 2914.92 2054.28 2915.84 2053.46 2916.76 2052.64 2917.64 2052.05 2918.49 2051.72 2919.35 2051.38 2920.47 2051.21 2921.88 2051.21 2923.15 2051.21 2924.19 2051.37 2925 2051.7L2923.38 2059.03 2920.54 2059.03C2920.38 2057.9 2919.91 2057.33 2919.12 2057.33 2918.88 2057.33 2918.62 2057.37 2918.35 2057.45 2918.08 2057.53 2917.75 2057.71 2917.36 2057.98 2916.97 2058.25 2916.39 2058.78 2915.64 2059.56 2914.88 2060.34 2914.03 2061.3 2913.08 2062.44 2912.14 2063.57 2911.17 2064.76 2910.17 2066L2907.41 2069.45C2907.9 2072.04 2908.36 2074.28 2908.79 2076.18 2909.22 2078.07 2909.61 2079.64 2909.94 2080.9 2910.28 2082.15 2910.58 2083.15 2910.84 2083.88 2911.09 2084.6 2911.37 2085.15 2911.67 2085.52 2911.96 2085.88 2912.27 2086.14 2912.58 2086.29 2912.89 2086.44 2913.25 2086.51 2913.65 2086.51 2914.38 2086.51 2915.09 2086.23 2915.78 2085.66 2916.47 2085.09 2917.46 2083.81 2918.76 2081.81L2921.39 2083.55C2919.5 2086.36 2917.79 2088.34 2916.27 2089.49 2914.74 2090.64 2912.92 2091.21 2910.81 2091.21 2909.65 2091.21 2908.67 2091 2907.86 2090.58 2907.05 2090.16 2906.34 2089.5 2905.75 2088.58 2905.15 2087.66 2904.63 2086.23 2904.17 2084.28 2903.33 2080.82 2902.82 2078.17 2902.63 2076.34L2902.22 2076.34C2899.36 2080.36 2897.23 2083.25 2895.84 2085.01 2894.45 2086.77 2893.3 2088.06 2892.4 2088.9 2891.49 2089.74 2890.61 2090.33 2889.76 2090.66 2888.91 2091 2887.78 2091.17 2886.38 2091.17 2885.11 2091.17 2884.07 2091.01 2883.26 2090.68L2884.88 2083.35 2887.71 2083.35C2887.88 2084.48 2888.35 2085.05 2889.13 2085.05 2889.51 2085.05 2889.91 2084.95 2890.33 2084.75 2890.75 2084.54 2891.35 2084.06 2892.13 2083.29 2892.92 2082.52 2894 2081.31 2895.37 2079.66 2896.75 2078.01 2898.75 2075.54 2901.37 2072.24 2900.97 2070.11 2900.55 2068.06 2900.12 2066.08 2899.68 2064.11 2899.24 2062.27 2898.78 2060.57 2898.32 2058.87 2897.94 2057.76 2897.64 2057.23 2897.35 2056.7 2897.03 2056.34 2896.69 2056.13 2896.35 2055.93 2895.93 2055.83 2895.41 2055.83 2894.85 2055.83 2894.33 2055.96 2893.87 2056.22 2893.42 2056.47 2892.92 2056.92 2892.38 2057.55 2891.83 2058.19 2891.12 2059.18 2890.23 2060.53L2887.59 2058.79C2889.29 2056.22 2890.93 2054.3 2892.5 2053.03 2894.06 2051.76 2895.91 2051.13 2898.05 2051.13Z" fill="#595959" fill-rule="evenodd"/><text fill="#000000" fill-opacity="0" font-family="Arial,Arial_MSFontService,sans-serif" font-size="40.0815" x="2883.26" y="2086.2">洧논</text><path d="M1231.83 634.888C1232.94 634.888 1233.88 635.036 1234.66 635.333 1235.2 635.549 1235.75 635.907 1236.29 636.407 1236.83 636.907 1237.31 637.603 1237.72 638.494 1238.14 639.386 1238.51 640.386 1238.82 641.493 1239.13 642.601 1239.47 644.195 1239.85 646.276 1240.5 649.761 1241.13 653.429 1241.74 657.279 1242.34 661.129 1242.86 664.702 1243.3 667.998 1245.92 664.216 1248.14 660.514 1249.96 656.894 1251.79 653.273 1253.1 650.126 1253.89 647.451 1254.69 644.776 1255.09 642.601 1255.09 640.926 1255.09 639.656 1254.82 638.792 1254.28 638.332 1253.74 637.873 1252.82 637.603 1251.52 637.522L1251.93 635.536 1262.59 635.536 1263.68 637.562C1261.63 643.182 1258.85 649.194 1255.33 655.597 1251.88 661.865 1247.92 668.106 1243.46 674.321 1239.19 680.238 1235.64 684.52 1232.8 687.168 1230.83 688.978 1228.92 690.275 1227.09 691.058 1225.63 691.653 1224.07 691.95 1222.43 691.95 1221.86 691.95 1221.2 691.903 1220.46 691.808 1219.72 691.714 1219.14 691.585 1218.74 691.423L1220.48 683.561 1223.68 683.561C1223.68 685.29 1224.28 686.155 1225.46 686.155 1227.03 686.155 1228.86 685.175 1230.94 683.216 1233.02 681.258 1235.46 678.306 1238.27 674.361 1237.49 669.633 1236.42 663.932 1235.07 657.259 1233.64 650.126 1232.69 645.708 1232.23 644.006 1231.67 641.953 1231.07 640.642 1230.45 640.075 1230.07 639.724 1229.6 639.548 1229.03 639.548 1228.17 639.548 1227.36 639.899 1226.6 640.602 1225.84 641.304 1224.91 642.52 1223.8 644.249L1221.17 642.507C1223.03 639.724 1224.78 637.758 1226.4 636.61 1228.02 635.462 1229.83 634.888 1231.83 634.888Z" fill="#595959" fill-rule="evenodd"/><text fill="#000000" fill-opacity="0" font-family="Arial,Arial_MSFontService,sans-serif" font-size="57.0625" x="1218.74" y="684.817">洧녽</text><path d="M1645.5 1687.5C1884.25 1178.04 2234.17 1432.12 2606.5 918.5" stroke="#104862" stroke-width="9.16667" stroke-miterlimit="8" fill="none" fill-rule="evenodd"/><path d="M1632.5 1688.5C1632.5 1681.32 1638.32 1675.5 1645.5 1675.5 1652.68 1675.5 1658.5 1681.32 1658.5 1688.5 1658.5 1695.68 1652.68 1701.5 1645.5 1701.5 1638.32 1701.5 1632.5 1695.68 1632.5 1688.5Z" stroke="#104862" stroke-width="9.16667" stroke-miterlimit="8" fill="#FFFFFF" fill-rule="evenodd"/><path d="M2593.5 918.5C2593.5 911.32 2599.32 905.5 2606.5 905.5 2613.68 905.5 2619.5 911.32 2619.5 918.5 2619.5 925.68 2613.68 931.5 2606.5 931.5 2599.32 931.5 2593.5 925.68 2593.5 918.5Z" stroke="#104862" stroke-width="9.16667" stroke-miterlimit="8" fill="#FFFFFF" fill-rule="evenodd"/><path d="M1931.39 1406.8C1932.52 1406.8 1933.41 1407.17 1934.06 1407.91 1934.71 1408.66 1935.04 1409.63 1935.04 1410.83 1935.04 1411.72 1934.87 1412.64 1934.53 1413.59L1934.88 1413.73C1936.63 1411.35 1938.32 1409.6 1939.94 1408.49 1941.56 1407.38 1943.21 1406.83 1944.87 1406.83 1946.18 1406.83 1947.27 1406.92 1948.15 1407.12L1946.86 1413.14 1944.09 1413.14C1943.98 1412.38 1943.83 1411.8 1943.63 1411.39 1943.44 1410.98 1943.21 1410.69 1942.94 1410.53 1942.67 1410.37 1942.33 1410.29 1941.92 1410.29 1941.27 1410.29 1940.57 1410.57 1939.81 1411.12 1939.05 1411.68 1938.19 1412.55 1937.24 1413.73 1936.29 1414.91 1935.54 1416.05 1934.97 1417.14 1934.41 1418.23 1933.94 1419.62 1933.56 1421.3L1931.01 1432.93 1926.37 1432.93 1930.26 1415.9C1930.51 1414.83 1930.67 1414 1930.74 1413.41 1930.82 1412.81 1930.85 1412.32 1930.85 1411.93 1930.85 1411.21 1930.74 1410.69 1930.5 1410.37 1930.27 1410.05 1929.9 1409.89 1929.4 1409.89 1928.85 1409.89 1928.26 1410.12 1927.64 1410.57 1927.02 1411.03 1926.18 1411.86 1925.1 1413.06L1923.57 1411.55C1925.22 1409.83 1926.6 1408.61 1927.71 1407.89 1928.82 1407.16 1930.05 1406.8 1931.39 1406.8Z" fill-rule="evenodd"/><text fill="#000000" fill-opacity="0" font-family="Arial,Arial_MSFontService,sans-serif" font-size="26.1304" x="1923.57" y="1429.66">洧</text><path d="M2001.43 1391.74C2006.65 1393.12 2010.67 1396.09 2013.47 1400.67 2016.27 1405.24 2017.67 1410.76 2017.67 1417.23 2017.67 1423.71 2016.28 1429.23 2013.48 1433.78 2010.69 1438.34 2006.67 1441.31 2001.43 1442.68L2000.78 1440.62C2004.92 1439.24 2007.99 1436.52 2010.01 1432.45 2012.02 1428.39 2013.03 1423.22 2013.03 1416.96 2013.03 1410.91 2012.03 1405.88 2010.02 1401.88 2008.02 1397.88 2004.91 1395.19 2000.7 1393.81ZM1971.61 1391.74 1972.33 1393.81C1968.14 1395.19 1965.04 1397.88 1963.03 1401.88 1961.01 1405.88 1960 1410.91 1960 1416.96 1960 1423.22 1961.01 1428.39 1963.03 1432.45 1965.04 1436.52 1968.12 1439.24 1972.25 1440.62L1971.61 1442.68C1966.36 1441.31 1962.34 1438.34 1959.55 1433.78 1956.76 1429.23 1955.36 1423.71 1955.36 1417.23 1955.36 1410.76 1956.76 1405.24 1959.56 1400.67 1962.36 1396.09 1966.38 1393.12 1971.61 1391.74Z" fill-rule="evenodd"/><path d="M1988.34 1406.83C1990 1406.83 1991.52 1406.92 1992.89 1407.12 1994.26 1407.32 1995.62 1407.66 1996.98 1408.14L1995.77 1413.78 1993.6 1413.78C1993.4 1412.19 1992.88 1410.98 1992.03 1410.16 1991.18 1409.33 1989.84 1408.92 1988.01 1408.92 1986.6 1408.92 1985.45 1409.28 1984.58 1410.01 1983.7 1410.73 1983.26 1411.69 1983.26 1412.87 1983.26 1413.51 1983.37 1414.08 1983.6 1414.57 1983.82 1415.07 1984.27 1415.61 1984.95 1416.2 1985.63 1416.79 1986.69 1417.51 1988.12 1418.37 1989.25 1419.05 1990.15 1419.68 1990.83 1420.24 1991.51 1420.8 1992.05 1421.36 1992.44 1421.92 1992.84 1422.47 1993.12 1423.06 1993.3 1423.68 1993.48 1424.3 1993.57 1425.04 1993.57 1425.92 1993.57 1427.51 1993.15 1428.88 1992.3 1430.02 1991.45 1431.15 1990.29 1432 1988.83 1432.55 1987.37 1433.11 1985.71 1433.39 1983.85 1433.39 1982.36 1433.39 1980.91 1433.27 1979.47 1433.05 1978.04 1432.83 1976.45 1432.45 1974.69 1431.91L1975.98 1426.05 1978.08 1426.05C1978.15 1427.77 1978.63 1429.07 1979.53 1429.95 1980.42 1430.83 1981.85 1431.26 1983.8 1431.26 1985.5 1431.26 1986.83 1430.88 1987.78 1430.12 1988.74 1429.36 1989.22 1428.28 1989.22 1426.89 1989.22 1426.08 1989.09 1425.39 1988.82 1424.81 1988.55 1424.22 1988.11 1423.66 1987.5 1423.13 1986.89 1422.59 1985.93 1421.92 1984.6 1421.11 1983.21 1420.27 1982.12 1419.51 1981.34 1418.83 1980.56 1418.15 1979.97 1417.41 1979.58 1416.61 1979.19 1415.82 1978.99 1414.9 1978.99 1413.86 1978.99 1412.45 1979.37 1411.21 1980.13 1410.14 1980.89 1409.08 1981.98 1408.26 1983.39 1407.68 1984.81 1407.11 1986.46 1406.83 1988.34 1406.83Z" fill-rule="evenodd"/><text fill="#000000" fill-opacity="0" font-family="Arial,Arial_MSFontService,sans-serif" font-size="26.5601" x="1974.69" y="1430.07">洧</text><path d="M2026.1 1426.7 2030.8 1426.7C2031.06 1427.95 2031.18 1429.19 2031.18 1430.4 2031.18 1431.66 2030.97 1432.8 2030.54 1433.84 2030.11 1434.88 2029.42 1435.91 2028.48 1436.94 2027.54 1437.97 2026.25 1439.11 2024.6 1440.34L2023.15 1438.7C2024.06 1437.84 2024.73 1437.07 2025.14 1436.38 2025.55 1435.69 2025.85 1434.91 2026.02 1434.03 2026.2 1433.15 2026.29 1432.05 2026.29 1430.73 2026.29 1429.37 2026.23 1428.02 2026.1 1426.7Z" fill-rule="evenodd"/><text fill="#000000" fill-opacity="0" font-family="Arial,Arial_MSFontService,sans-serif" font-size="13.6426" x="2023.15" y="1438.64">,</text><path d="M2069.91 1408.95C2068.46 1408.95 2067.22 1409.76 2066.19 1411.39 2065.16 1413.02 2064.25 1415.59 2063.46 1419.1L2060.72 1431.26C2063.26 1431.17 2065.46 1430.34 2067.3 1428.75 2069.15 1427.17 2070.57 1425.02 2071.57 1422.32 2072.57 1419.62 2073.07 1416.82 2073.07 1413.94 2073.07 1412.38 2072.8 1411.16 2072.26 1410.28 2071.71 1409.39 2070.93 1408.95 2069.91 1408.95ZM2057.5 1406.74 2058.9 1408.6C2056.26 1410.48 2054.17 1412.71 2052.61 1415.29 2051.05 1417.86 2050.27 1420.41 2050.27 1422.91 2050.27 1425.24 2050.79 1427.07 2051.83 1428.42 2052.87 1429.76 2054.44 1430.65 2056.53 1431.08L2059.27 1418.75C2060.18 1414.67 2061.63 1411.66 2063.61 1409.71 2065.59 1407.77 2067.82 1406.8 2070.31 1406.8 2072.76 1406.8 2074.61 1407.48 2075.84 1408.85 2077.08 1410.22 2077.69 1412.28 2077.69 1415.02 2077.69 1418.44 2076.98 1421.54 2075.56 1424.34 2074.14 1427.13 2072.11 1429.31 2069.48 1430.89 2066.84 1432.46 2063.78 1433.28 2060.29 1433.33L2057.77 1444.53 2053.55 1444.53 2056.08 1433.28C2052.75 1432.9 2050.18 1431.8 2048.38 1429.96 2046.58 1428.13 2045.68 1425.71 2045.68 1422.72 2045.68 1416.78 2049.62 1411.45 2057.5 1406.74Z" fill-rule="evenodd"/><text fill="#000000" fill-opacity="0" font-family="Arial,Arial_MSFontService,sans-serif" font-size="37.7856" x="2045.68" y="1439.81">洧램</text><path d="M2102.64 1394.12 2103.37 1396.19C2099.18 1397.57 2096.08 1400.26 2094.06 1404.26 2092.05 1408.26 2091.04 1413.29 2091.04 1419.34 2091.04 1425.61 2092.05 1430.77 2094.06 1434.84 2096.08 1438.9 2099.15 1441.62 2103.29 1443L2102.64 1445.07C2097.4 1443.69 2093.38 1440.72 2090.59 1436.17 2087.79 1431.61 2086.4 1426.09 2086.4 1419.61 2086.4 1413.15 2087.8 1407.63 2090.6 1403.05 2093.4 1398.48 2097.42 1395.5 2102.64 1394.12Z" fill-rule="evenodd"/><text fill="#000000" fill-opacity="0" font-family="Arial,Arial_MSFontService,sans-serif" font-size="50.9448" x="2086.4" y="1438.7">(</text><path d="M2119.46 1406.83C2121.13 1406.83 2122.65 1406.92 2124.02 1407.12 2125.39 1407.32 2126.75 1407.66 2128.11 1408.14L2126.9 1413.78 2124.73 1413.78C2124.53 1412.19 2124.01 1410.98 2123.16 1410.16 2122.31 1409.33 2120.97 1408.92 2119.14 1408.92 2117.73 1408.92 2116.58 1409.28 2115.7 1410.01 2114.83 1410.73 2114.39 1411.69 2114.39 1412.87 2114.39 1413.51 2114.5 1414.08 2114.72 1414.57 2114.95 1415.07 2115.4 1415.61 2116.08 1416.2 2116.76 1416.79 2117.82 1417.51 2119.25 1418.37 2120.38 1419.05 2121.28 1419.68 2121.96 1420.24 2122.64 1420.8 2123.18 1421.36 2123.57 1421.92 2123.97 1422.47 2124.25 1423.06 2124.43 1423.68 2124.61 1424.3 2124.7 1425.04 2124.7 1425.92 2124.7 1427.51 2124.28 1428.88 2123.43 1430.02 2122.58 1431.15 2121.42 1432 2119.96 1432.55 2118.5 1433.11 2116.84 1433.39 2114.98 1433.39 2113.49 1433.39 2112.03 1433.27 2110.6 1433.05 2109.17 1432.83 2107.58 1432.45 2105.82 1431.91L2107.11 1426.05 2109.21 1426.05C2109.28 1427.77 2109.76 1429.07 2110.66 1429.95 2111.55 1430.83 2112.97 1431.26 2114.93 1431.26 2116.63 1431.26 2117.96 1430.88 2118.91 1430.12 2119.87 1429.36 2120.35 1428.28 2120.35 1426.89 2120.35 1426.08 2120.22 1425.39 2119.95 1424.81 2119.68 1424.22 2119.24 1423.66 2118.63 1423.13 2118.02 1422.59 2117.06 1421.92 2115.73 1421.11 2114.33 1420.27 2113.25 1419.51 2112.47 1418.83 2111.69 1418.15 2111.1 1417.41 2110.71 1416.61 2110.32 1415.82 2110.12 1414.9 2110.12 1413.86 2110.12 1412.45 2110.5 1411.21 2111.26 1410.14 2112.02 1409.08 2113.11 1408.26 2114.52 1407.68 2115.94 1407.11 2117.58 1406.83 2119.46 1406.83Z" fill-rule="evenodd"/><text fill="#000000" fill-opacity="0" font-family="Arial,Arial_MSFontService,sans-serif" font-size="26.5601" x="2105.82" y="1430.07">洧</text><path d="M2132.56 1394.12C2137.78 1395.5 2141.8 1398.48 2144.6 1403.05 2147.4 1407.63 2148.8 1413.15 2148.8 1419.61 2148.8 1426.09 2147.41 1431.61 2144.61 1436.17 2141.82 1440.72 2137.8 1443.69 2132.56 1445.07L2131.91 1443C2136.05 1441.62 2139.12 1438.9 2141.14 1434.84 2143.15 1430.77 2144.16 1425.61 2144.16 1419.34 2144.16 1413.29 2143.15 1408.26 2141.15 1404.26 2139.14 1400.26 2136.04 1397.57 2131.83 1396.19Z" fill-rule="evenodd"/><text fill="#000000" fill-opacity="0" font-family="Arial,Arial_MSFontService,sans-serif" font-size="50.9448" x="2131.83" y="1438.7">)</text><path d="M1725.69 1624.56C1724.24 1624.56 1723 1625.38 1721.97 1627.01 1720.94 1628.64 1720.03 1631.21 1719.24 1634.72L1716.51 1646.88C1719.05 1646.79 1721.24 1645.95 1723.08 1644.37 1724.93 1642.79 1726.35 1640.64 1727.35 1637.94 1728.36 1635.23 1728.86 1632.44 1728.86 1629.56 1728.86 1628 1728.59 1626.78 1728.04 1625.89 1727.49 1625.01 1726.71 1624.56 1725.69 1624.56ZM1713.28 1622.36 1714.68 1624.21C1712.05 1626.09 1709.95 1628.32 1708.39 1630.9 1706.84 1633.48 1706.06 1636.02 1706.06 1638.53 1706.06 1640.86 1706.58 1642.69 1707.62 1644.03 1708.65 1645.38 1710.22 1646.26 1712.32 1646.69L1715.06 1634.37C1715.97 1630.28 1717.41 1627.27 1719.39 1625.33 1721.37 1623.39 1723.6 1622.42 1726.09 1622.42 1728.55 1622.42 1730.39 1623.1 1731.62 1624.47 1732.86 1625.84 1733.48 1627.89 1733.48 1630.63 1733.48 1634.05 1732.77 1637.16 1731.34 1639.95 1729.92 1642.74 1727.89 1644.93 1725.26 1646.5 1722.63 1648.08 1719.57 1648.89 1716.08 1648.95L1713.55 1660.15 1709.33 1660.15 1711.86 1648.89C1708.53 1648.52 1705.96 1647.41 1704.17 1645.58 1702.37 1643.74 1701.47 1641.33 1701.47 1638.34 1701.47 1632.4 1705.41 1627.07 1713.28 1622.36Z" fill-rule="evenodd"/><text fill="#000000" fill-opacity="0" font-family="Arial,Arial_MSFontService,sans-serif" font-size="37.7856" x="1701.47" y="1655.42">洧램</text><path d="M1747.74 1636.38C1746.83 1636.38 1746.06 1636.61 1745.45 1637.09 1744.84 1637.56 1744.35 1638.26 1744 1639.18 1743.64 1640.1 1743.38 1641.22 1743.23 1642.54 1743.08 1643.86 1743.01 1645.36 1743.01 1647.04 1743.01 1648.98 1743.1 1650.66 1743.29 1652.07 1743.48 1653.48 1743.78 1654.64 1744.17 1655.56 1744.57 1656.47 1745.07 1657.14 1745.67 1657.57 1746.27 1658 1746.98 1658.21 1747.81 1658.21 1748.6 1658.21 1749.28 1658.01 1749.87 1657.61 1750.45 1657.2 1750.94 1656.58 1751.32 1655.72 1751.7 1654.87 1751.99 1653.79 1752.19 1652.48 1752.39 1651.17 1752.48 1649.63 1752.48 1647.84 1752.48 1645.84 1752.38 1644.11 1752.16 1642.67 1751.95 1641.22 1751.64 1640.03 1751.25 1639.1 1750.86 1638.17 1750.37 1637.48 1749.78 1637.04 1749.19 1636.6 1748.5 1636.38 1747.74 1636.38ZM1747.81 1634.48C1749.36 1634.48 1750.69 1634.77 1751.79 1635.35 1752.89 1635.93 1753.79 1636.76 1754.48 1637.83 1755.18 1638.91 1755.69 1640.22 1756.02 1641.77 1756.34 1643.32 1756.51 1645.07 1756.51 1647.02 1756.51 1651.36 1755.74 1654.63 1754.2 1656.85 1752.66 1659.08 1750.44 1660.19 1747.52 1660.19 1744.63 1660.19 1742.48 1659.14 1741.08 1657.04 1739.67 1654.94 1738.97 1651.77 1738.97 1647.51 1738.97 1645.28 1739.19 1643.36 1739.62 1641.73 1740.06 1640.1 1740.67 1638.75 1741.46 1637.68 1742.24 1636.6 1743.18 1635.8 1744.26 1635.27 1745.34 1634.75 1746.53 1634.48 1747.81 1634.48Z" fill-rule="evenodd"/><text fill="#000000" fill-opacity="0" font-family="Arial,Arial_MSFontService,sans-serif" font-size="25.7031" x="1738.97" y="1656.97">0</text><path d="M1620.5 2055.08C1621.06 2055.08 1621.55 2055.15 1621.97 2055.27 1622.39 2055.4 1622.76 2055.59 1623.08 2055.85 1623.41 2056.11 1623.69 2056.44 1623.94 2056.86 1624.19 2057.27 1624.43 2057.83 1624.67 2058.53 1624.9 2059.24 1625.12 2060.12 1625.33 2061.17 1625.53 2062.21 1625.71 2063.3 1625.88 2064.43L1626.14 2064.43C1627.86 2062.01 1629.17 2060.24 1630.05 2059.12 1630.94 2058.01 1631.69 2057.17 1632.29 2056.63 1632.9 2056.08 1633.49 2055.7 1634.05 2055.47 1634.62 2055.25 1635.36 2055.14 1636.3 2055.14 1637.14 2055.14 1637.83 2055.24 1638.36 2055.46L1637.29 2060.32 1635.41 2060.32C1635.3 2059.57 1634.99 2059.19 1634.47 2059.19 1634.31 2059.19 1634.14 2059.22 1633.96 2059.27 1633.78 2059.33 1633.56 2059.44 1633.3 2059.62 1633.04 2059.8 1632.66 2060.15 1632.16 2060.67 1631.66 2061.19 1631.09 2061.82 1630.47 2062.58 1629.84 2063.33 1629.2 2064.12 1628.53 2064.94L1626.71 2067.22C1627.03 2068.94 1627.34 2070.43 1627.62 2071.68 1627.91 2072.93 1628.16 2073.98 1628.39 2074.81 1628.61 2075.64 1628.81 2076.3 1628.98 2076.78 1629.15 2077.27 1629.33 2077.63 1629.53 2077.87 1629.73 2078.11 1629.93 2078.28 1630.13 2078.38 1630.34 2078.48 1630.58 2078.53 1630.84 2078.53 1631.33 2078.53 1631.8 2078.34 1632.25 2077.96 1632.71 2077.59 1633.37 2076.74 1634.23 2075.41L1635.97 2076.57C1634.72 2078.43 1633.59 2079.74 1632.58 2080.5 1631.56 2081.26 1630.36 2081.64 1628.96 2081.64 1628.19 2081.64 1627.54 2081.5 1627 2081.23 1626.47 2080.95 1626 2080.51 1625.61 2079.9 1625.21 2079.29 1624.86 2078.34 1624.56 2077.05 1624.01 2074.76 1623.66 2073 1623.54 2071.79L1623.27 2071.79C1621.37 2074.45 1619.96 2076.37 1619.04 2077.53 1618.12 2078.7 1617.36 2079.56 1616.76 2080.11 1616.16 2080.67 1615.58 2081.06 1615.01 2081.28 1614.45 2081.5 1613.7 2081.62 1612.77 2081.62 1611.93 2081.62 1611.24 2081.51 1610.7 2081.29L1611.78 2076.43 1613.66 2076.43C1613.76 2077.19 1614.08 2077.56 1614.6 2077.56 1614.85 2077.56 1615.11 2077.49 1615.39 2077.36 1615.67 2077.23 1616.06 2076.9 1616.58 2076.39 1617.1 2075.88 1617.82 2075.08 1618.73 2073.99 1619.65 2072.9 1620.97 2071.26 1622.71 2069.07 1622.44 2067.66 1622.16 2066.3 1621.87 2064.99 1621.59 2063.69 1621.29 2062.47 1620.99 2061.34 1620.68 2060.21 1620.43 2059.47 1620.24 2059.12 1620.04 2058.78 1619.83 2058.53 1619.61 2058.4 1619.38 2058.27 1619.1 2058.2 1618.76 2058.2 1618.38 2058.2 1618.04 2058.28 1617.74 2058.45 1617.43 2058.62 1617.1 2058.92 1616.75 2059.34 1616.39 2059.76 1615.91 2060.42 1615.32 2061.31L1613.58 2060.16C1614.7 2058.46 1615.79 2057.19 1616.83 2056.35 1617.86 2055.5 1619.09 2055.08 1620.5 2055.08Z" fill-rule="evenodd"/><text fill="#000000" fill-opacity="0" font-family="Arial,Arial_MSFontService,sans-serif" font-size="26.5601" x="1610.7" y="2078.32">洧논</text><path d="M1650.17 2069.04C1649.26 2069.04 1648.5 2069.28 1647.89 2069.76 1647.27 2070.23 1646.79 2070.93 1646.43 2071.85 1646.07 2072.76 1645.82 2073.88 1645.67 2075.21 1645.52 2076.53 1645.44 2078.03 1645.44 2079.71 1645.44 2081.65 1645.54 2083.32 1645.73 2084.74 1645.92 2086.15 1646.21 2087.31 1646.61 2088.22 1647 2089.14 1647.5 2089.81 1648.1 2090.24 1648.7 2090.67 1649.42 2090.88 1650.25 2090.88 1651.03 2090.88 1651.71 2090.68 1652.3 2090.27 1652.89 2089.87 1653.37 2089.24 1653.75 2088.39 1654.14 2087.54 1654.43 2086.46 1654.62 2085.15 1654.82 2083.84 1654.92 2082.29 1654.92 2080.51 1654.92 2078.5 1654.81 2076.78 1654.59 2075.33 1654.38 2073.89 1654.08 2072.7 1653.69 2071.77 1653.3 2070.84 1652.8 2070.15 1652.21 2069.71 1651.62 2069.27 1650.94 2069.04 1650.17 2069.04ZM1650.25 2067.15C1651.8 2067.15 1653.12 2067.44 1654.22 2068.02 1655.32 2068.6 1656.22 2069.43 1656.92 2070.5 1657.62 2071.57 1658.13 2072.89 1658.45 2074.43 1658.78 2075.98 1658.94 2077.74 1658.94 2079.69 1658.94 2084.02 1658.17 2087.3 1656.64 2089.52 1655.1 2091.74 1652.87 2092.85 1649.96 2092.85 1647.07 2092.85 1644.92 2091.8 1643.51 2089.71 1642.1 2087.61 1641.4 2084.43 1641.4 2080.18 1641.4 2077.95 1641.62 2076.02 1642.06 2074.4 1642.49 2072.77 1643.1 2071.42 1643.89 2070.34 1644.68 2069.27 1645.61 2068.47 1646.69 2067.94 1647.77 2067.41 1648.96 2067.15 1650.25 2067.15Z" fill-rule="evenodd"/><text fill="#000000" fill-opacity="0" font-family="Arial,Arial_MSFontService,sans-serif" font-size="25.7031" x="1641.4" y="2089.64">0</text><path d="M2602.37 2055.08C2602.93 2055.08 2603.42 2055.15 2603.84 2055.27 2604.26 2055.4 2604.63 2055.59 2604.95 2055.85 2605.27 2056.11 2605.56 2056.44 2605.81 2056.86 2606.06 2057.27 2606.3 2057.83 2606.54 2058.53 2606.77 2059.24 2606.99 2060.12 2607.2 2061.17 2607.4 2062.21 2607.58 2063.3 2607.75 2064.43L2608.01 2064.43C2609.73 2062.01 2611.04 2060.24 2611.92 2059.12 2612.81 2058.01 2613.56 2057.17 2614.16 2056.63 2614.77 2056.08 2615.36 2055.7 2615.92 2055.47 2616.49 2055.25 2617.23 2055.14 2618.17 2055.14 2619.01 2055.14 2619.7 2055.24 2620.23 2055.46L2619.16 2060.32 2617.28 2060.32C2617.17 2059.57 2616.86 2059.19 2616.34 2059.19 2616.18 2059.19 2616.01 2059.22 2615.83 2059.27 2615.65 2059.33 2615.43 2059.44 2615.17 2059.62 2614.91 2059.8 2614.53 2060.15 2614.03 2060.67 2613.53 2061.19 2612.96 2061.82 2612.34 2062.58 2611.71 2063.33 2611.07 2064.12 2610.4 2064.94L2608.58 2067.22C2608.9 2068.94 2609.2 2070.43 2609.49 2071.68 2609.78 2072.93 2610.03 2073.98 2610.26 2074.81 2610.48 2075.64 2610.68 2076.3 2610.85 2076.78 2611.02 2077.27 2611.2 2077.63 2611.4 2077.87 2611.59 2078.11 2611.8 2078.28 2612 2078.38 2612.21 2078.48 2612.45 2078.53 2612.71 2078.53 2613.2 2078.53 2613.67 2078.34 2614.12 2077.96 2614.58 2077.59 2615.24 2076.74 2616.1 2075.41L2617.84 2076.57C2616.59 2078.43 2615.46 2079.74 2614.45 2080.5 2613.43 2081.26 2612.23 2081.64 2610.83 2081.64 2610.06 2081.64 2609.41 2081.5 2608.87 2081.23 2608.34 2080.95 2607.87 2080.51 2607.48 2079.9 2607.08 2079.29 2606.73 2078.34 2606.43 2077.05 2605.87 2074.76 2605.53 2073 2605.41 2071.79L2605.14 2071.79C2603.24 2074.45 2601.83 2076.37 2600.91 2077.53 2599.99 2078.7 2599.23 2079.56 2598.63 2080.11 2598.03 2080.67 2597.45 2081.06 2596.88 2081.28 2596.32 2081.5 2595.57 2081.62 2594.64 2081.62 2593.8 2081.62 2593.11 2081.51 2592.57 2081.29L2593.65 2076.43 2595.53 2076.43C2595.63 2077.19 2595.95 2077.56 2596.47 2077.56 2596.72 2077.56 2596.98 2077.49 2597.26 2077.36 2597.54 2077.23 2597.93 2076.9 2598.45 2076.39 2598.97 2075.88 2599.69 2075.08 2600.6 2073.99 2601.52 2072.9 2602.84 2071.26 2604.58 2069.07 2604.31 2067.66 2604.03 2066.3 2603.74 2064.99 2603.46 2063.69 2603.16 2062.47 2602.86 2061.34 2602.55 2060.21 2602.3 2059.47 2602.11 2059.12 2601.91 2058.78 2601.7 2058.53 2601.47 2058.4 2601.25 2058.27 2600.97 2058.2 2600.63 2058.2 2600.25 2058.2 2599.91 2058.28 2599.61 2058.45 2599.3 2058.62 2598.97 2058.92 2598.61 2059.34 2598.26 2059.76 2597.78 2060.42 2597.19 2061.31L2595.45 2060.16C2596.57 2058.46 2597.66 2057.19 2598.7 2056.35 2599.73 2055.5 2600.96 2055.08 2602.37 2055.08Z" fill-rule="evenodd"/><text fill="#000000" fill-opacity="0" font-family="Arial,Arial_MSFontService,sans-serif" font-size="26.5601" x="2592.57" y="2078.32">洧논</text><path d="M2632.36 2067.29 2633.55 2067.29C2633.52 2068 2633.5 2068.64 2633.49 2069.21 2633.48 2069.78 2633.47 2070.33 2633.46 2070.86 2633.46 2071.39 2633.45 2071.92 2633.45 2072.44L2633.45 2087.29C2633.45 2087.69 2633.47 2088.04 2633.49 2088.33 2633.52 2088.62 2633.56 2088.87 2633.62 2089.07 2633.68 2089.28 2633.75 2089.45 2633.85 2089.59 2633.95 2089.73 2634.06 2089.86 2634.19 2089.96 2634.35 2090.12 2634.56 2090.24 2634.82 2090.32 2635.08 2090.41 2635.41 2090.48 2635.82 2090.54 2636.22 2090.6 2636.7 2090.64 2637.27 2090.68 2637.84 2090.71 2638.52 2090.73 2639.31 2090.74L2639.31 2092.44 2623.82 2092.44 2623.82 2090.74C2624.59 2090.72 2625.24 2090.69 2625.78 2090.66 2626.31 2090.62 2626.77 2090.58 2627.14 2090.52 2627.52 2090.46 2627.82 2090.4 2628.05 2090.32 2628.28 2090.25 2628.48 2090.16 2628.65 2090.06 2628.83 2089.94 2628.99 2089.82 2629.12 2089.68 2629.25 2089.54 2629.35 2089.37 2629.43 2089.16 2629.51 2088.95 2629.57 2088.7 2629.61 2088.4 2629.66 2088.1 2629.68 2087.73 2629.68 2087.29L2629.68 2073.28C2629.68 2072.77 2629.58 2072.42 2629.39 2072.21 2629.19 2072 2628.91 2071.9 2628.55 2071.9 2628.15 2071.9 2627.55 2072.1 2626.75 2072.52 2625.96 2072.94 2624.93 2073.56 2623.67 2074.38 2623.5 2074.08 2623.34 2073.78 2623.2 2073.48 2623.05 2073.18 2622.91 2072.87 2622.75 2072.56 2624.36 2071.67 2625.96 2070.79 2627.54 2069.91 2629.13 2069.03 2630.73 2068.16 2632.36 2067.29Z" fill-rule="evenodd"/><text fill="#000000" fill-opacity="0" font-family="Arial,Arial_MSFontService,sans-serif" font-size="25.1562" x="2622.75" y="2089.3">1</text><path d="M1231.66 1678.88C1232.39 1678.88 1233.02 1678.97 1233.53 1679.17 1233.89 1679.31 1234.25 1679.55 1234.61 1679.88 1234.97 1680.21 1235.29 1680.68 1235.56 1681.27 1235.84 1681.86 1236.08 1682.52 1236.29 1683.25 1236.49 1683.99 1236.72 1685.04 1236.97 1686.42 1237.4 1688.73 1237.82 1691.16 1238.22 1693.71 1238.62 1696.27 1238.97 1698.63 1239.26 1700.82 1240.99 1698.31 1242.46 1695.86 1243.67 1693.46 1244.88 1691.06 1245.75 1688.97 1246.28 1687.2 1246.81 1685.43 1247.07 1683.99 1247.07 1682.88 1247.07 1682.04 1246.89 1681.46 1246.53 1681.16 1246.17 1680.85 1245.57 1680.68 1244.71 1680.62L1244.98 1679.31 1252.04 1679.31 1252.76 1680.65C1251.4 1684.37 1249.56 1688.36 1247.23 1692.6 1244.94 1696.75 1242.32 1700.89 1239.36 1705.01 1236.53 1708.93 1234.18 1711.77 1232.3 1713.52 1230.99 1714.72 1229.73 1715.58 1228.51 1716.1 1227.55 1716.49 1226.52 1716.69 1225.42 1716.69 1225.05 1716.69 1224.61 1716.66 1224.12 1716.59 1223.63 1716.53 1223.25 1716.45 1222.98 1716.34L1224.14 1711.13 1226.26 1711.13C1226.26 1712.28 1226.65 1712.85 1227.44 1712.85 1228.48 1712.85 1229.69 1712.2 1231.06 1710.9 1232.44 1709.6 1234.06 1707.65 1235.93 1705.03 1235.41 1701.9 1234.7 1698.12 1233.8 1693.7 1232.85 1688.97 1232.23 1686.05 1231.92 1684.92 1231.55 1683.56 1231.15 1682.69 1230.74 1682.31 1230.49 1682.08 1230.18 1681.96 1229.8 1681.96 1229.23 1681.96 1228.69 1682.2 1228.19 1682.66 1227.69 1683.13 1227.07 1683.93 1226.34 1685.08L1224.59 1683.93C1225.83 1682.08 1226.98 1680.78 1228.06 1680.02 1229.13 1679.26 1230.33 1678.88 1231.66 1678.88Z" fill-rule="evenodd"/><text fill="#000000" fill-opacity="0" font-family="Arial,Arial_MSFontService,sans-serif" font-size="37.8125" x="1222.98" y="1711.96">洧녽</text><path d="M1263.64 1692.81C1262.73 1692.81 1261.97 1693.05 1261.35 1693.52 1260.74 1694 1260.26 1694.7 1259.9 1695.61 1259.54 1696.53 1259.29 1697.65 1259.14 1698.97 1258.99 1700.29 1258.91 1701.79 1258.91 1703.47 1258.91 1705.41 1259.01 1707.09 1259.2 1708.5 1259.38 1709.92 1259.68 1711.08 1260.07 1711.99 1260.47 1712.9 1260.97 1713.57 1261.57 1714 1262.17 1714.43 1262.88 1714.65 1263.72 1714.65 1264.5 1714.65 1265.18 1714.44 1265.77 1714.04 1266.35 1713.64 1266.84 1713.01 1267.22 1712.16 1267.61 1711.3 1267.9 1710.22 1268.09 1708.91 1268.29 1707.61 1268.39 1706.06 1268.39 1704.28 1268.39 1702.27 1268.28 1700.54 1268.06 1699.1 1267.85 1697.65 1267.55 1696.47 1267.15 1695.54 1266.76 1694.6 1266.27 1693.92 1265.68 1693.47 1265.09 1693.03 1264.41 1692.81 1263.64 1692.81ZM1263.72 1690.92C1265.27 1690.92 1266.59 1691.21 1267.69 1691.79 1268.79 1692.36 1269.69 1693.19 1270.39 1694.27 1271.08 1695.34 1271.59 1696.65 1271.92 1698.2 1272.25 1699.75 1272.41 1701.5 1272.41 1703.46 1272.41 1707.79 1271.64 1711.07 1270.1 1713.29 1268.57 1715.51 1266.34 1716.62 1263.42 1716.62 1260.53 1716.62 1258.39 1715.57 1256.98 1713.47 1255.57 1711.38 1254.87 1708.2 1254.87 1703.94 1254.87 1701.72 1255.09 1699.79 1255.52 1698.16 1255.96 1696.53 1256.57 1695.18 1257.36 1694.11 1258.15 1693.04 1259.08 1692.23 1260.16 1691.71 1261.24 1691.18 1262.43 1690.92 1263.72 1690.92Z" fill-rule="evenodd"/><text fill="#000000" fill-opacity="0" font-family="Arial,Arial_MSFontService,sans-serif" font-size="25.7031" x="1254.87" y="1713.41">0</text><path d="M1231 909.872C1231.74 909.872 1232.36 909.971 1232.88 910.168 1233.24 910.311 1233.6 910.548 1233.96 910.88 1234.31 911.211 1234.63 911.672 1234.91 912.263 1235.19 912.853 1235.43 913.516 1235.64 914.25 1235.84 914.984 1236.07 916.04 1236.32 917.419 1236.75 919.728 1237.17 922.159 1237.57 924.71 1237.97 927.261 1238.32 929.629 1238.6 931.813 1240.34 929.307 1241.81 926.854 1243.02 924.455 1244.23 922.056 1245.1 919.97 1245.63 918.198 1246.15 916.425 1246.42 914.984 1246.42 913.874 1246.42 913.032 1246.24 912.46 1245.88 912.155 1245.52 911.851 1244.91 911.672 1244.05 911.618L1244.32 910.302 1251.39 910.302 1252.11 911.645C1250.75 915.369 1248.91 919.352 1246.58 923.596 1244.29 927.749 1241.66 931.885 1238.71 936.003 1235.88 939.924 1233.53 942.761 1231.65 944.516 1230.34 945.716 1229.08 946.575 1227.86 947.094 1226.89 947.488 1225.86 947.685 1224.77 947.685 1224.4 947.685 1223.96 947.654 1223.47 947.591 1222.98 947.528 1222.6 947.443 1222.33 947.336L1223.48 942.126 1225.6 942.126C1225.6 943.272 1226 943.845 1226.79 943.845 1227.82 943.845 1229.03 943.196 1230.41 941.898 1231.79 940.6 1233.41 938.644 1235.27 936.03 1234.75 932.897 1234.05 929.119 1233.15 924.697 1232.2 919.97 1231.58 917.043 1231.27 915.915 1230.9 914.554 1230.5 913.686 1230.09 913.31 1229.84 913.077 1229.53 912.961 1229.15 912.961 1228.58 912.961 1228.04 913.194 1227.54 913.659 1227.04 914.125 1226.42 914.93 1225.69 916.076L1223.94 914.921C1225.18 913.077 1226.33 911.775 1227.4 911.014 1228.48 910.253 1229.68 909.872 1231 909.872Z" fill-rule="evenodd"/><text fill="#000000" fill-opacity="0" font-family="Arial,Arial_MSFontService,sans-serif" font-size="37.8125" x="1222.33" y="942.958">洧녽</text><path d="M1263.31 922.049 1264.5 922.049C1264.47 922.765 1264.45 923.406 1264.44 923.973 1264.42 924.539 1264.42 925.089 1264.41 925.623 1264.4 926.157 1264.4 926.684 1264.4 927.205L1264.4 942.049C1264.4 942.453 1264.41 942.801 1264.44 943.094 1264.46 943.387 1264.51 943.634 1264.56 943.836 1264.62 944.038 1264.7 944.21 1264.8 944.354 1264.9 944.497 1265.01 944.62 1265.14 944.725 1265.3 944.881 1265.51 945.001 1265.77 945.086 1266.03 945.171 1266.36 945.242 1266.76 945.301 1267.17 945.359 1267.65 945.405 1268.22 945.438 1268.78 945.47 1269.46 945.493 1270.26 945.506L1270.26 947.205 1254.77 947.205 1254.77 945.506C1255.54 945.48 1256.19 945.451 1256.72 945.418 1257.26 945.385 1257.71 945.34 1258.09 945.281 1258.47 945.223 1258.77 945.158 1259 945.086 1259.23 945.014 1259.42 944.927 1259.59 944.822 1259.78 944.705 1259.93 944.578 1260.06 944.441 1260.19 944.305 1260.3 944.132 1260.38 943.924 1260.45 943.716 1260.52 943.462 1260.56 943.162 1260.61 942.863 1260.63 942.492 1260.63 942.049L1260.63 928.045C1260.63 927.537 1260.53 927.179 1260.34 926.971 1260.14 926.762 1259.86 926.658 1259.5 926.658 1259.09 926.658 1258.49 926.867 1257.7 927.283 1256.91 927.7 1255.88 928.318 1254.61 929.139 1254.44 928.839 1254.29 928.54 1254.15 928.24 1254 927.941 1253.85 927.635 1253.7 927.322 1255.31 926.437 1256.91 925.555 1258.49 924.676 1260.07 923.797 1261.68 922.921 1263.31 922.049Z" fill-rule="evenodd"/><text fill="#000000" fill-opacity="0" font-family="Arial,Arial_MSFontService,sans-serif" font-size="25.1562" x="1253.7" y="944.061">1</text><path d="M1740.57 1554.93 1746.01 1558.63 1755.45 1566.39 1764.06 1574.78 1771.84 1583.71 1778.81 1593.08 1785 1602.79 1790.42 1612.74 1795.11 1622.83 1799.06 1632.98 1802.32 1643.08 1804.89 1653.04 1806.8 1662.76 1808.07 1672.16 1808.7 1681.13 1808.73 1689.49 1804.15 1689.51 1804.12 1681.22 1804.13 1681.37 1803.5 1672.55 1803.51 1672.7 1802.27 1663.44 1802.29 1663.58 1800.41 1653.99 1800.44 1654.12 1797.9 1644.29 1797.94 1644.42 1794.72 1634.45 1794.77 1634.58 1790.86 1624.57 1790.92 1624.7 1786.3 1614.73 1786.36 1614.87 1781.01 1605.05 1781.09 1605.18 1774.99 1595.61 1775.08 1595.75 1768.21 1586.52 1768.32 1586.65 1760.66 1577.86 1760.79 1577.99 1752.32 1569.74 1752.47 1569.87 1743.18 1562.24 1743.34 1562.36 1737.99 1558.72ZM1739.28 1556.83 1740.18 1573.33 1723.5 1547.5 1754.17 1549.66Z" fill="#595959"/><path d="M1745.22 1719.28 1769.45 1719.28 1767.59 1727.52 1765.02 1727.52C1764.94 1726.15 1764.83 1725.06 1764.68 1724.26 1764.53 1723.46 1764.31 1722.89 1764.03 1722.54 1763.76 1722.19 1763.42 1721.96 1763.03 1721.83 1762.63 1721.71 1762.04 1721.64 1761.26 1721.64L1752.98 1721.64 1749.79 1736.25 1754.81 1736.25C1755.6 1736.25 1756.25 1736.14 1756.77 1735.93 1757.29 1735.71 1757.77 1735.33 1758.22 1734.76 1758.67 1734.2 1759.22 1733.24 1759.89 1731.87L1762.33 1731.87 1759.72 1743.21 1757.36 1743.21C1757.36 1741.4 1757.3 1740.27 1757.19 1739.81 1757.07 1739.35 1756.85 1739.04 1756.52 1738.87 1756.18 1738.7 1755.53 1738.62 1754.54 1738.62L1749.28 1738.62 1747.16 1748.12C1746.78 1749.81 1746.59 1751.2 1746.59 1752.31 1746.59 1752.87 1746.68 1753.3 1746.86 1753.61 1747.04 1753.93 1747.31 1754.16 1747.67 1754.3 1748.02 1754.44 1748.64 1754.55 1749.52 1754.62L1749.22 1755.94 1738.19 1755.94 1738.48 1754.62C1739.16 1754.51 1739.67 1754.34 1740.01 1754.1 1740.35 1753.86 1740.64 1753.52 1740.87 1753.09 1741.1 1752.66 1741.32 1752.14 1741.52 1751.52 1741.71 1750.9 1742.01 1749.71 1742.4 1747.93L1746.97 1727.26C1747.36 1725.47 1747.56 1724.05 1747.56 1723.01 1747.56 1722.14 1747.35 1721.53 1746.94 1721.19 1746.53 1720.85 1745.86 1720.65 1744.93 1720.6Z" fill="#C00000" fill-rule="evenodd"/><text fill="#000000" fill-opacity="0" font-family="Arial,Arial_MSFontService,sans-serif" font-size="36.6577" x="1738.19" y="1751.35">洧냧</text><path d="M1773.13 1747.22C1773.84 1747.22 1774.43 1747.38 1774.88 1747.69 1775.34 1748.01 1775.72 1748.46 1776.02 1749.06 1776.32 1749.66 1776.56 1750.4 1776.76 1751.28 1776.95 1752.16 1777.16 1753.16 1777.38 1754.3L1777.64 1754.3C1778.42 1753.27 1779.1 1752.37 1779.67 1751.62 1780.24 1750.86 1780.75 1750.23 1781.2 1749.71 1781.65 1749.18 1782.05 1748.76 1782.41 1748.44 1782.77 1748.11 1783.12 1747.86 1783.46 1747.68 1783.8 1747.51 1784.14 1747.39 1784.5 1747.32 1784.86 1747.26 1785.26 1747.22 1785.7 1747.22 1786.35 1747.22 1786.95 1747.34 1787.48 1747.58L1786.5 1751.42 1784.88 1751.42C1784.84 1750.86 1784.64 1750.58 1784.26 1750.58 1784.11 1750.58 1783.96 1750.61 1783.79 1750.66 1783.62 1750.71 1783.42 1750.82 1783.18 1750.97 1782.95 1751.13 1782.68 1751.35 1782.37 1751.63 1782.07 1751.91 1781.71 1752.27 1781.29 1752.72 1780.87 1753.17 1780.4 1753.72 1779.86 1754.37 1779.33 1755.02 1778.72 1755.79 1778.03 1756.68 1778.38 1758.47 1778.68 1759.91 1778.94 1760.99 1779.19 1762.08 1779.43 1762.9 1779.67 1763.47 1779.9 1764.05 1780.14 1764.42 1780.37 1764.6 1780.61 1764.77 1780.87 1764.86 1781.17 1764.86 1781.39 1764.86 1781.6 1764.84 1781.79 1764.78 1781.98 1764.73 1782.17 1764.62 1782.37 1764.44 1782.58 1764.27 1782.8 1764.01 1783.05 1763.68 1783.29 1763.35 1783.59 1762.91 1783.93 1762.36L1785.39 1763.32C1784.82 1764.18 1784.31 1764.88 1783.87 1765.43 1783.42 1765.97 1783 1766.4 1782.58 1766.72 1782.16 1767.03 1781.73 1767.24 1781.29 1767.35 1780.85 1767.46 1780.34 1767.52 1779.77 1767.52 1779.27 1767.52 1778.83 1767.45 1778.44 1767.31 1778.05 1767.18 1777.71 1766.93 1777.42 1766.56 1777.23 1766.34 1777.04 1766.04 1776.88 1765.67 1776.71 1765.3 1776.55 1764.9 1776.41 1764.47 1776.26 1764.04 1776.13 1763.6 1776.02 1763.13 1775.9 1762.67 1775.8 1762.24 1775.72 1761.83 1775.64 1761.43 1775.58 1761.07 1775.54 1760.75 1775.49 1760.43 1775.46 1760.19 1775.45 1760.04L1775.23 1760.04C1774.45 1761.08 1773.77 1761.99 1773.19 1762.76 1772.61 1763.54 1772.09 1764.2 1771.62 1764.75 1771.15 1765.31 1770.73 1765.76 1770.35 1766.12 1769.97 1766.48 1769.6 1766.76 1769.24 1766.97 1768.87 1767.18 1768.5 1767.32 1768.12 1767.4 1767.73 1767.48 1767.31 1767.52 1766.84 1767.52 1766.16 1767.52 1765.58 1767.4 1765.1 1767.17L1766 1763.36 1767.66 1763.36C1767.7 1763.93 1767.91 1764.22 1768.3 1764.22 1768.44 1764.2 1768.58 1764.18 1768.72 1764.14 1768.86 1764.1 1769.02 1764.02 1769.2 1763.89 1769.38 1763.77 1769.61 1763.58 1769.89 1763.31 1770.17 1763.04 1770.53 1762.67 1770.96 1762.2 1771.39 1761.72 1771.91 1761.12 1772.54 1760.41 1773.16 1759.69 1773.91 1758.81 1774.79 1757.75 1774.55 1756.66 1774.35 1755.71 1774.17 1754.9 1773.99 1754.09 1773.83 1753.4 1773.68 1752.82 1773.53 1752.24 1773.39 1751.77 1773.24 1751.4 1773.1 1751.04 1772.95 1750.75 1772.8 1750.54 1772.65 1750.32 1772.49 1750.17 1772.31 1750.08 1772.14 1749.99 1771.93 1749.93 1771.7 1749.92 1771.48 1749.92 1771.27 1749.96 1771.08 1750.03 1770.9 1750.1 1770.7 1750.23 1770.5 1750.41 1770.3 1750.59 1770.08 1750.84 1769.83 1751.17 1769.59 1751.5 1769.32 1751.92 1769 1752.44L1767.5 1751.46C1768.03 1750.67 1768.52 1750 1768.95 1749.45 1769.38 1748.9 1769.8 1748.47 1770.22 1748.14 1770.63 1747.82 1771.07 1747.58 1771.53 1747.44 1772 1747.3 1772.53 1747.22 1773.13 1747.22Z" fill="#C00000" fill-rule="evenodd"/><text fill="#000000" fill-opacity="0" font-family="Arial,Arial_MSFontService,sans-serif" font-size="20.293" x="1765.1" y="1764.98">洧논</text><path d="M1799.53 1743.77C1798.61 1743.77 1797.85 1744.01 1797.24 1744.48 1796.63 1744.96 1796.14 1745.65 1795.78 1746.57 1795.43 1747.49 1795.17 1748.61 1795.02 1749.93 1794.87 1751.25 1794.8 1752.75 1794.8 1754.43 1794.8 1756.37 1794.89 1758.05 1795.08 1759.46 1795.27 1760.87 1795.56 1762.04 1795.96 1762.95 1796.36 1763.86 1796.86 1764.53 1797.45 1764.96 1798.05 1765.39 1798.77 1765.6 1799.6 1765.6 1800.38 1765.6 1801.07 1765.4 1801.65 1765 1802.24 1764.59 1802.72 1763.97 1803.11 1763.11 1803.49 1762.26 1803.78 1761.18 1803.98 1759.87 1804.17 1758.56 1804.27 1757.02 1804.27 1755.23 1804.27 1753.23 1804.16 1751.5 1803.95 1750.06 1803.73 1748.61 1803.43 1747.42 1803.04 1746.49 1802.65 1745.56 1802.16 1744.87 1801.57 1744.43 1800.97 1743.99 1800.29 1743.77 1799.53 1743.77ZM1799.6 1741.87C1801.15 1741.87 1802.48 1742.16 1803.58 1742.74 1804.68 1743.32 1805.58 1744.15 1806.27 1745.22 1806.97 1746.3 1807.48 1747.61 1807.81 1749.16 1808.13 1750.71 1808.29 1752.46 1808.29 1754.41 1808.29 1758.75 1807.53 1762.03 1805.99 1764.25 1804.45 1766.47 1802.23 1767.58 1799.31 1767.58 1796.42 1767.58 1794.27 1766.53 1792.86 1764.43 1791.46 1762.34 1790.76 1759.16 1790.76 1754.9 1790.76 1752.67 1790.97 1750.75 1791.41 1749.12 1791.85 1747.49 1792.46 1746.14 1793.25 1745.07 1794.03 1743.99 1794.97 1743.19 1796.05 1742.66 1797.13 1742.14 1798.31 1741.87 1799.6 1741.87Z" fill="#C00000" fill-rule="evenodd"/><text fill="#000000" fill-opacity="0" font-family="Arial,Arial_MSFontService,sans-serif" font-size="25.7031" x="1790.76" y="1764.36">0</text><path d="M1548.65 1523.6 1572.88 1523.6 1571.02 1531.85 1568.44 1531.85C1568.37 1530.47 1568.26 1529.38 1568.11 1528.58 1567.96 1527.79 1567.74 1527.21 1567.46 1526.86 1567.19 1526.51 1566.85 1526.28 1566.46 1526.15 1566.06 1526.03 1565.47 1525.96 1564.68 1525.96L1556.41 1525.96 1553.22 1540.57 1558.24 1540.57C1559.03 1540.57 1559.68 1540.47 1560.2 1540.25 1560.72 1540.04 1561.2 1539.65 1561.65 1539.08 1562.1 1538.52 1562.65 1537.56 1563.32 1536.2L1565.76 1536.2 1563.15 1547.53 1560.79 1547.53C1560.79 1545.72 1560.73 1544.59 1560.62 1544.13 1560.5 1543.68 1560.28 1543.36 1559.94 1543.19 1559.61 1543.02 1558.96 1542.94 1557.97 1542.94L1552.71 1542.94 1550.59 1552.44C1550.21 1554.13 1550.02 1555.52 1550.02 1556.63 1550.02 1557.19 1550.11 1557.62 1550.29 1557.94 1550.47 1558.25 1550.74 1558.48 1551.1 1558.62 1551.45 1558.76 1552.07 1558.87 1552.95 1558.94L1552.65 1560.26 1541.62 1560.26 1541.91 1558.94C1542.59 1558.84 1543.1 1558.66 1543.44 1558.42 1543.78 1558.18 1544.07 1557.84 1544.3 1557.41 1544.53 1556.98 1544.75 1556.46 1544.95 1555.84 1545.14 1555.22 1545.44 1554.03 1545.83 1552.26L1550.4 1531.58C1550.79 1529.79 1550.99 1528.37 1550.99 1527.33 1550.99 1526.46 1550.78 1525.85 1550.37 1525.51 1549.96 1525.17 1549.29 1524.97 1548.36 1524.92Z" fill="#C00000" fill-rule="evenodd"/><text fill="#000000" fill-opacity="0" font-family="Arial,Arial_MSFontService,sans-serif" font-size="36.6577" x="1541.62" y="1555.68">洧냧</text><path d="M1575.52 1551.55C1575.99 1551.55 1576.39 1551.59 1576.73 1551.69 1577.07 1551.79 1577.38 1551.94 1577.65 1552.15 1577.92 1552.36 1578.17 1552.63 1578.38 1552.96 1578.6 1553.29 1578.81 1553.69 1579.04 1554.16 1579.15 1554.45 1579.28 1554.86 1579.41 1555.39 1579.54 1555.93 1579.67 1556.55 1579.82 1557.25 1579.96 1557.95 1580.1 1558.73 1580.25 1559.57 1580.39 1560.42 1580.53 1561.31 1580.68 1562.23 1580.82 1563.15 1580.96 1564.1 1581.09 1565.07 1581.22 1566.04 1581.34 1567 1581.46 1567.93 1582.43 1566.66 1583.31 1565.36 1584.09 1564.06 1584.88 1562.75 1585.54 1561.51 1586.08 1560.34 1586.62 1559.18 1587.03 1558.12 1587.32 1557.16 1587.6 1556.2 1587.74 1555.44 1587.73 1554.87 1587.73 1554.29 1587.58 1553.88 1587.28 1553.64 1586.98 1553.39 1586.48 1553.25 1585.77 1553.21L1586.03 1551.96 1591.59 1551.96 1592.28 1553.09C1590.98 1556.31 1589.46 1559.41 1587.72 1562.4 1585.98 1565.38 1584.02 1568.28 1581.83 1571.1 1580.88 1572.23 1580.02 1573.21 1579.26 1574.03 1578.5 1574.85 1577.8 1575.55 1577.15 1576.15 1576.51 1576.74 1575.91 1577.22 1575.35 1577.6 1574.8 1577.98 1574.26 1578.28 1573.74 1578.51 1573.22 1578.74 1572.7 1578.9 1572.19 1579 1571.68 1579.09 1571.14 1579.16 1570.58 1579.18 1570.28 1579.18 1569.92 1579.15 1569.49 1579.09 1569.07 1579.02 1568.7 1578.94 1568.37 1578.83L1569.35 1574.55 1571.13 1574.55 1571.13 1574.67C1571.13 1575.56 1571.48 1576 1572.2 1576 1573.15 1576 1574.11 1575.63 1575.09 1574.9 1576.07 1574.16 1577.24 1572.98 1578.63 1571.37 1578.2 1568.9 1577.82 1566.76 1577.49 1564.95 1577.17 1563.15 1576.87 1561.61 1576.6 1560.34 1576.34 1559.08 1576.09 1558.04 1575.87 1557.25 1575.65 1556.45 1575.44 1555.84 1575.23 1555.39 1575.02 1554.95 1574.81 1554.65 1574.59 1554.49 1574.38 1554.32 1574.15 1554.24 1573.9 1554.24 1573.66 1554.24 1573.45 1554.27 1573.25 1554.33 1573.06 1554.39 1572.86 1554.51 1572.65 1554.69 1572.44 1554.87 1572.22 1555.13 1571.97 1555.46 1571.73 1555.79 1571.44 1556.23 1571.09 1556.76L1569.58 1555.78C1570.14 1554.96 1570.66 1554.28 1571.13 1553.73 1571.59 1553.19 1572.06 1552.75 1572.52 1552.43 1572.98 1552.12 1573.46 1551.89 1573.94 1551.75 1574.42 1551.61 1574.95 1551.55 1575.52 1551.55Z" fill="#C00000" fill-rule="evenodd"/><text fill="#000000" fill-opacity="0" font-family="Arial,Arial_MSFontService,sans-serif" font-size="27.6367" x="1568.37" y="1575.73">洧녽</text><path d="M1604.67 1548.09C1603.76 1548.09 1603 1548.33 1602.39 1548.8 1601.78 1549.28 1601.29 1549.97 1600.93 1550.89 1600.58 1551.81 1600.32 1552.93 1600.17 1554.25 1600.02 1555.57 1599.95 1557.07 1599.95 1558.75 1599.95 1560.69 1600.04 1562.37 1600.23 1563.78 1600.42 1565.2 1600.71 1566.36 1601.11 1567.27 1601.51 1568.18 1602 1568.85 1602.6 1569.28 1603.2 1569.71 1603.92 1569.93 1604.75 1569.93 1605.53 1569.93 1606.22 1569.72 1606.8 1569.32 1607.39 1568.92 1607.87 1568.29 1608.26 1567.43 1608.64 1566.58 1608.93 1565.5 1609.13 1564.19 1609.32 1562.88 1609.42 1561.34 1609.42 1559.55 1609.42 1557.55 1609.31 1555.82 1609.1 1554.38 1608.88 1552.93 1608.58 1551.74 1608.19 1550.81 1607.8 1549.88 1607.31 1549.2 1606.71 1548.75 1606.12 1548.31 1605.44 1548.09 1604.67 1548.09ZM1604.75 1546.19C1606.3 1546.19 1607.63 1546.48 1608.73 1547.06 1609.83 1547.64 1610.72 1548.47 1611.42 1549.54 1612.12 1550.62 1612.63 1551.93 1612.95 1553.48 1613.28 1555.03 1613.44 1556.78 1613.44 1558.73 1613.44 1563.07 1612.67 1566.35 1611.14 1568.57 1609.6 1570.79 1607.38 1571.9 1604.46 1571.9 1601.57 1571.9 1599.42 1570.85 1598.01 1568.75 1596.61 1566.66 1595.9 1563.48 1595.9 1559.22 1595.9 1557 1596.12 1555.07 1596.56 1553.44 1596.99 1551.81 1597.61 1550.46 1598.39 1549.39 1599.18 1548.31 1600.12 1547.51 1601.2 1546.99 1602.28 1546.46 1603.46 1546.19 1604.75 1546.19Z" fill="#C00000" fill-rule="evenodd"/><text fill="#000000" fill-opacity="0" font-family="Arial,Arial_MSFontService,sans-serif" font-size="25.7031" x="1595.9" y="1568.68">0</text><path d="M1658.07 1748.56 1651.42 1748.27 1640.64 1746.54 1631.03 1743.69 1622.57 1739.79 1615.2 1734.93 1608.91 1729.19 1603.64 1722.68 1599.34 1715.5 1595.95 1707.75 1593.41 1699.53 1591.65 1690.93 1590.61 1682.02 1590.21 1672.88 1590.41 1663.6 1591.14 1654.32 1595.71 1654.68 1594.99 1663.9 1594.99 1663.77 1594.8 1672.9 1594.8 1672.76 1595.18 1681.73 1595.17 1681.57 1596.19 1690.3 1596.16 1690.1 1597.88 1698.51 1597.82 1698.29 1600.29 1706.28 1600.2 1706.04 1603.48 1713.53 1603.35 1713.27 1607.49 1720.18 1607.3 1719.92 1612.36 1726.17 1612.12 1725.92 1618.16 1731.42 1617.88 1731.2 1624.95 1735.87 1624.64 1735.7 1632.8 1739.46 1632.49 1739.34 1641.8 1742.11 1641.51 1742.04 1652.02 1743.72 1651.75 1743.69 1658.27 1743.98ZM1658.17 1746.27 1648.63 1732.77 1676.5 1745.76 1649.39 1760.26Z" fill="#C00000"/><path d="M1533.86 1730.94 1543.45 1730.94 1546.51 1756.98 1562.17 1730.94 1570.63 1730.94 1570.33 1732.25C1569.65 1732.39 1569.17 1732.56 1568.87 1732.73 1568.58 1732.91 1568.31 1733.18 1568.06 1733.54 1567.82 1733.9 1567.58 1734.46 1567.34 1735.22 1567.1 1735.98 1566.79 1737.22 1566.41 1738.94L1561.82 1759.78C1561.59 1760.83 1561.44 1761.67 1561.36 1762.29 1561.29 1762.91 1561.26 1763.47 1561.26 1763.97 1561.26 1764.77 1561.46 1765.34 1561.86 1765.67 1562.26 1766 1562.94 1766.21 1563.89 1766.28L1563.59 1767.59 1552.85 1767.59 1553.15 1766.28C1553.83 1766.17 1554.34 1765.99 1554.68 1765.75 1555.02 1765.51 1555.3 1765.18 1555.54 1764.75 1555.77 1764.32 1555.98 1763.79 1556.18 1763.18 1556.38 1762.56 1556.67 1761.36 1557.07 1759.59L1560.64 1743.4C1561.14 1741.16 1561.71 1738.93 1562.36 1736.71L1561.98 1736.71C1561.43 1737.77 1560.17 1739.91 1558.22 1743.15L1546 1763.32 1543.08 1763.32 1540.85 1746.05C1540.52 1743.62 1540.17 1740.34 1539.77 1736.23L1539.24 1736.23C1538.63 1740.24 1537.95 1743.95 1537.19 1747.37L1534.46 1759.78C1534.08 1761.48 1533.89 1762.88 1533.89 1763.97 1533.89 1764.77 1534.09 1765.34 1534.5 1765.67 1534.9 1766 1535.57 1766.21 1536.52 1766.28L1536.23 1767.59 1526.83 1767.59 1527.12 1766.28C1527.8 1766.17 1528.31 1765.99 1528.65 1765.75 1528.99 1765.51 1529.28 1765.18 1529.51 1764.75 1529.75 1764.32 1529.96 1763.79 1530.16 1763.18 1530.36 1762.56 1530.65 1761.36 1531.04 1759.59L1535.61 1738.91C1535.79 1738.14 1535.93 1737.41 1536.04 1736.71 1536.15 1736.01 1536.2 1735.3 1536.2 1734.59 1536.2 1733.75 1535.99 1733.16 1535.57 1732.83 1535.15 1732.5 1534.48 1732.3 1533.57 1732.25Z" fill="#C00000" fill-rule="evenodd"/><text fill="#000000" fill-opacity="0" font-family="Arial,Arial_MSFontService,sans-serif" font-size="36.6577" x="1526.83" y="1763.01">洧</text><path d="M1573.98 1759.29 1589.18 1759.29 1589.65 1760.46C1588.79 1761.41 1587.97 1762.32 1587.19 1763.18 1586.42 1764.04 1585.65 1764.88 1584.89 1765.72 1584.13 1766.55 1583.37 1767.38 1582.61 1768.21 1581.84 1769.03 1581.05 1769.89 1580.23 1770.78 1579.41 1771.68 1578.55 1772.61 1577.65 1773.6 1576.76 1774.58 1575.79 1775.64 1574.76 1776.77 1574.82 1776.82 1574.85 1776.86 1574.88 1776.87L1579.69 1776.87C1580.18 1776.87 1580.61 1776.87 1580.97 1776.86 1581.34 1776.85 1581.66 1776.82 1581.93 1776.75 1582.2 1776.69 1582.46 1776.58 1582.68 1776.43 1582.91 1776.28 1583.14 1776.06 1583.36 1775.77 1583.58 1775.47 1583.81 1775.1 1584.06 1774.64 1584.31 1774.19 1584.6 1773.62 1584.94 1772.94L1586.95 1772.94 1585.7 1778.82 1570.19 1778.82 1569.67 1777.65C1570.92 1776.27 1572.21 1774.84 1573.56 1773.35 1574.91 1771.87 1576.24 1770.41 1577.55 1768.98 1578.86 1767.55 1580.11 1766.18 1581.33 1764.87 1582.54 1763.56 1583.63 1762.38 1584.61 1761.34 1584.55 1761.29 1584.52 1761.26 1584.49 1761.24L1579.47 1761.24C1578.9 1761.24 1578.41 1761.29 1578.01 1761.38 1577.6 1761.47 1577.23 1761.65 1576.89 1761.91 1576.55 1762.17 1576.22 1762.53 1575.9 1763 1575.57 1763.47 1575.19 1764.09 1574.76 1764.86L1572.77 1764.86Z" fill="#C00000" fill-rule="evenodd"/><text fill="#000000" fill-opacity="0" font-family="Arial,Arial_MSFontService,sans-serif" font-size="19.5312" x="1569.67" y="1776.38">洧녾</text><path d="M1601.88 1755.42C1600.97 1755.42 1600.21 1755.66 1599.59 1756.14 1598.98 1756.61 1598.5 1757.31 1598.14 1758.23 1597.78 1759.14 1597.53 1760.26 1597.38 1761.59 1597.23 1762.91 1597.15 1764.41 1597.15 1766.09 1597.15 1768.03 1597.25 1769.7 1597.44 1771.12 1597.62 1772.53 1597.92 1773.69 1598.31 1774.6 1598.71 1775.51 1599.21 1776.19 1599.81 1776.61 1600.41 1777.04 1601.12 1777.26 1601.96 1777.26 1602.74 1777.26 1603.42 1777.06 1604.01 1776.65 1604.59 1776.25 1605.08 1775.62 1605.46 1774.77 1605.85 1773.92 1606.14 1772.84 1606.33 1771.53 1606.53 1770.22 1606.63 1768.67 1606.63 1766.89 1606.63 1764.88 1606.52 1763.16 1606.3 1761.71 1606.09 1760.27 1605.79 1759.08 1605.39 1758.15 1605 1757.22 1604.51 1756.53 1603.92 1756.09 1603.33 1755.64 1602.65 1755.42 1601.88 1755.42ZM1601.96 1753.53C1603.51 1753.53 1604.83 1753.82 1605.93 1754.4 1607.03 1754.98 1607.93 1755.8 1608.63 1756.88 1609.32 1757.95 1609.83 1759.26 1610.16 1760.81 1610.49 1762.36 1610.65 1764.11 1610.65 1766.07 1610.65 1770.4 1609.88 1773.68 1608.34 1775.9 1606.81 1778.12 1604.58 1779.23 1601.66 1779.23 1598.77 1779.23 1596.63 1778.18 1595.22 1776.09 1593.81 1773.99 1593.11 1770.81 1593.11 1766.56 1593.11 1764.33 1593.33 1762.4 1593.76 1760.78 1594.2 1759.15 1594.81 1757.8 1595.6 1756.72 1596.39 1755.65 1597.32 1754.85 1598.4 1754.32 1599.48 1753.79 1600.67 1753.53 1601.96 1753.53Z" fill="#C00000" fill-rule="evenodd"/><text fill="#000000" fill-opacity="0" font-family="Arial,Arial_MSFontService,sans-serif" font-size="25.7031" x="1593.11" y="1776.02">0</text><path d="M2619.07 978.556 2612.42 978.265 2601.64 976.542 2592.03 973.692 2583.57 969.792 2576.2 964.925 2569.91 959.186 2564.64 952.676 2560.34 945.498 2556.95 937.754 2554.41 929.534 2552.65 920.927 2551.61 912.015 2551.21 902.88 2551.41 893.603 2552.14 884.322 2556.71 884.678 2555.99 893.895 2555.99 893.766 2555.8 902.904 2555.8 902.757 2556.18 911.734 2556.17 911.565 2557.19 920.296 2557.16 920.104 2558.88 928.505 2558.82 928.288 2561.29 936.277 2561.2 936.036 2564.48 943.528 2564.35 943.269 2568.49 950.182 2568.3 949.917 2573.36 956.167 2573.12 955.915 2579.16 961.418 2578.88 961.2 2585.95 965.872 2585.64 965.702 2593.8 969.46 2593.49 969.345 2602.8 972.105 2602.51 972.039 2613.02 973.719 2612.75 973.692 2619.27 973.977ZM2619.17 976.267 2609.63 962.774 2637.5 975.763 2610.39 990.264Z" fill="#C00000"/><path d="M2463.74 943.192 2473.33 943.192 2476.39 969.242 2492.05 943.192 2500.51 943.192 2500.21 944.508C2499.53 944.651 2499.05 944.813 2498.75 944.992 2498.46 945.171 2498.19 945.439 2497.95 945.797 2497.7 946.155 2497.46 946.715 2497.22 947.476 2496.98 948.237 2496.67 949.477 2496.29 951.195L2491.7 972.035C2491.47 973.091 2491.32 973.928 2491.24 974.546 2491.17 975.164 2491.14 975.723 2491.14 976.225 2491.14 977.03 2491.34 977.599 2491.74 977.93 2492.14 978.261 2492.82 978.463 2493.77 978.534L2493.47 979.85 2482.73 979.85 2483.03 978.534C2483.71 978.427 2484.22 978.252 2484.56 978.01 2484.9 977.769 2485.18 977.433 2485.42 977.003 2485.65 976.574 2485.86 976.05 2486.06 975.432 2486.26 974.815 2486.55 973.62 2486.95 971.847L2490.52 955.653C2491.02 953.415 2491.59 951.186 2492.24 948.966L2491.86 948.966C2491.31 950.023 2490.05 952.171 2488.1 955.412L2475.88 975.58 2472.96 975.58 2470.73 958.312C2470.41 955.877 2470.05 952.601 2469.65 948.483L2469.12 948.483C2468.51 952.493 2467.83 956.208 2467.07 959.628L2464.34 972.035C2463.96 973.736 2463.77 975.132 2463.77 976.225 2463.77 977.03 2463.97 977.599 2464.38 977.93 2464.78 978.261 2465.45 978.463 2466.4 978.534L2466.11 979.85 2456.71 979.85 2457 978.534C2457.68 978.427 2458.19 978.252 2458.53 978.01 2458.88 977.769 2459.16 977.433 2459.39 977.003 2459.63 976.574 2459.84 976.05 2460.04 975.432 2460.24 974.815 2460.53 973.62 2460.93 971.847L2465.49 951.168C2465.67 950.399 2465.81 949.664 2465.92 948.966 2466.03 948.268 2466.08 947.561 2466.08 946.845 2466.08 946.003 2465.87 945.417 2465.45 945.086 2465.03 944.754 2464.36 944.562 2463.45 944.508Z" fill="#C00000" fill-rule="evenodd"/><text fill="#000000" fill-opacity="0" font-family="Arial,Arial_MSFontService,sans-serif" font-size="36.6577" x="2456.71" y="975.268">洧</text><path d="M2503.86 971.548 2519.06 971.548 2519.53 972.72C2518.67 973.67 2517.85 974.575 2517.08 975.435 2516.3 976.294 2515.53 977.14 2514.77 977.974 2514.01 978.807 2513.25 979.637 2512.49 980.464 2511.72 981.291 2510.93 982.15 2510.11 983.042 2509.29 983.934 2508.43 984.872 2507.53 985.855 2506.64 986.838 2505.67 987.896 2504.64 989.028 2504.7 989.081 2504.73 989.113 2504.76 989.126L2509.57 989.126C2510.06 989.126 2510.49 989.123 2510.85 989.116 2511.22 989.11 2511.54 989.074 2511.81 989.009 2512.08 988.944 2512.34 988.836 2512.56 988.687 2512.79 988.537 2513.02 988.316 2513.24 988.023 2513.46 987.73 2513.69 987.355 2513.94 986.9 2514.19 986.444 2514.48 985.877 2514.82 985.2L2516.83 985.2 2515.58 991.079 2500.07 991.079 2499.55 989.907C2500.8 988.527 2502.09 987.095 2503.44 985.61 2504.79 984.126 2506.12 982.668 2507.43 981.235 2508.74 979.803 2510 978.433 2511.21 977.124 2512.42 975.816 2513.51 974.64 2514.49 973.599 2514.44 973.547 2514.4 973.514 2514.37 973.501L2509.35 973.501C2508.78 973.501 2508.29 973.547 2507.89 973.638 2507.48 973.729 2507.11 973.905 2506.77 974.165 2506.43 974.426 2506.1 974.79 2505.78 975.259 2505.45 975.728 2505.07 976.346 2504.64 977.114L2502.65 977.114ZM2533.16 965.923 2534.35 965.923C2534.33 966.639 2534.31 967.28 2534.3 967.847 2534.28 968.413 2534.27 968.963 2534.27 969.497 2534.26 970.031 2534.26 970.558 2534.26 971.079L2534.26 985.923C2534.26 986.327 2534.27 986.675 2534.3 986.968 2534.32 987.261 2534.36 987.508 2534.42 987.71 2534.48 987.912 2534.56 988.084 2534.66 988.228 2534.75 988.371 2534.87 988.495 2535 988.599 2535.16 988.755 2535.36 988.875 2535.62 988.96 2535.88 989.045 2536.22 989.116 2536.62 989.175 2537.02 989.234 2537.51 989.279 2538.08 989.312 2538.64 989.344 2539.32 989.367 2540.12 989.38L2540.12 991.079 2524.63 991.079 2524.63 989.38C2525.4 989.354 2526.05 989.325 2526.58 989.292 2527.11 989.26 2527.57 989.214 2527.95 989.155 2528.33 989.097 2528.63 989.032 2528.86 988.96 2529.08 988.888 2529.28 988.801 2529.45 988.696 2529.63 988.579 2529.79 988.452 2529.92 988.316 2530.05 988.179 2530.16 988.006 2530.23 987.798 2530.31 987.59 2530.37 987.336 2530.42 987.036 2530.46 986.737 2530.49 986.366 2530.49 985.923L2530.49 971.919C2530.49 971.411 2530.39 971.053 2530.19 970.845 2530 970.637 2529.72 970.532 2529.35 970.532 2528.95 970.532 2528.35 970.741 2527.56 971.157 2526.76 971.574 2525.73 972.193 2524.47 973.013 2524.3 972.713 2524.15 972.414 2524 972.114 2523.86 971.815 2523.71 971.509 2523.55 971.196 2525.17 970.311 2526.77 969.429 2528.35 968.55 2529.93 967.671 2531.54 966.795 2533.16 965.923Z" fill="#C00000" fill-rule="evenodd"/><text fill="#000000" fill-opacity="0" font-family="Arial,Arial_MSFontService,sans-serif" font-size="25.1562" x="2499.55" y="987.935">洧녾1</text><path d="M2716.92 940.636 2741.14 940.636 2739.29 948.881 2736.71 948.881C2736.64 947.503 2736.53 946.415 2736.38 945.618 2736.22 944.821 2736.01 944.249 2735.73 943.899 2735.45 943.55 2735.12 943.313 2734.72 943.188 2734.33 943.062 2733.74 943 2732.95 943L2724.68 943 2721.48 957.609 2726.51 957.609C2727.29 957.609 2727.95 957.502 2728.47 957.287 2728.99 957.072 2729.47 956.683 2729.92 956.119 2730.36 955.555 2730.92 954.592 2731.58 953.232L2734.03 953.232 2731.42 964.565 2729.06 964.565C2729.06 962.756 2729 961.624 2728.88 961.167 2728.77 960.711 2728.54 960.398 2728.21 960.228 2727.88 960.057 2727.22 959.972 2726.24 959.972L2720.97 959.972 2718.85 969.479C2718.48 971.162 2718.29 972.559 2718.29 973.669 2718.29 974.224 2718.38 974.658 2718.56 974.971 2718.74 975.284 2719 975.513 2719.36 975.656 2719.72 975.799 2720.34 975.907 2721.22 975.978L2720.92 977.294 2709.88 977.294 2710.18 975.978C2710.86 975.871 2711.37 975.696 2711.71 975.455 2712.05 975.213 2712.34 974.877 2712.57 974.448 2712.8 974.018 2713.02 973.494 2713.21 972.876 2713.41 972.259 2713.71 971.064 2714.1 969.291L2718.66 948.613C2719.06 946.822 2719.26 945.408 2719.26 944.369 2719.26 943.492 2719.05 942.883 2718.64 942.543 2718.23 942.203 2717.55 942.006 2716.62 941.952Z" fill="#C00000" fill-rule="evenodd"/><text fill="#000000" fill-opacity="0" font-family="Arial,Arial_MSFontService,sans-serif" font-size="36.6577" x="2709.88" y="972.712">洧냧</text><path d="M2744.82 968.582C2745.54 968.582 2746.12 968.738 2746.58 969.051 2747.04 969.363 2747.41 969.819 2747.71 970.418 2748.01 971.017 2748.26 971.756 2748.45 972.635 2748.65 973.514 2748.86 974.519 2749.08 975.652L2749.33 975.652C2750.11 974.624 2750.79 973.732 2751.36 972.977 2751.94 972.221 2752.45 971.583 2752.9 971.062 2753.35 970.542 2753.75 970.118 2754.11 969.793 2754.47 969.467 2754.82 969.217 2755.15 969.041 2755.49 968.865 2755.84 968.745 2756.2 968.68 2756.56 968.615 2756.96 968.582 2757.4 968.582 2758.05 968.582 2758.64 968.699 2759.18 968.934L2758.2 972.781 2756.58 972.781C2756.54 972.221 2756.33 971.941 2755.95 971.941 2755.81 971.941 2755.66 971.967 2755.49 972.019 2755.32 972.072 2755.11 972.176 2754.88 972.332 2754.65 972.488 2754.38 972.706 2754.07 972.986 2753.76 973.266 2753.4 973.631 2752.99 974.08 2752.57 974.529 2752.09 975.079 2751.56 975.73 2751.03 976.381 2750.41 977.15 2749.72 978.035 2750.08 979.832 2750.38 981.271 2750.63 982.352 2750.89 983.432 2751.13 984.259 2751.36 984.832 2751.6 985.405 2751.83 985.779 2752.07 985.955 2752.3 986.131 2752.57 986.219 2752.87 986.219 2753.09 986.219 2753.3 986.193 2753.48 986.141 2753.67 986.089 2753.87 985.975 2754.07 985.799 2754.27 985.623 2754.5 985.369 2754.74 985.037 2754.99 984.705 2755.28 984.266 2755.62 983.719L2757.09 984.676C2756.51 985.535 2756.01 986.238 2755.56 986.785 2755.12 987.332 2754.69 987.762 2754.28 988.074 2753.86 988.387 2753.43 988.598 2752.99 988.709 2752.54 988.82 2752.04 988.875 2751.46 988.875 2750.97 988.875 2750.53 988.807 2750.13 988.67 2749.74 988.533 2749.41 988.282 2749.12 987.918 2748.92 987.697 2748.74 987.4 2748.57 987.029 2748.4 986.658 2748.25 986.258 2748.1 985.828 2747.96 985.398 2747.83 984.952 2747.71 984.49 2747.6 984.028 2747.5 983.595 2747.42 983.191 2747.34 982.788 2747.28 982.426 2747.23 982.107 2747.19 981.788 2747.16 981.551 2747.15 981.394L2746.93 981.394C2746.15 982.436 2745.47 983.344 2744.89 984.119 2744.31 984.894 2743.79 985.558 2743.32 986.111 2742.85 986.665 2742.43 987.12 2742.05 987.478 2741.67 987.837 2741.3 988.12 2740.94 988.328 2740.57 988.536 2740.2 988.68 2739.81 988.758 2739.43 988.836 2739 988.875 2738.53 988.875 2737.86 988.875 2737.28 988.758 2736.79 988.523L2737.69 984.715 2739.35 984.715C2739.39 985.288 2739.61 985.574 2740 985.574 2740.14 985.561 2740.28 985.535 2740.42 985.496 2740.55 985.457 2740.71 985.376 2740.9 985.252 2741.08 985.128 2741.31 984.933 2741.59 984.666 2741.87 984.399 2742.22 984.028 2742.65 983.553 2743.08 983.077 2743.61 982.482 2744.24 981.766 2744.86 981.049 2745.61 980.164 2746.48 979.109 2746.25 978.016 2746.04 977.065 2745.87 976.258 2745.69 975.45 2745.53 974.757 2745.38 974.178 2745.23 973.598 2745.08 973.126 2744.94 972.762 2744.8 972.397 2744.65 972.107 2744.5 971.893 2744.35 971.678 2744.19 971.525 2744.01 971.434 2743.84 971.342 2743.63 971.29 2743.4 971.277 2743.17 971.277 2742.97 971.313 2742.78 971.385 2742.59 971.456 2742.4 971.583 2742.2 971.766 2741.99 971.948 2741.77 972.202 2741.53 972.527 2741.29 972.853 2741.01 973.276 2740.7 973.797L2739.2 972.82C2739.73 972.026 2740.21 971.355 2740.64 970.809 2741.07 970.262 2741.5 969.825 2741.91 969.5 2742.33 969.174 2742.77 968.94 2743.23 968.797 2743.69 968.654 2744.22 968.582 2744.82 968.582ZM2772.33 963.367 2773.53 963.367C2773.5 964.083 2773.48 964.725 2773.47 965.291 2773.45 965.857 2773.44 966.407 2773.44 966.941 2773.43 967.475 2773.43 968.003 2773.43 968.523L2773.43 983.367C2773.43 983.771 2773.44 984.119 2773.47 984.412 2773.49 984.705 2773.53 984.952 2773.59 985.154 2773.65 985.356 2773.73 985.529 2773.83 985.672 2773.93 985.815 2774.04 985.939 2774.17 986.043 2774.33 986.199 2774.53 986.32 2774.79 986.404 2775.06 986.489 2775.39 986.56 2775.79 986.619 2776.19 986.678 2776.68 986.723 2777.25 986.756 2777.81 986.788 2778.49 986.811 2779.29 986.824L2779.29 988.523 2763.8 988.523 2763.8 986.824C2764.57 986.798 2765.22 986.769 2765.75 986.736 2766.29 986.704 2766.74 986.658 2767.12 986.6 2767.5 986.541 2767.8 986.476 2768.03 986.404 2768.25 986.333 2768.45 986.245 2768.62 986.141 2768.81 986.023 2768.96 985.896 2769.09 985.76 2769.22 985.623 2769.33 985.45 2769.4 985.242 2769.48 985.034 2769.54 984.78 2769.59 984.48 2769.64 984.181 2769.66 983.81 2769.66 983.367L2769.66 969.363C2769.66 968.855 2769.56 968.497 2769.36 968.289 2769.17 968.081 2768.89 967.977 2768.53 967.977 2768.12 967.977 2767.52 968.185 2766.73 968.602 2765.93 969.018 2764.91 969.637 2763.64 970.457 2763.47 970.157 2763.32 969.858 2763.17 969.559 2763.03 969.259 2762.88 968.953 2762.72 968.641 2764.34 967.755 2765.94 966.873 2767.52 965.994 2769.1 965.115 2770.71 964.24 2772.33 963.367Z" fill="#C00000" fill-rule="evenodd"/><text fill="#000000" fill-opacity="0" font-family="Arial,Arial_MSFontService,sans-serif" font-size="25.5078" x="2736.79" y="985.686">洧논1</text><path d="M2509.09 756.891 2533.31 756.891 2531.46 765.135 2528.88 765.135C2528.81 763.757 2528.7 762.669 2528.54 761.872 2528.39 761.076 2528.18 760.503 2527.9 760.154 2527.62 759.804 2527.29 759.567 2526.89 759.442 2526.5 759.317 2525.91 759.254 2525.12 759.254L2516.85 759.254 2513.65 773.863 2518.67 773.863C2519.46 773.863 2520.12 773.756 2520.64 773.541 2521.15 773.326 2521.64 772.937 2522.09 772.373 2522.53 771.809 2523.09 770.846 2523.75 769.486L2526.19 769.486 2523.59 780.819 2521.23 780.819C2521.23 779.011 2521.17 777.878 2521.05 777.422 2520.93 776.965 2520.71 776.652 2520.38 776.482 2520.05 776.312 2519.39 776.227 2518.41 776.227L2513.14 776.227 2511.02 785.733C2510.64 787.416 2510.46 788.813 2510.46 789.923 2510.46 790.478 2510.55 790.912 2510.73 791.225 2510.9 791.539 2511.17 791.767 2511.53 791.91 2511.89 792.053 2512.51 792.161 2513.38 792.232L2513.09 793.548 2502.05 793.548 2502.35 792.232C2503.03 792.125 2503.54 791.95 2503.88 791.709 2504.22 791.467 2504.5 791.131 2504.74 790.702 2504.97 790.272 2505.18 789.748 2505.38 789.131 2505.58 788.513 2505.87 787.318 2506.27 785.545L2510.83 764.867C2511.23 763.076 2511.42 761.662 2511.42 760.624 2511.42 759.746 2511.22 759.138 2510.81 758.797 2510.39 758.457 2509.72 758.26 2508.79 758.207Z" fill="#C00000" fill-rule="evenodd"/><text fill="#000000" fill-opacity="0" font-family="Arial,Arial_MSFontService,sans-serif" font-size="36.6577" x="2502.05" y="788.966">洧냧</text><path d="M2535.96 784.836C2536.42 784.836 2536.83 784.885 2537.17 784.983 2537.5 785.08 2537.81 785.233 2538.08 785.442 2538.36 785.65 2538.6 785.92 2538.82 786.252 2539.03 786.584 2539.25 786.985 2539.47 787.453 2539.59 787.74 2539.71 788.15 2539.84 788.684 2539.97 789.218 2540.11 789.836 2540.25 790.539 2540.4 791.242 2540.54 792.017 2540.68 792.863 2540.82 793.71 2540.97 794.595 2541.11 795.52 2541.25 796.444 2541.39 797.391 2541.52 798.362 2541.65 799.332 2541.78 800.285 2541.89 801.223 2542.87 799.947 2543.75 798.654 2544.53 797.346 2545.31 796.037 2545.97 794.8 2546.51 793.635 2547.05 792.47 2547.47 791.408 2547.75 790.451 2548.04 789.494 2548.18 788.729 2548.16 788.156 2548.16 787.583 2548.01 787.173 2547.71 786.926 2547.41 786.679 2546.91 786.535 2546.21 786.496L2546.46 785.246 2552.03 785.246 2552.71 786.379C2551.41 789.595 2549.89 792.697 2548.15 795.686 2546.41 798.674 2544.45 801.574 2542.26 804.387 2541.31 805.52 2540.46 806.496 2539.7 807.317 2538.93 808.137 2538.23 808.843 2537.59 809.436 2536.94 810.028 2536.34 810.513 2535.79 810.891 2535.24 811.268 2534.7 811.571 2534.18 811.799 2533.66 812.027 2533.14 812.19 2532.62 812.287 2532.11 812.385 2531.57 812.447 2531.01 812.473 2530.71 812.473 2530.35 812.44 2529.93 812.375 2529.51 812.31 2529.13 812.225 2528.81 812.121L2529.78 807.844 2531.56 807.844 2531.56 807.961C2531.56 808.847 2531.92 809.289 2532.63 809.289 2533.59 809.289 2534.55 808.921 2535.53 808.186 2536.5 807.45 2537.68 806.275 2539.06 804.66 2538.63 802.186 2538.25 800.048 2537.93 798.244 2537.6 796.441 2537.31 794.904 2537.04 793.635 2536.77 792.365 2536.53 791.333 2536.31 790.539 2536.09 789.745 2535.87 789.126 2535.66 788.684 2535.45 788.241 2535.24 787.938 2535.03 787.776 2534.81 787.613 2534.58 787.531 2534.33 787.531 2534.1 787.531 2533.88 787.561 2533.69 787.619 2533.49 787.678 2533.29 787.798 2533.08 787.981 2532.88 788.163 2532.65 788.42 2532.41 788.752 2532.17 789.084 2531.87 789.517 2531.52 790.051L2530.02 789.074C2530.58 788.254 2531.09 787.57 2531.56 787.024 2532.03 786.477 2532.49 786.044 2532.96 785.725 2533.42 785.406 2533.89 785.178 2534.37 785.041 2534.85 784.904 2535.38 784.836 2535.96 784.836ZM2566.5 779.621 2567.69 779.621C2567.67 780.337 2567.65 780.979 2567.63 781.545 2567.62 782.112 2567.61 782.662 2567.61 783.195 2567.6 783.729 2567.6 784.257 2567.6 784.778L2567.6 799.621C2567.6 800.025 2567.61 800.373 2567.63 800.666 2567.66 800.959 2567.7 801.207 2567.76 801.408 2567.82 801.61 2567.9 801.783 2568 801.926 2568.09 802.069 2568.21 802.193 2568.34 802.297 2568.49 802.453 2568.7 802.574 2568.96 802.658 2569.22 802.743 2569.56 802.815 2569.96 802.873 2570.36 802.932 2570.85 802.977 2571.41 803.01 2571.98 803.042 2572.66 803.065 2573.46 803.078L2573.46 804.778 2557.97 804.778 2557.97 803.078C2558.74 803.052 2559.39 803.023 2559.92 802.99 2560.45 802.958 2560.91 802.912 2561.29 802.854 2561.66 802.795 2561.97 802.73 2562.2 802.658 2562.42 802.587 2562.62 802.499 2562.79 802.395 2562.97 802.278 2563.13 802.151 2563.26 802.014 2563.39 801.877 2563.49 801.705 2563.57 801.496 2563.65 801.288 2563.71 801.034 2563.76 800.735 2563.8 800.435 2563.83 800.064 2563.83 799.621L2563.83 785.617C2563.83 785.11 2563.73 784.751 2563.53 784.543 2563.34 784.335 2563.06 784.231 2562.69 784.231 2562.29 784.231 2561.69 784.439 2560.9 784.856 2560.1 785.272 2559.07 785.891 2557.81 786.711 2557.64 786.412 2557.49 786.112 2557.34 785.813 2557.2 785.513 2557.05 785.207 2556.89 784.895 2558.51 784.009 2560.11 783.127 2561.69 782.248 2563.27 781.369 2564.87 780.494 2566.5 779.621Z" fill="#C00000" fill-rule="evenodd"/><text fill="#000000" fill-opacity="0" font-family="Arial,Arial_MSFontService,sans-serif" font-size="32.8516" x="2528.81" y="808.366">洧녽1</text><path d="M2081.76 1044.47 2172.73 1264.52 2168.49 1266.27 2077.52 1046.22ZM2079.64 1045.35 2070.44 1059.07 2072.64 1028.41 2095.85 1048.57Z" fill="#C00000"/><path d="M18.3334-2.29164 254.073-2.29131 254.073 2.29203 18.3334 2.29169ZM18.3333 2.60411e-05 27.5 13.75 0 0 27.5-13.75Z" fill="#C00000" transform="matrix(-0.924142 0.382049 0.382049 0.924142 2405.75 1168.19)"/><path d="M2132.09 1225.02 2138.39 1222.61 2149 1219.9 2158.97 1218.68 2168.31 1218.88 2177.02 1220.41 2185.09 1223.16 2192.53 1227.02 2199.33 1231.88 2205.52 1237.63 2211.12 1244.15 2216.15 1251.34 2220.64 1259.08 2224.62 1267.3 2228.12 1275.88 2231.13 1284.67 2226.79 1286.15 2223.8 1277.42 2223.85 1277.54 2220.41 1269.1 2220.47 1269.23 2216.56 1261.16 2216.64 1261.31 2212.23 1253.72 2212.34 1253.89 2207.43 1246.87 2207.56 1247.05 2202.12 1240.72 2202.3 1240.9 2196.32 1235.34 2196.54 1235.53 2189.99 1230.84 2190.27 1231.01 2183.13 1227.3 2183.45 1227.44 2175.71 1224.8 2176.05 1224.89 2167.69 1223.43 2168.04 1223.46 2159.04 1223.27 2159.36 1223.25 2149.7 1224.43 2149.99 1224.37 2139.65 1227.02 2139.9 1226.94 2133.72 1229.3ZM2132.91 1227.16 2147.02 1235.75 2116.29 1234.9 2135.41 1210.82Z" fill="#C00000"/><path d="M2179.99 1157.07 2188.85 1153.4 2201.63 1176.31 2206.15 1146.25 2213.96 1143.02 2214.19 1144.35C2213.62 1144.74 2213.23 1145.08 2213.03 1145.36 2212.82 1145.63 2212.68 1145.98 2212.59 1146.41 2212.5 1146.83 2212.49 1147.44 2212.56 1148.24 2212.63 1149.03 2212.82 1150.3 2213.12 1152.03L2216.84 1173.04C2217.03 1174.11 2217.21 1174.94 2217.38 1175.54 2217.55 1176.13 2217.73 1176.66 2217.92 1177.13 2218.23 1177.87 2218.63 1178.32 2219.13 1178.47 2219.63 1178.62 2220.33 1178.55 2221.24 1178.26L2221.47 1179.59 2211.54 1183.69 2211.31 1182.36C2211.9 1182 2212.3 1181.65 2212.52 1181.29 2212.75 1180.94 2212.88 1180.52 2212.93 1180.03 2212.98 1179.55 2212.98 1178.98 2212.93 1178.33 2212.87 1177.69 2212.69 1176.47 2212.38 1174.68L2209.49 1158.35C2209.1 1156.09 2208.78 1153.81 2208.53 1151.52L2208.18 1151.66C2208.07 1152.85 2207.73 1155.31 2207.17 1159.05L2203.58 1182.36 2200.87 1183.48 2192.22 1168.37C2190.99 1166.24 2189.41 1163.35 2187.47 1159.7L2186.97 1159.9C2187.94 1163.84 2188.73 1167.54 2189.34 1170.98L2191.55 1183.5C2191.86 1185.21 2192.22 1186.57 2192.63 1187.58 2192.94 1188.33 2193.34 1188.78 2193.84 1188.93 2194.34 1189.08 2195.04 1189.01 2195.95 1188.71L2196.18 1190.04 2187.49 1193.63 2187.26 1192.3C2187.85 1191.94 2188.25 1191.59 2188.48 1191.23 2188.7 1190.88 2188.83 1190.46 2188.88 1189.97 2188.94 1189.49 2188.93 1188.92 2188.88 1188.28 2188.83 1187.63 2188.64 1186.41 2188.33 1184.62L2184.65 1163.77C2184.52 1162.99 2184.37 1162.26 2184.2 1161.57 2184.04 1160.89 2183.82 1160.21 2183.54 1159.55 2183.22 1158.77 2182.8 1158.31 2182.29 1158.16 2181.77 1158.02 2181.08 1158.1 2180.22 1158.4Z" fill="#C00000" fill-rule="evenodd"/><text fill="#000000" fill-opacity="0" font-family="Arial,Arial_MSFontService,sans-serif" font-size="50.6111" x="2179.99" y="1187.31">洧</text><path d="M2235.45 1131.81 2236.91 1133.45C2233.56 1136.32 2231.72 1139.99 2231.39 1144.46 2231.06 1148.93 2232.05 1153.96 2234.36 1159.55 2236.75 1165.34 2239.66 1169.73 2243.07 1172.72 2246.49 1175.7 2250.37 1177.04 2254.72 1176.74L2254.91 1178.89C2249.54 1179.62 2244.69 1178.42 2240.37 1175.27 2236.04 1172.13 2232.64 1167.56 2230.17 1161.57 2227.7 1155.6 2226.89 1149.97 2227.73 1144.67 2228.57 1139.37 2231.14 1135.09 2235.45 1131.81Z" fill="#C00000" fill-rule="evenodd"/><text fill="#000000" fill-opacity="0" font-family="Arial,Arial_MSFontService,sans-serif" font-size="47.2867" x="2227.41" y="1173.19">(</text><path d="M2255.84 1137.13C2257.38 1136.49 2258.82 1136 2260.16 1135.66 2261.5 1135.32 2262.9 1135.11 2264.34 1135.04L2265.38 1140.71 2263.37 1141.54C2262.58 1140.15 2261.63 1139.23 2260.53 1138.79 2259.43 1138.36 2258.03 1138.49 2256.35 1139.19 2255.04 1139.73 2254.12 1140.5 2253.59 1141.5 2253.05 1142.51 2253.01 1143.56 2253.46 1144.65 2253.71 1145.25 2254.03 1145.73 2254.42 1146.1 2254.82 1146.47 2255.44 1146.8 2256.3 1147.08 2257.15 1147.37 2258.41 1147.63 2260.06 1147.88 2261.36 1148.08 2262.43 1148.31 2263.28 1148.57 2264.12 1148.83 2264.83 1149.14 2265.41 1149.51 2265.98 1149.87 2266.47 1150.3 2266.87 1150.8 2267.28 1151.3 2267.64 1151.96 2267.98 1152.77 2268.59 1154.24 2268.72 1155.67 2268.36 1157.04 2268.01 1158.42 2267.27 1159.64 2266.13 1160.71 2265 1161.78 2263.57 1162.67 2261.85 1163.39 2260.47 1163.95 2259.08 1164.41 2257.67 1164.75 2256.26 1165.09 2254.65 1165.35 2252.82 1165.52L2251.77 1159.62 2253.71 1158.82C2254.43 1160.38 2255.38 1161.39 2256.54 1161.86 2257.7 1162.33 2259.18 1162.19 2260.99 1161.45 2262.56 1160.8 2263.64 1159.94 2264.24 1158.87 2264.83 1157.8 2264.86 1156.62 2264.33 1155.33 2264.02 1154.58 2263.63 1153.99 2263.16 1153.56 2262.69 1153.12 2262.07 1152.77 2261.3 1152.51 2260.54 1152.25 2259.39 1152 2257.85 1151.76 2256.24 1151.51 2254.95 1151.22 2253.97 1150.89 2252.99 1150.56 2252.16 1150.1 2251.49 1149.52 2250.82 1148.93 2250.29 1148.16 2249.9 1147.2 2249.36 1145.89 2249.23 1144.6 2249.53 1143.33 2249.83 1142.05 2250.52 1140.88 2251.61 1139.81 2252.69 1138.74 2254.11 1137.85 2255.84 1137.13Z" fill="#C00000" fill-rule="evenodd"/><text fill="#000000" fill-opacity="0" font-family="Arial,Arial_MSFontService,sans-serif" font-size="30.4801" x="2249.37" y="1161.71">洧</text><path d="M2263.09 1120.39C2268.45 1119.66 2273.29 1120.88 2277.63 1124.04 2281.97 1127.19 2285.37 1131.76 2287.84 1137.73 2290.32 1143.72 2291.14 1149.35 2290.3 1154.63 2289.45 1159.91 2286.87 1164.19 2282.55 1167.47L2281.17 1165.8C2284.46 1162.95 2286.26 1159.26 2286.57 1154.73 2286.88 1150.21 2285.84 1145.05 2283.45 1139.26 2281.13 1133.67 2278.29 1129.4 2274.9 1126.47 2271.52 1123.54 2267.62 1122.24 2263.21 1122.57Z" fill="#C00000" fill-rule="evenodd"/><text fill="#000000" fill-opacity="0" font-family="Arial,Arial_MSFontService,sans-serif" font-size="47.2825" x="2263.09" y="1161.56">)</text><path d="M2265.1 1250.86 2273.02 1247.59 2287.56 1264.22C2289.66 1266.61 2291.36 1268.65 2292.66 1270.36L2292.93 1270.25C2292.65 1269.18 2292.26 1267.38 2291.76 1264.84 2291.26 1262.29 2290.84 1260.06 2290.52 1258.14L2289.02 1249.61C2288.71 1247.82 2288.34 1246.41 2287.92 1245.38 2287.59 1244.61 2287.18 1244.15 2286.66 1244 2286.15 1243.85 2285.46 1243.93 2284.59 1244.23L2284.36 1242.9 2293.05 1239.31 2293.28 1240.64C2292.7 1241.03 2292.31 1241.37 2292.11 1241.65 2291.91 1241.92 2291.76 1242.27 2291.69 1242.69 2291.61 1243.11 2291.6 1243.72 2291.66 1244.52 2291.72 1245.32 2291.9 1246.59 2292.21 1248.32L2297.32 1277.21 2293.95 1278.61 2277.9 1260.31C2275.97 1258.12 2274.15 1255.9 2272.44 1253.64L2272.12 1253.78C2272.37 1254.66 2272.76 1256.38 2273.29 1258.94 2273.83 1261.5 2274.32 1264.02 2274.76 1266.49L2276.67 1277.29C2276.97 1279.01 2277.33 1280.37 2277.75 1281.38 2278.05 1282.12 2278.46 1282.57 2278.96 1282.73 2279.46 1282.88 2280.16 1282.81 2281.06 1282.51L2281.29 1283.84 2272.6 1287.43 2272.38 1286.1C2272.96 1285.74 2273.37 1285.38 2273.59 1285.03 2273.81 1284.68 2273.95 1284.26 2274 1283.77 2274.05 1283.29 2274.05 1282.72 2273.99 1282.07 2273.94 1281.43 2273.76 1280.21 2273.44 1278.42L2269.76 1257.57C2269.63 1256.79 2269.49 1256.06 2269.32 1255.37 2269.15 1254.68 2268.93 1254.01 2268.66 1253.35 2268.34 1252.57 2267.92 1252.11 2267.4 1251.96 2266.89 1251.82 2266.2 1251.89 2265.33 1252.19Z" fill="#C00000" fill-rule="evenodd"/><text fill="#000000" fill-opacity="0" font-family="Arial,Arial_MSFontService,sans-serif" font-size="48.1179" x="2265.1" y="1281.41">洧녜</text><path d="M2314.21 1228.24 2315.67 1229.87C2312.32 1232.75 2310.48 1236.42 2310.15 1240.89 2309.82 1245.35 2310.81 1250.38 2313.12 1255.98 2315.51 1261.77 2318.42 1266.15 2321.83 1269.14 2325.25 1272.13 2329.13 1273.47 2333.48 1273.16L2333.67 1275.32C2328.3 1276.05 2323.45 1274.84 2319.13 1271.7 2314.8 1268.55 2311.41 1263.99 2308.93 1258 2306.46 1252.03 2305.65 1246.39 2306.49 1241.09 2307.33 1235.79 2309.9 1231.51 2314.21 1228.24Z" fill="#C00000" fill-rule="evenodd"/><text fill="#000000" fill-opacity="0" font-family="Arial,Arial_MSFontService,sans-serif" font-size="47.2867" x="2306.17" y="1269.61">(</text><path d="M2334.61 1233.55C2336.14 1232.92 2337.58 1232.43 2338.93 1232.09 2340.27 1231.74 2341.66 1231.54 2343.1 1231.46L2344.14 1237.14 2342.13 1237.97C2341.34 1236.57 2340.39 1235.65 2339.29 1235.22 2338.19 1234.78 2336.8 1234.91 2335.11 1235.61 2333.8 1236.15 2332.88 1236.92 2332.35 1237.93 2331.81 1238.93 2331.77 1239.98 2332.22 1241.07 2332.47 1241.67 2332.79 1242.15 2333.19 1242.52 2333.58 1242.89 2334.2 1243.22 2335.06 1243.51 2335.91 1243.79 2337.17 1244.06 2338.82 1244.31 2340.12 1244.5 2341.19 1244.73 2342.04 1244.99 2342.88 1245.26 2343.59 1245.57 2344.17 1245.93 2344.74 1246.29 2345.23 1246.72 2345.64 1247.23 2346.04 1247.73 2346.4 1248.39 2346.74 1249.2 2347.35 1250.67 2347.48 1252.09 2347.13 1253.47 2346.77 1254.84 2346.03 1256.07 2344.89 1257.14 2343.76 1258.21 2342.33 1259.1 2340.61 1259.81 2339.23 1260.38 2337.84 1260.83 2336.43 1261.17 2335.03 1261.51 2333.41 1261.77 2331.58 1261.94L2330.54 1256.04 2332.47 1255.24C2333.19 1256.8 2334.14 1257.82 2335.3 1258.29 2336.46 1258.75 2337.94 1258.62 2339.75 1257.87 2341.32 1257.22 2342.4 1256.36 2343 1255.29 2343.59 1254.22 2343.62 1253.04 2343.09 1251.75 2342.78 1251.01 2342.39 1250.42 2341.92 1249.98 2341.45 1249.55 2340.83 1249.2 2340.06 1248.93 2339.3 1248.67 2338.15 1248.42 2336.61 1248.18 2335 1247.94 2333.71 1247.65 2332.73 1247.32 2331.75 1246.99 2330.92 1246.53 2330.25 1245.94 2329.59 1245.36 2329.05 1244.58 2328.66 1243.62 2328.12 1242.32 2327.99 1241.03 2328.29 1239.75 2328.59 1238.48 2329.28 1237.3 2330.37 1236.23 2331.46 1235.16 2332.87 1234.27 2334.61 1233.55Z" fill="#C00000" fill-rule="evenodd"/><text fill="#000000" fill-opacity="0" font-family="Arial,Arial_MSFontService,sans-serif" font-size="30.4801" x="2328.13" y="1258.13">洧</text><path d="M2341.85 1216.81C2347.21 1216.09 2352.06 1217.3 2356.39 1220.46 2360.73 1223.62 2364.13 1228.18 2366.6 1234.16 2369.08 1240.15 2369.9 1245.78 2369.06 1251.06 2368.22 1256.33 2365.64 1260.61 2361.31 1263.89L2359.93 1262.23C2363.22 1259.37 2365.03 1255.68 2365.33 1251.16 2365.64 1246.63 2364.6 1241.47 2362.21 1235.68 2359.89 1230.09 2357.05 1225.83 2353.67 1222.9 2350.28 1219.96 2346.39 1218.67 2341.97 1219Z" fill="#C00000" fill-rule="evenodd"/><text fill="#000000" fill-opacity="0" font-family="Arial,Arial_MSFontService,sans-serif" font-size="47.2825" x="2341.85" y="1257.98">)</text><path d="M2019 1157.63C2017.21 1158.37 2015.81 1159.7 2014.79 1161.61 2013.77 1163.53 2013.16 1165.91 2012.97 1168.75 2012.78 1171.6 2012.95 1174.57 2013.48 1177.67 2014 1180.77 2014.71 1183.4 2015.61 1185.57 2017.72 1190.68 2020.64 1192.47 2024.36 1190.93 2026.66 1189.98 2028.33 1188.03 2029.36 1185.1 2030.4 1182.16 2030.72 1178.55 2030.32 1174.28 2029.93 1170.01 2029.06 1166.22 2027.7 1162.93 2026.68 1160.46 2025.44 1158.77 2024 1157.85 2022.55 1156.92 2020.88 1156.85 2019 1157.63ZM2018.37 1155.34C2021.56 1154.02 2024.4 1153.93 2026.9 1155.06 2029.39 1156.2 2031.37 1158.53 2032.82 1162.03 2033.77 1164.35 2034.48 1167.09 2034.94 1170.25 2035.39 1173.42 2035.44 1176.36 2035.07 1179.08 2034.7 1181.79 2033.95 1184.17 2032.83 1186.21 2031.7 1188.24 2030.26 1189.92 2028.5 1191.25 2029.38 1192.3 2030.15 1193.15 2030.81 1193.8 2031.46 1194.45 2032.05 1194.95 2032.55 1195.31 2033.06 1195.67 2033.51 1195.91 2033.91 1196.03 2034.31 1196.15 2034.67 1196.19 2035 1196.15 2035.34 1196.1 2035.7 1196 2036.1 1195.84 2036.73 1195.58 2037.29 1195.13 2037.78 1194.5 2038.28 1193.87 2038.74 1192.95 2039.16 1191.72L2041.03 1192.58C2040.3 1194.57 2039.49 1196.09 2038.59 1197.16 2037.7 1198.23 2036.65 1199.01 2035.44 1199.51 2034.06 1200.08 2032.82 1200.24 2031.69 1199.98 2030.57 1199.73 2029.42 1199.07 2028.23 1197.99 2027.03 1196.91 2025.69 1195.41 2024.2 1193.49 2021.14 1194.56 2018.44 1194.52 2016.12 1193.35 2013.8 1192.18 2011.95 1189.94 2010.58 1186.63 2009.56 1184.14 2008.81 1181.17 2008.36 1177.69 2007.9 1174.22 2007.97 1170.96 2008.56 1167.92 2009.15 1164.88 2010.29 1162.28 2011.97 1160.15 2013.65 1158.01 2015.79 1156.4 2018.37 1155.34Z" fill="#C00000" fill-rule="evenodd"/><text fill="#000000" fill-opacity="0" font-family="Arial,Arial_MSFontService,sans-serif" font-size="45.8275" x="2008.06" y="1194.37">洧녟</text><path d="M2052.04 1139.55 2053.5 1141.19C2050.16 1144.06 2048.32 1147.73 2047.99 1152.2 2047.65 1156.67 2048.64 1161.7 2050.96 1167.29 2053.35 1173.08 2056.25 1177.47 2059.67 1180.46 2063.08 1183.44 2066.96 1184.78 2071.31 1184.48L2071.51 1186.63C2066.13 1187.36 2061.28 1186.16 2056.96 1183.01 2052.64 1179.87 2049.24 1175.3 2046.77 1169.31 2044.3 1163.34 2043.48 1157.71 2044.32 1152.41 2045.17 1147.11 2047.74 1142.83 2052.04 1139.55Z" fill="#C00000" fill-rule="evenodd"/><text fill="#000000" fill-opacity="0" font-family="Arial,Arial_MSFontService,sans-serif" font-size="47.2867" x="2044" y="1180.93">(</text><path d="M2072.44 1144.87C2073.98 1144.23 2075.42 1143.74 2076.76 1143.4 2078.1 1143.06 2079.49 1142.85 2080.94 1142.78L2081.97 1148.45 2079.96 1149.28C2079.17 1147.89 2078.23 1146.97 2077.13 1146.53 2076.03 1146.1 2074.63 1146.23 2072.94 1146.93 2071.64 1147.47 2070.72 1148.24 2070.18 1149.24 2069.65 1150.25 2069.61 1151.3 2070.06 1152.39 2070.31 1152.99 2070.63 1153.47 2071.02 1153.84 2071.42 1154.21 2072.04 1154.54 2072.89 1154.82 2073.75 1155.11 2075 1155.37 2076.65 1155.62 2077.96 1155.82 2079.03 1156.05 2079.87 1156.31 2080.72 1156.57 2081.43 1156.88 2082 1157.24 2082.58 1157.61 2083.07 1158.04 2083.47 1158.54 2083.87 1159.04 2084.24 1159.7 2084.58 1160.51 2085.18 1161.98 2085.31 1163.41 2084.96 1164.78 2084.61 1166.16 2083.87 1167.38 2082.73 1168.45 2081.59 1169.52 2080.16 1170.41 2078.44 1171.13 2077.07 1171.69 2075.68 1172.15 2074.27 1172.49 2072.86 1172.83 2071.24 1173.09 2069.42 1173.26L2068.37 1167.36 2070.31 1166.56C2071.03 1168.12 2071.97 1169.13 2073.13 1169.6 2074.3 1170.07 2075.78 1169.93 2077.58 1169.19 2079.16 1168.54 2080.24 1167.68 2080.83 1166.61 2081.43 1165.54 2081.46 1164.36 2080.92 1163.07 2080.62 1162.32 2080.23 1161.73 2079.76 1161.3 2079.29 1160.86 2078.67 1160.51 2077.9 1160.25 2077.13 1159.99 2075.98 1159.73 2074.45 1159.5 2072.84 1159.25 2071.54 1158.96 2070.56 1158.63 2069.58 1158.3 2068.76 1157.84 2068.09 1157.26 2067.42 1156.67 2066.89 1155.9 2066.49 1154.94 2065.95 1153.63 2065.83 1152.34 2066.13 1151.07 2066.42 1149.79 2067.11 1148.62 2068.2 1147.55 2069.29 1146.48 2070.7 1145.59 2072.44 1144.87Z" fill="#C00000" fill-rule="evenodd"/><text fill="#000000" fill-opacity="0" font-family="Arial,Arial_MSFontService,sans-serif" font-size="30.4801" x="2065.97" y="1169.45">洧</text><path d="M2079.69 1128.13C2085.04 1127.4 2089.89 1128.62 2094.23 1131.78 2098.57 1134.93 2101.97 1139.5 2104.44 1145.47 2106.91 1151.46 2107.73 1157.09 2106.89 1162.37 2106.05 1167.65 2103.47 1171.93 2099.15 1175.21L2097.76 1173.54C2101.06 1170.69 2102.86 1167 2103.17 1162.47 2103.48 1157.95 2102.44 1152.79 2100.04 1147 2097.73 1141.41 2094.88 1137.14 2091.5 1134.21 2088.12 1131.28 2084.22 1129.98 2079.81 1130.31Z" fill="#C00000" fill-rule="evenodd"/><text fill="#000000" fill-opacity="0" font-family="Arial,Arial_MSFontService,sans-serif" font-size="47.2825" x="2079.69" y="1169.3">)</text></g></svg>