<svg width="1816" height="1645" xmlns="http://www.w3.org/2000/svg" xmlns:xlink="http://www.w3.org/1999/xlink" xml:space="preserve" overflow="hidden"><g transform="translate(-1214 -469)"><path d="M1644.51 1690.67 1399.01 1358.27 1401.77 1356.23 1647.28 1688.63ZM1400.39 1357.25 1394.78 1372.79 1389.5 1342.5 1416.9 1356.45Z" fill="#595959"/><path d="M1.07507-1.34102 1186.85 949.272 1184.7 951.954-1.07507 1.34102ZM1185.78 950.615 1187.23 934.153 1200.08 962.082 1170.03 955.609Z" fill="#595959" transform="matrix(1 0 0 -1 1646.5 1688.58)"/><path d="M15.6405 9.83576 144.573 115.325 141.67 118.873 12.7382 13.3831ZM14.1892 11.6093 12.5768 28.0559 0 0 29.9909 6.77209Z" fill="#C00000" transform="matrix(-1 0 0 1 2750.62 802.5)"/><path d="M0 0 0.000360892 1069.27" stroke="#595959" stroke-width="4.58333" stroke-miterlimit="8" stroke-dasharray="18.3333 13.75" fill="none" fill-rule="evenodd" transform="matrix(1 0 0 -1 2606.5 1987.77)"/><path d="M0 0 0.000360892 299.369" stroke="#595959" stroke-width="4.58333" stroke-miterlimit="8" stroke-dasharray="18.3333 13.75" fill="none" fill-rule="evenodd" transform="matrix(1 0 0 -1 1645.5 1987.87)"/><path d="M0 0 607.589 0.000360892" stroke="#595959" stroke-width="4.58333" stroke-miterlimit="8" stroke-dasharray="18.3333 13.75" fill="none" fill-rule="evenodd" transform="matrix(-1 0 0 1 1931.09 1688.5)"/><path d="M0 0 1286.62 10.2104" stroke="#595959" stroke-width="4.58333" stroke-miterlimit="8" stroke-dasharray="18.3333 13.75" fill="none" fill-rule="evenodd" transform="matrix(-1 0 0 1 2607.12 918.5)"/><path d="M1321.5 1985.06 2987.48 1985.06 2987.48 1991.94 1321.5 1991.94ZM2961.72 1969.49 2994.31 1988.5 2961.72 2007.51C2960.08 2008.47 2957.98 2007.91 2957.02 2006.27 2956.07 2004.63 2956.62 2002.53 2958.26 2001.57L2985.76 1985.53 2985.76 1991.47 2958.26 1975.43C2956.62 1974.47 2956.07 1972.37 2957.02 1970.73 2957.98 1969.09 2960.08 1968.53 2961.72 1969.49Z" fill="#595959"/><path d="M3.4375-8.33837e-07 3.43786 1480.98-3.43714 1480.98-3.4375 8.33837e-07ZM19.0113 1455.21 0.000360654 1487.8-19.0106 1455.21C-19.9671 1453.57-19.4132 1451.46-17.7734 1450.51-16.1335 1449.55-14.0287 1450.1-13.0721 1451.74L2.9696 1479.24-2.96888 1479.24 13.0728 1451.74C14.0294 1450.1 16.1342 1449.55 17.7741 1450.51 19.4139 1451.46 19.9678 1453.57 19.0113 1455.21Z" fill="#595959" transform="matrix(1 0 0 -1 1321.5 1992.28)"/><path d="M2898.05 2051.13C2898.89 2051.13 2899.62 2051.22 2900.26 2051.41 2900.89 2051.6 2901.45 2051.89 2901.94 2052.28 2902.43 2052.68 2902.86 2053.18 2903.24 2053.8 2903.61 2054.43 2903.98 2055.27 2904.33 2056.34 2904.68 2057.4 2905.01 2058.73 2905.32 2060.31 2905.63 2061.89 2905.91 2063.53 2906.15 2065.23L2906.56 2065.23C2909.15 2061.59 2911.12 2058.92 2912.46 2057.23 2913.79 2055.54 2914.92 2054.28 2915.84 2053.46 2916.76 2052.64 2917.64 2052.05 2918.49 2051.72 2919.35 2051.38 2920.47 2051.21 2921.88 2051.21 2923.15 2051.21 2924.19 2051.37 2925 2051.7L2923.38 2059.03 2920.54 2059.03C2920.38 2057.9 2919.91 2057.33 2919.12 2057.33 2918.88 2057.33 2918.62 2057.37 2918.35 2057.45 2918.08 2057.53 2917.75 2057.71 2917.36 2057.98 2916.97 2058.25 2916.39 2058.78 2915.64 2059.56 2914.88 2060.34 2914.03 2061.3 2913.08 2062.44 2912.14 2063.57 2911.17 2064.76 2910.17 2066L2907.41 2069.45C2907.9 2072.04 2908.36 2074.28 2908.79 2076.18 2909.22 2078.07 2909.61 2079.64 2909.94 2080.9 2910.28 2082.15 2910.58 2083.15 2910.84 2083.88 2911.09 2084.6 2911.37 2085.15 2911.67 2085.52 2911.96 2085.88 2912.27 2086.14 2912.58 2086.29 2912.89 2086.44 2913.25 2086.51 2913.65 2086.51 2914.38 2086.51 2915.09 2086.23 2915.78 2085.66 2916.47 2085.09 2917.46 2083.81 2918.76 2081.81L2921.39 2083.55C2919.5 2086.36 2917.79 2088.34 2916.27 2089.49 2914.74 2090.64 2912.92 2091.21 2910.81 2091.21 2909.65 2091.21 2908.67 2091 2907.86 2090.58 2907.05 2090.16 2906.34 2089.5 2905.75 2088.58 2905.15 2087.66 2904.63 2086.23 2904.17 2084.28 2903.33 2080.82 2902.82 2078.17 2902.63 2076.34L2902.22 2076.34C2899.36 2080.36 2897.23 2083.25 2895.84 2085.01 2894.45 2086.77 2893.3 2088.06 2892.4 2088.9 2891.49 2089.74 2890.61 2090.33 2889.76 2090.66 2888.91 2091 2887.78 2091.17 2886.38 2091.17 2885.11 2091.17 2884.07 2091.01 2883.26 2090.68L2884.88 2083.35 2887.71 2083.35C2887.88 2084.48 2888.35 2085.05 2889.13 2085.05 2889.51 2085.05 2889.91 2084.95 2890.33 2084.75 2890.75 2084.54 2891.35 2084.06 2892.13 2083.29 2892.92 2082.52 2894 2081.31 2895.37 2079.66 2896.75 2078.01 2898.75 2075.54 2901.37 2072.24 2900.97 2070.11 2900.55 2068.06 2900.12 2066.08 2899.68 2064.11 2899.24 2062.27 2898.78 2060.57 2898.32 2058.87 2897.94 2057.76 2897.64 2057.23 2897.35 2056.7 2897.03 2056.34 2896.69 2056.13 2896.35 2055.93 2895.93 2055.83 2895.41 2055.83 2894.85 2055.83 2894.33 2055.96 2893.87 2056.22 2893.42 2056.47 2892.92 2056.92 2892.38 2057.55 2891.83 2058.19 2891.12 2059.18 2890.23 2060.53L2887.59 2058.79C2889.29 2056.22 2890.93 2054.3 2892.5 2053.03 2894.06 2051.76 2895.91 2051.13 2898.05 2051.13Z" fill="#595959" fill-rule="evenodd"/><text fill="#000000" fill-opacity="0" font-family="Arial,Arial_MSFontService,sans-serif" font-size="40.0815" x="2883.26" y="2086.2">𝑥</text><path d="M1231.83 634.888C1232.94 634.888 1233.88 635.036 1234.66 635.333 1235.2 635.549 1235.75 635.907 1236.29 636.407 1236.83 636.907 1237.31 637.603 1237.72 638.494 1238.14 639.386 1238.51 640.386 1238.82 641.493 1239.13 642.601 1239.47 644.195 1239.85 646.276 1240.5 649.761 1241.13 653.429 1241.74 657.279 1242.34 661.129 1242.86 664.702 1243.3 667.998 1245.92 664.216 1248.14 660.514 1249.96 656.894 1251.79 653.273 1253.1 650.126 1253.89 647.451 1254.69 644.776 1255.09 642.601 1255.09 640.926 1255.09 639.656 1254.82 638.792 1254.28 638.332 1253.74 637.873 1252.82 637.603 1251.52 637.522L1251.93 635.536 1262.59 635.536 1263.68 637.562C1261.63 643.182 1258.85 649.194 1255.33 655.597 1251.88 661.865 1247.92 668.106 1243.46 674.321 1239.19 680.238 1235.64 684.52 1232.8 687.168 1230.83 688.978 1228.92 690.275 1227.09 691.058 1225.63 691.653 1224.07 691.95 1222.43 691.95 1221.86 691.95 1221.2 691.903 1220.46 691.808 1219.72 691.714 1219.14 691.585 1218.74 691.423L1220.48 683.561 1223.68 683.561C1223.68 685.29 1224.28 686.155 1225.46 686.155 1227.03 686.155 1228.86 685.175 1230.94 683.216 1233.02 681.258 1235.46 678.306 1238.27 674.361 1237.49 669.633 1236.42 663.932 1235.07 657.259 1233.64 650.126 1232.69 645.708 1232.23 644.006 1231.67 641.953 1231.07 640.642 1230.45 640.075 1230.07 639.724 1229.6 639.548 1229.03 639.548 1228.17 639.548 1227.36 639.899 1226.6 640.602 1225.84 641.304 1224.91 642.52 1223.8 644.249L1221.17 642.507C1223.03 639.724 1224.78 637.758 1226.4 636.61 1228.02 635.462 1229.83 634.888 1231.83 634.888Z" fill="#595959" fill-rule="evenodd"/><text fill="#000000" fill-opacity="0" font-family="Arial,Arial_MSFontService,sans-serif" font-size="57.0625" x="1218.74" y="684.817">𝑦</text><path d="M1645.5 1687.5C1846.47 1279.45 2191.24 1052.28 2606.5 918.5" stroke="#104862" stroke-width="9.16667" stroke-miterlimit="8" fill="none" fill-rule="evenodd"/><path d="M1632.5 1688.5C1632.5 1681.32 1638.32 1675.5 1645.5 1675.5 1652.68 1675.5 1658.5 1681.32 1658.5 1688.5 1658.5 1695.68 1652.68 1701.5 1645.5 1701.5 1638.32 1701.5 1632.5 1695.68 1632.5 1688.5Z" stroke="#104862" stroke-width="9.16667" stroke-miterlimit="8" fill="#FFFFFF" fill-rule="evenodd"/><path d="M2593.5 918.5C2593.5 911.32 2599.32 905.5 2606.5 905.5 2613.68 905.5 2619.5 911.32 2619.5 918.5 2619.5 925.68 2613.68 931.5 2606.5 931.5 2599.32 931.5 2593.5 925.68 2593.5 918.5Z" stroke="#104862" stroke-width="9.16667" stroke-miterlimit="8" fill="#FFFFFF" fill-rule="evenodd"/><path d="M1620.5 2055.08C1621.06 2055.08 1621.55 2055.15 1621.97 2055.27 1622.39 2055.4 1622.76 2055.59 1623.08 2055.85 1623.41 2056.11 1623.69 2056.44 1623.94 2056.86 1624.19 2057.27 1624.43 2057.83 1624.67 2058.53 1624.9 2059.24 1625.12 2060.12 1625.33 2061.17 1625.53 2062.21 1625.71 2063.3 1625.88 2064.43L1626.14 2064.43C1627.86 2062.01 1629.17 2060.24 1630.05 2059.12 1630.94 2058.01 1631.69 2057.17 1632.29 2056.63 1632.9 2056.08 1633.49 2055.7 1634.05 2055.47 1634.62 2055.25 1635.36 2055.14 1636.3 2055.14 1637.14 2055.14 1637.83 2055.24 1638.36 2055.46L1637.29 2060.32 1635.41 2060.32C1635.3 2059.57 1634.99 2059.19 1634.47 2059.19 1634.31 2059.19 1634.14 2059.22 1633.96 2059.27 1633.78 2059.33 1633.56 2059.44 1633.3 2059.62 1633.04 2059.8 1632.66 2060.15 1632.16 2060.67 1631.66 2061.19 1631.09 2061.82 1630.47 2062.58 1629.84 2063.33 1629.2 2064.12 1628.53 2064.94L1626.71 2067.22C1627.03 2068.94 1627.34 2070.43 1627.62 2071.68 1627.91 2072.93 1628.16 2073.98 1628.39 2074.81 1628.61 2075.64 1628.81 2076.3 1628.98 2076.78 1629.15 2077.27 1629.33 2077.63 1629.53 2077.87 1629.73 2078.11 1629.93 2078.28 1630.13 2078.38 1630.34 2078.48 1630.58 2078.53 1630.84 2078.53 1631.33 2078.53 1631.8 2078.34 1632.25 2077.96 1632.71 2077.59 1633.37 2076.74 1634.23 2075.41L1635.97 2076.57C1634.72 2078.43 1633.59 2079.74 1632.58 2080.5 1631.56 2081.26 1630.36 2081.64 1628.96 2081.64 1628.19 2081.64 1627.54 2081.5 1627 2081.23 1626.47 2080.95 1626 2080.51 1625.61 2079.9 1625.21 2079.29 1624.86 2078.34 1624.56 2077.05 1624.01 2074.76 1623.66 2073 1623.54 2071.79L1623.27 2071.79C1621.37 2074.45 1619.96 2076.37 1619.04 2077.53 1618.12 2078.7 1617.36 2079.56 1616.76 2080.11 1616.16 2080.67 1615.58 2081.06 1615.01 2081.28 1614.45 2081.5 1613.7 2081.62 1612.77 2081.62 1611.93 2081.62 1611.24 2081.51 1610.7 2081.29L1611.78 2076.43 1613.66 2076.43C1613.76 2077.19 1614.08 2077.56 1614.6 2077.56 1614.85 2077.56 1615.11 2077.49 1615.39 2077.36 1615.67 2077.23 1616.06 2076.9 1616.58 2076.39 1617.1 2075.88 1617.82 2075.08 1618.73 2073.99 1619.65 2072.9 1620.97 2071.26 1622.71 2069.07 1622.44 2067.66 1622.16 2066.3 1621.87 2064.99 1621.59 2063.69 1621.29 2062.47 1620.99 2061.34 1620.68 2060.21 1620.43 2059.47 1620.24 2059.12 1620.04 2058.78 1619.83 2058.53 1619.61 2058.4 1619.38 2058.27 1619.1 2058.2 1618.76 2058.2 1618.38 2058.2 1618.04 2058.28 1617.74 2058.45 1617.43 2058.62 1617.1 2058.92 1616.75 2059.34 1616.39 2059.76 1615.91 2060.42 1615.32 2061.31L1613.58 2060.16C1614.7 2058.46 1615.79 2057.19 1616.83 2056.35 1617.86 2055.5 1619.09 2055.08 1620.5 2055.08Z" fill-rule="evenodd"/><text fill="#000000" fill-opacity="0" font-family="Arial,Arial_MSFontService,sans-serif" font-size="26.5601" x="1610.7" y="2078.32">𝑥</text><path d="M1650.17 2069.04C1649.26 2069.04 1648.5 2069.28 1647.89 2069.76 1647.27 2070.23 1646.79 2070.93 1646.43 2071.85 1646.07 2072.76 1645.82 2073.88 1645.67 2075.21 1645.52 2076.53 1645.44 2078.03 1645.44 2079.71 1645.44 2081.65 1645.54 2083.32 1645.73 2084.74 1645.92 2086.15 1646.21 2087.31 1646.61 2088.22 1647 2089.14 1647.5 2089.81 1648.1 2090.24 1648.7 2090.67 1649.42 2090.88 1650.25 2090.88 1651.03 2090.88 1651.71 2090.68 1652.3 2090.27 1652.89 2089.87 1653.37 2089.24 1653.75 2088.39 1654.14 2087.54 1654.43 2086.46 1654.62 2085.15 1654.82 2083.84 1654.92 2082.29 1654.92 2080.51 1654.92 2078.5 1654.81 2076.78 1654.59 2075.33 1654.38 2073.89 1654.08 2072.7 1653.69 2071.77 1653.3 2070.84 1652.8 2070.15 1652.21 2069.71 1651.62 2069.27 1650.94 2069.04 1650.17 2069.04ZM1650.25 2067.15C1651.8 2067.15 1653.12 2067.44 1654.22 2068.02 1655.32 2068.6 1656.22 2069.43 1656.92 2070.5 1657.62 2071.57 1658.13 2072.89 1658.45 2074.43 1658.78 2075.98 1658.94 2077.74 1658.94 2079.69 1658.94 2084.02 1658.17 2087.3 1656.64 2089.52 1655.1 2091.74 1652.87 2092.85 1649.96 2092.85 1647.07 2092.85 1644.92 2091.8 1643.51 2089.71 1642.1 2087.61 1641.4 2084.43 1641.4 2080.18 1641.4 2077.95 1641.62 2076.02 1642.06 2074.4 1642.49 2072.77 1643.1 2071.42 1643.89 2070.34 1644.68 2069.27 1645.61 2068.47 1646.69 2067.94 1647.77 2067.41 1648.96 2067.15 1650.25 2067.15Z" fill-rule="evenodd"/><text fill="#000000" fill-opacity="0" font-family="Arial,Arial_MSFontService,sans-serif" font-size="25.7031" x="1641.4" y="2089.64">0</text><path d="M2602.37 2055.08C2602.93 2055.08 2603.42 2055.15 2603.84 2055.27 2604.26 2055.4 2604.63 2055.59 2604.95 2055.85 2605.27 2056.11 2605.56 2056.44 2605.81 2056.86 2606.06 2057.27 2606.3 2057.83 2606.54 2058.53 2606.77 2059.24 2606.99 2060.12 2607.2 2061.17 2607.4 2062.21 2607.58 2063.3 2607.75 2064.43L2608.01 2064.43C2609.73 2062.01 2611.04 2060.24 2611.92 2059.12 2612.81 2058.01 2613.56 2057.17 2614.16 2056.63 2614.77 2056.08 2615.36 2055.7 2615.92 2055.47 2616.49 2055.25 2617.23 2055.14 2618.17 2055.14 2619.01 2055.14 2619.7 2055.24 2620.23 2055.46L2619.16 2060.32 2617.28 2060.32C2617.17 2059.57 2616.86 2059.19 2616.34 2059.19 2616.18 2059.19 2616.01 2059.22 2615.83 2059.27 2615.65 2059.33 2615.43 2059.44 2615.17 2059.62 2614.91 2059.8 2614.53 2060.15 2614.03 2060.67 2613.53 2061.19 2612.96 2061.82 2612.34 2062.58 2611.71 2063.33 2611.07 2064.12 2610.4 2064.94L2608.58 2067.22C2608.9 2068.94 2609.2 2070.43 2609.49 2071.68 2609.78 2072.93 2610.03 2073.98 2610.26 2074.81 2610.48 2075.64 2610.68 2076.3 2610.85 2076.78 2611.02 2077.27 2611.2 2077.63 2611.4 2077.87 2611.59 2078.11 2611.8 2078.28 2612 2078.38 2612.21 2078.48 2612.45 2078.53 2612.71 2078.53 2613.2 2078.53 2613.67 2078.34 2614.12 2077.96 2614.58 2077.59 2615.24 2076.74 2616.1 2075.41L2617.84 2076.57C2616.59 2078.43 2615.46 2079.74 2614.45 2080.5 2613.43 2081.26 2612.23 2081.64 2610.83 2081.64 2610.06 2081.64 2609.41 2081.5 2608.87 2081.23 2608.34 2080.95 2607.87 2080.51 2607.48 2079.9 2607.08 2079.29 2606.73 2078.34 2606.43 2077.05 2605.87 2074.76 2605.53 2073 2605.41 2071.79L2605.14 2071.79C2603.24 2074.45 2601.83 2076.37 2600.91 2077.53 2599.99 2078.7 2599.23 2079.56 2598.63 2080.11 2598.03 2080.67 2597.45 2081.06 2596.88 2081.28 2596.32 2081.5 2595.57 2081.62 2594.64 2081.62 2593.8 2081.62 2593.11 2081.51 2592.57 2081.29L2593.65 2076.43 2595.53 2076.43C2595.63 2077.19 2595.95 2077.56 2596.47 2077.56 2596.72 2077.56 2596.98 2077.49 2597.26 2077.36 2597.54 2077.23 2597.93 2076.9 2598.45 2076.39 2598.97 2075.88 2599.69 2075.08 2600.6 2073.99 2601.52 2072.9 2602.84 2071.26 2604.58 2069.07 2604.31 2067.66 2604.03 2066.3 2603.74 2064.99 2603.46 2063.69 2603.16 2062.47 2602.86 2061.34 2602.55 2060.21 2602.3 2059.47 2602.11 2059.12 2601.91 2058.78 2601.7 2058.53 2601.47 2058.4 2601.25 2058.27 2600.97 2058.2 2600.63 2058.2 2600.25 2058.2 2599.91 2058.28 2599.61 2058.45 2599.3 2058.62 2598.97 2058.92 2598.61 2059.34 2598.26 2059.76 2597.78 2060.42 2597.19 2061.31L2595.45 2060.16C2596.57 2058.46 2597.66 2057.19 2598.7 2056.35 2599.73 2055.5 2600.96 2055.08 2602.37 2055.08Z" fill-rule="evenodd"/><text fill="#000000" fill-opacity="0" font-family="Arial,Arial_MSFontService,sans-serif" font-size="26.5601" x="2592.57" y="2078.32">𝑥</text><path d="M2632.36 2067.29 2633.55 2067.29C2633.52 2068 2633.5 2068.64 2633.49 2069.21 2633.48 2069.78 2633.47 2070.33 2633.46 2070.86 2633.46 2071.39 2633.45 2071.92 2633.45 2072.44L2633.45 2087.29C2633.45 2087.69 2633.47 2088.04 2633.49 2088.33 2633.52 2088.62 2633.56 2088.87 2633.62 2089.07 2633.68 2089.28 2633.75 2089.45 2633.85 2089.59 2633.95 2089.73 2634.06 2089.86 2634.19 2089.96 2634.35 2090.12 2634.56 2090.24 2634.82 2090.32 2635.08 2090.41 2635.41 2090.48 2635.82 2090.54 2636.22 2090.6 2636.7 2090.64 2637.27 2090.68 2637.84 2090.71 2638.52 2090.73 2639.31 2090.74L2639.31 2092.44 2623.82 2092.44 2623.82 2090.74C2624.59 2090.72 2625.24 2090.69 2625.78 2090.66 2626.31 2090.62 2626.77 2090.58 2627.14 2090.52 2627.52 2090.46 2627.82 2090.4 2628.05 2090.32 2628.28 2090.25 2628.48 2090.16 2628.65 2090.06 2628.83 2089.94 2628.99 2089.82 2629.12 2089.68 2629.25 2089.54 2629.35 2089.37 2629.43 2089.16 2629.51 2088.95 2629.57 2088.7 2629.61 2088.4 2629.66 2088.1 2629.68 2087.73 2629.68 2087.29L2629.68 2073.28C2629.68 2072.77 2629.58 2072.42 2629.39 2072.21 2629.19 2072 2628.91 2071.9 2628.55 2071.9 2628.15 2071.9 2627.55 2072.1 2626.75 2072.52 2625.96 2072.94 2624.93 2073.56 2623.67 2074.38 2623.5 2074.08 2623.34 2073.78 2623.2 2073.48 2623.05 2073.18 2622.91 2072.87 2622.75 2072.56 2624.36 2071.67 2625.96 2070.79 2627.54 2069.91 2629.13 2069.03 2630.73 2068.16 2632.36 2067.29Z" fill-rule="evenodd"/><text fill="#000000" fill-opacity="0" font-family="Arial,Arial_MSFontService,sans-serif" font-size="25.1562" x="2622.75" y="2089.3">1</text><path d="M1231.66 1678.88C1232.39 1678.88 1233.02 1678.97 1233.53 1679.17 1233.89 1679.31 1234.25 1679.55 1234.61 1679.88 1234.97 1680.21 1235.29 1680.68 1235.56 1681.27 1235.84 1681.86 1236.08 1682.52 1236.29 1683.25 1236.49 1683.99 1236.72 1685.04 1236.97 1686.42 1237.4 1688.73 1237.82 1691.16 1238.22 1693.71 1238.62 1696.27 1238.97 1698.63 1239.26 1700.82 1240.99 1698.31 1242.46 1695.86 1243.67 1693.46 1244.88 1691.06 1245.75 1688.97 1246.28 1687.2 1246.81 1685.43 1247.07 1683.99 1247.07 1682.88 1247.07 1682.04 1246.89 1681.46 1246.53 1681.16 1246.17 1680.85 1245.57 1680.68 1244.71 1680.62L1244.98 1679.31 1252.04 1679.31 1252.76 1680.65C1251.4 1684.37 1249.56 1688.36 1247.23 1692.6 1244.94 1696.75 1242.32 1700.89 1239.36 1705.01 1236.53 1708.93 1234.18 1711.77 1232.3 1713.52 1230.99 1714.72 1229.73 1715.58 1228.51 1716.1 1227.55 1716.49 1226.52 1716.69 1225.42 1716.69 1225.05 1716.69 1224.61 1716.66 1224.12 1716.59 1223.63 1716.53 1223.25 1716.45 1222.98 1716.34L1224.14 1711.13 1226.26 1711.13C1226.26 1712.28 1226.65 1712.85 1227.44 1712.85 1228.48 1712.85 1229.69 1712.2 1231.06 1710.9 1232.44 1709.6 1234.06 1707.65 1235.93 1705.03 1235.41 1701.9 1234.7 1698.12 1233.8 1693.7 1232.85 1688.97 1232.23 1686.05 1231.92 1684.92 1231.55 1683.56 1231.15 1682.69 1230.74 1682.31 1230.49 1682.08 1230.18 1681.96 1229.8 1681.96 1229.23 1681.96 1228.69 1682.2 1228.19 1682.66 1227.69 1683.13 1227.07 1683.93 1226.34 1685.08L1224.59 1683.93C1225.83 1682.08 1226.98 1680.78 1228.06 1680.02 1229.13 1679.26 1230.33 1678.88 1231.66 1678.88Z" fill-rule="evenodd"/><text fill="#000000" fill-opacity="0" font-family="Arial,Arial_MSFontService,sans-serif" font-size="37.8125" x="1222.98" y="1711.96">𝑦</text><path d="M1263.64 1692.81C1262.73 1692.81 1261.97 1693.05 1261.35 1693.52 1260.74 1694 1260.26 1694.7 1259.9 1695.61 1259.54 1696.53 1259.29 1697.65 1259.14 1698.97 1258.99 1700.29 1258.91 1701.79 1258.91 1703.47 1258.91 1705.41 1259.01 1707.09 1259.2 1708.5 1259.38 1709.92 1259.68 1711.08 1260.07 1711.99 1260.47 1712.9 1260.97 1713.57 1261.57 1714 1262.17 1714.43 1262.88 1714.65 1263.72 1714.65 1264.5 1714.65 1265.18 1714.44 1265.77 1714.04 1266.35 1713.64 1266.84 1713.01 1267.22 1712.16 1267.61 1711.3 1267.9 1710.22 1268.09 1708.91 1268.29 1707.61 1268.39 1706.06 1268.39 1704.28 1268.39 1702.27 1268.28 1700.54 1268.06 1699.1 1267.85 1697.65 1267.55 1696.47 1267.15 1695.54 1266.76 1694.6 1266.27 1693.92 1265.68 1693.47 1265.09 1693.03 1264.41 1692.81 1263.64 1692.81ZM1263.72 1690.92C1265.27 1690.92 1266.59 1691.21 1267.69 1691.79 1268.79 1692.36 1269.69 1693.19 1270.39 1694.27 1271.08 1695.34 1271.59 1696.65 1271.92 1698.2 1272.25 1699.75 1272.41 1701.5 1272.41 1703.46 1272.41 1707.79 1271.64 1711.07 1270.1 1713.29 1268.57 1715.51 1266.34 1716.62 1263.42 1716.62 1260.53 1716.62 1258.39 1715.57 1256.98 1713.47 1255.57 1711.38 1254.87 1708.2 1254.87 1703.94 1254.87 1701.72 1255.09 1699.79 1255.52 1698.16 1255.96 1696.53 1256.57 1695.18 1257.36 1694.11 1258.15 1693.04 1259.08 1692.23 1260.16 1691.71 1261.24 1691.18 1262.43 1690.92 1263.72 1690.92Z" fill-rule="evenodd"/><text fill="#000000" fill-opacity="0" font-family="Arial,Arial_MSFontService,sans-serif" font-size="25.7031" x="1254.87" y="1713.41">0</text><path d="M1231 909.872C1231.74 909.872 1232.36 909.971 1232.88 910.168 1233.24 910.311 1233.6 910.548 1233.96 910.88 1234.31 911.211 1234.63 911.672 1234.91 912.263 1235.19 912.853 1235.43 913.516 1235.64 914.25 1235.84 914.984 1236.07 916.04 1236.32 917.419 1236.75 919.728 1237.17 922.159 1237.57 924.71 1237.97 927.261 1238.32 929.629 1238.6 931.813 1240.34 929.307 1241.81 926.854 1243.02 924.455 1244.23 922.056 1245.1 919.97 1245.63 918.198 1246.15 916.425 1246.42 914.984 1246.42 913.874 1246.42 913.032 1246.24 912.46 1245.88 912.155 1245.52 911.851 1244.91 911.672 1244.05 911.618L1244.32 910.302 1251.39 910.302 1252.11 911.645C1250.75 915.369 1248.91 919.352 1246.58 923.596 1244.29 927.749 1241.66 931.885 1238.71 936.003 1235.88 939.924 1233.53 942.761 1231.65 944.516 1230.34 945.716 1229.08 946.575 1227.86 947.094 1226.89 947.488 1225.86 947.685 1224.77 947.685 1224.4 947.685 1223.96 947.654 1223.47 947.591 1222.98 947.528 1222.6 947.443 1222.33 947.336L1223.48 942.126 1225.6 942.126C1225.6 943.272 1226 943.845 1226.79 943.845 1227.82 943.845 1229.03 943.196 1230.41 941.898 1231.79 940.6 1233.41 938.644 1235.27 936.03 1234.75 932.897 1234.05 929.119 1233.15 924.697 1232.2 919.97 1231.58 917.043 1231.27 915.915 1230.9 914.554 1230.5 913.686 1230.09 913.31 1229.84 913.077 1229.53 912.961 1229.15 912.961 1228.58 912.961 1228.04 913.194 1227.54 913.659 1227.04 914.125 1226.42 914.93 1225.69 916.076L1223.94 914.921C1225.18 913.077 1226.33 911.775 1227.4 911.014 1228.48 910.253 1229.68 909.872 1231 909.872Z" fill-rule="evenodd"/><text fill="#000000" fill-opacity="0" font-family="Arial,Arial_MSFontService,sans-serif" font-size="37.8125" x="1222.33" y="942.958">𝑦</text><path d="M1263.31 922.049 1264.5 922.049C1264.47 922.765 1264.45 923.406 1264.44 923.973 1264.42 924.539 1264.42 925.089 1264.41 925.623 1264.4 926.157 1264.4 926.684 1264.4 927.205L1264.4 942.049C1264.4 942.453 1264.41 942.801 1264.44 943.094 1264.46 943.387 1264.51 943.634 1264.56 943.836 1264.62 944.038 1264.7 944.21 1264.8 944.354 1264.9 944.497 1265.01 944.62 1265.14 944.725 1265.3 944.881 1265.51 945.001 1265.77 945.086 1266.03 945.171 1266.36 945.242 1266.76 945.301 1267.17 945.359 1267.65 945.405 1268.22 945.438 1268.78 945.47 1269.46 945.493 1270.26 945.506L1270.26 947.205 1254.77 947.205 1254.77 945.506C1255.54 945.48 1256.19 945.451 1256.72 945.418 1257.26 945.385 1257.71 945.34 1258.09 945.281 1258.47 945.223 1258.77 945.158 1259 945.086 1259.23 945.014 1259.42 944.927 1259.59 944.822 1259.78 944.705 1259.93 944.578 1260.06 944.441 1260.19 944.305 1260.3 944.132 1260.38 943.924 1260.45 943.716 1260.52 943.462 1260.56 943.162 1260.61 942.863 1260.63 942.492 1260.63 942.049L1260.63 928.045C1260.63 927.537 1260.53 927.179 1260.34 926.971 1260.14 926.762 1259.86 926.658 1259.5 926.658 1259.09 926.658 1258.49 926.867 1257.7 927.283 1256.91 927.7 1255.88 928.318 1254.61 929.139 1254.44 928.839 1254.29 928.54 1254.15 928.24 1254 927.941 1253.85 927.635 1253.7 927.322 1255.31 926.437 1256.91 925.555 1258.49 924.676 1260.07 923.797 1261.68 922.921 1263.31 922.049Z" fill-rule="evenodd"/><text fill="#000000" fill-opacity="0" font-family="Arial,Arial_MSFontService,sans-serif" font-size="25.1562" x="1253.7" y="944.061">1</text><path d="M1646.93 1614.44 1653.58 1614.73 1664.36 1616.46 1673.97 1619.31 1682.43 1623.21 1689.8 1628.07 1696.09 1633.81 1701.36 1640.32 1705.66 1647.5 1709.05 1655.25 1711.59 1663.47 1713.35 1672.07 1714.39 1680.98 1714.79 1690.12 1714.59 1699.4 1713.86 1708.68 1709.29 1708.32 1710.01 1699.1 1710.01 1699.23 1710.2 1690.1 1710.2 1690.24 1709.82 1681.27 1709.83 1681.43 1708.81 1672.7 1708.84 1672.9 1707.12 1664.49 1707.18 1664.71 1704.71 1656.72 1704.8 1656.96 1701.52 1649.47 1701.65 1649.73 1697.51 1642.82 1697.7 1643.08 1692.64 1636.83 1692.88 1637.08 1686.84 1631.58 1687.12 1631.8 1680.05 1627.13 1680.36 1627.3 1672.2 1623.54 1672.51 1623.66 1663.2 1620.89 1663.49 1620.96 1652.98 1619.28 1653.25 1619.31 1646.73 1619.02ZM1646.83 1616.73 1656.37 1630.23 1628.5 1617.24 1655.61 1602.74Z" fill="#C00000"/><path d="M1602.91 1553.72 1610.86 1581.33 1625.8 1570.11ZM1598.59 1549.54 1601.77 1547.15 1632.08 1568.62 1633.11 1569.99 1609.64 1587.62 1608.61 1586.25Z" fill="#C00000" fill-rule="evenodd"/><text fill="#000000" fill-opacity="0" font-family="Arial,Arial_MSFontService,sans-serif" font-size="40.4755" x="1598.59" y="1582.56">∆</text><path d="M1641.65 1533.57C1640.5 1534.45 1639.99 1535.84 1640.15 1537.76 1640.3 1539.68 1641.12 1542.28 1642.6 1545.56L1647.72 1556.93C1649.7 1555.34 1650.95 1553.35 1651.47 1550.97 1651.99 1548.6 1651.84 1546.03 1651.02 1543.27 1650.2 1540.5 1648.92 1537.97 1647.19 1535.67 1646.25 1534.42 1645.3 1533.61 1644.33 1533.23 1643.36 1532.85 1642.47 1532.96 1641.65 1533.57ZM1630.41 1539.27 1632.64 1539.91C1631.67 1542.99 1631.33 1546.03 1631.63 1549.03 1631.94 1552.03 1632.84 1554.53 1634.35 1556.53 1635.75 1558.39 1637.26 1559.55 1638.9 1560 1640.54 1560.45 1642.32 1560.22 1644.25 1559.3L1639.04 1547.8C1637.32 1543.99 1636.66 1540.71 1637.08 1537.97 1637.49 1535.23 1638.7 1533.11 1640.69 1531.62 1642.65 1530.14 1644.53 1529.58 1646.34 1529.93 1648.15 1530.29 1649.88 1531.56 1651.53 1533.75 1653.58 1536.48 1654.88 1539.39 1655.42 1542.48 1655.96 1545.57 1655.65 1548.53 1654.49 1551.37 1653.33 1554.22 1651.37 1556.71 1648.62 1558.85L1653.32 1569.32 1649.95 1571.85 1645.21 1561.34C1642.32 1563.03 1639.61 1563.69 1637.07 1563.31 1634.53 1562.92 1632.36 1561.53 1630.56 1559.14 1626.99 1554.39 1626.94 1547.76 1630.41 1539.27Z" fill="#C00000" fill-rule="evenodd"/><text fill="#000000" fill-opacity="0" font-family="Arial,Arial_MSFontService,sans-serif" font-size="42.0153" x="1627.85" y="1566.6">𝜑</text><path d="M1666.38 1529.78C1665.65 1530.32 1665.18 1530.97 1664.98 1531.72 1664.77 1532.47 1664.8 1533.31 1665.07 1534.26 1665.33 1535.21 1665.8 1536.26 1666.48 1537.41 1667.15 1538.55 1667.99 1539.8 1669 1541.14 1670.17 1542.69 1671.25 1543.98 1672.25 1544.99 1673.25 1546.01 1674.18 1546.76 1675.05 1547.25 1675.91 1547.74 1676.71 1547.98 1677.45 1547.96 1678.19 1547.95 1678.89 1547.69 1679.56 1547.19 1680.18 1546.72 1680.61 1546.15 1680.83 1545.47 1681.06 1544.8 1681.07 1544 1680.86 1543.09 1680.66 1542.18 1680.24 1541.14 1679.61 1539.98 1678.98 1538.81 1678.13 1537.52 1677.06 1536.09 1675.85 1534.49 1674.73 1533.17 1673.69 1532.15 1672.65 1531.12 1671.7 1530.35 1670.82 1529.84 1669.95 1529.33 1669.15 1529.08 1668.41 1529.08 1667.67 1529.08 1666.99 1529.32 1666.38 1529.78ZM1665.3 1528.21C1666.54 1527.28 1667.77 1526.72 1669 1526.52 1670.23 1526.32 1671.44 1526.45 1672.65 1526.89 1673.85 1527.33 1675.04 1528.07 1676.24 1529.11 1677.43 1530.16 1678.61 1531.46 1679.78 1533.02 1682.39 1536.49 1683.74 1539.57 1683.85 1542.27 1683.95 1544.96 1682.84 1547.19 1680.51 1548.94 1678.19 1550.68 1675.85 1551.13 1673.46 1550.3 1671.08 1549.47 1668.61 1547.35 1666.05 1543.94 1664.72 1542.16 1663.73 1540.49 1663.1 1538.93 1662.47 1537.37 1662.15 1535.92 1662.14 1534.59 1662.12 1533.25 1662.39 1532.05 1662.93 1530.98 1663.48 1529.91 1664.27 1528.99 1665.3 1528.21Z" fill="#C00000" fill-rule="evenodd"/><text fill="#000000" fill-opacity="0" font-family="Arial,Arial_MSFontService,sans-serif" font-size="24.2711" x="1662.14" y="1547.67">0</text><path d="M2600.93 851.444 2607.58 851.735 2618.36 853.458 2627.97 856.308 2636.43 860.208 2643.8 865.075 2650.09 870.814 2655.36 877.325 2659.66 884.502 2663.05 892.247 2665.59 900.466 2667.35 909.074 2668.39 917.985 2668.79 927.12 2668.59 936.397 2667.86 945.679 2663.29 945.322 2664.01 936.105 2664.01 936.234 2664.2 927.096 2664.2 927.243 2663.82 918.267 2663.83 918.435 2662.81 909.704 2662.84 909.896 2661.12 901.495 2661.18 901.712 2658.71 893.723 2658.8 893.965 2655.52 886.472 2655.65 886.731 2651.51 879.818 2651.7 880.083 2646.64 873.833 2646.88 874.085 2640.84 868.582 2641.12 868.8 2634.05 864.128 2634.36 864.298 2626.2 860.54 2626.51 860.655 2617.2 857.895 2617.49 857.961 2606.98 856.281 2607.25 856.308 2600.73 856.023ZM2600.83 853.733 2610.37 867.226 2582.5 854.238 2609.61 839.736Z" fill="#C00000"/><path d="M2526.16 810.006 2535.62 837.143 2549.93 825.109ZM2521.62 806.069 2524.66 803.51 2556.11 823.278 2557.21 824.594 2534.75 843.491 2533.65 842.176Z" fill="#C00000" fill-rule="evenodd"/><text fill="#000000" fill-opacity="0" font-family="Arial,Arial_MSFontService,sans-serif" font-size="39.9804" x="2521.62" y="838.493">∆</text><path d="M2563.74 787.76C2562.63 788.694 2562.21 790.115 2562.47 792.025 2562.73 793.934 2563.69 796.485 2565.34 799.677L2571.08 810.75C2572.97 809.045 2574.11 806.992 2574.5 804.593 2574.89 802.193 2574.6 799.636 2573.63 796.922 2572.65 794.208 2571.24 791.748 2569.38 789.542 2568.38 788.35 2567.38 787.591 2566.4 787.265 2565.41 786.938 2564.52 787.103 2563.74 787.76ZM2552.83 794.063 2555.09 794.582C2554.29 797.715 2554.12 800.769 2554.59 803.744 2555.06 806.72 2556.1 809.167 2557.71 811.085 2559.21 812.866 2560.79 813.936 2562.45 814.294 2564.1 814.653 2565.87 814.323 2567.75 813.303L2561.91 802.107C2559.98 798.396 2559.15 795.16 2559.41 792.4 2559.68 789.64 2560.76 787.459 2562.67 785.857 2564.54 784.278 2566.4 783.615 2568.22 783.867 2570.05 784.12 2571.84 785.294 2573.61 787.391 2575.81 790.007 2577.26 792.842 2577.97 795.896 2578.68 798.949 2578.54 801.926 2577.54 804.826 2576.54 807.726 2574.72 810.32 2572.08 812.609L2577.36 822.803 2574.13 825.518 2568.82 815.282C2566.03 817.138 2563.36 817.944 2560.8 817.698 2558.24 817.452 2556 816.185 2554.07 813.897 2550.25 809.349 2549.83 802.737 2552.83 794.063Z" fill="#C00000" fill-rule="evenodd"/><text fill="#000000" fill-opacity="0" font-family="Arial,Arial_MSFontService,sans-serif" font-size="41.7028" x="2550.86" y="820.305">𝜑</text><path d="M2587.33 781.056 2588.24 780.289C2588.68 780.853 2589.08 781.357 2589.43 781.799 2589.79 782.24 2590.13 782.668 2590.47 783.08 2590.81 783.493 2591.15 783.899 2591.48 784.297L2601.04 795.656C2601.3 795.964 2601.53 796.223 2601.74 796.43 2601.95 796.637 2602.14 796.799 2602.32 796.916 2602.49 797.033 2602.66 797.115 2602.83 797.161 2603 797.208 2603.16 797.229 2603.33 797.225 2603.55 797.244 2603.79 797.202 2604.04 797.099 2604.3 796.996 2604.6 796.838 2604.94 796.622 2605.29 796.407 2605.69 796.13 2606.14 795.79 2606.6 795.451 2607.13 795.03 2607.75 794.529L2608.84 795.829 2596.99 805.8 2595.9 804.5C2596.47 803.985 2596.95 803.544 2597.34 803.175 2597.72 802.807 2598.04 802.478 2598.29 802.19 2598.55 801.903 2598.74 801.658 2598.86 801.456 2598.99 801.255 2599.09 801.06 2599.15 800.871 2599.21 800.664 2599.25 800.466 2599.26 800.278 2599.27 800.089 2599.24 799.89 2599.17 799.681 2599.09 799.471 2598.98 799.237 2598.82 798.978 2598.66 798.72 2598.44 798.421 2598.16 798.082L2589.14 787.367C2588.81 786.978 2588.51 786.767 2588.22 786.733 2587.94 786.7 2587.66 786.8 2587.38 787.035 2587.07 787.295 2586.75 787.84 2586.41 788.67 2586.07 789.5 2585.68 790.635 2585.24 792.076 2584.92 791.956 2584.61 791.828 2584.3 791.691 2584 791.554 2583.69 791.416 2583.37 791.277 2584.04 789.56 2584.69 787.856 2585.34 786.165 2585.98 784.474 2586.64 782.771 2587.33 781.056Z" fill="#C00000" fill-rule="evenodd"/><text fill="#000000" fill-opacity="0" font-family="Arial,Arial_MSFontService,sans-serif" font-size="25.5115" x="2583.37" y="802.611">1</text><path d="M2713.4 873.079 2722.59 900.306 2737.01 888.412ZM2708.9 869.099 2711.96 866.569 2743.21 886.641 2744.31 887.966 2721.66 906.645 2720.57 905.32Z" fill="#C00000" fill-rule="evenodd"/><text fill="#000000" fill-opacity="0" font-family="Arial,Arial_MSFontService,sans-serif" font-size="40.0762" x="2708.9" y="901.636">∆</text><path d="M2732.03 848.311 2733.25 847.302 2747.07 874.439C2747.9 876.057 2748.59 877.204 2749.15 877.881 2749.6 878.434 2750.02 878.76 2750.41 878.86 2750.79 878.961 2751.18 878.852 2751.56 878.533 2751.98 878.191 2752.28 877.657 2752.47 876.931 2752.66 876.206 2752.79 875.013 2752.86 873.354L2755 873.54C2754.82 876.054 2754.52 877.92 2754.1 879.138 2753.68 880.357 2752.94 881.399 2751.89 882.265 2750.99 883.006 2750 883.27 2748.93 883.058 2747.85 882.847 2746.88 882.23 2746.04 881.208 2745.28 880.283 2744.37 878.784 2743.31 876.711L2733.32 857.058C2732.89 856.189 2732.52 855.509 2732.23 855.017 2731.94 854.525 2731.64 854.092 2731.34 853.719 2730.99 853.305 2730.66 853.054 2730.33 852.965 2730 852.876 2729.66 852.9 2729.29 853.037 2728.93 853.174 2728.37 853.524 2727.6 854.086L2726.96 852.804Z" fill="#C00000" fill-rule="evenodd"/><text fill="#000000" fill-opacity="0" font-family="Arial,Arial_MSFontService,sans-serif" font-size="35.8267" x="2726.96" y="878.651">𝑙</text><path d="M1844.12 1611.09C1842.48 1611.09 1840.95 1611.82 1839.53 1613.29 1838.12 1614.76 1836.99 1616.75 1836.14 1619.26 1835.28 1621.76 1834.86 1624.33 1834.86 1626.96 1834.86 1628.77 1835.13 1630.11 1835.67 1630.99 1836.2 1631.87 1837.01 1632.31 1838.08 1632.31 1839.62 1632.31 1841.21 1631.4 1842.84 1629.59 1844.47 1627.79 1845.98 1625.27 1847.37 1622.05 1847.68 1620.19 1847.83 1618.54 1847.83 1617.11 1847.83 1615.07 1847.53 1613.55 1846.93 1612.57 1846.33 1611.58 1845.4 1611.09 1844.12 1611.09ZM1844.31 1608.97C1846.32 1608.97 1847.89 1609.6 1849.03 1610.85 1850.16 1612.1 1850.79 1613.94 1850.92 1616.35L1851.16 1616.33 1854.68 1609.4 1859.33 1609.4 1859.06 1610.77C1856.84 1613.78 1854.22 1617.47 1851.21 1621.86 1850.77 1625.28 1850.54 1627.7 1850.54 1629.11 1850.54 1630.29 1850.68 1631.14 1850.95 1631.65 1851.21 1632.16 1851.66 1632.41 1852.29 1632.41 1852.79 1632.41 1853.36 1632.2 1853.99 1631.78 1854.63 1631.36 1855.31 1630.71 1856.05 1629.84L1857.61 1631.29C1856.1 1632.9 1854.8 1634 1853.69 1634.6 1852.58 1635.2 1851.43 1635.5 1850.25 1635.5 1847.87 1635.5 1846.68 1633.77 1846.68 1630.29 1846.68 1629.52 1846.73 1628.67 1846.84 1627.74L1846.57 1627.74C1844.72 1630.5 1842.98 1632.48 1841.33 1633.69 1839.68 1634.9 1837.92 1635.5 1836.04 1635.5 1834.73 1635.5 1833.63 1635.13 1832.74 1634.37 1831.84 1633.62 1831.18 1632.62 1830.75 1631.38 1830.32 1630.14 1830.11 1628.78 1830.11 1627.31 1830.11 1624.11 1830.72 1621.07 1831.93 1618.19 1833.15 1615.32 1834.84 1613.06 1837.01 1611.43 1839.17 1609.79 1841.61 1608.97 1844.31 1608.97Z" fill-rule="evenodd"/><text fill="#000000" fill-opacity="0" font-family="Arial,Arial_MSFontService,sans-serif" font-size="26.5332" x="1830.11" y="1632.19">𝛼</text><path d="M1872.1 1622.9C1871.19 1622.9 1870.42 1623.14 1869.81 1623.62 1869.2 1624.09 1868.72 1624.79 1868.36 1625.71 1868 1626.62 1867.75 1627.74 1867.6 1629.07 1867.45 1630.39 1867.37 1631.89 1867.37 1633.57 1867.37 1635.51 1867.47 1637.18 1867.65 1638.6 1867.84 1640.01 1868.14 1641.17 1868.53 1642.08 1868.93 1642.99 1869.43 1643.67 1870.03 1644.09 1870.63 1644.52 1871.34 1644.74 1872.18 1644.74 1872.96 1644.74 1873.64 1644.54 1874.23 1644.13 1874.81 1643.73 1875.3 1643.1 1875.68 1642.25 1876.07 1641.4 1876.36 1640.32 1876.55 1639.01 1876.75 1637.7 1876.84 1636.15 1876.84 1634.37 1876.84 1632.36 1876.74 1630.64 1876.52 1629.19 1876.31 1627.75 1876 1626.56 1875.61 1625.63 1875.22 1624.7 1874.73 1624.01 1874.14 1623.57 1873.55 1623.12 1872.87 1622.9 1872.1 1622.9ZM1872.18 1621.01C1873.73 1621.01 1875.05 1621.3 1876.15 1621.88 1877.25 1622.46 1878.15 1623.28 1878.85 1624.36 1879.54 1625.43 1880.05 1626.74 1880.38 1628.29 1880.7 1629.84 1880.87 1631.59 1880.87 1633.55 1880.87 1637.88 1880.1 1641.16 1878.56 1643.38 1877.03 1645.6 1874.8 1646.71 1871.88 1646.71 1868.99 1646.71 1866.84 1645.66 1865.44 1643.57 1864.03 1641.47 1863.33 1638.29 1863.33 1634.04 1863.33 1631.81 1863.55 1629.88 1863.98 1628.26 1864.42 1626.63 1865.03 1625.28 1865.82 1624.2 1866.61 1623.13 1867.54 1622.33 1868.62 1621.8 1869.7 1621.27 1870.89 1621.01 1872.18 1621.01Z" fill-rule="evenodd"/><text fill="#000000" fill-opacity="0" font-family="Arial,Arial_MSFontService,sans-serif" font-size="25.7031" x="1863.33" y="1643.5">0</text><path d="M1858.14 1544.5 1861.06 1547.13 1868.65 1554.88 1875.59 1562.98 1881.9 1571.41 1887.59 1580.16 1892.69 1589.24 1897.2 1598.63 1901.16 1608.33 1904.57 1618.33 1907.46 1628.63 1909.85 1639.23 1911.76 1650.11 1913.21 1661.27 1914.21 1672.71 1914.79 1684.39 1910.21 1684.61 1909.63 1672.98 1909.64 1673.07 1908.64 1661.72 1908.66 1661.81 1907.22 1650.75 1907.24 1650.85 1905.35 1640.07 1905.37 1640.18 1903 1629.7 1903.03 1629.81 1900.17 1619.63 1900.21 1619.75 1896.84 1609.87 1896.89 1610 1892.98 1600.42 1893.04 1600.55 1888.59 1591.29 1888.66 1591.42 1883.63 1582.47 1883.71 1582.6 1878.1 1573.97 1878.19 1574.09 1871.97 1565.79 1872.07 1565.9 1865.22 1557.93 1865.33 1558.04 1857.84 1550.39 1857.95 1550.49 1855.08 1547.91ZM1856.61 1546.21 1854.88 1562.64 1842.5 1534.5 1872.44 1541.48Z" fill="#595959"/><path d="M2812.99 798.595C2811.72 799.674 2811.11 801.273 2811.16 803.392 2811.21 805.511 2811.93 808.048 2813.32 811.005 2815.77 808.801 2817.28 806.687 2817.85 804.662 2818.42 802.638 2818.01 800.808 2816.62 799.172 2816.02 798.477 2815.41 798.085 2814.79 797.996 2814.16 797.908 2813.56 798.107 2812.99 798.595ZM2811.69 796.033C2815.86 792.481 2819.23 792.212 2821.79 795.225 2822.67 796.261 2823.24 797.351 2823.5 798.496 2823.76 799.64 2823.68 800.945 2823.25 802.41 2822.83 803.875 2821.9 805.556 2820.48 807.454 2819.05 809.353 2817.11 811.391 2814.66 813.57 2815.17 814.525 2815.79 815.432 2816.52 816.291 2817.6 817.558 2818.68 818.286 2819.75 818.474 2820.83 818.662 2821.91 818.298 2822.98 817.381 2824.18 816.36 2825.06 815.195 2825.62 813.887 2826.17 812.579 2826.58 810.748 2826.83 808.393L2830.01 808.648C2829.96 811.375 2829.45 813.789 2828.5 815.891 2827.55 817.993 2826.15 819.833 2824.3 821.411 2822.7 822.769 2821.11 823.644 2819.52 824.037 2817.92 824.43 2816.38 824.319 2814.88 823.703 2813.38 823.087 2811.98 822.016 2810.68 820.489 2810.07 819.78 2809.4 818.792 2808.65 817.526 2807.63 815.806 2806.89 814.133 2806.42 812.508 2805.86 810.494 2805.67 808.511 2805.87 806.558 2806.06 804.605 2806.65 802.731 2807.63 800.936 2808.6 799.141 2809.96 797.507 2811.69 796.033Z" fill-rule="evenodd"/><text fill="#000000" fill-opacity="0" font-family="Arial,Arial_MSFontService,sans-serif" font-size="31.1162" x="2805.79" y="820.377">𝒆</text><path d="M2838.51 797.31C2839.05 796.846 2839.6 796.585 2840.15 796.527 2840.7 796.47 2841.28 796.572 2841.9 796.834 2842.51 797.096 2843.18 797.498 2843.9 798.041 2844.62 798.583 2845.43 799.214 2846.33 799.933L2846.52 799.768C2846.45 798.479 2846.39 797.361 2846.34 796.414 2846.28 795.468 2846.26 794.651 2846.26 793.963 2846.27 793.275 2846.3 792.691 2846.36 792.211 2846.42 791.731 2846.53 791.315 2846.67 790.961 2846.81 790.608 2847 790.291 2847.23 790.009 2847.46 789.727 2847.75 789.443 2848.08 789.156 2848.58 788.734 2849.11 788.439 2849.66 788.271L2851.41 791.834 2850.18 792.885C2849.79 792.484 2849.45 792.406 2849.16 792.651 2849.05 792.744 2848.95 792.865 2848.85 793.014 2848.76 793.164 2848.67 793.374 2848.6 793.645 2848.52 793.915 2848.45 794.257 2848.4 794.668 2848.35 795.08 2848.31 795.592 2848.29 796.204 2848.26 796.816 2848.25 797.543 2848.27 798.385 2848.29 799.226 2848.32 800.208 2848.37 801.33 2849.8 802.47 2850.96 803.369 2851.86 804.027 2852.75 804.686 2853.47 805.157 2854.02 805.441 2854.57 805.726 2854.99 805.859 2855.29 805.841 2855.58 805.823 2855.84 805.716 2856.07 805.522 2856.23 805.379 2856.37 805.226 2856.48 805.064 2856.59 804.902 2856.67 804.689 2856.71 804.424 2856.75 804.159 2856.75 803.82 2856.73 803.407 2856.7 802.994 2856.64 802.469 2856.54 801.833L2858.28 801.613C2858.4 802.638 2858.47 803.503 2858.49 804.206 2858.5 804.91 2858.45 805.515 2858.34 806.023 2858.22 806.532 2858.03 806.971 2857.77 807.342 2857.5 807.714 2857.15 808.085 2856.72 808.456 2856.34 808.777 2855.96 809.012 2855.57 809.161 2855.19 809.31 2854.77 809.339 2854.31 809.247 2854.02 809.205 2853.69 809.098 2853.32 808.925 2852.95 808.752 2852.57 808.549 2852.18 808.314 2851.8 808.08 2851.41 807.825 2851.02 807.549 2850.63 807.273 2850.28 807.006 2849.95 806.75 2849.63 806.493 2849.35 806.258 2849.11 806.045 2848.87 805.831 2848.69 805.669 2848.58 805.559L2848.42 805.698C2848.5 806.998 2848.57 808.13 2848.63 809.096 2848.69 810.061 2848.72 810.907 2848.72 811.632 2848.73 812.357 2848.7 812.978 2848.64 813.496 2848.59 814.013 2848.49 814.469 2848.35 814.864 2848.2 815.259 2848.01 815.611 2847.77 815.92 2847.53 816.228 2847.23 816.534 2846.87 816.838 2846.36 817.277 2845.84 817.563 2845.32 817.697L2843.54 814.215 2844.8 813.139C2845.2 813.55 2845.55 813.629 2845.85 813.375 2845.95 813.273 2846.04 813.162 2846.12 813.044 2846.2 812.925 2846.26 812.76 2846.32 812.547 2846.38 812.335 2846.43 812.037 2846.47 811.652 2846.51 811.267 2846.54 810.755 2846.56 810.114 2846.58 809.474 2846.59 808.678 2846.61 807.728 2846.62 806.777 2846.61 805.618 2846.59 804.249 2845.71 803.568 2844.93 802.978 2844.28 802.477 2843.62 801.976 2843.05 801.554 2842.56 801.21 2842.07 800.865 2841.65 800.601 2841.3 800.416 2840.96 800.232 2840.66 800.106 2840.41 800.039 2840.15 799.973 2839.93 799.962 2839.74 800.006 2839.54 800.051 2839.35 800.144 2839.17 800.286 2839 800.43 2838.87 800.59 2838.77 800.767 2838.67 800.944 2838.6 801.167 2838.57 801.437 2838.53 801.706 2838.53 802.043 2838.56 802.447 2838.58 802.851 2838.65 803.353 2838.75 803.952L2836.97 804.183C2836.86 803.232 2836.79 802.41 2836.77 801.715 2836.74 801.02 2836.78 800.413 2836.89 799.895 2836.99 799.377 2837.17 798.914 2837.43 798.505 2837.69 798.096 2838.05 797.698 2838.51 797.31Z" fill-rule="evenodd"/><text fill="#000000" fill-opacity="0" font-family="Arial,Arial_MSFontService,sans-serif" font-size="29.4259" x="2836.76" y="814.019">𝑥</text><path d="M1473.94 1352.16C1472.59 1353.14 1471.86 1354.68 1471.74 1356.8 1471.63 1358.92 1472.15 1361.5 1473.3 1364.56 1475.91 1362.55 1477.58 1360.56 1478.31 1358.59 1479.04 1356.62 1478.77 1354.76 1477.51 1353.02 1476.97 1352.28 1476.4 1351.84 1475.78 1351.71 1475.16 1351.57 1474.55 1351.72 1473.94 1352.16ZM1472.84 1349.5C1477.28 1346.29 1480.66 1346.29 1482.98 1349.49 1483.78 1350.59 1484.26 1351.73 1484.43 1352.89 1484.59 1354.05 1484.41 1355.34 1483.87 1356.77 1483.34 1358.2 1482.28 1359.8 1480.71 1361.58 1479.13 1363.36 1477.04 1365.24 1474.43 1367.22 1474.86 1368.21 1475.41 1369.17 1476.07 1370.08 1477.05 1371.43 1478.06 1372.24 1479.12 1372.51 1480.18 1372.78 1481.28 1372.5 1482.43 1371.67 1483.71 1370.75 1484.67 1369.66 1485.33 1368.4 1485.99 1367.14 1486.53 1365.34 1486.97 1363.02L1490.12 1363.52C1489.85 1366.23 1489.16 1368.6 1488.05 1370.62 1486.94 1372.64 1485.4 1374.37 1483.42 1375.79 1481.73 1377.02 1480.07 1377.77 1478.45 1378.04 1476.83 1378.3 1475.3 1378.07 1473.85 1377.34 1472.4 1376.61 1471.09 1375.43 1469.91 1373.81 1469.37 1373.05 1468.77 1372.01 1468.12 1370.69 1467.24 1368.9 1466.64 1367.17 1466.3 1365.52 1465.9 1363.46 1465.87 1361.47 1466.22 1359.54 1466.56 1357.61 1467.29 1355.79 1468.41 1354.07 1469.52 1352.36 1471 1350.84 1472.84 1349.5Z" fill-rule="evenodd"/><text fill="#000000" fill-opacity="0" font-family="Arial,Arial_MSFontService,sans-serif" font-size="31.0522" x="1465.97" y="1374.26">𝒆</text><path d="M1498.64 1353.49C1499.02 1353.21 1499.38 1353.02 1499.71 1352.9 1500.04 1352.78 1500.38 1352.72 1500.72 1352.73 1501.06 1352.74 1501.42 1352.82 1501.79 1352.96 1502.16 1353.1 1502.57 1353.3 1503.02 1353.55 1503.29 1353.71 1503.63 1353.97 1504.04 1354.33 1504.46 1354.68 1504.94 1355.1 1505.46 1355.59 1505.99 1356.07 1506.56 1356.62 1507.18 1357.22 1507.79 1357.82 1508.42 1358.45 1509.08 1359.12 1509.74 1359.78 1510.41 1360.47 1511.08 1361.18 1511.76 1361.89 1512.41 1362.59 1513.06 1363.28 1513.1 1361.67 1513.06 1360.11 1512.92 1358.59 1512.79 1357.08 1512.6 1355.69 1512.35 1354.43 1512.1 1353.16 1511.82 1352.06 1511.49 1351.12 1511.16 1350.18 1510.82 1349.48 1510.47 1349.02 1510.14 1348.56 1509.78 1348.31 1509.39 1348.29 1509 1348.26 1508.51 1348.44 1507.92 1348.82L1507.39 1347.66 1511.9 1344.39 1513.12 1344.91C1513.95 1348.28 1514.54 1351.68 1514.88 1355.12 1515.23 1358.56 1515.34 1362.06 1515.22 1365.63 1515.11 1367.1 1514.99 1368.39 1514.85 1369.5 1514.72 1370.62 1514.56 1371.6 1514.39 1372.46 1514.21 1373.32 1514.01 1374.06 1513.79 1374.69 1513.56 1375.32 1513.3 1375.88 1513.01 1376.37 1512.73 1376.86 1512.4 1377.3 1512.04 1377.68 1511.68 1378.06 1511.28 1378.42 1510.85 1378.77 1510.6 1378.95 1510.29 1379.13 1509.91 1379.33 1509.53 1379.52 1509.18 1379.68 1508.85 1379.78L1507.13 1375.74 1508.57 1374.7 1508.64 1374.8C1509.16 1375.51 1509.71 1375.66 1510.29 1375.24 1511.06 1374.69 1511.63 1373.82 1511.99 1372.65 1512.35 1371.49 1512.61 1369.84 1512.78 1367.73 1510.98 1365.97 1509.42 1364.46 1508.1 1363.19 1506.78 1361.92 1505.64 1360.85 1504.68 1359.98 1503.72 1359.11 1502.91 1358.42 1502.27 1357.9 1501.62 1357.39 1501.09 1357.01 1500.66 1356.78 1500.23 1356.54 1499.88 1356.42 1499.61 1356.41 1499.34 1356.41 1499.11 1356.48 1498.91 1356.62 1498.72 1356.76 1498.56 1356.91 1498.44 1357.07 1498.31 1357.23 1498.22 1357.45 1498.16 1357.72 1498.1 1357.99 1498.07 1358.33 1498.07 1358.74 1498.06 1359.15 1498.08 1359.68 1498.11 1360.31L1496.32 1360.4C1496.29 1359.41 1496.3 1358.56 1496.36 1357.84 1496.42 1357.12 1496.55 1356.5 1496.73 1355.97 1496.92 1355.44 1497.17 1354.98 1497.48 1354.58 1497.79 1354.19 1498.18 1353.83 1498.64 1353.49Z" fill-rule="evenodd"/><text fill="#000000" fill-opacity="0" font-family="Arial,Arial_MSFontService,sans-serif" font-size="35.3873" x="1496.3" y="1375.36">𝑦</text></g></svg>