<svg width="2122" height="1338" xmlns="http://www.w3.org/2000/svg" xmlns:xlink="http://www.w3.org/1999/xlink" xml:space="preserve" overflow="hidden"><g transform="translate(-944 -276)"><path d="M1214.5 1337.92 1611.05 1337.92 1611.05 1347.08 1214.5 1347.08ZM1585.86 1322.5 1620.15 1342.5 1585.86 1362.5C1583.67 1363.78 1580.87 1363.04 1579.59 1360.85 1578.32 1358.66 1579.05 1355.86 1581.24 1354.58L1608.74 1338.54 1608.74 1346.46 1581.24 1330.42C1579.05 1329.14 1578.32 1326.34 1579.59 1324.15 1580.87 1321.96 1583.67 1321.22 1585.86 1322.5Z"/><path d="M4.58333-4.14819e-06 4.58369 389.675-4.58298 389.675-4.58333 4.14819e-06ZM20.001 364.484 0.00036178 398.771-20.0003 364.484C-21.2758 362.298-20.5372 359.491-18.3507 358.216-16.1643 356.941-13.3578 357.679-12.0824 359.866L3.95934 387.366-3.95864 387.366 12.083 359.866C13.3585 357.679 16.1649 356.941 18.3514 358.216 20.5379 359.491 21.2764 362.298 20.001 364.484Z" transform="matrix(1 0 0 -1 1214.5 1342.25)"/><path d="M3.24091-3.24091 227.137 220.655 220.655 227.137-3.24091 3.24091ZM220.226 191.94 230.328 230.328 191.94 220.226C189.493 219.581 188.03 217.075 188.674 214.627 189.319 212.179 191.825 210.717 194.273 211.361L225.062 219.463 219.463 225.062 211.361 194.273C210.717 191.825 212.179 189.319 214.627 188.674 217.075 188.03 219.581 189.493 220.226 191.94Z" transform="matrix(-1 0 0 1 1214.81 1342.5)"/><path d="M1526.54 1401.92C1527.47 1401.92 1528.28 1402.03 1528.99 1402.24 1529.69 1402.45 1530.31 1402.77 1530.85 1403.2 1531.39 1403.64 1531.87 1404.2 1532.29 1404.89 1532.71 1405.58 1533.11 1406.51 1533.5 1407.7 1533.89 1408.88 1534.26 1410.35 1534.6 1412.1 1534.94 1413.85 1535.25 1415.67 1535.52 1417.56L1535.97 1417.56C1538.85 1413.51 1541.02 1410.56 1542.51 1408.68 1543.99 1406.81 1545.24 1405.42 1546.26 1404.51 1547.28 1403.59 1548.26 1402.95 1549.2 1402.57 1550.14 1402.2 1551.39 1402.01 1552.95 1402.01 1554.36 1402.01 1555.51 1402.19 1556.41 1402.55L1554.61 1410.68 1551.47 1410.68C1551.29 1409.42 1550.77 1408.8 1549.9 1408.8 1549.63 1408.8 1549.34 1408.84 1549.04 1408.93 1548.74 1409.02 1548.38 1409.22 1547.94 1409.51 1547.51 1409.81 1546.87 1410.4 1546.03 1411.27 1545.19 1412.14 1544.25 1413.2 1543.2 1414.46 1542.15 1415.71 1541.08 1417.03 1539.97 1418.41L1536.91 1422.23C1537.45 1425.1 1537.96 1427.59 1538.44 1429.68 1538.92 1431.78 1539.35 1433.53 1539.72 1434.92 1540.1 1436.31 1540.43 1437.41 1540.71 1438.22 1540.99 1439.03 1541.3 1439.63 1541.63 1440.04 1541.96 1440.44 1542.3 1440.73 1542.64 1440.89 1542.99 1441.06 1543.38 1441.14 1543.83 1441.14 1544.64 1441.14 1545.43 1440.83 1546.19 1440.2 1546.95 1439.57 1548.05 1438.14 1549.49 1435.93L1552.41 1437.86C1550.32 1440.97 1548.42 1443.17 1546.73 1444.44 1545.04 1445.71 1543.02 1446.35 1540.69 1446.35 1539.4 1446.35 1538.31 1446.12 1537.41 1445.65 1536.51 1445.19 1535.73 1444.45 1535.07 1443.43 1534.41 1442.41 1533.83 1440.83 1533.32 1438.67 1532.39 1434.84 1531.82 1431.9 1531.61 1429.86L1531.16 1429.86C1527.99 1434.33 1525.63 1437.53 1524.09 1439.48 1522.55 1441.42 1521.27 1442.86 1520.27 1443.79 1519.27 1444.72 1518.29 1445.37 1517.35 1445.74 1516.41 1446.12 1515.16 1446.31 1513.6 1446.31 1512.19 1446.31 1511.04 1446.13 1510.14 1445.77L1511.94 1437.64 1515.08 1437.64C1515.26 1438.89 1515.79 1439.52 1516.65 1439.52 1517.07 1439.52 1517.52 1439.41 1517.98 1439.19 1518.44 1438.96 1519.11 1438.42 1519.98 1437.57 1520.85 1436.71 1522.04 1435.37 1523.57 1433.55 1525.1 1431.72 1527.32 1428.98 1530.22 1425.33 1529.77 1422.96 1529.31 1420.69 1528.83 1418.5 1528.35 1416.31 1527.85 1414.28 1527.35 1412.39 1526.84 1410.5 1526.42 1409.27 1526.09 1408.68 1525.76 1408.1 1525.41 1407.7 1525.03 1407.47 1524.66 1407.25 1524.19 1407.13 1523.62 1407.13 1522.99 1407.13 1522.42 1407.28 1521.91 1407.56 1521.4 1407.85 1520.85 1408.34 1520.25 1409.04 1519.65 1409.75 1518.86 1410.85 1517.87 1412.34L1514.95 1410.41C1516.83 1407.57 1518.65 1405.44 1520.38 1404.03 1522.12 1402.63 1524.17 1401.92 1526.54 1401.92Z" fill-rule="evenodd"/><text fill="#000000" fill-opacity="0" font-family="Arial,Arial_MSFontService,sans-serif" font-size="44.4277" x="1510.14" y="1440.8">𝑥</text><path d="M1099.82 1016.81C1101.05 1016.81 1102.09 1016.98 1102.96 1017.31 1103.56 1017.55 1104.16 1017.94 1104.76 1018.5 1105.36 1019.05 1105.89 1019.82 1106.35 1020.81 1106.82 1021.8 1107.22 1022.91 1107.57 1024.14 1107.91 1025.36 1108.29 1027.13 1108.71 1029.44 1109.43 1033.3 1110.13 1037.36 1110.8 1041.63 1111.48 1045.9 1112.05 1049.86 1112.53 1053.51 1115.44 1049.32 1117.9 1045.22 1119.92 1041.21 1121.94 1037.19 1123.39 1033.7 1124.28 1030.74 1125.16 1027.77 1125.6 1025.36 1125.6 1023.51 1125.6 1022.1 1125.3 1021.14 1124.7 1020.63 1124.11 1020.12 1123.09 1019.82 1121.65 1019.73L1122.1 1017.53 1133.91 1017.53 1135.13 1019.78C1132.85 1026.01 1129.77 1032.67 1125.87 1039.77 1122.04 1046.72 1117.65 1053.63 1112.71 1060.52 1107.98 1067.08 1104.04 1071.83 1100.9 1074.76 1098.71 1076.77 1096.6 1078.21 1094.56 1079.07 1092.95 1079.73 1091.22 1080.06 1089.4 1080.06 1088.77 1080.06 1088.04 1080.01 1087.22 1079.91 1086.39 1079.8 1085.76 1079.66 1085.31 1079.48L1087.24 1070.76 1090.79 1070.76C1090.79 1072.68 1091.45 1073.64 1092.77 1073.64 1094.5 1073.64 1096.52 1072.55 1098.83 1070.38 1101.14 1068.21 1103.85 1064.94 1106.96 1060.57 1106.09 1055.33 1104.91 1049.01 1103.41 1041.61 1101.82 1033.7 1100.78 1028.81 1100.27 1026.92 1099.64 1024.64 1098.98 1023.19 1098.29 1022.56 1097.87 1022.17 1097.35 1021.98 1096.72 1021.98 1095.76 1021.98 1094.86 1022.37 1094.02 1023.15 1093.18 1023.93 1092.15 1025.27 1090.92 1027.19L1088 1025.26C1090.07 1022.17 1092 1019.99 1093.8 1018.72 1095.6 1017.45 1097.6 1016.81 1099.82 1016.81Z" fill-rule="evenodd"/><text fill="#000000" fill-opacity="0" font-family="Arial,Arial_MSFontService,sans-serif" font-size="63.25" x="1085.31" y="1072.16">𝑦</text><path d="M999.002 1402.69 1030.94 1402.69 1031.79 1404.93 1010.37 1429.55C1006.2 1434.31 1002.6 1438.35 999.541 1441.68L999.81 1441.99 1009.96 1441.99C1011.76 1441.99 1013.14 1441.9 1014.1 1441.7 1015.05 1441.51 1015.89 1441.14 1016.61 1440.6 1017.33 1440.06 1018.07 1439.25 1018.83 1438.15 1019.6 1437.06 1020.55 1435.34 1021.69 1433.01L1025.69 1433.01 1022.95 1445.63 990.422 1445.63 989.568 1443.43 1014.14 1415.13C1017.61 1411.15 1020.16 1408.32 1021.78 1406.64L1021.51 1406.33 1011 1406.33C1009.44 1406.33 1008.3 1406.43 1007.58 1406.64 1006.86 1406.85 1006.14 1407.22 1005.43 1407.74 1004.71 1408.26 1003.94 1409.04 1003.11 1410.08 1002.29 1411.11 1001.37 1412.58 1000.35 1414.5L996.351 1414.5Z" fill-rule="evenodd"/><text fill="#000000" fill-opacity="0" font-family="Arial,Arial_MSFontService,sans-serif" font-size="42.9453" x="989.568" y="1440.26">𝑧</text><path d="M2809.3 687.962C2811.54 687.962 2813.33 688.59 2814.67 689.846 2816.01 691.103 2816.68 692.758 2816.68 694.811 2816.68 695.541 2816.53 696.459 2816.23 697.567L2816.56 697.688C2818.83 694.5 2821.2 692.082 2823.69 690.434 2826.17 688.786 2828.93 687.962 2831.96 687.962 2833.74 687.962 2835.63 688.219 2837.63 688.732L2835.24 699.634 2827.98 699.634C2827.98 697.824 2827.79 696.567 2827.4 695.865 2827.01 695.162 2826.34 694.811 2825.39 694.811 2824.66 694.811 2823.86 695.068 2823 695.581 2822.14 696.094 2821.1 697.094 2819.9 698.58 2818.7 700.066 2817.79 701.485 2817.18 702.835 2816.58 704.186 2816.04 705.916 2815.58 708.023L2811 728.813 2799.37 728.813 2805.9 700.647C2806.3 698.891 2806.51 697.553 2806.51 696.635 2806.51 695.743 2806.36 695.054 2806.06 694.568 2805.76 694.082 2805.25 693.838 2804.52 693.838 2803.68 693.838 2802.78 694.217 2801.8 694.973 2800.83 695.73 2799.7 696.851 2798.4 698.337L2795.48 695.419C2798.18 692.663 2800.58 690.731 2802.68 689.624 2804.77 688.516 2806.98 687.962 2809.3 687.962Z" fill-rule="evenodd"/><text fill="#000000" fill-opacity="0" font-family="Arial,Arial_MSFontService,sans-serif" font-size="40.8516" x="2795.48" y="723.707">𝒓</text><path d="M2870.48 670.251 2871.57 673.372C2865.25 675.452 2860.57 679.512 2857.53 685.551 2854.49 691.589 2852.97 699.174 2852.97 708.307 2852.97 717.763 2854.49 725.558 2857.53 731.691 2860.57 737.824 2865.21 741.931 2871.45 744.011L2870.48 747.132C2862.56 745.051 2856.5 740.573 2852.28 733.697 2848.07 726.821 2845.96 718.492 2845.96 708.712 2845.96 698.958 2848.07 690.63 2852.3 683.727 2856.53 676.824 2862.59 672.332 2870.48 670.251Z" fill-rule="evenodd"/><text fill="#000000" fill-opacity="0" font-family="Arial,Arial_MSFontService,sans-serif" font-size="76.8804" x="2845.96" y="737.522">(</text><path d="M2895.65 689.421C2898.17 689.421 2900.46 689.57 2902.52 689.867 2904.59 690.164 2906.65 690.677 2908.7 691.407L2906.88 699.917 2903.6 699.917C2903.3 697.513 2902.51 695.689 2901.23 694.446 2899.94 693.203 2897.92 692.582 2895.17 692.582 2893.03 692.582 2891.3 693.129 2889.98 694.223 2888.66 695.318 2887.99 696.756 2887.99 698.54 2887.99 699.512 2888.16 700.37 2888.5 701.113 2888.84 701.856 2889.52 702.673 2890.55 703.565 2891.57 704.457 2893.17 705.551 2895.33 706.848 2897.03 707.874 2898.4 708.813 2899.42 709.664 2900.45 710.515 2901.26 711.36 2901.85 712.197 2902.45 713.035 2902.88 713.92 2903.15 714.852 2903.42 715.784 2903.56 716.912 2903.56 718.236 2903.56 720.64 2902.91 722.701 2901.63 724.416 2900.35 726.132 2898.61 727.409 2896.4 728.246 2894.2 729.084 2891.7 729.502 2888.89 729.502 2886.64 729.502 2884.44 729.334 2882.28 728.996 2880.12 728.658 2877.71 728.084 2875.07 727.273L2877.01 718.438 2880.17 718.438C2880.28 721.032 2881.01 722.991 2882.36 724.315 2883.71 725.639 2885.86 726.301 2888.8 726.301 2891.37 726.301 2893.38 725.727 2894.82 724.578 2896.27 723.43 2896.99 721.802 2896.99 719.695 2896.99 718.479 2896.79 717.432 2896.38 716.554 2895.98 715.676 2895.32 714.832 2894.4 714.021 2893.48 713.21 2892.02 712.197 2890.02 710.981 2887.91 709.712 2886.27 708.563 2885.1 707.537 2883.92 706.51 2883.04 705.395 2882.44 704.193 2881.85 702.991 2881.55 701.606 2881.55 700.039 2881.55 697.905 2882.12 696.034 2883.27 694.426 2884.42 692.818 2886.06 691.582 2888.2 690.718 2890.33 689.853 2892.82 689.421 2895.65 689.421Z" fill-rule="evenodd"/><text fill="#000000" fill-opacity="0" font-family="Arial,Arial_MSFontService,sans-serif" font-size="40.0815" x="2875.07" y="724.492">𝑠</text><path d="M2915.75 670.251C2923.64 672.332 2929.7 676.824 2933.93 683.727 2938.16 690.63 2940.27 698.958 2940.27 708.712 2940.27 718.492 2938.17 726.821 2933.95 733.697 2929.74 740.573 2923.67 745.051 2915.75 747.132L2914.78 744.011C2921.02 741.931 2925.66 737.824 2928.7 731.691 2931.74 725.558 2933.26 717.763 2933.26 708.307 2933.26 699.174 2931.75 691.589 2928.72 685.551 2925.7 679.512 2921.01 675.452 2914.66 673.372Z" fill-rule="evenodd"/><text fill="#000000" fill-opacity="0" font-family="Arial,Arial_MSFontService,sans-serif" font-size="76.8804" x="2914.66" y="737.522">)</text><path d="M0 381.744 395.703 0 826.214 11.0108 458.156 384.487 0 381.744Z" stroke="#000000" stroke-width="4.58333" stroke-miterlimit="8" fill="#EDEDED" fill-rule="evenodd" transform="matrix(0.0707332 -0.997495 -0.997495 -0.0707332 2070.35 1155.2)"/><path d="M1903.51 747.221 2314.83 789.767 2313.88 798.885 1902.57 756.339ZM2291.36 771.84 2323.41 795.262 2287.24 811.629C2284.94 812.673 2282.22 811.649 2281.18 809.343 2280.14 807.037 2281.16 804.321 2283.46 803.278L2312.47 790.151 2311.65 798.026 2285.95 779.241C2283.91 777.747 2283.46 774.879 2284.96 772.836 2286.45 770.792 2289.32 770.346 2291.36 771.84Z" fill="#404040"/><path d="M2154.87 834.748 2164.58 835.436 2161.51 845.376 2171.34 846.073 2169.89 851.049 2159.98 850.347 2154.92 866.239C2154.04 868.967 2153.43 871.043 2153.07 872.467 2152.71 873.89 2152.5 875.101 2152.43 876.098 2152.34 877.365 2152.5 878.304 2152.92 878.916 2153.34 879.528 2153.99 879.865 2154.88 879.928 2156.09 880.014 2157.37 879.671 2158.71 878.9 2160.05 878.128 2161.53 876.892 2163.14 875.192L2166.02 878.606C2163.09 881.404 2160.44 883.309 2158.08 884.32 2155.72 885.331 2152.99 885.726 2149.89 885.507 2146.82 885.289 2144.52 884.333 2142.99 882.64 2141.45 880.947 2140.79 878.712 2140.98 875.936 2141.07 874.67 2141.25 873.47 2141.52 872.338 2141.79 871.206 2142.32 869.354 2143.09 866.782L2148.5 849.532 2142.2 849.085 2143.2 845.865C2145.08 845.999 2146.52 845.925 2147.52 845.644 2148.51 845.362 2149.37 844.894 2150.08 844.24 2150.79 843.586 2151.5 842.567 2152.22 841.183 2152.94 839.798 2153.83 837.654 2154.87 834.748Z" fill-rule="evenodd"/><text fill="#000000" fill-opacity="0" font-family="Arial,Arial_MSFontService,sans-serif" font-size="50.8171" x="2140.95" y="879.213">𝒕</text><path d="M2205.15 830.065 2206.02 833.256C2199.56 834.884 2194.61 838.602 2191.15 844.41 2187.69 850.219 2185.64 857.678 2184.99 866.787 2184.32 876.22 2185.29 884.102 2187.88 890.435 2190.48 896.768 2194.82 901.193 2200.9 903.709L2199.71 906.753C2191.96 904.118 2186.23 899.222 2182.51 892.065 2178.79 884.908 2177.28 876.451 2177.97 866.695 2178.66 856.966 2181.36 848.808 2186.06 842.221 2190.77 835.635 2197.13 831.583 2205.15 830.065Z" fill-rule="evenodd"/><text fill="#000000" fill-opacity="0" font-family="Arial,Arial_MSFontService,sans-serif" font-size="76.6878" x="2177.81" y="897.167">(</text><path d="M2228.9 850.968C2231.41 851.145 2233.68 851.456 2235.72 851.898 2237.76 852.341 2239.78 852.999 2241.78 853.872L2239.36 862.232 2236.08 862C2235.96 859.58 2235.3 857.705 2234.11 856.375 2232.91 855.044 2230.94 854.281 2228.19 854.086 2226.06 853.935 2224.3 854.359 2222.9 855.357 2221.51 856.355 2220.74 857.743 2220.62 859.522 2220.55 860.492 2220.66 861.359 2220.94 862.125 2221.22 862.89 2221.85 863.753 2222.81 864.715 2223.77 865.677 2225.28 866.881 2227.35 868.328 2228.97 869.472 2230.27 870.505 2231.23 871.427 2232.19 872.349 2232.94 873.248 2233.48 874.126 2234.01 875.003 2234.38 875.916 2234.58 876.865 2234.79 877.814 2234.84 878.949 2234.75 880.269 2234.58 882.668 2233.79 884.678 2232.39 886.298 2230.99 887.919 2229.16 889.069 2226.9 889.749 2224.65 890.428 2222.12 890.669 2219.32 890.47 2217.08 890.311 2214.9 889.987 2212.76 889.497 2210.63 889.008 2208.27 888.265 2205.69 887.269L2208.25 878.594 2211.41 878.818C2211.33 881.412 2211.92 883.418 2213.17 884.834 2214.43 886.25 2216.52 887.062 2219.46 887.271 2222.02 887.452 2224.06 887.021 2225.59 885.978 2227.11 884.935 2227.95 883.362 2228.1 881.26 2228.18 880.048 2228.05 878.989 2227.71 878.084 2227.37 877.18 2226.77 876.291 2225.91 875.417 2225.05 874.544 2223.67 873.43 2221.76 872.076 2219.75 870.66 2218.19 869.398 2217.09 868.291 2215.99 867.184 2215.19 866.01 2214.68 864.768 2214.17 863.527 2213.97 862.125 2214.08 860.562 2214.23 858.433 2214.94 856.607 2216.2 855.084 2217.46 853.562 2219.18 852.445 2221.37 851.734 2223.56 851.022 2226.07 850.767 2228.9 850.968Z" fill-rule="evenodd"/><text fill="#000000" fill-opacity="0" font-family="Arial,Arial_MSFontService,sans-serif" font-size="39.6361" x="2205.69" y="885.583">𝑠</text><path d="M2250.31 833.268C2258.03 835.901 2263.76 840.81 2267.49 847.995 2271.22 855.18 2272.74 863.637 2272.05 873.367 2271.35 883.123 2268.66 891.281 2263.97 897.842 2259.28 904.403 2252.92 908.441 2244.87 909.956L2244.12 906.774C2250.49 905.141 2255.41 901.372 2258.88 895.47 2262.35 889.567 2264.41 881.899 2265.08 872.466 2265.73 863.357 2264.75 855.684 2262.16 849.446 2259.57 843.209 2255.18 838.828 2249 836.303Z" fill-rule="evenodd"/><text fill="#000000" fill-opacity="0" font-family="Arial,Arial_MSFontService,sans-serif" font-size="76.6878" x="2244.12" y="900.37">)</text><path d="M1754.51 376.92C1756.75 377.079 1758.49 377.832 1759.74 379.18 1760.98 380.527 1761.53 382.225 1761.39 384.274 1761.34 384.947 1761.21 385.588 1761.01 386.197L1761.39 386.549C1764.14 383.575 1766.71 381.442 1769.09 380.148 1771.47 378.854 1774.19 378.315 1777.23 378.531 1780.01 378.728 1782.13 379.664 1783.59 381.339 1785.06 383.014 1785.7 385.199 1785.51 387.894 1785.44 388.756 1785.28 389.828 1785.01 391.109 1784.75 392.39 1784.46 393.521 1784.14 394.501L1780.06 406.887C1779.47 408.66 1779.13 410.221 1779.03 411.568 1778.96 412.619 1779.08 413.359 1779.4 413.789 1779.73 414.218 1780.21 414.455 1780.86 414.501 1781.64 414.556 1782.54 414.248 1783.56 413.576 1784.59 412.903 1785.81 411.859 1787.24 410.444L1789.94 413.561C1787.11 416.069 1784.61 417.814 1782.44 418.798 1780.27 419.782 1777.93 420.185 1775.43 420.007 1772.57 419.805 1770.53 418.949 1769.31 417.441 1768.09 415.932 1767.58 413.803 1767.77 411.054 1767.91 409.087 1768.48 406.595 1769.48 403.578L1771.74 396.993C1772.32 395.301 1772.83 393.624 1773.27 391.963 1773.72 390.301 1773.98 388.931 1774.05 387.853 1774.14 386.641 1773.95 385.72 1773.48 385.09 1773.01 384.461 1772.3 384.113 1771.36 384.046 1770.04 383.952 1768.47 384.627 1766.66 386.07 1764.85 387.513 1763.37 389.067 1762.23 390.732 1761.08 392.398 1760.11 394.611 1759.32 397.372L1753.32 417.79 1741.72 416.967 1750.22 389.332C1750.75 387.609 1751.04 386.29 1751.11 385.373 1751.17 384.484 1751.07 383.786 1750.81 383.28 1750.55 382.774 1750.05 382.495 1749.33 382.443 1748.49 382.384 1747.56 382.697 1746.54 383.383 1745.51 384.069 1744.3 385.107 1742.9 386.498L1740.2 383.381C1743.09 380.823 1745.62 379.066 1747.79 378.109 1749.95 377.152 1752.19 376.756 1754.51 376.92Z" fill-rule="evenodd"/><text fill="#000000" fill-opacity="0" font-family="Arial,Arial_MSFontService,sans-serif" font-size="43.1643" x="1740.2" y="414.653">𝒏</text><path d="M1825.89 364.227 1826.76 367.417C1820.31 369.045 1815.35 372.763 1811.89 378.571 1808.43 384.38 1806.38 391.839 1805.74 400.948 1805.07 410.381 1806.03 418.263 1808.63 424.596 1811.23 430.929 1815.57 435.354 1821.64 437.87L1820.45 440.914C1812.7 438.279 1806.97 433.383 1803.25 426.226 1799.53 419.069 1798.02 410.612 1798.71 400.856 1799.4 391.127 1802.1 382.969 1806.81 376.382 1811.51 369.796 1817.88 365.744 1825.89 364.227Z" fill-rule="evenodd"/><text fill="#000000" fill-opacity="0" font-family="Arial,Arial_MSFontService,sans-serif" font-size="76.6878" x="1798.55" y="431.328">(</text><path d="M1849.65 385.129C1852.15 385.306 1854.43 385.617 1856.47 386.059 1858.51 386.502 1860.53 387.16 1862.52 388.033L1860.1 396.393 1856.83 396.161C1856.7 393.741 1856.04 391.866 1854.85 390.536 1853.66 389.205 1851.69 388.442 1848.94 388.248 1846.81 388.097 1845.05 388.52 1843.65 389.518 1842.25 390.516 1841.49 391.904 1841.36 393.683 1841.29 394.653 1841.4 395.521 1841.69 396.286 1841.97 397.051 1842.59 397.914 1843.55 398.876 1844.51 399.838 1846.03 401.042 1848.09 402.489 1849.72 403.633 1851.01 404.666 1851.98 405.588 1852.94 406.51 1853.69 407.409 1854.22 408.287 1854.76 409.164 1855.12 410.077 1855.33 411.026 1855.53 411.975 1855.59 413.11 1855.49 414.43 1855.32 416.829 1854.54 418.839 1853.14 420.459 1851.73 422.08 1849.91 423.23 1847.65 423.91 1845.39 424.589 1842.86 424.83 1840.06 424.631 1837.82 424.473 1835.64 424.148 1833.51 423.659 1831.38 423.169 1829.02 422.426 1826.43 421.43L1829 412.755 1832.15 412.979C1832.08 415.573 1832.67 417.579 1833.92 418.995 1835.17 420.411 1837.27 421.223 1840.21 421.432 1842.77 421.613 1844.81 421.183 1846.33 420.139 1847.86 419.096 1848.69 417.524 1848.84 415.421 1848.93 414.209 1848.8 413.15 1848.46 412.245 1848.11 411.341 1847.51 410.452 1846.65 409.578 1845.8 408.705 1844.41 407.591 1842.5 406.237 1840.49 404.821 1838.94 403.56 1837.84 402.452 1836.74 401.345 1835.93 400.171 1835.42 398.929 1834.92 397.688 1834.72 396.286 1834.83 394.723 1834.98 392.594 1835.68 390.768 1836.94 389.246 1838.2 387.723 1839.93 386.606 1842.12 385.895 1844.31 385.183 1846.82 384.928 1849.65 385.129Z" fill-rule="evenodd"/><text fill="#000000" fill-opacity="0" font-family="Arial,Arial_MSFontService,sans-serif" font-size="39.6361" x="1826.43" y="419.744">𝑠</text><path d="M1871.05 367.429C1878.78 370.062 1884.5 374.971 1888.23 382.156 1891.96 389.341 1893.48 397.798 1892.79 407.528 1892.1 417.284 1889.41 425.442 1884.72 432.003 1880.03 438.564 1873.66 442.602 1865.62 444.117L1864.87 440.935C1871.24 439.302 1876.16 435.533 1879.62 429.631 1883.09 423.728 1885.16 416.06 1885.83 406.627 1886.47 397.518 1885.5 389.845 1882.91 383.607 1880.32 377.37 1875.93 372.989 1869.74 370.465Z" fill-rule="evenodd"/><text fill="#000000" fill-opacity="0" font-family="Arial,Arial_MSFontService,sans-serif" font-size="76.6878" x="1864.87" y="434.531">)</text><path d="M4.58321-0.0335181 7.70283 426.538-1.46359 426.605-4.58321 0.0335181ZM22.9355 401.232 3.18611 435.664-17.0647 401.524C-18.3562 399.347-17.6382 396.535-15.4611 395.244-13.284 393.952-10.4722 394.67-9.18076 396.848L7.06158 424.229-0.856177 424.287 14.984 396.671C16.2434 394.475 19.0444 393.716 21.2401 394.975 23.4359 396.235 24.1949 399.036 22.9355 401.232Z" fill="#404040" transform="matrix(0.997495 0.0707332 0.0707332 -0.997495 1903.04 751.78)"/><path d="M3.23447-3.24733 302.518 294.851 296.049 301.346-3.23447 3.24733ZM295.55 266.151 305.728 304.518 267.321 294.492C264.872 293.853 263.405 291.349 264.044 288.9 264.683 286.45 267.187 284.983 269.636 285.622L300.441 293.664 294.853 299.274 286.69 268.501C286.041 266.054 287.498 263.545 289.945 262.896 292.391 262.247 294.901 263.704 295.55 266.151Z" fill="#404040" transform="matrix(-0.997495 -0.0707332 -0.0707332 0.997495 1903.04 751.72)"/><path d="M1519.54 866.504C1517.76 866.378 1515.88 867.118 1513.91 868.726 1511.94 870.333 1510.33 872.243 1509.06 874.455 1507.79 876.668 1506.55 879.83 1505.34 883.943L1504.91 885.415C1504.34 887.379 1503.98 889.318 1503.85 891.231 1503.71 893.199 1503.94 894.637 1504.54 895.546 1505.14 896.455 1506.22 896.965 1507.78 897.076 1509.13 897.172 1510.38 896.956 1511.52 896.428 1512.67 895.9 1513.79 894.983 1514.87 893.678 1515.95 892.374 1517.03 890.67 1518.11 888.566 1519.2 886.462 1520.18 883.925 1521.07 880.955 1521.96 877.984 1522.49 875.205 1522.68 872.618 1522.82 870.623 1522.63 869.127 1522.12 868.129 1521.61 867.132 1520.75 866.59 1519.54 866.504ZM1513.01 842.841 1517.74 843.177 1509.8 867.479 1510.31 867.678C1512.85 865.095 1515.19 863.271 1517.34 862.204 1519.49 861.137 1521.99 860.705 1524.85 860.908 1527.92 861.126 1530.22 862.399 1531.75 864.729 1533.28 867.058 1533.89 870.312 1533.6 874.489 1533.43 876.861 1532.96 879.448 1532.19 882.251 1531.43 885.054 1530.45 887.518 1529.27 889.642 1528.09 891.765 1526.73 893.599 1525.18 895.141 1523.64 896.684 1521.95 897.932 1520.1 898.885 1518.26 899.838 1516.3 900.518 1514.21 900.925 1512.12 901.332 1509.91 901.453 1507.56 901.286 1505.78 901.16 1504.1 900.824 1502.51 900.278 1500.93 899.732 1499.31 898.859 1497.66 897.659L1493.7 900.303 1489.34 899.344 1502.8 854.388C1503.55 851.895 1503.97 849.988 1504.06 848.667 1504.12 847.832 1504.04 847.216 1503.81 846.821 1503.58 846.425 1503.25 846.131 1502.83 845.939 1502.41 845.747 1501.55 845.51 1500.24 845.227L1501.08 842.646Z" fill-rule="evenodd"/><text fill="#000000" fill-opacity="0" font-family="Arial,Arial_MSFontService,sans-serif" font-size="58.7131" x="1489.34" y="894.02">𝒃</text><path d="M1571.21 846.441 1572.08 849.631C1565.63 851.259 1560.67 854.977 1557.21 860.786 1553.76 866.594 1551.7 874.053 1551.06 883.162 1550.39 892.595 1551.35 900.478 1553.95 906.81 1556.55 913.143 1560.89 917.568 1566.97 920.084L1565.77 923.128C1558.03 920.493 1552.29 915.597 1548.57 908.44 1544.86 901.283 1543.34 892.827 1544.03 883.07 1544.72 873.341 1547.42 865.183 1552.13 858.597 1556.83 852.01 1563.2 847.958 1571.21 846.441Z" fill-rule="evenodd"/><text fill="#000000" fill-opacity="0" font-family="Arial,Arial_MSFontService,sans-serif" font-size="76.6878" x="1543.87" y="913.542">(</text><path d="M1594.97 867.343C1597.47 867.521 1599.75 867.831 1601.79 868.273 1603.83 868.716 1605.85 869.374 1607.85 870.247L1605.42 878.607 1602.15 878.375C1602.02 875.955 1601.36 874.08 1600.17 872.75 1598.98 871.419 1597.01 870.657 1594.26 870.462 1592.13 870.311 1590.37 870.734 1588.97 871.732 1587.57 872.73 1586.81 874.118 1586.68 875.897 1586.61 876.867 1586.72 877.735 1587.01 878.5 1587.29 879.265 1587.91 880.128 1588.87 881.09 1589.84 882.052 1591.35 883.256 1593.41 884.703 1595.04 885.848 1596.33 886.881 1597.3 887.802 1598.26 888.724 1599.01 889.623 1599.54 890.501 1600.08 891.378 1600.44 892.291 1600.65 893.24 1600.85 894.189 1600.91 895.324 1600.81 896.645 1600.64 899.043 1599.86 901.053 1598.46 902.673 1597.05 904.294 1595.23 905.444 1592.97 906.124 1590.71 906.804 1588.19 907.044 1585.38 906.845 1583.15 906.687 1580.96 906.362 1578.83 905.873 1576.7 905.383 1574.34 904.64 1571.75 903.644L1574.32 894.969 1577.47 895.193C1577.4 897.788 1577.99 899.793 1579.24 901.209 1580.49 902.625 1582.59 903.438 1585.53 903.646 1588.09 903.827 1590.13 903.397 1591.65 902.353 1593.18 901.31 1594.01 899.738 1594.16 897.636 1594.25 896.423 1594.12 895.364 1593.78 894.46 1593.43 893.555 1592.83 892.666 1591.98 891.792 1591.12 890.919 1589.73 889.805 1587.82 888.451 1585.81 887.035 1584.26 885.774 1583.16 884.666 1582.06 883.559 1581.25 882.385 1580.74 881.144 1580.24 879.902 1580.04 878.5 1580.15 876.937 1580.3 874.808 1581.01 872.982 1582.26 871.46 1583.52 869.937 1585.25 868.82 1587.44 868.109 1589.63 867.398 1592.14 867.142 1594.97 867.343Z" fill-rule="evenodd"/><text fill="#000000" fill-opacity="0" font-family="Arial,Arial_MSFontService,sans-serif" font-size="39.6361" x="1571.75" y="901.958">𝑠</text><path d="M1616.38 849.643C1624.1 852.276 1629.82 857.185 1633.55 864.37 1637.28 871.555 1638.8 880.012 1638.11 889.742 1637.42 899.498 1634.73 907.656 1630.04 914.217 1625.35 920.778 1618.98 924.816 1610.94 926.331L1610.19 923.149C1616.56 921.516 1621.48 917.747 1624.95 911.845 1628.41 905.942 1630.48 898.274 1631.15 888.841 1631.79 879.732 1630.82 872.059 1628.23 865.821 1625.64 859.584 1621.25 855.203 1615.06 852.679Z" fill-rule="evenodd"/><text fill="#000000" fill-opacity="0" font-family="Arial,Arial_MSFontService,sans-serif" font-size="76.6878" x="1610.19" y="916.745">)</text><path d="M3064.5 773.066C2434.72 936.501 1715.58 602.774 1020.5 769.637" stroke="#000000" stroke-width="6.875" stroke-miterlimit="8" stroke-dasharray="27.5 20.625" fill="none" fill-rule="evenodd"/></g></svg>