<svg width="2477" height="1211" xmlns="http://www.w3.org/2000/svg" xmlns:xlink="http://www.w3.org/1999/xlink" xml:space="preserve" overflow="hidden"><g transform="translate(-709 -535)"><path d="M1974.5 1316C1974.5 886.599 2322.6 538.5 2752 538.5 2904.4 538.5 3053.45 583.291 3180.6 667.305L3023.39 905.245C2796.54 755.36 2491.13 817.755 2341.25 1044.61 2288.05 1125.12 2259.69 1219.5 2259.69 1316Z" stroke="#000000" stroke-width="6.875" stroke-miterlimit="8" fill="#F2F2F2" fill-rule="evenodd"/><path d="M2115.59 1297.44 2116.57 1275.53 2118.44 1253.25 2121.04 1231.13 2124.36 1209.2 2128.4 1187.46 2133.14 1165.92 2138.58 1144.62 2144.69 1123.56 2151.49 1102.76 2158.95 1082.23 2167.06 1062 2175.83 1042.07 2185.23 1022.47 2195.26 1003.2 2205.9 984.294 2217.16 965.757 2229.02 947.608 2241.47 929.863 2254.49 912.538 2268.09 895.649 2282.26 879.213 2296.97 863.245 2312.23 847.761 2328.02 832.778 2344.34 818.312 2361.18 804.379 2378.51 790.995 2396.35 778.176 2414.67 765.939 2433.47 754.299 2452.74 743.273 2472.36 732.927 2492.23 723.319 2512.33 714.447 2532.63 706.311 2553.12 698.909 2573.78 692.24 2594.59 686.305 2615.54 681.102 2636.6 676.63 2657.76 672.889 2678.99 669.877 2700.28 667.594 2721.62 666.039 2742.98 665.211 2764.34 665.109 2785.69 665.733 2807.01 667.081 2828.27 669.153 2849.47 671.947 2870.58 675.464 2891.59 679.702 2912.47 684.66 2933.21 690.337 2953.79 696.733 2974.18 703.847 2994.39 711.677 3014.37 720.224 3034.12 729.485 3053.62 739.461 3072.86 750.155 3090.99 761.219 3087.41 767.088 3069.34 756.06 3069.46 756.13 3050.34 745.499 3050.44 745.555 3031.05 735.633 3031.15 735.685 3011.51 726.474 3011.62 726.522 2991.74 718.022 2991.85 718.066 2971.75 710.278 2971.87 710.319 2951.58 703.244 2951.69 703.281 2931.22 696.92 2931.34 696.953 2910.71 691.306 2910.82 691.335 2890.06 686.404 2890.17 686.429 2869.28 682.215 2869.39 682.236 2848.4 678.738 2848.51 678.756 2827.43 675.976 2827.55 675.99 2806.4 673.929 2806.51 673.938 2785.31 672.598 2785.43 672.603 2764.2 671.983 2764.31 671.984 2743.07 672.085 2743.19 672.083 2721.94 672.906 2722.06 672.9 2700.84 674.446 2700.96 674.436 2679.78 676.706 2679.9 676.692 2658.78 679.687 2658.89 679.669 2637.85 683.39 2637.97 683.367 2617.02 687.815 2617.14 687.788 2596.31 692.963 2596.42 692.933 2575.72 698.836 2575.84 698.801 2555.29 705.433 2555.4 705.395 2535.02 712.756 2535.13 712.714 2514.94 720.807 2515.05 720.761 2495.07 729.585 2495.17 729.535 2475.41 739.091 2475.52 739.037 2456 749.327 2456.1 749.269 2436.94 760.236 2437.04 760.175 2418.34 771.753 2418.44 771.689 2400.22 783.86 2400.31 783.793 2382.57 796.543 2382.67 796.473 2365.42 809.785 2365.51 809.712 2348.77 823.571 2348.86 823.495 2332.63 837.884 2332.71 837.806 2317 852.709 2317.09 852.628 2301.91 868.029 2301.99 867.946 2287.35 883.829 2287.43 883.744 2273.34 900.093 2273.41 900.006 2259.88 916.805 2259.95 916.715 2246.99 933.949 2247.06 933.857 2234.68 951.509 2234.74 951.416 2222.95 969.47 2223.01 969.374 2211.81 987.814 2211.87 987.716 2201.28 1006.53 2201.33 1006.43 2191.35 1025.59 2191.4 1025.49 2182.05 1044.99 2182.1 1044.89 2173.38 1064.71 2173.42 1064.61 2165.35 1084.74 2165.39 1084.63 2157.97 1105.05 2158.01 1104.95 2151.25 1125.64 2151.28 1125.53 2145.19 1146.48 2145.22 1146.38 2139.82 1167.57 2139.84 1167.46 2135.13 1188.88 2135.15 1188.77 2131.13 1210.4 2131.15 1210.28 2127.85 1232.11 2127.86 1231.99 2125.27 1253.99 2125.29 1253.88 2123.43 1276.04 2123.43 1275.91 2122.46 1297.74ZM2132.88 1293.32 2118.5 1320.5 2105.38 1292.69ZM3092.76 750.103 3108.5 776.514 3077.93 773.26Z" fill="#7F7F7F"/><rect x="2399" y="727" width="76" height="100" fill="#F2F2F2"/><path d="M2429.35 746.04 2431.74 746.04 2421.77 790.904C2421.18 793.578 2420.88 795.578 2420.88 796.902 2420.88 797.982 2421.06 798.766 2421.41 799.252 2421.76 799.738 2422.31 799.982 2423.07 799.982 2423.88 799.982 2424.75 799.651 2425.66 798.989 2426.58 798.327 2427.88 797.064 2429.56 795.199L2431.87 797.469C2429.24 800.225 2427.1 802.109 2425.44 803.122 2423.78 804.136 2421.92 804.642 2419.87 804.642 2418.11 804.642 2416.71 804.001 2415.65 802.717 2414.6 801.434 2414.07 799.792 2414.07 797.793 2414.07 795.983 2414.45 793.362 2415.21 789.931L2422.46 757.468C2422.79 756.036 2423.02 754.895 2423.15 754.044 2423.29 753.193 2423.35 752.403 2423.35 751.673 2423.35 750.862 2423.21 750.248 2422.91 749.829 2422.61 749.41 2422.19 749.106 2421.63 748.917 2421.08 748.728 2420.09 748.593 2418.65 748.512L2419.14 746.404Z" fill="#7F7F7F" fill-rule="evenodd"/><text fill="#000000" fill-opacity="0" font-family="Arial,Arial_MSFontService,sans-serif" font-size="58.6025" x="2414.07" y="797.317">ğ‘™</text><path d="M2447.07 783.487 2451.72 783.487 2450.02 791.052 2460.15 791.052 2459.46 794.359 2449.36 794.359 2446.33 806.839C2446.13 807.673 2445.96 808.422 2445.83 809.087 2445.7 809.753 2445.6 810.353 2445.52 810.889 2445.44 811.425 2445.39 811.912 2445.36 812.349 2445.33 812.786 2445.31 813.193 2445.31 813.57 2445.31 814.761 2445.56 815.695 2446.06 816.37 2446.55 817.045 2447.37 817.383 2448.5 817.383 2449.45 817.383 2450.47 817.03 2451.54 816.325 2452.61 815.62 2453.83 814.513 2455.2 813.004L2457.26 815.089C2456.24 816.221 2455.28 817.184 2454.37 817.978 2453.45 818.772 2452.56 819.423 2451.69 819.929 2450.81 820.435 2449.95 820.803 2449.1 821.031 2448.24 821.26 2447.37 821.374 2446.47 821.374 2444.11 821.374 2442.35 820.818 2441.19 819.706 2440.03 818.594 2439.44 816.956 2439.44 814.791 2439.44 814.057 2439.5 813.247 2439.61 812.364 2439.72 811.48 2439.87 810.621 2440.07 809.787L2443.61 794.359 2438.49 794.359 2439.09 792.065C2440.28 792.065 2441.21 791.951 2441.87 791.723 2442.54 791.494 2443.1 791.182 2443.56 790.784 2443.85 790.506 2444.14 790.164 2444.42 789.757 2444.7 789.35 2444.97 788.858 2445.25 788.282 2445.53 787.707 2445.81 787.026 2446.1 786.242 2446.39 785.458 2446.71 784.539 2447.07 783.487Z" fill="#7F7F7F" fill-rule="evenodd"/><text fill="#000000" fill-opacity="0" font-family="Arial,Arial_MSFontService,sans-serif" font-size="37.8867" x="2438.49" y="816.638">ğ‘¡</text><path d="M2.87952-1.87743 344.193 521.615 338.434 525.369-2.87952 1.87743ZM350.329 512.144 353.83 542.69 327.293 527.164Z" fill="#7F7F7F" transform="matrix(1 0 0 -1 2754.5 1320.19)"/><path d="M1.95006e-06-3.4375 613.253-3.43715 613.253 3.43785-1.95006e-06 3.4375ZM608.67-13.7497 636.17 0.000360892 608.67 13.7503Z" fill="#7F7F7F" transform="matrix(-1 0 0 1 2751.67 1316.5)"/><rect x="2433" y="1328" width="103" height="100" fill="#FFFFFF"/><path d="M2472.38 1353.47C2470.94 1353.47 2469.43 1353.53 2467.84 1353.64L2462.65 1377.1 2467.43 1377.1C2471.35 1377.1 2474.44 1376.58 2476.71 1375.52 2478.98 1374.47 2480.78 1372.74 2482.1 1370.33 2483.43 1367.93 2484.09 1365.34 2484.09 1362.55 2484.09 1361.39 2483.98 1360.36 2483.76 1359.45 2483.55 1358.55 2483.26 1357.8 2482.91 1357.2 2482.56 1356.61 2482.12 1356.08 2481.57 1355.62 2481.03 1355.16 2480.36 1354.77 2479.55 1354.43 2478.74 1354.09 2477.8 1353.85 2476.73 1353.7 2475.66 1353.55 2474.21 1353.47 2472.38 1353.47ZM2456.12 1349.91 2474.16 1349.91C2477.02 1349.91 2479.36 1350.08 2481.17 1350.42 2482.98 1350.75 2484.53 1351.26 2485.81 1351.93 2487.09 1352.61 2488.17 1353.48 2489.03 1354.55 2489.9 1355.62 2490.54 1356.82 2490.98 1358.16 2491.41 1359.49 2491.63 1360.92 2491.63 1362.43 2491.63 1366.59 2490.36 1370.13 2487.82 1373.05 2485.28 1375.97 2481.53 1378.18 2476.59 1379.7L2476.59 1380.14C2477.89 1381.11 2478.93 1382.28 2479.73 1383.63 2480.53 1384.98 2481.17 1386.86 2481.66 1389.26L2482.59 1393.96C2482.89 1395.45 2483.22 1396.79 2483.6 1397.97 2483.98 1399.16 2484.43 1400.11 2484.96 1400.81 2485.49 1401.51 2486.08 1402.04 2486.74 1402.39 2487.4 1402.74 2488.37 1403.03 2489.64 1403.24L2489.23 1405.23 2478.01 1405.23C2477.14 1402.82 2476.37 1399.96 2475.7 1396.64L2473.92 1388.04C2473.62 1386.56 2473.26 1385.31 2472.84 1384.3 2472.42 1383.28 2471.92 1382.5 2471.34 1381.95 2470.76 1381.39 2470.09 1381.03 2469.32 1380.85 2468.55 1380.68 2467.61 1380.59 2466.5 1380.59L2461.88 1380.59 2459.04 1393.43C2458.8 1394.49 2458.63 1395.33 2458.54 1395.95 2458.44 1396.57 2458.36 1397.22 2458.29 1397.91 2458.22 1398.6 2458.19 1399.22 2458.19 1399.76 2458.19 1400.59 2458.33 1401.25 2458.6 1401.72 2458.87 1402.2 2459.27 1402.54 2459.81 1402.76 2460.35 1402.97 2461.28 1403.13 2462.61 1403.24L2462.16 1405.23 2445.51 1405.23 2445.95 1403.24C2446.98 1403.08 2447.75 1402.82 2448.26 1402.45 2448.77 1402.09 2449.21 1401.58 2449.56 1400.93 2449.91 1400.28 2450.23 1399.49 2450.53 1398.56 2450.83 1397.63 2451.27 1395.83 2451.87 1393.15L2458.76 1361.95C2459.35 1359.24 2459.65 1357.11 2459.65 1355.54 2459.65 1354.22 2459.34 1353.3 2458.72 1352.79 2458.1 1352.27 2457.08 1351.98 2455.68 1351.89Z" fill="#7F7F7F" fill-rule="evenodd"/><text fill="#000000" fill-opacity="0" font-family="Arial,Arial_MSFontService,sans-serif" font-size="55.3198" x="2445.51" y="1398.31">ğ‘…</text><path d="M2507.29 1384.72 2511.94 1384.72 2510.24 1392.29 2520.37 1392.29 2519.68 1395.59 2509.58 1395.59 2506.55 1408.07C2506.35 1408.91 2506.18 1409.66 2506.05 1410.32 2505.93 1410.99 2505.82 1411.59 2505.74 1412.12 2505.66 1412.66 2505.61 1413.15 2505.58 1413.58 2505.55 1414.02 2505.53 1414.43 2505.53 1414.8 2505.53 1416 2505.78 1416.93 2506.28 1417.6 2506.77 1418.28 2507.59 1418.62 2508.72 1418.62 2509.67 1418.62 2510.69 1418.26 2511.76 1417.56 2512.83 1416.85 2514.05 1415.75 2515.42 1414.24L2517.48 1416.32C2516.46 1417.46 2515.5 1418.42 2514.59 1419.21 2513.67 1420.01 2512.78 1420.66 2511.91 1421.16 2511.03 1421.67 2510.17 1422.04 2509.32 1422.27 2508.46 1422.49 2507.59 1422.61 2506.69 1422.61 2504.33 1422.61 2502.57 1422.05 2501.41 1420.94 2500.25 1419.83 2499.67 1418.19 2499.67 1416.03 2499.67 1415.29 2499.72 1414.48 2499.83 1413.6 2499.94 1412.71 2500.09 1411.86 2500.29 1411.02L2503.84 1395.59 2498.71 1395.59 2499.31 1393.3C2500.5 1393.3 2501.43 1393.19 2502.09 1392.96 2502.76 1392.73 2503.32 1392.42 2503.78 1392.02 2504.07 1391.74 2504.36 1391.4 2504.64 1390.99 2504.92 1390.58 2505.2 1390.09 2505.47 1389.52 2505.75 1388.94 2506.03 1388.26 2506.32 1387.48 2506.61 1386.69 2506.93 1385.77 2507.29 1384.72Z" fill="#7F7F7F" fill-rule="evenodd"/><text fill="#000000" fill-opacity="0" font-family="Arial,Arial_MSFontService,sans-serif" font-size="37.8867" x="2498.71" y="1417.87">ğ‘¡</text><rect x="2931" y="1070" width="103" height="100" fill="#FFFFFF"/><path d="M2970.13 1094.97C2968.7 1094.97 2967.18 1095.03 2965.59 1095.14L2960.4 1118.6 2965.18 1118.6C2969.1 1118.6 2972.19 1118.08 2974.46 1117.02 2976.73 1115.97 2978.53 1114.24 2979.85 1111.83 2981.18 1109.43 2981.84 1106.84 2981.84 1104.05 2981.84 1102.89 2981.73 1101.86 2981.52 1100.95 2981.3 1100.05 2981.02 1099.3 2980.67 1098.7 2980.31 1098.11 2979.87 1097.58 2979.33 1097.12 2978.79 1096.66 2978.11 1096.27 2977.3 1095.93 2976.49 1095.59 2975.55 1095.35 2974.48 1095.2 2973.42 1095.05 2971.97 1094.97 2970.13 1094.97ZM2953.88 1091.41 2971.91 1091.41C2974.78 1091.41 2977.11 1091.58 2978.92 1091.92 2980.73 1092.25 2982.28 1092.76 2983.56 1093.43 2984.85 1094.11 2985.92 1094.98 2986.78 1096.05 2987.65 1097.12 2988.3 1098.32 2988.73 1099.66 2989.16 1100.99 2989.38 1102.42 2989.38 1103.93 2989.38 1108.09 2988.11 1111.63 2985.57 1114.55 2983.03 1117.47 2979.29 1119.68 2974.34 1121.2L2974.34 1121.64C2975.64 1122.61 2976.69 1123.78 2977.48 1125.13 2978.28 1126.48 2978.92 1128.36 2979.41 1130.76L2980.34 1135.46C2980.64 1136.95 2980.98 1138.29 2981.35 1139.47 2981.73 1140.66 2982.18 1141.61 2982.71 1142.31 2983.24 1143.01 2983.83 1143.54 2984.49 1143.89 2985.16 1144.24 2986.12 1144.53 2987.39 1144.74L2986.99 1146.73 2975.76 1146.73C2974.9 1144.32 2974.13 1141.46 2973.45 1138.14L2971.67 1129.54C2971.37 1128.06 2971.01 1126.81 2970.59 1125.8 2970.18 1124.78 2969.68 1124 2969.09 1123.45 2968.51 1122.89 2967.84 1122.53 2967.07 1122.35 2966.3 1122.18 2965.36 1122.09 2964.25 1122.09L2959.63 1122.09 2956.79 1134.93C2956.55 1135.99 2956.38 1136.83 2956.29 1137.45 2956.19 1138.07 2956.11 1138.72 2956.04 1139.41 2955.98 1140.1 2955.94 1140.72 2955.94 1141.26 2955.94 1142.09 2956.08 1142.75 2956.35 1143.22 2956.62 1143.7 2957.02 1144.04 2957.56 1144.26 2958.1 1144.47 2959.04 1144.63 2960.36 1144.74L2959.92 1146.73 2943.26 1146.73 2943.7 1144.74C2944.73 1144.58 2945.5 1144.32 2946.01 1143.95 2946.53 1143.59 2946.96 1143.08 2947.31 1142.43 2947.66 1141.78 2947.99 1140.99 2948.28 1140.06 2948.58 1139.13 2949.03 1137.33 2949.62 1134.65L2956.51 1103.45C2957.11 1100.74 2957.4 1098.61 2957.4 1097.04 2957.4 1095.72 2957.09 1094.8 2956.47 1094.29 2955.85 1093.77 2954.84 1093.48 2953.43 1093.39Z" fill="#7F7F7F" fill-rule="evenodd"/><text fill="#000000" fill-opacity="0" font-family="Arial,Arial_MSFontService,sans-serif" font-size="55.3198" x="2943.26" y="1139.81">ğ‘…</text><path d="M3005.04 1126.22 3009.69 1126.22 3007.99 1133.79 3018.12 1133.79 3017.43 1137.09 3007.34 1137.09 3004.3 1149.57C3004.1 1150.41 3003.94 1151.16 3003.81 1151.82 3003.68 1152.49 3003.57 1153.09 3003.49 1153.62 3003.42 1154.16 3003.36 1154.65 3003.33 1155.08 3003.3 1155.52 3003.29 1155.93 3003.29 1156.3 3003.29 1157.5 3003.53 1158.43 3004.03 1159.1 3004.53 1159.78 3005.34 1160.12 3006.47 1160.12 3007.43 1160.12 3008.44 1159.76 3009.51 1159.06 3010.58 1158.35 3011.8 1157.25 3013.17 1155.74L3015.23 1157.82C3014.22 1158.96 3013.25 1159.92 3012.34 1160.71 3011.43 1161.51 3010.53 1162.16 3009.66 1162.66 3008.79 1163.17 3007.92 1163.54 3007.07 1163.77 3006.22 1163.99 3005.34 1164.11 3004.45 1164.11 3002.08 1164.11 3000.32 1163.55 2999.16 1162.44 2998 1161.33 2997.42 1159.69 2997.42 1157.53 2997.42 1156.79 2997.47 1155.98 2997.58 1155.1 2997.69 1154.21 2997.85 1153.36 2998.04 1152.52L3001.59 1137.09 2996.47 1137.09 2997.06 1134.8C2998.25 1134.8 2999.18 1134.69 2999.85 1134.46 3000.51 1134.23 3001.07 1133.92 3001.53 1133.52 3001.83 1133.24 3002.11 1132.9 3002.39 1132.49 3002.67 1132.08 3002.95 1131.59 3003.23 1131.02 3003.5 1130.44 3003.79 1129.76 3004.08 1128.98 3004.36 1128.19 3004.69 1127.27 3005.04 1126.22Z" fill="#7F7F7F" fill-rule="evenodd"/><text fill="#000000" fill-opacity="0" font-family="Arial,Arial_MSFontService,sans-serif" font-size="37.8867" x="2996.47" y="1159.37">ğ‘¡</text><path d="M712.5 1316C712.5 886.599 1060.6 538.5 1490 538.5 1491.92 538.5 1493.84 538.507 1495.76 538.521L1493.67 820.902C1220.23 818.876 996.926 1038.9 994.901 1312.33 994.892 1313.56 994.887 1314.78 994.887 1316Z" stroke="#000000" stroke-width="6.875" stroke-miterlimit="8" fill="#F2F2F2" fill-rule="evenodd"/><path d="M850.58 1293.48 850.892 1283.35 851.926 1266.84 853.367 1250.41 855.214 1234.05 857.462 1217.77 860.11 1201.58 863.153 1185.49 866.59 1169.5 870.416 1153.62 874.63 1137.85 879.228 1122.21 884.206 1106.7 889.57 1091.31 901.397 1061.03 914.708 1031.37 929.471 1002.41 945.662 974.201 963.256 946.804 982.23 920.277 1002.56 894.675 1024.22 870.058 1047.19 846.485 1070.24 825.065 1094.19 804.896 1118.99 785.996 1144.58 768.386 1170.92 752.087 1197.96 737.117 1225.64 723.499 1253.91 711.252 1282.73 700.397 1312.05 690.953 1341.81 682.942 1371.96 676.383 1402.44 671.3 1417.83 669.313 1433.26 667.704 1448.75 666.474 1464.31 665.624 1472.51 665.444 1472.66 672.317 1464.51 672.496 1464.63 672.492 1449.17 673.337 1449.25 673.331 1433.84 674.554 1433.93 674.547 1418.58 676.146 1418.67 676.137 1403.39 678.11 1403.51 678.092 1373.18 683.15 1373.34 683.118 1343.35 689.642 1343.52 689.602 1313.92 697.57 1314.08 697.523 1284.92 706.915 1285.08 706.86 1256.41 717.657 1256.57 717.594 1228.45 729.775 1228.6 729.705 1201.07 743.25 1201.22 743.172 1174.33 758.061 1174.47 757.977 1148.27 774.189 1148.41 774.097 1122.96 791.613 1123.09 791.515 1098.43 810.313 1098.56 810.209 1074.74 830.27 1074.86 830.159 1051.93 851.463 1052.05 851.344 1029.21 874.794 1029.32 874.666 1007.78 899.152 1007.89 899.019 987.668 924.484 987.772 924.346 968.898 950.734 968.995 950.592 951.493 977.844 951.582 977.698 935.476 1005.76 935.558 1005.61 920.872 1034.42 920.946 1034.27 907.704 1063.77 907.77 1063.61 895.997 1093.75 896.041 1093.63 890.712 1108.92 890.739 1108.84 885.787 1124.27 885.812 1124.19 881.238 1139.75 881.261 1139.67 877.069 1155.35 877.09 1155.27 873.283 1171.07 873.302 1170.98 869.884 1186.89 869.9 1186.81 866.873 1202.82 866.888 1202.73 864.254 1218.84 864.266 1218.75 862.03 1234.95 862.04 1234.86 860.204 1251.13 860.212 1251.05 858.778 1267.39 858.785 1267.31 857.757 1283.72 857.762 1283.61 857.452 1293.69ZM867.866 1289.32 853.5 1316.5 840.373 1288.7ZM1467.79 655.205 1495.5 668.517 1468.22 682.701Z" fill="#7F7F7F"/><rect x="992" y="827" width="83.9998" height="100" fill="#F2F2F2"/><path d="M1022.29 846.007 1024.68 846.007 1014.71 890.87C1014.12 893.545 1013.82 895.544 1013.82 896.868 1013.82 897.949 1014 898.733 1014.35 899.219 1014.7 899.705 1015.25 899.948 1016.01 899.948 1016.82 899.948 1017.68 899.617 1018.6 898.956 1019.52 898.294 1020.82 897.031 1022.49 895.166L1024.8 897.436C1022.18 900.192 1020.04 902.076 1018.38 903.089 1016.72 904.103 1014.86 904.609 1012.81 904.609 1011.05 904.609 1009.65 903.967 1008.59 902.684 1007.54 901.401 1007.01 899.759 1007.01 897.76 1007.01 895.95 1007.39 893.329 1008.15 889.898L1015.4 857.435C1015.73 856.003 1015.96 854.862 1016.09 854.011 1016.23 853.16 1016.29 852.369 1016.29 851.64 1016.29 850.829 1016.14 850.215 1015.85 849.796 1015.55 849.377 1015.12 849.073 1014.57 848.884 1014.02 848.695 1013.02 848.56 1011.59 848.479L1012.08 846.371Z" fill="#7F7F7F" fill-rule="evenodd"/><text fill="#000000" fill-opacity="0" font-family="Arial,Arial_MSFontService,sans-serif" font-size="58.6025" x="1007.01" y="897.284">ğ‘™</text><path d="M1044.86 885.122C1043.47 885.122 1042.31 885.484 1041.38 886.209 1040.45 886.934 1039.71 887.996 1039.16 889.396 1038.61 890.796 1038.23 892.504 1038 894.519 1037.77 896.534 1037.66 898.823 1037.66 901.385 1037.66 904.343 1037.8 906.9 1038.09 909.054 1038.38 911.209 1038.82 912.981 1039.43 914.371 1040.03 915.761 1040.79 916.783 1041.71 917.439 1042.62 918.094 1043.71 918.422 1044.98 918.422 1046.17 918.422 1047.22 918.114 1048.11 917.498 1049 916.883 1049.74 915.925 1050.33 914.624 1050.91 913.323 1051.36 911.675 1051.65 909.68 1051.95 907.684 1052.1 905.326 1052.1 902.606 1052.1 899.548 1051.94 896.917 1051.61 894.713 1051.28 892.509 1050.82 890.697 1050.22 889.277 1049.63 887.857 1048.88 886.81 1047.98 886.135 1047.07 885.459 1046.03 885.122 1044.86 885.122ZM1044.98 882.233C1047.35 882.233 1049.37 882.674 1051.04 883.558 1052.72 884.442 1054.09 885.703 1055.15 887.341 1056.22 888.979 1057 890.98 1057.49 893.343 1057.99 895.706 1058.24 898.376 1058.24 901.355 1058.24 907.967 1057.07 912.966 1054.72 916.352 1052.38 919.737 1048.98 921.43 1044.54 921.43 1040.13 921.43 1036.85 919.831 1034.71 916.635 1032.56 913.438 1031.49 908.593 1031.49 902.099 1031.49 898.704 1031.82 895.765 1032.49 893.283 1033.15 890.801 1034.09 888.741 1035.29 887.103 1036.49 885.464 1037.91 884.243 1039.56 883.439 1041.21 882.635 1043.02 882.233 1044.98 882.233Z" fill="#7F7F7F" fill-rule="evenodd"/><text fill="#000000" fill-opacity="0" font-family="Arial,Arial_MSFontService,sans-serif" font-size="39.1973" x="1031.49" y="916.53">0</text><path d="M3.43741-0.0252988 7.98055 617.261 1.10574 617.312-3.43741 0.0252988ZM18.259 612.603 4.71181 640.204-9.24021 612.806Z" fill="#7F7F7F" transform="matrix(1 0 0 -1 1490.5 1319.7)"/><path d="M1.95006e-06-3.4375 613.253-3.43715 613.253 3.43785-1.95006e-06 3.4375ZM608.67-13.7497 636.17 0.000360892 608.67 13.7503Z" fill="#7F7F7F" transform="matrix(-1 0 0 1 1489.67 1316.5)"/><rect x="1518" y="950" width="110" height="100" fill="#FFFFFF"/><path d="M1557.43 974.828C1555.99 974.828 1554.48 974.882 1552.89 974.99L1547.7 998.456 1552.48 998.456C1556.4 998.456 1559.49 997.929 1561.76 996.875 1564.03 995.822 1565.83 994.092 1567.15 991.688 1568.48 989.283 1569.14 986.689 1569.14 983.906 1569.14 982.745 1569.03 981.711 1568.81 980.806 1568.6 979.901 1568.31 979.151 1567.96 978.557 1567.61 977.962 1567.17 977.436 1566.63 976.976 1566.09 976.517 1565.41 976.118 1564.6 975.781 1563.79 975.443 1562.85 975.2 1561.78 975.051 1560.72 974.903 1559.26 974.828 1557.43 974.828ZM1541.17 971.262 1559.21 971.262C1562.07 971.262 1564.41 971.431 1566.22 971.769 1568.03 972.106 1569.58 972.613 1570.86 973.288 1572.14 973.964 1573.22 974.835 1574.08 975.902 1574.95 976.97 1575.6 978.172 1576.03 979.509 1576.46 980.847 1576.68 982.272 1576.68 983.785 1576.68 987.946 1575.41 991.485 1572.87 994.403 1570.33 997.321 1566.59 999.537 1561.64 1001.05L1561.64 1001.5C1562.94 1002.47 1563.98 1003.63 1564.78 1004.98 1565.58 1006.33 1566.22 1008.21 1566.71 1010.61L1567.64 1015.32C1567.94 1016.8 1568.27 1018.14 1568.65 1019.33 1569.03 1020.52 1569.48 1021.46 1570.01 1022.16 1570.54 1022.87 1571.13 1023.39 1571.79 1023.74 1572.46 1024.1 1573.42 1024.38 1574.69 1024.6L1574.29 1026.58 1563.06 1026.58C1562.19 1024.18 1561.42 1021.31 1560.75 1017.99L1558.97 1009.4C1558.67 1007.91 1558.31 1006.66 1557.89 1005.65 1557.47 1004.64 1556.97 1003.85 1556.39 1003.3 1555.81 1002.74 1555.14 1002.38 1554.37 1002.2 1553.6 1002.03 1552.66 1001.94 1551.55 1001.94L1546.93 1001.94 1544.09 1014.79C1543.85 1015.84 1543.68 1016.68 1543.59 1017.3 1543.49 1017.92 1543.41 1018.58 1543.34 1019.27 1543.28 1019.96 1543.24 1020.57 1543.24 1021.11 1543.24 1021.95 1543.38 1022.6 1543.65 1023.08 1543.92 1023.55 1544.32 1023.89 1544.86 1024.11 1545.4 1024.33 1546.34 1024.49 1547.66 1024.6L1547.21 1026.58 1530.56 1026.58 1531 1024.6C1532.03 1024.43 1532.8 1024.17 1533.31 1023.81 1533.83 1023.44 1534.26 1022.93 1534.61 1022.29 1534.96 1021.64 1535.28 1020.85 1535.58 1019.92 1535.88 1018.98 1536.33 1017.18 1536.92 1014.5L1543.81 983.299C1544.4 980.597 1544.7 978.462 1544.7 976.895 1544.7 975.571 1544.39 974.653 1543.77 974.139 1543.15 973.626 1542.13 973.329 1540.73 973.248Z" fill="#7F7F7F" fill-rule="evenodd"/><text fill="#000000" fill-opacity="0" font-family="Arial,Arial_MSFontService,sans-serif" font-size="55.3198" x="1530.56" y="1019.67">ğ‘…</text><path d="M1597.2 1007.74C1595.81 1007.74 1594.65 1008.11 1593.71 1008.83 1592.78 1009.55 1592.04 1010.62 1591.49 1012.02 1590.95 1013.42 1590.56 1015.12 1590.33 1017.14 1590.1 1019.16 1589.99 1021.44 1589.99 1024.01 1589.99 1026.96 1590.13 1029.52 1590.42 1031.68 1590.71 1033.83 1591.16 1035.6 1591.76 1036.99 1592.37 1038.38 1593.13 1039.4 1594.04 1040.06 1594.95 1040.72 1596.04 1041.04 1597.32 1041.04 1598.51 1041.04 1599.55 1040.73 1600.44 1040.12 1601.34 1039.5 1602.08 1038.55 1602.66 1037.25 1603.25 1035.94 1603.69 1034.3 1603.99 1032.3 1604.29 1030.31 1604.43 1027.95 1604.43 1025.23 1604.43 1022.17 1604.27 1019.54 1603.94 1017.33 1603.62 1015.13 1603.15 1013.32 1602.56 1011.9 1601.96 1010.48 1601.21 1009.43 1600.31 1008.76 1599.41 1008.08 1598.37 1007.74 1597.2 1007.74ZM1597.32 1004.85C1599.68 1004.85 1601.7 1005.3 1603.38 1006.18 1605.05 1007.06 1606.43 1008.32 1607.49 1009.96 1608.55 1011.6 1609.33 1013.6 1609.83 1015.96 1610.32 1018.33 1610.57 1021 1610.57 1023.98 1610.57 1030.59 1609.4 1035.59 1607.06 1038.97 1604.71 1042.36 1601.32 1044.05 1596.87 1044.05 1592.46 1044.05 1589.18 1042.45 1587.04 1039.26 1584.9 1036.06 1583.82 1031.21 1583.82 1024.72 1583.82 1021.32 1584.16 1018.39 1584.82 1015.9 1585.49 1013.42 1586.42 1011.36 1587.62 1009.72 1588.82 1008.09 1590.25 1006.86 1591.89 1006.06 1593.54 1005.26 1595.35 1004.85 1597.32 1004.85Z" fill="#7F7F7F" fill-rule="evenodd"/><text fill="#000000" fill-opacity="0" font-family="Arial,Arial_MSFontService,sans-serif" font-size="39.1973" x="1583.82" y="1039.15">0</text><rect x="1117" y="1346" width="109" height="100" fill="#FFFFFF"/><path d="M1155.8 1371.06C1154.37 1371.06 1152.85 1371.12 1151.26 1371.22L1146.07 1394.69 1150.85 1394.69C1154.77 1394.69 1157.86 1394.16 1160.13 1393.11 1162.4 1392.06 1164.2 1390.33 1165.52 1387.92 1166.85 1385.52 1167.51 1382.92 1167.51 1380.14 1167.51 1378.98 1167.4 1377.95 1167.19 1377.04 1166.97 1376.13 1166.69 1375.39 1166.33 1374.79 1165.98 1374.2 1165.54 1373.67 1165 1373.21 1164.46 1372.75 1163.78 1372.35 1162.97 1372.01 1162.16 1371.68 1161.22 1371.43 1160.15 1371.29 1159.09 1371.14 1157.63 1371.06 1155.8 1371.06ZM1139.55 1367.5 1157.58 1367.5C1160.44 1367.5 1162.78 1367.66 1164.59 1368 1166.4 1368.34 1167.95 1368.85 1169.23 1369.52 1170.52 1370.2 1171.59 1371.07 1172.45 1372.14 1173.32 1373.2 1173.97 1374.41 1174.4 1375.74 1174.83 1377.08 1175.05 1378.51 1175.05 1380.02 1175.05 1384.18 1173.78 1387.72 1171.24 1390.64 1168.7 1393.55 1164.96 1395.77 1160.01 1397.28L1160.01 1397.73C1161.31 1398.7 1162.36 1399.86 1163.15 1401.21 1163.95 1402.57 1164.59 1404.44 1165.08 1406.85L1166.01 1411.55C1166.31 1413.04 1166.64 1414.37 1167.02 1415.56 1167.4 1416.75 1167.85 1417.7 1168.38 1418.4 1168.91 1419.1 1169.5 1419.63 1170.16 1419.98 1170.83 1420.33 1171.79 1420.61 1173.06 1420.83L1172.66 1422.82 1161.43 1422.82C1160.57 1420.41 1159.8 1417.55 1159.12 1414.22L1157.34 1405.63C1157.04 1404.15 1156.68 1402.9 1156.26 1401.88 1155.84 1400.87 1155.34 1400.09 1154.76 1399.53 1154.18 1398.98 1153.51 1398.61 1152.74 1398.44 1151.97 1398.26 1151.03 1398.18 1149.92 1398.18L1145.3 1398.18 1142.46 1411.02C1142.22 1412.08 1142.05 1412.91 1141.96 1413.53 1141.86 1414.16 1141.78 1414.81 1141.71 1415.5 1141.65 1416.19 1141.61 1416.8 1141.61 1417.34 1141.61 1418.18 1141.75 1418.84 1142.02 1419.31 1142.29 1419.78 1142.69 1420.13 1143.23 1420.34 1143.77 1420.56 1144.71 1420.72 1146.03 1420.83L1145.58 1422.82 1128.93 1422.82 1129.37 1420.83C1130.4 1420.67 1131.17 1420.4 1131.68 1420.04 1132.2 1419.67 1132.63 1419.17 1132.98 1418.52 1133.33 1417.87 1133.66 1417.08 1133.95 1416.15 1134.25 1415.22 1134.7 1413.41 1135.29 1410.74L1142.18 1379.53C1142.77 1376.83 1143.07 1374.7 1143.07 1373.13 1143.07 1371.81 1142.76 1370.89 1142.14 1370.37 1141.52 1369.86 1140.5 1369.56 1139.1 1369.48Z" fill="#7F7F7F" fill-rule="evenodd"/><text fill="#000000" fill-opacity="0" font-family="Arial,Arial_MSFontService,sans-serif" font-size="55.3198" x="1128.93" y="1415.9">ğ‘…</text><path d="M1195.57 1403.98C1194.18 1403.98 1193.02 1404.34 1192.08 1405.06 1191.15 1405.79 1190.41 1406.85 1189.86 1408.25 1189.32 1409.65 1188.93 1411.36 1188.7 1413.37 1188.47 1415.39 1188.36 1417.68 1188.36 1420.24 1188.36 1423.2 1188.5 1425.75 1188.79 1427.91 1189.08 1430.06 1189.53 1431.84 1190.13 1433.23 1190.74 1434.62 1191.5 1435.64 1192.41 1436.29 1193.32 1436.95 1194.42 1437.28 1195.69 1437.28 1196.88 1437.28 1197.92 1436.97 1198.81 1436.35 1199.71 1435.74 1200.45 1434.78 1201.03 1433.48 1201.62 1432.18 1202.06 1430.53 1202.36 1428.53 1202.66 1426.54 1202.81 1424.18 1202.81 1421.46 1202.81 1418.4 1202.64 1415.77 1202.31 1413.57 1201.99 1411.36 1201.52 1409.55 1200.93 1408.13 1200.33 1406.71 1199.58 1405.66 1198.68 1404.99 1197.78 1404.31 1196.74 1403.98 1195.57 1403.98ZM1195.69 1401.09C1198.05 1401.09 1200.07 1401.53 1201.75 1402.41 1203.43 1403.3 1204.8 1404.56 1205.86 1406.2 1206.92 1407.83 1207.7 1409.83 1208.2 1412.2 1208.69 1414.56 1208.94 1417.23 1208.94 1420.21 1208.94 1426.82 1207.77 1431.82 1205.43 1435.21 1203.08 1438.59 1199.69 1440.28 1195.24 1440.28 1190.83 1440.28 1187.56 1438.69 1185.41 1435.49 1183.27 1432.29 1182.19 1427.45 1182.19 1420.95 1182.19 1417.56 1182.53 1414.62 1183.19 1412.14 1183.86 1409.66 1184.79 1407.6 1185.99 1405.96 1187.19 1404.32 1188.62 1403.1 1190.27 1402.29 1191.91 1401.49 1193.72 1401.09 1195.69 1401.09Z" fill="#7F7F7F" fill-rule="evenodd"/><text fill="#000000" fill-opacity="0" font-family="Arial,Arial_MSFontService,sans-serif" font-size="39.1973" x="1182.19" y="1435.39">0</text><text font-family="Calibri,Calibri_MSFontService,sans-serif" font-weight="400" font-size="92" transform="matrix(1 0 0 1 928.92 1666)">Initial</text><text font-family="Calibri,Calibri_MSFontService,sans-serif" font-weight="400" font-size="92" transform="matrix(1 0 0 1 2452.49 1666)">Deformed</text></g></svg>