<svg width="951" height="982" xmlns="http://www.w3.org/2000/svg" xmlns:xlink="http://www.w3.org/1999/xlink" xml:space="preserve" overflow="hidden"><defs><clipPath id="clip0"><rect x="2917" y="222" width="951" height="982"/></clipPath></defs><g clip-path="url(#clip0)" transform="translate(-2917 -222)"><path d="M3126.58 1051.48 3126.89 1041.4 3127.92 1024.91 3129.36 1008.51 3131.21 992.175 3133.45 975.923 3136.09 959.759 3139.13 943.691 3142.56 927.724 3146.38 911.867 3150.59 896.127 3155.18 880.51 3160.15 865.025 3165.51 849.657 3177.32 819.424 3190.61 789.81 3205.35 760.892 3221.51 732.727 3239.08 705.372 3258.03 678.885 3278.32 653.323 3299.95 628.744 3322.88 605.206 3345.9 583.82 3369.82 563.681 3394.57 544.811 3420.13 527.228 3446.43 510.953 3473.42 496.007 3501.06 482.41 3529.29 470.181 3558.06 459.342 3587.33 449.913 3617.05 441.914 3647.16 435.365 3677.59 430.29 3692.95 428.306 3708.35 426.7 3723.82 425.472 3739.36 424.623 3747.51 424.444 3747.66 431.318 3739.56 431.495 3739.68 431.491 3724.24 432.334 3724.32 432.329 3708.94 433.55 3709.02 433.543 3693.7 435.14 3693.79 435.13 3678.53 437.101 3678.66 437.082 3648.37 442.133 3648.53 442.101 3618.59 448.614 3618.75 448.575 3589.2 456.53 3589.36 456.483 3560.25 465.861 3560.41 465.806 3531.79 476.586 3531.94 476.523 3503.87 488.685 3504.02 488.615 3476.53 502.139 3476.68 502.062 3449.83 516.927 3449.97 516.843 3423.82 533.03 3423.96 532.939 3398.54 550.427 3398.68 550.329 3374.05 569.099 3374.18 568.994 3350.4 589.024 3350.52 588.913 3327.62 610.185 3327.75 610.065 3304.94 633.479 3305.05 633.351 3283.54 657.799 3283.65 657.666 3263.46 683.093 3263.57 682.955 3244.72 709.302 3244.82 709.159 3227.34 736.37 3227.43 736.223 3211.35 764.24 3211.43 764.09 3196.77 792.857 3196.85 792.703 3183.62 822.162 3183.69 822.005 3171.94 852.099 3171.98 851.979 3166.66 867.247 3166.69 867.166 3161.74 882.571 3161.77 882.49 3157.2 898.025 3157.22 897.943 3153.04 913.602 3153.06 913.519 3149.26 929.293 3149.28 929.21 3145.86 945.094 3145.88 945.01 3142.86 960.995 3142.87 960.911 3140.24 976.99 3140.25 976.906 3138.02 993.073 3138.03 992.988 3136.2 1009.24 3136.21 1009.15 3134.78 1025.47 3134.78 1025.39 3133.76 1041.77 3133.76 1041.66 3133.45 1051.69ZM3143.87 1047.32 3129.5 1074.5 3116.37 1046.7ZM3742.79 414.205 3770.5 427.517 3743.22 441.702Z" fill="#7F7F7F"/><rect x="3267" y="585" width="48.0002" height="100" fill="#FFFFFF"/><path d="M3297.31 604.079 3299.7 604.079 3289.73 648.943C3289.14 651.618 3288.84 653.617 3288.84 654.941 3288.84 656.022 3289.02 656.806 3289.37 657.292 3289.72 657.778 3290.27 658.021 3291.03 658.021 3291.84 658.021 3292.7 657.69 3293.62 657.028 3294.54 656.367 3295.84 655.103 3297.51 653.239L3299.82 655.509C3297.2 658.265 3295.06 660.149 3293.4 661.162 3291.74 662.175 3289.88 662.682 3287.83 662.682 3286.07 662.682 3284.67 662.04 3283.61 660.757 3282.56 659.474 3282.03 657.832 3282.03 655.833 3282.03 654.023 3282.41 651.402 3283.17 647.971L3290.42 615.508C3290.75 614.076 3290.98 612.935 3291.11 612.084 3291.25 611.233 3291.31 610.442 3291.31 609.713 3291.31 608.902 3291.16 608.288 3290.87 607.869 3290.57 607.45 3290.14 607.146 3289.59 606.957 3289.04 606.768 3288.04 606.633 3286.61 606.552L3287.1 604.444Z" fill="#7F7F7F" fill-rule="evenodd"/><text fill="#000000" fill-opacity="0" font-family="Arial,Arial_MSFontService,sans-serif" font-size="58.6025" x="3282.03" y="655.357">𝑙</text><path d="M3.43741-0.0252984 8.08558 631.543 1.21077 631.593-3.43741 0.0252984ZM18.3641 626.884 4.81683 654.484-9.13518 627.086Z" fill="#7F7F7F" transform="matrix(1 0 0 -1 3765.5 1077.98)"/><path d="M1.95006e-06-3.4375 613.253-3.43715 613.253 3.43785-1.95006e-06 3.4375ZM608.67-13.7497 636.17 0.000360892 608.67 13.7503Z" fill="#7F7F7F" transform="matrix(-1 0 0 1 3765.67 1074.5)"/><rect x="3794" y="708" width="74" height="100" fill="#FFFFFF"/><path d="M3832.4 732.901C3830.97 732.901 3829.46 732.955 3827.86 733.063L3822.67 756.529 3827.46 756.529C3831.37 756.529 3834.47 756.002 3836.74 754.948 3839.01 753.894 3840.8 752.165 3842.13 749.761 3843.45 747.356 3844.11 744.762 3844.11 741.979 3844.11 740.818 3844 739.784 3843.79 738.879 3843.57 737.974 3843.29 737.224 3842.94 736.63 3842.59 736.035 3842.14 735.509 3841.6 735.049 3841.06 734.59 3840.38 734.191 3839.57 733.854 3838.76 733.516 3837.82 733.273 3836.76 733.124 3835.69 732.976 3834.24 732.901 3832.4 732.901ZM3816.15 729.335 3834.18 729.335C3837.05 729.335 3839.38 729.504 3841.19 729.841 3843 730.179 3844.55 730.686 3845.83 731.361 3847.12 732.037 3848.19 732.908 3849.06 733.975 3849.92 735.042 3850.57 736.245 3851 737.582 3851.43 738.92 3851.65 740.345 3851.65 741.858 3851.65 746.019 3850.38 749.558 3847.84 752.476 3845.3 755.394 3841.56 757.609 3836.61 759.122L3836.61 759.568C3837.91 760.541 3838.96 761.703 3839.76 763.054 3840.55 764.405 3841.19 766.282 3841.68 768.687L3842.61 773.388C3842.91 774.874 3843.25 776.212 3843.63 777.4 3844 778.589 3844.46 779.535 3844.98 780.237 3845.51 780.94 3846.11 781.467 3846.77 781.818 3847.43 782.169 3848.4 782.453 3849.66 782.669L3849.26 784.655 3838.03 784.655C3837.17 782.25 3836.4 779.386 3835.72 776.063L3833.94 767.471C3833.64 765.985 3833.28 764.736 3832.87 763.722 3832.45 762.709 3831.95 761.926 3831.37 761.372 3830.79 760.818 3830.11 760.453 3829.34 760.278 3828.57 760.102 3827.63 760.014 3826.52 760.014L3821.9 760.014 3819.07 772.861C3818.82 773.915 3818.65 774.753 3818.56 775.374 3818.47 775.995 3818.38 776.651 3818.32 777.34 3818.25 778.029 3818.22 778.643 3818.22 779.184 3818.22 780.021 3818.35 780.676 3818.62 781.149 3818.89 781.622 3819.3 781.966 3819.84 782.183 3820.38 782.399 3821.31 782.561 3822.63 782.669L3822.19 784.655 3805.53 784.655 3805.98 782.669C3807 782.507 3807.77 782.243 3808.29 781.879 3808.8 781.514 3809.23 781.007 3809.58 780.359 3809.93 779.71 3810.26 778.92 3810.56 777.988 3810.85 777.056 3811.3 775.252 3811.89 772.578L3818.78 741.372C3819.38 738.67 3819.67 736.535 3819.67 734.968 3819.67 733.644 3819.36 732.726 3818.74 732.212 3818.12 731.699 3817.11 731.402 3815.7 731.321Z" fill="#7F7F7F" fill-rule="evenodd"/><text fill="#000000" fill-opacity="0" font-family="Arial,Arial_MSFontService,sans-serif" font-size="55.3198" x="3805.53" y="777.74">𝑅</text><rect x="3392" y="1104" width="75" height="100" fill="#FFFFFF"/><path d="M3430.77 1129.14C3429.34 1129.14 3427.83 1129.19 3426.23 1129.3L3421.04 1152.76 3425.83 1152.76C3429.74 1152.76 3432.84 1152.24 3435.11 1151.18 3437.38 1150.13 3439.17 1148.4 3440.5 1145.99 3441.82 1143.59 3442.48 1141 3442.48 1138.21 3442.48 1137.05 3442.38 1136.02 3442.16 1135.11 3441.94 1134.21 3441.66 1133.46 3441.31 1132.86 3440.96 1132.27 3440.51 1131.74 3439.97 1131.28 3439.43 1130.82 3438.75 1130.43 3437.94 1130.09 3437.13 1129.75 3436.19 1129.51 3435.13 1129.36 3434.06 1129.21 3432.61 1129.14 3430.77 1129.14ZM3414.52 1125.57 3432.55 1125.57C3435.42 1125.57 3437.76 1125.74 3439.57 1126.08 3441.38 1126.41 3442.92 1126.92 3444.21 1127.6 3445.49 1128.27 3446.56 1129.14 3447.43 1130.21 3448.29 1131.28 3448.94 1132.48 3449.37 1133.82 3449.81 1135.15 3450.02 1136.58 3450.02 1138.09 3450.02 1142.25 3448.75 1145.79 3446.21 1148.71 3443.67 1151.63 3439.93 1153.84 3434.99 1155.36L3434.99 1155.8C3436.28 1156.77 3437.33 1157.94 3438.13 1159.29 3438.92 1160.64 3439.57 1162.52 3440.05 1164.92L3440.98 1169.62C3441.28 1171.11 3441.62 1172.45 3442 1173.63 3442.38 1174.82 3442.83 1175.77 3443.35 1176.47 3443.88 1177.17 3444.48 1177.7 3445.14 1178.05 3445.8 1178.4 3446.77 1178.69 3448.04 1178.9L3447.63 1180.89 3436.4 1180.89C3435.54 1178.48 3434.77 1175.62 3434.09 1172.3L3432.31 1163.7C3432.01 1162.22 3431.66 1160.97 3431.24 1159.96 3430.82 1158.94 3430.32 1158.16 3429.74 1157.61 3429.16 1157.05 3428.48 1156.69 3427.71 1156.51 3426.94 1156.34 3426 1156.25 3424.89 1156.25L3420.27 1156.25 3417.44 1169.1C3417.19 1170.15 3417.03 1170.99 3416.93 1171.61 3416.84 1172.23 3416.76 1172.88 3416.69 1173.57 3416.62 1174.26 3416.59 1174.88 3416.59 1175.42 3416.59 1176.25 3416.72 1176.91 3416.99 1177.38 3417.26 1177.86 3417.67 1178.2 3418.21 1178.42 3418.75 1178.63 3419.68 1178.79 3421 1178.9L3420.56 1180.89 3403.9 1180.89 3404.35 1178.9C3405.37 1178.74 3406.14 1178.48 3406.66 1178.11 3407.17 1177.75 3407.6 1177.24 3407.95 1176.59 3408.31 1175.94 3408.63 1175.15 3408.93 1174.22 3409.22 1173.29 3409.67 1171.49 3410.26 1168.81L3417.15 1137.61C3417.75 1134.9 3418.05 1132.77 3418.05 1131.2 3418.05 1129.88 3417.73 1128.96 3417.11 1128.45 3416.49 1127.93 3415.48 1127.64 3414.07 1127.55Z" fill="#7F7F7F" fill-rule="evenodd"/><text fill="#000000" fill-opacity="0" font-family="Arial,Arial_MSFontService,sans-serif" font-size="55.3198" x="3403.9" y="1173.97">𝑅</text><path d="M2951.49 1051.47 2952.12 1032.38 2953.43 1011.42 2955.26 990.547 2957.6 969.77 2960.46 949.096 2963.82 928.533 2967.68 908.092 2972.05 887.78 2976.9 867.608 2982.25 847.584 2988.09 827.717 2994.41 808.017 3001.21 788.493 3008.49 769.154 3016.24 750.008 3024.46 731.065 3033.14 712.335 3042.28 693.826 3051.88 675.547 3061.93 657.508 3072.44 639.717 3083.39 622.185 3094.77 604.919 3106.6 587.929 3118.86 571.224 3131.56 554.813 3144.67 538.706 3158.21 522.911 3172.17 507.439 3186.55 492.296 3201.33 477.495 3215.82 463.695 3230.6 450.29 3245.67 437.281 3261.01 424.672 3276.62 412.466 3292.49 400.666 3308.62 389.276 3324.99 378.299 3341.59 367.738 3358.43 357.596 3375.48 347.877 3392.75 338.583 3410.22 329.718 3427.89 321.286 3445.75 313.289 3463.79 305.731 3482 298.614 3500.38 291.943 3518.91 285.72 3537.59 279.948 3556.42 274.631 3575.38 269.772 3594.46 265.375 3613.66 261.442 3632.97 257.976 3652.38 254.982 3671.88 252.461 3691.47 250.418 3711.14 248.856 3730.88 247.777 3747.5 247.362 3747.67 254.235 3731.11 254.648 3731.21 254.644 3711.56 255.718 3711.64 255.712 3692.06 257.268 3692.14 257.26 3672.64 259.295 3672.72 259.285 3653.3 261.795 3653.38 261.783 3634.06 264.764 3634.14 264.751 3614.91 268.201 3615 268.185 3595.88 272.102 3595.96 272.084 3576.96 276.462 3577.04 276.443 3558.16 281.281 3558.25 281.259 3539.5 286.553 3539.58 286.529 3520.98 292.276 3521.06 292.25 3502.6 298.447 3502.68 298.419 3484.38 305.062 3484.46 305.033 3466.33 312.119 3466.4 312.088 3448.44 319.614 3448.52 319.581 3430.74 327.544 3430.81 327.509 3413.22 335.905 3413.29 335.868 3395.9 344.695 3395.97 344.657 3378.77 353.911 3378.85 353.87 3361.87 363.548 3361.94 363.506 3345.18 373.605 3345.25 373.561 3328.71 384.078 3328.78 384.032 3312.48 394.963 3312.55 394.915 3296.49 406.257 3296.56 406.208 3280.76 417.958 3280.82 417.907 3265.28 430.062 3265.35 430.009 3250.07 442.565 3250.13 442.512 3235.13 455.466 3235.19 455.41 3220.47 468.76 3220.53 468.703 3206.11 482.444 3206.17 482.384 3191.44 497.124 3191.51 497.061 3177.19 512.14 3177.25 512.076 3163.35 527.485 3163.41 527.419 3149.92 543.148 3149.98 543.081 3136.91 559.121 3136.97 559.053 3124.33 575.396 3124.38 575.327 3112.17 591.962 3112.22 591.892 3100.44 608.811 3100.49 608.74 3089.15 625.934 3089.19 625.862 3078.29 643.322 3078.34 643.249 3067.88 660.966 3067.92 660.892 3057.91 678.857 3057.95 678.782 3048.39 696.985 3048.43 696.909 3039.32 715.342 3039.36 715.265 3030.71 733.918 3030.75 733.841 3022.56 752.705 3022.6 752.627 3014.88 771.694 3014.91 771.615 3007.66 790.875 3007.69 790.795 3000.92 810.239 3000.95 810.158 2994.65 829.777 2994.68 829.696 2988.86 849.481 2988.88 849.399 2983.56 869.341 2983.58 869.259 2978.74 889.349 2978.76 889.266 2974.41 909.494 2974.43 909.411 2970.58 929.768 2970.6 929.684 2967.25 950.163 2967.26 950.078 2964.42 970.668 2964.43 970.583 2962.09 991.276 2962.1 991.19 2960.28 1011.98 2960.29 1011.89 2958.98 1032.76 2958.99 1032.66 2958.36 1051.7ZM2968.75 1047.26 2954.5 1074.5 2941.26 1046.75ZM3742.84 237.105 3770.5 250.521 3743.17 264.603Z" fill="#C00000"/><rect x="3129" y="438" width="92.9998" height="100" fill="#FFFFFF"/><path d="M3159.14 456.582 3161.53 456.582 3151.56 501.446C3150.97 504.121 3150.67 506.12 3150.67 507.444 3150.67 508.525 3150.85 509.308 3151.2 509.795 3151.55 510.281 3152.1 510.524 3152.86 510.524 3153.67 510.524 3154.53 510.193 3155.45 509.531 3156.37 508.869 3157.67 507.606 3159.34 505.742L3161.65 508.012C3159.03 510.767 3156.89 512.652 3155.23 513.665 3153.57 514.678 3151.71 515.185 3149.66 515.185 3147.9 515.185 3146.5 514.543 3145.44 513.26 3144.39 511.977 3143.86 510.335 3143.86 508.336 3143.86 506.526 3144.24 503.905 3145 500.474L3152.25 468.011C3152.58 466.579 3152.8 465.438 3152.94 464.587 3153.07 463.735 3153.14 462.945 3153.14 462.216 3153.14 461.405 3152.99 460.79 3152.7 460.372 3152.4 459.953 3151.97 459.649 3151.42 459.46 3150.87 459.271 3149.87 459.136 3148.44 459.055L3148.93 456.947Z" fill="#C00000" fill-rule="evenodd"/><text fill="#000000" fill-opacity="0" font-family="Arial,Arial_MSFontService,sans-serif" font-size="58.6025" x="3143.86" y="507.86">𝑙</text><path d="M3180.21 453.922C3180.93 453.922 3181.54 453.996 3182.06 454.145 3182.57 454.294 3183.04 454.527 3183.46 454.845 3183.87 455.163 3184.25 455.575 3184.57 456.081 3184.9 456.587 3185.23 457.198 3185.57 457.913 3185.75 458.35 3185.94 458.975 3186.14 459.789 3186.34 460.604 3186.55 461.547 3186.76 462.619 3186.98 463.691 3187.2 464.873 3187.42 466.163 3187.64 467.454 3187.86 468.804 3188.07 470.214 3188.29 471.624 3188.5 473.069 3188.7 474.548 3188.9 476.027 3189.09 477.482 3189.27 478.911 3190.75 476.966 3192.1 474.995 3193.29 472.999 3194.48 471.004 3195.49 469.117 3196.31 467.34 3197.13 465.563 3197.76 463.944 3198.2 462.485 3198.64 461.025 3198.85 459.859 3198.83 458.985 3198.83 458.112 3198.6 457.486 3198.14 457.109 3197.68 456.731 3196.92 456.513 3195.85 456.453L3196.24 454.547 3204.72 454.547 3205.77 456.275C3203.78 461.179 3201.46 465.91 3198.81 470.467 3196.16 475.025 3193.17 479.448 3189.83 483.737 3188.38 485.464 3187.08 486.953 3185.91 488.204 3184.75 489.455 3183.68 490.533 3182.7 491.436 3181.72 492.34 3180.8 493.079 3179.96 493.655 3179.11 494.231 3178.29 494.693 3177.5 495.04 3176.71 495.388 3175.92 495.636 3175.13 495.785 3174.35 495.934 3173.53 496.028 3172.68 496.068 3172.22 496.068 3171.67 496.018 3171.02 495.919 3170.38 495.82 3169.81 495.69 3169.31 495.532L3170.8 489.009 3173.51 489.009 3173.51 489.187C3173.51 490.538 3174.06 491.213 3175.15 491.213 3176.6 491.213 3178.07 490.652 3179.56 489.53 3181.04 488.408 3182.84 486.616 3184.95 484.154 3184.29 480.381 3183.72 477.119 3183.22 474.369 3182.72 471.619 3182.27 469.276 3181.86 467.34 3181.46 465.404 3181.08 463.83 3180.75 462.619 3180.41 461.408 3180.08 460.465 3179.76 459.789 3179.45 459.114 3179.12 458.653 3178.8 458.404 3178.47 458.156 3178.12 458.032 3177.74 458.032 3177.38 458.032 3177.05 458.077 3176.76 458.166 3176.46 458.255 3176.15 458.439 3175.83 458.717 3175.51 458.995 3175.17 459.387 3174.8 459.894 3174.44 460.4 3173.99 461.06 3173.45 461.874L3171.16 460.385C3172.01 459.134 3172.79 458.092 3173.51 457.258 3174.22 456.424 3174.93 455.763 3175.64 455.277 3176.34 454.79 3177.06 454.443 3177.8 454.234 3178.53 454.026 3179.34 453.922 3180.21 453.922Z" fill="#C00000" fill-rule="evenodd"/><text fill="#000000" fill-opacity="0" font-family="Arial,Arial_MSFontService,sans-serif" font-size="42.146" x="3169.31" y="490.799">𝑦</text><path d="M6.75985e-06-3.4375 160.603-3.43718 160.603 3.43782-6.75985e-06 3.4375ZM156.02-13.7497 183.52 0.000360892 156.02 13.7503Z" fill="#C00000" transform="matrix(-1 0 0 1 3129.02 1074.5)"/><rect x="3011" y="1090" width="67" height="100" fill="#FFFFFF"/><path d="M3034.02 1127.75C3035.13 1127.75 3036.08 1127.89 3036.86 1128.19 3037.4 1128.41 3037.94 1128.77 3038.48 1129.27 3039.02 1129.77 3039.5 1130.46 3039.92 1131.35 3040.34 1132.24 3040.7 1133.24 3041.01 1134.35 3041.32 1135.46 3041.67 1137.05 3042.05 1139.13 3042.69 1142.62 3043.32 1146.29 3043.93 1150.14 3044.54 1153.99 3045.06 1157.56 3045.49 1160.86 3048.11 1157.07 3050.33 1153.37 3052.16 1149.75 3053.98 1146.13 3055.29 1142.98 3056.09 1140.31 3056.89 1137.63 3057.28 1135.46 3057.28 1133.78 3057.28 1132.51 3057.01 1131.65 3056.47 1131.19 3055.93 1130.73 3055.01 1130.46 3053.72 1130.38L3054.12 1128.39 3064.78 1128.39 3065.88 1130.42C3063.82 1136.04 3061.04 1142.05 3057.53 1148.46 3054.07 1154.72 3050.11 1160.96 3045.65 1167.18 3041.38 1173.1 3037.83 1177.38 3034.99 1180.03 3033.02 1181.84 3031.12 1183.13 3029.28 1183.92 3027.82 1184.51 3026.27 1184.81 3024.62 1184.81 3024.05 1184.81 3023.4 1184.76 3022.65 1184.67 3021.91 1184.57 3021.34 1184.44 3020.93 1184.28L3022.67 1176.42 3025.88 1176.42C3025.88 1178.15 3026.47 1179.01 3027.66 1179.01 3029.23 1179.01 3031.05 1178.03 3033.13 1176.07 3035.21 1174.12 3037.66 1171.16 3040.47 1167.22 3039.68 1162.49 3038.61 1156.79 3037.26 1150.12 3035.83 1142.98 3034.89 1138.57 3034.43 1136.86 3033.86 1134.81 3033.27 1133.5 3032.64 1132.93 3032.27 1132.58 3031.79 1132.41 3031.23 1132.41 3030.36 1132.41 3029.55 1132.76 3028.79 1133.46 3028.04 1134.16 3027.1 1135.38 3026 1137.11L3023.36 1135.37C3025.23 1132.58 3026.97 1130.62 3028.59 1129.47 3030.21 1128.32 3032.02 1127.75 3034.02 1127.75Z" fill="#C00000" fill-rule="evenodd"/><text fill="#000000" fill-opacity="0" font-family="Arial,Arial_MSFontService,sans-serif" font-size="57.0625" x="3020.93" y="1177.68">𝑦</text><path d="M3.4375-7.17972e-06 3.43781 149.871-3.43719 149.871-3.4375 7.17972e-06ZM13.7503 145.288 0.000360892 172.788-13.7497 145.288Z" fill="#C00000" transform="matrix(1 0 0 -1 3770.5 423.288)"/><rect x="3801" y="287" width="67" height="100" fill="#FFFFFF"/><path d="M3823.88 324.486C3824.99 324.486 3825.94 324.634 3826.72 324.932 3827.26 325.148 3827.8 325.506 3828.34 326.006 3828.88 326.505 3829.36 327.201 3829.78 328.093 3830.2 328.984 3830.56 329.984 3830.88 331.092 3831.19 332.2 3831.53 333.794 3831.91 335.874 3832.56 339.359 3833.19 343.027 3833.79 346.877 3834.4 350.727 3834.92 354.3 3835.35 357.597 3837.97 353.814 3840.2 350.113 3842.02 346.492 3843.84 342.872 3845.15 339.724 3845.95 337.049 3846.75 334.374 3847.15 332.2 3847.15 330.524 3847.15 329.255 3846.88 328.39 3846.34 327.931 3845.8 327.471 3844.88 327.201 3843.58 327.12L3843.99 325.134 3854.64 325.134 3855.74 327.161C3853.69 332.78 3850.9 338.792 3847.39 345.195 3843.93 351.464 3839.97 357.705 3835.52 363.919 3831.25 369.836 3827.69 374.118 3824.86 376.766 3822.88 378.576 3820.98 379.873 3819.14 380.657 3817.68 381.251 3816.13 381.548 3814.48 381.548 3813.91 381.548 3813.26 381.501 3812.52 381.406 3811.77 381.312 3811.2 381.184 3810.79 381.021L3812.54 373.159 3815.74 373.159C3815.74 374.888 3816.33 375.753 3817.52 375.753 3819.09 375.753 3820.91 374.773 3822.99 372.815 3825.07 370.856 3827.52 367.904 3830.33 363.959 3829.54 359.231 3828.48 353.53 3827.13 346.857 3825.69 339.724 3824.75 335.307 3824.29 333.604 3823.72 331.551 3823.13 330.241 3822.51 329.673 3822.13 329.322 3821.66 329.146 3821.09 329.146 3820.22 329.146 3819.41 329.498 3818.66 330.2 3817.9 330.903 3816.97 332.118 3815.86 333.848L3813.23 332.105C3815.09 329.322 3816.83 327.357 3818.45 326.208 3820.07 325.06 3821.89 324.486 3823.88 324.486Z" fill="#C00000" fill-rule="evenodd"/><text fill="#000000" fill-opacity="0" font-family="Arial,Arial_MSFontService,sans-serif" font-size="57.0625" x="3810.79" y="374.415">𝑦</text></g></svg>