<?xml version="1.0" encoding="UTF-8" standalone="no"?>
<svg
   xmlns:dc="http://purl.org/dc/elements/1.1/"
   xmlns:cc="http://creativecommons.org/ns#"
   xmlns:rdf="http://www.w3.org/1999/02/22-rdf-syntax-ns#"
   xmlns:svg="http://www.w3.org/2000/svg"
   xmlns="http://www.w3.org/2000/svg"
   xmlns:sodipodi="http://sodipodi.sourceforge.net/DTD/sodipodi-0.dtd"
   xmlns:inkscape="http://www.inkscape.org/namespaces/inkscape"
   width="2394"
   height="1318"
   xml:space="preserve"
   overflow="hidden"
   version="1.1"
   id="svg106"
   sodipodi:docname="beam-kinematics-shapefunctions.svg"
   inkscape:version="0.92.5 (2060ec1f9f, 2020-04-08)"><metadata
     id="metadata112"><rdf:RDF><cc:Work
         rdf:about=""><dc:format>image/svg+xml</dc:format><dc:type
           rdf:resource="http://purl.org/dc/dcmitype/StillImage" /><dc:title></dc:title></cc:Work></rdf:RDF></metadata><defs
     id="defs110" /><sodipodi:namedview
     pagecolor="#ffffff"
     bordercolor="#666666"
     borderopacity="1"
     objecttolerance="10"
     gridtolerance="10"
     guidetolerance="10"
     inkscape:pageopacity="0"
     inkscape:pageshadow="2"
     inkscape:window-width="1920"
     inkscape:window-height="1015"
     id="namedview108"
     showgrid="false"
     inkscape:zoom="0.5"
     inkscape:cx="1193.6648"
     inkscape:cy="567.92149"
     inkscape:window-x="0"
     inkscape:window-y="0"
     inkscape:window-maximized="1"
     inkscape:current-layer="svg106" /><path
     style="fill:none;fill-rule:evenodd;stroke:#000000;stroke-width:27.5;stroke-miterlimit:8"
     inkscape:connector-curvature="0"
     id="path2"
     stroke-miterlimit="8"
     d="M 522,455.92 C 1140.11,293.118 1690.94,601.11 1951,789" /><path
     style="fill:#ffffff;fill-rule:evenodd;stroke:#000000;stroke-width:16.04170036;stroke-miterlimit:8"
     inkscape:connector-curvature="0"
     id="path4"
     stroke-miterlimit="8"
     d="m 1926,790.5 c 0,-12.98 10.52,-23.5 23.5,-23.5 12.98,0 23.5,10.52 23.5,23.5 0,12.98 -10.52,23.5 -23.5,23.5 -12.98,0 -23.5,-10.52 -23.5,-23.5 z" /><path
     inkscape:connector-curvature="0"
     id="path6"
     d="m 131.5,1184.92 h 396.55 v 9.16 H 131.5 Z m 371.36,-15.42 34.29,20 -34.29,20 c -2.19,1.28 -4.99,0.54 -6.27,-1.65 -1.27,-2.19 -0.54,-4.99 1.65,-6.27 l 27.5,-16.04 v 7.92 l -27.5,-16.04 c -2.19,-1.28 -2.92,-4.08 -1.65,-6.27 1.28,-2.19 4.08,-2.93 6.27,-1.65 z" /><path
     inkscape:connector-curvature="0"
     id="path8"
     d="m 136.08333,1189.25 3.6e-4,-389.675 h -9.16667 l -3.5e-4,389.675 z M 151.501,824.766 131.50036,790.479 111.4997,824.766 c -1.2755,2.186 -0.5369,4.993 1.6496,6.268 2.1864,1.275 4.9929,0.537 6.2683,-1.65 l 16.04174,-27.5 h -7.91798 l 16.04164,27.5 c 1.2755,2.187 4.0819,2.925 6.2684,1.65 2.1865,-1.275 2.925,-4.082 1.6496,-6.268 z" /><path
     style="fill-rule:evenodd"
     inkscape:connector-curvature="0"
     id="path10"
     d="m 443.28,1248.87 c 0.93,0 1.75,0.1 2.45,0.31 0.71,0.21 1.33,0.53 1.87,0.97 0.54,0.43 1.02,0.99 1.43,1.68 0.42,0.69 0.83,1.63 1.22,2.81 0.39,1.18 0.75,2.65 1.1,4.4 0.34,1.76 0.65,3.57 0.92,5.46 h 0.45 c 2.87,-4.04 5.05,-7 6.53,-8.87 1.49,-1.87 2.74,-3.27 3.76,-4.18 1.01,-0.91 1.99,-1.56 2.94,-1.93 0.94,-0.37 2.19,-0.56 3.75,-0.56 1.41,0 2.56,0.18 3.46,0.54 l -1.8,8.13 h -3.14 c -0.18,-1.26 -0.71,-1.89 -1.58,-1.89 -0.27,0 -0.55,0.05 -0.85,0.14 -0.3,0.09 -0.67,0.28 -1.1,0.58 -0.43,0.3 -1.07,0.88 -1.91,1.75 -0.84,0.87 -1.78,1.93 -2.83,3.19 -1.05,1.26 -2.13,2.58 -3.23,3.95 l -3.06,3.82 c 0.54,2.88 1.05,5.36 1.53,7.46 0.48,2.1 0.9,3.84 1.28,5.23 0.37,1.4 0.7,2.5 0.99,3.31 0.28,0.8 0.59,1.41 0.92,1.81 0.33,0.41 0.66,0.69 1.01,0.86 0.34,0.16 0.74,0.25 1.19,0.25 0.81,0 1.59,-0.32 2.36,-0.95 0.76,-0.63 1.86,-2.05 3.3,-4.27 l 2.92,1.94 c -2.1,3.11 -3.99,5.3 -5.68,6.58 -1.7,1.27 -3.71,1.91 -6.05,1.91 -1.28,0 -2.38,-0.24 -3.27,-0.7 -0.9,-0.46 -1.68,-1.21 -2.34,-2.22 -0.66,-1.02 -1.24,-2.61 -1.75,-4.77 -0.93,-3.83 -1.5,-6.76 -1.71,-8.8 h -0.45 c -3.17,4.46 -5.53,7.67 -7.07,9.61 -1.55,1.95 -2.82,3.39 -3.82,4.32 -1.01,0.92 -1.98,1.58 -2.92,1.95 -0.95,0.37 -2.2,0.56 -3.75,0.56 -1.41,0 -2.56,-0.18 -3.46,-0.54 l 1.79,-8.13 h 3.15 c 0.18,1.26 0.7,1.89 1.57,1.89 0.42,0 0.86,-0.11 1.33,-0.34 0.46,-0.22 1.13,-0.76 2,-1.62 0.86,-0.85 2.06,-2.19 3.59,-4.02 1.53,-1.82 3.74,-4.56 6.65,-8.22 -0.45,-2.36 -0.92,-4.64 -1.39,-6.83 -0.48,-2.18 -0.98,-4.22 -1.49,-6.1 -0.51,-1.89 -0.93,-3.13 -1.25,-3.71 -0.33,-0.58 -0.69,-0.99 -1.06,-1.21 -0.37,-0.23 -0.85,-0.34 -1.42,-0.34 -0.62,0 -1.19,0.14 -1.7,0.43 -0.51,0.28 -1.07,0.77 -1.66,1.48 -0.6,0.7 -1.4,1.8 -2.39,3.3 l -2.92,-1.93 c 1.89,-2.85 3.7,-4.97 5.44,-6.38 1.74,-1.41 3.79,-2.11 6.15,-2.11 z" /><text
     style="font-size:44.42770004px;font-family:Arial, Arial_MSFontService, sans-serif;fill:#000000;fill-opacity:0"
     id="text12"
     y="1287.74"
     x="426.89001"
     font-size="44.4277">𝑥</text>
<path
     style="fill-rule:evenodd"
     inkscape:connector-curvature="0"
     id="path14"
     d="m 16.566,863.76 c 1.228,0 2.276,0.16 3.144,0.49 0.599,0.24 1.198,0.64 1.797,1.19 0.599,0.56 1.131,1.33 1.595,2.32 0.464,0.98 0.868,2.09 1.213,3.32 0.344,1.23 0.726,3 1.145,5.3 0.719,3.86 1.415,7.93 2.089,12.2 0.674,4.27 1.25,8.23 1.73,11.88 2.905,-4.19 5.368,-8.3 7.389,-12.31 2.022,-4.01 3.474,-7.5 4.358,-10.47 0.883,-2.96 1.325,-5.37 1.325,-7.23 0,-1.41 -0.3,-2.36 -0.899,-2.87 -0.599,-0.51 -1.617,-0.81 -3.054,-0.9 l 0.449,-2.2 h 11.814 l 1.213,2.24 c -2.276,6.23 -5.36,12.9 -9.254,19.99 -3.833,6.95 -8.22,13.87 -13.162,20.76 -4.731,6.56 -8.67,11.3 -11.814,14.24 -2.186,2 -4.298,3.44 -6.334,4.31 -1.617,0.66 -3.339,0.99 -5.166,0.99 -0.629,0 -1.355,-0.05 -2.179,-0.16 -0.823,-0.1 -1.46,-0.25 -1.909,-0.43 l 1.932,-8.71 h 3.548 c 0,1.92 0.659,2.87 1.977,2.87 1.737,0 3.758,-1.08 6.064,-3.25 2.306,-2.17 5.017,-5.45 8.131,-9.82 -0.868,-5.24 -2.051,-11.56 -3.549,-18.95 -1.587,-7.91 -2.635,-12.81 -3.144,-14.69 -0.629,-2.28 -1.288,-3.73 -1.977,-4.36 -0.419,-0.39 -0.943,-0.59 -1.572,-0.59 -0.958,0 -1.857,0.39 -2.695,1.17 -0.839,0.78 -1.872,2.13 -3.1,4.05 l -2.92,-1.94 c 2.067,-3.08 3.998,-5.26 5.795,-6.53 1.797,-1.28 3.804,-1.91 6.02,-1.91 z" /><text
     style="font-size:63.25px;font-family:Arial, Arial_MSFontService, sans-serif;fill:#000000;fill-opacity:0"
     id="text16"
     y="919.09998"
     x="2.0560303"
     font-size="63.25">𝑦</text>
<path
     style="fill-rule:evenodd"
     inkscape:connector-curvature="0"
     id="path18"
     d="m 1174.38,533.71 c 2.25,0 4.04,0.63 5.37,1.89 1.34,1.25 2.01,2.91 2.01,4.96 0,0.73 -0.15,1.65 -0.45,2.76 l 0.33,0.12 c 2.27,-3.19 4.64,-5.61 7.13,-7.26 2.49,-1.64 5.24,-2.47 8.27,-2.47 1.78,0 3.67,0.26 5.67,0.77 l -2.39,10.9 h -7.25 c 0,-1.81 -0.2,-3.06 -0.59,-3.77 -0.39,-0.7 -1.06,-1.05 -2.01,-1.05 -0.73,0 -1.52,0.26 -2.39,0.77 -0.86,0.51 -1.9,1.51 -3.1,3 -1.2,1.49 -2.11,2.9 -2.71,4.25 -0.61,1.36 -1.15,3.08 -1.6,5.19 l -4.58,20.79 h -11.64 l 6.53,-28.16 c 0.4,-1.76 0.61,-3.1 0.61,-4.02 0,-0.89 -0.15,-1.58 -0.45,-2.06 -0.3,-0.49 -0.81,-0.73 -1.54,-0.73 -0.84,0 -1.74,0.38 -2.71,1.13 -0.98,0.76 -2.11,1.88 -3.41,3.37 l -2.92,-2.92 c 2.71,-2.76 5.1,-4.69 7.2,-5.8 2.09,-1.1 4.3,-1.66 6.62,-1.66 z" /><text
     style="font-size:40.85160065px;font-family:Arial, Arial_MSFontService, sans-serif;fill:#000000;fill-opacity:0"
     id="text20"
     y="569.45996"
     x="1160.5601"
     font-size="40.8516">𝒓</text>
<path
     style="fill-rule:evenodd"
     inkscape:connector-curvature="0"
     id="path22"
     d="m 1235.56,516 1.09,3.12 c -6.32,2.08 -11,6.14 -14.04,12.18 -3.04,6.04 -4.56,13.62 -4.56,22.76 0,9.45 1.52,17.25 4.56,23.38 3.04,6.13 7.68,10.24 13.92,12.32 l -0.97,3.12 c -7.92,-2.08 -13.98,-6.56 -18.2,-13.43 -4.21,-6.88 -6.32,-15.21 -6.32,-24.99 0,-9.75 2.12,-18.08 6.34,-24.98 4.23,-6.91 10.29,-11.4 18.18,-13.48 z" /><text
     style="font-size:76.88040161px;font-family:Arial, Arial_MSFontService, sans-serif;fill:#000000;fill-opacity:0"
     id="text24"
     y="583.27002"
     x="1211.04"
     font-size="76.8804">(</text>
<path
     style="fill-rule:evenodd"
     inkscape:connector-curvature="0"
     id="path26"
     d="m 1260.74,535.17 c 2.51,0 4.8,0.15 6.86,0.45 2.07,0.29 4.13,0.81 6.19,1.54 l -1.83,8.51 h -3.28 c -0.3,-2.41 -1.09,-4.23 -2.37,-5.47 -1.29,-1.25 -3.31,-1.87 -6.06,-1.87 -2.14,0 -3.86,0.55 -5.19,1.64 -1.32,1.1 -1.98,2.54 -1.98,4.32 0,0.97 0.16,1.83 0.5,2.57 0.34,0.75 1.02,1.56 2.05,2.45 1.03,0.9 2.62,1.99 4.78,3.29 1.7,1.02 3.07,1.96 4.09,2.81 1.03,0.85 1.84,1.7 2.44,2.54 0.59,0.83 1.02,1.72 1.29,2.65 0.27,0.93 0.41,2.06 0.41,3.39 0,2.4 -0.64,4.46 -1.93,6.18 -1.28,1.71 -3.02,2.99 -5.22,3.83 -2.21,0.83 -4.71,1.25 -7.52,1.25 -2.25,0 -4.45,-0.17 -6.61,-0.5 -2.16,-0.34 -4.56,-0.92 -7.21,-1.73 l 1.94,-8.83 h 3.16 c 0.11,2.59 0.84,4.55 2.19,5.87 1.35,1.33 3.5,1.99 6.45,1.99 2.56,0 4.57,-0.57 6.01,-1.72 1.45,-1.15 2.17,-2.78 2.17,-4.89 0,-1.21 -0.2,-2.26 -0.61,-3.14 -0.4,-0.87 -1.06,-1.72 -1.98,-2.53 -0.92,-0.81 -2.38,-1.82 -4.38,-3.04 -2.11,-1.27 -3.75,-2.42 -4.92,-3.44 -1.18,-1.03 -2.06,-2.15 -2.66,-3.35 -0.59,-1.2 -0.89,-2.58 -0.89,-4.15 0,-2.14 0.58,-4.01 1.72,-5.61 1.15,-1.61 2.79,-2.85 4.93,-3.71 2.13,-0.87 4.62,-1.3 7.46,-1.3 z" /><text
     style="font-size:40.08150101px;font-family:Arial, Arial_MSFontService, sans-serif;fill:#000000;fill-opacity:0"
     id="text28"
     y="570.23999"
     x="1240.1499"
     font-size="40.0815">𝑠</text>
<path
     style="fill-rule:evenodd"
     inkscape:connector-curvature="0"
     id="path30"
     d="m 1280.84,516 c 7.89,2.08 13.94,6.57 18.17,13.48 4.23,6.9 6.35,15.23 6.35,24.98 0,9.78 -2.11,18.11 -6.33,24.99 -4.21,6.87 -10.28,11.35 -18.19,13.43 l -0.98,-3.12 c 6.24,-2.08 10.89,-6.19 13.92,-12.32 3.04,-6.13 4.56,-13.93 4.56,-23.38 0,-9.14 -1.51,-16.72 -4.53,-22.76 -3.03,-6.04 -7.72,-10.1 -14.07,-12.18 z" /><text
     style="font-size:76.88040161px;font-family:Arial, Arial_MSFontService, sans-serif;fill:#000000;fill-opacity:0"
     id="text32"
     y="583.27002"
     x="1279.74"
     font-size="76.8804">)</text>
<path
     style="fill:#ffffff;fill-rule:evenodd;stroke:#000000;stroke-width:16.04170036;stroke-miterlimit:8"
     inkscape:connector-curvature="0"
     id="path34"
     stroke-miterlimit="8"
     d="m 497,455.5 c 0,-12.98 10.52,-23.5 23.5,-23.5 12.98,0 23.5,10.52 23.5,23.5 0,12.98 -10.52,23.5 -23.5,23.5 -12.98,0 -23.5,-10.52 -23.5,-23.5 z" /><path
     style="fill:#7f7f7f;fill-rule:evenodd"
     inkscape:connector-curvature="0"
     id="path36"
     d="m 496.74,81.853 c 2.25,0 4.04,0.628 5.37,1.884 1.34,1.257 2.01,2.911 2.01,4.965 0,0.729 -0.15,1.648 -0.45,2.756 l 0.33,0.121 c 2.27,-3.188 4.65,-5.606 7.13,-7.254 2.49,-1.648 5.24,-2.472 8.27,-2.472 1.78,0 3.67,0.256 5.67,0.77 l -2.39,10.902 h -7.25 c 0,-1.811 -0.2,-3.067 -0.59,-3.77 -0.39,-0.702 -1.06,-1.053 -2.01,-1.053 -0.73,0 -1.52,0.256 -2.39,0.77 -0.86,0.513 -1.9,1.513 -3.1,2.999 -1.2,1.486 -2.11,2.904 -2.71,4.255 -0.61,1.351 -1.15,3.08 -1.6,5.188 l -4.58,20.79 h -11.64 l 6.53,-28.166 c 0.4,-1.756 0.61,-3.094 0.61,-4.012 0,-0.892 -0.15,-1.581 -0.45,-2.067 -0.3,-0.487 -0.81,-0.73 -1.54,-0.73 -0.84,0 -1.74,0.378 -2.71,1.135 -0.98,0.756 -2.11,1.878 -3.41,3.364 l -2.92,-2.918 c 2.71,-2.756 5.1,-4.688 7.2,-5.796 2.09,-1.107 4.3,-1.661 6.62,-1.661 z" /><text
     style="font-size:40.85160065px;font-family:Arial, Arial_MSFontService, sans-serif;fill:#000000;fill-opacity:0"
     id="text38"
     y="117.59802"
     x="482.92004"
     font-size="40.8516">𝒓</text>
<path
     style="fill:#7f7f7f;fill-rule:evenodd"
     inkscape:connector-curvature="0"
     id="path40"
     d="m 544.31,102.651 h 1.82 c -0.04,1.092 -0.07,2.07 -0.09,2.934 -0.02,0.864 -0.04,1.703 -0.05,2.517 -0.01,0.814 -0.01,1.618 -0.01,2.413 v 22.636 c 0,0.616 0.02,1.147 0.06,1.594 0.04,0.447 0.1,0.824 0.19,1.132 0.09,0.308 0.21,0.571 0.36,0.789 0.15,0.218 0.32,0.407 0.52,0.566 0.24,0.238 0.56,0.422 0.95,0.551 0.4,0.129 0.91,0.238 1.52,0.328 0.62,0.089 1.36,0.158 2.22,0.208 0.86,0.05 1.9,0.085 3.11,0.104 v 2.592 h -23.62 v -2.592 c 1.17,-0.039 2.17,-0.084 2.98,-0.134 0.82,-0.049 1.51,-0.119 2.09,-0.208 0.57,-0.09 1.03,-0.189 1.38,-0.298 0.35,-0.109 0.65,-0.243 0.91,-0.402 0.28,-0.179 0.52,-0.372 0.72,-0.581 0.19,-0.208 0.35,-0.472 0.47,-0.789 0.12,-0.318 0.22,-0.705 0.28,-1.162 0.07,-0.457 0.11,-1.023 0.11,-1.698 v -21.356 c 0,-0.774 -0.15,-1.32 -0.45,-1.638 -0.3,-0.317 -0.72,-0.476 -1.28,-0.476 -0.61,0 -1.53,0.317 -2.74,0.953 -1.21,0.635 -2.78,1.578 -4.7,2.829 -0.26,-0.456 -0.5,-0.913 -0.72,-1.37 -0.22,-0.456 -0.45,-0.923 -0.68,-1.4 2.46,-1.35 4.89,-2.695 7.31,-4.036 2.41,-1.34 4.86,-2.675 7.34,-4.006 z" /><text
     style="font-size:38.36330032px;font-family:Arial, Arial_MSFontService, sans-serif;fill:#000000;fill-opacity:0"
     id="text42"
     y="136.21899"
     x="529.66003"
     font-size="38.3633">1</text>
<path
     style="fill:#7f7f7f;fill-rule:evenodd"
     inkscape:connector-curvature="0"
     id="path44"
     d="m 557.26,59.484 h 7.69 v 2.323 l -9.92,23.858 -3.49,-1.042 z m -21,0 h 7.69 v 2.323 l -9.92,23.858 -3.49,-1.042 z" /><text
     style="font-size:26.18120003px;font-family:Arial, Arial_MSFontService, sans-serif;fill:#000000;fill-opacity:0"
     id="text46"
     y="82.393005"
     x="530.54004"
     font-size="26.1812">′′</text>
<path
     style="fill:#7f7f7f"
     inkscape:connector-curvature="0"
     id="path48"
     d="M 135.54391,1191.7672 522.357,466.66 514.269,462.346 127.45609,1187.4528 Z M 524.1,496.149 l -1.509,-39.665 -33.785,20.838 c -2.154,1.329 -2.823,4.153 -1.495,6.307 1.329,2.154 4.153,2.824 6.308,1.495 l 27.097,-16.713 -6.986,-3.727 1.21,31.814 c 0.096,2.529 2.225,4.502 4.754,4.406 2.53,-0.096 4.502,-2.225 4.406,-4.755 z" /><path
     style="fill:#7f7f7f;fill-rule:evenodd"
     inkscape:connector-curvature="0"
     id="path50"
     d="m 825.64,240.296 c 2.24,0 4.03,0.628 5.37,1.884 1.34,1.256 2.01,2.911 2.01,4.965 0,0.729 -0.15,1.648 -0.45,2.756 l 0.33,0.121 c 2.27,-3.188 4.64,-5.606 7.13,-7.254 2.48,-1.648 5.24,-2.472 8.27,-2.472 1.78,0 3.67,0.256 5.67,0.77 l -2.39,10.901 h -7.26 c 0,-1.81 -0.19,-3.066 -0.58,-3.769 -0.39,-0.702 -1.06,-1.053 -2.01,-1.053 -0.73,0 -1.53,0.256 -2.39,0.77 -0.86,0.513 -1.9,1.513 -3.1,2.999 -1.2,1.486 -2.11,2.904 -2.72,4.255 -0.6,1.351 -1.14,3.08 -1.6,5.188 l -4.58,20.79 h -11.63 l 6.53,-28.166 c 0.4,-1.757 0.61,-3.094 0.61,-4.013 0,-0.891 -0.15,-1.58 -0.45,-2.066 -0.3,-0.487 -0.81,-0.73 -1.54,-0.73 -0.84,0 -1.74,0.378 -2.72,1.135 -0.97,0.756 -2.1,1.878 -3.4,3.364 l -2.92,-2.918 c 2.7,-2.756 5.1,-4.688 7.2,-5.796 2.09,-1.108 4.3,-1.661 6.62,-1.661 z" /><text
     style="font-size:40.85160065px;font-family:Arial, Arial_MSFontService, sans-serif;fill:#000000;fill-opacity:0"
     id="text52"
     y="276.04102"
     x="811.81995"
     font-size="40.8516">𝒓</text>
<path
     style="fill:#7f7f7f;fill-rule:evenodd"
     inkscape:connector-curvature="0"
     id="path54"
     d="m 873.21,261.094 h 1.81 c -0.04,1.092 -0.07,2.07 -0.09,2.934 -0.02,0.864 -0.03,1.703 -0.04,2.517 -0.01,0.814 -0.01,1.618 -0.01,2.413 v 22.636 c 0,0.616 0.02,1.147 0.05,1.594 0.04,0.447 0.11,0.824 0.2,1.132 0.09,0.307 0.21,0.571 0.36,0.789 0.14,0.218 0.32,0.407 0.52,0.566 0.24,0.238 0.55,0.422 0.95,0.551 0.4,0.129 0.9,0.238 1.52,0.328 0.61,0.089 1.35,0.158 2.22,0.208 0.86,0.05 1.9,0.084 3.11,0.104 v 2.592 h -23.62 v -2.592 c 1.17,-0.039 2.17,-0.084 2.98,-0.134 0.81,-0.049 1.51,-0.119 2.08,-0.208 0.58,-0.09 1.04,-0.189 1.39,-0.298 0.35,-0.109 0.65,-0.243 0.91,-0.402 0.28,-0.179 0.51,-0.373 0.71,-0.581 0.2,-0.209 0.36,-0.472 0.48,-0.789 0.12,-0.318 0.21,-0.705 0.28,-1.162 0.07,-0.457 0.11,-1.023 0.11,-1.698 v -21.356 c 0,-0.774 -0.15,-1.32 -0.45,-1.638 -0.3,-0.318 -0.72,-0.476 -1.28,-0.476 -0.62,0 -1.53,0.317 -2.74,0.953 -1.21,0.635 -2.78,1.578 -4.71,2.829 -0.26,-0.456 -0.49,-0.913 -0.71,-1.37 -0.22,-0.457 -0.45,-0.923 -0.69,-1.4 2.47,-1.35 4.9,-2.695 7.32,-4.036 2.41,-1.34 4.86,-2.675 7.34,-4.006 z" /><text
     style="font-size:38.36330032px;font-family:Arial, Arial_MSFontService, sans-serif;fill:#000000;fill-opacity:0"
     id="text56"
     y="294.66199"
     x="858.55005"
     font-size="38.3633">1</text>
<path
     style="fill:#7f7f7f;fill-rule:evenodd"
     inkscape:connector-curvature="0"
     id="path58"
     d="m 865.16,217.927 h 7.69 v 2.323 l -9.92,23.858 -3.49,-1.042 z" /><text
     style="font-size:26.18120003px;font-family:Arial, Arial_MSFontService, sans-serif;fill:#000000;fill-opacity:0"
     id="text60"
     y="240.836"
     x="859.43994"
     font-size="26.1812">′</text>
<path
     style="fill:#7f7f7f;fill-rule:evenodd"
     inkscape:connector-curvature="0"
     id="path62"
     d="m 378.84,808.18 c 2.24,0 4.03,0.62 5.37,1.88 1.34,1.26 2.01,2.91 2.01,4.97 0,0.72 -0.15,1.64 -0.45,2.75 l 0.32,0.12 c 2.27,-3.19 4.65,-5.6 7.14,-7.25 2.48,-1.65 5.24,-2.47 8.26,-2.47 1.79,0 3.68,0.25 5.68,0.77 l -2.39,10.9 h -7.26 c 0,-1.81 -0.19,-3.07 -0.59,-3.77 -0.39,-0.7 -1.06,-1.05 -2,-1.05 -0.73,0 -1.53,0.25 -2.39,0.77 -0.87,0.51 -1.9,1.51 -3.1,2.99 -1.21,1.49 -2.11,2.91 -2.72,4.26 -0.61,1.35 -1.14,3.08 -1.6,5.19 l -4.58,20.79 h -11.63 l 6.52,-28.17 c 0.41,-1.76 0.61,-3.09 0.61,-4.01 0,-0.89 -0.15,-1.58 -0.44,-2.07 -0.3,-0.48 -0.81,-0.73 -1.54,-0.73 -0.84,0 -1.75,0.38 -2.72,1.14 -0.97,0.75 -2.11,1.88 -3.4,3.36 l -2.92,-2.92 c 2.7,-2.75 5.1,-4.68 7.19,-5.79 2.1,-1.11 4.31,-1.66 6.63,-1.66 z" /><text
     style="font-size:40.85160065px;font-family:Arial, Arial_MSFontService, sans-serif;fill:#000000;fill-opacity:0"
     id="text64"
     y="843.92004"
     x="365.02002"
     font-size="40.8516">𝒓</text>
<path
     style="fill:#7f7f7f;fill-rule:evenodd"
     inkscape:connector-curvature="0"
     id="path66"
     d="m 426.4,827.51 h 1.82 c -0.04,1.09 -0.07,2.07 -0.09,2.93 -0.02,0.87 -0.03,1.7 -0.04,2.52 -0.01,0.81 -0.02,1.62 -0.02,2.41 v 22.64 c 0,0.61 0.02,1.14 0.06,1.59 0.04,0.45 0.11,0.83 0.2,1.13 0.09,0.31 0.2,0.57 0.35,0.79 0.15,0.22 0.33,0.41 0.52,0.57 0.24,0.24 0.56,0.42 0.96,0.55 0.39,0.13 0.9,0.24 1.52,0.33 0.61,0.09 1.35,0.16 2.22,0.21 0.86,0.05 1.9,0.08 3.11,0.1 v 2.59 h -23.62 v -2.59 c 1.17,-0.04 2.16,-0.08 2.98,-0.13 0.81,-0.05 1.51,-0.12 2.08,-0.21 0.58,-0.09 1.04,-0.19 1.39,-0.3 0.34,-0.11 0.65,-0.24 0.91,-0.4 0.27,-0.18 0.51,-0.37 0.71,-0.58 0.2,-0.21 0.36,-0.47 0.48,-0.79 0.12,-0.32 0.21,-0.71 0.28,-1.16 0.07,-0.46 0.1,-1.03 0.1,-1.7 v -21.36 c 0,-0.77 -0.14,-1.32 -0.44,-1.64 -0.3,-0.31 -0.73,-0.47 -1.28,-0.47 -0.62,0 -1.53,0.32 -2.74,0.95 -1.21,0.64 -2.78,1.58 -4.71,2.83 -0.26,-0.46 -0.5,-0.91 -0.71,-1.37 -0.22,-0.46 -0.45,-0.92 -0.69,-1.4 2.46,-1.35 4.9,-2.7 7.31,-4.04 2.42,-1.34 4.86,-2.67 7.34,-4 z" /><text
     style="font-size:38.36330032px;font-family:Arial, Arial_MSFontService, sans-serif;fill:#000000;fill-opacity:0"
     id="text68"
     y="861.07996"
     x="411.75"
     font-size="38.3633">1</text>
<path
     style="fill:#7f7f7f"
     inkscape:connector-curvature="0"
     id="path70"
     d="M 132.48075,1193.7272 1943.93,796.917 1941.97,787.963 130.51925,1184.7728 Z M 1922.62,817.37 l 29.21,-26.875 -37.77,-12.2 c -2.41,-0.778 -5,0.544 -5.77,2.952 -0.78,2.409 0.54,4.993 2.95,5.771 l 30.29,9.785 -1.69,-7.734 -23.43,21.554 c -1.86,1.714 -1.98,4.614 -0.27,6.477 1.71,1.862 4.61,1.983 6.48,0.27 z" /><path
     style="fill:#7f7f7f"
     inkscape:connector-curvature="0"
     id="path72"
     d="M 521.85594,460.10817 1030.554,302.562 1027.843,293.806 519.14406,451.35183 Z M 1011.054,324.741 1037.889,295.492 999.22,286.53 c -2.466,-0.571 -4.928,0.965 -5.5,3.43 -0.571,2.466 0.964,4.929 3.43,5.5 l 31.015,7.188 -2.342,-7.563 -21.523,23.459 c -1.712,1.865 -1.587,4.764 0.278,6.476 1.865,1.711 4.765,1.586 6.476,-0.279 z" /><path
     style="fill:#7f7f7f"
     inkscape:connector-curvature="0"
     id="path74"
     d="M 515.98,456.6 395.55,51.709 404.33,49.096 524.76,453.99 Z M 387.95,80.25 l 9.4,-38.566 28.94,27.162 c 1.85,1.732 1.94,4.632 0.21,6.478 -1.73,1.846 -4.63,1.938 -6.48,0.206 l -23.22,-21.785 7.59,-2.258 -7.53,30.933 c -0.6,2.459 -3.08,3.967 -5.54,3.368 -2.46,-0.599 -3.97,-3.079 -3.37,-5.538 z" /><path
     style="fill:#7f7f7f"
     inkscape:connector-curvature="0"
     id="path76"
     d="m 1954.11,785.73 393.74,273.25 -5.22,7.53 -393.74,-273.24 z m 381.84,246.22 16.76,35.98 -39.57,-3.11 c -2.52,-0.2 -4.41,-2.41 -4.21,-4.93 0.2,-2.53 2.41,-4.41 4.93,-4.21 l 31.74,2.5 -4.51,6.5 -13.45,-28.86 c -1.07,-2.29 -0.08,-5.02 2.22,-6.09 2.29,-1.06 5.02,-0.07 6.09,2.22 z" /><path
     style="fill:#7f7f7f"
     inkscape:connector-curvature="0"
     id="path78"
     d="m 1947.85,792.44 241.24,-346.77 7.52,5.23 -241.23,346.77 z m 214.19,-334.9 36,-16.72 -3.16,39.57 c -0.2,2.52 -2.41,4.4 -4.93,4.2 -2.53,-0.2 -4.41,-2.41 -4.21,-4.93 l 2.54,-31.74 6.5,4.52 -28.87,13.42 c -2.3,1.06 -5.03,0.07 -6.09,-2.23 -1.07,-2.3 -0.07,-5.02 2.22,-6.09 z" /><path
     style="fill:#7f7f7f;fill-rule:evenodd"
     inkscape:connector-curvature="0"
     id="path80"
     d="m 2211.97,552.78 c 2.24,0 4.03,0.63 5.37,1.88 1.33,1.26 2,2.92 2,4.97 0,0.73 -0.15,1.65 -0.44,2.76 l 0.32,0.12 c 2.27,-3.19 4.65,-5.61 7.13,-7.26 2.49,-1.65 5.24,-2.47 8.27,-2.47 1.78,0 3.67,0.26 5.67,0.77 l -2.39,10.9 h -7.25 c 0,-1.81 -0.2,-3.06 -0.59,-3.77 -0.39,-0.7 -1.06,-1.05 -2.01,-1.05 -0.72,0 -1.52,0.26 -2.39,0.77 -0.86,0.51 -1.89,1.51 -3.1,3 -1.2,1.48 -2.1,2.9 -2.71,4.25 -0.61,1.35 -1.14,3.08 -1.6,5.19 l -4.58,20.79 h -11.63 l 6.52,-28.16 c 0.41,-1.76 0.61,-3.1 0.61,-4.02 0,-0.89 -0.15,-1.58 -0.45,-2.06 -0.29,-0.49 -0.81,-0.73 -1.54,-0.73 -0.83,0 -1.74,0.38 -2.71,1.13 -0.97,0.76 -2.11,1.88 -3.41,3.37 l -2.91,-2.92 c 2.7,-2.76 5.1,-4.69 7.19,-5.8 2.09,-1.11 4.3,-1.66 6.63,-1.66 z" /><text
     style="font-size:40.85160065px;font-family:Arial, Arial_MSFontService, sans-serif;fill:#000000;fill-opacity:0"
     id="text82"
     y="588.53003"
     x="2198.1499"
     font-size="40.8516">𝒓</text>
<path
     style="fill:#7f7f7f;fill-rule:evenodd"
     inkscape:connector-curvature="0"
     id="path84"
     d="m 2259.11,573.46 c 2.06,0 3.83,0.24 5.29,0.7 1.46,0.47 2.64,1.1 3.56,1.89 0.91,0.8 1.57,1.75 1.98,2.86 0.4,1.11 0.61,2.32 0.61,3.61 0,0.77 -0.06,1.49 -0.17,2.16 -0.11,0.66 -0.29,1.32 -0.56,1.96 -0.27,0.65 -0.62,1.3 -1.06,1.95 -0.44,0.66 -0.98,1.35 -1.64,2.09 -0.49,0.63 -1.14,1.37 -1.93,2.2 -0.8,0.84 -1.67,1.73 -2.61,2.68 -0.94,0.96 -1.93,1.95 -2.96,2.98 -1.04,1.03 -2.04,2.06 -3.01,3.07 -0.98,1.01 -1.87,1.99 -2.68,2.95 -0.82,0.95 -1.48,1.82 -2,2.62 h 11.02 c 0.94,0 1.68,-0.04 2.24,-0.11 0.55,-0.06 1.01,-0.22 1.38,-0.46 0.37,-0.24 0.68,-0.6 0.94,-1.08 0.26,-0.49 0.55,-1.16 0.89,-2.01 h 2.77 c -0.1,1.41 -0.19,2.83 -0.28,4.25 -0.09,1.43 -0.18,2.85 -0.28,4.26 h -25.23 v -1.54 c 0.48,-1.08 1.03,-2.13 1.67,-3.18 0.63,-1.04 1.35,-2.1 2.14,-3.17 0.8,-1.07 1.7,-2.18 2.71,-3.32 1.01,-1.14 2.14,-2.33 3.37,-3.56 1.86,-1.87 3.38,-3.46 4.55,-4.78 1.18,-1.32 2.1,-2.5 2.77,-3.53 0.68,-1.03 1.14,-1.99 1.39,-2.86 0.25,-0.87 0.37,-1.81 0.37,-2.8 0,-1.01 -0.14,-1.94 -0.43,-2.8 -0.29,-0.85 -0.7,-1.58 -1.24,-2.17 -0.53,-0.6 -1.21,-1.07 -2.04,-1.4 -0.82,-0.34 -1.77,-0.51 -2.84,-0.51 -1.85,0 -3.4,0.5 -4.65,1.51 -1.25,1 -2.22,2.45 -2.92,4.36 h -3.9 v -5.81 c 2.54,-1.05 4.88,-1.82 7.02,-2.29 2.13,-0.48 4.05,-0.72 5.76,-0.72 z" /><text
     style="font-size:38.57180023px;font-family:Arial, Arial_MSFontService, sans-serif;fill:#000000;fill-opacity:0"
     id="text86"
     y="607.20996"
     x="2245.3799"
     font-size="38.5718">2</text>
<path
     style="fill:#7f7f7f;fill-rule:evenodd"
     inkscape:connector-curvature="0"
     id="path88"
     d="m 2272.48,530.3 h 7.69 v 2.32 l -9.92,23.86 -3.48,-1.04 z m -21,0 h 7.69 v 2.32 l -9.92,23.86 -3.48,-1.04 z" /><text
     style="font-size:26.18120003px;font-family:Arial, Arial_MSFontService, sans-serif;fill:#000000;fill-opacity:0"
     id="text90"
     y="553.20996"
     x="2245.77"
     font-size="26.1812">′′</text>
<path
     style="fill:#7f7f7f;fill-rule:evenodd"
     inkscape:connector-curvature="0"
     id="path92"
     d="m 2304.26,901.16 c 2.24,0 4.03,0.63 5.37,1.89 1.34,1.25 2.01,2.91 2.01,4.96 0,0.73 -0.15,1.65 -0.45,2.76 l 0.32,0.12 c 2.27,-3.19 4.65,-5.61 7.14,-7.25 2.48,-1.65 5.24,-2.48 8.26,-2.48 1.79,0 3.68,0.26 5.68,0.77 l -2.39,10.9 h -7.26 c 0,-1.81 -0.19,-3.06 -0.59,-3.76 -0.39,-0.71 -1.06,-1.06 -2,-1.06 -0.73,0 -1.53,0.26 -2.39,0.77 -0.87,0.52 -1.9,1.52 -3.1,3 -1.21,1.49 -2.11,2.91 -2.72,4.26 -0.61,1.35 -1.14,3.08 -1.6,5.18 l -4.58,20.79 h -11.63 l 6.52,-28.16 c 0.41,-1.76 0.61,-3.1 0.61,-4.01 0,-0.9 -0.15,-1.58 -0.44,-2.07 -0.3,-0.49 -0.81,-0.73 -1.54,-0.73 -0.84,0 -1.75,0.38 -2.72,1.13 -0.97,0.76 -2.11,1.88 -3.4,3.37 l -2.92,-2.92 c 2.7,-2.76 5.1,-4.69 7.19,-5.8 2.1,-1.1 4.31,-1.66 6.63,-1.66 z" /><text
     style="font-size:40.85160065px;font-family:Arial, Arial_MSFontService, sans-serif;fill:#000000;fill-opacity:0"
     id="text94"
     y="936.91003"
     x="2290.4399"
     font-size="40.8516">𝒓</text>
<path
     style="fill:#7f7f7f;fill-rule:evenodd"
     inkscape:connector-curvature="0"
     id="path96"
     d="m 2351.4,921.84 c 2.07,0 3.83,0.24 5.29,0.7 1.46,0.47 2.65,1.1 3.56,1.9 0.91,0.79 1.57,1.74 1.98,2.86 0.41,1.11 0.61,2.31 0.61,3.6 0,0.77 -0.05,1.49 -0.16,2.16 -0.11,0.66 -0.3,1.32 -0.57,1.96 -0.27,0.65 -0.62,1.3 -1.06,1.96 -0.43,0.65 -0.98,1.35 -1.63,2.08 -0.5,0.64 -1.15,1.37 -1.94,2.2 -0.79,0.84 -1.66,1.73 -2.61,2.69 -0.94,0.95 -1.93,1.94 -2.96,2.97 -1.03,1.04 -2.04,2.06 -3.01,3.07 -0.97,1.01 -1.86,2 -2.68,2.95 -0.81,0.95 -1.48,1.83 -1.99,2.62 h 11.02 c 0.93,0 1.67,-0.03 2.23,-0.1 0.56,-0.07 1.02,-0.23 1.38,-0.46 0.37,-0.24 0.68,-0.6 0.94,-1.09 0.26,-0.49 0.56,-1.16 0.9,-2.01 h 2.77 c -0.1,1.41 -0.2,2.83 -0.29,4.26 -0.09,1.43 -0.18,2.85 -0.28,4.26 h -25.23 v -1.55 c 0.48,-1.07 1.04,-2.13 1.67,-3.17 0.64,-1.05 1.35,-2.1 2.15,-3.18 0.79,-1.07 1.69,-2.18 2.71,-3.32 1.01,-1.14 2.13,-2.33 3.36,-3.56 1.87,-1.86 3.39,-3.46 4.56,-4.78 1.17,-1.32 2.09,-2.49 2.77,-3.53 0.67,-1.03 1.14,-1.98 1.38,-2.86 0.25,-0.87 0.38,-1.8 0.38,-2.8 0,-1.01 -0.15,-1.94 -0.44,-2.8 -0.28,-0.85 -0.7,-1.57 -1.23,-2.17 -0.54,-0.6 -1.22,-1.06 -2.04,-1.4 -0.83,-0.34 -1.77,-0.51 -2.85,-0.51 -1.84,0 -3.39,0.51 -4.64,1.51 -1.25,1 -2.23,2.46 -2.92,4.36 h -3.9 v -5.81 c 2.54,-1.05 4.88,-1.81 7.01,-2.29 2.13,-0.48 4.06,-0.72 5.76,-0.72 z" /><text
     style="font-size:38.57180023px;font-family:Arial, Arial_MSFontService, sans-serif;fill:#000000;fill-opacity:0"
     id="text98"
     y="955.59998"
     x="2337.6699"
     font-size="38.5718">2</text>
<path
     style="fill:#7f7f7f;fill-rule:evenodd"
     inkscape:connector-curvature="0"
     id="path100"
     d="m 2343.78,878.68 h 7.68 V 881 l -9.92,23.86 -3.48,-1.04 z" /><text
     style="font-size:26.18120003px;font-family:Arial, Arial_MSFontService, sans-serif;fill:#000000;fill-opacity:0"
     id="text102"
     y="901.58997"
     x="2338.0601"
     font-size="26.1812">′</text>
<path
     style="fill:#7f7f7f;fill-rule:evenodd"
     inkscape:connector-curvature="0"
     id="path62-3"
     d="m 1171.7485,996.69211 c 2.24,0 4.03,0.62 5.37,1.88 1.34,1.26 2.01,2.90999 2.01,4.96999 0,0.72 -0.15,1.64 -0.45,2.75 l 0.32,0.12 c 2.27,-3.19 4.65,-5.6 7.14,-7.24999 2.48,-1.65 5.24,-2.47 8.26,-2.47 1.79,0 3.68,0.25 5.68,0.77 l -2.39,10.89999 h -7.26 c 0,-1.81 -0.19,-3.07 -0.59,-3.77 -0.39,-0.7 -1.06,-1.05 -2,-1.05 -0.73,0 -1.53,0.25 -2.39,0.77 -0.87,0.51 -1.9,1.51 -3.1,2.99 -1.21,1.49 -2.11,2.91 -2.72,4.26 -0.61,1.35 -1.14,3.08 -1.6,5.19 l -4.58,20.79 h -11.63 l 6.52,-28.17 c 0.41,-1.76 0.61,-3.09 0.61,-4.01 0,-0.89 -0.15,-1.58 -0.44,-2.07 -0.3,-0.48 -0.81,-0.73 -1.54,-0.73 -0.84,0 -1.75,0.38 -2.72,1.14 -0.97,0.75 -2.11,1.88 -3.4,3.36 l -2.92,-2.92 c 2.7,-2.75 5.1,-4.67999 7.19,-5.78999 2.1,-1.11 4.31,-1.66 6.63,-1.66 z" /><text
     style="font-size:40.85160065px;font-family:Arial, Arial_MSFontService, sans-serif;fill:#000000;fill-opacity:0"
     id="text64-6"
     y="1032.4321"
     x="1157.9285"
     font-size="40.8516">𝒓</text>
<text
     style="font-size:38.36330032px;font-family:Arial, Arial_MSFontService, sans-serif;fill:#000000;fill-opacity:0"
     id="text68-5"
     y="1037.592"
     x="1204.6584"
     font-size="38.3633" />
<path
     style="fill:#7f7f7f;fill-rule:evenodd"
     inkscape:connector-curvature="0"
     id="path96-3"
     d="m 1218.4185,1015.8021 c 2.07,0 3.83,0.24 5.29,0.7 1.46,0.47 2.65,1.1 3.56,1.9 0.91,0.79 1.57,1.74 1.98,2.86 0.41,1.11 0.61,2.31 0.61,3.6 0,0.77 -0.05,1.49 -0.16,2.16 -0.11,0.66 -0.3,1.32 -0.57,1.96 -0.27,0.65 -0.62,1.3 -1.06,1.96 -0.43,0.65 -0.98,1.35 -1.63,2.08 -0.5,0.64 -1.15,1.37 -1.94,2.2 -0.79,0.84 -1.66,1.73 -2.61,2.69 -0.94,0.95 -1.93,1.94 -2.96,2.97 -1.03,1.04 -2.04,2.06 -3.01,3.07 -0.97,1.01 -1.86,2 -2.68,2.95 -0.81,0.95 -1.48,1.83 -1.99,2.62 h 11.02 c 0.93,0 1.67,-0.03 2.23,-0.1 0.56,-0.07 1.02,-0.23 1.38,-0.46 0.37,-0.24 0.68,-0.6 0.94,-1.09 0.26,-0.49 0.56,-1.16 0.9,-2.01 h 2.77 c -0.1,1.41 -0.2,2.83 -0.29,4.26 -0.09,1.43 -0.18,2.85 -0.28,4.26 h -25.23 v -1.55 c 0.48,-1.07 1.04,-2.13 1.67,-3.17 0.64,-1.05 1.35,-2.1 2.15,-3.18 0.79,-1.07 1.69,-2.18 2.71,-3.32 1.01,-1.14 2.13,-2.33 3.36,-3.56 1.87,-1.86 3.39,-3.46 4.56,-4.78 1.17,-1.32 2.09,-2.49 2.77,-3.53 0.67,-1.03 1.14,-1.98 1.38,-2.86 0.25,-0.87 0.38,-1.8 0.38,-2.8 0,-1.01 -0.15,-1.94 -0.44,-2.8 -0.28,-0.85 -0.7,-1.57 -1.23,-2.17 -0.54,-0.6 -1.22,-1.06 -2.04,-1.4 -0.83,-0.34 -1.77,-0.51 -2.85,-0.51 -1.84,0 -3.39,0.51 -4.64,1.51 -1.25,1 -2.23,2.46 -2.92,4.36 h -3.9 v -5.81 c 2.54,-1.05 4.88,-1.81 7.01,-2.29 2.13,-0.48 4.06,-0.72 5.76,-0.72 z" /></svg>