<svg width="2422" height="1479" xmlns="http://www.w3.org/2000/svg" xmlns:xlink="http://www.w3.org/1999/xlink" xml:space="preserve" overflow="hidden"><g transform="translate(-1873 -260)"><path d="M2213.5 324.258C2901.55 134.359 3632.7 742.587 4217.16 353.614L4290.5 526.19C3680.37 983.967 2981.87 358.492 2263.56 542.887L2213.5 324.258Z" stroke="#000000" stroke-width="6.875" stroke-miterlimit="8" fill="#F5F5F5" fill-rule="evenodd"/><path d="M2238.5 439.385C2905.04 264.165 3665.97 806.273 4247.5 455.833" stroke="#000000" stroke-width="6.875" stroke-miterlimit="8" stroke-dasharray="27.5 20.625" fill="none" fill-rule="evenodd"/><path d="M1900.95 1045.23C1903.19 1045.23 1904.98 1045.86 1906.32 1047.12 1907.66 1048.37 1908.32 1050.03 1908.32 1052.08 1908.32 1052.81 1908.18 1053.73 1907.88 1054.84L1908.2 1054.96C1910.47 1051.77 1912.85 1049.35 1915.34 1047.7 1917.82 1046.06 1920.58 1045.23 1923.6 1045.23 1925.39 1045.23 1927.28 1045.49 1929.28 1046L1926.89 1056.9 1919.63 1056.9C1919.63 1055.09 1919.44 1053.84 1919.04 1053.14 1918.65 1052.43 1917.98 1052.08 1917.04 1052.08 1916.31 1052.08 1915.51 1052.34 1914.65 1052.85 1913.78 1053.36 1912.75 1054.36 1911.55 1055.85 1910.34 1057.34 1909.44 1058.76 1908.83 1060.11 1908.22 1061.46 1907.69 1063.19 1907.23 1065.29L1902.65 1086.08 1891.02 1086.08 1897.54 1057.92C1897.95 1056.16 1898.15 1054.82 1898.15 1053.91 1898.15 1053.01 1898 1052.32 1897.71 1051.84 1897.41 1051.35 1896.9 1051.11 1896.17 1051.11 1895.33 1051.11 1894.42 1051.49 1893.45 1052.24 1892.48 1053 1891.34 1054.12 1890.05 1055.61L1887.13 1052.69C1889.83 1049.93 1892.23 1048 1894.32 1046.89 1896.42 1045.79 1898.62 1045.23 1900.95 1045.23Z" fill-rule="evenodd"/><text fill="#000000" fill-opacity="0" font-family="Arial,Arial_MSFontService,sans-serif" font-size="40.8516" x="1887.13" y="1080.98">𝒓</text><path d="M1947.97 1067.25C1946.58 1067.25 1945.42 1067.61 1944.49 1068.33 1943.56 1069.06 1942.82 1070.12 1942.27 1071.52 1941.72 1072.92 1941.34 1074.63 1941.11 1076.64 1940.88 1078.66 1940.77 1080.95 1940.77 1083.51 1940.77 1086.47 1940.91 1089.02 1941.2 1091.18 1941.49 1093.33 1941.93 1095.1 1942.54 1096.49 1943.14 1097.88 1943.9 1098.91 1944.82 1099.56 1945.73 1100.22 1946.82 1100.54 1948.09 1100.54 1949.28 1100.54 1950.33 1100.24 1951.22 1099.62 1952.11 1099.01 1952.85 1098.05 1953.44 1096.75 1954.02 1095.45 1954.47 1093.8 1954.76 1091.8 1955.06 1089.81 1955.21 1087.45 1955.21 1084.73 1955.21 1081.67 1955.05 1079.04 1954.72 1076.84 1954.39 1074.63 1953.93 1072.82 1953.33 1071.4 1952.74 1069.98 1951.99 1068.93 1951.09 1068.26 1950.18 1067.58 1949.15 1067.25 1947.97 1067.25ZM1948.09 1064.36C1950.46 1064.36 1952.48 1064.8 1954.15 1065.68 1955.83 1066.57 1957.2 1067.83 1958.26 1069.46 1959.33 1071.1 1960.11 1073.1 1960.6 1075.47 1961.1 1077.83 1961.35 1080.5 1961.35 1083.48 1961.35 1090.09 1960.18 1095.09 1957.83 1098.47 1955.49 1101.86 1952.09 1103.55 1947.65 1103.55 1943.24 1103.55 1939.96 1101.95 1937.82 1098.76 1935.67 1095.56 1934.6 1090.72 1934.6 1084.22 1934.6 1080.83 1934.93 1077.89 1935.6 1075.41 1936.26 1072.92 1937.2 1070.86 1938.4 1069.23 1939.6 1067.59 1941.02 1066.37 1942.67 1065.56 1944.32 1064.76 1946.13 1064.36 1948.09 1064.36Z" fill-rule="evenodd"/><text fill="#000000" fill-opacity="0" font-family="Arial,Arial_MSFontService,sans-serif" font-size="39.1973" x="1934.6" y="1098.65">0</text><path d="M2000.49 1027.52 2001.58 1030.64C1995.26 1032.72 1990.58 1036.78 1987.54 1042.82 1984.5 1048.86 1982.98 1056.44 1982.98 1065.58 1982.98 1075.03 1984.5 1082.83 1987.54 1088.96 1990.58 1095.09 1995.22 1099.2 2001.46 1101.28L2000.49 1104.4C1992.57 1102.32 1986.51 1097.84 1982.29 1090.97 1978.08 1084.09 1975.97 1075.76 1975.97 1065.98 1975.97 1056.23 1978.08 1047.9 1982.31 1041 1986.54 1034.09 1992.6 1029.6 2000.49 1027.52Z" fill-rule="evenodd"/><text fill="#000000" fill-opacity="0" font-family="Arial,Arial_MSFontService,sans-serif" font-size="76.8804" x="1975.97" y="1094.79">(</text><path d="M2025.66 1046.69C2028.18 1046.69 2030.47 1046.84 2032.53 1047.14 2034.6 1047.43 2036.66 1047.95 2038.71 1048.68L2036.89 1057.19 2033.61 1057.19C2033.31 1054.78 2032.52 1052.96 2031.24 1051.72 2029.95 1050.47 2027.93 1049.85 2025.18 1049.85 2023.04 1049.85 2021.31 1050.4 2019.99 1051.49 2018.67 1052.59 2018 1054.03 2018 1055.81 2018 1056.78 2018.17 1057.64 2018.51 1058.38 2018.85 1059.13 2019.53 1059.94 2020.56 1060.84 2021.58 1061.73 2023.18 1062.82 2025.34 1064.12 2027.04 1065.14 2028.41 1066.08 2029.43 1066.93 2030.46 1067.79 2031.27 1068.63 2031.86 1069.47 2032.46 1070.31 2032.89 1071.19 2033.16 1072.12 2033.43 1073.05 2033.57 1074.18 2033.57 1075.51 2033.57 1077.91 2032.92 1079.97 2031.64 1081.69 2030.36 1083.4 2028.61 1084.68 2026.41 1085.52 2024.21 1086.35 2021.7 1086.77 2018.89 1086.77 2016.65 1086.77 2014.45 1086.6 2012.29 1086.27 2010.13 1085.93 2007.72 1085.35 2005.07 1084.54L2007.02 1075.71 2010.18 1075.71C2010.29 1078.3 2011.02 1080.26 2012.37 1081.59 2013.72 1082.91 2015.87 1083.57 2018.81 1083.57 2021.38 1083.57 2023.39 1083 2024.83 1081.85 2026.28 1080.7 2027 1079.07 2027 1076.97 2027 1075.75 2026.8 1074.7 2026.39 1073.82 2025.99 1072.95 2025.32 1072.1 2024.41 1071.29 2023.49 1070.48 2022.03 1069.47 2020.03 1068.25 2017.92 1066.98 2016.28 1065.83 2015.11 1064.81 2013.93 1063.78 2013.05 1062.67 2012.45 1061.46 2011.86 1060.26 2011.56 1058.88 2011.56 1057.31 2011.56 1055.18 2012.13 1053.3 2013.28 1051.7 2014.43 1050.09 2016.07 1048.85 2018.21 1047.99 2020.34 1047.12 2022.83 1046.69 2025.66 1046.69Z" fill-rule="evenodd"/><text fill="#000000" fill-opacity="0" font-family="Arial,Arial_MSFontService,sans-serif" font-size="40.0815" x="2005.07" y="1081.76">𝑠</text><path d="M2045.76 1027.52C2053.65 1029.6 2059.71 1034.09 2063.94 1041 2068.17 1047.9 2070.28 1056.23 2070.28 1065.98 2070.28 1075.76 2068.18 1084.09 2063.96 1090.97 2059.75 1097.84 2053.68 1102.32 2045.76 1104.4L2044.79 1101.28C2051.03 1099.2 2055.67 1095.09 2058.71 1088.96 2061.75 1082.83 2063.27 1075.03 2063.27 1065.58 2063.27 1056.44 2061.76 1048.86 2058.73 1042.82 2055.71 1036.78 2051.02 1032.72 2044.67 1030.64Z" fill-rule="evenodd"/><text fill="#000000" fill-opacity="0" font-family="Arial,Arial_MSFontService,sans-serif" font-size="76.8804" x="2044.67" y="1094.79">)</text><path d="M1898.46 391.428C1900.7 391.428 1902.49 392.056 1903.83 393.312 1905.16 394.569 1905.83 396.224 1905.83 398.277 1905.83 399.006 1905.68 399.925 1905.39 401.033L1905.71 401.154C1907.98 397.966 1910.36 395.548 1912.84 393.9 1915.33 392.252 1918.08 391.428 1921.11 391.428 1922.89 391.428 1924.79 391.685 1926.78 392.198L1924.39 403.1 1917.14 403.1C1917.14 401.29 1916.94 400.033 1916.55 399.331 1916.16 398.628 1915.49 398.277 1914.55 398.277 1913.82 398.277 1913.02 398.534 1912.15 399.047 1911.29 399.56 1910.26 400.56 1909.05 402.046 1907.85 403.532 1906.95 404.95 1906.34 406.301 1905.73 407.652 1905.2 409.381 1904.74 411.489L1900.16 432.279 1888.53 432.279 1895.05 404.113C1895.46 402.357 1895.66 401.019 1895.66 400.101 1895.66 399.209 1895.51 398.52 1895.21 398.034 1894.92 397.547 1894.4 397.304 1893.67 397.304 1892.84 397.304 1891.93 397.683 1890.96 398.439 1889.99 399.196 1888.85 400.317 1887.55 401.803L1884.64 398.885C1887.34 396.129 1889.74 394.197 1891.83 393.089 1893.92 391.982 1896.13 391.428 1898.46 391.428Z" fill-rule="evenodd"/><text fill="#000000" fill-opacity="0" font-family="Arial,Arial_MSFontService,sans-serif" font-size="40.8516" x="1884.64" y="427.173">𝒓</text><path d="M1940.63 411.773 1945.27 411.773 1943.58 419.338 1953.7 419.338 1953.02 422.644 1942.92 422.644 1939.88 435.124C1939.68 435.958 1939.52 436.708 1939.39 437.373 1939.26 438.038 1939.16 438.639 1939.08 439.175 1939 439.711 1938.94 440.198 1938.91 440.634 1938.88 441.071 1938.87 441.478 1938.87 441.856 1938.87 443.047 1939.12 443.98 1939.61 444.655 1940.11 445.331 1940.92 445.668 1942.06 445.668 1943.01 445.668 1944.02 445.316 1945.09 444.611 1946.17 443.906 1947.39 442.799 1948.76 441.29L1950.81 443.375C1949.8 444.506 1948.84 445.47 1947.92 446.264 1947.01 447.058 1946.12 447.708 1945.24 448.215 1944.37 448.721 1943.51 449.088 1942.65 449.317 1941.8 449.545 1940.92 449.659 1940.03 449.659 1937.67 449.659 1935.91 449.103 1934.74 447.991 1933.58 446.879 1933 445.241 1933 443.077 1933 442.342 1933.06 441.533 1933.17 440.649 1933.27 439.766 1933.43 438.907 1933.63 438.073L1937.17 422.644 1932.05 422.644 1932.64 420.351C1933.84 420.351 1934.76 420.237 1935.43 420.008 1936.09 419.78 1936.66 419.467 1937.11 419.07 1937.41 418.792 1937.7 418.449 1937.98 418.042 1938.25 417.635 1938.53 417.144 1938.81 416.568 1939.09 415.992 1939.37 415.312 1939.66 414.528 1939.95 413.743 1940.27 412.825 1940.63 411.773Z" fill-rule="evenodd"/><text fill="#000000" fill-opacity="0" font-family="Arial,Arial_MSFontService,sans-serif" font-size="37.8867" x="1932.05" y="444.923">𝑡</text><path d="M2009.34 373.717 2010.43 376.838C2004.11 378.918 1999.43 382.978 1996.39 389.016 1993.35 395.055 1991.83 402.64 1991.83 411.773 1991.83 421.229 1993.35 429.024 1996.39 435.157 1999.43 441.29 2004.07 445.397 2010.31 447.477L2009.34 450.598C2001.42 448.517 1995.36 444.039 1991.14 437.163 1986.93 430.287 1984.82 421.958 1984.82 412.178 1984.82 402.424 1986.93 394.096 1991.16 387.193 1995.39 380.29 2001.45 375.798 2009.34 373.717Z" fill-rule="evenodd"/><text fill="#000000" fill-opacity="0" font-family="Arial,Arial_MSFontService,sans-serif" font-size="76.8804" x="1984.82" y="440.988">(</text><path d="M2034.51 392.887C2037.03 392.887 2039.32 393.035 2041.38 393.333 2043.45 393.63 2045.51 394.143 2047.56 394.873L2045.74 403.383 2042.46 403.383C2042.16 400.979 2041.37 399.155 2040.09 397.912 2038.8 396.669 2036.78 396.048 2034.03 396.048 2031.89 396.048 2030.16 396.595 2028.84 397.689 2027.52 398.784 2026.85 400.222 2026.85 402.005 2026.85 402.978 2027.02 403.836 2027.36 404.579 2027.7 405.322 2028.38 406.139 2029.41 407.031 2030.43 407.922 2032.03 409.017 2034.19 410.314 2035.89 411.34 2037.26 412.279 2038.28 413.13 2039.31 413.981 2040.12 414.826 2040.71 415.663 2041.31 416.501 2041.74 417.386 2042.01 418.318 2042.28 419.25 2042.42 420.378 2042.42 421.702 2042.42 424.106 2041.78 426.167 2040.49 427.882 2039.21 429.598 2037.47 430.874 2035.26 431.712 2033.06 432.55 2030.56 432.968 2027.75 432.968 2025.5 432.968 2023.3 432.8 2021.14 432.462 2018.98 432.124 2016.57 431.55 2013.93 430.739L2015.87 421.904 2019.03 421.904C2019.14 424.498 2019.87 426.457 2021.22 427.781 2022.57 429.105 2024.72 429.767 2027.67 429.767 2030.23 429.767 2032.24 429.193 2033.68 428.044 2035.13 426.896 2035.85 425.268 2035.85 423.161 2035.85 421.945 2035.65 420.898 2035.24 420.02 2034.84 419.142 2034.18 418.297 2033.26 417.487 2032.34 416.676 2030.88 415.663 2028.88 414.447 2026.77 413.178 2025.13 412.029 2023.96 411.003 2022.78 409.976 2021.9 408.861 2021.3 407.659 2020.71 406.457 2020.41 405.072 2020.41 403.505 2020.41 401.371 2020.98 399.5 2022.13 397.892 2023.28 396.284 2024.92 395.048 2027.06 394.184 2029.19 393.319 2031.68 392.887 2034.51 392.887Z" fill-rule="evenodd"/><text fill="#000000" fill-opacity="0" font-family="Arial,Arial_MSFontService,sans-serif" font-size="40.0815" x="2013.93" y="427.958">𝑠</text><path d="M2054.62 373.717C2062.5 375.798 2068.56 380.29 2072.79 387.193 2077.02 394.096 2079.13 402.424 2079.13 412.178 2079.13 421.958 2077.03 430.287 2072.81 437.163 2068.6 444.039 2062.53 448.517 2054.62 450.598L2053.64 447.477C2059.88 445.397 2064.52 441.29 2067.56 435.157 2070.6 429.024 2072.12 421.229 2072.12 411.773 2072.12 402.64 2070.61 395.055 2067.58 389.016 2064.56 382.978 2059.87 378.918 2053.52 376.838Z" fill-rule="evenodd"/><text fill="#000000" fill-opacity="0" font-family="Arial,Arial_MSFontService,sans-serif" font-size="76.8804" x="2053.52" y="440.988">)</text><path d="M2213.5 966.813C2840.83 878.013 3523.16 906.813 4117.5 966.813L4101 1189.5C3501.16 1119.9 2876.58 1122.3 2243.74 1187.1L2213.5 966.813Z" stroke="#000000" stroke-width="6.875" stroke-miterlimit="8" fill="#F5F5F5" fill-rule="evenodd"/><path d="M0 0C655.641 83.9778 1256.28 45.5878 1890 4.79694" stroke="#000000" stroke-width="6.875" stroke-miterlimit="8" stroke-dasharray="27.5 20.625" fill="#F5F5F5" fill-rule="evenodd" transform="matrix(1 0 0 -1 2225.5 1080.5)"/><path d="M1900.33 1576.37C1902.57 1576.37 1904.36 1577 1905.7 1578.25 1907.04 1579.51 1907.71 1581.16 1907.71 1583.22 1907.71 1583.95 1907.56 1584.87 1907.26 1585.97L1907.58 1586.09C1909.85 1582.91 1912.23 1580.49 1914.72 1578.84 1917.2 1577.19 1919.96 1576.37 1922.98 1576.37 1924.77 1576.37 1926.66 1576.62 1928.66 1577.14L1926.27 1588.04 1919.01 1588.04C1919.01 1586.23 1918.82 1584.97 1918.43 1584.27 1918.03 1583.57 1917.36 1583.22 1916.42 1583.22 1915.69 1583.22 1914.89 1583.47 1914.03 1583.99 1913.16 1584.5 1912.13 1585.5 1910.93 1586.99 1909.73 1588.47 1908.82 1589.89 1908.21 1591.24 1907.6 1592.59 1907.07 1594.32 1906.61 1596.43L1902.03 1617.22 1890.4 1617.22 1896.93 1589.05C1897.33 1587.3 1897.53 1585.96 1897.53 1585.04 1897.53 1584.15 1897.38 1583.46 1897.09 1582.97 1896.79 1582.49 1896.28 1582.24 1895.55 1582.24 1894.71 1582.24 1893.8 1582.62 1892.83 1583.38 1891.86 1584.14 1890.72 1585.26 1889.43 1586.74L1886.51 1583.83C1889.21 1581.07 1891.61 1579.14 1893.7 1578.03 1895.8 1576.92 1898.01 1576.37 1900.33 1576.37Z" fill-rule="evenodd"/><text fill="#000000" fill-opacity="0" font-family="Arial,Arial_MSFontService,sans-serif" font-size="40.8516" x="1886.51" y="1612.11">𝒓</text><path d="M1950.9 1606.6C1949.81 1606.6 1948.73 1606.87 1947.67 1607.41 1946.61 1607.94 1945.6 1608.7 1944.66 1609.68 1943.72 1610.67 1942.86 1611.86 1942.08 1613.26 1941.31 1614.66 1940.66 1616.22 1940.15 1617.95 1942.67 1617.93 1944.84 1617.73 1946.65 1617.35 1948.47 1616.98 1949.96 1616.46 1951.12 1615.81 1952.28 1615.15 1953.14 1614.38 1953.68 1613.48 1954.23 1612.59 1954.5 1611.61 1954.5 1610.53 1954.5 1609.3 1954.2 1608.34 1953.58 1607.64 1952.96 1606.95 1952.07 1606.6 1950.9 1606.6ZM1952.18 1603.65C1954.72 1603.65 1956.65 1604.21 1957.97 1605.32 1959.29 1606.43 1959.95 1608.01 1959.95 1610.06 1959.95 1617.24 1953.15 1620.84 1939.55 1620.84 1939.45 1621.36 1939.37 1621.92 1939.31 1622.52 1939.25 1623.13 1939.22 1623.79 1939.22 1624.5 1939.22 1626.67 1939.67 1628.25 1940.55 1629.24 1941.43 1630.23 1942.81 1630.73 1944.67 1630.73 1945.65 1630.73 1946.57 1630.62 1947.44 1630.41 1948.32 1630.21 1949.18 1629.88 1950.02 1629.45 1950.86 1629.01 1951.71 1628.45 1952.57 1627.76 1953.42 1627.08 1954.31 1626.26 1955.25 1625.31L1957.48 1627.72C1955.18 1630 1952.88 1631.72 1950.59 1632.87 1948.29 1634.02 1945.83 1634.6 1943.18 1634.6 1941.64 1634.6 1940.26 1634.37 1939.06 1633.9 1937.86 1633.43 1936.85 1632.75 1936.02 1631.86 1935.2 1630.97 1934.57 1629.88 1934.15 1628.6 1933.72 1627.32 1933.5 1625.87 1933.5 1624.26 1933.5 1623.13 1933.6 1621.96 1933.8 1620.73 1934 1619.51 1934.31 1618.29 1934.73 1617.07 1935.14 1615.85 1935.66 1614.66 1936.27 1613.5 1936.89 1612.34 1937.62 1611.25 1938.45 1610.24 1940.12 1608.17 1942.13 1606.56 1944.48 1605.4 1946.83 1604.23 1949.4 1603.65 1952.18 1603.65Z" fill-rule="evenodd"/><text fill="#000000" fill-opacity="0" font-family="Arial,Arial_MSFontService,sans-serif" font-size="30.9468" x="1933.5" y="1630.73">𝑒</text><path d="M2017.72 1558.66 2018.81 1561.78C2012.49 1563.86 2007.81 1567.92 2004.77 1573.96 2001.73 1580 2000.21 1587.58 2000.21 1596.71 2000.21 1606.17 2001.73 1613.96 2004.77 1620.1 2007.81 1626.23 2012.45 1630.34 2018.69 1632.42L2017.72 1635.54C2009.8 1633.46 2003.74 1628.98 1999.52 1622.1 1995.31 1615.23 1993.2 1606.9 1993.2 1597.12 1993.2 1587.36 1995.32 1579.04 1999.54 1572.13 2003.77 1565.23 2009.83 1560.74 2017.72 1558.66Z" fill-rule="evenodd"/><text fill="#000000" fill-opacity="0" font-family="Arial,Arial_MSFontService,sans-serif" font-size="76.8804" x="1993.2" y="1625.93">(</text><path d="M2042.9 1577.83C2045.41 1577.83 2047.7 1577.98 2049.77 1578.27 2051.83 1578.57 2053.89 1579.08 2055.95 1579.81L2054.12 1588.32 2050.84 1588.32C2050.54 1585.92 2049.75 1584.1 2048.47 1582.85 2047.19 1581.61 2045.17 1580.99 2042.41 1580.99 2040.28 1580.99 2038.55 1581.54 2037.22 1582.63 2035.9 1583.72 2035.24 1585.16 2035.24 1586.95 2035.24 1587.92 2035.41 1588.78 2035.74 1589.52 2036.08 1590.26 2036.76 1591.08 2037.79 1591.97 2038.82 1592.86 2040.41 1593.96 2042.57 1595.25 2044.27 1596.28 2045.64 1597.22 2046.67 1598.07 2047.69 1598.92 2048.5 1599.77 2049.1 1600.6 2049.69 1601.44 2050.12 1602.33 2050.39 1603.26 2050.66 1604.19 2050.8 1605.32 2050.8 1606.64 2050.8 1609.05 2050.16 1611.11 2048.87 1612.82 2047.59 1614.54 2045.85 1615.81 2043.65 1616.65 2041.44 1617.49 2038.94 1617.91 2036.13 1617.91 2033.89 1617.91 2031.68 1617.74 2029.52 1617.4 2027.36 1617.06 2024.96 1616.49 2022.31 1615.68L2024.25 1606.84 2027.41 1606.84C2027.52 1609.44 2028.25 1611.4 2029.6 1612.72 2030.95 1614.05 2033.1 1614.71 2036.05 1614.71 2038.61 1614.71 2040.62 1614.13 2042.07 1612.98 2043.51 1611.84 2044.23 1610.21 2044.23 1608.1 2044.23 1606.89 2044.03 1605.84 2043.63 1604.96 2043.22 1604.08 2042.56 1603.24 2041.64 1602.43 2040.72 1601.62 2039.26 1600.6 2037.26 1599.39 2035.16 1598.12 2033.51 1596.97 2032.34 1595.94 2031.16 1594.92 2030.28 1593.8 2029.68 1592.6 2029.09 1591.4 2028.79 1590.01 2028.79 1588.45 2028.79 1586.31 2029.37 1584.44 2030.51 1582.83 2031.66 1581.22 2033.3 1579.99 2035.44 1579.12 2037.57 1578.26 2040.06 1577.83 2042.9 1577.83Z" fill-rule="evenodd"/><text fill="#000000" fill-opacity="0" font-family="Arial,Arial_MSFontService,sans-serif" font-size="40.0815" x="2022.31" y="1612.9">𝑠</text><path d="M2063 1558.66C2070.89 1560.74 2076.95 1565.23 2081.17 1572.13 2085.4 1579.04 2087.52 1587.36 2087.52 1597.12 2087.52 1606.9 2085.41 1615.23 2081.19 1622.1 2076.98 1628.98 2070.91 1633.46 2063 1635.54L2062.02 1632.42C2068.27 1630.34 2072.91 1626.23 2075.95 1620.1 2078.99 1613.96 2080.51 1606.17 2080.51 1596.71 2080.51 1587.58 2078.99 1580 2075.97 1573.96 2072.94 1567.92 2068.25 1563.86 2061.9 1561.78Z" fill-rule="evenodd"/><text fill="#000000" fill-opacity="0" font-family="Arial,Arial_MSFontService,sans-serif" font-size="76.8804" x="2061.9" y="1625.93">)</text><path d="M2213.5 1511.81C2840.83 1423.01 3523.16 1451.81 4117.5 1511.81L4101 1734.5C3501.16 1664.9 2876.58 1667.3 2243.74 1732.1L2213.5 1511.81Z" stroke="#000000" stroke-width="6.875" stroke-miterlimit="8" fill="#F5F5F5" fill-rule="evenodd"/><path d="M0 0C655.641 83.9784 1256.28 45.5881 1890 4.79698" stroke="#000000" stroke-width="6.875" stroke-miterlimit="8" stroke-dasharray="27.5 20.625" fill="#F5F5F5" fill-rule="evenodd" transform="matrix(1 0 0 -1 2225.5 1625.5)"/></g></svg>