<svg width="2543" height="1637" xmlns="http://www.w3.org/2000/svg" xmlns:xlink="http://www.w3.org/1999/xlink" xml:space="preserve" overflow="hidden"><g transform="translate(-1648 -158)"><rect x="1919.5" y="1358.5" width="2120" height="290" stroke="#A6A6A6" stroke-width="6.875" stroke-miterlimit="8" fill="#F5F5F5"/><path d="M1918.5 1503.5 4039.05 1503.5" stroke="#A6A6A6" stroke-width="6.875" stroke-miterlimit="8" stroke-dasharray="27.5 20.625" fill="#F5F5F5" fill-rule="evenodd"/><path d="M1918.5 1498.92 2315.05 1498.92 2315.05 1508.08 1918.5 1508.08ZM2289.86 1483.5 2324.15 1503.5 2289.86 1523.5C2287.67 1524.78 2284.87 1524.04 2283.59 1521.85 2282.32 1519.67 2283.05 1516.86 2285.24 1515.58L2312.74 1499.54 2312.74 1507.46 2285.24 1491.42C2283.05 1490.14 2282.32 1487.34 2283.59 1485.15 2284.87 1482.96 2287.67 1482.22 2289.86 1483.5Z"/><path d="M4.58333-4.14819e-06 4.58369 389.675-4.58298 389.675-4.58333 4.14819e-06ZM20.001 364.484 0.00036178 398.771-20.0003 364.484C-21.2758 362.298-20.5372 359.491-18.3507 358.216-16.1643 356.941-13.3578 357.679-12.0824 359.866L3.95934 387.366-3.95864 387.366 12.083 359.866C13.3585 357.679 16.1649 356.941 18.3514 358.216 20.5379 359.491 21.2764 362.298 20.001 364.484Z" transform="matrix(1 0 0 -1 1918.5 1503.25)"/><path d="M3.24091-3.24091 227.137 220.655 220.655 227.137-3.24091 3.24091ZM220.226 191.94 230.328 230.328 191.94 220.226C189.493 219.581 188.03 217.075 188.674 214.627 189.319 212.179 191.825 210.717 194.273 211.361L225.062 219.463 219.463 225.062 211.361 194.273C210.717 191.825 212.179 189.319 214.627 188.674 217.075 188.03 219.581 189.493 220.226 191.94Z" transform="matrix(-1 0 0 1 1918.81 1503.5)"/><path d="M2230.4 1563.24C2231.33 1563.24 2232.15 1563.34 2232.85 1563.55 2233.56 1563.76 2234.18 1564.08 2234.72 1564.52 2235.26 1564.95 2235.74 1565.51 2236.15 1566.2 2236.57 1566.89 2236.98 1567.83 2237.37 1569.01 2237.76 1570.19 2238.12 1571.66 2238.47 1573.41 2238.81 1575.16 2239.12 1576.98 2239.39 1578.87L2239.84 1578.87C2242.71 1574.83 2244.89 1571.87 2246.37 1570 2247.86 1568.13 2249.11 1566.73 2250.13 1565.82 2251.14 1564.91 2252.12 1564.26 2253.07 1563.89 2254.01 1563.51 2255.26 1563.33 2256.82 1563.33 2258.23 1563.33 2259.38 1563.51 2260.28 1563.87L2258.48 1572 2255.34 1572C2255.16 1570.74 2254.63 1570.11 2253.76 1570.11 2253.49 1570.11 2253.21 1570.16 2252.91 1570.24 2252.61 1570.33 2252.24 1570.53 2251.81 1570.83 2251.38 1571.13 2250.74 1571.71 2249.9 1572.58 2249.06 1573.45 2248.12 1574.51 2247.07 1575.77 2246.02 1577.03 2244.94 1578.35 2243.84 1579.72L2240.78 1583.54C2241.32 1586.42 2241.83 1588.9 2242.31 1591 2242.79 1593.1 2243.22 1594.84 2243.59 1596.23 2243.96 1597.62 2244.29 1598.73 2244.58 1599.53 2244.86 1600.34 2245.17 1600.95 2245.5 1601.35 2245.83 1601.76 2246.16 1602.04 2246.51 1602.21 2246.85 1602.37 2247.25 1602.45 2247.7 1602.45 2248.51 1602.45 2249.29 1602.14 2250.06 1601.51 2250.82 1600.88 2251.92 1599.46 2253.36 1597.24L2256.28 1599.17C2254.18 1602.29 2252.29 1604.48 2250.6 1605.76 2248.91 1607.03 2246.89 1607.66 2244.56 1607.66 2243.27 1607.66 2242.17 1607.43 2241.28 1606.97 2240.38 1606.5 2239.6 1605.76 2238.94 1604.74 2238.28 1603.73 2237.7 1602.14 2237.19 1599.98 2236.26 1596.15 2235.69 1593.21 2235.48 1591.18L2235.03 1591.18C2231.86 1595.64 2229.5 1598.85 2227.96 1600.79 2226.41 1602.74 2225.14 1604.18 2224.14 1605.1 2223.14 1606.03 2222.16 1606.68 2221.22 1607.06 2220.27 1607.43 2219.02 1607.62 2217.47 1607.62 2216.06 1607.62 2214.91 1607.44 2214.01 1607.08L2215.81 1598.95 2218.95 1598.95C2219.13 1600.21 2219.65 1600.84 2220.52 1600.84 2220.94 1600.84 2221.38 1600.72 2221.85 1600.5 2222.31 1600.28 2222.98 1599.74 2223.85 1598.88 2224.71 1598.03 2225.91 1596.69 2227.44 1594.86 2228.97 1593.04 2231.18 1590.3 2234.09 1586.64 2233.64 1584.28 2233.18 1582 2232.7 1579.81 2232.22 1577.63 2231.72 1575.59 2231.21 1573.7 2230.7 1571.82 2230.28 1570.58 2229.96 1570 2229.63 1569.41 2229.27 1569.01 2228.9 1568.78 2228.53 1568.56 2228.05 1568.45 2227.48 1568.45 2226.86 1568.45 2226.29 1568.59 2225.78 1568.87 2225.27 1569.16 2224.71 1569.65 2224.12 1570.36 2223.52 1571.06 2222.72 1572.16 2221.73 1573.66L2218.81 1571.73C2220.7 1568.88 2222.51 1566.76 2224.25 1565.35 2225.99 1563.94 2228.04 1563.24 2230.4 1563.24Z" fill-rule="evenodd"/><text fill="#000000" fill-opacity="0" font-family="Arial,Arial_MSFontService,sans-serif" font-size="44.4277" x="2214.01" y="1602.11">𝑥</text><path d="M1803.69 1178.13C1804.91 1178.13 1805.96 1178.29 1806.83 1178.62 1807.43 1178.86 1808.03 1179.26 1808.63 1179.81 1809.23 1180.37 1809.76 1181.14 1810.22 1182.13 1810.69 1183.11 1811.09 1184.22 1811.43 1185.45 1811.78 1186.68 1812.16 1188.44 1812.58 1190.75 1813.3 1194.61 1814 1198.68 1814.67 1202.95 1815.34 1207.21 1815.92 1211.17 1816.4 1214.83 1819.3 1210.64 1821.77 1206.53 1823.79 1202.52 1825.81 1198.51 1827.26 1195.02 1828.15 1192.05 1829.03 1189.09 1829.47 1186.68 1829.47 1184.82 1829.47 1183.41 1829.17 1182.45 1828.57 1181.95 1827.97 1181.44 1826.96 1181.14 1825.52 1181.05L1825.97 1178.85 1837.78 1178.85 1838.99 1181.09C1836.72 1187.32 1833.63 1193.98 1829.74 1201.08 1825.91 1208.03 1821.52 1214.95 1816.58 1221.84 1811.85 1228.39 1807.91 1233.14 1804.76 1236.08 1802.58 1238.08 1800.47 1239.52 1798.43 1240.39 1796.81 1241.05 1795.09 1241.38 1793.26 1241.38 1792.64 1241.38 1791.91 1241.32 1791.09 1241.22 1790.26 1241.11 1789.63 1240.97 1789.18 1240.79L1791.11 1232.08 1794.66 1232.08C1794.66 1233.99 1795.32 1234.95 1796.63 1234.95 1798.37 1234.95 1800.39 1233.87 1802.7 1231.7 1805 1229.53 1807.71 1226.25 1810.83 1221.88 1809.96 1216.64 1808.78 1210.32 1807.28 1202.92 1805.69 1195.02 1804.64 1190.12 1804.14 1188.23 1803.51 1185.96 1802.85 1184.51 1802.16 1183.88 1801.74 1183.49 1801.22 1183.29 1800.59 1183.29 1799.63 1183.29 1798.73 1183.68 1797.89 1184.46 1797.05 1185.24 1796.02 1186.59 1794.79 1188.5L1791.87 1186.57C1793.94 1183.49 1795.87 1181.31 1797.67 1180.04 1799.46 1178.76 1801.47 1178.13 1803.69 1178.13Z" fill-rule="evenodd"/><text fill="#000000" fill-opacity="0" font-family="Arial,Arial_MSFontService,sans-serif" font-size="63.25" x="1789.18" y="1233.47">𝑦</text><path d="M1702.87 1564 1734.81 1564 1735.66 1566.25 1714.23 1590.86C1710.07 1595.63 1706.46 1599.67 1703.41 1602.99L1703.68 1603.31 1713.83 1603.31C1715.63 1603.31 1717 1603.21 1717.96 1603.02 1718.92 1602.82 1719.76 1602.45 1720.48 1601.91 1721.2 1601.38 1721.94 1600.56 1722.7 1599.47 1723.47 1598.37 1724.42 1596.66 1725.55 1594.32L1729.55 1594.32 1726.81 1606.95 1694.29 1606.95 1693.44 1604.74 1718.01 1576.44C1721.48 1572.46 1724.03 1569.63 1725.64 1567.95L1725.38 1567.64 1714.86 1567.64C1713.31 1567.64 1712.17 1567.74 1711.45 1567.95 1710.73 1568.16 1710.01 1568.53 1709.29 1569.05 1708.57 1569.58 1707.8 1570.36 1706.98 1571.39 1706.16 1572.42 1705.23 1573.9 1704.22 1575.82L1700.22 1575.82Z" fill-rule="evenodd"/><text fill="#000000" fill-opacity="0" font-family="Arial,Arial_MSFontService,sans-serif" font-size="42.9453" x="1693.44" y="1601.58">𝑧</text><path d="M2279.75 993.418C2282 993.418 2283.79 994.046 2285.12 995.302 2286.46 996.559 2287.13 998.214 2287.13 1000.27 2287.13 1001 2286.98 1001.92 2286.68 1003.02L2287.01 1003.14C2289.28 999.956 2291.66 997.538 2294.14 995.89 2296.63 994.242 2299.38 993.418 2302.41 993.418 2304.19 993.418 2306.08 993.675 2308.08 994.188L2305.69 1005.09 2298.44 1005.09C2298.44 1003.28 2298.24 1002.02 2297.85 1001.32 2297.46 1000.62 2296.79 1000.27 2295.84 1000.27 2295.11 1000.27 2294.32 1000.52 2293.45 1001.04 2292.59 1001.55 2291.55 1002.55 2290.35 1004.04 2289.15 1005.52 2288.24 1006.94 2287.64 1008.29 2287.03 1009.64 2286.49 1011.37 2286.04 1013.48L2281.46 1034.27 2269.82 1034.27 2276.35 1006.1C2276.75 1004.35 2276.96 1003.01 2276.96 1002.09 2276.96 1001.2 2276.81 1000.51 2276.51 1000.02 2276.21 999.538 2275.7 999.294 2274.97 999.294 2274.13 999.294 2273.23 999.673 2272.26 1000.43 2271.28 1001.19 2270.15 1002.31 2268.85 1003.79L2265.93 1000.88C2268.64 998.119 2271.03 996.187 2273.13 995.08 2275.22 993.972 2277.43 993.418 2279.75 993.418Z" fill-rule="evenodd"/><text fill="#000000" fill-opacity="0" font-family="Arial,Arial_MSFontService,sans-serif" font-size="40.8516" x="2265.93" y="1029.16">𝒓</text><path d="M2340.93 975.708 2342.02 978.828C2335.7 980.909 2331.02 984.968 2327.98 991.007 2324.94 997.045 2323.42 1004.63 2323.42 1013.76 2323.42 1023.22 2324.94 1031.01 2327.98 1037.15 2331.02 1043.28 2335.66 1047.39 2341.9 1049.47L2340.93 1052.59C2333.01 1050.51 2326.95 1046.03 2322.73 1039.15 2318.52 1032.28 2316.41 1023.95 2316.41 1014.17 2316.41 1004.41 2318.53 996.086 2322.75 989.183 2326.98 982.28 2333.04 977.788 2340.93 975.708Z" fill-rule="evenodd"/><text fill="#000000" fill-opacity="0" font-family="Arial,Arial_MSFontService,sans-serif" font-size="76.8804" x="2316.41" y="1042.98">(</text><path d="M2366.11 994.877C2368.62 994.877 2370.91 995.026 2372.97 995.323 2375.04 995.62 2377.1 996.133 2379.16 996.863L2377.33 1005.37 2374.05 1005.37C2373.75 1002.97 2372.96 1001.15 2371.68 999.902 2370.39 998.659 2368.38 998.038 2365.62 998.038 2363.48 998.038 2361.76 998.585 2360.43 999.679 2359.11 1000.77 2358.45 1002.21 2358.45 1004 2358.45 1004.97 2358.61 1005.83 2358.95 1006.57 2359.29 1007.31 2359.97 1008.13 2361 1009.02 2362.03 1009.91 2363.62 1011.01 2365.78 1012.3 2367.48 1013.33 2368.85 1014.27 2369.87 1015.12 2370.9 1015.97 2371.71 1016.82 2372.31 1017.65 2372.9 1018.49 2373.33 1019.38 2373.6 1020.31 2373.87 1021.24 2374.01 1022.37 2374.01 1023.69 2374.01 1026.1 2373.37 1028.16 2372.08 1029.87 2370.8 1031.59 2369.06 1032.86 2366.86 1033.7 2364.65 1034.54 2362.15 1034.96 2359.34 1034.96 2357.09 1034.96 2354.89 1034.79 2352.73 1034.45 2350.57 1034.11 2348.17 1033.54 2345.52 1032.73L2347.46 1023.89 2350.62 1023.89C2350.73 1026.49 2351.46 1028.45 2352.81 1029.77 2354.16 1031.09 2356.31 1031.76 2359.26 1031.76 2361.82 1031.76 2363.83 1031.18 2365.27 1030.03 2366.72 1028.89 2367.44 1027.26 2367.44 1025.15 2367.44 1023.94 2367.24 1022.89 2366.83 1022.01 2366.43 1021.13 2365.77 1020.29 2364.85 1019.48 2363.93 1018.67 2362.47 1017.65 2360.47 1016.44 2358.36 1015.17 2356.72 1014.02 2355.55 1012.99 2354.37 1011.97 2353.49 1010.85 2352.89 1009.65 2352.3 1008.45 2352 1007.06 2352 1005.5 2352 1003.36 2352.58 1001.49 2353.72 999.882 2354.87 998.274 2356.51 997.038 2358.65 996.174 2360.78 995.309 2363.27 994.877 2366.11 994.877Z" fill-rule="evenodd"/><text fill="#000000" fill-opacity="0" font-family="Arial,Arial_MSFontService,sans-serif" font-size="40.0815" x="2345.52" y="1029.95">𝑠</text><path d="M2386.21 975.708C2394.1 977.788 2400.16 982.28 2404.38 989.183 2408.61 996.086 2410.73 1004.41 2410.73 1014.17 2410.73 1023.95 2408.62 1032.28 2404.4 1039.15 2400.19 1046.03 2394.12 1050.51 2386.21 1052.59L2385.23 1049.47C2391.48 1047.39 2396.12 1043.28 2399.16 1037.15 2402.19 1031.01 2403.71 1023.22 2403.71 1013.76 2403.71 1004.63 2402.2 997.045 2399.18 991.007 2396.15 984.968 2391.46 980.909 2385.11 978.828Z" fill-rule="evenodd"/><text fill="#000000" fill-opacity="0" font-family="Arial,Arial_MSFontService,sans-serif" font-size="76.8804" x="2385.11" y="1042.98">)</text><path d="M1950.5 418.603C2737.38 210.896 3345.5 581.556 3991.44 415.161L4070.5 719.782C3285.91 921.751 2721.33 548.796 2026.13 716.339L1950.5 418.603Z" stroke="#000000" stroke-width="6.875" stroke-miterlimit="8" fill="#F5F5F5" fill-rule="evenodd"/><path d="M4032.5 570.734C3268.68 735.471 2724.82 378.348 1988.5 567.278" stroke="#000000" stroke-width="6.875" stroke-miterlimit="8" stroke-dasharray="27.5 20.625" fill="#F5F5F5" fill-rule="evenodd"/><path d="M1861.47 1732.62C1863.99 1732.62 1866.28 1732.77 1868.34 1733.06 1870.41 1733.36 1872.47 1733.87 1874.52 1734.6L1872.7 1743.11 1869.42 1743.11C1869.12 1740.71 1868.33 1738.89 1867.05 1737.64 1865.76 1736.4 1863.74 1735.78 1860.99 1735.78 1858.85 1735.78 1857.12 1736.33 1855.8 1737.42 1854.48 1738.51 1853.81 1739.95 1853.81 1741.74 1853.81 1742.71 1853.98 1743.57 1854.32 1744.31 1854.66 1745.05 1855.34 1745.87 1856.37 1746.76 1857.39 1747.65 1858.99 1748.75 1861.15 1750.04 1862.85 1751.07 1864.22 1752.01 1865.24 1752.86 1866.27 1753.71 1867.08 1754.56 1867.67 1755.39 1868.27 1756.23 1868.7 1757.12 1868.97 1758.05 1869.24 1758.98 1869.38 1760.11 1869.38 1761.43 1869.38 1763.84 1868.73 1765.9 1867.45 1767.61 1866.17 1769.33 1864.43 1770.61 1862.22 1771.44 1860.02 1772.28 1857.52 1772.7 1854.71 1772.7 1852.46 1772.7 1850.26 1772.53 1848.1 1772.19 1845.94 1771.85 1843.53 1771.28 1840.89 1770.47L1842.83 1761.64 1845.99 1761.64C1846.1 1764.23 1846.83 1766.19 1848.18 1767.51 1849.53 1768.84 1851.68 1769.5 1854.62 1769.5 1857.19 1769.5 1859.2 1768.92 1860.64 1767.78 1862.09 1766.63 1862.81 1765 1862.81 1762.89 1862.81 1761.68 1862.61 1760.63 1862.2 1759.75 1861.8 1758.87 1861.14 1758.03 1860.22 1757.22 1859.3 1756.41 1857.84 1755.39 1855.84 1754.18 1853.73 1752.91 1852.09 1751.76 1850.92 1750.73 1849.74 1749.71 1848.86 1748.59 1848.26 1747.39 1847.67 1746.19 1847.37 1744.8 1847.37 1743.24 1847.37 1741.1 1847.94 1739.23 1849.09 1737.62 1850.24 1736.02 1851.88 1734.78 1854.02 1733.91 1856.15 1733.05 1858.64 1732.62 1861.47 1732.62Z" fill="#7F7F7F" fill-rule="evenodd"/><text fill="#000000" fill-opacity="0" font-family="Arial,Arial_MSFontService,sans-serif" font-size="40.0815" x="1840.89" y="1767.69">𝑠</text><path d="M1907.9 1754.02 1957.83 1754.02 1957.83 1759.41 1907.9 1759.41ZM1907.9 1737.2 1957.83 1737.2 1957.83 1742.59 1907.9 1742.59Z" fill="#7F7F7F" fill-rule="evenodd"/><text fill="#000000" fill-opacity="0" font-family="Arial,Arial_MSFontService,sans-serif" font-size="22.209" x="1907.9" y="1756.63">=</text><path d="M2009.26 1732.62C2011.78 1732.62 2014.07 1732.77 2016.13 1733.06 2018.2 1733.36 2020.26 1733.87 2022.31 1734.6L2020.49 1743.11 2017.21 1743.11C2016.91 1740.71 2016.12 1738.89 2014.84 1737.64 2013.55 1736.4 2011.53 1735.78 2008.78 1735.78 2006.64 1735.78 2004.91 1736.33 2003.59 1737.42 2002.27 1738.51 2001.6 1739.95 2001.6 1741.74 2001.6 1742.71 2001.77 1743.57 2002.11 1744.31 2002.45 1745.05 2003.13 1745.87 2004.16 1746.76 2005.18 1747.65 2006.78 1748.75 2008.94 1750.04 2010.64 1751.07 2012.01 1752.01 2013.03 1752.86 2014.06 1753.71 2014.87 1754.56 2015.46 1755.39 2016.06 1756.23 2016.49 1757.12 2016.76 1758.05 2017.03 1758.98 2017.17 1760.11 2017.17 1761.43 2017.17 1763.84 2016.52 1765.9 2015.24 1767.61 2013.96 1769.33 2012.21 1770.61 2010.01 1771.44 2007.81 1772.28 2005.31 1772.7 2002.5 1772.7 2000.25 1772.7 1998.05 1772.53 1995.89 1772.19 1993.73 1771.85 1991.32 1771.28 1988.68 1770.47L1990.62 1761.64 1993.78 1761.64C1993.89 1764.23 1994.62 1766.19 1995.97 1767.51 1997.32 1768.84 1999.47 1769.5 2002.41 1769.5 2004.98 1769.5 2006.99 1768.92 2008.43 1767.78 2009.88 1766.63 2010.6 1765 2010.6 1762.89 2010.6 1761.68 2010.4 1760.63 2009.99 1759.75 2009.59 1758.87 2008.93 1758.03 2008.01 1757.22 2007.09 1756.41 2005.63 1755.39 2003.63 1754.18 2001.52 1752.91 1999.88 1751.76 1998.71 1750.73 1997.53 1749.71 1996.65 1748.59 1996.05 1747.39 1995.46 1746.19 1995.16 1744.8 1995.16 1743.24 1995.16 1741.1 1995.73 1739.23 1996.88 1737.62 1998.03 1736.02 1999.67 1734.78 2001.81 1733.91 2003.94 1733.05 2006.43 1732.62 2009.26 1732.62Z" fill="#7F7F7F" fill-rule="evenodd"/><text fill="#000000" fill-opacity="0" font-family="Arial,Arial_MSFontService,sans-serif" font-size="40.0815" x="1988.68" y="1767.69">𝑠</text><path d="M2040.68 1753.17C2039.29 1753.17 2038.13 1753.53 2037.2 1754.26 2036.26 1754.98 2035.52 1756.05 2034.98 1757.45 2034.43 1758.85 2034.04 1760.55 2033.81 1762.57 2033.59 1764.58 2033.47 1766.87 2033.47 1769.43 2033.47 1772.39 2033.62 1774.95 2033.9 1777.1 2034.19 1779.26 2034.64 1781.03 2035.24 1782.42 2035.85 1783.81 2036.61 1784.83 2037.52 1785.49 2038.44 1786.14 2039.53 1786.47 2040.8 1786.47 2041.99 1786.47 2043.03 1786.16 2043.93 1785.55 2044.82 1784.93 2045.56 1783.97 2046.15 1782.67 2046.73 1781.37 2047.17 1779.72 2047.47 1777.73 2047.77 1775.73 2047.92 1773.38 2047.92 1770.66 2047.92 1767.6 2047.75 1764.97 2047.43 1762.76 2047.1 1760.56 2046.64 1758.75 2046.04 1757.33 2045.45 1755.91 2044.7 1754.86 2043.79 1754.18 2042.89 1753.51 2041.85 1753.17 2040.68 1753.17ZM2040.8 1750.28C2043.16 1750.28 2045.18 1750.72 2046.86 1751.61 2048.54 1752.49 2049.91 1753.75 2050.97 1755.39 2052.03 1757.03 2052.81 1759.03 2053.31 1761.39 2053.81 1763.76 2054.05 1766.43 2054.05 1769.4 2054.05 1776.02 2052.88 1781.02 2050.54 1784.4 2048.2 1787.79 2044.8 1789.48 2040.35 1789.48 2035.94 1789.48 2032.67 1787.88 2030.52 1784.68 2028.38 1781.49 2027.31 1776.64 2027.31 1770.15 2027.31 1766.75 2027.64 1763.81 2028.3 1761.33 2028.97 1758.85 2029.9 1756.79 2031.1 1755.15 2032.31 1753.51 2033.73 1752.29 2035.38 1751.49 2037.03 1750.68 2038.83 1750.28 2040.8 1750.28Z" fill="#7F7F7F" fill-rule="evenodd"/><text fill="#000000" fill-opacity="0" font-family="Arial,Arial_MSFontService,sans-serif" font-size="39.1973" x="2027.31" y="1784.58">0</text><path d="M3982.48 1731.1C3984.99 1731.1 3987.28 1731.25 3989.35 1731.54 3991.41 1731.84 3993.47 1732.35 3995.53 1733.08L3993.7 1741.59 3990.42 1741.59C3990.12 1739.19 3989.33 1737.36 3988.05 1736.12 3986.77 1734.88 3984.75 1734.26 3981.99 1734.26 3979.86 1734.26 3978.13 1734.8 3976.8 1735.9 3975.48 1736.99 3974.82 1738.43 3974.82 1740.22 3974.82 1741.19 3974.99 1742.05 3975.32 1742.79 3975.66 1743.53 3976.34 1744.35 3977.37 1745.24 3978.4 1746.13 3979.99 1747.23 3982.15 1748.52 3983.86 1749.55 3985.22 1750.49 3986.25 1751.34 3987.27 1752.19 3988.08 1753.04 3988.68 1753.87 3989.27 1754.71 3989.7 1755.6 3989.98 1756.53 3990.25 1757.46 3990.38 1758.59 3990.38 1759.91 3990.38 1762.32 3989.74 1764.38 3988.46 1766.09 3987.17 1767.81 3985.43 1769.08 3983.23 1769.92 3981.03 1770.76 3978.52 1771.18 3975.71 1771.18 3973.47 1771.18 3971.26 1771.01 3969.1 1770.67 3966.94 1770.33 3964.54 1769.76 3961.89 1768.95L3963.83 1760.11 3967 1760.11C3967.1 1762.71 3967.83 1764.67 3969.18 1765.99 3970.54 1767.31 3972.68 1767.98 3975.63 1767.98 3978.2 1767.98 3980.2 1767.4 3981.65 1766.25 3983.09 1765.11 3983.81 1763.48 3983.81 1761.37 3983.81 1760.15 3983.61 1759.11 3983.21 1758.23 3982.8 1757.35 3982.14 1756.51 3981.22 1755.7 3980.3 1754.89 3978.84 1753.87 3976.84 1752.66 3974.74 1751.39 3973.1 1750.24 3971.92 1749.21 3970.74 1748.19 3969.86 1747.07 3969.27 1745.87 3968.67 1744.67 3968.37 1743.28 3968.37 1741.71 3968.37 1739.58 3968.95 1737.71 3970.1 1736.1 3971.24 1734.49 3972.89 1733.26 3975.02 1732.39 3977.16 1731.53 3979.64 1731.1 3982.48 1731.1Z" fill="#7F7F7F" fill-rule="evenodd"/><text fill="#000000" fill-opacity="0" font-family="Arial,Arial_MSFontService,sans-serif" font-size="40.0815" x="3961.89" y="1766.17">𝑠</text><path d="M4028.9 1752.5 4078.83 1752.5 4078.83 1757.89 4028.9 1757.89ZM4028.9 1735.68 4078.83 1735.68 4078.83 1741.07 4028.9 1741.07Z" fill="#7F7F7F" fill-rule="evenodd"/><text fill="#000000" fill-opacity="0" font-family="Arial,Arial_MSFontService,sans-serif" font-size="22.209" x="4028.9" y="1755.11">=</text><path d="M4130.27 1731.1C4132.78 1731.1 4135.07 1731.25 4137.14 1731.54 4139.2 1731.84 4141.26 1732.35 4143.32 1733.08L4141.49 1741.59 4138.21 1741.59C4137.91 1739.19 4137.12 1737.36 4135.84 1736.12 4134.56 1734.88 4132.54 1734.26 4129.78 1734.26 4127.65 1734.26 4125.92 1734.8 4124.59 1735.9 4123.27 1736.99 4122.61 1738.43 4122.61 1740.22 4122.61 1741.19 4122.78 1742.05 4123.11 1742.79 4123.45 1743.53 4124.13 1744.35 4125.16 1745.24 4126.19 1746.13 4127.78 1747.23 4129.94 1748.52 4131.65 1749.55 4133.01 1750.49 4134.04 1751.34 4135.06 1752.19 4135.87 1753.04 4136.47 1753.87 4137.06 1754.71 4137.49 1755.6 4137.76 1756.53 4138.03 1757.46 4138.17 1758.59 4138.17 1759.91 4138.17 1762.32 4137.53 1764.38 4136.24 1766.09 4134.96 1767.81 4133.22 1769.08 4131.02 1769.92 4128.81 1770.76 4126.31 1771.18 4123.5 1771.18 4121.26 1771.18 4119.05 1771.01 4116.89 1770.67 4114.73 1770.33 4112.33 1769.76 4109.68 1768.95L4111.62 1760.11 4114.79 1760.11C4114.89 1762.71 4115.62 1764.67 4116.97 1765.99 4118.33 1767.31 4120.47 1767.98 4123.42 1767.98 4125.98 1767.98 4127.99 1767.4 4129.44 1766.25 4130.88 1765.11 4131.6 1763.48 4131.6 1761.37 4131.6 1760.15 4131.4 1759.11 4131 1758.23 4130.59 1757.35 4129.93 1756.51 4129.01 1755.7 4128.09 1754.89 4126.63 1753.87 4124.63 1752.66 4122.53 1751.39 4120.88 1750.24 4119.71 1749.21 4118.53 1748.19 4117.65 1747.07 4117.06 1745.87 4116.46 1744.67 4116.16 1743.28 4116.16 1741.71 4116.16 1739.58 4116.74 1737.71 4117.89 1736.1 4119.03 1734.49 4120.68 1733.26 4122.81 1732.39 4124.94 1731.53 4127.43 1731.1 4130.27 1731.1Z" fill="#7F7F7F" fill-rule="evenodd"/><text fill="#000000" fill-opacity="0" font-family="Arial,Arial_MSFontService,sans-serif" font-size="40.0815" x="4109.68" y="1766.17">𝑠</text><path d="M4162.22 1748.97 4164.04 1748.97C4164 1750.06 4163.97 1751.04 4163.95 1751.9 4163.93 1752.77 4163.92 1753.61 4163.91 1754.42 4163.9 1755.23 4163.89 1756.04 4163.89 1756.83L4163.89 1779.47C4163.89 1780.09 4163.91 1780.62 4163.95 1781.06 4163.99 1781.51 4164.06 1781.89 4164.15 1782.2 4164.23 1782.5 4164.35 1782.77 4164.5 1782.98 4164.65 1783.2 4164.83 1783.39 4165.02 1783.55 4165.26 1783.79 4165.58 1783.97 4165.98 1784.1 4166.37 1784.23 4166.88 1784.34 4167.5 1784.43 4168.11 1784.52 4168.85 1784.59 4169.72 1784.64 4170.58 1784.69 4171.62 1784.72 4172.83 1784.74L4172.83 1787.33 4149.21 1787.33 4149.21 1784.74C4150.38 1784.7 4151.37 1784.66 4152.19 1784.61 4153 1784.56 4153.7 1784.49 4154.27 1784.4 4154.85 1784.31 4155.31 1784.21 4155.66 1784.1 4156 1783.99 4156.31 1783.86 4156.57 1783.7 4156.84 1783.52 4157.08 1783.33 4157.28 1783.12 4157.48 1782.91 4157.64 1782.65 4157.76 1782.33 4157.88 1782.01 4157.97 1781.62 4158.04 1781.17 4158.11 1780.71 4158.14 1780.14 4158.14 1779.47L4158.14 1758.11C4158.14 1757.34 4158 1756.79 4157.7 1756.48 4157.4 1756.16 4156.97 1756 4156.42 1756 4155.8 1756 4154.89 1756.32 4153.68 1756.95 4152.46 1757.59 4150.9 1758.53 4148.97 1759.78 4148.71 1759.33 4148.47 1758.87 4148.26 1758.41 4148.04 1757.95 4147.81 1757.49 4147.57 1757.01 4150.03 1755.66 4152.47 1754.32 4154.88 1752.98 4157.29 1751.64 4159.74 1750.3 4162.22 1748.97Z" fill="#7F7F7F" fill-rule="evenodd"/><text fill="#000000" fill-opacity="0" font-family="Arial,Arial_MSFontService,sans-serif" font-size="38.3633" x="4147.57" y="1782.54">1</text><path d="M2515.61 507.064 2860.29 518.194 2860.07 525.065 2515.39 513.936ZM2835.04 501.797 2867 521.85 2833.81 539.799C2832.14 540.702 2830.06 540.081 2829.15 538.411 2828.25 536.741 2828.87 534.655 2830.54 533.752L2858.54 518.606 2858.35 524.541 2831.39 507.621C2829.78 506.612 2829.29 504.49 2830.3 502.882 2831.31 501.274 2833.43 500.788 2835.04 501.797Z" fill="#404040"/><path d="M2780.45 576.384 2790.17 576.384 2787.82 586.516 2797.67 586.516 2796.58 591.582 2786.65 591.582 2782.72 607.793C2782.04 610.576 2781.57 612.69 2781.32 614.135 2781.06 615.581 2780.93 616.803 2780.93 617.803 2780.93 619.073 2781.16 619.998 2781.62 620.579 2782.08 621.16 2782.76 621.451 2783.65 621.451 2784.86 621.451 2786.11 621.018 2787.4 620.154 2788.68 619.289 2790.07 617.952 2791.55 616.142L2794.67 619.343C2791.94 622.342 2789.44 624.429 2787.15 625.605 2784.87 626.78 2782.18 627.368 2779.07 627.368 2775.99 627.368 2773.62 626.577 2771.98 624.997 2770.33 623.416 2769.5 621.234 2769.5 618.452 2769.5 617.182 2769.6 615.973 2769.79 614.824 2769.98 613.676 2770.37 611.792 2770.96 609.171L2775.14 591.582 2768.82 591.582 2769.59 588.299C2771.48 588.299 2772.91 588.124 2773.88 587.772 2774.85 587.421 2775.67 586.894 2776.33 586.192 2777 585.489 2777.64 584.422 2778.26 582.99 2778.88 581.558 2779.61 579.356 2780.45 576.384Z" fill-rule="evenodd"/><text fill="#000000" fill-opacity="0" font-family="Arial,Arial_MSFontService,sans-serif" font-size="50.9834" x="2768.82" y="620.995">𝒕</text><path d="M2830.26 568.157 2831.36 571.278C2825.03 573.358 2820.35 577.418 2817.31 583.456 2814.27 589.495 2812.76 597.08 2812.76 606.212 2812.76 615.669 2814.27 623.464 2817.31 629.597 2820.35 635.73 2824.99 639.837 2831.24 641.917L2830.26 645.038C2822.35 642.957 2816.28 638.479 2812.07 631.603 2807.85 624.727 2805.74 616.398 2805.74 606.618 2805.74 596.864 2807.86 588.536 2812.09 581.633 2816.31 574.729 2822.37 570.238 2830.26 568.157Z" fill-rule="evenodd"/><text fill="#000000" fill-opacity="0" font-family="Arial,Arial_MSFontService,sans-serif" font-size="76.8804" x="2805.74" y="635.427">(</text><path d="M2855.44 587.327C2857.95 587.327 2860.24 587.475 2862.31 587.772 2864.37 588.07 2866.43 588.583 2868.49 589.312L2866.66 597.823 2863.38 597.823C2863.08 595.419 2862.29 593.595 2861.01 592.352 2859.73 591.109 2857.71 590.488 2854.95 590.488 2852.82 590.488 2851.09 591.035 2849.76 592.129 2848.44 593.223 2847.78 594.662 2847.78 596.445 2847.78 597.418 2847.95 598.276 2848.29 599.019 2848.62 599.762 2849.31 600.579 2850.33 601.471 2851.36 602.362 2852.95 603.456 2855.11 604.753 2856.82 605.78 2858.18 606.719 2859.21 607.57 2860.23 608.421 2861.04 609.265 2861.64 610.103 2862.23 610.941 2862.67 611.825 2862.94 612.758 2863.21 613.69 2863.34 614.818 2863.34 616.142 2863.34 618.546 2862.7 620.606 2861.42 622.322 2860.13 624.038 2858.39 625.314 2856.19 626.152 2853.99 626.989 2851.48 627.408 2848.67 627.408 2846.43 627.408 2844.23 627.239 2842.06 626.902 2839.9 626.564 2837.5 625.99 2834.85 625.179L2836.8 616.344 2839.96 616.344C2840.06 618.938 2840.79 620.897 2842.15 622.221 2843.5 623.545 2845.64 624.206 2848.59 624.206 2851.16 624.206 2853.16 623.632 2854.61 622.484 2856.05 621.336 2856.78 619.708 2856.78 617.601 2856.78 616.385 2856.57 615.338 2856.17 614.46 2855.76 613.582 2855.1 612.737 2854.18 611.927 2853.26 611.116 2851.8 610.103 2849.8 608.887 2847.7 607.617 2846.06 606.469 2844.88 605.442 2843.71 604.416 2842.82 603.301 2842.23 602.099 2841.63 600.896 2841.33 599.512 2841.33 597.945 2841.33 595.81 2841.91 593.939 2843.06 592.332 2844.21 590.724 2845.85 589.488 2847.98 588.623 2850.12 587.759 2852.6 587.327 2855.44 587.327Z" fill-rule="evenodd"/><text fill="#000000" fill-opacity="0" font-family="Arial,Arial_MSFontService,sans-serif" font-size="40.0815" x="2834.85" y="622.398">𝑠</text><path d="M2875.54 568.157C2883.43 570.238 2889.49 574.729 2893.72 581.633 2897.94 588.536 2900.06 596.864 2900.06 606.618 2900.06 616.398 2897.95 624.727 2893.74 631.603 2889.52 638.479 2883.46 642.957 2875.54 645.038L2874.57 641.917C2880.81 639.837 2885.45 635.73 2888.49 629.597 2891.53 623.464 2893.05 615.669 2893.05 606.212 2893.05 597.08 2891.53 589.495 2888.51 583.456 2885.48 577.418 2880.79 573.358 2874.45 571.278Z" fill-rule="evenodd"/><text fill="#000000" fill-opacity="0" font-family="Arial,Arial_MSFontService,sans-serif" font-size="76.8804" x="2874.45" y="635.427">)</text><path d="M2613.49 232.358C2615.73 232.358 2617.52 232.986 2618.86 234.242 2620.2 235.499 2620.87 237.153 2620.87 239.207 2620.87 239.882 2620.79 240.531 2620.62 241.152L2621.03 241.476C2623.57 238.315 2625.98 236.005 2628.26 234.546 2630.55 233.087 2633.21 232.358 2636.27 232.358 2639.05 232.358 2641.23 233.141 2642.81 234.708 2644.39 236.275 2645.18 238.41 2645.18 241.112 2645.18 241.976 2645.1 243.057 2644.92 244.354 2644.74 245.651 2644.53 246.799 2644.29 247.799L2641.09 260.443C2640.63 262.253 2640.4 263.834 2640.4 265.185 2640.4 266.239 2640.58 266.968 2640.93 267.373 2641.28 267.779 2641.78 267.981 2642.43 267.981 2643.21 267.981 2644.09 267.61 2645.06 266.867 2646.03 266.124 2647.18 264.996 2648.51 263.483L2651.42 266.401C2648.78 269.102 2646.41 271.021 2644.31 272.156 2642.22 273.29 2639.91 273.858 2637.4 273.858 2634.54 273.858 2632.44 273.148 2631.12 271.73 2629.8 270.312 2629.13 268.224 2629.13 265.469 2629.13 263.496 2629.53 260.97 2630.31 257.89L2632.09 251.162C2632.55 249.433 2632.94 247.724 2633.27 246.036 2633.59 244.347 2633.75 242.962 2633.75 241.882 2633.75 240.666 2633.5 239.761 2632.98 239.166 2632.47 238.572 2631.74 238.275 2630.8 238.275 2629.47 238.275 2627.96 239.058 2626.26 240.625 2624.55 242.192 2623.19 243.847 2622.16 245.59 2621.14 247.333 2620.33 249.609 2619.73 252.419L2615.19 273.209 2603.56 273.209 2610.09 245.043C2610.49 243.287 2610.69 241.949 2610.69 241.031 2610.69 240.139 2610.55 239.45 2610.25 238.964 2609.95 238.477 2609.44 238.234 2608.71 238.234 2607.87 238.234 2606.97 238.612 2605.99 239.369 2605.02 240.125 2603.89 241.247 2602.59 242.733L2599.67 239.815C2602.37 237.059 2604.77 235.127 2606.86 234.019 2608.96 232.912 2611.17 232.358 2613.49 232.358Z" fill-rule="evenodd"/><text fill="#000000" fill-opacity="0" font-family="Arial,Arial_MSFontService,sans-serif" font-size="41.5" x="2599.67" y="268.67">𝒏</text><path d="M2683.79 214.647 2684.89 217.768C2678.57 219.848 2673.88 223.908 2670.85 229.946 2667.81 235.985 2666.29 243.57 2666.29 252.702 2666.29 262.159 2667.81 269.954 2670.85 276.087 2673.88 282.22 2678.53 286.327 2684.77 288.407L2683.79 291.528C2675.88 289.447 2669.81 284.969 2665.6 278.093 2661.38 271.217 2659.27 262.888 2659.27 253.108 2659.27 243.354 2661.39 235.026 2665.62 228.123 2669.85 221.219 2675.9 216.728 2683.79 214.647Z" fill-rule="evenodd"/><text fill="#000000" fill-opacity="0" font-family="Arial,Arial_MSFontService,sans-serif" font-size="76.8804" x="2659.27" y="281.918">(</text><path d="M2708.97 233.817C2711.48 233.817 2713.77 233.965 2715.84 234.262 2717.91 234.56 2719.97 235.073 2722.02 235.802L2720.2 244.313 2716.91 244.313C2716.62 241.909 2715.82 240.085 2714.54 238.842 2713.26 237.599 2711.24 236.978 2708.48 236.978 2706.35 236.978 2704.62 237.525 2703.3 238.619 2701.97 239.713 2701.31 241.152 2701.31 242.935 2701.31 243.908 2701.48 244.766 2701.82 245.509 2702.15 246.252 2702.84 247.069 2703.86 247.961 2704.89 248.852 2706.48 249.947 2708.64 251.243 2710.35 252.27 2711.71 253.209 2712.74 254.06 2713.76 254.911 2714.58 255.755 2715.17 256.593 2715.76 257.431 2716.2 258.315 2716.47 259.248 2716.74 260.18 2716.87 261.308 2716.87 262.632 2716.87 265.036 2716.23 267.096 2714.95 268.812 2713.66 270.528 2711.92 271.804 2709.72 272.642 2707.52 273.479 2705.01 273.898 2702.2 273.898 2699.96 273.898 2697.76 273.729 2695.59 273.392 2693.43 273.054 2691.03 272.48 2688.38 271.669L2690.33 262.834 2693.49 262.834C2693.6 265.428 2694.33 267.387 2695.68 268.711 2697.03 270.035 2699.17 270.697 2702.12 270.697 2704.69 270.697 2706.69 270.122 2708.14 268.974 2709.58 267.826 2710.31 266.198 2710.31 264.091 2710.31 262.875 2710.1 261.828 2709.7 260.95 2709.29 260.072 2708.63 259.227 2707.71 258.417 2706.79 257.606 2705.33 256.593 2703.34 255.377 2701.23 254.107 2699.59 252.959 2698.41 251.932 2697.24 250.906 2696.35 249.791 2695.76 248.589 2695.16 247.387 2694.87 246.002 2694.87 244.435 2694.87 242.3 2695.44 240.429 2696.59 238.822 2697.74 237.214 2699.38 235.978 2701.51 235.114 2703.65 234.249 2706.13 233.817 2708.97 233.817Z" fill-rule="evenodd"/><text fill="#000000" fill-opacity="0" font-family="Arial,Arial_MSFontService,sans-serif" font-size="40.0815" x="2688.38" y="268.888">𝑠</text><path d="M2729.07 214.647C2736.96 216.728 2743.02 221.219 2747.25 228.123 2751.48 235.026 2753.59 243.354 2753.59 253.108 2753.59 262.888 2751.48 271.217 2747.27 278.093 2743.05 284.969 2736.99 289.447 2729.07 291.528L2728.1 288.407C2734.34 286.327 2738.98 282.22 2742.02 276.087 2745.06 269.954 2746.58 262.159 2746.58 252.702 2746.58 243.57 2745.07 235.985 2742.04 229.946 2739.01 223.908 2734.33 219.848 2727.98 217.768Z" fill-rule="evenodd"/><text fill="#000000" fill-opacity="0" font-family="Arial,Arial_MSFontService,sans-serif" font-size="76.8804" x="2727.98" y="281.918">)</text><path d="M3.43659-0.0791814 10.5911 310.438 3.71795 310.597-3.43659 0.0791814ZM25.5668 284.318 7.31169 317.338-12.4449 285.194C-13.439 283.577-12.9337 281.46-11.3163 280.466-9.69892 279.472-7.58188 279.977-6.58777 281.594L10.0831 308.717 4.14619 308.854 19.5501 280.992C20.4687 279.331 22.5602 278.728 24.2217 279.647 25.8832 280.565 26.4854 282.657 25.5668 284.318Z" fill="#404040" transform="matrix(1 0 0 -1 2515.5 510.822)"/><path d="M2.94191-1.77809 599.407 985.095 593.523 988.651-2.94191 1.77809ZM599.41 954.993 599.998 992.718 566.87 974.66C565.203 973.752 564.589 971.664 565.497 969.997 566.406 968.33 568.494 967.715 570.161 968.624L598.114 983.861 593.032 986.933 592.536 955.1C592.507 953.202 594.022 951.639 595.92 951.609 597.818 951.58 599.381 953.095 599.41 954.993Z" fill="#404040" transform="matrix(1 0 0 -1 1915.5 1503.2)"/></g></svg>