<svg width="3304" height="977" xmlns="http://www.w3.org/2000/svg" xmlns:xlink="http://www.w3.org/1999/xlink" xml:space="preserve" overflow="hidden"><g transform="translate(-566 -867)"><path d="M879 1819C1590.31 897.703 2896.51 882.639 3432 1286.35" stroke="#404040" stroke-width="13.75" stroke-miterlimit="8" fill="none" fill-rule="evenodd"/><rect x="2411" y="870" width="284" height="260" fill="#FFFFFF"/><text font-family="Aptos,Aptos_MSFontService,sans-serif" font-weight="400" font-size="147" transform="matrix(1 0 0 1 2490.55 1047)">..</text><text font-family="Aptos,Aptos_MSFontService,sans-serif" font-weight="400" font-size="147" transform="matrix(1 0 0 1 2574.2 1047)">.</text><path d="M865.387 1833.52C858.518 1827.92 857.487 1817.82 863.082 1810.95 868.678 1804.08 878.783 1803.05 885.651 1808.65 892.52 1814.24 893.552 1824.35 887.956 1831.21 882.36 1838.08 872.255 1839.12 865.387 1833.52Z" stroke="#042433" stroke-width="13.75" stroke-miterlimit="8" fill="#FFFFFF" fill-rule="evenodd"/><path d="M899.236 1786.53 1088.62 1554.07 1093.95 1558.42 904.566 1790.87ZM1060.27 1564.21 1095.59 1550.96 1089.75 1588.23C1089.45 1590.11 1087.69 1591.39 1085.82 1591.09 1083.94 1590.8 1082.66 1589.04 1082.96 1587.16L1087.89 1555.71 1092.49 1559.46 1062.69 1570.65C1060.91 1571.32 1058.93 1570.42 1058.26 1568.64 1057.59 1566.86 1058.49 1564.88 1060.27 1564.21Z" fill="#215F9A"/><path d="M1003.07 1736.77C1003.91 1735.74 1004.92 1735.2 1006.1 1735.17 1007.28 1735.14 1008.46 1735.6 1009.64 1736.56 1010.92 1737.6 1012.31 1739.15 1013.8 1741.2L1017.13 1745.68C1017.97 1746.83 1018.64 1747.7 1019.14 1748.31 1019.64 1748.92 1020.08 1749.43 1020.47 1749.84 1020.86 1750.25 1021.2 1750.58 1021.49 1750.81 1022.61 1751.72 1023.56 1752.19 1024.36 1752.22 1025.15 1752.25 1025.89 1751.85 1026.58 1751.01 1027.13 1750.33 1027.46 1749.38 1027.55 1748.15 1027.65 1746.93 1027.51 1745.43 1027.14 1743.66 1026.77 1741.89 1026.28 1740.33 1025.69 1738.96 1025.1 1737.59 1024.19 1736.12 1022.97 1734.56L1014.35 1723.71 1017.77 1719.52 1030.24 1735.57C1031.51 1737.19 1032.56 1738.34 1033.4 1739.03 1034.04 1739.55 1034.6 1739.83 1035.06 1739.86 1035.52 1739.88 1035.93 1739.67 1036.3 1739.22 1036.7 1738.73 1036.92 1738.06 1036.97 1737.18 1037.02 1736.31 1036.9 1734.92 1036.6 1733.01L1039.08 1732.74C1039.45 1735.48 1039.54 1737.64 1039.34 1739.2 1039.15 1740.76 1038.58 1742.12 1037.63 1743.28 1036.81 1744.28 1035.83 1744.81 1034.68 1744.87 1033.53 1744.93 1032.41 1744.51 1031.31 1743.61 1030.44 1742.9 1029.64 1741.93 1028.92 1740.7L1028.59 1740.92C1029.53 1744.34 1029.95 1747.21 1029.86 1749.5 1029.76 1751.8 1029.1 1753.7 1027.87 1755.2 1026.65 1756.71 1025.28 1757.51 1023.75 1757.61 1022.23 1757.72 1020.7 1757.14 1019.17 1755.89 1018.15 1755.06 1016.9 1753.65 1015.41 1751.66L1010.34 1744.91C1008.94 1743.04 1007.87 1741.81 1007.14 1741.22 1006.5 1740.69 1005.94 1740.41 1005.48 1740.39 1005.02 1740.36 1004.6 1740.57 1004.24 1741.03 1003.83 1741.53 1003.6 1742.22 1003.56 1743.12 1003.52 1744.01 1003.64 1745.38 1003.94 1747.23L1001.45 1747.51C1001.18 1745 1001.07 1743.19 1001.12 1742.08 1001.17 1740.96 1001.35 1740 1001.65 1739.18 1001.95 1738.36 1002.42 1737.56 1003.07 1736.77Z" fill="#215F9A" fill-rule="evenodd"/><text fill="#000000" fill-opacity="0" font-family="Arial,Arial_MSFontService,sans-serif" font-size="38.1047" x="1001.11" y="1752.86">𝑢</text><path d="M1041.84 1720.94C1042.37 1720.29 1042.95 1719.87 1043.57 1719.69 1044.19 1719.5 1044.89 1719.5 1045.66 1719.67 1046.43 1719.84 1047.28 1720.16 1048.23 1720.64 1049.17 1721.11 1050.24 1721.67 1051.44 1722.31L1051.63 1722.08C1051.27 1720.6 1050.96 1719.32 1050.7 1718.24 1050.44 1717.16 1050.23 1716.22 1050.09 1715.42 1049.95 1714.63 1049.87 1713.95 1049.84 1713.38 1049.8 1712.81 1049.84 1712.31 1049.93 1711.87 1050.02 1711.43 1050.17 1711.02 1050.37 1710.65 1050.58 1710.27 1050.85 1709.88 1051.18 1709.48 1051.66 1708.89 1052.2 1708.44 1052.81 1708.12L1055.59 1711.87 1054.39 1713.34C1053.85 1712.96 1053.44 1712.95 1053.16 1713.29 1053.06 1713.42 1052.96 1713.58 1052.89 1713.78 1052.81 1713.97 1052.75 1714.23 1052.72 1714.56 1052.69 1714.89 1052.69 1715.3 1052.72 1715.78 1052.74 1716.27 1052.81 1716.87 1052.91 1717.58 1053.01 1718.3 1053.16 1719.14 1053.35 1720.11 1053.55 1721.08 1053.8 1722.2 1054.09 1723.49 1055.99 1724.5 1057.52 1725.29 1058.7 1725.87 1059.87 1726.44 1060.8 1726.83 1061.5 1727.04 1062.19 1727.25 1062.71 1727.31 1063.04 1727.23 1063.38 1727.15 1063.66 1726.97 1063.88 1726.7 1064.04 1726.5 1064.17 1726.29 1064.26 1726.08 1064.36 1725.87 1064.4 1725.61 1064.39 1725.29 1064.38 1724.98 1064.31 1724.58 1064.19 1724.11 1064.07 1723.64 1063.89 1723.05 1063.64 1722.33L1065.6 1721.71C1065.96 1722.87 1066.22 1723.85 1066.39 1724.66 1066.56 1725.47 1066.64 1726.18 1066.61 1726.79 1066.59 1727.41 1066.46 1727.95 1066.23 1728.44 1066.01 1728.92 1065.68 1729.43 1065.25 1729.95 1064.89 1730.4 1064.5 1730.75 1064.08 1731.01 1063.67 1731.26 1063.19 1731.38 1062.64 1731.38 1062.3 1731.39 1061.89 1731.34 1061.43 1731.21 1060.96 1731.09 1060.48 1730.94 1059.99 1730.75 1059.49 1730.56 1058.98 1730.35 1058.48 1730.11 1057.97 1729.88 1057.5 1729.64 1057.08 1729.42 1056.65 1729.19 1056.28 1728.97 1055.95 1728.78 1055.63 1728.58 1055.39 1728.43 1055.24 1728.33L1055.08 1728.53C1055.45 1730.01 1055.77 1731.31 1056.04 1732.41 1056.32 1733.51 1056.54 1734.48 1056.69 1735.32 1056.85 1736.16 1056.95 1736.88 1057 1737.49 1057.04 1738.1 1057.02 1738.65 1056.94 1739.13 1056.86 1739.62 1056.72 1740.07 1056.5 1740.48 1056.29 1740.88 1056.01 1741.3 1055.66 1741.73 1055.16 1742.35 1054.62 1742.79 1054.05 1743.05L1051.25 1739.41 1052.48 1737.89C1053.03 1738.28 1053.45 1738.3 1053.74 1737.94 1053.83 1737.8 1053.91 1737.66 1053.98 1737.5 1054.05 1737.35 1054.09 1737.14 1054.11 1736.89 1054.13 1736.63 1054.13 1736.27 1054.09 1735.82 1054.06 1735.37 1053.98 1734.77 1053.87 1734.02 1053.75 1733.28 1053.6 1732.36 1053.41 1731.26 1053.23 1730.16 1052.98 1728.82 1052.66 1727.24 1051.49 1726.64 1050.47 1726.12 1049.61 1725.68 1048.74 1725.24 1047.99 1724.88 1047.35 1724.58 1046.71 1724.29 1046.17 1724.07 1045.73 1723.93 1045.3 1723.79 1044.92 1723.71 1044.62 1723.69 1044.31 1723.67 1044.05 1723.7 1043.84 1723.79 1043.62 1723.89 1043.42 1724.03 1043.24 1724.24 1043.07 1724.44 1042.95 1724.65 1042.88 1724.88 1042.8 1725.1 1042.77 1725.38 1042.79 1725.69 1042.81 1726.01 1042.87 1726.4 1042.99 1726.87 1043.11 1727.33 1043.29 1727.89 1043.53 1728.56L1041.53 1729.21C1041.2 1728.13 1040.95 1727.2 1040.77 1726.4 1040.59 1725.6 1040.5 1724.89 1040.52 1724.27 1040.53 1723.65 1040.64 1723.08 1040.85 1722.55 1041.07 1722.02 1041.4 1721.48 1041.84 1720.94ZM1058.54 1694.01C1057.86 1694.85 1057.51 1695.72 1057.49 1696.63 1057.47 1697.54 1057.74 1698.49 1058.31 1699.5 1058.88 1700.51 1059.72 1701.57 1060.81 1702.69 1061.9 1703.81 1063.21 1704.99 1064.74 1706.23 1066.51 1707.67 1068.11 1708.83 1069.53 1709.71 1070.96 1710.59 1072.24 1711.18 1073.36 1711.5 1074.49 1711.81 1075.47 1711.85 1076.3 1711.63 1077.14 1711.4 1077.87 1710.91 1078.49 1710.15 1079.07 1709.44 1079.39 1708.67 1079.46 1707.83 1079.52 1707 1079.31 1706.09 1078.82 1705.11 1078.33 1704.12 1077.56 1703.06 1076.51 1701.91 1075.46 1700.76 1074.13 1699.52 1072.5 1698.2 1070.68 1696.71 1069.02 1695.53 1067.55 1694.65 1066.07 1693.78 1064.77 1693.17 1063.63 1692.83 1062.49 1692.5 1061.5 1692.44 1060.66 1692.65 1059.81 1692.86 1059.11 1693.31 1058.54 1694.01ZM1056.87 1692.54C1058.02 1691.13 1059.27 1690.13 1060.61 1689.56 1061.95 1688.99 1063.37 1688.78 1064.87 1688.95 1066.37 1689.11 1067.94 1689.62 1069.59 1690.47 1071.25 1691.33 1072.96 1692.48 1074.74 1693.93 1078.69 1697.14 1081.11 1700.28 1081.99 1703.32 1082.87 1706.37 1082.23 1709.22 1080.07 1711.88 1077.92 1714.51 1075.37 1715.69 1072.42 1715.42 1069.46 1715.14 1066.05 1713.43 1062.17 1710.27 1060.14 1708.61 1058.55 1706.98 1057.39 1705.38 1056.23 1703.77 1055.45 1702.21 1055.06 1700.7 1054.67 1699.18 1054.63 1697.74 1054.95 1696.36 1055.27 1694.99 1055.91 1693.71 1056.87 1692.54Z" fill="#215F9A" fill-rule="evenodd"/><text fill="#000000" fill-opacity="0" font-family="Arial,Arial_MSFontService,sans-serif" font-size="54.1577" x="1040.52" y="1736.28">𝑥0</text><path d="M837.101 1795.32 604.645 1605.94 608.988 1600.61 841.444 1789.99ZM614.786 1634.29 601.528 1598.97 638.802 1604.81C640.677 1605.11 641.959 1606.87 641.665 1608.74 641.371 1610.62 639.612 1611.9 637.736 1611.6L606.284 1606.67 610.035 1602.07 621.223 1631.87C621.89 1633.65 620.99 1635.63 619.212 1636.3 617.435 1636.97 615.453 1636.07 614.786 1634.29Z" fill="#215F9A"/><path d="M632.264 1786.05C633.106 1785.01 634.118 1784.48 635.3 1784.45 636.481 1784.42 637.661 1784.88 638.84 1785.84 640.116 1786.88 641.503 1788.43 643.001 1790.48L646.324 1794.96C647.166 1796.1 647.837 1796.98 648.336 1797.59 648.835 1798.2 649.279 1798.71 649.669 1799.12 650.059 1799.53 650.4 1799.85 650.69 1800.09 651.805 1801 652.76 1801.47 653.555 1801.5 654.35 1801.53 655.09 1801.12 655.774 1800.28 656.327 1799.6 656.652 1798.65 656.749 1797.43 656.846 1796.2 656.708 1794.71 656.335 1792.94 655.962 1791.17 655.48 1789.6 654.888 1788.23 654.297 1786.87 653.389 1785.4 652.163 1783.84L643.547 1772.99 646.962 1768.8 659.441 1784.85C660.702 1786.47 661.752 1787.62 662.592 1788.3 663.238 1788.83 663.792 1789.11 664.254 1789.13 664.716 1789.16 665.131 1788.95 665.499 1788.49 665.894 1788.01 666.117 1787.33 666.169 1786.46 666.22 1785.59 666.097 1784.2 665.798 1782.29L668.28 1782.01C668.649 1784.76 668.736 1786.91 668.54 1788.47 668.344 1790.03 667.772 1791.39 666.825 1792.56 666.009 1793.56 665.026 1794.09 663.877 1794.15 662.728 1794.2 661.604 1793.79 660.506 1792.89 659.634 1792.18 658.839 1791.21 658.121 1789.98L657.787 1790.19C658.73 1793.62 659.151 1796.48 659.053 1798.78 658.954 1801.08 658.293 1802.98 657.069 1804.48 655.846 1805.98 654.473 1806.79 652.951 1806.89 651.429 1806.99 649.9 1806.42 648.366 1805.17 647.348 1804.34 646.094 1802.93 644.602 1800.93L639.537 1794.19C638.132 1792.32 637.066 1791.09 636.339 1790.49 635.693 1789.97 635.139 1789.69 634.677 1789.66 634.216 1789.64 633.8 1789.85 633.432 1790.3 633.024 1790.8 632.799 1791.5 632.757 1792.39 632.715 1793.29 632.84 1794.66 633.133 1796.51L630.651 1796.78C630.38 1794.28 630.27 1792.47 630.318 1791.35 630.367 1790.24 630.543 1789.27 630.845 1788.46 631.146 1787.64 631.62 1786.84 632.264 1786.05Z" fill="#215F9A" fill-rule="evenodd"/><text fill="#000000" fill-opacity="0" font-family="Arial,Arial_MSFontService,sans-serif" font-size="38.1047" x="630.307" y="1802.14">𝑢</text><path d="M670.268 1771.16C670.616 1770.73 670.96 1770.4 671.301 1770.16 671.641 1769.93 672.007 1769.76 672.4 1769.67 672.793 1769.57 673.22 1769.55 673.682 1769.6 674.144 1769.65 674.67 1769.75 675.262 1769.9 675.61 1770 676.075 1770.2 676.658 1770.47 677.241 1770.75 677.906 1771.09 678.653 1771.48 679.399 1771.87 680.211 1772.31 681.089 1772.81 681.966 1773.31 682.879 1773.83 683.827 1774.39 684.776 1774.95 685.74 1775.52 686.72 1776.13 687.701 1776.73 688.661 1777.32 689.602 1777.91 689.165 1776.07 688.64 1774.32 688.028 1772.63 687.415 1770.95 686.779 1769.43 686.118 1768.07 685.458 1766.72 684.798 1765.55 684.139 1764.58 683.479 1763.61 682.884 1762.92 682.353 1762.5 681.831 1762.08 681.346 1761.91 680.898 1762 680.451 1762.09 679.948 1762.44 679.391 1763.05L678.44 1761.89 682.572 1756.82 684.111 1757.04C686.074 1760.61 687.772 1764.3 689.204 1768.1 690.636 1771.9 691.822 1775.84 692.76 1779.92 693.087 1781.63 693.341 1783.13 693.523 1784.44 693.705 1785.74 693.826 1786.9 693.888 1787.93 693.949 1788.96 693.946 1789.86 693.88 1790.65 693.813 1791.43 693.69 1792.14 693.511 1792.79 693.332 1793.43 693.096 1794.02 692.804 1794.57 692.511 1795.11 692.169 1795.64 691.777 1796.17 691.555 1796.44 691.257 1796.75 690.883 1797.09 690.51 1797.42 690.155 1797.7 689.819 1797.92L686.647 1793.86 687.966 1792.24 688.073 1792.32C688.879 1792.98 689.548 1792.98 690.08 1792.33 690.785 1791.47 691.165 1790.31 691.22 1788.88 691.274 1787.44 691.078 1785.5 690.632 1783.04 688.059 1781.6 685.831 1780.35 683.947 1779.31 682.062 1778.27 680.443 1777.4 679.088 1776.7 677.734 1776 676.612 1775.46 675.725 1775.07 674.837 1774.68 674.114 1774.42 673.556 1774.28 672.998 1774.14 672.565 1774.11 672.258 1774.19 671.95 1774.26 671.704 1774.41 671.521 1774.64 671.347 1774.85 671.214 1775.07 671.122 1775.29 671.031 1775.51 670.991 1775.78 671.002 1776.11 671.014 1776.43 671.081 1776.83 671.205 1777.29 671.328 1777.76 671.503 1778.35 671.728 1779.07L669.723 1779.71C669.391 1778.59 669.15 1777.62 669 1776.79 668.849 1775.95 668.8 1775.21 668.853 1774.55 668.905 1773.89 669.048 1773.29 669.281 1772.75 669.514 1772.21 669.843 1771.68 670.268 1771.16ZM688.996 1741.74C688.32 1742.57 687.971 1743.44 687.949 1744.35 687.928 1745.26 688.203 1746.22 688.773 1747.23 689.344 1748.24 690.175 1749.3 691.268 1750.42 692.361 1751.53 693.672 1752.71 695.203 1753.96 696.97 1755.4 698.567 1756.56 699.994 1757.44 701.421 1758.31 702.697 1758.91 703.822 1759.22 704.947 1759.54 705.928 1759.58 706.764 1759.35 707.6 1759.13 708.327 1758.63 708.945 1757.88 709.525 1757.16 709.849 1756.39 709.916 1755.56 709.983 1754.72 709.771 1753.82 709.279 1752.83 708.787 1751.85 708.017 1750.78 706.97 1749.64 705.923 1748.49 704.587 1747.25 702.962 1745.93 701.135 1744.44 699.484 1743.26 698.008 1742.38 696.532 1741.5 695.225 1740.9 694.087 1740.56 692.949 1740.23 691.959 1740.16 691.116 1740.37 690.273 1740.59 689.566 1741.04 688.996 1741.74ZM687.328 1740.26C688.478 1738.85 689.725 1737.86 691.07 1737.29 692.414 1736.72 693.834 1736.51 695.33 1736.67 696.825 1736.84 698.399 1737.34 700.052 1738.2 701.706 1739.05 703.422 1740.2 705.201 1741.65 709.151 1744.87 711.567 1748 712.449 1751.05 713.331 1754.1 712.69 1756.95 710.525 1759.61 708.38 1762.24 705.83 1763.42 702.877 1763.14 699.924 1762.87 696.508 1761.15 692.629 1757.99 690.601 1756.34 689.007 1754.71 687.848 1753.11 686.689 1751.5 685.913 1749.94 685.519 1748.42 685.125 1746.91 685.089 1745.46 685.411 1744.09 685.732 1742.71 686.371 1741.44 687.328 1740.26Z" fill="#215F9A" fill-rule="evenodd"/><text fill="#000000" fill-opacity="0" font-family="Arial,Arial_MSFontService,sans-serif" font-size="61.3008" x="668.833" y="1790.26">𝑦0</text><path d="M821.896 1667.07 815.479 1618.29 860.637 1612.35 867.054 1661.13Z" fill="#FFFFFF" fill-rule="evenodd"/><path d="M753.042 1685.56 753.805 1684.65 759.241 1678.8 764.91 1673.3 770.833 1668.13 783.18 1658.92 796.276 1651.09 809.974 1644.68 824.167 1639.68 838.743 1636.11 853.596 1633.96 868.617 1633.23 883.698 1633.93 898.734 1636.06 913.615 1639.62 928.235 1644.61 942.485 1651.04 956.221 1658.89 962.928 1663.38 969.374 1668.17 965.277 1673.69 958.897 1668.95 959.031 1669.05 952.495 1664.67 952.704 1664.8 939.217 1657.09 939.508 1657.24 925.556 1650.95 925.858 1651.07 911.546 1646.18 911.858 1646.27 897.292 1642.78 897.609 1642.84 882.895 1640.76 883.218 1640.79 868.461 1640.11 868.786 1640.11 854.092 1640.82 854.419 1640.78 839.893 1642.89 840.219 1642.83 825.967 1646.32 826.29 1646.22 812.418 1651.1 812.734 1650.98 799.347 1657.24 799.654 1657.08 786.858 1664.73 787.15 1664.53 775.051 1673.56 775.257 1673.39 769.502 1678.42 769.633 1678.3 764.091 1683.68 764.216 1683.55 758.901 1689.27 759.019 1689.13 758.313 1689.97ZM786.797 1680.22 751.298 1693 757.645 1655.81C757.964 1653.93 759.74 1652.68 761.612 1653 763.483 1653.32 764.741 1655.09 764.422 1656.96L759.066 1688.35 754.513 1684.53 784.467 1673.75C786.254 1673.1 788.223 1674.03 788.866 1675.82 789.509 1677.6 788.583 1679.57 786.797 1680.22Z" fill="#215F9A"/><path d="M899.261 1565.27C900.103 1564.23 901.115 1563.7 902.296 1563.67 903.478 1563.64 904.658 1564.1 905.837 1565.06 907.113 1566.1 908.5 1567.65 909.998 1569.7L913.321 1574.18C914.163 1575.32 914.834 1576.2 915.333 1576.81 915.832 1577.42 916.276 1577.93 916.666 1578.34 917.056 1578.75 917.396 1579.07 917.687 1579.31 918.802 1580.22 919.757 1580.69 920.552 1580.72 921.347 1580.75 922.087 1580.34 922.771 1579.5 923.324 1578.82 923.649 1577.87 923.746 1576.65 923.843 1575.42 923.705 1573.93 923.332 1572.16 922.959 1570.39 922.477 1568.82 921.885 1567.45 921.294 1566.08 920.385 1564.62 919.159 1563.06L910.544 1552.21 913.959 1548.02 926.437 1564.07C927.698 1565.69 928.749 1566.84 929.589 1567.52 930.235 1568.05 930.789 1568.32 931.25 1568.35 931.712 1568.38 932.127 1568.17 932.496 1567.71 932.891 1567.23 933.114 1566.55 933.165 1565.68 933.217 1564.81 933.094 1563.42 932.795 1561.51L935.277 1561.23C935.646 1563.98 935.733 1566.13 935.537 1567.69 935.341 1569.25 934.769 1570.61 933.821 1571.78 933.005 1572.78 932.023 1573.31 930.874 1573.37 929.725 1573.42 928.601 1573.01 927.503 1572.11 926.631 1571.4 925.836 1570.43 925.118 1569.2L924.784 1569.41C925.726 1572.84 926.148 1575.7 926.05 1578 925.951 1580.3 925.29 1582.2 924.066 1583.7 922.842 1585.2 921.469 1586.01 919.947 1586.11 918.425 1586.21 916.897 1585.64 915.363 1584.39 914.345 1583.56 913.09 1582.15 911.598 1580.15L906.534 1573.41C905.129 1571.54 904.063 1570.31 903.336 1569.71 902.69 1569.19 902.136 1568.91 901.674 1568.88 901.212 1568.86 900.797 1569.07 900.429 1569.52 900.021 1570.02 899.796 1570.72 899.754 1571.61 899.711 1572.51 899.837 1573.88 900.129 1575.73L897.648 1576C897.377 1573.5 897.266 1571.69 897.315 1570.57 897.364 1569.46 897.54 1568.49 897.841 1567.68 898.143 1566.86 898.616 1566.06 899.261 1565.27Z" fill="#215F9A" fill-rule="evenodd"/><text fill="#000000" fill-opacity="0" font-family="Arial,Arial_MSFontService,sans-serif" font-size="38.1047" x="897.304" y="1581.36">𝑢</text><path d="M949.381 1539.32C948.782 1540.06 948.496 1540.85 948.523 1541.7 948.55 1542.55 948.757 1543.41 949.144 1544.26 949.531 1545.12 950.022 1545.97 950.618 1546.8 951.214 1547.63 951.792 1548.39 952.352 1549.08L959.071 1557.69C960.179 1556.19 960.855 1554.64 961.1 1553.04 961.345 1551.45 961.258 1549.88 960.84 1548.35 960.423 1546.81 959.724 1545.35 958.745 1543.96 957.766 1542.57 956.606 1541.33 955.266 1540.24 954.874 1539.92 954.43 1539.59 953.934 1539.26 953.438 1538.92 952.928 1538.67 952.405 1538.5 951.882 1538.33 951.358 1538.29 950.834 1538.37 950.31 1538.46 949.826 1538.78 949.381 1539.32ZM940.208 1546.77 942.612 1546.83C942.503 1550.02 942.856 1552.81 943.672 1555.21 944.488 1557.61 945.726 1559.49 947.387 1560.84 948.929 1562.1 950.434 1562.72 951.901 1562.72 953.368 1562.71 954.846 1562.06 956.334 1560.76L949.756 1552.41C948.546 1550.9 947.627 1549.43 946.998 1548.01 946.369 1546.59 945.995 1545.24 945.876 1543.97 945.757 1542.7 945.87 1541.51 946.214 1540.41 946.558 1539.31 947.093 1538.32 947.818 1537.43 949.277 1535.63 950.91 1534.72 952.717 1534.68 954.523 1534.64 956.393 1535.41 958.327 1536.99 960.059 1538.4 961.44 1540 962.472 1541.8 963.504 1543.6 964.135 1545.49 964.364 1547.47 964.594 1549.46 964.403 1551.47 963.791 1553.52 963.179 1555.56 962.106 1557.54 960.571 1559.45L966.554 1567.08 963.843 1570.4 957.797 1562.64C956.667 1563.71 955.522 1564.55 954.361 1565.16 953.2 1565.78 952.051 1566.15 950.912 1566.29 949.773 1566.43 948.651 1566.33 947.545 1565.99 946.44 1565.65 945.371 1565.06 944.339 1564.22 942.358 1562.61 941.034 1560.34 940.366 1557.42 939.697 1554.5 939.645 1550.95 940.208 1546.77Z" fill="#215F9A" fill-rule="evenodd"/><text fill="#000000" fill-opacity="0" font-family="Arial,Arial_MSFontService,sans-serif" font-size="35.7222" x="939.822" y="1565.94">𝜑</text><path d="M959.48 1516.68C958.803 1517.51 958.454 1518.38 958.433 1519.29 958.412 1520.2 958.687 1521.16 959.257 1522.17 959.828 1523.17 960.659 1524.24 961.752 1525.35 962.845 1526.47 964.156 1527.65 965.686 1528.9 967.454 1530.34 969.051 1531.5 970.478 1532.37 971.905 1533.25 973.181 1533.85 974.306 1534.16 975.431 1534.48 976.412 1534.52 977.248 1534.29 978.083 1534.07 978.811 1533.57 979.429 1532.81 980.009 1532.1 980.332 1531.33 980.4 1530.5 980.467 1529.66 980.254 1528.76 979.763 1527.77 979.271 1526.79 978.501 1525.72 977.454 1524.57 976.407 1523.43 975.071 1522.19 973.446 1520.87 971.619 1519.38 969.968 1518.19 968.492 1517.32 967.016 1516.44 965.709 1515.83 964.571 1515.5 963.433 1515.16 962.442 1515.1 961.599 1515.31 960.756 1515.52 960.05 1515.98 959.48 1516.68ZM957.812 1515.2C958.962 1513.79 960.209 1512.8 961.553 1512.23 962.898 1511.65 964.318 1511.45 965.813 1511.61 967.309 1511.78 968.883 1512.28 970.536 1513.14 972.189 1513.99 973.906 1515.14 975.685 1516.59 979.635 1519.81 982.05 1522.94 982.933 1525.99 983.815 1529.04 983.173 1531.89 981.009 1534.55 978.863 1537.18 976.314 1538.36 973.361 1538.08 970.407 1537.81 966.991 1536.09 963.113 1532.93 961.085 1531.28 959.491 1529.65 958.332 1528.04 957.173 1526.44 956.397 1524.88 956.003 1523.36 955.609 1521.85 955.573 1520.4 955.894 1519.03 956.216 1517.65 956.855 1516.38 957.812 1515.2Z" fill="#215F9A" fill-rule="evenodd"/><text fill="#000000" fill-opacity="0" font-family="Arial,Arial_MSFontService,sans-serif" font-size="26.5632" x="955.677" y="1534.8">0</text><path d="M1481.86 1300.79C1477.79 1292.92 1480.88 1283.24 1488.76 1279.18 1496.63 1275.12 1506.31 1278.21 1510.37 1286.08 1514.43 1293.96 1511.34 1303.63 1503.47 1307.7 1495.59 1311.76 1485.92 1308.67 1481.86 1300.79Z" stroke="#042433" stroke-width="13.75" stroke-miterlimit="8" fill="#FFFFFF" fill-rule="evenodd"/><path d="M1534.77 1270.27 1801.24 1132.82 1804.39 1138.93 1537.92 1276.38ZM1771.2 1130.79 1808.88 1132.74 1788.63 1164.58C1787.61 1166.18 1785.49 1166.65 1783.89 1165.63 1782.28 1164.62 1781.81 1162.49 1782.83 1160.89L1799.92 1134.03 1802.64 1139.3 1770.84 1137.65C1768.95 1137.56 1767.49 1135.94 1767.59 1134.04 1767.69 1132.15 1769.3 1130.69 1771.2 1130.79Z" fill="#215F9A"/><path d="M1649.83 1266.13C1651.02 1265.52 1652.16 1265.44 1653.25 1265.88 1654.35 1266.32 1655.25 1267.22 1655.94 1268.57 1656.7 1270.03 1657.35 1272 1657.91 1274.48L1659.16 1279.92C1659.48 1281.3 1659.74 1282.37 1659.96 1283.13 1660.17 1283.89 1660.38 1284.53 1660.57 1285.07 1660.76 1285.6 1660.94 1286.03 1661.12 1286.37 1661.77 1287.64 1662.46 1288.46 1663.18 1288.8 1663.9 1289.15 1664.74 1289.07 1665.7 1288.57 1666.48 1288.17 1667.16 1287.43 1667.73 1286.35 1668.31 1285.26 1668.78 1283.84 1669.15 1282.07 1669.51 1280.29 1669.7 1278.66 1669.7 1277.17 1669.7 1275.68 1669.46 1273.98 1668.96 1272.05L1665.39 1258.67 1670.2 1256.19 1675.23 1275.89C1675.74 1277.88 1676.24 1279.35 1676.73 1280.31 1677.12 1281.05 1677.51 1281.53 1677.93 1281.74 1678.34 1281.95 1678.81 1281.92 1679.32 1281.65 1679.88 1281.36 1680.35 1280.83 1680.75 1280.05 1681.15 1279.27 1681.59 1277.95 1682.08 1276.08L1684.46 1276.82C1683.7 1279.48 1682.92 1281.49 1682.12 1282.85 1681.32 1284.2 1680.25 1285.22 1678.92 1285.9 1677.77 1286.5 1676.66 1286.59 1675.58 1286.18 1674.5 1285.78 1673.64 1284.95 1672.99 1283.69 1672.47 1282.69 1672.13 1281.48 1671.97 1280.07L1671.58 1280.13C1671.07 1283.65 1670.31 1286.44 1669.3 1288.51 1668.3 1290.57 1666.93 1292.05 1665.21 1292.94 1663.49 1293.83 1661.91 1294.02 1660.47 1293.5 1659.04 1292.99 1657.86 1291.85 1656.96 1290.09 1656.35 1288.93 1655.77 1287.13 1655.2 1284.71L1653.25 1276.5C1652.71 1274.22 1652.22 1272.67 1651.79 1271.84 1651.41 1271.1 1651.01 1270.62 1650.6 1270.41 1650.19 1270.2 1649.72 1270.23 1649.2 1270.5 1648.63 1270.8 1648.14 1271.34 1647.75 1272.15 1647.35 1272.95 1646.92 1274.26 1646.45 1276.07L1644.06 1275.33C1644.82 1272.93 1645.44 1271.22 1645.93 1270.22 1646.42 1269.22 1646.97 1268.4 1647.57 1267.77 1648.17 1267.15 1648.93 1266.6 1649.83 1266.13Z" fill="#215F9A" fill-rule="evenodd"/><text fill="#000000" fill-opacity="0" font-family="Arial,Arial_MSFontService,sans-serif" font-size="37.5957" x="1644.06" y="1289.08">𝑢</text><path d="M1691.7 1267.11C1692.45 1266.72 1693.15 1266.57 1693.79 1266.65 1694.43 1266.73 1695.07 1267 1695.71 1267.47 1696.34 1267.93 1697 1268.57 1697.68 1269.38 1698.36 1270.19 1699.11 1271.13 1699.96 1272.19L1700.22 1272.06C1700.48 1270.56 1700.71 1269.27 1700.9 1268.17 1701.09 1267.07 1701.28 1266.13 1701.47 1265.35 1701.66 1264.56 1701.85 1263.9 1702.05 1263.37 1702.25 1262.83 1702.48 1262.39 1702.74 1262.02 1703 1261.65 1703.3 1261.34 1703.63 1261.08 1703.97 1260.82 1704.37 1260.57 1704.84 1260.33 1705.52 1259.98 1706.2 1259.78 1706.88 1259.74L1707.93 1264.28 1706.24 1265.16C1705.9 1264.59 1705.53 1264.41 1705.14 1264.62 1704.99 1264.69 1704.84 1264.8 1704.69 1264.95 1704.54 1265.1 1704.39 1265.31 1704.23 1265.6 1704.06 1265.89 1703.9 1266.27 1703.73 1266.72 1703.56 1267.18 1703.38 1267.76 1703.19 1268.45 1703 1269.14 1702.8 1269.97 1702.59 1270.94 1702.38 1271.91 1702.16 1273.04 1701.91 1274.34 1703.25 1276.02 1704.34 1277.36 1705.19 1278.35 1706.03 1279.35 1706.73 1280.08 1707.29 1280.55 1707.84 1281.02 1708.29 1281.29 1708.63 1281.34 1708.97 1281.4 1709.29 1281.35 1709.6 1281.19 1709.84 1281.07 1710.04 1280.93 1710.21 1280.77 1710.37 1280.62 1710.52 1280.39 1710.63 1280.1 1710.75 1279.81 1710.85 1279.42 1710.93 1278.94 1711.01 1278.46 1711.07 1277.85 1711.13 1277.09L1713.18 1277.3C1713.04 1278.51 1712.89 1279.52 1712.72 1280.33 1712.56 1281.14 1712.34 1281.82 1712.07 1282.37 1711.81 1282.92 1711.47 1283.37 1711.07 1283.73 1710.67 1284.08 1710.17 1284.41 1709.57 1284.72 1709.05 1284.99 1708.55 1285.15 1708.07 1285.22 1707.59 1285.29 1707.1 1285.21 1706.6 1284.98 1706.28 1284.86 1705.93 1284.65 1705.55 1284.35 1705.18 1284.05 1704.8 1283.72 1704.42 1283.35 1704.04 1282.98 1703.66 1282.58 1703.29 1282.16 1702.92 1281.74 1702.58 1281.34 1702.28 1280.96 1701.98 1280.58 1701.73 1280.24 1701.51 1279.93 1701.29 1279.62 1701.13 1279.39 1701.03 1279.23L1700.81 1279.35C1700.55 1280.86 1700.33 1282.17 1700.14 1283.29 1699.95 1284.41 1699.76 1285.39 1699.57 1286.22 1699.38 1287.05 1699.19 1287.75 1698.98 1288.33 1698.78 1288.91 1698.55 1289.4 1698.28 1289.82 1698.01 1290.23 1697.7 1290.58 1697.34 1290.87 1696.98 1291.16 1696.55 1291.43 1696.07 1291.68 1695.36 1292.05 1694.69 1292.24 1694.06 1292.25L1692.95 1287.79 1694.68 1286.9C1695.03 1287.48 1695.41 1287.66 1695.82 1287.45 1695.96 1287.36 1696.09 1287.25 1696.21 1287.14 1696.34 1287.03 1696.46 1286.85 1696.58 1286.63 1696.71 1286.4 1696.84 1286.07 1696.99 1285.64 1697.14 1285.21 1697.31 1284.63 1697.5 1283.91 1697.69 1283.18 1697.92 1282.27 1698.19 1281.19 1698.46 1280.1 1698.76 1278.78 1699.11 1277.2 1698.27 1276.19 1697.55 1275.31 1696.93 1274.56 1696.31 1273.81 1695.77 1273.17 1695.3 1272.65 1694.83 1272.12 1694.42 1271.71 1694.08 1271.41 1693.73 1271.1 1693.42 1270.88 1693.15 1270.74 1692.88 1270.59 1692.62 1270.52 1692.39 1270.52 1692.16 1270.52 1691.92 1270.58 1691.66 1270.69 1691.43 1270.81 1691.24 1270.96 1691.08 1271.13 1690.92 1271.31 1690.79 1271.55 1690.67 1271.84 1690.56 1272.14 1690.47 1272.53 1690.39 1273 1690.31 1273.47 1690.25 1274.06 1690.21 1274.77L1688.11 1274.56C1688.24 1273.44 1688.38 1272.48 1688.54 1271.68 1688.69 1270.88 1688.9 1270.2 1689.16 1269.63 1689.42 1269.07 1689.75 1268.59 1690.15 1268.19 1690.56 1267.79 1691.08 1267.43 1691.7 1267.11ZM1718.49 1246.39 1719.73 1245.75C1720.09 1246.51 1720.42 1247.19 1720.71 1247.79 1721 1248.39 1721.28 1248.97 1721.57 1249.53 1721.85 1250.09 1722.13 1250.64 1722.41 1251.19L1730.4 1266.69C1730.62 1267.11 1730.82 1267.47 1731.01 1267.76 1731.19 1268.05 1731.37 1268.29 1731.54 1268.47 1731.71 1268.64 1731.88 1268.78 1732.06 1268.88 1732.24 1268.98 1732.43 1269.04 1732.62 1269.08 1732.87 1269.16 1733.15 1269.18 1733.47 1269.12 1733.78 1269.07 1734.17 1268.97 1734.62 1268.81 1735.08 1268.66 1735.61 1268.44 1736.22 1268.17 1736.83 1267.9 1737.55 1267.56 1738.38 1267.14L1739.3 1268.92 1723.13 1277.26 1722.21 1275.49C1723 1275.04 1723.66 1274.66 1724.2 1274.34 1724.74 1274.02 1725.19 1273.73 1725.56 1273.46 1725.92 1273.2 1726.2 1272.97 1726.4 1272.77 1726.6 1272.57 1726.76 1272.37 1726.88 1272.17 1727.01 1271.95 1727.1 1271.74 1727.16 1271.52 1727.23 1271.31 1727.24 1271.07 1727.21 1270.81 1727.18 1270.55 1727.11 1270.26 1727 1269.92 1726.88 1269.58 1726.71 1269.18 1726.47 1268.72L1718.92 1254.1C1718.65 1253.57 1718.36 1253.24 1718.04 1253.13 1717.72 1253.02 1717.37 1253.06 1716.99 1253.26 1716.57 1253.48 1716.06 1254.02 1715.45 1254.88 1714.85 1255.74 1714.11 1256.94 1713.23 1258.48 1712.89 1258.26 1712.57 1258.03 1712.26 1257.79 1711.95 1257.56 1711.63 1257.32 1711.29 1257.08 1712.5 1255.28 1713.7 1253.5 1714.88 1251.73 1716.05 1249.96 1717.26 1248.18 1718.49 1246.39Z" fill="#215F9A" fill-rule="evenodd"/><text fill="#000000" fill-opacity="0" font-family="Arial,Arial_MSFontService,sans-serif" font-size="46.5021" x="1688.11" y="1286.44">𝑥1</text><path d="M1470.42 1253.18 1332.96 986.711 1339.07 983.559 1476.53 1250.03ZM1330.94 1016.75 1332.89 979.072 1364.73 999.32C1366.33 1000.34 1366.8 1002.46 1365.78 1004.07 1364.76 1005.67 1362.64 1006.14 1361.04 1005.12L1334.17 988.036 1339.45 985.313 1337.8 1017.11C1337.7 1019 1336.09 1020.46 1334.19 1020.36 1332.29 1020.26 1330.84 1018.65 1330.94 1016.75Z" fill="#215F9A"/><path d="M1286.34 1162.86C1287.53 1162.24 1288.67 1162.16 1289.76 1162.6 1290.86 1163.05 1291.75 1163.94 1292.45 1165.29 1293.21 1166.76 1293.86 1168.73 1294.41 1171.21L1295.67 1176.65C1295.98 1178.03 1296.25 1179.1 1296.46 1179.86 1296.68 1180.61 1296.88 1181.26 1297.08 1181.79 1297.27 1182.33 1297.45 1182.76 1297.62 1183.09 1298.28 1184.37 1298.97 1185.18 1299.69 1185.53 1300.4 1185.87 1301.24 1185.79 1302.21 1185.3 1302.98 1184.9 1303.66 1184.15 1304.24 1183.07 1304.82 1181.99 1305.29 1180.56 1305.65 1178.79 1306.02 1177.02 1306.2 1175.39 1306.21 1173.9 1306.21 1172.41 1305.96 1170.7 1305.47 1168.78L1301.9 1155.39 1306.71 1152.91 1311.73 1172.61C1312.24 1174.6 1312.75 1176.08 1313.24 1177.04 1313.62 1177.78 1314.02 1178.25 1314.43 1178.46 1314.85 1178.67 1315.31 1178.64 1315.83 1178.38 1316.39 1178.09 1316.86 1177.56 1317.26 1176.78 1317.65 1176 1318.1 1174.68 1318.58 1172.81L1320.97 1173.55C1320.21 1176.21 1319.43 1178.22 1318.63 1179.57 1317.82 1180.92 1316.76 1181.94 1315.42 1182.63 1314.28 1183.22 1313.16 1183.32 1312.09 1182.91 1311.01 1182.5 1310.15 1181.67 1309.5 1180.41 1308.98 1179.41 1308.64 1178.21 1308.47 1176.79L1308.08 1176.85C1307.58 1180.37 1306.82 1183.16 1305.81 1185.23 1304.8 1187.3 1303.44 1188.78 1301.72 1189.66 1300 1190.55 1298.42 1190.74 1296.98 1190.23 1295.54 1189.71 1294.37 1188.58 1293.46 1186.82 1292.86 1185.65 1292.28 1183.86 1291.7 1181.43L1289.76 1173.23C1289.21 1170.95 1288.73 1169.39 1288.3 1168.56 1287.92 1167.82 1287.52 1167.35 1287.11 1167.14 1286.69 1166.93 1286.23 1166.96 1285.71 1167.22 1285.14 1167.52 1284.65 1168.07 1284.26 1168.87 1283.86 1169.67 1283.43 1170.98 1282.96 1172.79L1280.57 1172.06C1281.32 1169.65 1281.95 1167.95 1282.44 1166.94 1282.93 1165.94 1283.47 1165.13 1284.08 1164.5 1284.68 1163.87 1285.43 1163.32 1286.34 1162.86Z" fill="#215F9A" fill-rule="evenodd"/><text fill="#000000" fill-opacity="0" font-family="Arial,Arial_MSFontService,sans-serif" font-size="37.5957" x="1280.57" y="1185.81">𝑢</text><path d="M1327.13 1164.39C1327.62 1164.14 1328.07 1163.97 1328.47 1163.89 1328.88 1163.81 1329.28 1163.8 1329.68 1163.87 1330.08 1163.94 1330.48 1164.09 1330.88 1164.33 1331.28 1164.56 1331.73 1164.86 1332.21 1165.23 1332.49 1165.46 1332.84 1165.83 1333.26 1166.31 1333.68 1166.8 1334.16 1167.37 1334.69 1168.03 1335.22 1168.69 1335.78 1169.42 1336.39 1170.22 1336.99 1171.03 1337.62 1171.88 1338.27 1172.77 1338.91 1173.66 1339.57 1174.57 1340.23 1175.51 1340.89 1176.46 1341.53 1177.39 1342.16 1178.3 1342.49 1176.44 1342.71 1174.62 1342.82 1172.83 1342.93 1171.05 1342.95 1169.4 1342.89 1167.89 1342.83 1166.38 1342.69 1165.05 1342.47 1163.9 1342.26 1162.74 1341.99 1161.87 1341.66 1161.28 1341.36 1160.68 1340.98 1160.33 1340.53 1160.24 1340.09 1160.14 1339.49 1160.26 1338.73 1160.6L1338.32 1159.16 1344.13 1156.16 1345.46 1156.97C1345.83 1161.03 1345.91 1165.09 1345.71 1169.15 1345.5 1173.2 1345.02 1177.29 1344.25 1181.41 1343.86 1183.1 1343.5 1184.58 1343.14 1185.85 1342.79 1187.12 1342.44 1188.23 1342.08 1189.2 1341.73 1190.16 1341.36 1190.99 1340.99 1191.69 1340.62 1192.38 1340.22 1192.98 1339.8 1193.5 1339.38 1194.02 1338.92 1194.47 1338.44 1194.85 1337.95 1195.23 1337.43 1195.58 1336.86 1195.91 1336.54 1196.07 1336.15 1196.23 1335.67 1196.39 1335.19 1196.55 1334.76 1196.66 1334.36 1196.73L1333.08 1191.74 1334.93 1190.78 1335 1190.9C1335.47 1191.83 1336.09 1192.1 1336.83 1191.71 1337.83 1191.2 1338.63 1190.3 1339.26 1189 1339.88 1187.71 1340.48 1185.85 1341.05 1183.42 1339.27 1181.06 1337.72 1179.04 1336.41 1177.33 1335.1 1175.62 1333.96 1174.17 1333 1172.99 1332.04 1171.81 1331.23 1170.86 1330.57 1170.15 1329.91 1169.44 1329.35 1168.91 1328.89 1168.56 1328.44 1168.21 1328.05 1168.01 1327.74 1167.96 1327.43 1167.9 1327.15 1167.94 1326.89 1168.08 1326.64 1168.2 1326.43 1168.35 1326.26 1168.52 1326.09 1168.68 1325.94 1168.92 1325.82 1169.22 1325.7 1169.52 1325.61 1169.91 1325.54 1170.39 1325.46 1170.86 1325.39 1171.48 1325.31 1172.22L1323.21 1172.01C1323.35 1170.85 1323.52 1169.86 1323.72 1169.04 1323.91 1168.22 1324.17 1167.51 1324.48 1166.93 1324.79 1166.35 1325.16 1165.86 1325.59 1165.45 1326.02 1165.05 1326.53 1164.7 1327.13 1164.39ZM1356.77 1142.2 1358.02 1141.56C1358.38 1142.32 1358.7 1143 1358.99 1143.6 1359.28 1144.2 1359.57 1144.78 1359.85 1145.34 1360.13 1145.9 1360.41 1146.45 1360.69 1147L1368.69 1162.5C1368.91 1162.92 1369.11 1163.28 1369.29 1163.57 1369.48 1163.86 1369.65 1164.09 1369.82 1164.27 1369.99 1164.45 1370.17 1164.59 1370.35 1164.69 1370.53 1164.79 1370.71 1164.85 1370.9 1164.89 1371.15 1164.97 1371.43 1164.98 1371.75 1164.93 1372.07 1164.88 1372.46 1164.78 1372.91 1164.62 1373.36 1164.46 1373.89 1164.25 1374.5 1163.98 1375.11 1163.71 1375.83 1163.37 1376.67 1162.95L1377.58 1164.73 1361.41 1173.07 1360.5 1171.29C1361.28 1170.85 1361.95 1170.47 1362.49 1170.15 1363.03 1169.83 1363.48 1169.54 1363.84 1169.27 1364.2 1169.01 1364.49 1168.78 1364.69 1168.58 1364.88 1168.38 1365.04 1168.18 1365.17 1167.98 1365.29 1167.76 1365.39 1167.54 1365.45 1167.33 1365.51 1167.12 1365.53 1166.88 1365.5 1166.62 1365.47 1166.36 1365.39 1166.06 1365.28 1165.73 1365.17 1165.39 1364.99 1164.99 1364.75 1164.53L1357.21 1149.9C1356.94 1149.37 1356.64 1149.05 1356.32 1148.94 1356.01 1148.83 1355.66 1148.87 1355.28 1149.07 1354.86 1149.28 1354.34 1149.82 1353.74 1150.69 1353.13 1151.55 1352.39 1152.75 1351.52 1154.29 1351.18 1154.07 1350.85 1153.84 1350.54 1153.6 1350.23 1153.37 1349.91 1153.13 1349.58 1152.88 1350.79 1151.09 1351.98 1149.31 1353.16 1147.54 1354.34 1145.77 1355.54 1143.99 1356.77 1142.2Z" fill="#215F9A" fill-rule="evenodd"/><text fill="#000000" fill-opacity="0" font-family="Arial,Arial_MSFontService,sans-serif" font-size="55.1718" x="1323.21" y="1189.83">𝑦1</text><path d="M1508.53 1139.38 1522.13 1092.09 1565.9 1104.68 1552.3 1151.97Z" fill="#FFFFFF" fill-rule="evenodd"/><path d="M1438.02 1128.83 1439.08 1128.3 1446.4 1125.11 1453.79 1122.33 1461.29 1119.95 1476.29 1116.44 1491.42 1114.49 1506.54 1114.09 1521.55 1115.18 1536.34 1117.72 1550.81 1121.68 1564.88 1127.02 1578.42 1133.68 1591.35 1141.64 1603.58 1150.85 1614.98 1161.27 1625.48 1172.85 1634.94 1185.53 1639.29 1192.33 1643.29 1199.29 1637.33 1202.72 1633.37 1195.83 1633.46 1195.97 1629.21 1189.34 1629.35 1189.54 1620.07 1177.09 1620.27 1177.35 1610 1166 1610.23 1166.23 1599.06 1156.03 1599.31 1156.24 1587.35 1147.23 1587.61 1147.41 1574.96 1139.62 1575.24 1139.78 1561.99 1133.26 1562.28 1133.39 1548.53 1128.17 1548.84 1128.27 1534.68 1124.4 1535.01 1124.47 1520.55 1121.98 1520.88 1122.02 1506.21 1120.95 1506.56 1120.96 1491.78 1121.36 1492.13 1121.33 1477.34 1123.23 1477.69 1123.17 1462.99 1126.61 1463.24 1126.54 1455.96 1128.86 1456.13 1128.8 1448.9 1131.51 1449.07 1131.44 1441.91 1134.56 1442.07 1134.49 1441.09 1134.98ZM1471.1 1137.41 1433.45 1134.95 1454.12 1103.39C1455.16 1101.8 1457.29 1101.35 1458.88 1102.39 1460.47 1103.43 1460.91 1105.57 1459.87 1107.15L1442.43 1133.78 1439.78 1128.47 1471.55 1130.55C1473.44 1130.67 1474.88 1132.31 1474.75 1134.2 1474.63 1136.1 1472.99 1137.53 1471.1 1137.41Z" fill="#215F9A"/><path d="M1531.78 1046.87C1532.96 1046.26 1534.1 1046.18 1535.2 1046.62 1536.29 1047.06 1537.19 1047.96 1537.89 1049.31 1538.64 1050.77 1539.3 1052.75 1539.85 1055.23L1541.11 1060.66C1541.42 1062.05 1541.69 1063.12 1541.9 1063.87 1542.12 1064.63 1542.32 1065.28 1542.51 1065.81 1542.71 1066.34 1542.89 1066.78 1543.06 1067.11 1543.72 1068.39 1544.41 1069.2 1545.12 1069.54 1545.84 1069.89 1546.68 1069.81 1547.64 1069.32 1548.42 1068.91 1549.1 1068.17 1549.68 1067.09 1550.26 1066.01 1550.73 1064.58 1551.09 1062.81 1551.46 1061.04 1551.64 1059.41 1551.64 1057.92 1551.65 1056.43 1551.4 1054.72 1550.9 1052.8L1547.34 1039.41 1552.14 1036.93 1557.17 1056.63C1557.68 1058.62 1558.18 1060.09 1558.68 1061.06 1559.06 1061.8 1559.46 1062.27 1559.87 1062.48 1560.28 1062.69 1560.75 1062.66 1561.27 1062.39 1561.82 1062.11 1562.3 1061.57 1562.69 1060.8 1563.09 1060.02 1563.53 1058.69 1564.02 1056.82L1566.41 1057.56C1565.65 1060.23 1564.87 1062.24 1564.06 1063.59 1563.26 1064.94 1562.19 1065.96 1560.86 1066.65 1559.71 1067.24 1558.6 1067.33 1557.52 1066.93 1556.45 1066.52 1555.58 1065.69 1554.93 1064.43 1554.42 1063.43 1554.08 1062.22 1553.91 1060.81L1553.52 1060.87C1553.01 1064.39 1552.26 1067.18 1551.25 1069.25 1550.24 1071.32 1548.88 1072.79 1547.15 1073.68 1545.43 1074.57 1543.85 1074.76 1542.42 1074.25 1540.98 1073.73 1539.81 1072.6 1538.9 1070.84 1538.3 1069.67 1537.71 1067.88 1537.14 1065.45L1535.19 1057.24C1534.65 1054.97 1534.17 1053.41 1533.74 1052.58 1533.35 1051.84 1532.96 1051.36 1532.54 1051.15 1532.13 1050.95 1531.67 1050.97 1531.15 1051.24 1530.57 1051.54 1530.09 1052.09 1529.69 1052.89 1529.3 1053.69 1528.87 1055 1528.39 1056.81L1526.01 1056.07C1526.76 1053.67 1527.38 1051.96 1527.87 1050.96 1528.36 1049.96 1528.91 1049.14 1529.51 1048.52 1530.12 1047.89 1530.87 1047.34 1531.78 1046.87Z" fill="#215F9A" fill-rule="evenodd"/><text fill="#000000" fill-opacity="0" font-family="Arial,Arial_MSFontService,sans-serif" font-size="37.5957" x="1526.01" y="1069.83">𝑢</text><path d="M1588.09 1043.11C1587.25 1043.54 1586.67 1044.16 1586.35 1044.95 1586.04 1045.74 1585.89 1046.6 1585.9 1047.55 1585.91 1048.49 1586.02 1049.46 1586.24 1050.46 1586.45 1051.46 1586.68 1052.38 1586.91 1053.24L1589.63 1063.82C1591.25 1062.89 1592.49 1061.73 1593.35 1060.37 1594.21 1059 1594.76 1057.53 1594.99 1055.96 1595.22 1054.39 1595.16 1052.77 1594.82 1051.1 1594.48 1049.44 1593.91 1047.84 1593.12 1046.3 1592.89 1045.85 1592.61 1045.37 1592.29 1044.87 1591.97 1044.36 1591.6 1043.93 1591.19 1043.56 1590.78 1043.2 1590.31 1042.95 1589.8 1042.82 1589.28 1042.69 1588.71 1042.79 1588.09 1043.11ZM1576.7 1046.27 1578.88 1047.29C1577.51 1050.17 1576.72 1052.87 1576.51 1055.4 1576.3 1057.92 1576.68 1060.14 1577.66 1062.04 1578.57 1063.81 1579.71 1064.98 1581.05 1065.56 1582.4 1066.14 1584.02 1066.13 1585.9 1065.54L1583.2 1055.26C1582.7 1053.39 1582.44 1051.67 1582.43 1050.12 1582.43 1048.57 1582.62 1047.18 1583.02 1045.97 1583.42 1044.76 1583.99 1043.71 1584.75 1042.84 1585.51 1041.97 1586.39 1041.27 1587.41 1040.75 1589.47 1039.69 1591.33 1039.5 1593 1040.19 1594.67 1040.88 1596.08 1042.33 1597.22 1044.54 1598.25 1046.53 1598.87 1048.55 1599.1 1050.61 1599.33 1052.67 1599.15 1054.66 1598.57 1056.57 1597.99 1058.48 1597.01 1060.25 1595.63 1061.88 1594.25 1063.51 1592.48 1064.9 1590.31 1066.03L1592.75 1075.41 1588.93 1077.38 1586.49 1067.84C1585.03 1068.38 1583.64 1068.69 1582.33 1068.79 1581.02 1068.89 1579.82 1068.77 1578.72 1068.45 1577.62 1068.12 1576.63 1067.58 1575.75 1066.83 1574.87 1066.07 1574.13 1065.11 1573.52 1063.92 1572.35 1061.65 1572.04 1059.04 1572.59 1056.1 1573.15 1053.15 1574.52 1049.88 1576.7 1046.27Z" fill="#215F9A" fill-rule="evenodd"/><text fill="#000000" fill-opacity="0" font-family="Arial,Arial_MSFontService,sans-serif" font-size="37.5973" x="1572.33" y="1072.68">𝜑</text><path d="M1606.39 1026.39C1605.44 1026.88 1604.77 1027.54 1604.39 1028.36 1604.01 1029.19 1603.87 1030.18 1603.99 1031.33 1604.11 1032.48 1604.45 1033.79 1605.01 1035.25 1605.56 1036.71 1606.29 1038.31 1607.2 1040.07 1608.24 1042.09 1609.25 1043.79 1610.2 1045.17 1611.16 1046.54 1612.09 1047.6 1613 1048.33 1613.91 1049.07 1614.79 1049.5 1615.64 1049.63 1616.5 1049.76 1617.36 1049.6 1618.23 1049.15 1619.05 1048.73 1619.66 1048.15 1620.05 1047.41 1620.44 1046.67 1620.61 1045.75 1620.55 1044.66 1620.5 1043.56 1620.22 1042.28 1619.72 1040.8 1619.21 1039.33 1618.48 1037.66 1617.52 1035.8 1616.44 1033.71 1615.4 1031.96 1614.4 1030.57 1613.39 1029.18 1612.44 1028.1 1611.53 1027.34 1610.62 1026.58 1609.74 1026.12 1608.88 1025.98 1608.02 1025.84 1607.19 1025.97 1606.39 1026.39ZM1605.45 1024.37C1607.07 1023.53 1608.61 1023.12 1610.07 1023.13 1611.53 1023.14 1612.91 1023.52 1614.22 1024.27 1615.53 1025.02 1616.77 1026.11 1617.94 1027.55 1619.12 1029 1620.23 1030.74 1621.28 1032.78 1623.62 1037.31 1624.58 1041.14 1624.17 1044.29 1623.76 1047.43 1622.04 1049.79 1618.99 1051.36 1615.97 1052.92 1613.16 1052.98 1610.57 1051.55 1607.97 1050.12 1605.52 1047.18 1603.23 1042.74 1602.03 1040.41 1601.22 1038.28 1600.8 1036.35 1600.38 1034.41 1600.29 1032.67 1600.53 1031.12 1600.78 1029.58 1601.32 1028.24 1602.17 1027.11 1603.01 1025.97 1604.11 1025.06 1605.45 1024.37Z" fill="#215F9A" fill-rule="evenodd"/><text fill="#000000" fill-opacity="0" font-family="Arial,Arial_MSFontService,sans-serif" font-size="29.4488" x="1600.4" y="1048.9">0</text><path d="M3418.57 1276.28C3423.68 1269.04 3433.69 1267.32 3440.93 1272.44 3448.16 1277.55 3449.88 1287.56 3444.76 1294.8 3439.65 1302.03 3429.64 1303.75 3422.4 1298.64 3415.17 1293.52 3413.45 1283.51 3418.57 1276.28Z" stroke="#042433" stroke-width="13.75" stroke-miterlimit="8" fill="#FFFFFF" fill-rule="evenodd"/><path d="M3465.83 1305.59 3710.65 1478.69 3706.68 1484.31 3461.86 1311.21ZM3698.6 1451.1 3714.24 1485.44 3676.65 1482.14C3674.76 1481.98 3673.36 1480.31 3673.53 1478.42 3673.69 1476.53 3675.36 1475.13 3677.25 1475.3L3708.97 1478.07 3705.54 1482.92 3692.34 1453.95C3691.56 1452.22 3692.32 1450.18 3694.05 1449.4 3695.78 1448.61 3697.81 1449.37 3698.6 1451.1Z" fill="#215F9A"/><path d="M3522.3 1406.85C3523.39 1407.62 3523.99 1408.6 3524.1 1409.77 3524.22 1410.95 3523.83 1412.16 3522.96 1413.4 3522 1414.74 3520.56 1416.23 3518.61 1417.87L3514.37 1421.49C3513.28 1422.41 3512.46 1423.13 3511.88 1423.67 3511.31 1424.21 3510.83 1424.69 3510.45 1425.11 3510.06 1425.53 3509.76 1425.89 3509.55 1426.19 3508.72 1427.37 3508.31 1428.35 3508.34 1429.15 3508.36 1429.94 3508.82 1430.65 3509.7 1431.28 3510.42 1431.78 3511.39 1432.04 3512.62 1432.06 3513.84 1432.07 3515.33 1431.83 3517.07 1431.34 3518.8 1430.84 3520.34 1430.26 3521.66 1429.57 3522.99 1428.89 3524.39 1427.88 3525.86 1426.55L3536.1 1417.22 3540.51 1420.34 3525.35 1433.88C3523.82 1435.25 3522.74 1436.38 3522.12 1437.26 3521.64 1437.94 3521.4 1438.52 3521.4 1438.98 3521.41 1439.44 3521.65 1439.84 3522.12 1440.18 3522.64 1440.54 3523.33 1440.71 3524.2 1440.71 3525.07 1440.7 3526.45 1440.48 3528.34 1440.05L3528.78 1442.51C3526.07 1443.07 3523.92 1443.3 3522.35 1443.21 3520.78 1443.12 3519.39 1442.64 3518.16 1441.78 3517.11 1441.03 3516.51 1440.09 3516.38 1438.94 3516.24 1437.8 3516.58 1436.65 3517.4 1435.5 3518.05 1434.58 3518.96 1433.72 3520.14 1432.92L3519.91 1432.6C3516.55 1433.77 3513.72 1434.39 3511.42 1434.45 3509.12 1434.51 3507.18 1433.97 3505.6 1432.86 3504.02 1431.74 3503.12 1430.42 3502.92 1428.91 3502.71 1427.4 3503.18 1425.84 3504.32 1424.22 3505.08 1423.15 3506.4 1421.8 3508.29 1420.18L3514.67 1414.66C3516.45 1413.13 3517.6 1411.99 3518.14 1411.22 3518.62 1410.54 3518.86 1409.97 3518.86 1409.51 3518.85 1409.04 3518.61 1408.64 3518.14 1408.31 3517.61 1407.93 3516.9 1407.76 3516 1407.78 3515.11 1407.8 3513.75 1408.01 3511.92 1408.43L3511.48 1405.97C3513.96 1405.53 3515.76 1405.3 3516.87 1405.27 3517.99 1405.25 3518.97 1405.35 3519.8 1405.6 3520.63 1405.85 3521.47 1406.26 3522.3 1406.85Z" fill="#215F9A" fill-rule="evenodd"/><text fill="#000000" fill-opacity="0" font-family="Arial,Arial_MSFontService,sans-serif" font-size="37.9587" x="3502.87" y="1438.48">𝑢</text><path d="M3540.74 1444.46C3541.43 1444.94 3541.88 1445.49 3542.11 1446.1 3542.33 1446.71 3542.39 1447.4 3542.27 1448.18 3542.15 1448.96 3541.88 1449.83 3541.47 1450.81 3541.07 1451.78 3540.58 1452.89 3540.03 1454.13L3540.27 1454.3C3541.72 1453.84 3542.97 1453.45 3544.03 1453.11 3545.1 1452.77 3546.02 1452.51 3546.8 1452.31 3547.59 1452.12 3548.26 1451.99 3548.83 1451.92 3549.39 1451.85 3549.9 1451.84 3550.34 1451.9 3550.78 1451.97 3551.2 1452.09 3551.59 1452.27 3551.98 1452.45 3552.38 1452.69 3552.81 1452.99 3553.43 1453.43 3553.92 1453.94 3554.27 1454.53L3550.73 1457.56 3549.17 1456.46C3549.51 1455.9 3549.5 1455.49 3549.14 1455.23 3549 1455.13 3548.84 1455.05 3548.64 1454.99 3548.44 1454.92 3548.18 1454.89 3547.85 1454.88 3547.51 1454.87 3547.11 1454.89 3546.62 1454.95 3546.14 1455.02 3545.55 1455.12 3544.84 1455.27 3544.14 1455.42 3543.31 1455.62 3542.35 1455.88 3541.4 1456.15 3540.29 1456.47 3539.03 1456.85 3538.15 1458.81 3537.46 1460.4 3536.97 1461.61 3536.48 1462.82 3536.16 1463.78 3535.99 1464.48 3535.83 1465.19 3535.8 1465.71 3535.91 1466.04 3536.01 1466.37 3536.21 1466.63 3536.5 1466.83 3536.71 1466.99 3536.92 1467.1 3537.14 1467.18 3537.35 1467.26 3537.62 1467.28 3537.93 1467.25 3538.25 1467.22 3538.63 1467.12 3539.1 1466.97 3539.56 1466.82 3540.14 1466.6 3540.83 1466.3L3541.59 1468.22C3540.46 1468.65 3539.49 1468.98 3538.7 1469.21 3537.9 1469.43 3537.2 1469.55 3536.59 1469.57 3535.97 1469.59 3535.42 1469.5 3534.92 1469.3 3534.42 1469.11 3533.89 1468.82 3533.34 1468.43 3532.87 1468.09 3532.49 1467.73 3532.21 1467.33 3531.93 1466.94 3531.77 1466.47 3531.74 1465.92 3531.71 1465.58 3531.73 1465.17 3531.82 1464.7 3531.91 1464.23 3532.03 1463.74 3532.19 1463.23 3532.34 1462.72 3532.52 1462.2 3532.72 1461.68 3532.92 1461.16 3533.12 1460.67 3533.32 1460.23 3533.52 1459.79 3533.71 1459.41 3533.88 1459.07 3534.05 1458.73 3534.18 1458.48 3534.28 1458.32L3534.07 1458.18C3532.61 1458.65 3531.35 1459.06 3530.26 1459.41 3529.18 1459.76 3528.23 1460.04 3527.4 1460.25 3526.58 1460.47 3525.86 1460.62 3525.26 1460.7 3524.65 1460.79 3524.11 1460.81 3523.61 1460.76 3523.12 1460.72 3522.67 1460.6 3522.25 1460.41 3521.82 1460.23 3521.39 1459.98 3520.94 1459.66 3520.29 1459.2 3519.81 1458.69 3519.51 1458.14L3522.96 1455.1 3524.55 1456.22C3524.2 1456.8 3524.21 1457.22 3524.58 1457.49 3524.73 1457.57 3524.88 1457.64 3525.04 1457.7 3525.2 1457.75 3525.41 1457.78 3525.66 1457.79 3525.92 1457.79 3526.28 1457.76 3526.73 1457.69 3527.18 1457.63 3527.77 1457.51 3528.5 1457.35 3529.24 1457.18 3530.15 1456.97 3531.23 1456.71 3532.32 1456.44 3533.64 1456.1 3535.19 1455.68 3535.71 1454.47 3536.16 1453.42 3536.53 1452.53 3536.91 1451.63 3537.23 1450.86 3537.48 1450.2 3537.73 1449.54 3537.91 1448.99 3538.02 1448.55 3538.13 1448.1 3538.18 1447.72 3538.18 1447.41 3538.19 1447.11 3538.13 1446.85 3538.03 1446.64 3537.92 1446.43 3537.76 1446.25 3537.54 1446.07 3537.33 1445.92 3537.11 1445.82 3536.88 1445.76 3536.65 1445.7 3536.38 1445.69 3536.06 1445.73 3535.74 1445.77 3535.36 1445.86 3534.9 1446.01 3534.45 1446.16 3533.9 1446.38 3533.25 1446.66L3532.47 1444.71C3533.52 1444.31 3534.43 1443.99 3535.22 1443.76 3536 1443.52 3536.7 1443.39 3537.32 1443.36 3537.94 1443.33 3538.52 1443.41 3539.07 1443.58 3539.61 1443.76 3540.16 1444.05 3540.74 1444.46Z" fill="#215F9A" fill-rule="evenodd"/><text fill="#000000" fill-opacity="0" font-family="Arial,Arial_MSFontService,sans-serif" font-size="26.2155" x="3519.51" y="1466.29">𝑥</text><path d="M3576.23 1457.63 3575.72 1459.43C3572.11 1458.33 3568.62 1458.67 3565.24 1460.47 3561.86 1462.27 3558.68 1465.28 3555.69 1469.5 3552.6 1473.88 3550.76 1477.98 3550.16 1481.81 3549.56 1485.64 3550.36 1489.05 3552.57 1492.05L3551.1 1493.18C3548.12 1489.63 3546.78 1485.58 3547.07 1481.02 3547.37 1476.46 3549.12 1471.92 3552.32 1467.4 3555.51 1462.89 3559.21 1459.73 3563.42 1457.92 3567.63 1456.11 3571.9 1456.01 3576.23 1457.63Z" fill="#215F9A" fill-rule="evenodd"/><text fill="#000000" fill-opacity="0" font-family="Arial,Arial_MSFontService,sans-serif" font-size="36.6919" x="3547.03" y="1488.59">(</text><path d="M3578.63 1471.24C3579.55 1471.9 3580.05 1472.71 3580.13 1473.67 3580.21 1474.63 3579.9 1475.61 3579.2 1476.6 3579.02 1476.85 3578.82 1477.09 3578.58 1477.34 3578.34 1477.58 3578.08 1477.79 3577.79 1477.96L3577.98 1478.24C3580.37 1477.43 3582.45 1477.04 3584.21 1477.05 3585.97 1477.06 3587.49 1477.51 3588.75 1478.4 3590.07 1479.34 3590.81 1480.39 3590.96 1481.57 3591.11 1482.74 3590.74 1483.97 3589.83 1485.26 3589.55 1485.65 3589.12 1486.15 3588.52 1486.75 3587.92 1487.36 3587.25 1488.01 3586.5 1488.7 3585.75 1489.39 3584.97 1490.09 3584.17 1490.8 3583.36 1491.52 3582.62 1492.17 3581.93 1492.77 3581.24 1493.38 3580.66 1493.89 3580.19 1494.32 3579.71 1494.76 3579.43 1495.04 3579.34 1495.16 3579.01 1495.64 3578.85 1496.04 3578.88 1496.38 3578.9 1496.71 3579.11 1497.02 3579.49 1497.29 3579.73 1497.46 3580 1497.58 3580.29 1497.66 3580.58 1497.73 3580.92 1497.77 3581.3 1497.76 3581.68 1497.74 3582.13 1497.7 3582.64 1497.62 3583.14 1497.54 3583.73 1497.42 3584.4 1497.27L3584.81 1499.42C3583.76 1499.62 3582.82 1499.76 3581.99 1499.84 3581.16 1499.93 3580.4 1499.95 3579.71 1499.91 3579.02 1499.86 3578.39 1499.74 3577.81 1499.55 3577.24 1499.36 3576.68 1499.07 3576.14 1498.69 3575.69 1498.37 3575.34 1497.99 3575.08 1497.55 3574.83 1497.1 3574.67 1496.63 3574.61 1496.13 3574.55 1495.63 3574.59 1495.12 3574.74 1494.59 3574.89 1494.07 3575.14 1493.56 3575.49 1493.06 3575.84 1492.56 3576.31 1492.01 3576.89 1491.42 3577.47 1490.82 3578.14 1490.2 3578.92 1489.55 3579.72 1488.9 3580.48 1488.27 3581.2 1487.66 3581.92 1487.06 3582.57 1486.49 3583.16 1485.96 3583.75 1485.43 3584.26 1484.95 3584.69 1484.51 3585.12 1484.08 3585.45 1483.7 3585.68 1483.37 3586.23 1482.6 3586.48 1481.92 3586.45 1481.35 3586.41 1480.78 3586.07 1480.27 3585.42 1479.81 3585.04 1479.55 3584.57 1479.36 3584 1479.25 3583.43 1479.14 3582.81 1479.1 3582.13 1479.13 3581.45 1479.17 3580.74 1479.27 3579.99 1479.44 3579.24 1479.61 3578.5 1479.84 3577.77 1480.13 3577.05 1480.41 3576.35 1480.75 3575.67 1481.14 3574.99 1481.53 3574.38 1481.97 3573.85 1482.45L3565.1 1490.38 3561.43 1487.78 3572.88 1477.55C3573.5 1477.02 3574.03 1476.52 3574.47 1476.06 3574.9 1475.6 3575.24 1475.21 3575.47 1474.88 3576.11 1473.97 3576.06 1473.25 3575.33 1472.73 3575.1 1472.57 3574.84 1472.46 3574.54 1472.39 3574.25 1472.32 3573.9 1472.29 3573.52 1472.3 3573.13 1472.3 3572.68 1472.34 3572.18 1472.42 3571.68 1472.49 3571.1 1472.59 3570.45 1472.71L3570.02 1470.58C3571.09 1470.39 3572.05 1470.24 3572.89 1470.15 3573.73 1470.07 3574.49 1470.04 3575.17 1470.08 3575.84 1470.11 3576.46 1470.23 3577.02 1470.42 3577.58 1470.61 3578.12 1470.88 3578.63 1471.24Z" fill="#215F9A" fill-rule="evenodd"/><text fill="#000000" fill-opacity="0" font-family="Arial,Arial_MSFontService,sans-serif" font-size="29.8693" x="3561.43" y="1496.2">𝑛</text><path d="M3595.67 1493.38 3617.25 1508.64 3615.23 1511.51 3593.64 1496.25Z" fill="#215F9A" fill-rule="evenodd"/><text fill="#000000" fill-opacity="0" font-family="Arial,Arial_MSFontService,sans-serif" font-size="18.1296" x="3593.64" y="1509.24">−</text><path d="M3641.04 1507.87 3642.19 1508.68C3641.67 1509.35 3641.22 1509.95 3640.82 1510.48 3640.43 1511.02 3640.04 1511.54 3639.68 1512.05 3639.31 1512.55 3638.95 1513.06 3638.59 1513.56L3628.52 1527.8C3628.25 1528.19 3628.03 1528.53 3627.85 1528.83 3627.68 1529.13 3627.55 1529.39 3627.47 1529.63 3627.39 1529.86 3627.35 1530.08 3627.35 1530.28 3627.34 1530.49 3627.37 1530.68 3627.42 1530.87 3627.47 1531.13 3627.58 1531.38 3627.78 1531.64 3627.97 1531.9 3628.24 1532.19 3628.59 1532.52 3628.93 1532.85 3629.37 1533.23 3629.89 1533.64 3630.41 1534.06 3631.05 1534.54 3631.8 1535.09L3630.65 1536.72 3615.79 1526.21 3616.94 1524.58C3617.7 1525.08 3618.34 1525.49 3618.88 1525.82 3619.41 1526.16 3619.88 1526.42 3620.28 1526.62 3620.68 1526.82 3621.02 1526.96 3621.28 1527.05 3621.55 1527.14 3621.8 1527.19 3622.03 1527.2 3622.29 1527.21 3622.52 1527.2 3622.74 1527.15 3622.96 1527.11 3623.18 1527.02 3623.39 1526.87 3623.61 1526.72 3623.84 1526.52 3624.09 1526.26 3624.33 1526.01 3624.61 1525.67 3624.91 1525.24L3634.41 1511.81C3634.75 1511.32 3634.9 1510.91 3634.86 1510.58 3634.81 1510.24 3634.61 1509.96 3634.26 1509.71 3633.87 1509.43 3633.16 1509.23 3632.11 1509.09 3631.07 1508.95 3629.66 1508.85 3627.89 1508.78 3627.93 1508.37 3627.99 1507.98 3628.05 1507.6 3628.12 1507.21 3628.18 1506.82 3628.25 1506.41 3630.4 1506.66 3632.53 1506.89 3634.64 1507.12 3636.76 1507.35 3638.89 1507.6 3641.04 1507.87Z" fill="#215F9A" fill-rule="evenodd"/><text fill="#000000" fill-opacity="0" font-family="Arial,Arial_MSFontService,sans-serif" font-size="30.3109" x="3615.79" y="1532.93">1</text><path d="M3653.68 1512.39C3656.65 1515.93 3657.98 1519.99 3657.68 1524.56 3657.38 1529.14 3655.63 1533.68 3652.44 1538.19 3649.24 1542.71 3645.55 1545.87 3641.35 1547.67 3637.15 1549.48 3632.89 1549.56 3628.55 1547.94L3629.12 1546.18C3632.68 1547.26 3636.17 1546.87 3639.58 1545.03 3642.99 1543.19 3646.24 1540.08 3649.33 1535.71 3652.32 1531.49 3654.1 1527.49 3654.67 1523.7 3655.25 1519.92 3654.41 1516.51 3652.15 1513.48Z" fill="#215F9A" fill-rule="evenodd"/><text fill="#000000" fill-opacity="0" font-family="Arial,Arial_MSFontService,sans-serif" font-size="36.7043" x="3628.55" y="1544.51">)</text><path d="M3450.48 1252.97 3623.58 1008.14 3629.2 1012.11 3456.1 1256.93ZM3595.99 1020.19 3630.33 1004.56 3627.04 1042.14C3626.87 1044.03 3625.2 1045.43 3623.31 1045.27 3621.42 1045.1 3620.02 1043.43 3620.19 1041.54L3622.96 1009.83 3627.81 1013.25 3598.84 1026.45C3597.11 1027.23 3595.07 1026.47 3594.29 1024.74 3593.5 1023.02 3594.26 1020.98 3595.99 1020.19Z" fill="#215F9A"/><path d="M3385.81 1005.57C3386.9 1006.34 3387.5 1007.31 3387.61 1008.49 3387.72 1009.67 3387.34 1010.88 3386.46 1012.12 3385.51 1013.46 3384.06 1014.95 3382.11 1016.58L3377.87 1020.21C3376.79 1021.12 3375.96 1021.85 3375.39 1022.39 3374.81 1022.93 3374.34 1023.41 3373.95 1023.83 3373.57 1024.24 3373.27 1024.61 3373.05 1024.91 3372.22 1026.09 3371.82 1027.07 3371.84 1027.87 3371.87 1028.66 3372.32 1029.37 3373.21 1030 3373.92 1030.5 3374.89 1030.76 3376.12 1030.77 3377.35 1030.79 3378.83 1030.55 3380.57 1030.06 3382.31 1029.56 3383.84 1028.97 3385.17 1028.29 3386.49 1027.61 3387.89 1026.6 3389.37 1025.27L3399.6 1015.94 3404.02 1019.06 3388.85 1032.6C3387.33 1033.97 3386.25 1035.1 3385.62 1035.98 3385.14 1036.66 3384.9 1037.23 3384.91 1037.7 3384.91 1038.16 3385.15 1038.56 3385.63 1038.9 3386.14 1039.26 3386.83 1039.43 3387.7 1039.42 3388.58 1039.42 3389.96 1039.2 3391.84 1038.77L3392.28 1041.23C3389.57 1041.78 3387.43 1042.02 3385.86 1041.93 3384.29 1041.84 3382.89 1041.36 3381.67 1040.49 3380.61 1039.75 3380.02 1038.8 3379.88 1037.66 3379.74 1036.52 3380.08 1035.37 3380.9 1034.21 3381.55 1033.29 3382.47 1032.44 3383.64 1031.64L3383.41 1031.32C3380.05 1032.49 3377.23 1033.11 3374.93 1033.17 3372.63 1033.22 3370.69 1032.69 3369.1 1031.57 3367.52 1030.46 3366.63 1029.14 3366.42 1027.63 3366.21 1026.12 3366.68 1024.55 3367.82 1022.94 3368.58 1021.87 3369.91 1020.52 3371.79 1018.89L3378.18 1013.38C3379.95 1011.85 3381.1 1010.7 3381.65 1009.94 3382.13 1009.26 3382.37 1008.69 3382.36 1008.22 3382.36 1007.76 3382.12 1007.36 3381.64 1007.03 3381.11 1006.65 3380.4 1006.48 3379.51 1006.49 3378.61 1006.51 3377.25 1006.73 3375.43 1007.15L3374.98 1004.69C3377.46 1004.25 3379.26 1004.02 3380.38 1003.99 3381.5 1003.96 3382.47 1004.07 3383.3 1004.32 3384.14 1004.56 3384.97 1004.98 3385.81 1005.57Z" fill="#215F9A" fill-rule="evenodd"/><text fill="#000000" fill-opacity="0" font-family="Arial,Arial_MSFontService,sans-serif" font-size="37.9587" x="3366.37" y="1037.2">𝑢</text><path d="M3403.25 1042.47C3403.7 1042.79 3404.05 1043.11 3404.31 1043.43 3404.57 1043.76 3404.76 1044.11 3404.88 1044.5 3405 1044.88 3405.05 1045.31 3405.03 1045.77 3405.02 1046.24 3404.95 1046.77 3404.85 1047.37 3404.77 1047.72 3404.61 1048.2 3404.37 1048.8 3404.13 1049.4 3403.84 1050.09 3403.5 1050.86 3403.16 1051.63 3402.78 1052.47 3402.34 1053.38 3401.9 1054.29 3401.44 1055.24 3400.95 1056.22 3400.46 1057.2 3399.95 1058.2 3399.42 1059.22 3398.88 1060.24 3398.35 1061.24 3397.83 1062.22 3399.63 1061.66 3401.35 1061.02 3402.99 1060.29 3404.63 1059.56 3406.1 1058.83 3407.41 1058.07 3408.72 1057.32 3409.83 1056.59 3410.76 1055.86 3411.68 1055.14 3412.33 1054.5 3412.71 1053.94 3413.1 1053.39 3413.23 1052.89 3413.11 1052.45 3412.99 1052.01 3412.61 1051.53 3411.96 1051.02L3413.05 1049.99 3418.39 1053.77 3418.28 1055.32C3414.85 1057.52 3411.29 1059.47 3407.59 1061.15 3403.9 1062.84 3400.05 1064.29 3396.04 1065.51 3394.36 1065.95 3392.88 1066.31 3391.59 1066.58 3390.3 1066.85 3389.15 1067.05 3388.13 1067.18 3387.11 1067.31 3386.2 1067.37 3385.42 1067.36 3384.63 1067.34 3383.91 1067.27 3383.25 1067.13 3382.6 1067 3381.99 1066.81 3381.43 1066.55 3380.87 1066.29 3380.32 1065.99 3379.76 1065.63 3379.47 1065.43 3379.15 1065.16 3378.79 1064.81 3378.43 1064.46 3378.12 1064.12 3377.88 1063.8L3381.72 1060.36 3383.43 1061.56 3383.35 1061.68C3382.75 1062.53 3382.79 1063.19 3383.48 1063.68 3384.39 1064.32 3385.56 1064.63 3387 1064.58 3388.43 1064.54 3390.36 1064.21 3392.78 1063.6 3394.05 1060.93 3395.14 1058.62 3396.05 1056.67 3396.96 1054.72 3397.72 1053.05 3398.32 1051.65 3398.93 1050.25 3399.39 1049.09 3399.72 1048.18 3400.04 1047.27 3400.26 1046.53 3400.36 1045.96 3400.46 1045.4 3400.46 1044.96 3400.37 1044.66 3400.27 1044.36 3400.1 1044.13 3399.87 1043.96 3399.64 1043.8 3399.42 1043.68 3399.19 1043.6 3398.96 1043.53 3398.69 1043.51 3398.36 1043.54 3398.04 1043.57 3397.65 1043.67 3397.19 1043.82 3396.74 1043.98 3396.16 1044.19 3395.46 1044.47L3394.68 1042.51C3395.77 1042.1 3396.73 1041.8 3397.55 1041.59 3398.37 1041.38 3399.11 1041.28 3399.77 1041.29 3400.43 1041.3 3401.04 1041.4 3401.59 1041.6 3402.15 1041.79 3402.7 1042.08 3403.25 1042.47Z" fill="#215F9A" fill-rule="evenodd"/><text fill="#000000" fill-opacity="0" font-family="Arial,Arial_MSFontService,sans-serif" font-size="26.068" x="3377.88" y="1064.1">𝑦</text><path d="M3441.51 1057.61 3441 1059.41C3437.39 1058.3 3433.9 1058.65 3430.52 1060.45 3427.14 1062.25 3423.96 1065.26 3420.98 1069.48 3417.88 1073.85 3416.04 1077.95 3415.44 1081.78 3414.84 1085.61 3415.64 1089.03 3417.85 1092.03L3416.38 1093.15C3413.4 1089.6 3412.06 1085.55 3412.36 1080.99 3412.66 1076.44 3414.4 1071.9 3417.6 1067.37 3420.79 1062.86 3424.49 1059.7 3428.7 1057.9 3432.91 1056.09 3437.18 1055.99 3441.51 1057.61Z" fill="#215F9A" fill-rule="evenodd"/><text fill="#000000" fill-opacity="0" font-family="Arial,Arial_MSFontService,sans-serif" font-size="36.6919" x="3412.32" y="1088.57">(</text><path d="M3443.91 1071.22C3444.83 1071.87 3445.34 1072.68 3445.41 1073.65 3445.49 1074.61 3445.18 1075.58 3444.48 1076.57 3444.31 1076.82 3444.1 1077.07 3443.86 1077.31 3443.62 1077.56 3443.36 1077.76 3443.07 1077.93L3443.27 1078.21C3445.65 1077.41 3447.73 1077.01 3449.49 1077.02 3451.25 1077.03 3452.77 1077.48 3454.03 1078.37 3455.35 1079.31 3456.09 1080.37 3456.24 1081.54 3456.4 1082.72 3456.02 1083.95 3455.11 1085.24 3454.83 1085.62 3454.4 1086.12 3453.8 1086.73 3453.2 1087.34 3452.53 1087.98 3451.78 1088.67 3451.03 1089.36 3450.25 1090.06 3449.45 1090.78 3448.64 1091.49 3447.9 1092.15 3447.21 1092.75 3446.52 1093.35 3445.94 1093.87 3445.47 1094.3 3444.99 1094.73 3444.71 1095.01 3444.62 1095.14 3444.29 1095.61 3444.13 1096.02 3444.16 1096.35 3444.18 1096.69 3444.39 1096.99 3444.77 1097.27 3445.01 1097.43 3445.28 1097.56 3445.57 1097.63 3445.86 1097.71 3446.2 1097.74 3446.58 1097.73 3446.97 1097.72 3447.41 1097.67 3447.92 1097.59 3448.43 1097.51 3449.01 1097.4 3449.68 1097.25L3450.1 1099.4C3449.04 1099.59 3448.1 1099.73 3447.27 1099.82 3446.44 1099.91 3445.68 1099.93 3444.99 1099.88 3444.3 1099.83 3443.67 1099.71 3443.1 1099.52 3442.52 1099.33 3441.96 1099.04 3441.43 1098.67 3440.98 1098.35 3440.62 1097.97 3440.36 1097.52 3440.11 1097.08 3439.95 1096.61 3439.89 1096.1 3439.83 1095.6 3439.88 1095.09 3440.02 1094.57 3440.17 1094.04 3440.42 1093.53 3440.77 1093.03 3441.12 1092.53 3441.59 1091.98 3442.17 1091.39 3442.75 1090.8 3443.43 1090.18 3444.2 1089.53 3445 1088.87 3445.76 1088.25 3446.48 1087.64 3447.2 1087.03 3447.85 1086.46 3448.44 1085.94 3449.03 1085.41 3449.54 1084.92 3449.97 1084.49 3450.4 1084.05 3450.73 1083.67 3450.96 1083.35 3451.51 1082.57 3451.77 1081.9 3451.73 1081.33 3451.69 1080.76 3451.35 1080.24 3450.7 1079.79 3450.32 1079.52 3449.85 1079.33 3449.28 1079.22 3448.72 1079.11 3448.09 1079.07 3447.41 1079.11 3446.73 1079.14 3446.02 1079.24 3445.27 1079.42 3444.52 1079.59 3443.78 1079.82 3443.06 1080.1 3442.33 1080.38 3441.63 1080.72 3440.95 1081.11 3440.27 1081.5 3439.66 1081.94 3439.13 1082.43L3430.38 1090.35 3426.71 1087.76 3438.16 1077.53C3438.78 1076.99 3439.31 1076.49 3439.75 1076.03 3440.18 1075.57 3440.52 1075.18 3440.75 1074.86 3441.39 1073.95 3441.35 1073.23 3440.61 1072.71 3440.38 1072.55 3440.12 1072.44 3439.83 1072.37 3439.53 1072.3 3439.19 1072.26 3438.8 1072.27 3438.41 1072.28 3437.96 1072.32 3437.46 1072.39 3436.96 1072.47 3436.38 1072.57 3435.73 1072.69L3435.3 1070.56C3436.38 1070.36 3437.33 1070.22 3438.17 1070.13 3439.02 1070.04 3439.77 1070.01 3440.45 1070.05 3441.13 1070.09 3441.74 1070.2 3442.3 1070.39 3442.86 1070.58 3443.4 1070.86 3443.91 1071.22Z" fill="#215F9A" fill-rule="evenodd"/><text fill="#000000" fill-opacity="0" font-family="Arial,Arial_MSFontService,sans-serif" font-size="29.8693" x="3426.71" y="1096.17">𝑛</text><path d="M3460.95 1093.36 3482.54 1108.62 3480.51 1111.49 3458.92 1096.22Z" fill="#215F9A" fill-rule="evenodd"/><text fill="#000000" fill-opacity="0" font-family="Arial,Arial_MSFontService,sans-serif" font-size="18.1296" x="3458.92" y="1109.22">−</text><path d="M3506.32 1107.84 3507.47 1108.65C3506.96 1109.32 3506.5 1109.92 3506.11 1110.46 3505.71 1110.99 3505.33 1111.51 3504.96 1112.02 3504.59 1112.53 3504.23 1113.03 3503.88 1113.53L3493.81 1127.77C3493.53 1128.16 3493.31 1128.5 3493.14 1128.8 3492.96 1129.1 3492.83 1129.37 3492.75 1129.6 3492.67 1129.83 3492.63 1130.05 3492.63 1130.26 3492.62 1130.46 3492.65 1130.66 3492.7 1130.84 3492.75 1131.1 3492.87 1131.36 3493.06 1131.62 3493.25 1131.87 3493.52 1132.17 3493.87 1132.5 3494.22 1132.83 3494.65 1133.2 3495.17 1133.62 3495.69 1134.03 3496.33 1134.51 3497.08 1135.07L3495.93 1136.7 3481.07 1126.19 3482.22 1124.56C3482.98 1125.06 3483.62 1125.47 3484.16 1125.8 3484.69 1126.13 3485.16 1126.4 3485.56 1126.6 3485.96 1126.8 3486.3 1126.94 3486.57 1127.02 3486.83 1127.11 3487.08 1127.16 3487.32 1127.18 3487.57 1127.19 3487.81 1127.17 3488.02 1127.13 3488.24 1127.09 3488.46 1126.99 3488.67 1126.84 3488.89 1126.7 3489.12 1126.5 3489.37 1126.24 3489.62 1125.98 3489.89 1125.64 3490.19 1125.22L3499.69 1111.78C3500.03 1111.29 3500.18 1110.88 3500.14 1110.55 3500.09 1110.22 3499.89 1109.93 3499.54 1109.68 3499.16 1109.41 3498.44 1109.2 3497.4 1109.06 3496.35 1108.92 3494.94 1108.82 3493.18 1108.75 3493.22 1108.35 3493.27 1107.96 3493.34 1107.57 3493.4 1107.19 3493.47 1106.79 3493.53 1106.39 3495.68 1106.63 3497.81 1106.87 3499.92 1107.1 3502.04 1107.33 3504.17 1107.58 3506.32 1107.84Z" fill="#215F9A" fill-rule="evenodd"/><text fill="#000000" fill-opacity="0" font-family="Arial,Arial_MSFontService,sans-serif" font-size="30.3109" x="3481.07" y="1132.91">1</text><path d="M3518.96 1112.37C3521.93 1115.91 3523.26 1119.96 3522.96 1124.54 3522.66 1129.11 3520.91 1133.65 3517.72 1138.16 3514.53 1142.69 3510.83 1145.85 3506.63 1147.65 3502.44 1149.45 3498.17 1149.54 3493.83 1147.91L3494.4 1146.15C3497.96 1147.23 3501.45 1146.85 3504.86 1145.01 3508.27 1143.16 3511.52 1140.06 3514.61 1135.68 3517.6 1131.46 3519.38 1127.46 3519.96 1123.68 3520.53 1119.9 3519.69 1116.49 3517.43 1113.45Z" fill="#215F9A" fill-rule="evenodd"/><text fill="#000000" fill-opacity="0" font-family="Arial,Arial_MSFontService,sans-serif" font-size="36.7043" x="3493.83" y="1144.48">)</text><path d="M3581.08 1217.3 3629.31 1207.57 3638.31 1252.22 3590.08 1261.94Z" fill="#FFFFFF" fill-rule="evenodd"/><path d="M3557.94 1149.86 3558.9 1150.56 3565.1 1155.59 3570.97 1160.87 3576.54 1166.42 3586.57 1178.11 3595.27 1190.65 3602.6 1203.88 3608.55 1217.69 3613.11 1231.99 3616.27 1246.66 3618.02 1261.6 3618.35 1276.7 3617.25 1291.84 3614.71 1306.93 3610.73 1321.86 3605.29 1336.51 3598.39 1350.75 3594.37 1357.75 3590.03 1364.51 3584.24 1360.79 3588.53 1354.11 3588.45 1354.25 3592.37 1347.43 3592.26 1347.64 3599.03 1333.66 3598.9 1333.96 3604.23 1319.61 3604.13 1319.93 3608.03 1305.31 3607.96 1305.63 3610.44 1290.86 3610.41 1291.18 3611.48 1276.36 3611.47 1276.68 3611.15 1261.91 3611.17 1262.24 3609.46 1247.63 3609.52 1247.95 3606.43 1233.6 3606.51 1233.92 3602.06 1219.94 3602.17 1220.26 3596.36 1206.75 3596.51 1207.06 3589.34 1194.13 3589.53 1194.42 3581.03 1182.18 3581.24 1182.46 3571.41 1171 3571.59 1171.2 3566.18 1165.8 3566.31 1165.92 3560.57 1160.76 3560.7 1160.87 3554.64 1155.96 3554.78 1156.07 3553.89 1155.42ZM3565.57 1183.17 3550.4 1148.63 3587.93 1152.43C3589.82 1152.62 3591.2 1154.3 3591.01 1156.19 3590.82 1158.08 3589.13 1159.46 3587.24 1159.27L3555.57 1156.06 3559.06 1151.26 3571.86 1180.41C3572.63 1182.15 3571.84 1184.18 3570.1 1184.94 3568.36 1185.7 3566.33 1184.91 3565.57 1183.17Z" fill="#215F9A"/><path d="M3685.39 1254.16C3686.47 1254.93 3687.07 1255.9 3687.19 1257.08 3687.3 1258.25 3686.92 1259.46 3686.04 1260.7 3685.09 1262.05 3683.64 1263.54 3681.69 1265.17L3677.45 1268.79C3676.37 1269.71 3675.54 1270.44 3674.97 1270.98 3674.39 1271.52 3673.91 1272 3673.53 1272.41 3673.15 1272.83 3672.85 1273.19 3672.63 1273.5 3671.8 1274.67 3671.4 1275.66 3671.42 1276.45 3671.45 1277.25 3671.9 1277.96 3672.78 1278.58 3673.5 1279.09 3674.47 1279.35 3675.7 1279.36 3676.93 1279.38 3678.41 1279.14 3680.15 1278.64 3681.89 1278.15 3683.42 1277.56 3684.74 1276.88 3686.07 1276.2 3687.47 1275.19 3688.95 1273.86L3699.18 1264.52 3703.6 1267.65 3688.43 1281.19C3686.9 1282.56 3685.83 1283.68 3685.2 1284.57 3684.72 1285.25 3684.48 1285.82 3684.49 1286.28 3684.49 1286.75 3684.73 1287.15 3685.21 1287.48 3685.72 1287.84 3686.41 1288.02 3687.28 1288.01 3688.16 1288 3689.53 1287.79 3691.42 1287.36L3691.86 1289.82C3689.15 1290.37 3687.01 1290.6 3685.44 1290.51 3683.87 1290.43 3682.47 1289.95 3681.24 1289.08 3680.19 1288.34 3679.59 1287.39 3679.46 1286.25 3679.32 1285.11 3679.66 1283.96 3680.48 1282.8 3681.13 1281.88 3682.04 1281.02 3683.22 1280.22L3682.99 1279.9C3679.63 1281.08 3676.8 1281.69 3674.51 1281.75 3672.21 1281.81 3670.27 1281.28 3668.68 1280.16 3667.1 1279.04 3666.21 1277.73 3666 1276.22 3665.79 1274.71 3666.26 1273.14 3667.4 1271.53 3668.16 1270.45 3669.48 1269.11 3671.37 1267.48L3677.76 1261.97C3679.53 1260.44 3680.68 1259.29 3681.22 1258.53 3681.71 1257.85 3681.94 1257.27 3681.94 1256.81 3681.93 1256.35 3681.69 1255.95 3681.22 1255.61 3680.69 1255.24 3679.98 1255.06 3679.09 1255.08 3678.19 1255.1 3676.83 1255.32 3675.01 1255.74L3674.56 1253.28C3677.04 1252.84 3678.84 1252.61 3679.96 1252.58 3681.07 1252.55 3682.05 1252.66 3682.88 1252.91 3683.72 1253.15 3684.55 1253.57 3685.39 1254.16Z" fill="#215F9A" fill-rule="evenodd"/><text fill="#000000" fill-opacity="0" font-family="Arial,Arial_MSFontService,sans-serif" font-size="37.9587" x="3665.95" y="1285.79">𝑢</text><path d="M3714.69 1302.39C3713.91 1301.85 3713.1 1301.61 3712.25 1301.7 3711.41 1301.78 3710.57 1302.05 3709.74 1302.49 3708.91 1302.94 3708.1 1303.49 3707.31 1304.14 3706.52 1304.79 3705.8 1305.42 3705.15 1306.02L3697.02 1313.31C3698.59 1314.32 3700.19 1314.88 3701.8 1315.02 3703.4 1315.16 3704.96 1314.96 3706.46 1314.44 3707.96 1313.92 3709.38 1313.12 3710.7 1312.05 3712.02 1310.98 3713.17 1309.74 3714.17 1308.33 3714.46 1307.91 3714.76 1307.45 3715.06 1306.93 3715.36 1306.41 3715.58 1305.89 3715.71 1305.35 3715.85 1304.82 3715.85 1304.3 3715.73 1303.78 3715.61 1303.26 3715.26 1302.8 3714.69 1302.39ZM3706.63 1293.75 3706.73 1296.15C3703.55 1296.26 3700.78 1296.8 3698.44 1297.78 3696.1 1298.76 3694.31 1300.12 3693.08 1301.87 3691.93 1303.49 3691.41 1305.04 3691.52 1306.5 3691.62 1307.96 3692.38 1309.39 3693.77 1310.79L3701.65 1303.66C3703.08 1302.35 3704.48 1301.33 3705.86 1300.61 3707.23 1299.88 3708.55 1299.42 3709.81 1299.21 3711.07 1299.01 3712.26 1299.04 3713.38 1299.31 3714.5 1299.58 3715.53 1300.04 3716.47 1300.7 3718.36 1302.04 3719.38 1303.6 3719.54 1305.4 3719.7 1307.2 3719.06 1309.12 3717.62 1311.16 3716.33 1312.98 3714.83 1314.47 3713.1 1315.62 3711.38 1316.77 3709.54 1317.53 3707.57 1317.9 3705.61 1318.26 3703.59 1318.21 3701.5 1317.74 3699.42 1317.27 3697.37 1316.33 3695.37 1314.93L3688.17 1321.42 3684.66 1318.94 3692 1312.38C3690.85 1311.32 3689.93 1310.24 3689.24 1309.12 3688.55 1308.01 3688.1 1306.89 3687.88 1305.76 3687.67 1304.63 3687.69 1303.51 3687.95 1302.38 3688.21 1301.25 3688.73 1300.15 3689.5 1299.06 3690.97 1296.97 3693.15 1295.5 3696.02 1294.63 3698.89 1293.77 3702.42 1293.47 3706.63 1293.75Z" fill="#215F9A" fill-rule="evenodd"/><text fill="#000000" fill-opacity="0" font-family="Arial,Arial_MSFontService,sans-serif" font-size="27.7695" x="3684.66" y="1317.95">𝜑</text><path d="M3745.66 1309.42 3745.14 1311.22C3741.54 1310.12 3738.05 1310.47 3734.67 1312.26 3731.29 1314.06 3728.11 1317.07 3725.12 1321.29 3722.03 1325.67 3720.18 1329.77 3719.58 1333.6 3718.98 1337.43 3719.79 1340.84 3721.99 1343.84L3720.52 1344.97C3717.54 1341.42 3716.2 1337.37 3716.5 1332.81 3716.8 1328.25 3718.55 1323.71 3721.75 1319.19 3724.93 1314.68 3728.63 1311.52 3732.85 1309.71 3737.06 1307.9 3741.33 1307.81 3745.66 1309.42Z" fill="#215F9A" fill-rule="evenodd"/><text fill="#000000" fill-opacity="0" font-family="Arial,Arial_MSFontService,sans-serif" font-size="36.6919" x="3716.46" y="1340.38">(</text><path d="M3748.05 1323.04C3748.98 1323.69 3749.48 1324.5 3749.56 1325.46 3749.64 1326.42 3749.32 1327.4 3748.63 1328.39 3748.45 1328.64 3748.24 1328.88 3748.01 1329.13 3747.77 1329.37 3747.5 1329.58 3747.21 1329.75L3747.41 1330.03C3749.8 1329.22 3751.87 1328.83 3753.64 1328.84 3755.4 1328.85 3756.91 1329.3 3758.17 1330.19 3759.5 1331.13 3760.24 1332.18 3760.39 1333.36 3760.54 1334.53 3760.16 1335.76 3759.25 1337.05 3758.98 1337.44 3758.54 1337.94 3757.94 1338.54 3757.35 1339.15 3756.67 1339.8 3755.92 1340.49 3755.17 1341.18 3754.4 1341.88 3753.59 1342.59 3752.79 1343.31 3752.04 1343.96 3751.35 1344.56 3750.67 1345.17 3750.09 1345.68 3749.61 1346.12 3749.14 1346.55 3748.86 1346.83 3748.77 1346.95 3748.43 1347.43 3748.28 1347.83 3748.3 1348.17 3748.33 1348.5 3748.53 1348.81 3748.92 1349.08 3749.16 1349.25 3749.42 1349.37 3749.71 1349.45 3750.01 1349.52 3750.34 1349.56 3750.73 1349.55 3751.11 1349.54 3751.55 1349.49 3752.06 1349.41 3752.57 1349.33 3753.16 1349.21 3753.82 1349.06L3754.24 1351.22C3753.19 1351.41 3752.25 1351.55 3751.42 1351.63 3750.58 1351.72 3749.83 1351.74 3749.14 1351.7 3748.45 1351.65 3747.82 1351.53 3747.24 1351.34 3746.66 1351.15 3746.11 1350.86 3745.57 1350.48 3745.12 1350.16 3744.77 1349.78 3744.51 1349.34 3744.25 1348.89 3744.09 1348.42 3744.04 1347.92 3743.98 1347.42 3744.02 1346.91 3744.17 1346.38 3744.31 1345.86 3744.56 1345.35 3744.92 1344.85 3745.27 1344.35 3745.73 1343.8 3746.31 1343.21 3746.89 1342.61 3747.57 1341.99 3748.35 1341.34 3749.15 1340.69 3749.91 1340.06 3750.63 1339.45 3751.34 1338.85 3752 1338.28 3752.59 1337.75 3753.18 1337.22 3753.69 1336.74 3754.12 1336.3 3754.55 1335.87 3754.88 1335.49 3755.11 1335.16 3755.66 1334.39 3755.91 1333.71 3755.87 1333.14 3755.84 1332.58 3755.49 1332.06 3754.84 1331.6 3754.47 1331.34 3754 1331.15 3753.43 1331.04 3752.86 1330.93 3752.24 1330.89 3751.56 1330.92 3750.88 1330.96 3750.16 1331.06 3749.41 1331.23 3748.66 1331.41 3747.92 1331.63 3747.2 1331.92 3746.47 1332.2 3745.77 1332.54 3745.09 1332.93 3744.41 1333.32 3743.81 1333.76 3743.28 1334.24L3734.53 1342.17 3730.85 1339.57 3742.3 1329.34C3742.93 1328.81 3743.45 1328.31 3743.89 1327.85 3744.33 1327.39 3744.66 1327 3744.89 1326.67 3745.54 1325.76 3745.49 1325.05 3744.75 1324.52 3744.53 1324.37 3744.27 1324.25 3743.97 1324.18 3743.67 1324.11 3743.33 1324.08 3742.94 1324.09 3742.55 1324.09 3742.11 1324.13 3741.6 1324.21 3741.1 1324.28 3740.53 1324.38 3739.88 1324.5L3739.44 1322.37C3740.52 1322.18 3741.48 1322.03 3742.32 1321.95 3743.16 1321.86 3743.92 1321.83 3744.59 1321.87 3745.27 1321.91 3745.89 1322.02 3746.45 1322.21 3747.01 1322.4 3747.54 1322.67 3748.05 1323.04Z" fill="#215F9A" fill-rule="evenodd"/><text fill="#000000" fill-opacity="0" font-family="Arial,Arial_MSFontService,sans-serif" font-size="29.8693" x="3730.85" y="1347.99">𝑛</text><path d="M3765.09 1345.17 3786.68 1360.43 3784.65 1363.3 3763.07 1348.04Z" fill="#215F9A" fill-rule="evenodd"/><text fill="#000000" fill-opacity="0" font-family="Arial,Arial_MSFontService,sans-serif" font-size="18.1296" x="3763.07" y="1361.04">−</text><path d="M3810.47 1359.66 3811.61 1360.47C3811.1 1361.14 3810.65 1361.74 3810.25 1362.27 3809.85 1362.81 3809.47 1363.33 3809.1 1363.84 3808.73 1364.35 3808.37 1364.85 3808.02 1365.35L3797.95 1379.59C3797.68 1379.98 3797.45 1380.32 3797.28 1380.62 3797.11 1380.92 3796.98 1381.18 3796.9 1381.42 3796.82 1381.65 3796.77 1381.87 3796.77 1382.07 3796.77 1382.28 3796.79 1382.47 3796.85 1382.66 3796.89 1382.92 3797.01 1383.17 3797.2 1383.43 3797.39 1383.69 3797.66 1383.98 3798.01 1384.31 3798.36 1384.64 3798.79 1385.02 3799.32 1385.43 3799.84 1385.85 3800.47 1386.33 3801.23 1386.88L3800.07 1388.51 3785.21 1378.01 3786.37 1376.38C3787.12 1376.87 3787.77 1377.28 3788.3 1377.62 3788.84 1377.95 3789.3 1378.21 3789.71 1378.41 3790.11 1378.61 3790.44 1378.75 3790.71 1378.84 3790.98 1378.93 3791.23 1378.98 3791.46 1378.99 3791.71 1379 3791.95 1378.99 3792.17 1378.94 3792.39 1378.9 3792.6 1378.81 3792.82 1378.66 3793.03 1378.51 3793.27 1378.31 3793.51 1378.05 3793.76 1377.8 3794.03 1377.46 3794.33 1377.03L3803.83 1363.6C3804.18 1363.11 3804.33 1362.7 3804.28 1362.37 3804.24 1362.04 3804.04 1361.75 3803.69 1361.5 3803.3 1361.22 3802.58 1361.02 3801.54 1360.88 3800.49 1360.74 3799.09 1360.64 3797.32 1360.57 3797.36 1360.16 3797.41 1359.77 3797.48 1359.39 3797.55 1359 3797.61 1358.61 3797.67 1358.2 3799.82 1358.45 3801.95 1358.68 3804.07 1358.91 3806.18 1359.14 3808.31 1359.39 3810.47 1359.66Z" fill="#215F9A" fill-rule="evenodd"/><text fill="#000000" fill-opacity="0" font-family="Arial,Arial_MSFontService,sans-serif" font-size="30.3109" x="3785.21" y="1384.72">1</text><path d="M3823.1 1364.18C3826.07 1367.72 3827.41 1371.78 3827.1 1376.35 3826.8 1380.93 3825.06 1385.47 3821.87 1389.98 3818.67 1394.5 3814.97 1397.66 3810.78 1399.47 3806.58 1401.27 3802.31 1401.35 3797.97 1399.73L3798.54 1397.97C3802.11 1399.05 3805.6 1398.66 3809.01 1396.82 3812.42 1394.98 3815.67 1391.87 3818.76 1387.5 3821.74 1383.28 3823.52 1379.28 3824.1 1375.49 3824.67 1371.71 3823.83 1368.3 3821.58 1365.27Z" fill="#215F9A" fill-rule="evenodd"/><text fill="#000000" fill-opacity="0" font-family="Arial,Arial_MSFontService,sans-serif" font-size="36.7043" x="3797.97" y="1396.3">)</text></g></svg>