<svg width="2886" height="2214" xmlns="http://www.w3.org/2000/svg" xmlns:xlink="http://www.w3.org/1999/xlink" xml:space="preserve" overflow="hidden"><g transform="translate(-639 -191)"><path d="M835.071 924.917C1555.59 304.405 2640.65 571.506 3451.08 355.599L3520.53 633.425C2659 868.871 1697.48 595.483 992.959 1156.56L835.071 924.917Z" stroke="#D9D9D9" stroke-width="6.875" stroke-miterlimit="8" fill="#F5F5F5" fill-rule="evenodd"/><path d="M1996.69 640.134 1814.5 278.5" stroke="#A6A6A6" stroke-width="6.875" stroke-miterlimit="8" fill="none" fill-rule="evenodd"/><path d="M1070.5 1312.02C1880.04 813.804 2941.39 957.297 3440.5 1187.03L3339.59 1465.36C2871.14 1277.73 1982.57 1118.41 1198.22 1560.5L1070.5 1312.02Z" stroke="#D9D9D9" stroke-width="6.875" stroke-miterlimit="8" fill="#F5F5F5" fill-rule="evenodd"/><path d="M0.642231-3.37697 1129.48 211.305 1128.19 218.059-0.642231 3.37697ZM1107.07 191.191 1135.54 215.956 1099.97 228.543C1098.18 229.177 1096.21 228.239 1095.58 226.449 1094.95 224.66 1095.89 222.695 1097.67 222.062L1127.69 211.441 1126.58 217.275 1102.56 196.378C1101.13 195.131 1100.98 192.96 1102.22 191.528 1103.47 190.096 1105.64 189.945 1107.07 191.191Z" fill="#7F7F7F" transform="matrix(1 0 0 -1 1798.5 1183.45)"/><path d="M3394.5 1319C2859.73 1084.64 1883.31 996.028 1121.5 1444.5" stroke="#BFBFBF" stroke-width="6.875" stroke-miterlimit="8" stroke-dasharray="27.5 20.625" fill="none" fill-rule="evenodd"/><path d="M2757.3 1066.86C2759 1066.56 2760.45 1066.8 2761.63 1067.57 2762.81 1068.35 2763.54 1069.51 2763.82 1071.07 2763.91 1071.59 2763.93 1072.09 2763.89 1072.58L2764.24 1072.77C2765.75 1070.03 2767.27 1067.96 2768.81 1066.55 2770.35 1065.13 2772.28 1064.22 2774.6 1063.81 2776.71 1063.44 2778.47 1063.75 2779.88 1064.72 2781.29 1065.7 2782.18 1067.22 2782.54 1069.27 2782.65 1069.93 2782.73 1070.76 2782.77 1071.77 2782.81 1072.78 2782.81 1073.68 2782.76 1074.47L2782.01 1084.5C2781.91 1085.93 2781.94 1087.16 2782.12 1088.19 2782.27 1088.99 2782.5 1089.52 2782.82 1089.78 2783.14 1090.04 2783.54 1090.13 2784.04 1090.04 2784.63 1089.94 2785.25 1089.54 2785.89 1088.84 2786.53 1088.15 2787.25 1087.14 2788.05 1085.81L2790.66 1087.64C2789.01 1090.05 2787.46 1091.82 2786.03 1092.96 2784.59 1094.1 2782.91 1094.84 2781.01 1095.18 2778.83 1095.56 2777.15 1095.3 2775.95 1094.4 2774.76 1093.5 2773.97 1092 2773.61 1089.91 2773.34 1088.41 2773.3 1086.44 2773.49 1084L2773.94 1078.65C2774.06 1077.28 2774.13 1075.93 2774.15 1074.6 2774.17 1073.28 2774.11 1072.2 2773.96 1071.38 2773.8 1070.46 2773.48 1069.81 2773.02 1069.42 2772.55 1069.04 2771.95 1068.91 2771.23 1069.04 2770.23 1069.21 2769.18 1070.01 2768.1 1071.43 2767.02 1072.85 2766.2 1074.29 2765.66 1075.75 2765.11 1077.21 2764.8 1079.04 2764.72 1081.26L2764.05 1097.65 2755.22 1099.21 2756.41 1076.95C2756.48 1075.56 2756.46 1074.51 2756.34 1073.82 2756.22 1073.14 2756.01 1072.64 2755.72 1072.31 2755.43 1071.98 2755.01 1071.86 2754.46 1071.96 2753.82 1072.07 2753.18 1072.48 2752.54 1073.18 2751.91 1073.89 2751.2 1074.89 2750.41 1076.19L2747.8 1074.37C2749.49 1071.91 2751.05 1070.13 2752.49 1069 2753.93 1067.88 2755.54 1067.17 2757.3 1066.86Z" fill-rule="evenodd"/><text fill="#000000" fill-opacity="0" font-family="Arial,Arial_MSFontService,sans-serif" font-size="35.5475" x="2747.8" y="1094.76">𝒏</text><path d="M2808.49 1043.98 2809.74 1046.21C2805.21 1048.63 2802.2 1052.34 2800.7 1057.33 2799.2 1062.32 2799.06 1068.29 2800.28 1075.22 2801.54 1082.4 2803.74 1088.12 2806.86 1092.37 2809.99 1096.62 2814.06 1099.12 2819.08 1099.87L2818.76 1102.37C2812.47 1101.85 2807.27 1099.26 2803.15 1094.6 2799.03 1089.94 2796.31 1083.9 2795.01 1076.47 2793.7 1069.06 2794.2 1062.45 2796.48 1056.65 2798.77 1050.84 2802.77 1046.62 2808.49 1043.98Z" fill-rule="evenodd"/><text fill="#000000" fill-opacity="0" font-family="Arial,Arial_MSFontService,sans-serif" font-size="58.3843" x="2794.3" y="1095.07">(</text><path d="M2830.02 1055.2C2831.93 1054.87 2833.68 1054.67 2835.29 1054.62 2836.9 1054.57 2838.54 1054.69 2840.19 1054.97L2839.95 1061.67 2837.45 1062.11C2836.91 1060.33 2836.06 1059.05 2834.92 1058.28 2833.78 1057.5 2832.16 1057.3 2830.07 1057.67 2828.45 1057.95 2827.21 1058.6 2826.35 1059.61 2825.49 1060.62 2825.18 1061.8 2825.42 1063.15 2825.55 1063.89 2825.79 1064.52 2826.15 1065.04 2826.5 1065.56 2827.13 1066.09 2828.03 1066.63 2828.93 1067.17 2830.29 1067.79 2832.1 1068.48 2833.53 1069.03 2834.69 1069.56 2835.59 1070.07 2836.48 1070.58 2837.21 1071.12 2837.77 1071.67 2838.33 1072.23 2838.78 1072.84 2839.11 1073.51 2839.44 1074.19 2839.69 1075.02 2839.87 1076.03 2840.19 1077.86 2839.98 1079.51 2839.23 1080.98 2838.49 1082.46 2837.34 1083.66 2835.78 1084.59 2834.22 1085.52 2832.37 1086.17 2830.23 1086.55 2828.53 1086.85 2826.84 1087.01 2825.15 1087.04 2823.46 1087.08 2821.56 1086.96 2819.44 1086.7L2819.74 1079.73 2822.14 1079.31C2822.57 1081.26 2823.38 1082.65 2824.59 1083.48 2825.79 1084.3 2827.51 1084.52 2829.74 1084.13 2831.69 1083.78 2833.14 1083.08 2834.09 1082.01 2835.03 1080.95 2835.36 1079.62 2835.08 1078.02 2834.92 1077.09 2834.62 1076.32 2834.2 1075.71 2833.77 1075.1 2833.16 1074.55 2832.35 1074.05 2831.55 1073.56 2830.3 1072.99 2828.62 1072.33 2826.85 1071.65 2825.45 1070.99 2824.42 1070.37 2823.39 1069.75 2822.57 1069.02 2821.96 1068.19 2821.35 1067.35 2820.94 1066.34 2820.73 1065.15 2820.44 1063.53 2820.63 1062.03 2821.28 1060.66 2821.94 1059.29 2823.02 1058.13 2824.53 1057.19 2826.03 1056.24 2827.86 1055.58 2830.02 1055.2Z" fill-rule="evenodd"/><text fill="#000000" fill-opacity="0" font-family="Arial,Arial_MSFontService,sans-serif" font-size="32.4375" x="2819.44" y="1083">𝑠</text><path d="M2842.91 1037.93C2849.18 1038.45 2854.38 1041.05 2858.51 1045.73 2862.65 1050.41 2865.37 1056.45 2866.67 1063.86 2867.98 1071.29 2867.49 1077.89 2865.21 1083.68 2862.93 1089.46 2858.92 1093.67 2853.18 1096.31L2852.03 1094.07C2856.49 1091.66 2859.47 1087.92 2860.95 1082.85 2862.44 1077.79 2862.56 1071.67 2861.29 1064.49 2860.07 1057.55 2857.91 1051.99 2854.8 1047.81 2851.7 1043.63 2847.6 1041.17 2842.5 1040.44Z" fill-rule="evenodd"/><text fill="#000000" fill-opacity="0" font-family="Arial,Arial_MSFontService,sans-serif" font-size="58.3842" x="2842.5" y="1089.01">)</text><path d="M1478.99 400.127 1486.32 398.544 1486.2 406.563 1493.62 404.959 1493.62 408.955 1486.14 410.572 1485.82 423.43C1485.76 425.638 1485.75 427.307 1485.8 428.438 1485.84 429.57 1485.94 430.512 1486.1 431.266 1486.31 432.223 1486.63 432.883 1487.07 433.246 1487.52 433.609 1488.07 433.718 1488.74 433.572 1489.66 433.374 1490.53 432.845 1491.36 431.985 1492.18 431.124 1493.01 429.89 1493.84 428.284L1496.71 430.189C1495.14 432.894 1493.59 434.875 1492.06 436.132 1490.53 437.39 1488.6 438.272 1486.26 438.778 1483.93 439.279 1482.02 439.069 1480.52 438.146 1479.02 437.223 1478.05 435.713 1477.6 433.615 1477.39 432.658 1477.26 431.732 1477.22 430.835 1477.17 429.939 1477.16 428.455 1477.18 426.383L1477.47 412.446 1472.7 413.476 1472.75 410.876C1474.17 410.568 1475.22 410.203 1475.9 409.78 1476.57 409.357 1477.1 408.826 1477.49 408.189 1477.87 407.552 1478.18 406.643 1478.42 405.463 1478.65 404.282 1478.84 402.504 1478.99 400.127Z" fill-rule="evenodd"/><text fill="#000000" fill-opacity="0" font-family="Arial,Arial_MSFontService,sans-serif" font-size="40.499" x="1472.7" y="433.98">𝒕</text><path d="M1515.61 385.726 1516.94 387.9C1512.52 390.497 1509.65 394.319 1508.34 399.365 1507.03 404.412 1507.12 410.376 1508.61 417.259 1510.15 424.386 1512.57 430.014 1515.86 434.141 1519.15 438.269 1523.31 440.608 1528.35 441.16L1528.13 443.67C1521.82 443.391 1516.52 441.004 1512.23 436.508 1507.93 432.012 1504.99 426.078 1503.39 418.706 1501.8 411.355 1502.04 404.734 1504.1 398.842 1506.17 392.951 1510 388.579 1515.61 385.726Z" fill-rule="evenodd"/><text fill="#000000" fill-opacity="0" font-family="Arial,Arial_MSFontService,sans-serif" font-size="57.9443" x="1502.36" y="436.427">(</text><path d="M1537.56 396.107C1539.45 395.697 1541.2 395.437 1542.81 395.324 1544.41 395.211 1546.05 395.263 1547.72 395.478L1547.73 402.19 1545.25 402.724C1544.64 400.96 1543.75 399.715 1542.58 398.987 1541.41 398.259 1539.78 398.12 1537.71 398.568 1536.1 398.916 1534.88 399.61 1534.06 400.65 1533.24 401.69 1532.98 402.883 1533.27 404.227 1533.43 404.96 1533.69 405.579 1534.07 406.084 1534.45 406.589 1535.09 407.094 1536.01 407.598 1536.93 408.103 1538.31 408.668 1540.15 409.294 1541.6 409.79 1542.78 410.276 1543.69 410.75 1544.61 411.224 1545.36 411.729 1545.94 412.263 1546.52 412.798 1546.99 413.394 1547.35 414.053 1547.7 414.711 1547.99 415.54 1548.21 416.537 1548.6 418.35 1548.45 420.007 1547.76 421.509 1547.07 423.011 1545.97 424.257 1544.44 425.247 1542.92 426.237 1541.1 426.96 1538.98 427.418 1537.29 427.783 1535.61 428.014 1533.92 428.112 1532.24 428.209 1530.33 428.168 1528.2 427.988L1528.23 421.013 1530.61 420.498C1531.12 422.435 1531.99 423.793 1533.22 424.571 1534.45 425.348 1536.18 425.498 1538.4 425.018 1540.34 424.6 1541.75 423.841 1542.66 422.74 1543.56 421.639 1543.84 420.294 1543.5 418.706 1543.3 417.79 1542.97 417.034 1542.53 416.438 1542.08 415.842 1541.44 415.313 1540.62 414.852 1539.79 414.391 1538.53 413.865 1536.82 413.274 1535.03 412.66 1533.6 412.062 1532.55 411.479 1531.5 410.897 1530.65 410.201 1530.01 409.392 1529.36 408.582 1528.91 407.587 1528.66 406.406 1528.31 404.797 1528.44 403.294 1529.04 401.895 1529.64 400.496 1530.68 399.298 1532.15 398.298 1533.62 397.299 1535.42 396.569 1537.56 396.107Z" fill-rule="evenodd"/><text fill="#000000" fill-opacity="0" font-family="Arial,Arial_MSFontService,sans-serif" font-size="32.8971" x="1528.2" y="424.051">𝑠</text><path d="M1549.77 378.345C1556.06 378.628 1561.36 381.027 1565.67 385.541 1569.98 390.056 1572.93 395.989 1574.52 403.34 1576.11 410.711 1575.88 417.332 1573.82 423.2 1571.76 429.069 1567.92 433.432 1562.29 436.289L1561.05 434.096C1565.42 431.511 1568.25 427.661 1569.54 422.543 1570.83 417.426 1570.71 411.303 1569.17 404.176 1567.68 397.293 1565.3 391.823 1562.04 387.764 1558.78 383.706 1554.58 381.409 1549.46 380.875Z" fill-rule="evenodd"/><text fill="#000000" fill-opacity="0" font-family="Arial,Arial_MSFontService,sans-serif" font-size="57.9443" x="1549.46" y="429.046">)</text><path d="M3473.19 495.15C2796.68 709.562 1669.75 426.938 914.024 1044.98" stroke="#BFBFBF" stroke-width="6.875" stroke-miterlimit="8" stroke-dasharray="27.5 20.625" fill="none" fill-rule="evenodd"/><path d="M1794.9 1183.82 1603.59 305.88 1610.31 304.416 1801.61 1182.35ZM1593.86 334.375 1605.5 298.484 1631.01 326.28C1632.29 327.678 1632.2 329.853 1630.8 331.137 1629.4 332.42 1627.23 332.327 1625.95 330.929L1604.42 307.475 1610.22 306.21 1600.4 336.495C1599.81 338.301 1597.88 339.29 1596.07 338.705 1594.26 338.119 1593.28 336.181 1593.86 334.375Z" fill="#7F7F7F"/><path d="M1766 1036 1832.46 1329.33" stroke="#404040" stroke-width="13.75" stroke-miterlimit="8" fill="none" fill-rule="evenodd"/><path d="M2.51069-2.34794 879.665 935.609 874.644 940.305-2.51069 2.34794ZM873.438 906.15 881.813 942.938 845.667 932.12C843.849 931.576 842.815 929.66 843.36 927.841 843.904 926.022 845.82 924.989 847.639 925.534L878.139 934.662 873.801 938.718 866.734 907.676C866.313 905.825 867.472 903.982 869.323 903.561 871.174 903.14 873.017 904.299 873.438 906.15Z" fill="#7F7F7F" transform="matrix(1 0 0 -1 914.5 2130.43)"/><path d="M909.5 2128.92 1306.05 2128.92 1306.05 2138.08 909.5 2138.08ZM1280.86 2113.5 1315.15 2133.5 1280.86 2153.5C1278.67 2154.78 1275.87 2154.04 1274.59 2151.85 1273.32 2149.67 1274.05 2146.86 1276.24 2145.58L1303.74 2129.54 1303.74 2137.46 1276.24 2121.42C1274.05 2120.14 1273.32 2117.34 1274.59 2115.15 1275.87 2112.96 1278.67 2112.22 1280.86 2113.5Z"/><path d="M4.58333-4.14819e-06 4.58369 389.675-4.58298 389.675-4.58333 4.14819e-06ZM20.001 364.484 0.00036178 398.771-20.0003 364.484C-21.2758 362.298-20.5372 359.491-18.3507 358.216-16.1643 356.941-13.3578 357.679-12.0824 359.866L3.95934 387.366-3.95864 387.366 12.083 359.866C13.3585 357.679 16.1649 356.941 18.3514 358.216 20.5379 359.491 21.2764 362.298 20.001 364.484Z" transform="matrix(1 0 0 -1 909.5 2133.25)"/><path d="M3.24091-3.24091 227.137 220.655 220.655 227.137-3.24091 3.24091ZM220.226 191.94 230.328 230.328 191.94 220.226C189.493 219.581 188.03 217.075 188.674 214.627 189.319 212.179 191.825 210.717 194.273 211.361L225.062 219.463 219.463 225.062 211.361 194.273C210.717 191.825 212.179 189.319 214.627 188.674 217.075 188.03 219.581 189.493 220.226 191.94Z" transform="matrix(-1 0 0 1 909.813 2133.5)"/><path d="M1221.57 2192.35C1222.49 2192.35 1223.31 2192.45 1224.01 2192.66 1224.72 2192.87 1225.34 2193.19 1225.88 2193.63 1226.42 2194.06 1226.9 2194.62 1227.32 2195.31 1227.73 2196 1228.14 2196.94 1228.53 2198.12 1228.92 2199.3 1229.28 2200.77 1229.63 2202.52 1229.97 2204.27 1230.28 2206.09 1230.55 2207.98L1231 2207.98C1233.87 2203.94 1236.05 2200.98 1237.54 2199.11 1239.02 2197.24 1240.27 2195.84 1241.29 2194.93 1242.3 2194.02 1243.29 2193.37 1244.23 2193 1245.17 2192.62 1246.42 2192.44 1247.98 2192.44 1249.39 2192.44 1250.54 2192.62 1251.44 2192.98L1249.64 2201.11 1246.5 2201.11C1246.32 2199.85 1245.79 2199.22 1244.92 2199.22 1244.66 2199.22 1244.37 2199.26 1244.07 2199.35 1243.77 2199.44 1243.4 2199.64 1242.97 2199.94 1242.54 2200.24 1241.9 2200.82 1241.06 2201.69 1240.22 2202.56 1239.28 2203.62 1238.23 2204.88 1237.18 2206.14 1236.11 2207.46 1235 2208.83L1231.94 2212.65C1232.48 2215.53 1232.99 2218.01 1233.47 2220.11 1233.95 2222.2 1234.38 2223.95 1234.75 2225.34 1235.12 2226.73 1235.45 2227.83 1235.74 2228.64 1236.02 2229.45 1236.33 2230.06 1236.66 2230.46 1236.99 2230.87 1237.33 2231.15 1237.67 2231.32 1238.01 2231.48 1238.41 2231.56 1238.86 2231.56 1239.67 2231.56 1240.46 2231.25 1241.22 2230.62 1241.98 2229.99 1243.08 2228.57 1244.52 2226.35L1247.44 2228.28C1245.34 2231.4 1243.45 2233.59 1241.76 2234.87 1240.07 2236.14 1238.05 2236.77 1235.72 2236.77 1234.43 2236.77 1233.33 2236.54 1232.44 2236.08 1231.54 2235.61 1230.76 2234.87 1230.1 2233.85 1229.44 2232.84 1228.86 2231.25 1228.35 2229.09 1227.42 2225.26 1226.85 2222.32 1226.64 2220.29L1226.19 2220.29C1223.02 2224.75 1220.66 2227.95 1219.12 2229.9 1217.57 2231.85 1216.3 2233.29 1215.3 2234.21 1214.3 2235.14 1213.32 2235.79 1212.38 2236.17 1211.44 2236.54 1210.19 2236.73 1208.63 2236.73 1207.22 2236.73 1206.07 2236.55 1205.17 2236.19L1206.97 2228.06 1210.11 2228.06C1210.29 2229.32 1210.81 2229.95 1211.68 2229.95 1212.1 2229.95 1212.54 2229.83 1213.01 2229.61 1213.47 2229.38 1214.14 2228.85 1215.01 2227.99 1215.88 2227.14 1217.07 2225.8 1218.6 2223.97 1220.13 2222.14 1222.34 2219.4 1225.25 2215.75 1224.8 2213.39 1224.34 2211.11 1223.86 2208.92 1223.38 2206.74 1222.88 2204.7 1222.37 2202.81 1221.86 2200.93 1221.45 2199.69 1221.12 2199.11 1220.79 2198.52 1220.43 2198.12 1220.06 2197.89 1219.69 2197.67 1219.21 2197.56 1218.65 2197.56 1218.02 2197.56 1217.45 2197.7 1216.94 2197.98 1216.43 2198.27 1215.88 2198.76 1215.28 2199.47 1214.68 2200.17 1213.88 2201.27 1212.9 2202.77L1209.98 2200.84C1211.86 2197.99 1213.67 2195.87 1215.41 2194.46 1217.15 2193.05 1219.2 2192.35 1221.57 2192.35Z" fill-rule="evenodd"/><text fill="#000000" fill-opacity="0" font-family="Arial,Arial_MSFontService,sans-serif" font-size="44.4277" x="1205.17" y="2231.22">𝑥</text><path d="M794.846 1807.24C796.074 1807.24 797.123 1807.4 797.991 1807.73 798.59 1807.97 799.189 1808.37 799.788 1808.92 800.387 1809.48 800.918 1810.25 801.383 1811.23 801.847 1812.22 802.251 1813.33 802.596 1814.56 802.94 1815.79 803.322 1817.55 803.741 1819.86 804.46 1823.72 805.156 1827.79 805.83 1832.06 806.504 1836.32 807.08 1840.28 807.559 1843.94 810.464 1839.75 812.928 1835.64 814.949 1831.63 816.971 1827.62 818.423 1824.13 819.306 1821.16 820.19 1818.2 820.632 1815.79 820.632 1813.93 820.632 1812.52 820.332 1811.56 819.733 1811.06 819.134 1810.55 818.116 1810.25 816.679 1810.16L817.128 1807.96 828.942 1807.96 830.155 1810.2C827.879 1816.43 824.794 1823.09 820.901 1830.19 817.068 1837.14 812.68 1844.06 807.739 1850.95 803.007 1857.5 799.069 1862.25 795.925 1865.19 793.738 1867.19 791.627 1868.63 789.591 1869.5 787.973 1870.16 786.251 1870.49 784.425 1870.49 783.796 1870.49 783.069 1870.43 782.246 1870.33 781.422 1870.22 780.786 1870.08 780.337 1869.9L782.268 1861.19 785.817 1861.19C785.817 1863.1 786.476 1864.06 787.794 1864.06 789.531 1864.06 791.552 1862.98 793.858 1860.81 796.164 1858.63 798.875 1855.36 801.989 1850.99 801.121 1845.75 799.938 1839.43 798.44 1832.03 796.853 1824.13 795.805 1819.23 795.296 1817.34 794.667 1815.07 794.008 1813.62 793.319 1812.99 792.9 1812.6 792.376 1812.4 791.747 1812.4 790.789 1812.4 789.89 1812.79 789.052 1813.57 788.213 1814.35 787.18 1815.7 785.952 1817.61L783.032 1815.68C785.098 1812.6 787.03 1810.42 788.827 1809.15 790.624 1807.87 792.63 1807.24 794.846 1807.24Z" fill-rule="evenodd"/><text fill="#000000" fill-opacity="0" font-family="Arial,Arial_MSFontService,sans-serif" font-size="63.25" x="780.337" y="1862.58">𝑦</text><path d="M694.03 2193.11 725.969 2193.11 726.823 2195.36 705.395 2219.97C701.232 2224.74 697.624 2228.78 694.569 2232.1L694.839 2232.42 704.991 2232.42C706.788 2232.42 708.165 2232.32 709.124 2232.12 710.082 2231.93 710.921 2231.56 711.639 2231.02 712.358 2230.49 713.099 2229.67 713.863 2228.58 714.627 2227.48 715.578 2225.77 716.716 2223.43L720.714 2223.43 717.973 2236.06 685.45 2236.06 684.596 2233.85 709.169 2205.55C712.643 2201.57 715.188 2198.74 716.805 2197.06L716.536 2196.75 706.024 2196.75C704.467 2196.75 703.329 2196.85 702.61 2197.06 701.891 2197.27 701.173 2197.64 700.454 2198.16 699.735 2198.69 698.964 2199.47 698.14 2200.5 697.317 2201.53 696.396 2203.01 695.378 2204.92L691.38 2204.92Z" fill-rule="evenodd"/><text fill="#000000" fill-opacity="0" font-family="Arial,Arial_MSFontService,sans-serif" font-size="42.9453" x="684.596" y="2230.69">𝑧</text><path d="M0.649866-3.37551 294.409 53.1801 293.109 59.9311-0.649866 3.37551ZM272.05 33.0161 300.459 57.8454 264.862 70.3523C263.071 70.9816 261.109 70.0397 260.479 68.2486 259.85 66.4575 260.792 64.4953 262.583 63.866L292.62 53.3125 291.497 59.1439 267.526 38.1926C266.096 36.9432 265.95 34.7716 267.2 33.3422 268.449 31.9127 270.621 31.7667 272.05 33.0161Z" fill="#C00000" transform="matrix(1 0 0 -1 1801.5 1183.34)"/><path d="M1887 1176.92 2053.42 1146.89 2067.23 1223.41 1900.8 1253.44Z" fill="#F5F5F5" fill-rule="evenodd"/><path d="M1909.42 1202.94C1910.74 1202.71 1911.85 1202.96 1912.77 1203.71 1913.69 1204.45 1914.28 1205.57 1914.55 1207.07 1914.84 1208.69 1914.89 1210.76 1914.69 1213.3L1914.3 1218.86C1914.19 1220.28 1914.13 1221.38 1914.11 1222.17 1914.1 1222.95 1914.1 1223.63 1914.13 1224.2 1914.16 1224.76 1914.21 1225.23 1914.27 1225.6 1914.53 1227.01 1914.95 1227.99 1915.53 1228.53 1916.12 1229.07 1916.94 1229.25 1918.01 1229.05 1918.87 1228.9 1919.74 1228.39 1920.61 1227.52 1921.48 1226.65 1922.35 1225.43 1923.21 1223.84 1924.08 1222.26 1924.74 1220.75 1925.18 1219.33 1925.62 1217.9 1925.88 1216.2 1925.97 1214.22L1926.49 1200.37 1931.81 1199.41 1930.84 1219.72C1930.74 1221.77 1930.79 1223.33 1930.98 1224.39 1931.13 1225.21 1931.37 1225.78 1931.7 1226.11 1932.04 1226.43 1932.49 1226.54 1933.06 1226.43 1933.68 1226.32 1934.29 1225.95 1934.9 1225.32 1935.5 1224.69 1936.31 1223.56 1937.33 1221.91L1939.39 1223.32C1937.89 1225.65 1936.55 1227.34 1935.39 1228.39 1934.22 1229.45 1932.9 1230.11 1931.43 1230.38 1930.16 1230.61 1929.06 1230.37 1928.15 1229.67 1927.24 1228.96 1926.66 1227.91 1926.41 1226.52 1926.21 1225.41 1926.24 1224.16 1926.49 1222.76L1926.1 1222.7C1924.59 1225.92 1923.05 1228.37 1921.47 1230.05 1919.9 1231.73 1918.17 1232.74 1916.26 1233.08 1914.35 1233.43 1912.79 1233.14 1911.56 1232.23 1910.34 1231.32 1909.55 1229.89 1909.2 1227.94 1908.97 1226.65 1908.94 1224.76 1909.1 1222.28L1909.65 1213.86C1909.8 1211.52 1909.79 1209.9 1909.62 1208.97 1909.47 1208.15 1909.23 1207.58 1908.9 1207.26 1908.57 1206.94 1908.11 1206.83 1907.54 1206.94 1906.9 1207.05 1906.28 1207.43 1905.67 1208.08 1905.05 1208.73 1904.26 1209.86 1903.27 1211.45L1901.21 1210.05C1902.64 1207.97 1903.73 1206.52 1904.49 1205.71 1905.26 1204.89 1906.02 1204.27 1906.78 1203.85 1907.54 1203.43 1908.42 1203.12 1909.42 1202.94Z" fill="#C00000" fill-rule="evenodd"/><text fill="#000000" fill-opacity="0" font-family="Arial,Arial_MSFontService,sans-serif" font-size="33.8125" x="1901.21" y="1229">𝑢</text><path d="M1947.36 1216.48C1948.47 1216.28 1949.4 1216.49 1950.14 1217.11 1950.88 1217.73 1951.36 1218.64 1951.58 1219.83 1951.63 1220.13 1951.66 1220.45 1951.67 1220.79 1951.67 1221.13 1951.64 1221.46 1951.56 1221.79L1951.89 1221.85C1952.99 1219.58 1954.16 1217.82 1955.41 1216.57 1956.65 1215.32 1958.03 1214.56 1959.55 1214.28 1961.15 1214 1962.42 1214.21 1963.37 1214.92 1964.31 1215.64 1964.92 1216.77 1965.2 1218.32 1965.29 1218.79 1965.34 1219.45 1965.35 1220.3 1965.36 1221.16 1965.35 1222.09 1965.32 1223.11 1965.29 1224.12 1965.24 1225.17 1965.19 1226.24 1965.13 1227.32 1965.08 1228.31 1965.02 1229.22 1964.97 1230.13 1964.93 1230.91 1964.91 1231.55 1964.88 1232.19 1964.89 1232.59 1964.91 1232.74 1965.02 1233.31 1965.2 1233.71 1965.45 1233.93 1965.71 1234.14 1966.07 1234.21 1966.54 1234.13 1966.82 1234.08 1967.1 1233.97 1967.36 1233.82 1967.62 1233.66 1967.88 1233.44 1968.14 1233.16 1968.4 1232.88 1968.68 1232.53 1968.97 1232.11 1969.27 1231.69 1969.6 1231.2 1969.96 1230.62L1971.79 1231.83C1971.19 1232.71 1970.63 1233.48 1970.11 1234.14 1969.59 1234.79 1969.07 1235.35 1968.55 1235.8 1968.04 1236.26 1967.51 1236.63 1966.97 1236.91 1966.43 1237.18 1965.83 1237.38 1965.19 1237.5 1964.65 1237.59 1964.13 1237.58 1963.63 1237.45 1963.13 1237.32 1962.68 1237.1 1962.29 1236.8 1961.89 1236.49 1961.55 1236.1 1961.28 1235.62 1961.01 1235.15 1960.82 1234.61 1960.71 1234.01 1960.6 1233.41 1960.54 1232.7 1960.52 1231.87 1960.5 1231.04 1960.54 1230.12 1960.62 1229.11 1960.71 1228.08 1960.8 1227.1 1960.87 1226.16 1960.94 1225.22 1960.99 1224.36 1961.03 1223.57 1961.07 1222.77 1961.08 1222.07 1961.07 1221.46 1961.06 1220.85 1961.02 1220.35 1960.95 1219.95 1960.78 1219.02 1960.48 1218.37 1960.05 1218 1959.62 1217.62 1959.01 1217.51 1958.22 1217.65 1957.77 1217.73 1957.31 1217.93 1956.83 1218.26 1956.35 1218.59 1955.89 1219.01 1955.44 1219.52 1954.98 1220.02 1954.56 1220.61 1954.15 1221.26 1953.75 1221.92 1953.4 1222.6 1953.09 1223.32 1952.79 1224.04 1952.53 1224.77 1952.34 1225.53 1952.14 1226.29 1952.03 1227.03 1952 1227.75L1951.52 1239.54 1947.09 1240.34 1947.82 1225C1947.88 1224.19 1947.89 1223.46 1947.87 1222.83 1947.85 1222.19 1947.81 1221.68 1947.73 1221.29 1947.54 1220.19 1946.99 1219.72 1946.1 1219.88 1945.83 1219.93 1945.57 1220.04 1945.31 1220.2 1945.05 1220.36 1944.79 1220.58 1944.52 1220.87 1944.25 1221.15 1943.97 1221.49 1943.67 1221.91 1943.37 1222.32 1943.04 1222.8 1942.67 1223.35L1940.85 1222.16C1941.46 1221.26 1942.03 1220.47 1942.56 1219.81 1943.08 1219.15 1943.6 1218.59 1944.1 1218.13 1944.6 1217.68 1945.11 1217.32 1945.64 1217.05 1946.17 1216.78 1946.74 1216.6 1947.36 1216.48Z" fill="#C00000" fill-rule="evenodd"/><text fill="#000000" fill-opacity="0" font-family="Arial,Arial_MSFontService,sans-serif" font-size="26.1819" x="1940.85" y="1237.07">𝑛</text><path d="M1990.38 1173.35 1991.64 1175.57C1987.13 1178.01 1984.13 1181.73 1982.65 1186.73 1981.17 1191.73 1981.06 1197.69 1982.31 1204.62 1983.6 1211.8 1985.82 1217.5 1988.97 1221.74 1992.12 1225.98 1996.2 1228.46 2001.22 1229.19L2000.91 1231.69C1994.62 1231.19 1989.4 1228.62 1985.26 1223.98 1981.12 1219.34 1978.38 1213.31 1977.04 1205.89 1975.71 1198.49 1976.17 1191.88 1978.44 1186.06 1980.7 1180.24 1984.68 1176.01 1990.38 1173.35Z" fill="#C00000" fill-rule="evenodd"/><text fill="#000000" fill-opacity="0" font-family="Arial,Arial_MSFontService,sans-serif" font-size="58.3392" x="1976.3" y="1224.39">(</text><path d="M2011.96 1184.47C2013.87 1184.13 2015.63 1183.93 2017.24 1183.87 2018.85 1183.81 2020.48 1183.92 2022.14 1184.19L2021.92 1190.9 2019.43 1191.35C2018.87 1189.57 2018.02 1188.29 2016.88 1187.52 2015.74 1186.76 2014.12 1186.56 2012.03 1186.94 2010.41 1187.23 2009.17 1187.88 2008.32 1188.9 2007.46 1189.91 2007.16 1191.09 2007.4 1192.44 2007.53 1193.18 2007.78 1193.81 2008.14 1194.33 2008.49 1194.84 2009.12 1195.37 2010.03 1195.91 2010.93 1196.44 2012.29 1197.05 2014.1 1197.74 2015.54 1198.29 2016.7 1198.81 2017.6 1199.32 2018.49 1199.82 2019.22 1200.35 2019.79 1200.91 2020.35 1201.46 2020.8 1202.08 2021.13 1202.75 2021.47 1203.42 2021.72 1204.25 2021.91 1205.26 2022.23 1207.08 2022.03 1208.73 2021.29 1210.21 2020.55 1211.69 2019.4 1212.9 2017.85 1213.83 2016.29 1214.77 2014.45 1215.43 2012.32 1215.82 2010.61 1216.12 2008.92 1216.3 2007.23 1216.34 2005.55 1216.38 2003.64 1216.27 2001.52 1216.02L2001.79 1209.05 2004.19 1208.61C2004.63 1210.57 2005.45 1211.95 2006.65 1212.77 2007.86 1213.59 2009.58 1213.8 2011.82 1213.4 2013.76 1213.05 2015.21 1212.34 2016.15 1211.27 2017.09 1210.2 2017.41 1208.86 2017.12 1207.26 2016.96 1206.34 2016.66 1205.57 2016.23 1204.96 2015.8 1204.35 2015.19 1203.8 2014.38 1203.31 2013.57 1202.82 2012.32 1202.26 2010.64 1201.61 2008.87 1200.93 2007.47 1200.28 2006.43 1199.67 2005.4 1199.05 2004.58 1198.32 2003.96 1197.49 2003.34 1196.66 2002.93 1195.65 2002.72 1194.46 2002.42 1192.84 2002.6 1191.34 2003.25 1189.97 2003.9 1188.59 2004.98 1187.43 2006.48 1186.48 2007.98 1185.53 2009.81 1184.86 2011.96 1184.47Z" fill="#C00000" fill-rule="evenodd"/><text fill="#000000" fill-opacity="0" font-family="Arial,Arial_MSFontService,sans-serif" font-size="32.4872" x="2001.52" y="1212.28">𝑠</text><path d="M2024.78 1167.14C2031.05 1167.64 2036.27 1170.22 2040.42 1174.88 2044.57 1179.54 2047.32 1185.57 2048.65 1192.97 2049.99 1200.39 2049.53 1207 2047.28 1212.79 2045.02 1218.59 2041.03 1222.82 2035.31 1225.48L2034.14 1223.25C2038.59 1220.81 2041.55 1217.06 2043.02 1211.99 2044.49 1206.92 2044.57 1200.8 2043.28 1193.62 2042.03 1186.69 2039.84 1181.14 2036.72 1176.98 2033.59 1172.81 2029.48 1170.37 2024.38 1169.66Z" fill="#C00000" fill-rule="evenodd"/><text fill="#000000" fill-opacity="0" font-family="Arial,Arial_MSFontService,sans-serif" font-size="58.3392" x="2024.38" y="1218.19">)</text><path d="M2094.04 882.383C2095.35 882.146 2096.47 882.4 2097.38 883.145 2098.3 883.889 2098.9 885.01 2099.17 886.507 2099.46 888.126 2099.5 890.203 2099.31 892.737L2098.91 898.302C2098.81 899.718 2098.75 900.819 2098.73 901.605 2098.71 902.392 2098.72 903.068 2098.75 903.635 2098.78 904.201 2098.82 904.669 2098.89 905.038 2099.14 906.453 2099.56 907.43 2100.15 907.97 2100.73 908.51 2101.56 908.684 2102.62 908.492 2103.49 908.337 2104.35 907.826 2105.22 906.96 2106.09 906.093 2106.96 904.867 2107.83 903.282 2108.7 901.696 2109.35 900.192 2109.79 898.768 2110.23 897.344 2110.5 895.64 2110.58 893.655L2111.1 879.812 2116.42 878.852 2115.45 899.16C2115.36 901.209 2115.4 902.767 2115.6 903.833 2115.74 904.653 2115.99 905.224 2116.32 905.545 2116.65 905.866 2117.11 905.974 2117.68 905.871 2118.29 905.76 2118.91 905.39 2119.51 904.762 2120.12 904.134 2120.93 902.998 2121.95 901.354L2124.01 902.76C2122.5 905.085 2121.17 906.777 2120 907.833 2118.84 908.89 2117.52 909.552 2116.04 909.818 2114.77 910.047 2113.68 909.81 2112.77 909.107 2111.86 908.403 2111.28 907.354 2111.03 905.96 2110.83 904.853 2110.85 903.599 2111.11 902.198L2110.72 902.141C2109.2 905.357 2107.66 907.806 2106.09 909.486 2104.52 911.167 2102.78 912.179 2100.87 912.523 2098.97 912.867 2097.4 912.583 2096.18 911.671 2094.96 910.759 2094.17 909.329 2093.82 907.382 2093.59 906.09 2093.55 904.201 2093.72 901.716L2094.26 893.298C2094.41 890.963 2094.4 889.335 2094.24 888.412 2094.09 887.592 2093.85 887.021 2093.52 886.7 2093.18 886.38 2092.73 886.271 2092.16 886.374 2091.52 886.489 2090.9 886.872 2090.28 887.522 2089.67 888.172 2088.87 889.295 2087.89 890.891L2085.83 889.485C2087.25 887.408 2088.34 885.961 2089.11 885.146 2089.87 884.331 2090.63 883.712 2091.39 883.289 2092.15 882.866 2093.03 882.564 2094.04 882.383Z" fill="#C00000" fill-rule="evenodd"/><text fill="#000000" fill-opacity="0" font-family="Arial,Arial_MSFontService,sans-serif" font-size="33.8124" x="2085.83" y="908.438">𝑢</text><path d="M2132.51 890.392 2136.04 889.756 2135.78 895.725 2143.46 894.339 2143.4 896.94 2135.74 898.321 2135.14 908.2C2135.11 908.859 2135.09 909.45 2135.08 909.972 2135.07 910.494 2135.08 910.964 2135.09 911.381 2135.1 911.799 2135.13 912.175 2135.16 912.51 2135.2 912.846 2135.25 913.156 2135.3 913.443 2135.46 914.346 2135.78 915.02 2136.24 915.464 2136.71 915.908 2137.38 916.052 2138.24 915.897 2138.96 915.767 2139.68 915.361 2140.39 914.68 2141.11 913.999 2141.89 912.992 2142.72 911.661L2144.56 912.96C2143.95 913.957 2143.35 914.819 2142.77 915.546 2142.18 916.273 2141.59 916.889 2141 917.392 2140.41 917.896 2139.8 918.292 2139.19 918.582 2138.57 918.872 2137.92 919.079 2137.25 919.201 2135.45 919.524 2134.04 919.344 2133.01 918.659 2131.98 917.975 2131.31 916.812 2131.01 915.171 2130.91 914.614 2130.84 913.993 2130.81 913.308 2130.77 912.623 2130.77 911.951 2130.8 911.292L2131.38 899.108 2127.5 899.809 2127.63 897.988C2128.54 897.825 2129.23 897.612 2129.7 897.347 2130.17 897.083 2130.56 896.769 2130.85 896.406 2131.03 896.154 2131.21 895.855 2131.36 895.508 2131.52 895.162 2131.66 894.751 2131.79 894.276 2131.92 893.802 2132.05 893.247 2132.16 892.613 2132.27 891.979 2132.39 891.239 2132.51 890.392Z" fill="#C00000" fill-rule="evenodd"/><text fill="#000000" fill-opacity="0" font-family="Arial,Arial_MSFontService,sans-serif" font-size="29.6003" x="2127.5" y="915.656">𝑡</text><path d="M2165.87 854.435 2167.12 856.653C2162.61 859.097 2159.61 862.819 2158.14 867.817 2156.66 872.816 2156.54 878.78 2157.79 885.709 2159.09 892.885 2161.31 898.592 2164.45 902.83 2167.6 907.068 2171.68 909.549 2176.7 910.273L2176.39 912.774C2170.1 912.279 2164.88 909.712 2160.74 905.071 2156.6 900.43 2153.87 894.399 2152.53 886.977 2151.19 879.576 2151.65 872.966 2153.92 867.149 2156.18 861.332 2160.16 857.094 2165.87 854.435Z" fill="#C00000" fill-rule="evenodd"/><text fill="#000000" fill-opacity="0" font-family="Arial,Arial_MSFontService,sans-serif" font-size="58.3392" x="2151.78" y="905.482">(</text><path d="M2187.44 865.561C2189.35 865.217 2191.11 865.017 2192.72 864.959 2194.33 864.902 2195.96 865.009 2197.62 865.282L2197.4 871.99 2194.91 872.439C2194.35 870.655 2193.51 869.379 2192.36 868.612 2191.22 867.844 2189.6 867.649 2187.51 868.027 2185.89 868.319 2184.65 868.971 2183.8 869.982 2182.94 870.994 2182.64 872.176 2182.88 873.53 2183.01 874.268 2183.26 874.896 2183.62 875.413 2183.98 875.931 2184.61 876.457 2185.51 876.993 2186.41 877.529 2187.77 878.142 2189.58 878.83 2191.02 879.376 2192.18 879.901 2193.08 880.407 2193.97 880.912 2194.7 881.442 2195.27 881.996 2195.83 882.55 2196.28 883.162 2196.62 883.833 2196.95 884.503 2197.21 885.34 2197.39 886.345 2197.72 888.17 2197.51 889.821 2196.77 891.298 2196.03 892.776 2194.89 893.983 2193.33 894.92 2191.77 895.858 2189.93 896.518 2187.8 896.903 2186.1 897.21 2184.4 897.384 2182.71 897.423 2181.03 897.463 2179.12 897.356 2177 897.104L2177.27 890.133 2179.67 889.7C2180.11 891.654 2180.93 893.04 2182.14 893.86 2183.34 894.68 2185.06 894.888 2187.3 894.485 2189.24 894.133 2190.69 893.423 2191.63 892.354 2192.57 891.284 2192.89 889.95 2192.6 888.351 2192.44 887.428 2192.14 886.662 2191.71 886.051 2191.29 885.44 2190.67 884.89 2189.86 884.401 2189.05 883.911 2187.81 883.342 2186.12 882.693 2184.35 882.018 2182.95 881.372 2181.91 880.754 2180.88 880.135 2180.06 879.411 2179.44 878.58 2178.83 877.749 2178.41 876.739 2178.2 875.55 2177.9 873.93 2178.08 872.432 2178.74 871.055 2179.39 869.677 2180.46 868.515 2181.96 867.566 2183.47 866.618 2185.29 865.95 2187.44 865.561Z" fill="#C00000" fill-rule="evenodd"/><text fill="#000000" fill-opacity="0" font-family="Arial,Arial_MSFontService,sans-serif" font-size="32.4871" x="2177" y="893.37">𝑠</text><path d="M2200.26 848.229C2206.53 848.727 2211.75 851.306 2215.9 855.966 2220.05 860.625 2222.8 866.655 2224.13 874.057 2225.47 881.479 2225.01 888.087 2222.76 893.882 2220.5 899.677 2216.51 903.905 2210.79 906.568L2209.62 904.333C2214.07 901.9 2217.03 898.148 2218.5 893.078 2219.97 888.008 2220.05 881.885 2218.76 874.709 2217.51 867.779 2215.32 862.231 2212.2 858.063 2209.08 853.895 2204.96 851.456 2199.86 850.747Z" fill="#C00000" fill-rule="evenodd"/><text fill="#000000" fill-opacity="0" font-family="Arial,Arial_MSFontService,sans-serif" font-size="58.3392" x="2199.86" y="899.276">)</text><path d="M1957.28 249.528C1958.6 249.292 1959.71 249.546 1960.63 250.29 1961.55 251.035 1962.14 252.156 1962.41 253.653 1962.7 255.272 1962.75 257.349 1962.55 259.883L1962.16 265.447C1962.05 266.863 1961.99 267.965 1961.97 268.751 1961.96 269.537 1961.96 270.214 1961.99 270.78 1962.02 271.347 1962.07 271.815 1962.13 272.184 1962.39 273.598 1962.81 274.576 1963.39 275.116 1963.98 275.656 1964.8 275.83 1965.87 275.638 1966.73 275.482 1967.6 274.972 1968.47 274.105 1969.34 273.239 1970.21 272.013 1971.07 270.428 1971.94 268.842 1972.6 267.337 1973.04 265.913 1973.48 264.49 1973.74 262.785 1973.83 260.801L1974.35 246.958 1979.67 245.998 1978.7 266.305C1978.6 268.355 1978.65 269.913 1978.84 270.979 1978.99 271.799 1979.23 272.37 1979.56 272.691 1979.9 273.012 1980.35 273.12 1980.92 273.017 1981.54 272.906 1982.15 272.536 1982.76 271.908 1983.36 271.28 1984.17 270.144 1985.19 268.5L1987.25 269.906C1985.75 272.231 1984.41 273.922 1983.25 274.979 1982.08 276.036 1980.76 276.698 1979.29 276.964 1978.02 277.193 1976.92 276.956 1976.01 276.252 1975.1 275.549 1974.52 274.5 1974.27 273.105 1974.07 271.998 1974.1 270.744 1974.35 269.343L1973.96 269.287C1972.45 272.503 1970.91 274.951 1969.33 276.632 1967.76 278.312 1966.03 279.325 1964.12 279.669 1962.21 280.013 1960.65 279.729 1959.42 278.817 1958.2 277.905 1957.41 276.475 1957.06 274.527 1956.83 273.236 1956.8 271.347 1956.96 268.862L1957.51 260.444C1957.66 258.109 1957.65 256.48 1957.48 255.558 1957.33 254.738 1957.09 254.167 1956.76 253.846 1956.43 253.525 1955.97 253.417 1955.4 253.52 1954.76 253.635 1954.14 254.017 1953.53 254.668 1952.91 255.318 1952.12 256.441 1951.13 258.037L1949.07 256.631C1950.5 254.553 1951.59 253.107 1952.35 252.292 1953.12 251.477 1953.88 250.858 1954.64 250.435 1955.4 250.012 1956.28 249.71 1957.28 249.528Z" fill="#C00000" fill-rule="evenodd"/><text fill="#000000" fill-opacity="0" font-family="Arial,Arial_MSFontService,sans-serif" font-size="33.8124" x="1949.07" y="275.583">𝑢</text><path d="M2012.22 262.449C2011.29 262.617 2010.56 263.033 2010.02 263.697 2009.49 264.361 2009.09 265.144 2008.83 266.047 2008.56 266.95 2008.38 267.91 2008.3 268.929 2008.21 269.948 2008.15 270.902 2008.12 271.793L2007.62 282.704C2009.44 282.283 2010.96 281.545 2012.19 280.493 2013.41 279.44 2014.37 278.195 2015.05 276.759 2015.73 275.322 2016.15 273.757 2016.31 272.065 2016.47 270.372 2016.4 268.675 2016.09 266.974 2016 266.477 2015.88 265.94 2015.72 265.362 2015.56 264.785 2015.34 264.261 2015.05 263.792 2014.77 263.323 2014.4 262.951 2013.94 262.675 2013.49 262.399 2012.91 262.324 2012.22 262.449ZM2000.41 262.131 2002.2 263.745C2000.04 266.093 1998.49 268.444 1997.54 270.799 1996.6 273.153 1996.32 275.385 1996.7 277.492 1997.05 279.45 1997.79 280.903 1998.91 281.851 2000.03 282.8 2001.57 283.267 2003.55 283.253L2003.99 272.633C2004.06 270.693 2004.31 268.979 2004.76 267.492 2005.21 266.004 2005.8 264.739 2006.54 263.697 2007.27 262.654 2008.13 261.827 2009.11 261.215 2010.09 260.604 2011.14 260.196 2012.27 259.992 2014.54 259.582 2016.38 259.95 2017.77 261.098 2019.17 262.245 2020.09 264.046 2020.53 266.5 2020.93 268.698 2020.93 270.815 2020.55 272.852 2020.16 274.888 2019.41 276.734 2018.29 278.389 2017.18 280.044 2015.72 281.449 2013.92 282.605 2012.13 283.761 2010.02 284.564 2007.62 285.014L2007.2 294.697 2002.97 295.459 2003.44 285.628C2001.88 285.707 2000.46 285.601 1999.18 285.311 1997.9 285.021 1996.79 284.558 1995.83 283.922 1994.88 283.286 1994.09 282.48 1993.47 281.503 1992.85 280.527 1992.42 279.383 1992.19 278.073 1991.73 275.559 1992.2 272.975 1993.6 270.321 1994.99 267.668 1997.26 264.938 2000.41 262.131Z" fill="#C00000" fill-rule="evenodd"/><text fill="#000000" fill-opacity="0" font-family="Arial,Arial_MSFontService,sans-serif" font-size="35.6295" x="1992.02" y="291.006">𝜑</text><path d="M2043.52 218.98 2044.78 221.199C2040.27 223.643 2037.27 227.364 2035.79 232.363 2034.31 237.361 2034.2 243.325 2035.45 250.255 2036.74 257.431 2038.96 263.138 2042.11 267.375 2045.25 271.613 2049.34 274.094 2054.36 274.819L2054.05 277.32C2047.76 276.825 2042.54 274.257 2038.4 269.616 2034.26 264.976 2031.52 258.944 2030.18 251.522 2028.85 244.121 2029.31 237.512 2031.57 231.695 2033.84 225.877 2037.82 221.639 2043.52 218.98Z" fill="#C00000" fill-rule="evenodd"/><text fill="#000000" fill-opacity="0" font-family="Arial,Arial_MSFontService,sans-serif" font-size="58.3393" x="2029.44" y="270.027">(</text><path d="M2065.1 230.107C2067.01 229.763 2068.77 229.562 2070.37 229.505 2071.98 229.447 2073.62 229.555 2075.28 229.827L2075.06 236.535 2072.57 236.984C2072.01 235.2 2071.16 233.925 2070.02 233.157 2068.87 232.39 2067.26 232.195 2065.16 232.572 2063.54 232.864 2062.31 233.516 2061.45 234.528 2060.6 235.54 2060.29 236.722 2060.54 238.075 2060.67 238.813 2060.92 239.441 2061.27 239.959 2061.63 240.476 2062.26 241.003 2063.16 241.539 2064.06 242.075 2065.42 242.687 2067.24 243.375 2068.67 243.921 2069.84 244.447 2070.73 244.952 2071.63 245.457 2072.36 245.987 2072.92 246.541 2073.49 247.096 2073.94 247.708 2074.27 248.378 2074.6 249.048 2074.86 249.886 2075.04 250.891 2075.37 252.715 2075.17 254.366 2074.43 255.844 2073.69 257.322 2072.54 258.529 2070.99 259.466 2069.43 260.403 2067.58 261.064 2065.45 261.449 2063.75 261.756 2062.06 261.929 2060.37 261.969 2058.68 262.008 2056.78 261.902 2054.66 261.649L2054.93 254.679 2057.33 254.246C2057.76 256.199 2058.58 257.586 2059.79 258.406 2061 259.225 2062.72 259.433 2064.95 259.03 2066.9 258.679 2068.34 257.969 2069.28 256.899 2070.22 255.83 2070.55 254.496 2070.26 252.897 2070.09 251.974 2069.8 251.207 2069.37 250.596 2068.94 249.986 2068.32 249.436 2067.52 248.946 2066.71 248.457 2065.46 247.888 2063.78 247.239 2062 246.564 2060.6 245.917 2059.57 245.299 2058.54 244.681 2057.71 243.956 2057.1 243.125 2056.48 242.294 2056.07 241.284 2055.85 240.095 2055.56 238.476 2055.74 236.977 2056.39 235.6 2057.04 234.223 2058.12 233.06 2059.62 232.112 2061.12 231.164 2062.95 230.495 2065.1 230.107Z" fill="#C00000" fill-rule="evenodd"/><text fill="#000000" fill-opacity="0" font-family="Arial,Arial_MSFontService,sans-serif" font-size="32.4871" x="2054.66" y="257.916">𝑠</text><path d="M2077.92 212.774C2084.19 213.273 2089.4 215.852 2093.56 220.511 2097.71 225.171 2100.45 231.201 2101.79 238.602 2103.13 246.024 2102.67 252.632 2100.41 258.427 2098.16 264.222 2094.17 268.451 2088.44 271.114L2087.28 268.879C2091.73 266.445 2094.69 262.694 2096.16 257.624 2097.62 252.553 2097.71 246.43 2096.41 239.255 2095.16 232.325 2092.98 226.776 2089.85 222.608 2086.73 218.44 2082.62 216.001 2077.52 215.292Z" fill="#C00000" fill-rule="evenodd"/><text fill="#000000" fill-opacity="0" font-family="Arial,Arial_MSFontService,sans-serif" font-size="58.3392" x="2077.52" y="263.821">)</text><path d="M1991.34 642.504 1913.5 250.5" stroke="#A6A6A6" stroke-width="6.875" stroke-miterlimit="8" fill="none" fill-rule="evenodd"/><path d="M1929 504 2065.5 783.08" stroke="#404040" stroke-width="13.75" stroke-miterlimit="8" fill="none" fill-rule="evenodd"/><path d="M2093.93 1126.91 1989.58 643.878 1996.3 642.426 2100.65 1125.46ZM1979.8 672.354 1991.5 636.485 2016.96 664.325C2018.24 665.726 2018.14 667.901 2016.74 669.182 2015.34 670.463 2013.17 670.366 2011.89 668.965L1990.4 645.473 1996.21 644.219 1986.33 674.486C1985.74 676.291 1983.8 677.277 1982 676.688 1980.19 676.1 1979.21 674.159 1979.8 672.354Z" fill="#C00000"/><path d="M1850.56 292.733 1862.87 288.115 1873.07 284.801 1883.08 281.913 1891.32 279.996 1892.88 286.692 1884.72 288.589 1884.9 288.544 1875.03 291.39 1875.14 291.357 1865.07 294.629 1865.22 294.579 1852.97 299.17ZM1861.14 306.999 1830.5 304.5 1850.89 281.484ZM1884.71 270.873 1914.5 278.5 1890.53 297.752Z" fill="#C00000"/><path d="M1374.41 1727.47C1376.13 1727.47 1377.51 1727.96 1378.55 1728.92 1379.58 1729.89 1380.09 1731.17 1380.09 1732.75 1380.09 1733.32 1379.98 1734.02 1379.75 1734.88L1380 1734.97C1381.75 1732.51 1383.58 1730.65 1385.5 1729.38 1387.42 1728.11 1389.54 1727.47 1391.87 1727.47 1393.25 1727.47 1394.71 1727.67 1396.25 1728.07L1394.41 1736.47 1388.81 1736.47C1388.81 1735.08 1388.66 1734.11 1388.36 1733.57 1388.06 1733.02 1387.54 1732.75 1386.81 1732.75 1386.25 1732.75 1385.63 1732.95 1384.97 1733.35 1384.3 1733.74 1383.5 1734.51 1382.58 1735.66 1381.65 1736.8 1380.95 1737.9 1380.48 1738.94 1380.01 1739.98 1379.6 1741.32 1379.25 1742.94L1375.72 1758.97 1366.75 1758.97 1371.78 1737.25C1372.09 1735.9 1372.25 1734.87 1372.25 1734.16 1372.25 1733.47 1372.13 1732.94 1371.91 1732.57 1371.68 1732.19 1371.28 1732 1370.72 1732 1370.07 1732 1369.37 1732.29 1368.62 1732.88 1367.87 1733.46 1367 1734.33 1366 1735.47L1363.75 1733.22C1365.83 1731.1 1367.68 1729.61 1369.3 1728.75 1370.91 1727.9 1372.61 1727.47 1374.41 1727.47Z" fill-rule="evenodd"/><text fill="#000000" fill-opacity="0" font-family="Arial,Arial_MSFontService,sans-serif" font-size="31.5" x="1363.75" y="1755.03">𝒓</text><path d="M1457.16 1711.04C1463.25 1712.65 1467.92 1716.11 1471.18 1721.43 1474.44 1726.76 1476.07 1733.18 1476.07 1740.7 1476.07 1748.24 1474.45 1754.66 1471.2 1759.96 1467.95 1765.27 1463.27 1768.72 1457.16 1770.32L1456.41 1767.92C1461.23 1766.31 1464.8 1763.15 1467.15 1758.42 1469.49 1753.69 1470.66 1747.68 1470.66 1740.39 1470.66 1733.34 1469.5 1727.5 1467.16 1722.84 1464.83 1718.18 1461.22 1715.05 1456.32 1713.45ZM1421.94 1711.04 1422.78 1713.45C1417.91 1715.05 1414.3 1718.18 1411.95 1722.84 1409.61 1727.5 1408.44 1733.34 1408.44 1740.39 1408.44 1747.68 1409.61 1753.69 1411.95 1758.42 1414.3 1763.15 1417.87 1766.31 1422.69 1767.92L1421.94 1770.32C1415.83 1768.72 1411.16 1765.27 1407.91 1759.96 1404.66 1754.66 1403.03 1748.24 1403.03 1740.7 1403.03 1733.18 1404.66 1726.76 1407.92 1721.43 1411.18 1716.11 1415.85 1712.65 1421.94 1711.04Z" fill-rule="evenodd"/><path d="M1441.47 1728.6C1443.41 1728.6 1445.18 1728.71 1446.77 1728.94 1448.36 1729.17 1449.95 1729.57 1451.53 1730.13L1450.13 1736.69 1447.6 1736.69C1447.37 1734.84 1446.76 1733.43 1445.77 1732.47 1444.78 1731.51 1443.22 1731.03 1441.1 1731.03 1439.45 1731.03 1438.12 1731.46 1437.1 1732.3 1436.08 1733.14 1435.57 1734.25 1435.57 1735.63 1435.57 1736.38 1435.7 1737.04 1435.96 1737.61 1436.22 1738.18 1436.74 1738.82 1437.53 1739.5 1438.33 1740.19 1439.56 1741.03 1441.22 1742.03 1442.53 1742.83 1443.59 1743.55 1444.38 1744.21 1445.17 1744.86 1445.8 1745.51 1446.25 1746.16 1446.71 1746.8 1447.05 1747.49 1447.25 1748.21 1447.46 1748.92 1447.57 1749.79 1447.57 1750.82 1447.57 1752.67 1447.07 1754.26 1446.08 1755.58 1445.09 1756.9 1443.75 1757.89 1442.05 1758.53 1440.35 1759.18 1438.42 1759.5 1436.25 1759.5 1434.52 1759.5 1432.83 1759.37 1431.16 1759.11 1429.49 1758.85 1427.64 1758.41 1425.6 1757.78L1427.1 1750.97 1429.53 1750.97C1429.62 1752.97 1430.18 1754.48 1431.22 1755.5 1432.26 1756.52 1433.92 1757.03 1436.19 1757.03 1438.17 1757.03 1439.72 1756.59 1440.83 1755.71 1441.95 1754.82 1442.5 1753.57 1442.5 1751.94 1442.5 1751 1442.35 1750.2 1442.03 1749.52 1441.72 1748.84 1441.21 1748.19 1440.5 1747.57 1439.8 1746.94 1438.67 1746.16 1437.13 1745.22 1435.5 1744.24 1434.24 1743.36 1433.33 1742.57 1432.43 1741.77 1431.74 1740.91 1431.28 1739.99 1430.83 1739.06 1430.6 1737.99 1430.6 1736.78 1430.6 1735.14 1431.04 1733.7 1431.93 1732.46 1432.81 1731.22 1434.08 1730.26 1435.72 1729.6 1437.37 1728.93 1439.28 1728.6 1441.47 1728.6Z" fill-rule="evenodd"/><text fill="#000000" fill-opacity="0" font-family="Arial,Arial_MSFontService,sans-serif" font-size="30.9062" x="1425.6" y="1755.64">𝑠</text><path d="M1485.95 1751.72 1491.42 1751.72C1491.71 1753.18 1491.86 1754.62 1491.86 1756.03 1491.86 1757.49 1491.61 1758.83 1491.11 1760.03 1490.61 1761.24 1489.81 1762.45 1488.71 1763.64 1487.62 1764.84 1486.12 1766.16 1484.2 1767.6L1482.51 1765.69C1483.57 1764.69 1484.35 1763.79 1484.82 1762.99 1485.3 1762.18 1485.65 1761.27 1485.86 1760.25 1486.06 1759.23 1486.17 1757.95 1486.17 1756.41 1486.17 1754.83 1486.1 1753.26 1485.95 1751.72Z" fill-rule="evenodd"/><text fill="#000000" fill-opacity="0" font-family="Arial,Arial_MSFontService,sans-serif" font-size="15.875" x="1482.51" y="1765.61">,</text><path d="M1536.8 1731.07C1535.11 1731.07 1533.67 1732.01 1532.47 1733.91 1531.27 1735.8 1530.21 1738.79 1529.3 1742.88L1526.11 1757.03C1529.07 1756.93 1531.62 1755.96 1533.77 1754.11 1535.91 1752.27 1537.57 1749.77 1538.73 1746.63 1539.9 1743.48 1540.48 1740.23 1540.48 1736.88 1540.48 1735.07 1540.17 1733.64 1539.53 1732.61 1538.9 1731.58 1537.98 1731.07 1536.8 1731.07ZM1522.36 1728.5 1523.98 1730.66C1520.92 1732.85 1518.48 1735.44 1516.67 1738.44 1514.86 1741.44 1513.95 1744.4 1513.95 1747.32 1513.95 1750.02 1514.56 1752.16 1515.77 1753.72 1516.97 1755.28 1518.8 1756.32 1521.23 1756.82L1524.42 1742.47C1525.48 1737.72 1527.17 1734.22 1529.47 1731.96 1531.77 1729.7 1534.37 1728.57 1537.27 1728.57 1540.12 1728.57 1542.27 1729.36 1543.7 1730.96 1545.14 1732.55 1545.86 1734.94 1545.86 1738.13 1545.86 1742.11 1545.03 1745.72 1543.38 1748.97 1541.72 1752.22 1539.36 1754.76 1536.3 1756.6 1533.23 1758.43 1529.67 1759.38 1525.61 1759.44L1522.67 1772.47 1517.77 1772.47 1520.7 1759.38C1516.83 1758.94 1513.84 1757.65 1511.75 1755.52 1509.66 1753.38 1508.61 1750.58 1508.61 1747.1 1508.61 1740.18 1513.19 1733.98 1522.36 1728.5Z" fill-rule="evenodd"/><text fill="#000000" fill-opacity="0" font-family="Arial,Arial_MSFontService,sans-serif" font-size="43.9688" x="1508.61" y="1766.98">𝜑</text><path d="M1575.09 1713.82 1575.93 1716.22C1571.06 1717.83 1567.45 1720.96 1565.1 1725.61 1562.76 1730.27 1561.59 1736.12 1561.59 1743.16 1561.59 1750.45 1562.76 1756.46 1565.1 1761.19 1567.45 1765.92 1571.03 1769.09 1575.84 1770.69L1575.09 1773.1C1568.98 1771.49 1564.31 1768.04 1561.06 1762.74 1557.81 1757.43 1556.18 1751.01 1556.18 1743.47 1556.18 1735.95 1557.81 1729.53 1561.07 1724.21 1564.33 1718.88 1569.01 1715.42 1575.09 1713.82Z" fill-rule="evenodd"/><text fill="#000000" fill-opacity="0" font-family="Arial,Arial_MSFontService,sans-serif" font-size="59.2812" x="1556.18" y="1765.69">(</text><path d="M1594.35 1728.6C1596.29 1728.6 1598.05 1728.71 1599.65 1728.94 1601.24 1729.17 1602.83 1729.57 1604.41 1730.13L1603.01 1736.69 1600.47 1736.69C1600.25 1734.84 1599.64 1733.43 1598.65 1732.47 1597.66 1731.51 1596.1 1731.03 1593.97 1731.03 1592.33 1731.03 1591 1731.46 1589.97 1732.3 1588.95 1733.14 1588.44 1734.25 1588.44 1735.63 1588.44 1736.38 1588.57 1737.04 1588.83 1737.61 1589.09 1738.18 1589.62 1738.82 1590.41 1739.5 1591.2 1740.19 1592.43 1741.03 1594.1 1742.03 1595.41 1742.83 1596.46 1743.55 1597.26 1744.21 1598.05 1744.86 1598.67 1745.51 1599.13 1746.16 1599.59 1746.8 1599.92 1747.49 1600.13 1748.21 1600.34 1748.92 1600.44 1749.79 1600.44 1750.82 1600.44 1752.67 1599.95 1754.26 1598.96 1755.58 1597.97 1756.9 1596.63 1757.89 1594.93 1758.53 1593.23 1759.18 1591.3 1759.5 1589.13 1759.5 1587.4 1759.5 1585.7 1759.37 1584.04 1759.11 1582.37 1758.85 1580.52 1758.41 1578.47 1757.78L1579.97 1750.97 1582.41 1750.97C1582.5 1752.97 1583.06 1754.48 1584.1 1755.5 1585.14 1756.52 1586.8 1757.03 1589.07 1757.03 1591.05 1757.03 1592.59 1756.59 1593.71 1755.71 1594.82 1754.82 1595.38 1753.57 1595.38 1751.94 1595.38 1751 1595.22 1750.2 1594.91 1749.52 1594.6 1748.84 1594.09 1748.19 1593.38 1747.57 1592.67 1746.94 1591.55 1746.16 1590.01 1745.22 1588.38 1744.24 1587.11 1743.36 1586.21 1742.57 1585.3 1741.77 1584.62 1740.91 1584.16 1739.99 1583.7 1739.06 1583.47 1737.99 1583.47 1736.78 1583.47 1735.14 1583.92 1733.7 1584.8 1732.46 1585.69 1731.22 1586.95 1730.26 1588.6 1729.6 1590.25 1728.93 1592.16 1728.6 1594.35 1728.6Z" fill-rule="evenodd"/><text fill="#000000" fill-opacity="0" font-family="Arial,Arial_MSFontService,sans-serif" font-size="30.9062" x="1578.47" y="1755.64">𝑠</text><path d="M1610.04 1713.82C1616.12 1715.42 1620.8 1718.88 1624.06 1724.21 1627.32 1729.53 1628.95 1735.95 1628.95 1743.47 1628.95 1751.01 1627.32 1757.43 1624.07 1762.74 1620.82 1768.04 1616.15 1771.49 1610.04 1773.1L1609.29 1770.69C1614.1 1769.09 1617.68 1765.92 1620.03 1761.19 1622.37 1756.46 1623.54 1750.45 1623.54 1743.16 1623.54 1736.12 1622.37 1730.27 1620.04 1725.61 1617.71 1720.96 1614.09 1717.83 1609.2 1716.22Z" fill-rule="evenodd"/><text fill="#000000" fill-opacity="0" font-family="Arial,Arial_MSFontService,sans-serif" font-size="59.2812" x="1609.2" y="1765.69">)</text></g></svg>