<?xml version="1.0" encoding="UTF-8"?>
<svg width="32" height="32" version="1.1" xmlns="http://www.w3.org/2000/svg" xmlns:cc="http://creativecommons.org/ns#" xmlns:dc="http://purl.org/dc/elements/1.1/" xmlns:rdf="http://www.w3.org/1999/02/22-rdf-syntax-ns#"><metadata><rdf:RDF><cc:Work rdf:about=""><dc:format>image/svg+xml</dc:format><dc:type rdf:resource="http://purl.org/dc/dcmitype/StillImage"/><dc:title/></cc:Work></rdf:RDF></metadata><circle cx="16" cy="16" r="13" fill="#0063b1"/><path d="m28 16a12 12 0 0 1-12 12 12 12 0 0 1-12-12 12 12 0 0 1 12-12 12 12 0 0 1 12 12z" fill="#5caae7"/><path d="m17.641 7.002c-1.5504-0.085042-2.3602 2.5001-0.88689 3.207 1.1953 0.50667 2.4964-0.7612 2.2044-2.0273-0.090621-0.65929-0.66372-1.2019-1.3175-1.1797zm-0.66474 5.6855c-0.2497-0.0212-0.54246 0.07136-0.85955 0.31836-1.5196 0.68405-2.7899 1.8012-4.1166 2.8027 0.1665 0.46784 0.3544 0.84666 0.7536 0.32812 0.49493-0.30436 2.1533-1.6388 1.9874-0.33203-0.53099 2.4181-1.1771 4.8107-1.6713 7.2363-0.51675 1.3281 0.65799 2.5317 1.8832 1.668 1.3023-0.55488 2.4216-1.46 3.5664-2.2891-0.1562-0.39595-0.26048-0.96507-0.69208-0.44727-0.56672 0.26587-1.8053 1.5202-2.0352 0.48633 0.47604-2.6184 1.3587-5.1388 1.9225-7.7363 0.38912-0.89576 0.01088-1.9715-0.73822-2.0352z" fill="#fafafa"/><text x="22.644068" y="13.966102" fill="#000000" font-family="sans-serif" font-size="40px" letter-spacing="0px" word-spacing="0px" style="line-height:1.25" xml:space="preserve"><tspan x="22.644068" y="50.361111"/></text></svg>
