<?xml version="1.0" encoding="UTF-8"?>
<svg version="1.1" viewBox="0 0 16 16" xmlns="http://www.w3.org/2000/svg" xmlns:cc="http://creativecommons.org/ns#" xmlns:dc="http://purl.org/dc/elements/1.1/" xmlns:rdf="http://www.w3.org/1999/02/22-rdf-syntax-ns#">
 <metadata>
  <rdf:RDF>
   <cc:Work rdf:about="">
    <dc:format>image/svg+xml</dc:format>
    <dc:type rdf:resource="http://purl.org/dc/dcmitype/StillImage"/>
    <dc:title/>
   </cc:Work>
  </rdf:RDF>
 </metadata>/&amp;amp;amp;amp;gt;
 <g fill-rule="evenodd">
  <path d="m3 2 4 2 5-2e-7v8h-11v-10z" fill="#fafafa"/>
  <g fill="#3a3a38">
   <path d="m0 14h13l2.7441-7.0078c0.29785-0.99285 0.29823-0.99219-0.74414-0.99219h-10.979c-1.0212 0-0.95508 0.13672-1.2793 0.99023l-1.7422 4.6758z"/>
   <path d="m2.7969 1c0.42536 0 0.55143 0 0.85812 0.14347l3.7591 1.8565h4.5859c0.55226 5.52e-5 0.99994 0.44774 1 1v7h-1v-7h-5l-4-2h-2v12h-1v-12c5.5e-5 -0.55226 0.44774-0.99994 1-1z"/>
   <path d="m4.0215 7c-0.12717 0-0.16092 0.00219-0.24414 0.00391-0.022899 0.080791-0.035762 0.11333-0.068359 0.23828a1.0001 1.0001 0 0 1-0.029297 0.097656l-1.7422 4.6758a1.0001 1.0001 0 0 1-0.017578 0.04492l-0.40234 0.93946h10.801l2.3477-6h-1.666z"/>
  </g>
 </g>
</svg>
