<?xml version="1.0" encoding="UTF-8"?>
<svg version="1.1" viewBox="0 0 16 16" xmlns="http://www.w3.org/2000/svg" xmlns:cc="http://creativecommons.org/ns#" xmlns:dc="http://purl.org/dc/elements/1.1/" xmlns:rdf="http://www.w3.org/1999/02/22-rdf-syntax-ns#"><metadata><rdf:RDF><cc:Work rdf:about=""><dc:format>image/svg+xml</dc:format><dc:type rdf:resource="http://purl.org/dc/dcmitype/StillImage"/><dc:title/></cc:Work></rdf:RDF></metadata>/&amp;amp;gt;<path d="m10.233 0.24531c-0.51024-0.21129-1.0952 0.030994-1.3066 0.5412l-0.92681 2.2375-0.92701-2.238c-0.21142-0.5101-0.79623-0.75234-1.3064-0.54114l-1.8476 0.76529c-0.5101 0.21142-0.75234 0.79623-0.54114 1.3064l0.92701 2.238-2.2375-0.92681c-0.51024-0.21129-1.0952 0.030994-1.3066 0.5412l-0.76537 1.8478c-0.21129 0.51024 0.030994 1.0952 0.5412 1.3066l2.2375 0.92681-2.238 0.92701c-0.5101 0.21142-0.75234 0.79623-0.54114 1.3064l0.76528 1.8476c0.21142 0.5101 0.79623 0.75234 1.3064 0.54114l2.238-0.92701-0.92681 2.2375c-0.21129 0.51024 0.030994 1.0952 0.5412 1.3066l1.8478 0.76537c0.51024 0.21129 1.0952-0.03099 1.3066-0.5412l0.92681-2.2375 0.92701 2.238c0.21142 0.5101 0.79623 0.75234 1.3064 0.54114l1.8476-0.76529c0.5101-0.21142 0.75234-0.79623 0.54114-1.3064l-0.92701-2.238 2.2375 0.92681c0.51024 0.21129 1.0952-0.03099 1.3066-0.5412l0.76537-1.8478c0.21129-0.51024-0.030994-1.0952-0.5412-1.3066l-2.2375-0.92681 2.238-0.92701c0.5101-0.21142 0.75234-0.79623 0.54114-1.3064l-0.76529-1.8476c-0.21142-0.5101-0.79623-0.75234-1.3064-0.54114l-2.238 0.92701 0.92681-2.2375c0.21129-0.51024-0.030994-1.0952-0.5412-1.3066zm-1.7549 6.8498a1 1 0 0 1 0.5412 1.3066 1 1 0 0 1-1.3066 0.5412 1 1 0 0 1-0.5412-1.3066 1 1 0 0 1 1.3066-0.5412z" fill="#3a3a38"/><path d="m9.8506 1.1692-1.1981 2.8925a4 4 0 0 0-1.2941 0.026295l-1.2092-2.9194-1.8476 0.76529 1.2452 3.0061a4 4 0 0 0-0.79278 0.88297l-3.0694-1.2714-0.76537 1.8478 3.1921 1.3222a4 4 0 0 0 0.053397 1.0347l-3.246 1.3445 0.76529 1.8476 3.3328-1.3805a4 4 0 0 0 0.67517 0.64117l-1.3902 3.3563 1.8478 0.76537 1.3895-3.3545a4 4 0 0 0 0.93154 0.02224l1.3805 3.3328 1.8476-0.76528-1.3456-3.2485a4 4 0 0 0 0.7723-0.69062l3.1903 1.3215 0.76537-1.8478-3.0712-1.2721a4 4 0 0 0 0.06558-1.1842l3.0061-1.2452-0.76528-1.8476-2.9219 1.2103a4 4 0 0 0-0.89468-0.93293l1.1989-2.8943zm-0.98954 5.0021a2 2 0 0 1 1.0824 2.6131 2 2 0 0 1-2.6131 1.0824 2 2 0 0 1-1.0824-2.6131 2 2 0 0 1 2.6131-1.0824z" fill="#fafafa"/></svg>
