<?xml version="1.0" encoding="UTF-8" standalone="no"?>
<svg
   xmlns:dc="http://purl.org/dc/elements/1.1/"
   xmlns:cc="http://creativecommons.org/ns#"
   xmlns:rdf="http://www.w3.org/1999/02/22-rdf-syntax-ns#"
   xmlns:svg="http://www.w3.org/2000/svg"
   xmlns="http://www.w3.org/2000/svg"
   xmlns:sodipodi="http://sodipodi.sourceforge.net/DTD/sodipodi-0.dtd"
   xmlns:inkscape="http://www.inkscape.org/namespaces/inkscape"
   viewBox="0 0 24 24"
   version="1.1"
   id="svg12"
   sodipodi:docname="lc_mirror.svg"
   inkscape:export-filename="/home/stefan/Desktop/Repositories/virtualbow/resources/icons/view-symmetric.png"
   inkscape:export-xdpi="88"
   inkscape:export-ydpi="88"
   inkscape:version="0.92.3 (2405546, 2018-03-11)">
  <metadata
     id="metadata18">
    <rdf:RDF>
      <cc:Work
         rdf:about="">
        <dc:format>image/svg+xml</dc:format>
        <dc:type
           rdf:resource="http://purl.org/dc/dcmitype/StillImage" />
      </cc:Work>
    </rdf:RDF>
  </metadata>
  <defs
     id="defs16" />
  <sodipodi:namedview
     pagecolor="#ffffff"
     bordercolor="#666666"
     borderopacity="1"
     objecttolerance="10"
     gridtolerance="10"
     guidetolerance="10"
     inkscape:pageopacity="0"
     inkscape:pageshadow="2"
     inkscape:window-width="1920"
     inkscape:window-height="1001"
     id="namedview14"
     showgrid="false"
     inkscape:zoom="9.8333333"
     inkscape:cx="12"
     inkscape:cy="12"
     inkscape:window-x="0"
     inkscape:window-y="0"
     inkscape:window-maximized="1"
     inkscape:current-layer="svg12" />
  <g
     fill-rule="evenodd"
     transform="matrix(-1 0 0 1 24.001587 -3)"
     id="g10">
    <path
       d="m10.972424 7.0039062c-.388468.0109721-.735232.2464668-.888672.6035157l-6.9999978 15.0000001c-.2819476.658671.20149 1.391028.9179688 1.390625h7c.551234.000068.998115-.446813.998047-.998047v-15c-.000789-.5621157-.465474-1.0126662-1.027346-.9960938z"
       fill="#0063b1"
       id="path2" />
    <path
       d="m22.003875 22.999529c.000306.55349-.448463 1.002259-1.001953 1.001953h-7c-.55349.000306-1.002259-.448463-1.001953-1.001953l-.0028-15c.000403-1.037624 1.38463-1.3897903 1.880859-.478516l7.0028 15c.08034.146724.122642.311237.123047.478516z"
       fill="#3a3a38"
       id="path4" />
    <path
       d="m4.001587 23h7v-15z"
       fill="#83beec"
       id="path6" />
    <path
       d="m21.001587 23h-7l-.0028-15z"
       fill="#fafafa"
       id="path8" />
  </g>
</svg>
