<?xml version="1.0" encoding="UTF-8" standalone="no"?>
<svg
   xmlns:dc="http://purl.org/dc/elements/1.1/"
   xmlns:cc="http://creativecommons.org/ns#"
   xmlns:rdf="http://www.w3.org/1999/02/22-rdf-syntax-ns#"
   xmlns:svg="http://www.w3.org/2000/svg"
   xmlns="http://www.w3.org/2000/svg"
   xmlns:sodipodi="http://sodipodi.sourceforge.net/DTD/sodipodi-0.dtd"
   xmlns:inkscape="http://www.inkscape.org/namespaces/inkscape"
   viewBox="0 0 19.001711 19.001711"
   version="1.1"
   id="svg12"
   sodipodi:docname="lc_mirror_modified.svg"
   width="19.001711"
   height="19.001711"
   inkscape:version="0.92.4 (5da689c313, 2019-01-14)">
  <metadata
     id="metadata18">
    <rdf:RDF>
      <cc:Work
         rdf:about="">
        <dc:format>image/svg+xml</dc:format>
        <dc:type
           rdf:resource="http://purl.org/dc/dcmitype/StillImage" />
        <dc:title></dc:title>
      </cc:Work>
    </rdf:RDF>
  </metadata>
  <defs
     id="defs16" />
  <sodipodi:namedview
     pagecolor="#ffffff"
     bordercolor="#666666"
     borderopacity="1"
     objecttolerance="10"
     gridtolerance="10"
     guidetolerance="10"
     inkscape:pageopacity="0"
     inkscape:pageshadow="2"
     inkscape:window-width="1367"
     inkscape:window-height="678"
     id="namedview14"
     showgrid="false"
     fit-margin-top="0"
     fit-margin-left="0"
     fit-margin-right="0"
     fit-margin-bottom="0"
     inkscape:zoom="19.666667"
     inkscape:cx="1.5300561"
     inkscape:cy="9.2504629"
     inkscape:window-x="0"
     inkscape:window-y="0"
     inkscape:window-maximized="0"
     inkscape:current-layer="svg12" />
  <g
     transform="matrix(-1,0,0,1,22.003875,-5.9997713)"
     id="g10"
     style="fill-rule:evenodd">
    <path
       d="M 10.972424,7.0039062 C 10.583956,7.0148783 10.237192,7.250373 10.083752,7.6074219 L 3.0837542,22.607422 c -0.2819476,0.658671 0.20149,1.391028 0.9179688,1.390625 h 7 C 11.552957,23.998115 11.999838,23.551234 11.99977,23 V 8 C 11.998981,7.4378843 11.534296,6.9873338 10.972424,7.0039062 Z"
       id="path2"
       inkscape:connector-curvature="0"
       style="fill:#0063b1" />
    <path
       d="m 22.003875,22.999529 c 3.06e-4,0.55349 -0.448463,1.002259 -1.001953,1.001953 h -7 c -0.55349,3.06e-4 -1.002259,-0.448463 -1.001953,-1.001953 l -0.0028,-15 c 4.03e-4,-1.037624 1.38463,-1.3897903 1.880859,-0.478516 l 7.0028,15 c 0.08034,0.146724 0.122642,0.311237 0.123047,0.478516 z"
       id="path4"
       inkscape:connector-curvature="0"
       style="fill:#3a3a38" />
    <path
       d="m 4.001587,23 h 7 V 8 Z"
       id="path6"
       inkscape:connector-curvature="0"
       style="fill:#83beec" />
    <path
       d="m 21.001587,23 h -7 l -0.0028,-15 z"
       id="path8"
       inkscape:connector-curvature="0"
       style="fill:#fafafa" />
  </g>
</svg>
