<?xml version="1.0" encoding="UTF-8" standalone="no"?>
<svg
   xmlns:dc="http://purl.org/dc/elements/1.1/"
   xmlns:cc="http://creativecommons.org/ns#"
   xmlns:rdf="http://www.w3.org/1999/02/22-rdf-syntax-ns#"
   xmlns:svg="http://www.w3.org/2000/svg"
   xmlns="http://www.w3.org/2000/svg"
   xmlns:sodipodi="http://sodipodi.sourceforge.net/DTD/sodipodi-0.dtd"
   xmlns:inkscape="http://www.inkscape.org/namespaces/inkscape"
   viewBox="0 0 24 24"
   version="1.1"
   id="svg10"
   sodipodi:docname="lc_save_modified.svg"
   inkscape:version="0.92.4 (5da689c313, 2019-01-14)">
  <metadata
     id="metadata16">
    <rdf:RDF>
      <cc:Work
         rdf:about="">
        <dc:format>image/svg+xml</dc:format>
        <dc:type
           rdf:resource="http://purl.org/dc/dcmitype/StillImage" />
        <dc:title></dc:title>
      </cc:Work>
    </rdf:RDF>
  </metadata>
  <defs
     id="defs14" />
  <sodipodi:namedview
     pagecolor="#ffffff"
     bordercolor="#666666"
     borderopacity="1"
     objecttolerance="10"
     gridtolerance="10"
     guidetolerance="10"
     inkscape:pageopacity="0"
     inkscape:pageshadow="2"
     inkscape:window-width="1920"
     inkscape:window-height="1009"
     id="namedview12"
     showgrid="false"
     inkscape:zoom="27.812867"
     inkscape:cx="4.4090836"
     inkscape:cy="12.28036"
     inkscape:window-x="0"
     inkscape:window-y="0"
     inkscape:window-maximized="1"
     inkscape:current-layer="svg10" />
  <rect
     fill="#922e98"
     height="20"
     rx="0"
     ry="1"
     width="20"
     x="2"
     y="2"
     id="rect2"
     style="fill:#3a3a38;fill-opacity:1" />
  <path
     d="m3 3h18v18h-18z"
     fill="#d492d8"
     id="path4"
     style="fill:#787774;fill-opacity:1" />
  <path
     d="m4 2c-.554 0-1 .446-1 1v8c0 .554.446 1 1 1h16c.554 0 1-.446 1-1v-8c0-.554-.446-1-1-1zm3 12c-.554 0-1 .446-1 1v6c0 .554.446 1 1 1h11c.554 0 1-.446 1-1v-6c0-.554-.446-1-1-1z"
     fill="#922e98"
     id="path6"
     style="fill:#3a3a38;fill-opacity:1" />
  <path
     d="m5 3c-.554 0-1 .446-1 1v6c0 .554.446 1 1 1h14c.554 0 1-.446 1-1v-6c0-.554-.446-1-1-1zm3 12c-.554 0-1 .446-1 1v4c0 .554.446 1 1 1h2v-5h2v5h5c.554 0 1-.446 1-1v-4c0-.554-.446-1-1-1z"
     fill="#fafafa"
     id="path8" />
</svg>
