<?xml version="1.0" encoding="UTF-8" standalone="no"?>
<svg
   xmlns:dc="http://purl.org/dc/elements/1.1/"
   xmlns:cc="http://creativecommons.org/ns#"
   xmlns:rdf="http://www.w3.org/1999/02/22-rdf-syntax-ns#"
   xmlns:svg="http://www.w3.org/2000/svg"
   xmlns="http://www.w3.org/2000/svg"
   xmlns:sodipodi="http://sodipodi.sourceforge.net/DTD/sodipodi-0.dtd"
   xmlns:inkscape="http://www.inkscape.org/namespaces/inkscape"
   viewBox="0 0 24 24"
   version="1.1"
   id="svg22"
   sodipodi:docname="lc_saveas_modified.svg"
   inkscape:version="0.92.4 (5da689c313, 2019-01-14)">
  <metadata
     id="metadata28">
    <rdf:RDF>
      <cc:Work
         rdf:about="">
        <dc:format>image/svg+xml</dc:format>
        <dc:type
           rdf:resource="http://purl.org/dc/dcmitype/StillImage" />
        <dc:title></dc:title>
      </cc:Work>
    </rdf:RDF>
  </metadata>
  <defs
     id="defs26" />
  <sodipodi:namedview
     pagecolor="#ffffff"
     bordercolor="#666666"
     borderopacity="1"
     objecttolerance="10"
     gridtolerance="10"
     guidetolerance="10"
     inkscape:pageopacity="0"
     inkscape:pageshadow="2"
     inkscape:window-width="1920"
     inkscape:window-height="1009"
     id="namedview24"
     showgrid="false"
     inkscape:zoom="27.812867"
     inkscape:cx="11.740546"
     inkscape:cy="10.316617"
     inkscape:window-x="0"
     inkscape:window-y="0"
     inkscape:window-maximized="1"
     inkscape:current-layer="svg22" />
  <path
     d="m3 2c-.554 0-1 .446-1 1v18c0 .554.446 1 1 1h7.216797l.763672-3.103516c.043441-.177395.134629-.339507.263672-.46875l5.529297-5.523437.007812-.007813.738281-.720703 1.669922-1.666015c.334923-.334515.788676-.509766 1.230469-.509766.441838 0 .894352.172138 1.232422.509766l.347656.347656v-7.857422c0-.554-.446-1-1-1zm19 14.230469-.238281.228515-.007813.00586-.740234.695312-4.808594 4.839844h4.794922c.554 0 1-.446 1-1z"
     fill="#922e98"
     id="path2"
     style="fill:#3a3a38;fill-opacity:1" />
  <path
     d="m3 3v18h7.462891l.517578-2.103516c.043441-.177395.134629-.339507.263672-.46875l5.529297-5.523437.007812-.007813.738281-.720703 1.669922-1.666015c.334923-.334515.788676-.509766 1.230469-.509766.19539 0 .391333.038717.580078.105469v-7.105469zm18 14.173828-3.800781 3.826172h3.800781z"
     fill="#d492d8"
     id="path4"
     style="fill:#787674;fill-opacity:1" />
  <path
     d="m4 2c-.554 0-1 .446-1 1v8c0 .554.446 1 1 1h13.695312l1.494141-1.490234c.334923-.334515.788676-.509766 1.230469-.509766.19539 0 .391333.038717.580078.105469v-7.105469c0-.554-.446-1-1-1zm3 12c-.554 0-1 .446-1 1v6c0 .554.446 1 1 1h3.216797l.763672-3.103516c.043441-.177395.134629-.339507.263672-.46875l4.43164-4.427734zm12 5.1875-2.794922 2.8125h1.794922c.554 0 1-.446 1-1z"
     fill="#922e98"
     id="path6"
     style="fill:#3a3a38;fill-opacity:1" />
  <path
     d="m5 3c-.554 0-1 .446-1 1v6c0 .554.446 1 1 1h13.697266l.492187-.490234c.225475-.225201.505547-.371306.798828-.447266.001399-.021741.011719-.040393.011719-.0625v-6c0-.554-.446-1-1-1zm3 12c-.554 0-1 .446-1 1v4c0 .554.446 1 1 1h2v-5h2v1.671875l2.675781-2.671875zm9.951172 5.242188-.703125.708984c.350851-.091286.613784-.357336.703125-.708984z"
     fill="#fafafa"
     id="path8" />
  <g
     fill="#fb983b"
     transform="translate(-1 -1)"
     id="g20">
    <path
       d="m20.419922 11c-.189562 0-.378184.07172-.523438.216797l-1.673828 1.669922 2.847656 2.849609 1.710938-1.638672c.290506-.290127.290506-.756747 0-1.046875l-1.835938-1.833984c-.145254-.145064-.335828-.216797-.52539-.216797zm0 .990234 1.582031 1.580078-.917969.88086-1.5625-1.5625z"
       fill="#0063b1"
       transform="translate(1 1)"
       id="path10" />
    <path
       d="m21.419922 12.990234-.898438.898438 1.5625 1.5625.917969-.88086z"
       fill="#83beec"
       id="path12" />
    <g
       transform="translate(1 1)"
       id="g18">
      <path
         d="m12.708984 18.376953-.002-.002-.706984.707078.002.002-.05078.05078-.95122 3.865189 3.806641-1.011719 6.24414-6.271484-2.828125-2.830078zm5.511719-4.191406 1.53125 1.533203-4.841797 4.861328-1.550781-1.552734zm-5.509765 5.708984 1.34375 1.341797-1.791016.476563z"
         fill="#0063b1"
         id="path14" />
      <path
         d="m18.220703 14.185547 1.53125 1.533203-4.841797 4.861328-1.550781-1.552734zm-5.509765 5.708984 1.34375 1.341797-1.791016.476563z"
         fill="#83beec"
         id="path16" />
    </g>
  </g>
</svg>
