<?xml version="1.0" encoding="UTF-8" standalone="no"?>
<svg
   xmlns:dc="http://purl.org/dc/elements/1.1/"
   xmlns:cc="http://creativecommons.org/ns#"
   xmlns:rdf="http://www.w3.org/1999/02/22-rdf-syntax-ns#"
   xmlns:svg="http://www.w3.org/2000/svg"
   xmlns="http://www.w3.org/2000/svg"
   xmlns:sodipodi="http://sodipodi.sourceforge.net/DTD/sodipodi-0.dtd"
   xmlns:inkscape="http://www.inkscape.org/namespaces/inkscape"
   viewBox="0 0 23.389736 23.389778"
   version="1.1"
   id="svg12"
   sodipodi:docname="lc_zoompanning_modified.svg"
   width="23.389736"
   height="23.389778"
   inkscape:version="0.92.4 (5da689c313, 2019-01-14)">
  <metadata
     id="metadata18">
    <rdf:RDF>
      <cc:Work
         rdf:about="">
        <dc:format>image/svg+xml</dc:format>
        <dc:type
           rdf:resource="http://purl.org/dc/dcmitype/StillImage" />
        <dc:title></dc:title>
      </cc:Work>
    </rdf:RDF>
  </metadata>
  <defs
     id="defs16" />
  <sodipodi:namedview
     pagecolor="#ffffff"
     bordercolor="#666666"
     borderopacity="1"
     objecttolerance="10"
     gridtolerance="10"
     guidetolerance="10"
     inkscape:pageopacity="0"
     inkscape:pageshadow="2"
     inkscape:window-width="1920"
     inkscape:window-height="1009"
     id="namedview14"
     showgrid="false"
     fit-margin-top="0"
     fit-margin-left="0"
     fit-margin-right="0"
     fit-margin-bottom="0"
     inkscape:zoom="22.627417"
     inkscape:cx="20.890213"
     inkscape:cy="9.762667"
     inkscape:window-x="0"
     inkscape:window-y="0"
     inkscape:window-maximized="1"
     inkscape:current-layer="svg12" />
  <path
     style="fill:#1e8bcd;stroke:#1e8ace;stroke-width:0.40000001;stroke-miterlimit:4;stroke-dasharray:none;stroke-opacity:1"
     inkscape:connector-curvature="0"
     id="path8-5"
     d="m 4.6890089,7.1938455 c 0.127809,0 0.255581,0.04855 0.3535159,0.146484 0.195868,0.19587 0.195868,0.513116 0,0.708985 L 1.9018999,11.189939 H 12.694868 c 0.277,0 0.5,0.223 0.5,0.5 v 0.002 h -0.0059 v 0.002 c 0,0.277 -0.223,0.5 -0.5,0.5 H 1.8960399 l 3.1406249,3.140625 c 0.195868,0.195869 0.195868,0.513116 0,0.708984 -0.09793,0.09793 -0.2257059,0.146485 -0.3535149,0.146485 -0.127808,0 -0.257539,-0.04855 -0.355469,-0.146485 L 0.33549294,12.047455 c -0.04702,-0.04701 -0.08408,-0.103236 -0.109375,-0.166016 -0.03575,-0.08106 -0.03508,-0.300558 0.0059,-0.379 0.0253,-0.06278 0.06236,-0.119003 0.109375,-0.166016 L 4.3335799,7.3403295 c 0.09793,-0.09793 0.227661,-0.146484 0.355469,-0.146484 z"
     sodipodi:nodetypes="scccssccssccssccccccs" />
  <path
     style="fill:#1e8bcd;stroke:#1e8ace;stroke-width:0.40000001;stroke-miterlimit:4;stroke-dasharray:none;stroke-opacity:1"
     inkscape:connector-curvature="0"
     id="path8-7"
     d="m 7.1938439,18.700769 c 0,-0.127809 0.04855,-0.255581 0.146484,-0.353516 0.19587,-0.195868 0.513116,-0.195868 0.708985,0 l 3.1406251,3.140625 V 10.69491 c 0,-0.277 0.223,-0.5 0.5,-0.5 h 0.002 v 0.0059 h 0.002 c 0.277,0 0.5,0.223 0.5,0.5 v 10.792928 l 3.140625,-3.140625 c 0.195869,-0.195868 0.513116,-0.195868 0.708984,0 0.09793,0.09793 0.146485,0.225706 0.146485,0.353515 0,0.127808 -0.04855,0.257539 -0.146485,0.355469 l -3.996093,3.992188 c -0.04701,0.04702 -0.103236,0.08408 -0.166016,0.109375 -0.08106,0.03575 -0.300558,0.03508 -0.379,-0.0059 -0.06278,-0.0253 -0.119003,-0.06236 -0.166016,-0.109375 L 7.3403279,19.056198 c -0.09793,-0.09793 -0.146484,-0.227661 -0.146484,-0.355469 z"
     sodipodi:nodetypes="scccssccssccssccccccs" />
  <path
     style="fill:#1e8bcd;stroke:#1e8ace;stroke-width:0.40000001;stroke-miterlimit:4;stroke-dasharray:none;stroke-opacity:1"
     inkscape:connector-curvature="0"
     id="path8-6"
     d="m 18.700728,16.189986 c -0.127809,0 -0.255581,-0.04855 -0.353516,-0.146484 -0.195868,-0.19587 -0.195868,-0.513116 0,-0.708985 l 3.140625,-3.140625 H 10.694869 c -0.277,0 -0.5,-0.223 -0.5,-0.5 v -0.002 h 0.0059 v -0.002 c 0,-0.277 0.223,-0.5 0.5,-0.5 H 21.493697 L 18.353072,8.0492675 c -0.195868,-0.195869 -0.195868,-0.513116 0,-0.708984 0.09793,-0.09793 0.225706,-0.146485 0.353515,-0.146485 0.127808,0 0.257539,0.04855 0.355469,0.146485 l 3.992188,3.9960925 c 0.04702,0.04701 0.08408,0.103236 0.109375,0.166016 0.03575,0.08106 0.03508,0.300558 -0.0059,0.379 -0.0253,0.06278 -0.06236,0.119003 -0.109375,0.166016 l -3.992187,3.996094 c -0.09793,0.09793 -0.227661,0.146484 -0.355469,0.146484 z"
     sodipodi:nodetypes="scccssccssccssccccccs" />
  <path
     style="fill:#1e8bcd;stroke:#1e8ace;stroke-width:0.40000001;stroke-miterlimit:4;stroke-dasharray:none;stroke-opacity:1"
     inkscape:connector-curvature="0"
     id="path8"
     d="m 16.190032,4.6890105 c 0,0.127809 -0.04855,0.255581 -0.146484,0.353516 -0.19587,0.195868 -0.513116,0.195868 -0.708985,0 L 12.193938,1.9019015 V 12.694869 c 0,0.277 -0.223,0.5 -0.5,0.5 h -0.002 v -0.0059 h -0.002 c -0.277,0 -0.5,-0.223 -0.5,-0.5 V 1.8960415 l -3.1406251,3.140625 c -0.195869,0.195868 -0.513116,0.195868 -0.708984,0 -0.09793,-0.09793 -0.146485,-0.225706 -0.146485,-0.353515 0,-0.127808 0.04855,-0.257539 0.146485,-0.355469 L 11.336422,0.33549449 c 0.04701,-0.04702 0.103236,-0.08408 0.166016,-0.109375 0.08106,-0.0357476 0.300558,-0.0350795 0.379,0.00586 0.06278,0.0253 0.119003,0.06236 0.166016,0.109375 l 3.996094,3.99218701 c 0.09793,0.09793 0.146484,0.227661 0.146484,0.355469 z"
     sodipodi:nodetypes="scccssccssccssccccccs" />
</svg>
