<?xml version="1.0" encoding="UTF-8"?>
<svg width="400" height="400" version="1.1" viewBox="0 0 116.42 116.42" xmlns="http://www.w3.org/2000/svg" xmlns:cc="http://creativecommons.org/ns#" xmlns:dc="http://purl.org/dc/elements/1.1/" xmlns:rdf="http://www.w3.org/1999/02/22-rdf-syntax-ns#"><metadata><rdf:RDF><cc:Work rdf:about=""><dc:format>image/svg+xml</dc:format><dc:type rdf:resource="http://purl.org/dc/dcmitype/StillImage"/><dc:title/></cc:Work></rdf:RDF></metadata><g transform="translate(-198.94 -450.52)"><g transform="matrix(1.6109 0 0 1.6109 -123.56 -344.34)" fill="#e6e6e6"><path transform="matrix(.29104 0 0 .29104 202.22 494.63)" d="m129.27 1.3672c-18.605 16.831-34.284 41.423-27.268 66.652 13.39 48.146 47.28 44.711 90.518 142.83a118.2 118.15 0 0 0 43.959-91.877 118.2 118.15 0 0 0-107.21-117.6z" style="paint-order:fill markers stroke"/><path transform="matrix(.29104 0 0 .29104 202.22 494.63)" d="m171.8 224.31c-30.363-80.427-61.298-95.822-76.959-122.95v133.41a118.2 118.15 0 0 0 23.443 2.3496 118.2 118.15 0 0 0 53.516-12.811z" style="paint-order:fill markers stroke"/><path transform="matrix(.29104 0 0 .29104 202.22 494.63)" d="m80.42 230.77v-163.17c0.010537-28.189 7.5618-47.728 23.803-65.795a118.2 118.15 0 0 0-104.13 117.17 118.2 118.15 0 0 0 80.328 111.8z" style="paint-order:fill markers stroke"/></g></g></svg>
