<?xml version="1.0" encoding="UTF-8" standalone="no"?>
<svg
   xmlns:dc="http://purl.org/dc/elements/1.1/"
   xmlns:cc="http://creativecommons.org/ns#"
   xmlns:rdf="http://www.w3.org/1999/02/22-rdf-syntax-ns#"
   xmlns:svg="http://www.w3.org/2000/svg"
   xmlns="http://www.w3.org/2000/svg"
   id="svg8"
   version="1.1"
   width="32"
   height="32">
  <metadata
     id="metadata14">
    <rdf:RDF>
      <cc:Work
         rdf:about="">
        <dc:format>image/svg+xml</dc:format>
        <dc:type
           rdf:resource="http://purl.org/dc/dcmitype/StillImage" />
        <dc:title></dc:title>
      </cc:Work>
    </rdf:RDF>
  </metadata>
  <defs
     id="defs12" />
  <circle
     id="circle2"
     r="13"
     fill="#0063b1"
     cy="16"
     cx="16" />
  <path
     style="fill:#5caae7;fill-opacity:1"
     id="path4"
     fill="#83beec"
     d="m28 16a12 12 0 0 1 -12 12 12 12 0 0 1 -12-12 12 12 0 0 1 12-12 12 12 0 0 1 12 12z" />
  <path
     id="path6"
     fill="#fafafa"
     d="m17.64092 7.0019531c-1.550397-.085042-2.360227 2.5001408-.886894 3.2070309 1.195304.506672 2.496425-.7611987 2.204418-2.0273434-.090621-.6592922-.663724-1.2018651-1.317524-1.1796875zm-.664744 5.6855469c-.249696-.0212-.542459.07136-.859552.318359-1.519556.684048-2.789931 1.80118-4.116624 2.802735.166504.467839.354396.846655.753603.328125.494929-.304362 2.153332-1.638824 1.987395-.332031-.530993 2.41814-1.17706 4.810737-1.671257 7.236328-.516753 1.328119.65799 2.531651 1.883155 1.667968 1.30227-.554883 2.421553-1.459952 3.566373-2.289062-.156204-.395946-.260481-.965074-.692085-.447266-.566719.265868-1.805288 1.520158-2.035242.486328.476035-2.61841 1.358674-5.138797 1.922458-7.736328.389121-.895755.01088-1.971539-.738224-2.035156z" />
  <text
     id="text823"
     y="13.966102"
     x="22.644068"
     style="font-style:normal;font-weight:normal;font-size:40px;line-height:1.25;font-family:sans-serif;letter-spacing:0px;word-spacing:0px;fill:#000000;fill-opacity:1;stroke:none"
     xml:space="preserve"><tspan
       y="50.361111"
       x="22.644068"
       id="tspan821" /></text>
</svg>
