<?xml version="1.0" encoding="UTF-8" standalone="no"?>
<svg
   xmlns:dc="http://purl.org/dc/elements/1.1/"
   xmlns:cc="http://creativecommons.org/ns#"
   xmlns:rdf="http://www.w3.org/1999/02/22-rdf-syntax-ns#"
   xmlns:svg="http://www.w3.org/2000/svg"
   xmlns="http://www.w3.org/2000/svg"
   id="svg10"
   version="1.1"
   viewBox="0 0 24 24">
  <metadata
     id="metadata16">
    <rdf:RDF>
      <cc:Work
         rdf:about="">
        <dc:format>image/svg+xml</dc:format>
        <dc:type
           rdf:resource="http://purl.org/dc/dcmitype/StillImage" />
        <dc:title></dc:title>
      </cc:Work>
    </rdf:RDF>
  </metadata>
  <defs
     id="defs14" />
  <rect
     fill="#922e98"
     style="fill:#3a3a38;fill-opacity:1"
     id="rect2"
     y="2"
     x="2"
     width="20"
     ry="1"
     rx="0"
     height="20" />
  <path
     style="fill:#787774;fill-opacity:1"
     id="path4"
     fill="#d492d8"
     d="m3 3h18v18h-18z" />
  <path
     fill="#922e98"
     style="fill:#3a3a38;fill-opacity:1"
     id="path6"
     d="m4 2c-.554 0-1 .446-1 1v8c0 .554.446 1 1 1h16c.554 0 1-.446 1-1v-8c0-.554-.446-1-1-1zm3 12c-.554 0-1 .446-1 1v6c0 .554.446 1 1 1h11c.554 0 1-.446 1-1v-6c0-.554-.446-1-1-1z" />
  <path
     fill="#fafafa"
     id="path8"
     d="m5 3c-.554 0-1 .446-1 1v6c0 .554.446 1 1 1h14c.554 0 1-.446 1-1v-6c0-.554-.446-1-1-1zm3 12c-.554 0-1 .446-1 1v4c0 .554.446 1 1 1h2v-5h2v5h5c.554 0 1-.446 1-1v-4c0-.554-.446-1-1-1z" />
</svg>
