<?xml version="1.0" encoding="UTF-8"?>
<svg version="1.1" viewBox="0 0 24 24" xmlns="http://www.w3.org/2000/svg" xmlns:cc="http://creativecommons.org/ns#" xmlns:dc="http://purl.org/dc/elements/1.1/" xmlns:rdf="http://www.w3.org/1999/02/22-rdf-syntax-ns#"><metadata><rdf:RDF><cc:Work rdf:about=""><dc:format>image/svg+xml</dc:format><dc:type rdf:resource="http://purl.org/dc/dcmitype/StillImage"/><dc:title/></cc:Work></rdf:RDF></metadata><path d="m3 2c-0.554 0-1 0.446-1 1v18c0 0.554 0.446 1 1 1h7.2168l0.76367-3.1035c0.043441-0.1774 0.13463-0.33951 0.26367-0.46875l5.5293-5.5234 0.007812-0.007813 0.73828-0.7207 1.6699-1.666c0.33492-0.33452 0.78868-0.50977 1.2305-0.50977 0.44184 0 0.89435 0.17214 1.2324 0.50977l0.34766 0.34766v-7.8574c0-0.554-0.446-1-1-1zm19 14.23-0.23828 0.22852-0.007813 0.00586-0.74023 0.69531-4.8086 4.8398h4.7949c0.554 0 1-0.446 1-1z" fill="#3a3a38"/><path d="m3 3v18h7.4629l0.51758-2.1035c0.043441-0.1774 0.13463-0.33951 0.26367-0.46875l5.5293-5.5234 0.007812-0.007813 0.73828-0.7207 1.6699-1.666c0.33492-0.33452 0.78868-0.50977 1.2305-0.50977 0.19539 0 0.39133 0.038717 0.58008 0.10547v-7.1055zm18 14.174-3.8008 3.8262h3.8008z" fill="#787674"/><path d="m4 2c-.554 0-1 .446-1 1v8c0 .554.446 1 1 1h13.695312l1.494141-1.490234c.334923-.334515.788676-.509766 1.230469-.509766.19539 0 .391333.038717.580078.105469v-7.105469c0-.554-.446-1-1-1zm3 12c-.554 0-1 .446-1 1v6c0 .554.446 1 1 1h3.216797l.763672-3.103516c.043441-.177395.134629-.339507.263672-.46875l4.43164-4.427734zm12 5.1875-2.794922 2.8125h1.794922c.554 0 1-.446 1-1z" fill="#3a3a38"/><path d="m5 3c-.554 0-1 .446-1 1v6c0 .554.446 1 1 1h13.697266l.492187-.490234c.225475-.225201.505547-.371306.798828-.447266.001399-.021741.011719-.040393.011719-.0625v-6c0-.554-.446-1-1-1zm3 12c-.554 0-1 .446-1 1v4c0 .554.446 1 1 1h2v-5h2v1.671875l2.675781-2.671875zm9.951172 5.242188-.703125.708984c.350851-.091286.613784-.357336.703125-.708984z" fill="#fafafa"/><g transform="translate(-1 -1)" fill="#fb983b"><path transform="translate(1 1)" d="m20.42 11c-0.18956 0-0.37818 0.07172-0.52344 0.2168l-1.6738 1.6699 2.8477 2.8496 1.7109-1.6387c0.29051-0.29013 0.29051-0.75675 0-1.0469l-1.8359-1.834c-0.14525-0.14506-0.33583-0.2168-0.52539-0.2168zm0 0.99023 1.582 1.5801-0.91797 0.88086-1.5625-1.5625z" fill="#0063b1"/><path d="m21.42 12.99-0.89844 0.89844 1.5625 1.5625 0.91797-0.88086z" fill="#83beec"/><g transform="translate(1 1)"><path d="m12.709 18.377-2e-3 -2e-3 -0.70698 0.70708 2e-3 2e-3 -0.05078 0.05078-0.95122 3.8652 3.8066-1.0117 6.2441-6.2715-2.8281-2.8301zm5.5117-4.1914 1.5312 1.5332-4.8418 4.8613-1.5508-1.5527zm-5.5098 5.709 1.3438 1.3418-1.791 0.47656z" fill="#0063b1"/><path d="m18.221 14.186 1.5312 1.5332-4.8418 4.8613-1.5508-1.5527zm-5.5098 5.709 1.3438 1.3418-1.791 0.47656z" fill="#83beec"/></g></g></svg>
