<?xml version="1.0" encoding="UTF-8"?>
<svg version="1.1" viewBox="0 0 24 24" xmlns="http://www.w3.org/2000/svg" xmlns:cc="http://creativecommons.org/ns#" xmlns:dc="http://purl.org/dc/elements/1.1/" xmlns:rdf="http://www.w3.org/1999/02/22-rdf-syntax-ns#"><metadata><rdf:RDF><cc:Work rdf:about=""><dc:format>image/svg+xml</dc:format><dc:type rdf:resource="http://purl.org/dc/dcmitype/StillImage"/><dc:title/></cc:Work></rdf:RDF></metadata><g fill-rule="evenodd"><path d="m7 4 4 3h9v10.666l-18 0.33398v-14z" fill="#fafafa"/><path d="m2 3c-0.55226 5.52e-5 -0.99994 0.44774-1 1v17h1v-17h5l4 3h9v14h1v-14c-5.6e-5 -0.55226-0.44774-0.99994-1-1h-8.5859l-3.707-2.707c-0.18751-0.18754-0.44183-0.29292-0.70703-0.29297z" fill="#ed8733"/><path d="m1 21h20l2.7012-11.008c0.29785-0.99285 0.2949-0.90893-0.74414-0.99219h-17.936c-1.0212 0-1.0208-5.516e-4 -1.2793 0.99023l-1.7422 7.6758z" fill="#ed8733"/><path d="m5.0215 10c-0.12717 0-0.16092 0.0022-0.24414 0.0039-0.019925 0.0703-0.033137 0.10283-0.060547 0.20703l-0.00391 0.01953c-0.0016 0.0061-0.00228 0.0055-0.00391 0.01172l-1.7344 7.6445a1.0001 1.0001 0 0 1-0.017578 0.06641l-0.61327 2.0469h17.871l2.4551-10h-2.6699z" fill="#f8db8f"/></g></svg>
