<?xml version="1.0" encoding="UTF-8" standalone="no"?>
<!-- Created with Inkscape (http://www.inkscape.org/) -->

<svg
   xmlns:dc="http://purl.org/dc/elements/1.1/"
   xmlns:cc="http://creativecommons.org/ns#"
   xmlns:rdf="http://www.w3.org/1999/02/22-rdf-syntax-ns#"
   xmlns:svg="http://www.w3.org/2000/svg"
   xmlns="http://www.w3.org/2000/svg"
   xmlns:sodipodi="http://sodipodi.sourceforge.net/DTD/sodipodi-0.dtd"
   xmlns:inkscape="http://www.inkscape.org/namespaces/inkscape"
   width="66.545021mm"
   height="66.46347mm"
   viewBox="0 0 73.199525 73.109821"
   version="1.1"
   id="svg8"
   inkscape:version="0.92.4 (5da689c313, 2019-01-14)"
   sodipodi:docname="logo.svg"
   inkscape:export-filename="C:\Users\s\Desktop\logo-32.png"
   inkscape:export-xdpi="52.026894"
   inkscape:export-ydpi="52.026894">
  <defs
     id="defs2" />
  <sodipodi:namedview
     id="base"
     pagecolor="#ffffff"
     bordercolor="#666666"
     borderopacity="1.0"
     inkscape:pageopacity="0.0"
     inkscape:pageshadow="2"
     inkscape:zoom="2"
     inkscape:cx="146.05701"
     inkscape:cy="154.95812"
     inkscape:document-units="mm"
     inkscape:current-layer="layer1"
     showgrid="true"
     inkscape:window-width="1920"
     inkscape:window-height="1009"
     inkscape:window-x="0"
     inkscape:window-y="0"
     inkscape:window-maximized="1"
     fit-margin-top="2"
     fit-margin-left="2"
     fit-margin-right="2"
     fit-margin-bottom="2"
     showguides="false"
     inkscape:snap-global="true"
     scale-x="1.1">
    <inkscape:grid
       type="xygrid"
       id="grid34"
       originx="-236.81683"
       originy="269.89625" />
  </sodipodi:namedview>
  <metadata
     id="metadata5">
    <rdf:RDF>
      <cc:Work
         rdf:about="">
        <dc:format>image/svg+xml</dc:format>
        <dc:type
           rdf:resource="http://purl.org/dc/dcmitype/StillImage" />
        <dc:title></dc:title>
      </cc:Work>
    </rdf:RDF>
  </metadata>
  <g
     inkscape:label="Layer 1"
     inkscape:groupmode="layer"
     id="layer1"
     transform="translate(-200.04252,-492.72808)">
    <path
       style="fill:#2048aa;fill-opacity:1;stroke:none;stroke-width:3.25092864;stroke-miterlimit:4;stroke-dasharray:none;stroke-opacity:1;paint-order:fill markers stroke"
       d="M 129.27344,1.3671875 C 110.66833,18.198148 94.989128,42.790015 102.00586,68.019531 115.3961,116.16593 149.28619,112.73007 192.52344,210.84766 A 118.1955,118.15214 0 0 0 236.48242,118.9707 118.1955,118.15214 0 0 0 129.27344,1.3671875 Z"
       transform="matrix(0.29104168,0,0,0.29104168,202.2158,494.62521)"
       id="path4639"
       inkscape:connector-curvature="0" />
    <path
       style="fill:#2048aa;fill-opacity:1;stroke:none;stroke-width:3.25092864;stroke-miterlimit:4;stroke-dasharray:none;stroke-opacity:1;paint-order:fill markers stroke"
       d="M 171.80273,224.3125 C 141.43975,143.88525 110.5045,128.49043 94.84375,101.36523 v 133.40821 a 118.1955,118.15214 0 0 0 23.44336,2.34961 118.1955,118.15214 0 0 0 53.51562,-12.81055 z"
       transform="matrix(0.29104168,0,0,0.29104168,202.2158,494.62521)"
       id="path4635"
       inkscape:connector-curvature="0" />
    <path
       style="fill:#2048aa;fill-opacity:1;stroke:none;stroke-width:3.25092864;stroke-miterlimit:4;stroke-dasharray:none;stroke-opacity:1;paint-order:fill markers stroke"
       d="M 80.419922,230.77344 V 67.599609 C 80.430459,39.410167 87.981757,19.871867 104.22266,1.8046875 A 118.1955,118.15214 0 0 0 0.09179687,118.9707 118.1955,118.15214 0 0 0 80.419922,230.77344 Z"
       transform="matrix(0.29104168,0,0,0.29104168,202.2158,494.62521)"
       id="path824-1-5-4-1-6-3-6"
       inkscape:connector-curvature="0" />
    <path
       style="fill:#aeceff;fill-opacity:1;stroke:none;stroke-width:0.96399999;stroke-linecap:butt;stroke-linejoin:miter;stroke-miterlimit:4;stroke-dasharray:none;stroke-opacity:1"
       d="m 129.10185,488.9471 c -7.25846,6.35814 -10.57955,12.63861 -10.58332,22.72461 v 52.68154 l 4.19799,0.0227 v -42.87696 c 4.94771,8.56968 15.13416,13.09688 24.65916,42.20104 h 7.9375 c -14.55208,-39.29062 -26.19375,-36.3802 -30.51173,-51.90608 -2.11723,-7.61276 2.86278,-15.0335 8.53374,-19.93646 z"
       id="path827-0-8-9-6"
       inkscape:connector-curvature="0"
       sodipodi:nodetypes="cccccccscc" />
    <ellipse
       style="fill:#c5c5c5;fill-opacity:1;stroke:none;stroke-width:0.94615573;stroke-miterlimit:4;stroke-dasharray:none;stroke-opacity:1;paint-order:fill markers stroke"
       id="path824-1-5-4-1-6-3-6-7"
       cx="238.83005"
       cy="435.48172"
       rx="34.399818"
       ry="34.387196" />
    <path
       style="fill:#aeceff;fill-opacity:1;stroke:none;stroke-width:0.96399999;stroke-linecap:butt;stroke-linejoin:miter;stroke-miterlimit:4;stroke-dasharray:none;stroke-opacity:1"
       d="m 238.39235,397.80627 c -7.25846,6.35814 -10.57955,12.63861 -10.58332,22.72461 v 52.68154 l 4.19799,0.0227 v -42.87696 c 4.94771,8.56968 15.13416,13.09688 24.65916,42.20104 h 7.9375 c -14.55208,-39.29062 -26.19375,-36.3802 -30.51173,-51.90608 -2.11723,-7.61276 2.86278,-15.0335 8.53374,-19.93646 z"
       id="path827-0-8-9-6-3-5"
       inkscape:connector-curvature="0"
       sodipodi:nodetypes="cccccccscc" />
    <path
       style="fill:#ffffff;fill-opacity:1;stroke:none;stroke-width:6.68132401;stroke-linecap:round;stroke-linejoin:miter;stroke-miterlimit:4;stroke-dasharray:none;stroke-opacity:1;paint-order:normal"
       d="m 90.921639,233.71635 c -1.847317,-0.47595 -4.91334,-1.34437 -6.813386,-1.92983 l -3.454629,-1.06447 0.113812,-87.58023 c 0.104762,-80.61611 0.162186,-87.912972 0.722149,-91.764664 2.00375,-13.782731 5.8066,-24.888352 11.94578,-34.885757 4.127576,-6.7215908 10.017285,-14.1456524 11.559145,-14.5704699 2.10085,-0.578832 12.94473,-1.06209593 18.25147,-0.8133874 l 5.52229,0.2588103 -4.51602,4.6592134 c -15.283,15.7676176 -23.14435,31.2965776 -24.00311,47.4146956 -0.276627,5.192037 0.40546,10.353259 2.16358,16.371491 4.24899,14.544727 10.85379,25.638462 24.03706,40.373828 11.8456,13.2402 14.06864,15.77057 18.05957,20.55628 14.55932,17.45875 27.57027,37.92332 39.25014,61.7355 3.26386,6.65415 4.78379,9.89444 7.7716,16.56799 l 0.81007,1.80936 -3.06844,2.30876 c -4.0751,3.06619 -10.47234,7.21412 -14.29276,9.26733 -2.80892,1.50959 -3.11453,1.6024 -3.33184,1.01179 -3.68795,-10.02319 -10.50034,-25.53656 -16.03188,-36.50825 -11.60163,-23.01157 -21.54572,-37.58232 -41.44307,-60.72512 -10.89677,-12.67415 -14.05895,-16.75259 -18.899711,-24.37601 -0.326727,-0.51454 -0.425811,14.29836 -0.441941,66.06996 -0.01144,36.70326 -0.140116,66.7209 -0.285957,66.70587 -0.145841,-0.015 -1.776606,-0.41675 -3.623922,-0.89269 z"
       id="path4643"
       inkscape:connector-curvature="0"
       transform="matrix(0.29104168,0,0,0.29104168,202.2158,494.62521)" />
  </g>
</svg>
