<?xml version="1.0" encoding="UTF-8"?>
<svg width="19.002" height="19.002" version="1.1" viewBox="0 0 19.002 19.002" xmlns="http://www.w3.org/2000/svg" xmlns:cc="http://creativecommons.org/ns#" xmlns:dc="http://purl.org/dc/elements/1.1/" xmlns:rdf="http://www.w3.org/1999/02/22-rdf-syntax-ns#"><metadata><rdf:RDF><cc:Work rdf:about=""><dc:format>image/svg+xml</dc:format><dc:type rdf:resource="http://purl.org/dc/dcmitype/StillImage"/><dc:title/></cc:Work></rdf:RDF></metadata><g transform="matrix(-1 0 0 1 22.004 -5.9998)" fill-rule="evenodd"><path d="m10.972 7.0039c-0.38847 0.010972-0.73523 0.24647-0.88867 0.60352l-7 15c-0.28195 0.65867 0.20149 1.391 0.91797 1.3906h7c0.55123 6.8e-5 0.99812-0.44681 0.99805-0.99805v-15c-7.89e-4 -0.56212-0.46547-1.0127-1.0273-0.99609z" fill="#0063b1"/><path d="m22.004 23c3.06e-4 0.55349-0.44846 1.0023-1.002 1.002h-7c-0.55349 3.06e-4 -1.0023-0.44846-1.002-1.002l-0.0028-15c4.03e-4 -1.0376 1.3846-1.3898 1.8809-0.47852l7.0028 15c0.08034 0.14672 0.12264 0.31124 0.12305 0.47852z" fill="#3a3a38"/><path d="m4.0016 23h7v-15z" fill="#83beec"/><path d="m21.002 23h-7l-0.0028-15z" fill="#fafafa"/></g></svg>
