<svg width="2189" height="1762" xmlns="http://www.w3.org/2000/svg" xmlns:xlink="http://www.w3.org/1999/xlink" overflow="hidden"><defs><clipPath id="clip0"><rect x="242" y="476" width="2189" height="1762"/></clipPath></defs><g clip-path="url(#clip0)" transform="translate(-242 -476)"><path d="M2266.07 1527.05C2266.91 1527.05 2267.65 1527.15 2268.28 1527.34 2268.92 1527.52 2269.48 1527.81 2269.96 1528.21 2270.45 1528.6 2270.88 1529.1 2271.26 1529.73 2271.64 1530.35 2272 1531.19 2272.36 1532.26 2272.71 1533.33 2273.04 1534.65 2273.35 1536.23 2273.66 1537.81 2273.94 1539.45 2274.18 1541.15L2274.58 1541.15C2277.18 1537.51 2279.14 1534.84 2280.48 1533.15 2281.82 1531.46 2282.95 1530.21 2283.87 1529.38 2284.78 1528.56 2285.67 1527.98 2286.52 1527.64 2287.37 1527.3 2288.5 1527.13 2289.9 1527.13 2291.17 1527.13 2292.21 1527.29 2293.02 1527.62L2291.4 1534.95 2288.57 1534.95C2288.4 1533.82 2287.93 1533.25 2287.15 1533.25 2286.9 1533.25 2286.65 1533.29 2286.38 1533.37 2286.11 1533.45 2285.78 1533.63 2285.39 1533.9 2284.99 1534.17 2284.42 1534.7 2283.66 1535.48 2282.91 1536.26 2282.05 1537.22 2281.11 1538.36 2280.16 1539.49 2279.19 1540.68 2278.19 1541.92L2275.44 1545.37C2275.92 1547.96 2276.38 1550.21 2276.81 1552.1 2277.25 1553.99 2277.63 1555.56 2277.97 1556.82 2278.31 1558.08 2278.6 1559.07 2278.86 1559.8 2279.12 1560.53 2279.39 1561.07 2279.69 1561.44 2279.99 1561.8 2280.29 1562.06 2280.6 1562.21 2280.91 1562.36 2281.27 1562.43 2281.68 1562.43 2282.41 1562.43 2283.12 1562.15 2283.8 1561.58 2284.49 1561.01 2285.49 1559.73 2286.78 1557.73L2289.42 1559.47C2287.53 1562.28 2285.82 1564.26 2284.29 1565.41 2282.76 1566.56 2280.95 1567.13 2278.84 1567.13 2277.68 1567.13 2276.69 1566.92 2275.88 1566.5 2275.07 1566.09 2274.37 1565.42 2273.77 1564.5 2273.18 1563.58 2272.65 1562.15 2272.19 1560.2 2271.36 1556.74 2270.84 1554.1 2270.65 1552.26L2270.25 1552.26C2267.38 1556.29 2265.26 1559.18 2263.86 1560.93 2262.47 1562.69 2261.33 1563.99 2260.42 1564.82 2259.52 1565.66 2258.64 1566.25 2257.79 1566.59 2256.93 1566.92 2255.81 1567.09 2254.4 1567.09 2253.13 1567.09 2252.09 1566.93 2251.28 1566.61L2252.9 1559.27 2255.74 1559.27C2255.9 1560.41 2256.37 1560.97 2257.16 1560.97 2257.54 1560.97 2257.93 1560.87 2258.35 1560.67 2258.77 1560.47 2259.37 1559.98 2260.16 1559.21 2260.94 1558.44 2262.02 1557.23 2263.4 1555.58 2264.78 1553.93 2266.78 1551.46 2269.4 1548.17 2268.99 1546.03 2268.57 1543.98 2268.14 1542.01 2267.71 1540.03 2267.26 1538.2 2266.8 1536.49 2266.34 1534.79 2265.97 1533.68 2265.67 1533.15 2265.37 1532.62 2265.05 1532.26 2264.72 1532.06 2264.38 1531.85 2263.95 1531.75 2263.44 1531.75 2262.87 1531.75 2262.36 1531.88 2261.9 1532.14 2261.44 1532.39 2260.94 1532.84 2260.4 1533.47 2259.86 1534.11 2259.14 1535.1 2258.25 1536.45L2255.62 1534.71C2257.32 1532.14 2258.95 1530.23 2260.52 1528.96 2262.09 1527.69 2263.94 1527.05 2266.07 1527.05Z" fill-rule="evenodd"/><text fill="#000000" fill-opacity="0" font-family="Arial,Arial_MSFontService,sans-serif" font-size="40.0815" x="2251.28" y="1562.12">𝑥</text><path d="M0 0 0.000360892 389.405" stroke="#000000" stroke-width="4.58333" stroke-miterlimit="8" fill="none" fill-rule="evenodd" transform="matrix(1 0 0 -1 454.5 1780.91)"/><path d="M454.5 1330.5 454.5 1573.06" stroke="#000000" stroke-width="9.16667" stroke-miterlimit="8" fill="none" fill-rule="evenodd"/><path d="M399.5 1337.5 454.5 1392.5" stroke="#000000" stroke-width="4.58333" stroke-miterlimit="8" fill="none" fill-rule="evenodd"/><path d="M399.5 1392.5 454.5 1447.5" stroke="#000000" stroke-width="4.58333" stroke-miterlimit="8" fill="none" fill-rule="evenodd"/><path d="M399.5 1447.5 454.5 1502.5" stroke="#000000" stroke-width="4.58333" stroke-miterlimit="8" fill="none" fill-rule="evenodd"/><path d="M399.5 1502.5 454.5 1557.5" stroke="#000000" stroke-width="4.58333" stroke-miterlimit="8" fill="none" fill-rule="evenodd"/><path d="M456.5 1400.79C1243.12 1413.77 1727.54 1116.52 2075.43 785.5L2107.5 816.562C1710.87 1190.74 1285.83 1483.09 456.5 1488.5L456.5 1400.79Z" stroke="#000000" stroke-width="9.16667" stroke-miterlimit="8" fill="#E7E6E6" fill-rule="evenodd"/><path d="M5.22437e-06-4.58333 293.694-4.583 293.694 4.58367-5.22437e-06 4.58333ZM289.111-13.7497 316.611 0.000360892 289.111 13.7503Z" fill="#FF0000" transform="matrix(1 0 0 -1 2086.5 796.5)"/><path d="M2256.69 849.653 2293.24 849.653 2290.45 862.094 2286.56 862.094C2286.45 860.014 2286.28 858.373 2286.05 857.17 2285.82 855.968 2285.5 855.104 2285.08 854.577 2284.66 854.05 2284.15 853.692 2283.56 853.503 2282.96 853.314 2282.07 853.219 2280.88 853.219L2268.4 853.219 2263.58 875.266 2271.16 875.266C2272.35 875.266 2273.33 875.104 2274.11 874.78 2274.9 874.455 2275.63 873.868 2276.3 873.017 2276.98 872.166 2277.82 870.713 2278.82 868.66L2282.5 868.66 2278.57 885.762 2275.01 885.762C2275.01 883.034 2274.92 881.325 2274.74 880.636 2274.57 879.947 2274.23 879.474 2273.73 879.217 2273.23 878.961 2272.24 878.832 2270.75 878.832L2262.81 878.832 2259.61 893.179C2259.04 895.719 2258.76 897.826 2258.76 899.501 2258.76 900.339 2258.89 900.994 2259.16 901.467 2259.43 901.94 2259.84 902.284 2260.38 902.5 2260.92 902.716 2261.85 902.878 2263.17 902.987L2262.73 904.972 2246.07 904.972 2246.52 902.987C2247.54 902.824 2248.31 902.561 2248.83 902.196 2249.34 901.832 2249.77 901.325 2250.12 900.677 2250.47 900.028 2250.8 899.238 2251.1 898.306 2251.39 897.374 2251.84 895.57 2252.43 892.895L2259.32 861.689C2259.92 858.987 2260.21 856.853 2260.21 855.286 2260.21 853.962 2259.9 853.043 2259.28 852.53 2258.66 852.017 2257.65 851.719 2256.24 851.638Z" fill="#FF0000" fill-rule="evenodd"/><text fill="#000000" fill-opacity="0" font-family="Arial,Arial_MSFontService,sans-serif" font-size="55.3198" x="2246.07" y="898.057">𝐹</text><path d="M2291.29 891.406C2292.38 891.406 2293.28 891.644 2293.97 892.12 2294.67 892.597 2295.24 893.292 2295.7 894.205 2296.16 895.119 2296.53 896.246 2296.83 897.586 2297.13 898.926 2297.45 900.46 2297.78 902.188L2298.17 902.188C2299.36 900.619 2300.4 899.259 2301.27 898.107 2302.14 896.956 2302.92 895.982 2303.61 895.188 2304.29 894.394 2304.91 893.749 2305.45 893.252 2306 892.756 2306.53 892.374 2307.05 892.105 2307.56 891.837 2308.09 891.654 2308.64 891.554 2309.19 891.455 2309.8 891.406 2310.47 891.406 2311.47 891.406 2312.37 891.584 2313.18 891.942L2311.69 897.809 2309.22 897.809C2309.16 896.956 2308.84 896.529 2308.27 896.529 2308.05 896.529 2307.81 896.568 2307.55 896.648 2307.3 896.727 2306.99 896.886 2306.63 897.124 2306.27 897.363 2305.86 897.695 2305.39 898.122 2304.93 898.549 2304.38 899.105 2303.74 899.79 2303.11 900.475 2302.38 901.314 2301.57 902.307 2300.75 903.3 2299.82 904.471 2298.77 905.822 2299.3 908.562 2299.76 910.756 2300.15 912.404 2300.54 914.052 2300.91 915.313 2301.27 916.187 2301.63 917.06 2301.98 917.631 2302.34 917.899 2302.7 918.167 2303.11 918.302 2303.56 918.302 2303.9 918.302 2304.21 918.262 2304.5 918.182 2304.79 918.103 2305.09 917.929 2305.39 917.661 2305.7 917.393 2306.04 917.006 2306.42 916.5 2306.8 915.993 2307.25 915.323 2307.76 914.489L2310 915.948C2309.12 917.259 2308.35 918.331 2307.67 919.165 2307 919.999 2306.34 920.655 2305.71 921.131 2305.07 921.608 2304.42 921.93 2303.74 922.099 2303.07 922.268 2302.29 922.352 2301.42 922.352 2300.66 922.352 2299.99 922.248 2299.39 922.04 2298.8 921.831 2298.28 921.449 2297.84 920.893 2297.55 920.555 2297.27 920.104 2297.01 919.538 2296.75 918.972 2296.51 918.361 2296.29 917.706 2296.08 917.051 2295.88 916.37 2295.7 915.666 2295.52 914.961 2295.37 914.3 2295.25 913.685 2295.13 913.069 2295.04 912.518 2294.97 912.032 2294.9 911.545 2294.86 911.183 2294.84 910.945L2294.51 910.945C2293.32 912.533 2292.28 913.918 2291.4 915.1 2290.51 916.281 2289.71 917.294 2289 918.138 2288.28 918.982 2287.64 919.677 2287.06 920.223 2286.49 920.769 2285.92 921.201 2285.36 921.518 2284.81 921.836 2284.24 922.054 2283.65 922.174 2283.07 922.293 2282.42 922.352 2281.7 922.352 2280.67 922.352 2279.78 922.174 2279.05 921.816L2280.42 916.008 2282.95 916.008C2283.01 916.882 2283.34 917.319 2283.93 917.319 2284.15 917.299 2284.37 917.259 2284.57 917.199 2284.78 917.14 2285.03 917.016 2285.3 916.827 2285.58 916.638 2285.93 916.341 2286.36 915.934 2286.79 915.527 2287.33 914.961 2287.98 914.236 2288.64 913.511 2289.44 912.603 2290.4 911.51 2291.35 910.418 2292.49 909.068 2293.82 907.46 2293.47 905.792 2293.15 904.342 2292.88 903.111 2292.62 901.88 2292.37 900.823 2292.14 899.939 2291.91 899.055 2291.69 898.336 2291.47 897.78 2291.25 897.224 2291.03 896.782 2290.8 896.454 2290.57 896.126 2290.32 895.893 2290.05 895.754 2289.79 895.615 2289.47 895.536 2289.12 895.516 2288.78 895.516 2288.47 895.57 2288.18 895.68 2287.89 895.789 2287.59 895.982 2287.28 896.26 2286.98 896.539 2286.64 896.926 2286.27 897.422 2285.9 897.919 2285.48 898.564 2285.01 899.358L2282.71 897.869C2283.53 896.658 2284.26 895.635 2284.92 894.801 2285.57 893.967 2286.22 893.302 2286.85 892.805 2287.49 892.309 2288.16 891.952 2288.86 891.733 2289.57 891.515 2290.38 891.406 2291.29 891.406Z" fill="#FF0000" fill-rule="evenodd"/><text fill="#000000" fill-opacity="0" font-family="Arial,Arial_MSFontService,sans-serif" font-size="30.9468" x="2279.05" y="918.484">𝑥</text><path d="M4.58333-5.6958e-06 4.58367 267.489-4.583 267.489-4.58333 5.6958e-06ZM13.7503 262.905 0.000360892 290.405-13.7497 262.905Z" fill="#FF0000" transform="matrix(1 0 0 -1 2091.5 794.906)"/><path d="M1978.84 571.839 2015.39 571.839 2012.59 584.281 2008.7 584.281C2008.6 582.201 2008.43 580.559 2008.2 579.357 2007.97 578.155 2007.64 577.29 2007.22 576.763 2006.81 576.236 2006.3 575.878 2005.71 575.689 2005.11 575.5 2004.22 575.406 2003.03 575.406L1990.55 575.406 1985.73 597.452 1993.3 597.452C1994.49 597.452 1995.48 597.29 1996.26 596.966 1997.05 596.642 1997.78 596.054 1998.45 595.203 1999.13 594.352 1999.96 592.9 2000.96 590.846L2004.65 590.846 2000.72 607.949 1997.15 607.949C1997.15 605.22 1997.07 603.511 1996.89 602.822 1996.71 602.133 1996.38 601.66 1995.88 601.404 1995.38 601.147 1994.38 601.019 1992.9 601.019L1984.96 601.019 1981.75 615.365C1981.19 617.905 1980.9 620.013 1980.9 621.688 1980.9 622.525 1981.04 623.18 1981.31 623.653 1981.58 624.126 1981.98 624.471 1982.52 624.687 1983.06 624.903 1984 625.065 1985.32 625.173L1984.87 627.159 1968.22 627.159 1968.66 625.173C1969.69 625.011 1970.46 624.748 1970.97 624.383 1971.49 624.018 1971.92 623.511 1972.27 622.863 1972.62 622.215 1972.95 621.424 1973.24 620.492 1973.54 619.56 1973.99 617.757 1974.58 615.082L1981.47 583.876C1982.06 581.174 1982.36 579.039 1982.36 577.472 1982.36 576.148 1982.05 575.23 1981.43 574.717 1980.81 574.203 1979.79 573.906 1978.39 573.825Z" fill="#FF0000" fill-rule="evenodd"/><text fill="#000000" fill-opacity="0" font-family="Arial,Arial_MSFontService,sans-serif" font-size="55.3198" x="1968.22" y="620.244">𝐹</text><path d="M2011.86 613.592C2012.57 613.592 2013.19 613.667 2013.71 613.815 2014.22 613.964 2014.69 614.198 2015.11 614.515 2015.52 614.833 2015.9 615.245 2016.22 615.751 2016.55 616.258 2016.88 616.868 2017.22 617.583 2017.4 618.02 2017.59 618.646 2017.79 619.46 2017.99 620.274 2018.19 621.217 2018.41 622.289 2018.63 623.362 2018.85 624.543 2019.07 625.834 2019.29 627.124 2019.5 628.475 2019.72 629.885 2019.94 631.294 2020.15 632.739 2020.35 634.218 2020.55 635.698 2020.74 637.152 2020.91 638.582 2022.4 636.636 2023.74 634.665 2024.94 632.669 2026.13 630.674 2027.13 628.787 2027.96 627.01 2028.78 625.233 2029.41 623.615 2029.85 622.155 2030.29 620.696 2030.5 619.529 2030.48 618.656 2030.48 617.782 2030.25 617.156 2029.79 616.779 2029.33 616.402 2028.57 616.183 2027.5 616.124L2027.88 614.218 2036.37 614.218 2037.42 615.945C2035.43 620.85 2033.11 625.581 2030.46 630.138 2027.81 634.695 2024.82 639.118 2021.48 643.407 2020.03 645.135 2018.73 646.624 2017.56 647.875 2016.4 649.126 2015.33 650.203 2014.35 651.106 2013.36 652.01 2012.45 652.75 2011.61 653.325 2010.76 653.901 2009.94 654.363 2009.15 654.71 2008.35 655.058 2007.57 655.306 2006.78 655.455 2006 655.604 2005.18 655.698 2004.32 655.738 2003.87 655.738 2003.32 655.688 2002.67 655.589 2002.03 655.49 2001.45 655.361 2000.96 655.202L2002.45 648.679 2005.16 648.679 2005.16 648.858C2005.16 650.208 2005.7 650.883 2006.8 650.883 2008.25 650.883 2009.72 650.322 2011.2 649.2 2012.69 648.078 2014.49 646.286 2016.6 643.824 2015.94 640.051 2015.36 636.79 2014.87 634.04 2014.37 631.289 2013.92 628.946 2013.51 627.01 2013.11 625.074 2012.73 623.501 2012.4 622.289 2012.06 621.078 2011.73 620.135 2011.41 619.46 2011.1 618.785 2010.77 618.323 2010.44 618.075 2010.12 617.826 2009.76 617.702 2009.39 617.702 2009.03 617.702 2008.7 617.747 2008.4 617.836 2008.11 617.926 2007.8 618.109 2007.48 618.387 2007.16 618.665 2006.82 619.058 2006.45 619.564 2006.09 620.07 2005.63 620.731 2005.1 621.545L2002.8 620.055C2003.66 618.804 2004.44 617.762 2005.16 616.928 2005.87 616.094 2006.58 615.434 2007.29 614.947 2007.99 614.461 2008.71 614.113 2009.45 613.905 2010.18 613.696 2010.99 613.592 2011.86 613.592Z" fill="#FF0000" fill-rule="evenodd"/><text fill="#000000" fill-opacity="0" font-family="Arial,Arial_MSFontService,sans-serif" font-size="42.146" x="2000.96" y="650.47">𝑦</text><path d="M1195.71 1079.04 1198.1 1079.04 1188.13 1123.9C1187.53 1126.57 1187.24 1128.57 1187.24 1129.9 1187.24 1130.98 1187.41 1131.76 1187.76 1132.25 1188.11 1132.74 1188.67 1132.98 1189.42 1132.98 1190.23 1132.98 1191.1 1132.65 1192.02 1131.99 1192.94 1131.32 1194.23 1130.06 1195.91 1128.2L1198.22 1130.47C1195.6 1133.22 1193.46 1135.11 1191.79 1136.12 1190.13 1137.13 1188.28 1137.64 1186.22 1137.64 1184.47 1137.64 1183.06 1137 1182.01 1135.71 1180.95 1134.43 1180.43 1132.79 1180.43 1130.79 1180.43 1128.98 1180.8 1126.36 1181.56 1122.93L1188.82 1090.47C1189.14 1089.03 1189.37 1087.89 1189.5 1087.04 1189.64 1086.19 1189.71 1085.4 1189.71 1084.67 1189.71 1083.86 1189.56 1083.24 1189.26 1082.83 1188.96 1082.41 1188.54 1082.1 1187.98 1081.91 1187.43 1081.72 1186.44 1081.59 1185.01 1081.51L1185.49 1079.4Z" fill-rule="evenodd"/><text fill="#000000" fill-opacity="0" font-family="Arial,Arial_MSFontService,sans-serif" font-size="58.6025" x="1180.43" y="1130.31">𝑙</text><path d="M1208.66 1127.59 1215.75 1127.59C1216.13 1129.48 1216.32 1131.34 1216.32 1133.18 1216.32 1135.07 1215.99 1136.8 1215.35 1138.37 1214.7 1139.94 1213.66 1141.5 1212.24 1143.05 1210.83 1144.6 1208.87 1146.31 1206.39 1148.18L1204.2 1145.7C1205.58 1144.41 1206.58 1143.24 1207.2 1142.2 1207.82 1141.16 1208.27 1139.98 1208.54 1138.65 1208.81 1137.33 1208.94 1135.67 1208.94 1133.67 1208.94 1131.61 1208.85 1129.59 1208.66 1127.59Z" fill-rule="evenodd"/><text fill="#000000" fill-opacity="0" font-family="Arial,Arial_MSFontService,sans-serif" font-size="20.5879" x="1204.2" y="1145.6">,</text><path d="M1259.58 1100.8C1257.09 1100.8 1254.78 1101.91 1252.65 1104.12 1250.51 1106.34 1248.8 1109.34 1247.52 1113.12 1246.24 1116.9 1245.59 1120.78 1245.59 1124.75 1245.59 1127.48 1246 1129.51 1246.81 1130.83 1247.62 1132.15 1248.84 1132.82 1250.46 1132.82 1252.78 1132.82 1255.17 1131.45 1257.63 1128.72 1260.09 1125.99 1262.37 1122.2 1264.48 1117.33 1264.94 1114.52 1265.17 1112.04 1265.17 1109.88 1265.17 1106.8 1264.72 1104.51 1263.81 1103.03 1262.91 1101.54 1261.49 1100.8 1259.58 1100.8ZM1259.86 1097.6C1262.89 1097.6 1265.26 1098.54 1266.97 1100.43 1268.69 1102.33 1269.64 1105.1 1269.83 1108.74L1270.19 1108.7 1275.5 1098.25 1282.51 1098.25 1282.11 1100.31C1278.76 1104.85 1274.81 1110.43 1270.28 1117.05 1269.6 1122.21 1269.26 1125.86 1269.26 1127.99 1269.26 1129.78 1269.46 1131.05 1269.87 1131.82 1270.28 1132.59 1270.95 1132.98 1271.9 1132.98 1272.65 1132.98 1273.51 1132.66 1274.47 1132.03 1275.43 1131.39 1276.46 1130.41 1277.57 1129.09L1279.92 1131.28C1277.65 1133.71 1275.68 1135.38 1274 1136.28 1272.33 1137.19 1270.6 1137.64 1268.82 1137.64 1265.22 1137.64 1263.43 1135.02 1263.43 1129.78 1263.43 1128.61 1263.51 1127.33 1263.67 1125.93L1263.26 1125.93C1260.48 1130.09 1257.85 1133.08 1255.36 1134.9 1252.88 1136.73 1250.21 1137.64 1247.38 1137.64 1245.4 1137.64 1243.74 1137.07 1242.39 1135.94 1241.04 1134.8 1240.04 1133.3 1239.39 1131.42 1238.74 1129.54 1238.42 1127.49 1238.42 1125.28 1238.42 1120.44 1239.34 1115.86 1241.18 1111.52 1243.01 1107.18 1245.57 1103.78 1248.84 1101.31 1252.11 1098.83 1255.78 1097.6 1259.86 1097.6Z" fill-rule="evenodd"/><text fill="#000000" fill-opacity="0" font-family="Arial,Arial_MSFontService,sans-serif" font-size="40.041" x="1238.42" y="1132.63">𝛼</text><path d="M0.00611646-2.29166 387.199-1.25824 387.187 3.32508-0.00611646 2.29166ZM382.647-12.7288 410.11 1.09459 382.573 14.7711Z" transform="matrix(-1.83697e-16 -1 -1 1.83697e-16 456.595 1447.61)"/><path d="M377.927 1097.6C379.035 1097.6 379.98 1097.75 380.764 1098.04 381.304 1098.26 381.845 1098.62 382.385 1099.12 382.925 1099.62 383.405 1100.31 383.824 1101.21 384.243 1102.1 384.607 1103.1 384.918 1104.2 385.229 1105.31 385.573 1106.91 385.952 1108.99 386.6 1112.47 387.228 1116.14 387.836 1119.99 388.444 1123.84 388.964 1127.41 389.396 1130.71 392.017 1126.93 394.239 1123.23 396.063 1119.6 397.887 1115.98 399.197 1112.84 399.994 1110.16 400.791 1107.49 401.19 1105.31 401.19 1103.64 401.19 1102.37 400.92 1101.5 400.379 1101.04 399.839 1100.58 398.92 1100.31 397.623 1100.23L398.029 1098.25 408.687 1098.25 409.782 1100.27C407.728 1105.89 404.945 1111.9 401.433 1118.31 397.975 1124.58 394.016 1130.82 389.558 1137.03 385.29 1142.95 381.737 1147.23 378.9 1149.88 376.927 1151.69 375.023 1152.99 373.185 1153.77 371.726 1154.36 370.173 1154.66 368.525 1154.66 367.957 1154.66 367.302 1154.61 366.559 1154.52 365.816 1154.42 365.242 1154.3 364.837 1154.13L366.579 1146.27 369.781 1146.27C369.781 1148 370.375 1148.87 371.564 1148.87 373.131 1148.87 374.955 1147.89 377.035 1145.93 379.116 1143.97 381.561 1141.02 384.371 1137.07 383.587 1132.34 382.52 1126.64 381.169 1119.97 379.737 1112.84 378.792 1108.42 378.332 1106.72 377.765 1104.66 377.171 1103.35 376.549 1102.79 376.171 1102.43 375.698 1102.26 375.131 1102.26 374.266 1102.26 373.456 1102.61 372.699 1103.31 371.943 1104.02 371.01 1105.23 369.903 1106.96L367.268 1105.22C369.133 1102.43 370.875 1100.47 372.496 1099.32 374.118 1098.17 375.928 1097.6 377.927 1097.6Z" fill-rule="evenodd"/><text fill="#000000" fill-opacity="0" font-family="Arial,Arial_MSFontService,sans-serif" font-size="57.0625" x="364.837" y="1147.53">𝑦</text><path d="M457.5 1441.21 2380.39 1441.21 2380.39 1445.79 457.5 1445.79ZM2375.81 1429.75 2403.31 1443.5 2375.81 1457.25Z"/><path d="M2075.87 785.937 1993.5 708.5" stroke="#000000" stroke-width="4.58333" stroke-miterlimit="8" fill="none" fill-rule="evenodd"/><path d="M478.369 1345.78 521.582 1344.96 521.523 1344.96 586.336 1342.09 586.273 1342.09 649.836 1337.53 649.778 1337.53 712.091 1331.47 712.029 1331.48 773.091 1323.85 773.03 1323.86 832.905 1314.73 832.846 1314.74 891.471 1304.24 891.411 1304.26 948.849 1292.38 948.789 1292.39 1005.04 1279.21 1004.98 1279.22 1060.04 1264.72 1059.98 1264.74 1113.86 1249.05 1113.8 1249.07 1166.61 1232.19 1166.56 1232.21 1218.18 1214.21 1218.13 1214.23 1268.69 1195.17 1268.64 1195.19 1318.07 1175.07 1318.02 1175.09 1366.4 1154.02 1366.34 1154.05 1413.66 1131.99 1413.61 1132.01 1459.86 1109.13 1459.81 1109.16 1505.06 1085.41 1505.01 1085.43 1549.2 1060.93 1549.16 1060.96 1592.34 1035.71 1592.3 1035.73 1634.55 1009.8 1634.49 1009.84 1715.93 956.088 1715.85 956.139 1793.6 900.264 1793.53 900.317 1867.53 842.692 1867.47 842.743 1937.97 783.743 1937.91 783.792 1987.89 739.073 1990.95 742.488 1940.94 787.233 1870.38 846.284 1796.31 903.96 1718.49 959.888 1636.98 1013.68 1594.68 1039.65 1551.45 1064.93 1507.21 1089.45 1461.92 1113.23 1415.62 1136.13 1368.25 1158.21 1319.83 1179.3 1270.34 1199.45 1219.72 1218.53 1168.04 1236.55 1115.17 1253.44 1061.24 1269.15 1006.12 1283.66 949.806 1296.86 892.309 1308.75 833.625 1319.26 773.69 1328.4 712.565 1336.03 650.193 1342.1 586.57 1346.66 521.697 1349.54 478.456 1350.36ZM483.255 1361.73 455.5 1348.5 482.735 1334.23ZM1976.84 733.589 2006.5 725.5 1995.17 754.084Z"/><rect x="457.5" y="2000.5" width="209" height="210" stroke="#000000" stroke-width="9.16667" stroke-miterlimit="8" fill="#E7E6E6"/><path d="M524.529 1816.86 535.147 1816.86 537.579 1848.84C541.388 1842.62 544.137 1837.89 545.826 1834.65 547.515 1831.41 548.764 1828.61 549.575 1826.24 550.385 1823.88 551.007 1821.41 551.439 1818.85L551.885 1816.86 557.721 1816.86 560.679 1848.88C564.894 1842.88 568.103 1837.64 570.305 1833.17 572.507 1828.7 573.608 1825.06 573.608 1822.25 573.608 1820.98 573.337 1820.12 572.797 1819.66 572.257 1819.2 571.338 1818.93 570.041 1818.85L570.446 1816.86 580.902 1816.86 581.997 1818.89C581.051 1821.29 580.295 1823.14 579.727 1824.44 579.16 1825.74 578.417 1827.3 577.498 1829.12 576.58 1830.94 575.607 1832.76 574.58 1834.57 573.554 1836.38 572.344 1838.37 570.953 1840.55 569.562 1842.72 568.001 1845.09 566.272 1847.64 564.543 1850.19 562.503 1853.06 560.152 1856.25L555.33 1856.25 553.668 1839.31C553.533 1837.99 553.391 1836.26 553.243 1834.12 553.094 1831.99 552.993 1830.34 552.939 1829.18L552.493 1829.14C551.034 1832.73 549.048 1836.73 546.535 1841.14 544.023 1845.54 540.915 1850.58 537.214 1856.25L531.783 1856.25 528.703 1825.74C528.541 1824.17 528.339 1822.9 528.095 1821.93 527.852 1820.95 527.447 1820.22 526.88 1819.74 526.312 1819.25 525.38 1818.95 524.083 1818.85Z" fill-rule="evenodd"/><text fill="#000000" fill-opacity="0" font-family="Arial,Arial_MSFontService,sans-serif" font-size="39.3926" x="524.083" y="1851.33">𝑤</text><path d="M597.496 1836.76C596.106 1836.76 594.944 1837.13 594.011 1837.85 593.078 1838.58 592.338 1839.64 591.792 1841.04 591.246 1842.44 590.859 1844.15 590.63 1846.16 590.402 1848.18 590.288 1850.47 590.288 1853.03 590.288 1855.99 590.432 1858.54 590.72 1860.7 591.008 1862.85 591.454 1864.62 592.06 1866.01 592.666 1867.4 593.425 1868.43 594.339 1869.08 595.252 1869.74 596.344 1870.06 597.615 1870.06 598.806 1870.06 599.849 1869.76 600.742 1869.14 601.636 1868.53 602.376 1867.57 602.961 1866.27 603.547 1864.97 603.989 1863.32 604.287 1861.32 604.585 1859.33 604.734 1856.97 604.734 1854.25 604.734 1851.19 604.57 1848.56 604.242 1846.36 603.915 1844.15 603.453 1842.34 602.857 1840.92 602.262 1839.5 601.512 1838.45 600.608 1837.78 599.705 1837.1 598.667 1836.76 597.496 1836.76ZM597.615 1833.88C599.978 1833.88 601.998 1834.32 603.676 1835.2 605.354 1836.08 606.724 1837.35 607.787 1838.98 608.849 1840.62 609.628 1842.62 610.125 1844.99 610.621 1847.35 610.869 1850.02 610.869 1853 610.869 1859.61 609.698 1864.61 607.355 1867.99 605.012 1871.38 601.616 1873.07 597.168 1873.07 592.76 1873.07 589.484 1871.47 587.339 1868.28 585.195 1865.08 584.122 1860.24 584.122 1853.74 584.122 1850.35 584.455 1847.41 585.12 1844.93 585.785 1842.44 586.719 1840.38 587.92 1838.75 589.121 1837.11 590.546 1835.89 592.194 1835.08 593.842 1834.28 595.649 1833.88 597.615 1833.88Z" fill-rule="evenodd"/><text fill="#000000" fill-opacity="0" font-family="Arial,Arial_MSFontService,sans-serif" font-size="39.1973" x="584.122" y="1868.17">0</text><path d="M273.121 2061.58 275.472 2061.58 268.501 2089.66 268.988 2089.82C271.554 2086.42 273.979 2083.95 276.262 2082.43 278.545 2080.9 280.849 2080.14 283.172 2080.14 285.685 2080.14 287.617 2080.86 288.968 2082.3 290.318 2083.75 290.994 2085.76 290.994 2088.32 290.994 2090.03 290.602 2092.44 289.819 2095.58L287.184 2106.2C286.455 2109.14 286.09 2111.22 286.09 2112.44 286.09 2113.52 286.266 2114.3 286.617 2114.79 286.968 2115.27 287.522 2115.52 288.279 2115.52 289.089 2115.52 289.954 2115.19 290.872 2114.52 291.791 2113.86 293.088 2112.6 294.763 2110.73L297.073 2113C294.479 2115.73 292.352 2117.61 290.69 2118.64 289.028 2119.66 287.157 2120.18 285.077 2120.18 283.321 2120.18 281.923 2119.56 280.882 2118.31 279.842 2117.07 279.322 2115.46 279.322 2113.49 279.322 2111.73 279.768 2109.15 280.659 2105.75L282.402 2098.74C283.024 2096.23 283.442 2094.34 283.658 2093.09 283.875 2091.83 283.983 2090.85 283.983 2090.15 283.983 2088.23 283.672 2086.87 283.051 2086.07 282.429 2085.28 281.416 2084.88 280.011 2084.88 278.903 2084.88 277.674 2085.34 276.323 2086.26 274.972 2087.18 273.554 2088.57 272.068 2090.45 270.582 2092.33 269.4 2094.13 268.522 2095.84 267.643 2097.56 266.948 2099.6 266.434 2101.98L262.746 2119.53 255.735 2119.53 266.151 2073.21C266.799 2070.32 267.123 2068.32 267.123 2067.21 267.123 2066.07 266.779 2065.28 266.09 2064.82 265.401 2064.36 264.165 2064.1 262.382 2064.05L262.868 2061.94Z" fill-rule="evenodd"/><text fill="#000000" fill-opacity="0" font-family="Arial,Arial_MSFontService,sans-serif" font-size="58.6025" x="255.735" y="2112.85">ℎ</text><path d="M315.503 2100.69C314.113 2100.69 312.951 2101.05 312.018 2101.78 311.084 2102.5 310.345 2103.56 309.799 2104.96 309.253 2106.36 308.865 2108.07 308.637 2110.09 308.409 2112.1 308.295 2114.39 308.295 2116.95 308.295 2119.91 308.439 2122.47 308.726 2124.62 309.014 2126.78 309.461 2128.55 310.067 2129.94 310.672 2131.33 311.432 2132.35 312.345 2133.01 313.259 2133.66 314.351 2133.99 315.622 2133.99 316.813 2133.99 317.856 2133.68 318.749 2133.07 319.643 2132.45 320.382 2131.49 320.968 2130.19 321.554 2128.89 321.996 2127.24 322.294 2125.25 322.591 2123.25 322.74 2120.89 322.74 2118.17 322.74 2115.12 322.577 2112.49 322.249 2110.28 321.921 2108.08 321.46 2106.27 320.864 2104.85 320.268 2103.43 319.519 2102.38 318.615 2101.7 317.712 2101.03 316.674 2100.69 315.503 2100.69ZM315.622 2097.8C317.985 2097.8 320.005 2098.24 321.683 2099.13 323.361 2100.01 324.731 2101.27 325.793 2102.91 326.856 2104.55 327.635 2106.55 328.131 2108.91 328.628 2111.27 328.876 2113.94 328.876 2116.92 328.876 2123.54 327.705 2128.53 325.361 2131.92 323.018 2135.31 319.623 2137 315.175 2137 310.767 2137 307.49 2135.4 305.346 2132.2 303.201 2129.01 302.129 2124.16 302.129 2117.67 302.129 2114.27 302.462 2111.33 303.127 2108.85 303.792 2106.37 304.725 2104.31 305.927 2102.67 307.128 2101.03 308.553 2099.81 310.201 2099.01 311.849 2098.2 313.656 2097.8 315.622 2097.8Z" fill-rule="evenodd"/><text fill="#000000" fill-opacity="0" font-family="Arial,Arial_MSFontService,sans-serif" font-size="39.1973" x="302.129" y="2132.1">0</text><path d="M0 0 0.000360892 142.99" stroke="#000000" stroke-width="4.58333" stroke-miterlimit="8" fill="none" fill-rule="evenodd" transform="matrix(1 0 0 -1 455.5 2000.49)"/><path d="M0 0 0.000360892 142.99" stroke="#000000" stroke-width="4.58333" stroke-miterlimit="8" fill="none" fill-rule="evenodd" transform="matrix(1 0 0 -1 667.5 2002.49)"/><path d="M478.417 1889.21 643.342 1889.21 643.342 1893.79 478.417 1893.79ZM483 1905.25 455.5 1891.5 483 1877.75ZM638.759 1877.75 666.259 1891.5 638.759 1905.25Z"/><path d="M0 0 0.000360892 142.99" stroke="#000000" stroke-width="4.58333" stroke-miterlimit="8" fill="none" fill-rule="evenodd" transform="matrix(-1.83697e-16 -1 -1 1.83697e-16 455.489 2212.5)"/><path d="M0 0 0.000360892 142.99" stroke="#000000" stroke-width="4.58333" stroke-miterlimit="8" fill="none" fill-rule="evenodd" transform="matrix(-1.83697e-16 -1 -1 1.83697e-16 457.489 1998.5)"/><path d="M2.29171 22.9166 2.29199 188.519-2.29134 188.519-2.29163 22.9166ZM-13.75 27.5 0 0 13.75 27.5ZM13.7503 183.935 0.000360892 211.435-13.7497 183.935Z" transform="matrix(1 0 0 -1 346.5 2209.94)"/><rect x="2074.5" y="2021.5" width="162" height="162" stroke="#000000" stroke-width="9.16667" stroke-miterlimit="8" fill="#E7E6E6"/><path d="M2115.09 1837.48 2125.71 1837.48 2128.14 1869.46C2131.95 1863.25 2134.7 1858.52 2136.39 1855.28 2138.08 1852.03 2139.32 1849.23 2140.14 1846.87 2140.95 1844.5 2141.57 1842.04 2142 1839.47L2142.45 1837.48 2148.28 1837.48 2151.24 1869.5C2155.45 1863.5 2158.66 1858.27 2160.87 1853.8 2163.07 1849.33 2164.17 1845.68 2164.17 1842.87 2164.17 1841.6 2163.9 1840.74 2163.36 1840.28 2162.82 1839.82 2161.9 1839.55 2160.6 1839.47L2161.01 1837.48 2171.46 1837.48 2172.56 1839.51C2171.61 1841.92 2170.86 1843.77 2170.29 1845.06 2169.72 1846.36 2168.98 1847.92 2168.06 1849.74 2167.14 1851.57 2166.17 1853.38 2165.14 1855.2 2164.11 1857.01 2162.91 1859 2161.51 1861.17 2160.12 1863.35 2158.56 1865.71 2156.83 1868.27 2155.1 1870.82 2153.06 1873.69 2150.71 1876.88L2145.89 1876.88 2144.23 1859.94C2144.09 1858.61 2143.95 1856.88 2143.8 1854.75 2143.65 1852.61 2143.55 1850.97 2143.5 1849.8L2143.05 1849.76C2141.59 1853.36 2139.61 1857.36 2137.1 1861.76 2134.58 1866.16 2131.48 1871.2 2127.77 1876.88L2122.34 1876.88 2119.26 1846.36C2119.1 1844.79 2118.9 1843.52 2118.66 1842.55 2118.41 1841.58 2118.01 1840.85 2117.44 1840.36 2116.87 1839.88 2115.94 1839.58 2114.64 1839.47Z" fill-rule="evenodd"/><text fill="#000000" fill-opacity="0" font-family="Arial,Arial_MSFontService,sans-serif" font-size="39.3926" x="2114.64" y="1871.95">𝑤</text><path d="M2188.6 1854.71 2190.41 1854.71C2190.37 1855.8 2190.34 1856.78 2190.32 1857.64 2190.3 1858.51 2190.29 1859.35 2190.28 1860.16 2190.27 1860.97 2190.26 1861.78 2190.26 1862.57L2190.26 1885.21C2190.26 1885.82 2190.28 1886.36 2190.32 1886.8 2190.36 1887.25 2190.43 1887.63 2190.52 1887.93 2190.61 1888.24 2190.73 1888.51 2190.88 1888.72 2191.02 1888.94 2191.2 1889.13 2191.4 1889.29 2191.63 1889.53 2191.95 1889.71 2192.35 1889.84 2192.75 1889.97 2193.25 1890.08 2193.87 1890.17 2194.48 1890.26 2195.22 1890.33 2196.09 1890.38 2196.95 1890.43 2197.99 1890.46 2199.2 1890.48L2199.2 1893.07 2175.58 1893.07 2175.58 1890.48C2176.75 1890.44 2177.74 1890.4 2178.56 1890.35 2179.37 1890.3 2180.07 1890.23 2180.64 1890.14 2181.22 1890.05 2181.68 1889.95 2182.03 1889.84 2182.38 1889.73 2182.68 1889.6 2182.94 1889.44 2183.22 1889.26 2183.45 1889.07 2183.65 1888.86 2183.85 1888.65 2184.01 1888.39 2184.13 1888.07 2184.25 1887.75 2184.34 1887.36 2184.41 1886.91 2184.48 1886.45 2184.52 1885.88 2184.52 1885.21L2184.52 1863.85C2184.52 1863.08 2184.37 1862.53 2184.07 1862.22 2183.77 1861.9 2183.34 1861.74 2182.79 1861.74 2182.17 1861.74 2181.26 1862.06 2180.05 1862.69 2178.84 1863.33 2177.27 1864.27 2175.34 1865.52 2175.08 1865.06 2174.85 1864.61 2174.63 1864.15 2174.41 1863.69 2174.18 1863.23 2173.94 1862.75 2176.4 1861.4 2178.84 1860.06 2181.25 1858.72 2183.67 1857.38 2186.11 1856.04 2188.6 1854.71Z" fill-rule="evenodd"/><text fill="#000000" fill-opacity="0" font-family="Arial,Arial_MSFontService,sans-serif" font-size="38.3633" x="2173.94" y="1888.28">1</text><path d="M1891.18 2068.45 1893.53 2068.45 1886.56 2096.54 1887.05 2096.7C1889.61 2093.29 1892.04 2090.83 1894.32 2089.3 1896.61 2087.77 1898.91 2087.01 1901.23 2087.01 1903.75 2087.01 1905.68 2087.73 1907.03 2089.18 1908.38 2090.63 1909.05 2092.63 1909.05 2095.2 1909.05 2096.9 1908.66 2099.32 1907.88 2102.45L1905.24 2113.07C1904.52 2116.02 1904.15 2118.1 1904.15 2119.31 1904.15 2120.39 1904.33 2121.18 1904.68 2121.66 1905.03 2122.15 1905.58 2122.39 1906.34 2122.39 1907.15 2122.39 1908.01 2122.06 1908.93 2121.4 1909.85 2120.74 1911.15 2119.47 1912.82 2117.61L1915.13 2119.88C1912.54 2122.61 1910.41 2124.49 1908.75 2125.51 1907.09 2126.54 1905.22 2127.05 1903.14 2127.05 1901.38 2127.05 1899.98 2126.43 1898.94 2125.19 1897.9 2123.95 1897.38 2122.34 1897.38 2120.37 1897.38 2118.61 1897.83 2116.03 1898.72 2112.63L1900.46 2105.61C1901.08 2103.1 1901.5 2101.22 1901.72 2099.96 1901.94 2098.7 1902.04 2097.72 1902.04 2097.02 1902.04 2095.1 1901.73 2093.75 1901.11 2092.95 1900.49 2092.15 1899.48 2091.75 1898.07 2091.75 1896.96 2091.75 1895.73 2092.21 1894.38 2093.13 1893.03 2094.05 1891.61 2095.45 1890.13 2097.33 1888.64 2099.2 1887.46 2101 1886.58 2102.72 1885.7 2104.43 1885.01 2106.48 1884.49 2108.86L1880.81 2126.4 1873.8 2126.4 1884.21 2080.08C1884.86 2077.19 1885.18 2075.19 1885.18 2074.08 1885.18 2072.95 1884.84 2072.15 1884.15 2071.69 1883.46 2071.23 1882.23 2070.98 1880.44 2070.92L1880.93 2068.81Z" fill-rule="evenodd"/><text fill="#000000" fill-opacity="0" font-family="Arial,Arial_MSFontService,sans-serif" font-size="58.6025" x="1873.8" y="2119.73">ℎ</text><path d="M1934.1 2104.88 1935.92 2104.88C1935.88 2105.98 1935.85 2106.95 1935.83 2107.82 1935.81 2108.68 1935.8 2109.52 1935.79 2110.34 1935.78 2111.15 1935.77 2111.95 1935.77 2112.75L1935.77 2135.38C1935.77 2136 1935.79 2136.53 1935.83 2136.98 1935.87 2137.43 1935.94 2137.8 1936.02 2138.11 1936.11 2138.42 1936.23 2138.68 1936.38 2138.9 1936.53 2139.12 1936.7 2139.31 1936.9 2139.47 1937.14 2139.7 1937.46 2139.89 1937.86 2140.02 1938.25 2140.15 1938.76 2140.25 1939.38 2140.34 1939.99 2140.43 1940.73 2140.5 1941.59 2140.55 1942.46 2140.6 1943.5 2140.64 1944.71 2140.66L1944.71 2143.25 1921.09 2143.25 1921.09 2140.66C1922.26 2140.62 1923.25 2140.57 1924.07 2140.52 1924.88 2140.47 1925.57 2140.4 1926.15 2140.31 1926.73 2140.22 1927.19 2140.13 1927.54 2140.02 1927.88 2139.91 1928.19 2139.77 1928.44 2139.61 1928.72 2139.44 1928.96 2139.24 1929.16 2139.03 1929.36 2138.82 1929.52 2138.56 1929.64 2138.24 1929.75 2137.93 1929.85 2137.54 1929.92 2137.08 1929.99 2136.63 1930.02 2136.06 1930.02 2135.38L1930.02 2114.03C1930.02 2113.25 1929.87 2112.71 1929.58 2112.39 1929.28 2112.07 1928.85 2111.91 1928.3 2111.91 1927.68 2111.91 1926.77 2112.23 1925.56 2112.87 1924.34 2113.5 1922.78 2114.45 1920.85 2115.7 1920.59 2115.24 1920.35 2114.78 1920.13 2114.33 1919.92 2113.87 1919.69 2113.4 1919.45 2112.93 1921.91 2111.58 1924.35 2110.23 1926.76 2108.89 1929.17 2107.55 1931.62 2106.22 1934.1 2104.88Z" fill-rule="evenodd"/><text fill="#000000" fill-opacity="0" font-family="Arial,Arial_MSFontService,sans-serif" font-size="38.3633" x="1919.45" y="2138.45">1</text><path d="M0 0 0.000360892 142.99" stroke="#000000" stroke-width="4.58333" stroke-miterlimit="8" fill="none" fill-rule="evenodd" transform="matrix(1 0 0 -1 2072.5 2020.49)"/><path d="M0 0 0.000360892 142.99" stroke="#000000" stroke-width="4.58333" stroke-miterlimit="8" fill="none" fill-rule="evenodd" transform="matrix(1 0 0 -1 2238.5 2022.49)"/><path d="M2095.42 1909.21 2215.54 1909.21 2215.54 1913.79 2095.42 1913.79ZM2100 1925.25 2072.5 1911.5 2100 1897.75ZM2210.96 1897.75 2238.46 1911.5 2210.96 1925.25Z"/><path d="M0 0 0.000360892 142.99" stroke="#000000" stroke-width="4.58333" stroke-miterlimit="8" fill="none" fill-rule="evenodd" transform="matrix(-1.83697e-16 -1 -1 1.83697e-16 2072.49 2186.5)"/><path d="M0 0 0.000360892 142.99" stroke="#000000" stroke-width="4.58333" stroke-miterlimit="8" fill="none" fill-rule="evenodd" transform="matrix(-1.83697e-16 -1 -1 1.83697e-16 2074.49 2019.5)"/><path d="M1961.21 2162.54 1961.21 2042.42 1965.79 2042.42 1965.79 2162.54ZM1977.25 2157.96 1963.5 2185.46 1949.75 2157.96ZM1949.75 2047 1963.5 2019.5 1977.25 2047Z"/></g></svg>