<svg width="2079" height="1392" xmlns="http://www.w3.org/2000/svg" xmlns:xlink="http://www.w3.org/1999/xlink" overflow="hidden"><defs><clipPath id="clip0"><rect x="353" y="482" width="2079" height="1392"/></clipPath></defs><g clip-path="url(#clip0)" transform="translate(-353 -482)"><path d="M2263.96 1530.49C2264.79 1530.49 2265.53 1530.58 2266.17 1530.77 2266.8 1530.96 2267.36 1531.25 2267.85 1531.64 2268.33 1532.04 2268.77 1532.54 2269.14 1533.16 2269.52 1533.79 2269.89 1534.63 2270.24 1535.7 2270.59 1536.76 2270.92 1538.09 2271.23 1539.67 2271.54 1541.25 2271.82 1542.89 2272.06 1544.59L2272.47 1544.59C2275.06 1540.94 2277.03 1538.28 2278.36 1536.59 2279.7 1534.9 2280.83 1533.64 2281.75 1532.82 2282.67 1532 2283.55 1531.41 2284.4 1531.08 2285.25 1530.74 2286.38 1530.57 2287.79 1530.57 2289.06 1530.57 2290.1 1530.73 2290.91 1531.06L2289.29 1538.39 2286.45 1538.39C2286.29 1537.26 2285.81 1536.69 2285.03 1536.69 2284.79 1536.69 2284.53 1536.73 2284.26 1536.81 2283.99 1536.89 2283.66 1537.07 2283.27 1537.34 2282.88 1537.61 2282.3 1538.14 2281.55 1538.92 2280.79 1539.7 2279.94 1540.66 2278.99 1541.8 2278.05 1542.93 2277.07 1544.12 2276.07 1545.36L2273.32 1548.81C2273.8 1551.4 2274.26 1553.64 2274.7 1555.53 2275.13 1557.43 2275.51 1559 2275.85 1560.26 2276.19 1561.51 2276.49 1562.51 2276.74 1563.23 2277 1563.96 2277.28 1564.51 2277.57 1564.88 2277.87 1565.24 2278.18 1565.5 2278.49 1565.65 2278.8 1565.79 2279.15 1565.87 2279.56 1565.87 2280.29 1565.87 2281 1565.59 2281.69 1565.02 2282.38 1564.45 2283.37 1563.17 2284.67 1561.17L2287.3 1562.91C2285.41 1565.72 2283.7 1567.7 2282.17 1568.85 2280.65 1570 2278.83 1570.57 2276.72 1570.57 2275.56 1570.57 2274.57 1570.36 2273.76 1569.94 2272.95 1569.52 2272.25 1568.85 2271.66 1567.94 2271.06 1567.02 2270.54 1565.59 2270.08 1563.64 2269.24 1560.18 2268.73 1557.53 2268.54 1555.7L2268.13 1555.7C2265.27 1559.72 2263.14 1562.61 2261.75 1564.37 2260.36 1566.13 2259.21 1567.42 2258.3 1568.26 2257.4 1569.1 2256.52 1569.69 2255.67 1570.02 2254.82 1570.36 2253.69 1570.53 2252.28 1570.53 2251.02 1570.53 2249.97 1570.37 2249.16 1570.04L2250.79 1562.71 2253.62 1562.71C2253.78 1563.84 2254.26 1564.41 2255.04 1564.41 2255.42 1564.41 2255.82 1564.31 2256.24 1564.11 2256.66 1563.9 2257.26 1563.42 2258.04 1562.65 2258.82 1561.88 2259.9 1560.67 2261.28 1559.02 2262.66 1557.37 2264.66 1554.9 2267.28 1551.6 2266.87 1549.47 2266.46 1547.42 2266.02 1545.44 2265.59 1543.47 2265.15 1541.63 2264.69 1539.93 2264.23 1538.23 2263.85 1537.12 2263.55 1536.59 2263.25 1536.06 2262.94 1535.7 2262.6 1535.49 2262.26 1535.29 2261.84 1535.19 2261.32 1535.19 2260.76 1535.19 2260.24 1535.32 2259.78 1535.58 2259.32 1535.83 2258.82 1536.28 2258.28 1536.91 2257.74 1537.55 2257.03 1538.54 2256.14 1539.89L2253.5 1538.15C2255.2 1535.58 2256.84 1533.66 2258.4 1532.39 2259.97 1531.12 2261.82 1530.49 2263.96 1530.49Z" fill-rule="evenodd"/><text fill="#000000" fill-opacity="0" font-family="Arial,Arial_MSFontService,sans-serif" font-size="40.0815" x="2249.16" y="1565.56">𝑥</text><path d="M0 0 0.000360892 389.405" stroke="#000000" stroke-width="4.58333" stroke-miterlimit="8" fill="none" fill-rule="evenodd" transform="matrix(1 0 0 -1 452.5 1784.91)"/><path d="M452.5 1334.5 452.5 1577.06" stroke="#000000" stroke-width="9.16667" stroke-miterlimit="8" fill="none" fill-rule="evenodd"/><path d="M397.5 1341.5 452.5 1396.5" stroke="#000000" stroke-width="4.58333" stroke-miterlimit="8" fill="none" fill-rule="evenodd"/><path d="M397.5 1396.5 452.5 1451.5" stroke="#000000" stroke-width="4.58333" stroke-miterlimit="8" fill="none" fill-rule="evenodd"/><path d="M397.5 1451.5 452.5 1506.5" stroke="#000000" stroke-width="4.58333" stroke-miterlimit="8" fill="none" fill-rule="evenodd"/><path d="M397.5 1506.5 452.5 1561.5" stroke="#000000" stroke-width="4.58333" stroke-miterlimit="8" fill="none" fill-rule="evenodd"/><path d="M452.5 1425.74C1239.44 1438.7 1725.89 1119.96 2073.92 789.5L2111.5 826.005C1714.71 1199.55 1282.16 1473.1 452.5 1478.5L452.5 1425.74Z" stroke="#000000" stroke-width="9.16667" stroke-miterlimit="8" fill="#E7E6E6" fill-rule="evenodd"/><path d="M5.22437e-06-4.58333 293.694-4.583 293.694 4.58367-5.22437e-06 4.58333ZM289.111-13.7497 316.611 0.000360892 289.111 13.7503Z" fill="#FF0000" transform="matrix(1 0 0 -1 2087.5 802.501)"/><path d="M2257.32 855.84 2293.88 855.84 2291.08 868.282 2287.19 868.282C2287.08 866.202 2286.91 864.56 2286.68 863.358 2286.45 862.156 2286.13 861.291 2285.71 860.764 2285.29 860.237 2284.79 859.879 2284.19 859.69 2283.6 859.501 2282.7 859.406 2281.52 859.406L2269.03 859.406 2264.21 881.453 2271.79 881.453C2272.98 881.453 2273.96 881.291 2274.75 880.967 2275.53 880.643 2276.26 880.055 2276.94 879.204 2277.61 878.353 2278.45 876.901 2279.45 874.847L2283.14 874.847 2279.21 891.95 2275.64 891.95C2275.64 889.221 2275.55 887.512 2275.38 886.823 2275.2 886.134 2274.86 885.661 2274.36 885.405 2273.86 885.148 2272.87 885.02 2271.38 885.02L2263.44 885.02 2260.24 899.366C2259.67 901.906 2259.39 904.014 2259.39 905.689 2259.39 906.526 2259.52 907.181 2259.79 907.654 2260.06 908.127 2260.47 908.472 2261.01 908.688 2261.55 908.904 2262.48 909.066 2263.81 909.174L2263.36 911.16 2246.7 911.16 2247.15 909.174C2248.18 909.012 2248.95 908.749 2249.46 908.384 2249.97 908.019 2250.4 907.512 2250.76 906.864 2251.11 906.216 2251.43 905.425 2251.73 904.493 2252.03 903.561 2252.47 901.758 2253.07 899.083L2259.96 867.877C2260.55 865.175 2260.85 863.04 2260.85 861.473 2260.85 860.149 2260.54 859.231 2259.92 858.718 2259.29 858.204 2258.28 857.907 2256.88 857.826Z" fill="#FF0000" fill-rule="evenodd"/><text fill="#000000" fill-opacity="0" font-family="Arial,Arial_MSFontService,sans-serif" font-size="55.3198" x="2246.7" y="904.245">𝐹</text><path d="M2291.92 897.593C2293.02 897.593 2293.91 897.831 2294.6 898.308 2295.3 898.784 2295.88 899.479 2296.33 900.393 2296.79 901.306 2297.17 902.433 2297.46 903.773 2297.76 905.114 2298.08 906.648 2298.42 908.375L2298.8 908.375C2300 906.807 2301.03 905.446 2301.9 904.295 2302.78 903.143 2303.55 902.17 2304.24 901.376 2304.93 900.581 2305.54 899.936 2306.09 899.44 2306.63 898.943 2307.16 898.561 2307.68 898.293 2308.2 898.025 2308.73 897.841 2309.27 897.742 2309.82 897.643 2310.43 897.593 2311.11 897.593 2312.1 897.593 2313 897.772 2313.82 898.129L2312.33 903.997 2309.85 903.997C2309.79 903.143 2309.48 902.716 2308.9 902.716 2308.68 902.716 2308.44 902.756 2308.19 902.835 2307.93 902.915 2307.62 903.073 2307.26 903.312 2306.91 903.55 2306.49 903.883 2306.03 904.31 2305.56 904.737 2305.01 905.292 2304.37 905.978 2303.74 906.663 2303.01 907.502 2302.2 908.494 2301.39 909.487 2300.45 910.659 2299.4 912.009 2299.94 914.749 2300.4 916.943 2300.78 918.592 2301.17 920.24 2301.54 921.501 2301.9 922.374 2302.26 923.248 2302.62 923.819 2302.97 924.087 2303.33 924.355 2303.74 924.489 2304.2 924.489 2304.53 924.489 2304.85 924.449 2305.13 924.37 2305.42 924.29 2305.72 924.117 2306.03 923.849 2306.33 923.581 2306.68 923.193 2307.05 922.687 2307.43 922.181 2307.88 921.51 2308.4 920.677L2310.63 922.136C2309.76 923.447 2308.98 924.519 2308.31 925.353 2307.63 926.187 2306.98 926.842 2306.34 927.319 2305.7 927.795 2305.05 928.118 2304.37 928.287 2303.7 928.455 2302.92 928.54 2302.05 928.54 2301.3 928.54 2300.62 928.436 2300.03 928.227 2299.43 928.019 2298.91 927.636 2298.48 927.08 2298.18 926.743 2297.9 926.291 2297.64 925.725 2297.38 925.159 2297.15 924.549 2296.93 923.893 2296.71 923.238 2296.51 922.558 2296.33 921.853 2296.15 921.148 2296 920.488 2295.89 919.872 2295.77 919.257 2295.67 918.706 2295.6 918.219 2295.53 917.733 2295.49 917.37 2295.47 917.132L2295.14 917.132C2293.95 918.721 2292.91 920.106 2292.03 921.287 2291.14 922.469 2290.35 923.481 2289.63 924.325 2288.92 925.169 2288.27 925.864 2287.69 926.41 2287.12 926.956 2286.55 927.388 2286 927.706 2285.44 928.023 2284.87 928.242 2284.28 928.361 2283.7 928.48 2283.05 928.54 2282.33 928.54 2281.3 928.54 2280.42 928.361 2279.68 928.004L2281.05 922.196 2283.58 922.196C2283.64 923.069 2283.97 923.506 2284.57 923.506 2284.79 923.486 2285 923.447 2285.21 923.387 2285.42 923.327 2285.66 923.203 2285.94 923.015 2286.22 922.826 2286.57 922.528 2286.99 922.121 2287.42 921.714 2287.96 921.148 2288.62 920.423 2289.27 919.699 2290.08 918.79 2291.03 917.698 2291.98 916.606 2293.13 915.256 2294.46 913.647 2294.1 911.979 2293.79 910.53 2293.52 909.299 2293.25 908.067 2293 907.01 2292.77 906.126 2292.54 905.243 2292.32 904.523 2292.1 903.967 2291.88 903.411 2291.66 902.969 2291.43 902.642 2291.2 902.314 2290.96 902.081 2290.69 901.942 2290.42 901.803 2290.11 901.723 2289.75 901.703 2289.41 901.703 2289.1 901.758 2288.81 901.867 2288.52 901.976 2288.23 902.17 2287.92 902.448 2287.61 902.726 2287.27 903.113 2286.91 903.61 2286.54 904.106 2286.12 904.751 2285.64 905.546L2283.35 904.056C2284.16 902.845 2284.89 901.823 2285.55 900.989 2286.21 900.155 2286.85 899.489 2287.49 898.993 2288.12 898.497 2288.79 898.139 2289.5 897.921 2290.2 897.702 2291.01 897.593 2291.92 897.593Z" fill="#FF0000" fill-rule="evenodd"/><text fill="#000000" fill-opacity="0" font-family="Arial,Arial_MSFontService,sans-serif" font-size="30.9468" x="2279.68" y="924.671">𝑥</text><path d="M4.58333-5.6958e-06 4.58367 267.489-4.583 267.489-4.58333 5.6958e-06ZM13.7503 262.905 0.000360892 290.405-13.7497 262.905Z" fill="#FF0000" transform="matrix(1 0 0 -1 2092.5 800.905)"/><path d="M1979.47 578.027 2016.02 578.027 2013.23 590.469 2009.34 590.469C2009.23 588.388 2009.06 586.747 2008.83 585.544 2008.6 584.342 2008.28 583.478 2007.86 582.951 2007.44 582.424 2006.93 582.066 2006.34 581.877 2005.74 581.688 2004.85 581.593 2003.66 581.593L1991.18 581.593 1986.36 603.64 1993.94 603.64C1995.13 603.64 1996.11 603.478 1996.9 603.154 1997.68 602.829 1998.41 602.242 1999.08 601.391 1999.76 600.54 2000.6 599.087 2001.6 597.034L2005.28 597.034 2001.35 614.136 1997.79 614.136C1997.79 611.408 1997.7 609.699 1997.52 609.01 1997.35 608.321 1997.01 607.848 1996.51 607.591 1996.01 607.335 1995.02 607.206 1993.53 607.206L1985.59 607.206 1982.39 621.553C1981.82 624.093 1981.54 626.2 1981.54 627.875 1981.54 628.713 1981.67 629.368 1981.94 629.841 1982.21 630.314 1982.62 630.658 1983.16 630.874 1983.7 631.09 1984.63 631.253 1985.95 631.361L1985.51 633.346 1968.85 633.346 1969.3 631.361C1970.32 631.198 1971.09 630.935 1971.61 630.57 1972.12 630.206 1972.55 629.699 1972.9 629.051 1973.25 628.402 1973.58 627.612 1973.88 626.68 1974.17 625.748 1974.62 623.944 1975.21 621.269L1982.1 590.063C1982.7 587.361 1982.99 585.227 1982.99 583.66 1982.99 582.336 1982.68 581.417 1982.06 580.904 1981.44 580.391 1980.43 580.094 1979.02 580.012Z" fill="#FF0000" fill-rule="evenodd"/><text fill="#000000" fill-opacity="0" font-family="Arial,Arial_MSFontService,sans-serif" font-size="55.3198" x="1968.85" y="626.431">𝐹</text><path d="M2012.49 619.78C2013.21 619.78 2013.82 619.854 2014.34 620.003 2014.86 620.152 2015.32 620.385 2015.74 620.703 2016.16 621.021 2016.53 621.433 2016.86 621.939 2017.18 622.445 2017.52 623.056 2017.85 623.771 2018.03 624.208 2018.22 624.833 2018.42 625.647 2018.62 626.461 2018.83 627.405 2019.05 628.477 2019.26 629.549 2019.48 630.731 2019.7 632.021 2019.92 633.312 2020.14 634.662 2020.36 636.072 2020.57 637.482 2020.78 638.926 2020.98 640.406 2021.18 641.885 2021.37 643.34 2021.55 644.769 2023.04 642.823 2024.38 640.853 2025.57 638.857 2026.76 636.861 2027.77 634.975 2028.59 633.198 2029.42 631.421 2030.05 629.802 2030.48 628.343 2030.92 626.883 2031.13 625.717 2031.11 624.843 2031.11 623.969 2030.88 623.344 2030.42 622.967 2029.97 622.589 2029.2 622.371 2028.13 622.311L2028.52 620.405 2037.01 620.405 2038.05 622.133C2036.06 627.037 2033.74 631.768 2031.09 636.325 2028.44 640.882 2025.45 645.305 2022.11 649.594 2020.66 651.322 2019.36 652.811 2018.2 654.062 2017.03 655.313 2015.96 656.39 2014.98 657.294 2014 658.197 2013.08 658.937 2012.24 659.513 2011.4 660.089 2010.58 660.55 2009.78 660.898 2008.99 661.245 2008.2 661.494 2007.41 661.643 2006.63 661.792 2005.81 661.886 2004.96 661.926 2004.5 661.926 2003.95 661.876 2003.3 661.777 2002.66 661.677 2002.09 661.548 2001.59 661.389L2003.08 654.866 2005.79 654.866 2005.79 655.045C2005.79 656.395 2006.34 657.071 2007.43 657.071 2008.88 657.071 2010.35 656.51 2011.84 655.388 2013.33 654.266 2015.12 652.474 2017.23 650.011 2016.57 646.239 2016 642.977 2015.5 640.227 2015 637.477 2014.55 635.134 2014.15 633.198 2013.74 631.262 2013.37 629.688 2013.03 628.477 2012.69 627.266 2012.36 626.322 2012.05 625.647 2011.73 624.972 2011.41 624.51 2011.08 624.262 2010.75 624.014 2010.4 623.89 2010.02 623.89 2009.66 623.89 2009.34 623.935 2009.04 624.024 2008.74 624.113 2008.43 624.297 2008.11 624.575 2007.8 624.853 2007.45 625.245 2007.09 625.751 2006.72 626.258 2006.27 626.918 2005.73 627.732L2003.44 626.243C2004.29 624.992 2005.08 623.949 2005.79 623.115 2006.51 622.281 2007.22 621.621 2007.92 621.135 2008.63 620.648 2009.35 620.301 2010.08 620.092 2010.81 619.884 2011.62 619.78 2012.49 619.78Z" fill="#FF0000" fill-rule="evenodd"/><text fill="#000000" fill-opacity="0" font-family="Arial,Arial_MSFontService,sans-serif" font-size="42.146" x="2001.59" y="656.657">𝑦</text><path d="M1193.59 1082.47 1195.98 1082.47 1186.01 1127.34C1185.42 1130.01 1185.12 1132.01 1185.12 1133.34 1185.12 1134.42 1185.29 1135.2 1185.65 1135.69 1186 1136.17 1186.55 1136.42 1187.31 1136.42 1188.12 1136.42 1188.98 1136.08 1189.9 1135.42 1190.82 1134.76 1192.12 1133.5 1193.79 1131.63L1196.1 1133.9C1193.48 1136.66 1191.34 1138.54 1189.68 1139.56 1188.02 1140.57 1186.16 1141.08 1184.11 1141.08 1182.35 1141.08 1180.94 1140.43 1179.89 1139.15 1178.84 1137.87 1178.31 1136.23 1178.31 1134.23 1178.31 1132.42 1178.69 1129.8 1179.44 1126.36L1186.7 1093.9C1187.02 1092.47 1187.25 1091.33 1187.39 1090.48 1187.52 1089.63 1187.59 1088.84 1187.59 1088.11 1187.59 1087.3 1187.44 1086.68 1187.14 1086.26 1186.85 1085.84 1186.42 1085.54 1185.87 1085.35 1185.31 1085.16 1184.32 1085.03 1182.89 1084.95L1183.38 1082.84Z" fill-rule="evenodd"/><text fill="#000000" fill-opacity="0" font-family="Arial,Arial_MSFontService,sans-serif" font-size="58.6025" x="1178.31" y="1133.75">𝑙</text><path d="M1206.54 1131.03 1213.63 1131.03C1214.01 1132.92 1214.2 1134.78 1214.2 1136.62 1214.2 1138.51 1213.88 1140.24 1213.23 1141.81 1212.58 1143.37 1211.55 1144.93 1210.13 1146.49 1208.71 1148.04 1206.76 1149.75 1204.27 1151.61L1202.08 1149.14C1203.46 1147.84 1204.46 1146.68 1205.08 1145.64 1205.7 1144.6 1206.15 1143.41 1206.42 1142.09 1206.69 1140.77 1206.82 1139.1 1206.82 1137.1 1206.82 1135.05 1206.73 1133.03 1206.54 1131.03Z" fill-rule="evenodd"/><text fill="#000000" fill-opacity="0" font-family="Arial,Arial_MSFontService,sans-serif" font-size="20.5879" x="1202.08" y="1149.04">,</text><path d="M1257.46 1104.24C1254.97 1104.24 1252.66 1105.34 1250.53 1107.56 1248.39 1109.78 1246.69 1112.77 1245.4 1116.56 1244.12 1120.34 1243.48 1124.22 1243.48 1128.19 1243.48 1130.92 1243.88 1132.94 1244.69 1134.27 1245.5 1135.59 1246.72 1136.25 1248.34 1136.25 1250.66 1136.25 1253.05 1134.89 1255.51 1132.16 1257.97 1129.43 1260.26 1125.64 1262.36 1120.77 1262.82 1117.96 1263.05 1115.48 1263.05 1113.32 1263.05 1110.24 1262.6 1107.95 1261.69 1106.47 1260.79 1104.98 1259.38 1104.24 1257.46 1104.24ZM1257.74 1101.04C1260.77 1101.04 1263.14 1101.98 1264.85 1103.87 1266.57 1105.76 1267.52 1108.53 1267.71 1112.18L1268.08 1112.14 1273.39 1101.68 1280.4 1101.68 1279.99 1103.75C1276.64 1108.29 1272.7 1113.87 1268.16 1120.49 1267.48 1125.65 1267.14 1129.3 1267.14 1131.43 1267.14 1133.21 1267.35 1134.49 1267.75 1135.26 1268.16 1136.03 1268.83 1136.42 1269.78 1136.42 1270.54 1136.42 1271.39 1136.1 1272.35 1135.46 1273.31 1134.83 1274.35 1133.85 1275.45 1132.53L1277.8 1134.71C1275.53 1137.15 1273.56 1138.81 1271.89 1139.72 1270.21 1140.62 1268.48 1141.08 1266.7 1141.08 1263.11 1141.08 1261.31 1138.46 1261.31 1133.21 1261.31 1132.05 1261.39 1130.77 1261.55 1129.36L1261.15 1129.36C1258.36 1133.52 1255.73 1136.52 1253.24 1138.34 1250.76 1140.16 1248.1 1141.08 1245.26 1141.08 1243.29 1141.08 1241.63 1140.51 1240.28 1139.37 1238.92 1138.24 1237.92 1136.73 1237.28 1134.86 1236.63 1132.98 1236.3 1130.93 1236.3 1128.72 1236.3 1123.88 1237.22 1119.29 1239.06 1114.96 1240.9 1110.62 1243.45 1107.22 1246.72 1104.74 1249.99 1102.27 1253.66 1101.04 1257.74 1101.04Z" fill-rule="evenodd"/><text fill="#000000" fill-opacity="0" font-family="Arial,Arial_MSFontService,sans-serif" font-size="40.041" x="1236.3" y="1136.07">𝛼</text><path d="M0.00611646-2.29166 387.199-1.25824 387.187 3.32508-0.00611646 2.29166ZM382.647-12.7288 410.11 1.09459 382.573 14.7711Z" transform="matrix(-1.83697e-16 -1 -1 1.83697e-16 454.594 1450.61)"/><path d="M375.81 1101.04C376.918 1101.04 377.863 1101.18 378.647 1101.48 379.187 1101.7 379.728 1102.06 380.268 1102.56 380.809 1103.06 381.288 1103.75 381.707 1104.64 382.126 1105.53 382.49 1106.53 382.801 1107.64 383.112 1108.75 383.456 1110.34 383.835 1112.42 384.483 1115.91 385.111 1119.58 385.719 1123.43 386.327 1127.28 386.847 1130.85 387.279 1134.15 389.9 1130.36 392.122 1126.66 393.946 1123.04 395.77 1119.42 397.08 1116.27 397.877 1113.6 398.674 1110.92 399.073 1108.75 399.073 1107.07 399.073 1105.8 398.803 1104.94 398.262 1104.48 397.722 1104.02 396.803 1103.75 395.506 1103.67L395.912 1101.68 406.57 1101.68 407.665 1103.71C405.611 1109.33 402.828 1115.34 399.316 1121.75 395.858 1128.01 391.899 1134.25 387.441 1140.47 383.173 1146.39 379.62 1150.67 376.783 1153.32 374.81 1155.13 372.906 1156.42 371.068 1157.21 369.609 1157.8 368.056 1158.1 366.408 1158.1 365.84 1158.1 365.185 1158.05 364.442 1157.96 363.699 1157.86 363.125 1157.73 362.72 1157.57L364.462 1149.71 367.664 1149.71C367.664 1151.44 368.259 1152.3 369.447 1152.3 371.014 1152.3 372.838 1151.32 374.919 1149.36 376.999 1147.41 379.444 1144.45 382.254 1140.51 381.47 1135.78 380.403 1130.08 379.052 1123.41 377.62 1116.27 376.675 1111.86 376.215 1110.15 375.648 1108.1 375.054 1106.79 374.432 1106.22 374.054 1105.87 373.581 1105.7 373.014 1105.7 372.149 1105.7 371.339 1106.05 370.582 1106.75 369.826 1107.45 368.893 1108.67 367.786 1110.4L365.151 1108.65C367.016 1105.87 368.758 1103.91 370.379 1102.76 372.001 1101.61 373.811 1101.04 375.81 1101.04Z" fill-rule="evenodd"/><text fill="#000000" fill-opacity="0" font-family="Arial,Arial_MSFontService,sans-serif" font-size="57.0625" x="362.72" y="1150.97">𝑦</text><rect x="1372.5" y="1681.5" width="162" height="162" stroke="#000000" stroke-width="9.16667" stroke-miterlimit="8" fill="#E7E6E6"/><path d="M1429.82 1508.47 1440.44 1508.47 1442.87 1540.44C1446.68 1534.23 1449.43 1529.5 1451.11 1526.26 1452.8 1523.02 1454.05 1520.21 1454.86 1517.85 1455.67 1515.48 1456.3 1513.02 1456.73 1510.45L1457.17 1508.47 1463.01 1508.47 1465.97 1540.48C1470.18 1534.49 1473.39 1529.25 1475.59 1524.78 1477.8 1520.31 1478.9 1516.67 1478.9 1513.86 1478.9 1512.59 1478.63 1511.72 1478.09 1511.26 1477.55 1510.8 1476.63 1510.53 1475.33 1510.45L1475.73 1508.47 1486.19 1508.47 1487.29 1510.49C1486.34 1512.9 1485.58 1514.75 1485.02 1516.05 1484.45 1517.34 1483.71 1518.9 1482.79 1520.73 1481.87 1522.55 1480.9 1524.37 1479.87 1526.18 1478.84 1527.99 1477.63 1529.98 1476.24 1532.16 1474.85 1534.33 1473.29 1536.69 1471.56 1539.25 1469.83 1541.8 1467.79 1544.67 1465.44 1547.86L1460.62 1547.86 1458.96 1530.92C1458.82 1529.6 1458.68 1527.87 1458.53 1525.73 1458.38 1523.6 1458.28 1521.95 1458.23 1520.79L1457.78 1520.75C1456.32 1524.34 1454.34 1528.34 1451.82 1532.74 1449.31 1537.15 1446.2 1542.19 1442.5 1547.86L1437.07 1547.86 1433.99 1517.34C1433.83 1515.78 1433.63 1514.51 1433.38 1513.53 1433.14 1512.56 1432.74 1511.83 1432.17 1511.34 1431.6 1510.86 1430.67 1510.56 1429.37 1510.45Z" fill-rule="evenodd"/><text fill="#000000" fill-opacity="0" font-family="Arial,Arial_MSFontService,sans-serif" font-size="39.3926" x="1429.37" y="1542.94">𝑤</text><path d="M1193.4 1728.34 1195.75 1728.34 1188.78 1756.43 1189.26 1756.59C1191.83 1753.19 1194.25 1750.72 1196.54 1749.19 1198.82 1747.67 1201.12 1746.9 1203.45 1746.9 1205.96 1746.9 1207.89 1747.63 1209.24 1749.07 1210.59 1750.52 1211.27 1752.52 1211.27 1755.09 1211.27 1756.79 1210.88 1759.21 1210.09 1762.34L1207.46 1772.96C1206.73 1775.91 1206.36 1777.99 1206.36 1779.2 1206.36 1780.28 1206.54 1781.07 1206.89 1781.55 1207.24 1782.04 1207.8 1782.28 1208.55 1782.28 1209.36 1782.28 1210.23 1781.95 1211.15 1781.29 1212.07 1780.63 1213.36 1779.37 1215.04 1777.5L1217.35 1779.77C1214.75 1782.5 1212.63 1784.38 1210.96 1785.4 1209.3 1786.43 1207.43 1786.94 1205.35 1786.94 1203.6 1786.94 1202.2 1786.32 1201.16 1785.08 1200.12 1783.84 1199.6 1782.23 1199.6 1780.26 1199.6 1778.5 1200.04 1775.92 1200.93 1772.52L1202.68 1765.51C1203.3 1762.99 1203.72 1761.11 1203.93 1759.85 1204.15 1758.6 1204.26 1757.62 1204.26 1756.91 1204.26 1755 1203.95 1753.64 1203.33 1752.84 1202.7 1752.04 1201.69 1751.65 1200.29 1751.65 1199.18 1751.65 1197.95 1752.1 1196.6 1753.02 1195.25 1753.94 1193.83 1755.34 1192.34 1757.22 1190.86 1759.1 1189.67 1760.89 1188.8 1762.61 1187.92 1764.32 1187.22 1766.37 1186.71 1768.75L1183.02 1786.3 1176.01 1786.3 1186.43 1739.97C1187.07 1737.08 1187.4 1735.08 1187.4 1733.98 1187.4 1732.84 1187.05 1732.04 1186.36 1731.58 1185.68 1731.12 1184.44 1730.87 1182.66 1730.81L1183.14 1728.71Z" fill-rule="evenodd"/><text fill="#000000" fill-opacity="0" font-family="Arial,Arial_MSFontService,sans-serif" font-size="58.6025" x="1176.01" y="1779.62">ℎ</text><path d="M0 0 0.000360892 142.99" stroke="#000000" stroke-width="4.58333" stroke-miterlimit="8" fill="none" fill-rule="evenodd" transform="matrix(1 0 0 -1 1370.5 1680.49)"/><path d="M0 0 0.000360892 142.99" stroke="#000000" stroke-width="4.58333" stroke-miterlimit="8" fill="none" fill-rule="evenodd" transform="matrix(1 0 0 -1 1536.5 1682.49)"/><path d="M1393.42 1570.21 1513.54 1570.21 1513.54 1574.79 1393.42 1574.79ZM1398 1586.25 1370.5 1572.5 1398 1558.75ZM1508.96 1558.75 1536.46 1572.5 1508.96 1586.25Z"/><path d="M0 0 0.000360892 142.99" stroke="#000000" stroke-width="4.58333" stroke-miterlimit="8" fill="none" fill-rule="evenodd" transform="matrix(-1.83697e-16 -1 -1 1.83697e-16 1371.49 1846.5)"/><path d="M0 0 0.000360892 142.99" stroke="#000000" stroke-width="4.58333" stroke-miterlimit="8" fill="none" fill-rule="evenodd" transform="matrix(-1.83697e-16 -1 -1 1.83697e-16 1372.49 1679.5)"/><path d="M1260.21 1822.54 1260.21 1702.42 1264.79 1702.42 1264.79 1822.54ZM1276.25 1817.96 1262.5 1845.46 1248.75 1817.96ZM1248.75 1707 1262.5 1679.5 1276.25 1707Z"/><path d="M455.5 1445.21 2378.39 1445.21 2378.39 1449.79 455.5 1449.79ZM2373.81 1433.75 2401.31 1447.5 2373.81 1461.25Z"/><path d="M2073.87 788.937 1991.5 711.5" stroke="#000000" stroke-width="4.58333" stroke-miterlimit="8" fill="none" fill-rule="evenodd"/><path d="M476.369 1348.78 519.582 1347.96 519.523 1347.96 584.336 1345.09 584.273 1345.09 647.836 1340.53 647.778 1340.53 710.09 1334.47 710.028 1334.48 771.091 1326.85 771.032 1326.86 830.907 1317.8 830.846 1317.81 889.471 1307.31 889.413 1307.32 946.851 1295.51 946.789 1295.52 1003.04 1282.33 1002.98 1282.35 1058.04 1267.91 1057.98 1267.92 1111.86 1252.24 1111.8 1252.25 1164.61 1235.38 1164.56 1235.4 1216.19 1217.46 1216.13 1217.48 1266.69 1198.42 1266.64 1198.44 1316.08 1178.38 1316.02 1178.4 1364.4 1157.34 1364.35 1157.36 1411.66 1135.36 1411.61 1135.38 1457.86 1112.51 1457.81 1112.53 1503.06 1088.84 1503.01 1088.87 1547.2 1064.37 1547.16 1064.4 1590.35 1039.21 1590.3 1039.23 1632.55 1013.36 1632.49 1013.4 1713.93 959.712 1713.85 959.763 1791.6 904.013 1791.53 904.066 1865.53 846.504 1865.47 846.554 1935.97 787.617 1935.91 787.665 1985.88 743.053 1988.93 746.472 1938.94 791.109 1868.38 850.096 1794.31 907.711 1716.49 963.513 1634.98 1017.25 1592.68 1043.15 1549.45 1068.37 1505.21 1092.89 1459.91 1116.6 1413.62 1139.5 1366.25 1161.53 1317.83 1182.61 1268.34 1202.7 1217.72 1221.78 1166.04 1239.74 1113.17 1256.63 1059.24 1272.33 1004.11 1286.79 947.805 1299.99 890.308 1311.81 831.623 1322.32 771.688 1331.4 710.565 1339.03 648.193 1345.1 584.57 1349.66 519.697 1352.54 476.456 1353.36ZM481.255 1364.73 453.5 1351.5 480.735 1337.23ZM1974.83 737.558 2004.5 729.5 1993.14 758.072Z"/></g></svg>