<svg width="2592" height="1252" xmlns="http://www.w3.org/2000/svg" xmlns:xlink="http://www.w3.org/1999/xlink" overflow="hidden"><defs><clipPath id="clip0"><rect x="244" y="716" width="2592" height="1252"/></clipPath></defs><g clip-path="url(#clip0)" transform="translate(-244 -716)"><path d="M458.5 1153.21 2784.68 1153.21 2784.68 1157.79 458.5 1157.79ZM2780.09 1141.75 2807.59 1155.5 2780.09 1169.25Z"/><path d="M2679.52 1234.05C2680.36 1234.05 2681.09 1234.15 2681.73 1234.34 2682.36 1234.53 2682.92 1234.82 2683.41 1235.21 2683.9 1235.6 2684.33 1236.11 2684.71 1236.73 2685.08 1237.35 2685.45 1238.19 2685.8 1239.26 2686.15 1240.33 2686.48 1241.65 2686.79 1243.23 2687.1 1244.81 2687.38 1246.46 2687.62 1248.16L2688.03 1248.16C2690.62 1244.51 2692.59 1241.84 2693.93 1240.15 2695.26 1238.46 2696.39 1237.21 2697.31 1236.38 2698.23 1235.56 2699.11 1234.98 2699.96 1234.64 2700.82 1234.3 2701.94 1234.14 2703.35 1234.14 2704.62 1234.14 2705.66 1234.3 2706.47 1234.62L2704.85 1241.96 2702.01 1241.96C2701.85 1240.82 2701.38 1240.25 2700.59 1240.25 2700.35 1240.25 2700.09 1240.3 2699.82 1240.38 2699.55 1240.46 2699.22 1240.63 2698.83 1240.9 2698.44 1241.17 2697.86 1241.7 2697.11 1242.48 2696.35 1243.27 2695.5 1244.23 2694.55 1245.36 2693.61 1246.5 2692.64 1247.68 2691.64 1248.93L2688.88 1252.37C2689.37 1254.97 2689.83 1257.21 2690.26 1259.1 2690.69 1260.99 2691.08 1262.57 2691.41 1263.82 2691.75 1265.08 2692.05 1266.07 2692.3 1266.8 2692.56 1267.53 2692.84 1268.08 2693.14 1268.44 2693.43 1268.81 2693.74 1269.06 2694.05 1269.21 2694.36 1269.36 2694.72 1269.43 2695.12 1269.43 2695.85 1269.43 2696.56 1269.15 2697.25 1268.58 2697.94 1268.02 2698.93 1266.73 2700.23 1264.73L2702.86 1266.48C2700.97 1269.29 2699.26 1271.26 2697.74 1272.41 2696.21 1273.56 2694.39 1274.14 2692.28 1274.14 2691.12 1274.14 2690.14 1273.93 2689.33 1273.51 2688.52 1273.09 2687.81 1272.42 2687.22 1271.5 2686.62 1270.58 2686.1 1269.15 2685.64 1267.21 2684.8 1263.75 2684.29 1261.1 2684.1 1259.26L2683.69 1259.26C2680.83 1263.29 2678.7 1266.18 2677.31 1267.93 2675.92 1269.69 2674.77 1270.99 2673.86 1271.83 2672.96 1272.66 2672.08 1273.25 2671.23 1273.59 2670.38 1273.93 2669.25 1274.1 2667.85 1274.1 2666.58 1274.1 2665.54 1273.93 2664.73 1273.61L2666.35 1266.27 2669.18 1266.27C2669.35 1267.41 2669.82 1267.98 2670.6 1267.98 2670.98 1267.98 2671.38 1267.87 2671.8 1267.67 2672.22 1267.47 2672.82 1266.98 2673.6 1266.21 2674.39 1265.44 2675.47 1264.23 2676.84 1262.59 2678.22 1260.94 2680.22 1258.47 2682.84 1255.17 2682.44 1253.03 2682.02 1250.98 2681.59 1249.01 2681.15 1247.04 2680.71 1245.2 2680.25 1243.5 2679.79 1241.79 2679.41 1240.68 2679.11 1240.15 2678.82 1239.63 2678.5 1239.26 2678.16 1239.06 2677.82 1238.86 2677.4 1238.76 2676.88 1238.76 2676.32 1238.76 2675.8 1238.88 2675.34 1239.14 2674.89 1239.4 2674.39 1239.84 2673.84 1240.48 2673.3 1241.11 2672.59 1242.11 2671.7 1243.46L2669.06 1241.71C2670.76 1239.15 2672.4 1237.23 2673.97 1235.96 2675.53 1234.69 2677.38 1234.05 2679.52 1234.05Z" fill-rule="evenodd"/><text fill="#000000" fill-opacity="0" font-family="Arial,Arial_MSFontService,sans-serif" font-size="40.0815" x="2664.73" y="1269.13">𝑥</text><path d="M0 0 0.000360892 356.405" stroke="#000000" stroke-width="4.58333" stroke-miterlimit="8" fill="none" fill-rule="evenodd" transform="matrix(1 0 0 -1 2227.5 1487.91)"/><path d="M0 0 0.000360892 389.405" stroke="#000000" stroke-width="4.58333" stroke-miterlimit="8" fill="none" fill-rule="evenodd" transform="matrix(1 0 0 -1 459.5 1487.91)"/><path d="M458.5 1037.5 458.5 1280.06" stroke="#000000" stroke-width="9.16667" stroke-miterlimit="8" fill="none" fill-rule="evenodd"/><path d="M403.5 1044.5 458.5 1099.5" stroke="#000000" stroke-width="4.58333" stroke-miterlimit="8" fill="none" fill-rule="evenodd"/><path d="M403.5 1099.5 458.5 1154.5" stroke="#000000" stroke-width="4.58333" stroke-miterlimit="8" fill="none" fill-rule="evenodd"/><path d="M403.5 1154.5 458.5 1209.5" stroke="#000000" stroke-width="4.58333" stroke-miterlimit="8" fill="none" fill-rule="evenodd"/><path d="M403.5 1209.5 458.5 1264.5" stroke="#000000" stroke-width="4.58333" stroke-miterlimit="8" fill="none" fill-rule="evenodd"/><rect x="458.5" y="1129.5" width="1766" height="52.9999" stroke="#000000" stroke-width="9.16667" stroke-miterlimit="8" fill="#E7E6E6"/><path d="M5.22437e-06-4.58333 293.694-4.583 293.694 4.58367-5.22437e-06 4.58333ZM289.111-13.7497 316.611 0.000360892 289.111 13.7503Z" fill="#FF0000" transform="matrix(1 0 0 -1 2228.5 1155.5)"/><path d="M2398.57 1209.37 2435.13 1209.37 2432.33 1221.81 2428.44 1221.81C2428.33 1219.73 2428.16 1218.09 2427.93 1216.89 2427.7 1215.68 2427.38 1214.82 2426.96 1214.29 2426.54 1213.76 2426.03 1213.41 2425.44 1213.22 2424.85 1213.03 2423.95 1212.93 2422.77 1212.93L2410.28 1212.93 2405.46 1234.98 2413.04 1234.98C2414.23 1234.98 2415.21 1234.82 2416 1234.49 2416.78 1234.17 2417.51 1233.58 2418.19 1232.73 2418.86 1231.88 2419.7 1230.43 2420.7 1228.37L2424.39 1228.37 2420.46 1245.48 2416.89 1245.48C2416.89 1242.75 2416.8 1241.04 2416.63 1240.35 2416.45 1239.66 2416.11 1239.19 2415.61 1238.93 2415.11 1238.68 2414.12 1238.55 2412.63 1238.55L2404.69 1238.55 2401.49 1252.89C2400.92 1255.43 2400.64 1257.54 2400.64 1259.22 2400.64 1260.05 2400.77 1260.71 2401.04 1261.18 2401.31 1261.65 2401.72 1262 2402.26 1262.22 2402.8 1262.43 2403.73 1262.59 2405.05 1262.7L2404.61 1264.69 2387.95 1264.69 2388.4 1262.7C2389.42 1262.54 2390.19 1262.28 2390.71 1261.91 2391.22 1261.55 2391.65 1261.04 2392.01 1260.39 2392.36 1259.74 2392.68 1258.95 2392.98 1258.02 2393.27 1257.09 2393.72 1255.28 2394.32 1252.61L2401.2 1221.4C2401.8 1218.7 2402.1 1216.57 2402.1 1215 2402.1 1213.68 2401.79 1212.76 2401.16 1212.24 2400.54 1211.73 2399.53 1211.43 2398.12 1211.35Z" fill="#FF0000" fill-rule="evenodd"/><text fill="#000000" fill-opacity="0" font-family="Arial,Arial_MSFontService,sans-serif" font-size="55.3198" x="2387.95" y="1257.77">𝐹</text><path d="M2433.17 1251.12C2434.27 1251.12 2435.16 1251.36 2435.85 1251.84 2436.55 1252.31 2437.12 1253.01 2437.58 1253.92 2438.04 1254.83 2438.42 1255.96 2438.71 1257.3 2439.01 1258.64 2439.33 1260.18 2439.67 1261.9L2440.05 1261.9C2441.25 1260.33 2442.28 1258.97 2443.15 1257.82 2444.03 1256.67 2444.8 1255.7 2445.49 1254.9 2446.17 1254.11 2446.79 1253.46 2447.34 1252.97 2447.88 1252.47 2448.41 1252.09 2448.93 1251.82 2449.45 1251.55 2449.98 1251.37 2450.52 1251.27 2451.07 1251.17 2451.68 1251.12 2452.35 1251.12 2453.35 1251.12 2454.25 1251.3 2455.07 1251.66L2453.58 1257.52 2451.1 1257.52C2451.04 1256.67 2450.73 1256.24 2450.15 1256.24 2449.93 1256.24 2449.69 1256.28 2449.44 1256.36 2449.18 1256.44 2448.87 1256.6 2448.51 1256.84 2448.16 1257.08 2447.74 1257.41 2447.28 1257.84 2446.81 1258.26 2446.26 1258.82 2445.62 1259.5 2444.99 1260.19 2444.26 1261.03 2443.45 1262.02 2442.64 1263.01 2441.7 1264.19 2440.65 1265.54 2441.19 1268.28 2441.65 1270.47 2442.03 1272.12 2442.42 1273.77 2442.79 1275.03 2443.15 1275.9 2443.51 1276.78 2443.87 1277.35 2444.22 1277.61 2444.58 1277.88 2444.99 1278.02 2445.44 1278.02 2445.78 1278.02 2446.1 1277.98 2446.38 1277.9 2446.67 1277.82 2446.97 1277.64 2447.28 1277.38 2447.58 1277.11 2447.93 1276.72 2448.3 1276.21 2448.68 1275.71 2449.13 1275.04 2449.64 1274.2L2451.88 1275.66C2451 1276.97 2450.23 1278.05 2449.56 1278.88 2448.88 1279.71 2448.22 1280.37 2447.59 1280.85 2446.95 1281.32 2446.3 1281.65 2445.62 1281.81 2444.95 1281.98 2444.17 1282.07 2443.3 1282.07 2442.55 1282.07 2441.87 1281.96 2441.27 1281.75 2440.68 1281.55 2440.16 1281.16 2439.73 1280.61 2439.43 1280.27 2439.15 1279.82 2438.89 1279.25 2438.63 1278.69 2438.4 1278.08 2438.18 1277.42 2437.96 1276.77 2437.76 1276.09 2437.58 1275.38 2437.4 1274.68 2437.25 1274.02 2437.13 1273.4 2437.02 1272.78 2436.92 1272.23 2436.85 1271.75 2436.78 1271.26 2436.74 1270.9 2436.72 1270.66L2436.39 1270.66C2435.2 1272.25 2434.16 1273.63 2433.28 1274.81 2432.39 1276 2431.59 1277.01 2430.88 1277.85 2430.17 1278.7 2429.52 1279.39 2428.94 1279.94 2428.37 1280.48 2427.8 1280.92 2427.25 1281.23 2426.69 1281.55 2426.12 1281.77 2425.53 1281.89 2424.95 1282.01 2424.3 1282.07 2423.58 1282.07 2422.55 1282.07 2421.67 1281.89 2420.93 1281.53L2422.3 1275.72 2424.83 1275.72C2424.89 1276.6 2425.22 1277.03 2425.82 1277.03 2426.03 1277.01 2426.25 1276.97 2426.46 1276.91 2426.67 1276.85 2426.91 1276.73 2427.19 1276.54 2427.46 1276.35 2427.82 1276.06 2428.24 1275.65 2428.67 1275.24 2429.21 1274.68 2429.87 1273.95 2430.52 1273.23 2431.33 1272.32 2432.28 1271.23 2433.23 1270.13 2434.37 1268.78 2435.71 1267.17 2435.35 1265.51 2435.03 1264.06 2434.77 1262.83 2434.5 1261.59 2434.25 1260.54 2434.02 1259.65 2433.79 1258.77 2433.57 1258.05 2433.35 1257.49 2433.13 1256.94 2432.91 1256.5 2432.68 1256.17 2432.45 1255.84 2432.21 1255.61 2431.94 1255.47 2431.67 1255.33 2431.36 1255.25 2431 1255.23 2430.66 1255.23 2430.35 1255.29 2430.06 1255.39 2429.77 1255.5 2429.48 1255.7 2429.17 1255.98 2428.86 1256.25 2428.52 1256.64 2428.15 1257.14 2427.79 1257.63 2427.37 1258.28 2426.89 1259.07L2424.6 1257.58C2425.41 1256.37 2426.14 1255.35 2426.8 1254.52 2427.45 1253.68 2428.1 1253.02 2428.74 1252.52 2429.37 1252.02 2430.04 1251.67 2430.75 1251.45 2431.45 1251.23 2432.26 1251.12 2433.17 1251.12Z" fill="#FF0000" fill-rule="evenodd"/><text fill="#000000" fill-opacity="0" font-family="Arial,Arial_MSFontService,sans-serif" font-size="30.9468" x="2420.93" y="1278.2">𝑥</text><path d="M4.58333-5.6958e-06 4.58367 267.489-4.583 267.489-4.58333 5.6958e-06ZM13.7503 262.905 0.000360892 290.405-13.7497 262.905Z" fill="#FF0000" transform="matrix(1 0 0 -1 2233.5 1154.91)"/><path d="M2120.72 931.554 2157.27 931.554 2154.48 943.996 2150.59 943.996C2150.48 941.915 2150.31 940.274 2150.08 939.072 2149.85 937.869 2149.53 937.005 2149.11 936.478 2148.69 935.951 2148.18 935.593 2147.59 935.404 2146.99 935.215 2146.1 935.12 2144.91 935.12L2132.43 935.12 2127.61 957.167 2135.19 957.167C2136.38 957.167 2137.36 957.005 2138.14 956.681 2138.93 956.357 2139.66 955.769 2140.33 954.918 2141.01 954.067 2141.85 952.615 2142.85 950.561L2146.53 950.561 2142.6 967.664 2139.04 967.664C2139.04 964.935 2138.95 963.226 2138.77 962.537 2138.6 961.848 2138.26 961.375 2137.76 961.119 2137.26 960.862 2136.27 960.734 2134.78 960.734L2126.84 960.734 2123.64 975.08C2123.07 977.62 2122.78 979.727 2122.78 981.403 2122.78 982.24 2122.92 982.895 2123.19 983.368 2123.46 983.841 2123.87 984.185 2124.41 984.402 2124.95 984.618 2125.88 984.78 2127.2 984.888L2126.76 986.874 2110.1 986.874 2110.55 984.888C2111.57 984.726 2112.34 984.462 2112.86 984.098 2113.37 983.733 2113.8 983.226 2114.15 982.578 2114.5 981.929 2114.83 981.139 2115.13 980.207 2115.42 979.275 2115.87 977.471 2116.46 974.797L2123.35 943.591C2123.95 940.889 2124.24 938.754 2124.24 937.187 2124.24 935.863 2123.93 934.945 2123.31 934.431 2122.69 933.918 2121.68 933.621 2120.27 933.54Z" fill="#FF0000" fill-rule="evenodd"/><text fill="#000000" fill-opacity="0" font-family="Arial,Arial_MSFontService,sans-serif" font-size="55.3198" x="2110.1" y="979.959">𝐹</text><path d="M2153.74 973.307C2154.46 973.307 2155.07 973.381 2155.59 973.53 2156.1 973.679 2156.57 973.912 2156.99 974.23 2157.41 974.548 2157.78 974.96 2158.11 975.466 2158.43 975.973 2158.77 976.583 2159.1 977.298 2159.28 977.735 2159.47 978.36 2159.67 979.174 2159.87 979.989 2160.08 980.932 2160.29 982.004 2160.51 983.076 2160.73 984.258 2160.95 985.549 2161.17 986.839 2161.39 988.189 2161.61 989.599 2161.82 991.009 2162.03 992.454 2162.23 993.933 2162.43 995.412 2162.62 996.867 2162.8 998.297 2164.29 996.351 2165.63 994.38 2166.82 992.384 2168.01 990.389 2169.02 988.502 2169.84 986.725 2170.66 984.948 2171.3 983.33 2171.73 981.87 2172.17 980.411 2172.38 979.244 2172.36 978.37 2172.36 977.497 2172.13 976.871 2171.67 976.494 2171.22 976.117 2170.45 975.898 2169.38 975.839L2169.77 973.932 2178.26 973.932 2179.3 975.66C2177.31 980.564 2174.99 985.295 2172.34 989.852 2169.69 994.41 2166.7 998.833 2163.36 1003.12 2161.91 1004.85 2160.61 1006.34 2159.45 1007.59 2158.28 1008.84 2157.21 1009.92 2156.23 1010.82 2155.25 1011.72 2154.33 1012.46 2153.49 1013.04 2152.64 1013.62 2151.83 1014.08 2151.03 1014.43 2150.24 1014.77 2149.45 1015.02 2148.66 1015.17 2147.88 1015.32 2147.06 1015.41 2146.21 1015.45 2145.75 1015.45 2145.2 1015.4 2144.55 1015.3 2143.91 1015.2 2143.34 1015.08 2142.84 1014.92L2144.33 1008.39 2147.04 1008.39 2147.04 1008.57C2147.04 1009.92 2147.59 1010.6 2148.68 1010.6 2150.13 1010.6 2151.6 1010.04 2153.09 1008.91 2154.58 1007.79 2156.37 1006 2158.48 1003.54 2157.82 999.766 2157.25 996.505 2156.75 993.754 2156.25 991.004 2155.8 988.661 2155.4 986.725 2154.99 984.789 2154.62 983.215 2154.28 982.004 2153.94 980.793 2153.61 979.85 2153.3 979.174 2152.98 978.499 2152.65 978.038 2152.33 977.789 2152 977.541 2151.65 977.417 2151.27 977.417 2150.91 977.417 2150.58 977.462 2150.29 977.551 2149.99 977.641 2149.68 977.824 2149.36 978.102 2149.05 978.38 2148.7 978.772 2148.34 979.279 2147.97 979.785 2147.52 980.445 2146.98 981.259L2144.69 979.77C2145.54 978.519 2146.33 977.477 2147.04 976.643 2147.76 975.809 2148.47 975.149 2149.17 974.662 2149.87 974.176 2150.59 973.828 2151.33 973.62 2152.06 973.411 2152.87 973.307 2153.74 973.307Z" fill="#FF0000" fill-rule="evenodd"/><text fill="#000000" fill-opacity="0" font-family="Arial,Arial_MSFontService,sans-serif" font-size="42.146" x="2142.84" y="1010.18">𝑦</text><path d="M481.418 1434.21 2201.08 1434.21 2201.08 1438.79 481.418 1438.79ZM486 1450.25 458.5 1436.5 486 1422.75ZM2196.5 1422.75 2224 1436.5 2196.5 1450.25Z"/><path d="M1357.35 1349.72 1359.74 1349.72 1349.77 1394.59C1349.18 1397.26 1348.88 1399.26 1348.88 1400.58 1348.88 1401.67 1349.06 1402.45 1349.41 1402.94 1349.76 1403.42 1350.31 1403.66 1351.07 1403.66 1351.88 1403.66 1352.75 1403.33 1353.66 1402.67 1354.58 1402.01 1355.88 1400.75 1357.56 1398.88L1359.87 1401.15C1357.24 1403.91 1355.1 1405.79 1353.44 1406.81 1351.78 1407.82 1349.92 1408.33 1347.87 1408.33 1346.11 1408.33 1344.71 1407.68 1343.65 1406.4 1342.6 1405.12 1342.07 1403.48 1342.07 1401.48 1342.07 1399.67 1342.45 1397.05 1343.21 1393.61L1350.46 1361.15C1350.79 1359.72 1351.02 1358.58 1351.15 1357.73 1351.29 1356.88 1351.35 1356.09 1351.35 1355.36 1351.35 1354.55 1351.21 1353.93 1350.91 1353.51 1350.61 1353.09 1350.19 1352.79 1349.63 1352.6 1349.08 1352.41 1348.09 1352.28 1346.65 1352.19L1347.14 1350.09Z" fill-rule="evenodd"/><text fill="#000000" fill-opacity="0" font-family="Arial,Arial_MSFontService,sans-serif" font-size="58.6025" x="1342.07" y="1401">𝑙</text><path d="M0.00611646-2.29166 387.199-1.25824 387.187 3.32508-0.00611646 2.29166ZM382.647-12.7288 410.11 1.09459 382.573 14.7711Z" transform="matrix(-1.83697e-16 -1 -1 1.83697e-16 460.595 1154.61)"/><path d="M382.309 804.601C383.417 804.601 384.363 804.75 385.146 805.047 385.687 805.263 386.227 805.621 386.767 806.121 387.308 806.621 387.787 807.316 388.206 808.208 388.625 809.099 388.99 810.099 389.3 811.207 389.611 812.315 389.956 813.909 390.334 815.989 390.982 819.474 391.61 823.142 392.218 826.992 392.826 830.842 393.346 834.416 393.779 837.712 396.399 833.929 398.622 830.228 400.445 826.607 402.269 822.987 403.58 819.839 404.377 817.164 405.174 814.49 405.572 812.315 405.572 810.64 405.572 809.37 405.302 808.505 404.762 808.046 404.221 807.586 403.303 807.316 402.006 807.235L402.411 805.249 413.07 805.249 414.164 807.276C412.111 812.896 409.328 818.907 405.815 825.31 402.357 831.579 398.399 837.82 393.941 844.034 389.672 849.951 386.119 854.233 383.282 856.881 381.31 858.691 379.405 859.988 377.568 860.772 376.109 861.366 374.555 861.663 372.907 861.663 372.34 861.663 371.685 861.616 370.941 861.522 370.198 861.427 369.624 861.299 369.219 861.137L370.962 853.274 374.163 853.274C374.163 855.003 374.758 855.868 375.947 855.868 377.514 855.868 379.337 854.889 381.418 852.93 383.498 850.971 385.943 848.019 388.753 844.075 387.97 839.346 386.903 833.646 385.552 826.972 384.12 819.839 383.174 815.422 382.715 813.72 382.147 811.666 381.553 810.356 380.931 809.788 380.553 809.437 380.08 809.262 379.513 809.262 378.648 809.262 377.838 809.613 377.081 810.315 376.325 811.018 375.393 812.234 374.285 813.963L371.651 812.22C373.515 809.437 375.258 807.472 376.879 806.323 378.5 805.175 380.31 804.601 382.309 804.601Z" fill-rule="evenodd"/><text fill="#000000" fill-opacity="0" font-family="Arial,Arial_MSFontService,sans-serif" font-size="57.0625" x="369.219" y="854.531">𝑦</text><rect x="454.5" y="1775.5" width="161" height="163" stroke="#000000" stroke-width="9.16667" stroke-miterlimit="8" fill="#E7E6E6"/><path d="M510.924 1602.68 521.542 1602.68 523.974 1634.66C527.784 1628.45 530.533 1623.72 532.221 1620.47 533.91 1617.23 535.16 1614.43 535.97 1612.07 536.781 1609.7 537.402 1607.24 537.834 1604.67L538.28 1602.68 544.116 1602.68 547.075 1634.7C551.289 1628.7 554.498 1623.47 556.7 1619 558.902 1614.52 560.003 1610.88 560.003 1608.07 560.003 1606.8 559.733 1605.94 559.192 1605.48 558.652 1605.02 557.733 1604.75 556.436 1604.67L556.842 1602.68 567.298 1602.68 568.392 1604.71C567.446 1607.11 566.69 1608.97 566.122 1610.26 565.555 1611.56 564.812 1613.12 563.893 1614.94 562.975 1616.77 562.002 1618.58 560.975 1620.39 559.949 1622.2 558.74 1624.2 557.348 1626.37 555.957 1628.55 554.397 1630.91 552.667 1633.46 550.938 1636.02 548.898 1638.89 546.548 1642.08L541.725 1642.08 540.063 1625.14C539.928 1623.81 539.786 1622.08 539.638 1619.95 539.489 1617.81 539.388 1616.17 539.334 1615L538.888 1614.96C537.429 1618.56 535.443 1622.56 532.931 1626.96 530.418 1631.36 527.311 1636.4 523.609 1642.08L518.179 1642.08 515.099 1611.56C514.936 1609.99 514.734 1608.72 514.491 1607.75 514.247 1606.78 513.842 1606.05 513.275 1605.56 512.707 1605.07 511.775 1604.78 510.478 1604.67Z" fill-rule="evenodd"/><text fill="#000000" fill-opacity="0" font-family="Arial,Arial_MSFontService,sans-serif" font-size="39.3926" x="510.478" y="1637.15">𝑤</text><path d="M274.503 1822.56 276.853 1822.56 269.883 1850.64 270.369 1850.81C272.936 1847.4 275.361 1844.94 277.644 1843.41 279.927 1841.88 282.23 1841.12 284.554 1841.12 287.066 1841.12 288.998 1841.84 290.349 1843.29 291.7 1844.73 292.375 1846.74 292.375 1849.31 292.375 1851.01 291.984 1853.43 291.2 1856.56L288.566 1867.18C287.836 1870.12 287.472 1872.2 287.472 1873.42 287.472 1874.5 287.647 1875.28 287.998 1875.77 288.35 1876.26 288.904 1876.5 289.66 1876.5 290.471 1876.5 291.335 1876.17 292.254 1875.51 293.172 1874.85 294.469 1873.58 296.144 1871.72L298.455 1873.99C295.861 1876.72 293.733 1878.59 292.071 1879.62 290.41 1880.65 288.539 1881.16 286.458 1881.16 284.702 1881.16 283.304 1880.54 282.264 1879.3 281.224 1878.05 280.704 1876.45 280.704 1874.47 280.704 1872.72 281.149 1870.14 282.041 1866.73L283.784 1859.72C284.405 1857.21 284.824 1855.32 285.04 1854.07 285.256 1852.81 285.364 1851.83 285.364 1851.13 285.364 1849.21 285.053 1847.85 284.432 1847.06 283.811 1846.26 282.797 1845.86 281.393 1845.86 280.285 1845.86 279.055 1846.32 277.705 1847.24 276.354 1848.16 274.935 1849.56 273.449 1851.43 271.963 1853.31 270.781 1855.11 269.903 1856.82 269.025 1858.54 268.329 1860.59 267.816 1862.96L264.128 1880.51 257.117 1880.51 267.532 1834.19C268.181 1831.3 268.505 1829.3 268.505 1828.19 268.505 1827.06 268.16 1826.26 267.471 1825.8 266.782 1825.34 265.546 1825.08 263.763 1825.03L264.249 1822.92Z" fill-rule="evenodd"/><text fill="#000000" fill-opacity="0" font-family="Arial,Arial_MSFontService,sans-serif" font-size="58.6025" x="257.117" y="1873.84">ℎ</text><path d="M0 0 0.000360892 142.99" stroke="#000000" stroke-width="4.58333" stroke-miterlimit="8" fill="none" fill-rule="evenodd" transform="matrix(1 0 0 -1 452.5 1775.49)"/><path d="M0 0 0.000360892 142.99" stroke="#000000" stroke-width="4.58333" stroke-miterlimit="8" fill="none" fill-rule="evenodd" transform="matrix(1 0 0 -1 617.5 1777.49)"/><path d="M475.417 1664.21 595.544 1664.21 595.544 1668.79 475.417 1668.79ZM480 1680.25 452.5 1666.5 480 1652.75ZM590.961 1652.75 618.461 1666.5 590.961 1680.25Z"/><path d="M0 0 0.000360892 142.99" stroke="#000000" stroke-width="4.58333" stroke-miterlimit="8" fill="none" fill-rule="evenodd" transform="matrix(-1.83697e-16 -1 -1 1.83697e-16 452.489 1940.5)"/><path d="M0 0 0.000360892 142.99" stroke="#000000" stroke-width="4.58333" stroke-miterlimit="8" fill="none" fill-rule="evenodd" transform="matrix(-1.83697e-16 -1 -1 1.83697e-16 454.489 1773.5)"/><path d="M341.208 1916.54 341.209 1796.42 345.792 1796.42 345.792 1916.54ZM357.25 1911.96 343.5 1939.46 329.75 1911.96ZM329.75 1801 343.5 1773.5 357.25 1801Z"/></g></svg>