<svg width="2590" height="1314" xmlns="http://www.w3.org/2000/svg" xmlns:xlink="http://www.w3.org/1999/xlink" overflow="hidden"><defs><clipPath id="clip0"><rect x="245" y="717" width="2590" height="1314"/></clipPath></defs><g clip-path="url(#clip0)" transform="translate(-245 -717)"><path d="M459.503 1152.21 2783.73 1155.1 2783.73 1159.68 459.497 1156.79ZM2779.14 1143.63 2806.62 1157.42 2779.1 1171.13Z"/><path d="M2678.71 1235.21C2679.55 1235.21 2680.29 1235.31 2680.92 1235.5 2681.56 1235.68 2682.12 1235.97 2682.6 1236.37 2683.09 1236.76 2683.52 1237.26 2683.9 1237.89 2684.28 1238.51 2684.64 1239.35 2684.99 1240.42 2685.34 1241.49 2685.68 1242.81 2685.99 1244.39 2686.3 1245.97 2686.57 1247.61 2686.82 1249.32L2687.22 1249.32C2689.82 1245.67 2691.78 1243 2693.12 1241.31 2694.46 1239.62 2695.58 1238.37 2696.5 1237.54 2697.42 1236.72 2698.31 1236.14 2699.16 1235.8 2700.01 1235.46 2701.14 1235.29 2702.54 1235.29 2703.81 1235.29 2704.85 1235.45 2705.66 1235.78L2704.04 1243.11 2701.2 1243.11C2701.04 1241.98 2700.57 1241.41 2699.79 1241.41 2699.54 1241.41 2699.29 1241.45 2699.02 1241.53 2698.75 1241.61 2698.42 1241.79 2698.02 1242.06 2697.63 1242.33 2697.06 1242.86 2696.3 1243.64 2695.54 1244.42 2694.69 1245.38 2693.75 1246.52 2692.8 1247.65 2691.83 1248.84 2690.83 1250.09L2688.07 1253.53C2688.56 1256.12 2689.02 1258.37 2689.45 1260.26 2689.88 1262.15 2690.27 1263.72 2690.61 1264.98 2690.94 1266.24 2691.24 1267.23 2691.5 1267.96 2691.75 1268.69 2692.03 1269.23 2692.33 1269.6 2692.63 1269.96 2692.93 1270.22 2693.24 1270.37 2693.55 1270.52 2693.91 1270.59 2694.31 1270.59 2695.04 1270.59 2695.75 1270.31 2696.44 1269.74 2697.13 1269.17 2698.12 1267.89 2699.42 1265.89L2702.06 1267.63C2700.16 1270.44 2698.46 1272.42 2696.93 1273.57 2695.4 1274.72 2693.59 1275.29 2691.48 1275.29 2690.32 1275.29 2689.33 1275.08 2688.52 1274.66 2687.71 1274.25 2687.01 1273.58 2686.41 1272.66 2685.82 1271.74 2685.29 1270.31 2684.83 1268.36 2683.99 1264.9 2683.48 1262.26 2683.29 1260.42L2682.89 1260.42C2680.02 1264.45 2677.89 1267.34 2676.5 1269.09 2675.11 1270.85 2673.96 1272.15 2673.06 1272.98 2672.15 1273.82 2671.28 1274.41 2670.42 1274.75 2669.57 1275.08 2668.45 1275.25 2667.04 1275.25 2665.77 1275.25 2664.73 1275.09 2663.92 1274.77L2665.54 1267.43 2668.38 1267.43C2668.54 1268.57 2669.01 1269.13 2669.8 1269.13 2670.17 1269.13 2670.57 1269.03 2670.99 1268.83 2671.41 1268.63 2672.01 1268.14 2672.79 1267.37 2673.58 1266.6 2674.66 1265.39 2676.04 1263.74 2677.42 1262.09 2679.41 1259.62 2682.04 1256.33 2681.63 1254.19 2681.21 1252.14 2680.78 1250.17 2680.35 1248.19 2679.9 1246.36 2679.44 1244.65 2678.98 1242.95 2678.6 1241.84 2678.31 1241.31 2678.01 1240.78 2677.69 1240.42 2677.35 1240.22 2677.02 1240.01 2676.59 1239.91 2676.08 1239.91 2675.51 1239.91 2675 1240.04 2674.54 1240.3 2674.08 1240.55 2673.58 1241 2673.04 1241.64 2672.5 1242.27 2671.78 1243.26 2670.89 1244.61L2668.26 1242.87C2669.96 1240.3 2671.59 1238.39 2673.16 1237.12 2674.73 1235.85 2676.58 1235.21 2678.71 1235.21Z" fill-rule="evenodd"/><text fill="#000000" fill-opacity="0" font-family="Arial,Arial_MSFontService,sans-serif" font-size="40.0815" x="2663.92" y="1270.28">𝑥</text><path d="M2228.66 1489.71 2226.5 1157.5" stroke="#000000" stroke-width="4.58333" stroke-miterlimit="8" fill="none" fill-rule="evenodd"/><path d="M0 0 0.000360892 389.405" stroke="#000000" stroke-width="4.58333" stroke-miterlimit="8" fill="none" fill-rule="evenodd" transform="matrix(1 0 0 -1 458.5 1488.91)"/><path d="M457.5 1039.5 457.5 1282.06" stroke="#000000" stroke-width="9.16667" stroke-miterlimit="8" fill="none" fill-rule="evenodd"/><path d="M402.5 1046.5 457.5 1101.5" stroke="#000000" stroke-width="4.58333" stroke-miterlimit="8" fill="none" fill-rule="evenodd"/><path d="M402.5 1101.5 457.5 1156.5" stroke="#000000" stroke-width="4.58333" stroke-miterlimit="8" fill="none" fill-rule="evenodd"/><path d="M402.5 1156.5 457.5 1211.5" stroke="#000000" stroke-width="4.58333" stroke-miterlimit="8" fill="none" fill-rule="evenodd"/><path d="M402.5 1211.5 457.5 1266.5" stroke="#000000" stroke-width="4.58333" stroke-miterlimit="8" fill="none" fill-rule="evenodd"/><path d="M5.22437e-06-4.58333 293.694-4.583 293.694 4.58367-5.22437e-06 4.58333ZM289.111-13.7497 316.611 0.000360892 289.111 13.7503Z" fill="#FF0000" transform="matrix(1 0 0 -1 2227.5 1157.5)"/><path d="M2397.76 1210.52 2434.32 1210.52 2431.52 1222.97 2427.63 1222.97C2427.52 1220.89 2427.36 1219.24 2427.13 1218.04 2426.9 1216.84 2426.57 1215.98 2426.15 1215.45 2425.73 1214.92 2425.23 1214.56 2424.63 1214.37 2424.04 1214.19 2423.15 1214.09 2421.96 1214.09L2409.48 1214.09 2404.65 1236.14 2412.23 1236.14C2413.42 1236.14 2414.41 1235.98 2415.19 1235.65 2415.97 1235.33 2416.7 1234.74 2417.38 1233.89 2418.05 1233.04 2418.89 1231.59 2419.89 1229.53L2423.58 1229.53 2419.65 1246.63 2416.08 1246.63C2416.08 1243.91 2415.99 1242.2 2415.82 1241.51 2415.64 1240.82 2415.31 1240.35 2414.81 1240.09 2414.31 1239.83 2413.31 1239.7 2411.83 1239.7L2403.88 1239.7 2400.68 1254.05C2400.11 1256.59 2399.83 1258.7 2399.83 1260.37 2399.83 1261.21 2399.97 1261.87 2400.24 1262.34 2400.51 1262.81 2400.91 1263.16 2401.45 1263.37 2401.99 1263.59 2402.92 1263.75 2404.25 1263.86L2403.8 1265.84 2387.15 1265.84 2387.59 1263.86C2388.62 1263.7 2389.39 1263.43 2389.9 1263.07 2390.42 1262.7 2390.85 1262.2 2391.2 1261.55 2391.55 1260.9 2391.87 1260.11 2392.17 1259.18 2392.47 1258.25 2392.91 1256.44 2393.51 1253.77L2400.4 1222.56C2400.99 1219.86 2401.29 1217.73 2401.29 1216.16 2401.29 1214.83 2400.98 1213.92 2400.36 1213.4 2399.74 1212.89 2398.72 1212.59 2397.32 1212.51Z" fill="#FF0000" fill-rule="evenodd"/><text fill="#000000" fill-opacity="0" font-family="Arial,Arial_MSFontService,sans-serif" font-size="55.3198" x="2387.15" y="1258.93">𝐹</text><path d="M2432.37 1252.28C2433.46 1252.28 2434.35 1252.52 2435.05 1252.99 2435.74 1253.47 2436.32 1254.16 2436.77 1255.08 2437.23 1255.99 2437.61 1257.12 2437.91 1258.46 2438.2 1259.8 2438.52 1261.33 2438.86 1263.06L2439.25 1263.06C2440.44 1261.49 2441.47 1260.13 2442.34 1258.98 2443.22 1257.83 2444 1256.85 2444.68 1256.06 2445.37 1255.27 2445.98 1254.62 2446.53 1254.12 2447.08 1253.63 2447.61 1253.25 2448.12 1252.98 2448.64 1252.71 2449.17 1252.53 2449.72 1252.43 2450.26 1252.33 2450.87 1252.28 2451.55 1252.28 2452.54 1252.28 2453.44 1252.46 2454.26 1252.81L2452.77 1258.68 2450.3 1258.68C2450.24 1257.83 2449.92 1257.4 2449.34 1257.4 2449.13 1257.4 2448.89 1257.44 2448.63 1257.52 2448.37 1257.6 2448.06 1257.76 2447.71 1258 2447.35 1258.23 2446.94 1258.57 2446.47 1258.99 2446 1259.42 2445.45 1259.98 2444.82 1260.66 2444.18 1261.35 2443.46 1262.19 2442.64 1263.18 2441.83 1264.17 2440.9 1265.34 2439.84 1266.69 2440.38 1269.43 2440.84 1271.63 2441.23 1273.28 2441.61 1274.92 2441.99 1276.19 2442.34 1277.06 2442.7 1277.93 2443.06 1278.5 2443.42 1278.77 2443.77 1279.04 2444.18 1279.17 2444.64 1279.17 2444.98 1279.17 2445.29 1279.13 2445.58 1279.05 2445.86 1278.98 2446.16 1278.8 2446.47 1278.53 2446.78 1278.27 2447.12 1277.88 2447.5 1277.37 2447.87 1276.87 2448.32 1276.2 2448.84 1275.36L2451.07 1276.82C2450.2 1278.13 2449.42 1279.2 2448.75 1280.04 2448.07 1280.87 2447.42 1281.53 2446.78 1282 2446.15 1282.48 2445.49 1282.8 2444.82 1282.97 2444.14 1283.14 2443.37 1283.22 2442.49 1283.22 2441.74 1283.22 2441.06 1283.12 2440.47 1282.91 2439.87 1282.7 2439.36 1282.32 2438.92 1281.77 2438.62 1281.43 2438.34 1280.98 2438.09 1280.41 2437.83 1279.84 2437.59 1279.23 2437.37 1278.58 2437.15 1277.92 2436.95 1277.24 2436.77 1276.54 2436.6 1275.83 2436.45 1275.17 2436.33 1274.56 2436.21 1273.94 2436.11 1273.39 2436.05 1272.9 2435.98 1272.42 2435.93 1272.06 2435.91 1271.82L2435.58 1271.82C2434.39 1273.41 2433.35 1274.79 2432.47 1275.97 2431.59 1277.15 2430.79 1278.17 2430.07 1279.01 2429.36 1279.85 2428.71 1280.55 2428.14 1281.09 2427.56 1281.64 2427 1282.07 2426.44 1282.39 2425.88 1282.71 2425.31 1282.93 2424.73 1283.05 2424.14 1283.16 2423.49 1283.22 2422.78 1283.22 2421.74 1283.22 2420.86 1283.05 2420.13 1282.69L2421.5 1276.88 2424.03 1276.88C2424.09 1277.75 2424.41 1278.19 2425.01 1278.19 2425.23 1278.17 2425.44 1278.13 2425.65 1278.07 2425.86 1278.01 2426.1 1277.89 2426.38 1277.7 2426.66 1277.51 2427.01 1277.21 2427.44 1276.81 2427.86 1276.4 2428.41 1275.83 2429.06 1275.11 2429.72 1274.38 2430.52 1273.47 2431.47 1272.38 2432.43 1271.29 2433.57 1269.94 2434.9 1268.33 2434.54 1266.66 2434.23 1265.21 2433.96 1263.98 2433.69 1262.75 2433.44 1261.69 2433.22 1260.81 2432.99 1259.93 2432.76 1259.21 2432.55 1258.65 2432.33 1258.1 2432.1 1257.65 2431.88 1257.33 2431.65 1257 2431.4 1256.77 2431.13 1256.63 2430.86 1256.49 2430.55 1256.41 2430.19 1256.39 2429.85 1256.39 2429.54 1256.44 2429.25 1256.55 2428.97 1256.66 2428.67 1256.85 2428.36 1257.13 2428.05 1257.41 2427.72 1257.8 2427.35 1258.29 2426.98 1258.79 2426.56 1259.44 2426.08 1260.23L2423.79 1258.74C2424.6 1257.53 2425.34 1256.51 2425.99 1255.67 2426.65 1254.84 2427.29 1254.17 2427.93 1253.68 2428.56 1253.18 2429.23 1252.82 2429.94 1252.61 2430.64 1252.39 2431.45 1252.28 2432.37 1252.28Z" fill="#FF0000" fill-rule="evenodd"/><text fill="#000000" fill-opacity="0" font-family="Arial,Arial_MSFontService,sans-serif" font-size="30.9468" x="2420.13" y="1279.36">𝑥</text><path d="M4.58333-5.6958e-06 4.58367 267.489-4.583 267.489-4.58333 5.6958e-06ZM13.7503 262.905 0.000360892 290.405-13.7497 262.905Z" fill="#FF0000" transform="matrix(1 0 0 -1 2232.5 1155.91)"/><path d="M2119.91 932.711 2156.47 932.711 2153.67 945.153 2149.78 945.153C2149.67 943.073 2149.5 941.431 2149.27 940.229 2149.04 939.027 2148.72 938.162 2148.3 937.635 2147.88 937.109 2147.38 936.751 2146.78 936.561 2146.19 936.372 2145.29 936.278 2144.11 936.278L2131.62 936.278 2126.8 958.325 2134.38 958.325C2135.57 958.325 2136.55 958.162 2137.34 957.838 2138.12 957.514 2138.85 956.926 2139.53 956.075 2140.2 955.224 2141.04 953.772 2142.04 951.719L2145.73 951.719 2141.8 968.821 2138.23 968.821C2138.23 966.092 2138.14 964.383 2137.97 963.694 2137.79 963.005 2137.45 962.533 2136.95 962.276 2136.45 962.019 2135.46 961.891 2133.97 961.891L2126.03 961.891 2122.83 976.238C2122.26 978.777 2121.98 980.885 2121.98 982.56 2121.98 983.398 2122.11 984.053 2122.38 984.526 2122.65 984.998 2123.06 985.343 2123.6 985.559 2124.14 985.775 2125.07 985.937 2126.4 986.045L2125.95 988.031 2109.29 988.031 2109.74 986.045C2110.77 985.883 2111.54 985.62 2112.05 985.255 2112.56 984.89 2112.99 984.384 2113.35 983.735 2113.7 983.087 2114.02 982.297 2114.32 981.364 2114.62 980.432 2115.06 978.629 2115.66 975.954L2122.55 944.748C2123.14 942.046 2123.44 939.912 2123.44 938.345 2123.44 937.021 2123.13 936.102 2122.51 935.589 2121.88 935.075 2120.87 934.778 2119.47 934.697Z" fill="#FF0000" fill-rule="evenodd"/><text fill="#000000" fill-opacity="0" font-family="Arial,Arial_MSFontService,sans-serif" font-size="55.3198" x="2109.29" y="981.116">𝐹</text><path d="M2152.94 974.464C2153.65 974.464 2154.27 974.539 2154.78 974.688 2155.3 974.836 2155.76 975.07 2156.18 975.388 2156.6 975.705 2156.97 976.117 2157.3 976.624 2157.63 977.13 2157.96 977.741 2158.3 978.455 2158.48 978.892 2158.66 979.518 2158.86 980.332 2159.06 981.146 2159.27 982.089 2159.49 983.161 2159.71 984.234 2159.92 985.415 2160.14 986.706 2160.36 987.997 2160.58 989.347 2160.8 990.757 2161.02 992.167 2161.23 993.611 2161.42 995.09 2161.62 996.57 2161.81 998.024 2161.99 999.454 2163.48 997.508 2164.82 995.537 2166.01 993.542 2167.2 991.546 2168.21 989.66 2169.03 987.882 2169.86 986.105 2170.49 984.487 2170.93 983.027 2171.36 981.568 2171.57 980.401 2171.55 979.528 2171.55 978.654 2171.32 978.028 2170.87 977.651 2170.41 977.274 2169.64 977.055 2168.57 976.996L2168.96 975.09 2177.45 975.09 2178.49 976.817C2176.51 981.722 2174.19 986.453 2171.54 991.01 2168.89 995.567 2165.89 999.99 2162.56 1004.28 2161.11 1006.01 2159.8 1007.5 2158.64 1008.75 2157.48 1010 2156.41 1011.08 2155.42 1011.98 2154.44 1012.88 2153.53 1013.62 2152.68 1014.2 2151.84 1014.77 2151.02 1015.24 2150.22 1015.58 2149.43 1015.93 2148.64 1016.18 2147.86 1016.33 2147.07 1016.48 2146.25 1016.57 2145.4 1016.61 2144.94 1016.61 2144.39 1016.56 2143.75 1016.46 2143.1 1016.36 2142.53 1016.23 2142.03 1016.07L2143.52 1009.55 2146.23 1009.55 2146.23 1009.73C2146.23 1011.08 2146.78 1011.76 2147.87 1011.76 2149.32 1011.76 2150.79 1011.19 2152.28 1010.07 2153.77 1008.95 2155.57 1007.16 2157.67 1004.7 2157.02 1000.92 2156.44 997.662 2155.94 994.912 2155.45 992.161 2155 989.818 2154.59 987.882 2154.18 985.946 2153.81 984.373 2153.47 983.161 2153.13 981.95 2152.81 981.007 2152.49 980.332 2152.17 979.657 2151.85 979.195 2151.52 978.947 2151.19 978.699 2150.84 978.575 2150.46 978.575 2150.11 978.575 2149.78 978.619 2149.48 978.709 2149.18 978.798 2148.87 978.982 2148.56 979.26 2148.24 979.538 2147.9 979.93 2147.53 980.436 2147.16 980.942 2146.71 981.603 2146.17 982.417L2143.88 980.928C2144.73 979.677 2145.52 978.634 2146.23 977.8 2146.95 976.966 2147.66 976.306 2148.36 975.819 2149.07 975.333 2149.79 974.985 2150.52 974.777 2151.26 974.568 2152.06 974.464 2152.94 974.464Z" fill="#FF0000" fill-rule="evenodd"/><text fill="#000000" fill-opacity="0" font-family="Arial,Arial_MSFontService,sans-serif" font-size="42.146" x="2142.03" y="1011.34">𝑦</text><path d="M481.418 1435.21 2201.08 1435.21 2201.08 1439.79 481.418 1439.79ZM486 1451.25 458.5 1437.5 486 1423.75ZM2196.5 1423.75 2224 1437.5 2196.5 1451.25Z"/><path d="M1356.55 1350.88 1358.94 1350.88 1348.97 1395.74C1348.37 1398.42 1348.08 1400.42 1348.08 1401.74 1348.08 1402.82 1348.25 1403.61 1348.6 1404.09 1348.95 1404.58 1349.51 1404.82 1350.26 1404.82 1351.07 1404.82 1351.94 1404.49 1352.86 1403.83 1353.78 1403.17 1355.07 1401.9 1356.75 1400.04L1359.06 1402.31C1356.44 1405.07 1354.3 1406.95 1352.64 1407.96 1350.97 1408.98 1349.12 1409.48 1347.06 1409.48 1345.31 1409.48 1343.9 1408.84 1342.85 1407.56 1341.79 1406.27 1341.27 1404.63 1341.27 1402.63 1341.27 1400.82 1341.65 1398.2 1342.4 1394.77L1349.66 1362.31C1349.98 1360.88 1350.21 1359.74 1350.35 1358.88 1350.48 1358.03 1350.55 1357.24 1350.55 1356.51 1350.55 1355.7 1350.4 1355.09 1350.1 1354.67 1349.81 1354.25 1349.38 1353.95 1348.83 1353.76 1348.27 1353.57 1347.28 1353.43 1345.85 1353.35L1346.33 1351.24Z" fill-rule="evenodd"/><text fill="#000000" fill-opacity="0" font-family="Arial,Arial_MSFontService,sans-serif" font-size="58.6025" x="1341.27" y="1402.16">𝑙</text><path d="M0.00611646-2.29166 387.199-1.25824 387.187 3.32508-0.00611646 2.29166ZM382.647-12.7288 410.11 1.09459 382.573 14.7711Z" transform="matrix(-1.83697e-16 -1 -1 1.83697e-16 459.595 1155.61)"/><path d="M381.503 805.758C382.611 805.758 383.556 805.907 384.34 806.204 384.88 806.42 385.42 806.778 385.961 807.278 386.501 807.778 386.981 808.474 387.4 809.365 387.818 810.257 388.183 811.257 388.494 812.364 388.805 813.472 389.149 815.066 389.527 817.147 390.176 820.632 390.804 824.3 391.412 828.15 392.02 832 392.54 835.573 392.972 838.869 395.593 835.087 397.815 831.385 399.639 827.765 401.463 824.144 402.773 820.997 403.57 818.322 404.367 815.647 404.766 813.472 404.766 811.797 404.766 810.527 404.495 809.662 403.955 809.203 403.415 808.744 402.496 808.474 401.199 808.393L401.604 806.407 412.263 806.407 413.357 808.433C411.304 814.053 408.521 820.065 405.009 826.468 401.55 832.736 397.592 838.977 393.134 845.191 388.865 851.108 385.312 855.391 382.475 858.039 380.503 859.849 378.598 861.146 376.761 861.929 375.302 862.524 373.749 862.821 372.1 862.821 371.533 862.821 370.878 862.774 370.135 862.679 369.392 862.584 368.818 862.456 368.413 862.294L370.155 854.432 373.357 854.432C373.357 856.161 373.951 857.025 375.14 857.025 376.707 857.025 378.531 856.046 380.611 854.087 382.692 852.128 385.137 849.177 387.947 845.232 387.163 840.504 386.096 834.803 384.745 828.129 383.313 820.997 382.367 816.579 381.908 814.877 381.341 812.824 380.746 811.513 380.125 810.946 379.747 810.595 379.274 810.419 378.706 810.419 377.842 810.419 377.031 810.77 376.275 811.473 375.518 812.175 374.586 813.391 373.478 815.12L370.844 813.378C372.708 810.595 374.451 808.629 376.072 807.481 377.693 806.333 379.503 805.758 381.503 805.758Z" fill-rule="evenodd"/><text fill="#000000" fill-opacity="0" font-family="Arial,Arial_MSFontService,sans-serif" font-size="57.0625" x="368.413" y="855.688">𝑦</text><rect x="460.5" y="1794.5" width="208" height="209" stroke="#000000" stroke-width="9.16667" stroke-miterlimit="8" fill="#E7E6E6"/><path d="M526.894 1610.09 537.512 1610.09 539.944 1642.06C543.753 1635.85 546.502 1631.12 548.191 1627.88 549.88 1624.63 551.129 1621.83 551.94 1619.47 552.75 1617.1 553.372 1614.64 553.804 1612.07L554.25 1610.09 560.086 1610.09 563.044 1642.1C567.259 1636.1 570.468 1630.87 572.669 1626.4 574.871 1621.93 575.972 1618.29 575.972 1615.48 575.972 1614.21 575.702 1613.34 575.162 1612.88 574.622 1612.42 573.703 1612.15 572.406 1612.07L572.811 1610.09 583.267 1610.09 584.362 1612.11C583.416 1614.52 582.659 1616.37 582.092 1617.66 581.525 1618.96 580.782 1620.52 579.863 1622.35 578.944 1624.17 577.972 1625.99 576.945 1627.8 575.918 1629.61 574.709 1631.6 573.318 1633.77 571.927 1635.95 570.366 1638.31 568.637 1640.87 566.908 1643.42 564.868 1646.29 562.517 1649.48L557.695 1649.48 556.033 1632.54C555.898 1631.21 555.756 1629.48 555.607 1627.35 555.459 1625.22 555.358 1623.57 555.304 1622.41L554.858 1622.37C553.399 1625.96 551.413 1629.96 548.9 1634.36 546.388 1638.77 543.28 1643.8 539.579 1649.48L534.148 1649.48 531.068 1618.96C530.906 1617.39 530.703 1616.12 530.46 1615.15 530.217 1614.18 529.812 1613.45 529.244 1612.96 528.677 1612.48 527.745 1612.18 526.448 1612.07Z" fill-rule="evenodd"/><text fill="#000000" fill-opacity="0" font-family="Arial,Arial_MSFontService,sans-serif" font-size="39.3926" x="526.448" y="1644.55">𝑤</text><path d="M599.861 1629.99C598.471 1629.99 597.309 1630.35 596.376 1631.08 595.443 1631.8 594.703 1632.87 594.157 1634.27 593.611 1635.66 593.224 1637.37 592.995 1639.39 592.767 1641.4 592.653 1643.69 592.653 1646.25 592.653 1649.21 592.797 1651.77 593.085 1653.92 593.373 1656.08 593.819 1657.85 594.425 1659.24 595.031 1660.63 595.79 1661.65 596.704 1662.31 597.617 1662.96 598.709 1663.29 599.98 1663.29 601.171 1663.29 602.214 1662.98 603.107 1662.37 604.001 1661.75 604.741 1660.79 605.326 1659.49 605.912 1658.19 606.354 1656.54 606.652 1654.55 606.95 1652.55 607.099 1650.2 607.099 1647.47 607.099 1644.42 606.935 1641.79 606.607 1639.58 606.28 1637.38 605.818 1635.57 605.222 1634.15 604.626 1632.73 603.877 1631.68 602.973 1631 602.07 1630.33 601.032 1629.99 599.861 1629.99ZM599.98 1627.1C602.343 1627.1 604.363 1627.54 606.041 1628.43 607.719 1629.31 609.089 1630.57 610.152 1632.21 611.214 1633.85 611.993 1635.85 612.49 1638.21 612.986 1640.57 613.234 1643.25 613.234 1646.22 613.234 1652.84 612.063 1657.83 609.72 1661.22 607.377 1664.61 603.981 1666.3 599.533 1666.3 595.125 1666.3 591.849 1664.7 589.704 1661.5 587.56 1658.31 586.487 1653.46 586.487 1646.97 586.487 1643.57 586.82 1640.63 587.485 1638.15 588.15 1635.67 589.084 1633.61 590.285 1631.97 591.486 1630.33 592.911 1629.11 594.559 1628.31 596.207 1627.5 598.014 1627.1 599.98 1627.1Z" fill-rule="evenodd"/><text fill="#000000" fill-opacity="0" font-family="Arial,Arial_MSFontService,sans-serif" font-size="39.1973" x="586.487" y="1661.4">0</text><path d="M275.486 1854.8 277.837 1854.8 270.866 1882.89 271.353 1883.05C273.919 1879.64 276.344 1877.18 278.627 1875.65 280.91 1874.13 283.214 1873.36 285.537 1873.36 288.05 1873.36 289.982 1874.09 291.332 1875.53 292.683 1876.98 293.359 1878.98 293.359 1881.55 293.359 1883.25 292.967 1885.67 292.184 1888.8L289.549 1899.42C288.82 1902.37 288.455 1904.45 288.455 1905.66 288.455 1906.74 288.631 1907.53 288.982 1908.01 289.333 1908.5 289.887 1908.74 290.644 1908.74 291.454 1908.74 292.319 1908.41 293.237 1907.75 294.156 1907.09 295.453 1905.83 297.128 1903.96L299.438 1906.23C296.844 1908.96 294.717 1910.84 293.055 1911.86 291.393 1912.89 289.522 1913.4 287.442 1913.4 285.686 1913.4 284.287 1912.78 283.247 1911.54 282.207 1910.3 281.687 1908.69 281.687 1906.72 281.687 1904.96 282.133 1902.38 283.024 1898.98L284.767 1891.96C285.388 1889.45 285.807 1887.57 286.023 1886.31 286.24 1885.05 286.348 1884.08 286.348 1883.37 286.348 1881.45 286.037 1880.1 285.415 1879.3 284.794 1878.5 283.781 1878.1 282.376 1878.1 281.268 1878.1 280.039 1878.56 278.688 1879.48 277.337 1880.4 275.919 1881.8 274.433 1883.68 272.947 1885.55 271.765 1887.35 270.886 1889.07 270.008 1890.78 269.313 1892.83 268.799 1895.21L265.111 1912.76 258.1 1912.76 268.516 1866.43C269.164 1863.54 269.488 1861.54 269.488 1860.43 269.488 1859.3 269.144 1858.5 268.455 1858.04 267.766 1857.58 266.53 1857.33 264.747 1857.27L265.233 1855.17Z" fill-rule="evenodd"/><text fill="#000000" fill-opacity="0" font-family="Arial,Arial_MSFontService,sans-serif" font-size="58.6025" x="258.1" y="1906.08">ℎ</text><path d="M317.867 1893.92C316.478 1893.92 315.316 1894.28 314.383 1895 313.449 1895.73 312.71 1896.79 312.164 1898.19 311.618 1899.59 311.23 1901.3 311.002 1903.31 310.774 1905.33 310.659 1907.62 310.659 1910.18 310.659 1913.14 310.803 1915.69 311.091 1917.85 311.379 1920 311.826 1921.78 312.432 1923.17 313.037 1924.56 313.797 1925.58 314.71 1926.23 315.624 1926.89 316.716 1927.22 317.987 1927.22 319.178 1927.22 320.221 1926.91 321.114 1926.29 322.008 1925.68 322.747 1924.72 323.333 1923.42 323.919 1922.12 324.361 1920.47 324.659 1918.47 324.956 1916.48 325.105 1914.12 325.105 1911.4 325.105 1908.34 324.941 1905.71 324.614 1903.51 324.286 1901.3 323.825 1899.49 323.229 1898.07 322.633 1896.65 321.884 1895.6 320.98 1894.93 320.077 1894.25 319.039 1893.92 317.867 1893.92ZM317.987 1891.03C320.35 1891.03 322.37 1891.47 324.048 1892.35 325.726 1893.24 327.096 1894.5 328.158 1896.14 329.221 1897.77 330 1899.77 330.496 1902.14 330.993 1904.5 331.241 1907.17 331.241 1910.15 331.241 1916.76 330.069 1921.76 327.726 1925.15 325.383 1928.53 321.988 1930.22 317.54 1930.22 313.132 1930.22 309.855 1928.63 307.711 1925.43 305.566 1922.23 304.494 1917.39 304.494 1910.89 304.494 1907.5 304.827 1904.56 305.492 1902.08 306.157 1899.6 307.09 1897.54 308.292 1895.9 309.493 1894.26 310.918 1893.04 312.566 1892.23 314.214 1891.43 316.021 1891.03 317.987 1891.03Z" fill-rule="evenodd"/><text fill="#000000" fill-opacity="0" font-family="Arial,Arial_MSFontService,sans-serif" font-size="39.1973" x="304.494" y="1925.32">0</text><path d="M0 0 0.000360892 142.99" stroke="#000000" stroke-width="4.58333" stroke-miterlimit="8" fill="none" fill-rule="evenodd" transform="matrix(1 0 0 -1 458.5 1793.49)"/><path d="M0 0 0.000360892 142.99" stroke="#000000" stroke-width="4.58333" stroke-miterlimit="8" fill="none" fill-rule="evenodd" transform="matrix(1 0 0 -1 669.5 1795.49)"/><path d="M481.417 1682.21 646.342 1682.21 646.342 1686.79 481.417 1686.79ZM486 1698.25 458.5 1684.5 486 1670.75ZM641.759 1670.75 669.259 1684.5 641.759 1698.25Z"/><path d="M0 0 0.000360892 142.99" stroke="#000000" stroke-width="4.58333" stroke-miterlimit="8" fill="none" fill-rule="evenodd" transform="matrix(-1.83697e-16 -1 -1 1.83697e-16 458.489 2005.5)"/><path d="M0 0 0.000360892 142.99" stroke="#000000" stroke-width="4.58333" stroke-miterlimit="8" fill="none" fill-rule="evenodd" transform="matrix(-1.83697e-16 -1 -1 1.83697e-16 460.489 1791.5)"/><path d="M2.29171 22.9166 2.29199 188.519-2.29134 188.519-2.29163 22.9166ZM-13.75 27.5 0 0 13.75 27.5ZM13.7503 183.935 0.000360892 211.435-13.7497 183.935Z" transform="matrix(1 0 0 -1 349.5 2002.94)"/><rect x="2060.5" y="1787.5" width="162" height="162" stroke="#000000" stroke-width="9.16667" stroke-miterlimit="8" fill="#E7E6E6"/><path d="M2100.56 1603.01 2111.18 1603.01 2113.61 1634.99C2117.42 1628.77 2120.17 1624.04 2121.85 1620.8 2123.54 1617.56 2124.79 1614.76 2125.6 1612.39 2126.41 1610.03 2127.04 1607.56 2127.47 1604.99L2127.91 1603.01 2133.75 1603.01 2136.71 1635.03C2140.92 1629.03 2144.13 1623.79 2146.33 1619.32 2148.53 1614.85 2149.64 1611.21 2149.64 1608.4 2149.64 1607.13 2149.37 1606.26 2148.83 1605.81 2148.29 1605.35 2147.37 1605.08 2146.07 1604.99L2146.47 1603.01 2156.93 1603.01 2158.03 1605.04C2157.08 1607.44 2156.32 1609.29 2155.76 1610.59 2155.19 1611.88 2154.45 1613.44 2153.53 1615.27 2152.61 1617.09 2151.64 1618.91 2150.61 1620.72 2149.58 1622.53 2148.37 1624.52 2146.98 1626.7 2145.59 1628.87 2144.03 1631.24 2142.3 1633.79 2140.57 1636.34 2138.53 1639.21 2136.18 1642.4L2131.36 1642.4 2129.7 1625.46C2129.56 1624.14 2129.42 1622.41 2129.27 1620.27 2129.12 1618.14 2129.02 1616.49 2128.97 1615.33L2128.52 1615.29C2127.06 1618.88 2125.08 1622.88 2122.56 1627.29 2120.05 1631.69 2116.94 1636.73 2113.24 1642.4L2107.81 1642.4 2104.73 1611.88C2104.57 1610.32 2104.37 1609.05 2104.12 1608.08 2103.88 1607.1 2103.48 1606.37 2102.91 1605.89 2102.34 1605.4 2101.41 1605.1 2100.11 1604.99Z" fill-rule="evenodd"/><text fill="#000000" fill-opacity="0" font-family="Arial,Arial_MSFontService,sans-serif" font-size="39.3926" x="2100.11" y="1637.48">𝑤</text><path d="M2174.06 1620.23 2175.88 1620.23C2175.84 1621.33 2175.81 1622.3 2175.79 1623.17 2175.77 1624.03 2175.76 1624.87 2175.75 1625.68 2175.74 1626.5 2175.73 1627.3 2175.73 1628.1L2175.73 1650.73C2175.73 1651.35 2175.75 1651.88 2175.79 1652.33 2175.83 1652.77 2175.9 1653.15 2175.99 1653.46 2176.08 1653.77 2176.19 1654.03 2176.34 1654.25 2176.49 1654.47 2176.67 1654.66 2176.86 1654.81 2177.1 1655.05 2177.42 1655.24 2177.82 1655.37 2178.21 1655.49 2178.72 1655.6 2179.34 1655.69 2179.95 1655.78 2180.69 1655.85 2181.56 1655.9 2182.42 1655.95 2183.46 1655.99 2184.67 1656.01L2184.67 1658.6 2161.05 1658.6 2161.05 1656.01C2162.22 1655.97 2163.21 1655.92 2164.03 1655.87 2164.84 1655.82 2165.54 1655.75 2166.11 1655.66 2166.69 1655.57 2167.15 1655.47 2167.5 1655.37 2167.84 1655.26 2168.15 1655.12 2168.41 1654.96 2168.68 1654.78 2168.92 1654.59 2169.12 1654.38 2169.32 1654.17 2169.48 1653.91 2169.6 1653.59 2169.72 1653.28 2169.81 1652.89 2169.88 1652.43 2169.95 1651.97 2169.98 1651.41 2169.98 1650.73L2169.98 1629.38C2169.98 1628.6 2169.84 1628.06 2169.54 1627.74 2169.24 1627.42 2168.81 1627.26 2168.26 1627.26 2167.64 1627.26 2166.73 1627.58 2165.52 1628.22 2164.31 1628.85 2162.74 1629.79 2160.81 1631.05 2160.55 1630.59 2160.31 1630.13 2160.1 1629.68 2159.88 1629.22 2159.65 1628.75 2159.41 1628.28 2161.87 1626.93 2164.31 1625.58 2166.72 1624.24 2169.14 1622.9 2171.58 1621.56 2174.06 1620.23Z" fill-rule="evenodd"/><text fill="#000000" fill-opacity="0" font-family="Arial,Arial_MSFontService,sans-serif" font-size="38.3633" x="2159.41" y="1653.8">1</text><path d="M1876.65 1833.97 1879 1833.97 1872.03 1862.06 1872.52 1862.22C1875.08 1858.82 1877.51 1856.35 1879.79 1854.83 1882.07 1853.3 1884.38 1852.54 1886.7 1852.54 1889.21 1852.54 1891.15 1853.26 1892.5 1854.7 1893.85 1856.15 1894.52 1858.16 1894.52 1860.72 1894.52 1862.43 1894.13 1864.84 1893.35 1867.98L1890.71 1878.6C1889.98 1881.54 1889.62 1883.62 1889.62 1884.84 1889.62 1885.92 1889.79 1886.7 1890.15 1887.19 1890.5 1887.67 1891.05 1887.92 1891.81 1887.92 1892.62 1887.92 1893.48 1887.59 1894.4 1886.92 1895.32 1886.26 1896.62 1885 1898.29 1883.13L1900.6 1885.4C1898.01 1888.13 1895.88 1890.01 1894.22 1891.04 1892.56 1892.06 1890.69 1892.58 1888.61 1892.58 1886.85 1892.58 1885.45 1891.96 1884.41 1890.71 1883.37 1889.47 1882.85 1887.86 1882.85 1885.89 1882.85 1884.13 1883.3 1881.55 1884.19 1878.15L1885.93 1871.14C1886.55 1868.63 1886.97 1866.74 1887.19 1865.48 1887.4 1864.23 1887.51 1863.25 1887.51 1862.55 1887.51 1860.63 1887.2 1859.27 1886.58 1858.47 1885.96 1857.68 1884.94 1857.28 1883.54 1857.28 1882.43 1857.28 1881.2 1857.74 1879.85 1858.66 1878.5 1859.57 1877.08 1860.97 1875.6 1862.85 1874.11 1864.73 1872.93 1866.53 1872.05 1868.24 1871.17 1869.96 1870.48 1872 1869.96 1874.38L1866.27 1891.93 1859.26 1891.93 1869.68 1845.61C1870.33 1842.72 1870.65 1840.72 1870.65 1839.61 1870.65 1838.47 1870.31 1837.68 1869.62 1837.22 1868.93 1836.76 1867.69 1836.5 1865.91 1836.45L1866.4 1834.34Z" fill-rule="evenodd"/><text fill="#000000" fill-opacity="0" font-family="Arial,Arial_MSFontService,sans-serif" font-size="58.6025" x="1859.26" y="1885.25">ℎ</text><path d="M1919.57 1870.41 1921.39 1870.41C1921.35 1871.5 1921.32 1872.48 1921.3 1873.34 1921.28 1874.21 1921.26 1875.05 1921.25 1875.86 1921.24 1876.67 1921.24 1877.48 1921.24 1878.27L1921.24 1900.91C1921.24 1901.53 1921.26 1902.06 1921.3 1902.5 1921.34 1902.95 1921.4 1903.33 1921.49 1903.63 1921.58 1903.94 1921.7 1904.21 1921.85 1904.42 1922 1904.64 1922.17 1904.83 1922.37 1904.99 1922.61 1905.23 1922.93 1905.41 1923.32 1905.54 1923.72 1905.67 1924.23 1905.78 1924.84 1905.87 1925.46 1905.96 1926.2 1906.03 1927.06 1906.08 1927.93 1906.13 1928.96 1906.16 1930.17 1906.18L1930.17 1908.77 1906.56 1908.77 1906.56 1906.18C1907.73 1906.14 1908.72 1906.1 1909.53 1906.05 1910.35 1906 1911.04 1905.93 1911.62 1905.84 1912.19 1905.75 1912.66 1905.65 1913 1905.54 1913.35 1905.43 1913.65 1905.3 1913.91 1905.14 1914.19 1904.96 1914.43 1904.77 1914.63 1904.56 1914.83 1904.35 1914.98 1904.09 1915.1 1903.77 1915.22 1903.45 1915.32 1903.06 1915.39 1902.61 1915.46 1902.15 1915.49 1901.58 1915.49 1900.91L1915.49 1879.55C1915.49 1878.78 1915.34 1878.23 1915.04 1877.92 1914.75 1877.6 1914.32 1877.44 1913.76 1877.44 1913.15 1877.44 1912.23 1877.76 1911.02 1878.39 1909.81 1879.03 1908.24 1879.97 1906.32 1881.22 1906.06 1880.76 1905.82 1880.31 1905.6 1879.85 1905.38 1879.39 1905.16 1878.93 1904.92 1878.45 1907.38 1877.1 1909.82 1875.76 1912.23 1874.42 1914.64 1873.08 1917.09 1871.74 1919.57 1870.41Z" fill-rule="evenodd"/><text fill="#000000" fill-opacity="0" font-family="Arial,Arial_MSFontService,sans-serif" font-size="38.3633" x="1904.92" y="1903.98">1</text><path d="M0 0 0.000360892 142.99" stroke="#000000" stroke-width="4.58333" stroke-miterlimit="8" fill="none" fill-rule="evenodd" transform="matrix(1 0 0 -1 2058.5 1786.49)"/><path d="M0 0 0.000360892 142.99" stroke="#000000" stroke-width="4.58333" stroke-miterlimit="8" fill="none" fill-rule="evenodd" transform="matrix(1 0 0 -1 2224.5 1788.49)"/><path d="M2081.42 1675.21 2201.54 1675.21 2201.54 1679.79 2081.42 1679.79ZM2086 1691.25 2058.5 1677.5 2086 1663.75ZM2196.96 1663.75 2224.46 1677.5 2196.96 1691.25Z"/><path d="M0 0 0.000360892 142.99" stroke="#000000" stroke-width="4.58333" stroke-miterlimit="8" fill="none" fill-rule="evenodd" transform="matrix(-1.83697e-16 -1 -1 1.83697e-16 2058.49 1951.5)"/><path d="M0 0 0.000360892 142.99" stroke="#000000" stroke-width="4.58333" stroke-miterlimit="8" fill="none" fill-rule="evenodd" transform="matrix(-1.83697e-16 -1 -1 1.83697e-16 2060.49 1784.5)"/><path d="M1947.21 1927.54 1947.21 1807.42 1951.79 1807.42 1951.79 1927.54ZM1963.25 1922.96 1949.5 1950.46 1935.75 1922.96ZM1935.75 1812 1949.5 1784.5 1963.25 1812Z"/><path d="M457.5 1114.5 2224.5 1136 2224.5 1179 457.5 1200.5Z" stroke="#000000" stroke-width="9.16667" stroke-miterlimit="8" fill="#E7E6E6" fill-rule="evenodd"/></g></svg>