<?xml version="1.0" encoding="UTF-8" standalone="no"?>
<svg
   xmlns:dc="http://purl.org/dc/elements/1.1/"
   xmlns:cc="http://creativecommons.org/ns#"
   xmlns:rdf="http://www.w3.org/1999/02/22-rdf-syntax-ns#"
   xmlns:svg="http://www.w3.org/2000/svg"
   xmlns="http://www.w3.org/2000/svg"
   height="22"
   width="22"
   id="svg12"
   version="1.1"
   viewBox="0 0 22 22">
  <metadata
     id="metadata18">
    <rdf:RDF>
      <cc:Work
         rdf:about="">
        <dc:format>image/svg+xml</dc:format>
        <dc:type
           rdf:resource="http://purl.org/dc/dcmitype/StillImage" />
        <dc:title></dc:title>
      </cc:Work>
    </rdf:RDF>
  </metadata>
  <defs
     id="defs16" />
  <g
     style="fill-rule:evenodd"
     id="g10"
     transform="matrix(-1.1577904,0,0,1.1577904,25.475875,-6.7886858)">
    <path
       style="fill:#0063b1"
       id="path2"
       d="M 10.972424,7.0039062 C 10.583956,7.0148783 10.237192,7.250373 10.083752,7.6074219 L 3.0837542,22.607422 c -0.2819476,0.658671 0.20149,1.391028 0.9179688,1.390625 h 7 C 11.552957,23.998115 11.999838,23.551234 11.99977,23 V 8 C 11.998981,7.4378843 11.534296,6.9873338 10.972424,7.0039062 Z" />
    <path
       style="fill:#3a3a38"
       id="path4"
       d="m 22.003875,22.999529 c 3.06e-4,0.55349 -0.448463,1.002259 -1.001953,1.001953 h -7 c -0.55349,3.06e-4 -1.002259,-0.448463 -1.001953,-1.001953 l -0.0028,-15 c 4.03e-4,-1.037624 1.38463,-1.3897903 1.880859,-0.478516 l 7.0028,15 c 0.08034,0.146724 0.122642,0.311237 0.123047,0.478516 z" />
    <path
       style="fill:#83beec"
       id="path6"
       d="m 4.001587,23 h 7 V 8 Z" />
    <path
       style="fill:#fafafa"
       id="path8"
       d="m 21.001587,23 h -7 l -0.0028,-15 z" />
  </g>
</svg>
