<?xml version="1.0" encoding="utf-8" standalone="no"?>
<!DOCTYPE svg PUBLIC "-//W3C//DTD SVG 1.1//EN"
  "http://www.w3.org/Graphics/SVG/1.1/DTD/svg11.dtd">
<svg height="288pt" version="1.1" viewBox="0 0 576 288" width="576pt" xmlns="http://www.w3.org/2000/svg" xmlns:xlink="http://www.w3.org/1999/xlink">
 <metadata>
  <rdf:RDF xmlns:cc="http://creativecommons.org/ns#" xmlns:dc="http://purl.org/dc/elements/1.1/" xmlns:rdf="http://www.w3.org/1999/02/22-rdf-syntax-ns#">
   <cc:Work>
    <dc:type rdf:resource="http://purl.org/dc/dcmitype/StillImage"/>
    <dc:date>2021-10-29T21:09:35.840922</dc:date>
    <dc:format>image/svg+xml</dc:format>
    <dc:creator>
     <cc:Agent>
      <dc:title>Matplotlib v3.4.3, https://matplotlib.org/</dc:title>
     </cc:Agent>
    </dc:creator>
   </cc:Work>
  </rdf:RDF>
 </metadata>
 <defs>
  <style type="text/css">*{stroke-linecap:butt;stroke-linejoin:round;}</style>
 </defs>
 <g id="figure_1">
  <g id="patch_1">
   <path d="M 0 288 
L 576 288 
L 576 0 
L 0 0 
z
" style="fill:#ffffff;"/>
  </g>
  <g id="axes_1">
   <g id="patch_2">
    <path d="M 72 256.32 
L 518.4 256.32 
L 518.4 34.56 
L 72 34.56 
z
" style="fill:#ffffff;"/>
   </g>
   <g id="matplotlib.axis_1"/>
   <g id="matplotlib.axis_2"/>
   <g id="line2d_1">
    <path clip-path="url(#pa5581a9472)" d="M 72 39.84 
L 72.893694 39.973644 
L 73.787387 40.37424 
L 74.681081 41.040772 
L 75.574775 41.971553 
L 76.468468 43.164228 
L 77.809009 45.437509 
L 79.14955 48.280161 
L 80.49009 51.676 
L 81.830631 55.605691 
L 83.618018 61.636624 
L 85.405405 68.515493 
L 87.63964 78.199698 
L 89.873874 88.946443 
L 92.554955 103.004958 
L 95.682883 120.602537 
L 101.491892 154.891736 
L 105.96036 180.776076 
L 109.088288 197.663773 
L 111.769369 210.871725 
L 114.003604 220.753428 
L 115.790991 227.808791 
L 117.578378 234.030732 
L 119.365766 239.356296 
L 120.706306 242.729451 
L 122.046847 245.54868 
L 123.387387 247.797933 
L 124.281081 248.974321 
L 125.174775 249.888649 
L 126.068468 250.538603 
L 126.962162 250.922536 
L 127.855856 251.039478 
L 128.74955 250.889132 
L 129.643243 250.471879 
L 130.536937 249.788775 
L 131.430631 248.841549 
L 132.324324 247.632599 
L 133.664865 245.335314 
L 135.005405 242.469267 
L 136.345946 239.050777 
L 137.686486 235.099306 
L 139.473874 229.040906 
L 141.261261 222.136617 
L 143.495495 212.423908 
L 145.72973 201.652711 
L 148.410811 187.570741 
L 151.985586 167.362991 
L 164.05045 97.602193 
L 166.731532 83.989418 
L 168.965766 73.700745 
L 171.2 64.545707 
L 172.987387 58.135772 
L 174.774775 52.609197 
L 176.115315 49.077962 
L 177.455856 46.095371 
L 178.796396 43.678406 
L 180.136937 41.840828 
L 181.030631 40.942963 
L 181.924324 40.309595 
L 182.818018 39.942327 
L 183.711712 39.842089 
L 184.605405 40.009134 
L 185.499099 40.443041 
L 186.392793 41.14271 
L 187.286486 42.106371 
L 188.18018 43.331584 
L 189.520721 45.652852 
L 190.861261 48.542265 
L 192.201802 51.983373 
L 193.542342 55.956583 
L 195.32973 62.042392 
L 197.117117 68.972032 
L 199.351351 78.713148 
L 201.585586 89.508691 
L 204.266667 103.613977 
L 207.841441 123.841966 
L 219.459459 191.193999 
L 222.140541 204.985381 
L 224.374775 215.456192 
L 226.609009 224.820597 
L 228.396396 231.41542 
L 230.183784 237.140327 
L 231.524324 240.827933 
L 232.864865 243.972441 
L 234.205405 246.555946 
L 235.545946 248.56374 
L 236.43964 249.576648 
L 237.333333 250.325971 
L 238.227027 250.809812 
L 239.120721 251.026946 
L 240.014414 250.976825 
L 240.908108 250.659575 
L 241.801802 250.075998 
L 242.695495 249.227573 
L 243.589189 248.116446 
L 244.92973 245.963523 
L 246.27027 243.238262 
L 247.610811 239.956179 
L 248.951351 236.135961 
L 250.738739 230.243258 
L 252.526126 223.492501 
L 254.313514 215.951994 
L 256.547748 205.532709 
L 259.228829 191.791679 
L 262.356757 174.451526 
L 266.825225 148.26238 
L 273.081081 111.67293 
L 276.209009 94.665784 
L 278.89009 81.31958 
L 281.124324 71.299732 
L 282.911712 64.12039 
L 284.699099 57.763855 
L 286.486486 52.294443 
L 287.827027 48.808202 
L 289.167568 45.872142 
L 290.508108 43.502979 
L 291.848649 41.714202 
L 292.742342 40.849288 
L 293.636036 40.249108 
L 294.52973 39.915182 
L 295.423423 39.848354 
L 296.317117 40.048795 
L 297.210811 40.515995 
L 298.104505 41.248774 
L 298.998198 42.245276 
L 299.891892 43.502979 
L 301.232432 45.872142 
L 302.572973 48.808202 
L 303.913514 52.294443 
L 305.254054 56.311014 
L 307.041441 62.451458 
L 308.828829 69.431595 
L 311.063063 79.229237 
L 313.297297 90.073151 
L 315.978378 104.22465 
L 319.553153 124.492518 
L 331.171171 191.791679 
L 333.852252 205.532709 
L 336.086486 215.951994 
L 338.320721 225.257039 
L 340.108108 231.799359 
L 341.895495 237.467879 
L 343.236036 241.110987 
L 344.576577 244.209384 
L 345.917117 246.745431 
L 347.257658 248.704687 
L 348.151351 249.684773 
L 349.045045 250.401001 
L 349.938739 250.851557 
L 350.832432 251.035301 
L 351.726126 250.951767 
L 352.61982 250.601169 
L 353.513514 249.984392 
L 354.407207 249.102998 
L 355.300901 247.959217 
L 356.641441 245.758086 
L 357.981982 242.985786 
L 359.322523 239.658101 
L 360.663063 235.793979 
L 362.45045 229.845807 
L 364.237838 223.043603 
L 366.025225 215.456192 
L 368.259459 204.985381 
L 370.940541 191.193999 
L 374.068468 173.812344 
L 378.983784 144.941875 
L 384.792793 111.044304 
L 387.920721 94.084435 
L 390.601802 80.793137 
L 392.836036 70.828252 
L 394.623423 63.698291 
L 396.410811 57.395406 
L 398.198198 51.983373 
L 399.538739 48.542265 
L 400.879279 45.652852 
L 402.21982 43.331584 
L 403.113514 42.106371 
L 404.007207 41.14271 
L 404.900901 40.443041 
L 405.794595 40.009134 
L 406.688288 39.842089 
L 407.581982 39.942327 
L 408.475676 40.309595 
L 409.369369 40.942963 
L 410.263063 41.840828 
L 411.156757 43.000918 
L 412.497297 45.226122 
L 413.837838 48.0219 
L 415.178378 51.372336 
L 416.518919 55.258353 
L 418.306306 61.234171 
L 420.093694 68.061998 
L 422.327928 77.688908 
L 424.562162 88.38643 
L 427.243243 102.397617 
L 430.371171 119.957497 
L 435.733333 151.580094 
L 440.648649 180.149501 
L 443.776577 197.085479 
L 446.457658 210.349126 
L 448.691892 220.286383 
L 450.479279 227.391548 
L 452.266667 233.667513 
L 454.054054 239.050777 
L 455.394595 242.469267 
L 456.735135 245.335314 
L 458.075676 247.632599 
L 458.969369 248.841549 
L 459.863063 249.788775 
L 460.756757 250.471879 
L 461.65045 250.889132 
L 462.544144 251.039478 
L 463.437838 250.922536 
L 464.331532 250.538603 
L 465.225225 249.888649 
L 466.118919 248.974321 
L 467.012613 247.797933 
L 468.353153 245.54868 
L 469.693694 242.729451 
L 471.034234 239.356296 
L 472.374775 235.448423 
L 474.162162 229.445018 
L 475.94955 222.591636 
L 478.183784 212.936031 
L 480.418018 202.213844 
L 483.099099 188.178924 
L 486.227027 170.600107 
L 492.036036 136.319062 
L 496.504505 110.417038 
L 499.632432 93.505117 
L 502.313514 80.269252 
L 504.547748 70.359723 
L 506.335135 63.279424 
L 508.122523 57.03044 
L 509.90991 51.676 
L 511.25045 48.280161 
L 512.590991 45.437509 
L 513.931532 43.164228 
L 514.825225 41.971553 
L 515.718919 41.040772 
L 516.612613 40.37424 
L 517.506306 39.973644 
L 518.4 39.84 
L 518.4 39.84 
" style="fill:none;stroke:#1f77b4;stroke-linecap:square;stroke-width:6;"/>
   </g>
   <g id="patch_3">
    <path d="M 72 256.32 
L 72 34.56 
" style="fill:none;stroke:#000000;stroke-linecap:square;stroke-linejoin:miter;stroke-width:0.8;"/>
   </g>
   <g id="patch_4">
    <path d="M 518.4 256.32 
L 518.4 34.56 
" style="fill:none;stroke:#000000;stroke-linecap:square;stroke-linejoin:miter;stroke-width:0.8;"/>
   </g>
   <g id="patch_5">
    <path d="M 72 256.32 
L 518.4 256.32 
" style="fill:none;stroke:#000000;stroke-linecap:square;stroke-linejoin:miter;stroke-width:0.8;"/>
   </g>
   <g id="patch_6">
    <path d="M 72 34.56 
L 518.4 34.56 
" style="fill:none;stroke:#000000;stroke-linecap:square;stroke-linejoin:miter;stroke-width:0.8;"/>
   </g>
  </g>
 </g>
 <defs>
  <clipPath id="pa5581a9472">
   <rect height="221.76" width="446.4" x="72" y="34.56"/>
  </clipPath>
 </defs>
</svg>
