<?xml version="1.0" encoding="utf-8" standalone="no"?>
<!DOCTYPE svg PUBLIC "-//W3C//DTD SVG 1.1//EN"
  "http://www.w3.org/Graphics/SVG/1.1/DTD/svg11.dtd">
<svg height="288pt" version="1.1" viewBox="0 0 576 288" width="576pt" xmlns="http://www.w3.org/2000/svg" xmlns:xlink="http://www.w3.org/1999/xlink">
 <metadata>
  <rdf:RDF xmlns:cc="http://creativecommons.org/ns#" xmlns:dc="http://purl.org/dc/elements/1.1/" xmlns:rdf="http://www.w3.org/1999/02/22-rdf-syntax-ns#">
   <cc:Work>
    <dc:type rdf:resource="http://purl.org/dc/dcmitype/StillImage"/>
    <dc:date>2021-10-29T21:09:35.887830</dc:date>
    <dc:format>image/svg+xml</dc:format>
    <dc:creator>
     <cc:Agent>
      <dc:title>Matplotlib v3.4.3, https://matplotlib.org/</dc:title>
     </cc:Agent>
    </dc:creator>
   </cc:Work>
  </rdf:RDF>
 </metadata>
 <defs>
  <style type="text/css">*{stroke-linecap:butt;stroke-linejoin:round;}</style>
 </defs>
 <g id="figure_1">
  <g id="patch_1">
   <path d="M 0 288 
L 576 288 
L 576 0 
L 0 0 
z
" style="fill:#ffffff;"/>
  </g>
  <g id="axes_1">
   <g id="patch_2">
    <path d="M 72 256.32 
L 518.4 256.32 
L 518.4 34.56 
L 72 34.56 
z
" style="fill:#ffffff;"/>
   </g>
   <g id="matplotlib.axis_1"/>
   <g id="matplotlib.axis_2"/>
   <g id="line2d_1">
    <path clip-path="url(#padde37a38b)" d="M 72 39.84 
L 72.893694 40.501645 
L 73.787387 41.420947 
L 74.681081 42.593011 
L 76.021622 44.812888 
L 77.362162 47.568134 
L 78.702703 50.835158 
L 80.49009 55.941788 
L 82.277477 61.843175 
L 84.064865 68.464368 
L 86.299099 77.629725 
L 88.98018 89.708962 
L 92.108108 104.903179 
L 97.47027 132.311988 
L 102.385586 157.097341 
L 105.513514 171.830626 
L 108.194595 183.429283 
L 110.428829 192.190071 
L 112.663063 200.00367 
L 114.45045 205.505825 
L 116.237838 210.296668 
L 118.025225 214.342381 
L 119.365766 216.871917 
L 120.706306 218.959909 
L 122.046847 220.601172 
L 123.387387 221.793124 
L 124.281081 222.338035 
L 125.174775 222.683825 
L 126.068468 222.831619 
L 126.962162 222.783026 
L 127.855856 222.540134 
L 128.74955 222.105501 
L 129.643243 221.482142 
L 130.983784 220.200927 
L 132.324324 218.516446 
L 133.664865 216.444259 
L 135.005405 214.001884 
L 136.792793 210.203223 
L 138.58018 205.831515 
L 140.814414 199.64554 
L 143.048649 192.767371 
L 145.72973 183.775642 
L 149.304505 170.90678 
L 160.475676 129.943326 
L 163.156757 121.169587 
L 165.837838 113.20047 
L 168.072072 107.286484 
L 169.859459 103.086573 
L 171.646847 99.394601 
L 173.434234 96.237431 
L 174.774775 94.233355 
L 176.115315 92.548663 
L 177.455856 91.188089 
L 178.796396 90.154467 
L 180.136937 89.448738 
L 181.477477 89.069978 
L 182.818018 89.01543 
L 184.158559 89.280543 
L 185.499099 89.859032 
L 186.83964 90.742933 
L 188.18018 91.922674 
L 189.520721 93.387159 
L 190.861261 95.123844 
L 192.648649 97.838656 
L 194.436036 100.9762 
L 196.67027 105.431586 
L 198.904505 110.400615 
L 201.585586 116.913987 
L 205.16036 126.262078 
L 216.778378 157.288933 
L 219.459459 163.643365 
L 222.140541 169.401035 
L 224.374775 173.662417 
L 226.162162 176.680477 
L 227.94955 179.325465 
L 229.736937 181.578319 
L 231.524324 183.424286 
L 232.864865 184.53533 
L 234.205405 185.408809 
L 235.545946 186.043345 
L 236.886486 186.438932 
L 238.227027 186.596916 
L 239.567568 186.519962 
L 240.908108 186.212026 
L 242.248649 185.678308 
L 243.589189 184.925206 
L 244.92973 183.960263 
L 246.717117 182.3592 
L 248.504505 180.420217 
L 250.291892 178.16947 
L 252.526126 174.96165 
L 254.76036 171.37284 
L 257.441441 166.655785 
L 261.016216 159.866492 
L 273.081081 136.401891 
L 275.762162 131.800515 
L 278.443243 127.641529 
L 280.677477 124.571784 
L 282.911712 121.903953 
L 284.699099 120.080585 
L 286.486486 118.547574 
L 288.273874 117.31449 
L 290.061261 116.38771 
L 291.848649 115.770414 
L 293.189189 115.510669 
L 294.52973 115.42394 
L 295.87027 115.508126 
L 297.657658 115.880862 
L 299.445045 116.542266 
L 301.232432 117.479962 
L 303.01982 118.67905 
L 304.807207 120.122312 
L 307.041441 122.24014 
L 309.275676 124.667387 
L 311.956757 127.924142 
L 315.084685 132.091056 
L 319.553153 138.461861 
L 327.14955 149.340491 
L 330.724324 154.021667 
L 333.405405 157.196891 
L 336.086486 160.014311 
L 338.320721 162.050662 
L 340.554955 163.777211 
L 342.789189 165.174714 
L 344.576577 166.046449 
L 346.363964 166.6944 
L 348.151351 167.116534 
L 349.938739 167.313122 
L 351.726126 167.28669 
L 353.513514 167.041945 
L 355.300901 166.585689 
L 357.088288 165.926707 
L 359.322523 164.834272 
L 361.556757 163.466328 
L 363.790991 161.851069 
L 366.472072 159.630631 
L 369.6 156.726161 
L 373.621622 152.650002 
L 385.23964 140.636996 
L 388.367568 137.80343 
L 391.048649 135.634852 
L 393.72973 133.75042 
L 395.963964 132.421716 
L 398.198198 131.329173 
L 400.432432 130.483973 
L 402.666667 129.893161 
L 404.900901 129.559635 
L 407.135135 129.48221 
L 409.369369 129.655729 
L 411.603604 130.071252 
L 413.837838 130.716281 
L 416.072072 131.575049 
L 418.753153 132.861174 
L 421.434234 134.390844 
L 424.562162 136.427699 
L 428.583784 139.334974 
L 442.882883 150.001327 
L 446.010811 151.953953 
L 449.138739 153.641015 
L 451.81982 154.843508 
L 454.500901 155.799583 
L 457.181982 156.495151 
L 459.863063 156.922376 
L 462.097297 157.07208 
L 464.778378 157.007616 
L 467.459459 156.685931 
L 470.140541 156.12188 
L 472.821622 155.335308 
L 475.94955 154.168947 
L 479.524324 152.563385 
L 483.545946 150.499915 
L 490.248649 146.761042 
L 496.504505 143.344834 
L 500.526126 141.380525 
L 504.100901 139.875197 
L 507.228829 138.785966 
L 510.356757 137.936679 
L 513.484685 137.344844 
L 516.165766 137.049578 
L 518.4 136.953915 
L 518.4 136.953915 
" style="fill:none;stroke:#1f77b4;stroke-linecap:square;stroke-width:6;"/>
   </g>
   <g id="patch_3">
    <path d="M 72 256.32 
L 72 34.56 
" style="fill:none;stroke:#000000;stroke-linecap:square;stroke-linejoin:miter;stroke-width:0.8;"/>
   </g>
   <g id="patch_4">
    <path d="M 518.4 256.32 
L 518.4 34.56 
" style="fill:none;stroke:#000000;stroke-linecap:square;stroke-linejoin:miter;stroke-width:0.8;"/>
   </g>
   <g id="patch_5">
    <path d="M 72 256.32 
L 518.4 256.32 
" style="fill:none;stroke:#000000;stroke-linecap:square;stroke-linejoin:miter;stroke-width:0.8;"/>
   </g>
   <g id="patch_6">
    <path d="M 72 34.56 
L 518.4 34.56 
" style="fill:none;stroke:#000000;stroke-linecap:square;stroke-linejoin:miter;stroke-width:0.8;"/>
   </g>
  </g>
 </g>
 <defs>
  <clipPath id="padde37a38b">
   <rect height="221.76" width="446.4" x="72" y="34.56"/>
  </clipPath>
 </defs>
</svg>
