<?xml version="1.0" encoding="UTF-8"?>
<!DOCTYPE svg PUBLIC "-//W3C//DTD SVG 1.1//EN" "http://www.w3.org/Graphics/SVG/1.1/DTD/svg11.dtd">
<svg width="176mm" height="75mm" viewBox="0 0 17600 7500" version="1.1" xmlns="http://www.w3.org/2000/svg" xmlns:xlink="http://www.w3.org/1999/xlink" stroke-width="28.222" stroke-linejoin="round" xml:space="preserve">
 <path fill="rgb(255,255,255)" stroke="none" d="M 8798,7451 L -13,7451 -13,-13 17609,-13 17609,7451 8798,7451 Z"/>
 <path fill="none" stroke="rgb(179,179,179)" stroke-linejoin="round" d="M 9714,5672 L 2598,5672 2598,334 16830,334 16830,5672 9714,5672 Z"/>
 <path fill="none" stroke="rgb(179,179,179)" stroke-linejoin="round" d="M 2598,332 L 2598,5671"/>
 <path fill="none" stroke="rgb(179,179,179)" stroke-linejoin="round" d="M 4631,332 L 4631,5671"/>
 <path fill="none" stroke="rgb(179,179,179)" stroke-linejoin="round" d="M 6664,332 L 6664,5671"/>
 <path fill="none" stroke="rgb(179,179,179)" stroke-linejoin="round" d="M 8697,332 L 8697,5671"/>
 <path fill="none" stroke="rgb(179,179,179)" stroke-linejoin="round" d="M 10730,332 L 10730,5671"/>
 <path fill="none" stroke="rgb(179,179,179)" stroke-linejoin="round" d="M 12763,332 L 12763,5671"/>
 <path fill="none" stroke="rgb(179,179,179)" stroke-linejoin="round" d="M 14796,332 L 14796,5671"/>
 <path fill="none" stroke="rgb(179,179,179)" stroke-linejoin="round" d="M 16830,332 L 16830,5671"/>
 <path fill="none" stroke="rgb(179,179,179)" stroke-linejoin="round" d="M 16830,5671 L 2598,5671"/>
 <path fill="none" stroke="rgb(179,179,179)" stroke-linejoin="round" d="M 16830,4781 L 2598,4781"/>
 <path fill="none" stroke="rgb(179,179,179)" stroke-linejoin="round" d="M 16830,3891 L 2598,3891"/>
 <path fill="none" stroke="rgb(179,179,179)" stroke-linejoin="round" d="M 16830,3002 L 2598,3002"/>
 <path fill="none" stroke="rgb(179,179,179)" stroke-linejoin="round" d="M 16830,2112 L 2598,2112"/>
 <path fill="none" stroke="rgb(179,179,179)" stroke-linejoin="round" d="M 16830,1222 L 2598,1222"/>
 <path fill="none" stroke="rgb(179,179,179)" stroke-linejoin="round" d="M 16830,332 L 2598,332"/>
 <path fill="none" stroke="rgb(179,179,179)" stroke-linejoin="round" d="M 2598,5821 L 2598,5671"/>
 <path fill="none" stroke="rgb(179,179,179)" stroke-linejoin="round" d="M 2598,5821 L 2598,5671"/>
 <path fill="none" stroke="rgb(179,179,179)" stroke-linejoin="round" d="M 4631,5821 L 4631,5671"/>
 <path fill="none" stroke="rgb(179,179,179)" stroke-linejoin="round" d="M 4631,5821 L 4631,5671"/>
 <path fill="none" stroke="rgb(179,179,179)" stroke-linejoin="round" d="M 6664,5821 L 6664,5671"/>
 <path fill="none" stroke="rgb(179,179,179)" stroke-linejoin="round" d="M 6664,5821 L 6664,5671"/>
 <path fill="none" stroke="rgb(179,179,179)" stroke-linejoin="round" d="M 8697,5821 L 8697,5671"/>
 <path fill="none" stroke="rgb(179,179,179)" stroke-linejoin="round" d="M 8697,5821 L 8697,5671"/>
 <path fill="none" stroke="rgb(179,179,179)" stroke-linejoin="round" d="M 10730,5821 L 10730,5671"/>
 <path fill="none" stroke="rgb(179,179,179)" stroke-linejoin="round" d="M 10730,5821 L 10730,5671"/>
 <path fill="none" stroke="rgb(179,179,179)" stroke-linejoin="round" d="M 12763,5821 L 12763,5671"/>
 <path fill="none" stroke="rgb(179,179,179)" stroke-linejoin="round" d="M 12763,5821 L 12763,5671"/>
 <path fill="none" stroke="rgb(179,179,179)" stroke-linejoin="round" d="M 14796,5821 L 14796,5671"/>
 <path fill="none" stroke="rgb(179,179,179)" stroke-linejoin="round" d="M 14796,5821 L 14796,5671"/>
 <path fill="none" stroke="rgb(179,179,179)" stroke-linejoin="round" d="M 16830,5821 L 16830,5671"/>
 <path fill="none" stroke="rgb(179,179,179)" stroke-linejoin="round" d="M 16830,5821 L 16830,5671"/>
 <path fill="none" stroke="rgb(179,179,179)" stroke-linejoin="round" d="M 2598,5671 L 16830,5671"/>
 <path fill="none" stroke="rgb(179,179,179)" stroke-linejoin="round" d="M 2448,5671 L 2598,5671"/>
 <path fill="none" stroke="rgb(179,179,179)" stroke-linejoin="round" d="M 2448,5671 L 2598,5671"/>
 <path fill="none" stroke="rgb(179,179,179)" stroke-linejoin="round" d="M 2448,4781 L 2598,4781"/>
 <path fill="none" stroke="rgb(179,179,179)" stroke-linejoin="round" d="M 2448,4781 L 2598,4781"/>
 <path fill="none" stroke="rgb(179,179,179)" stroke-linejoin="round" d="M 2448,3891 L 2598,3891"/>
 <path fill="none" stroke="rgb(179,179,179)" stroke-linejoin="round" d="M 2448,3891 L 2598,3891"/>
 <path fill="none" stroke="rgb(179,179,179)" stroke-linejoin="round" d="M 2448,3002 L 2598,3002"/>
 <path fill="none" stroke="rgb(179,179,179)" stroke-linejoin="round" d="M 2448,3002 L 2598,3002"/>
 <path fill="none" stroke="rgb(179,179,179)" stroke-linejoin="round" d="M 2448,2112 L 2598,2112"/>
 <path fill="none" stroke="rgb(179,179,179)" stroke-linejoin="round" d="M 2448,2112 L 2598,2112"/>
 <path fill="none" stroke="rgb(179,179,179)" stroke-linejoin="round" d="M 2448,1222 L 2598,1222"/>
 <path fill="none" stroke="rgb(179,179,179)" stroke-linejoin="round" d="M 2448,1222 L 2598,1222"/>
 <path fill="none" stroke="rgb(179,179,179)" stroke-linejoin="round" d="M 2448,332 L 2598,332"/>
 <path fill="none" stroke="rgb(179,179,179)" stroke-linejoin="round" d="M 2448,332 L 2598,332"/>
 <path fill="none" stroke="rgb(179,179,179)" stroke-linejoin="round" d="M 2598,5671 L 2598,332"/>
 <path fill="none" stroke="rgb(0,69,134)" stroke-width="80" stroke-linejoin="round" d="M 2638,1296 L 2679,1394 2719,1584 2760,1856 2801,2199 2841,2595 2882,3023 2923,3457 2963,3865 3004,4214 3045,4464 3085,4593 3126,4615 3167,4581 3207,4541 3248,4525 3289,4545 3329,4600 3370,4680 3411,4770 3451,4853 3492,4911 3533,4937 3573,4934 3614,4914 3655,4892 3695,4878 3736,4877 3777,4893 3817,4926 3858,4973 3899,5028 3939,5083 3980,5127 4021,5151 4061,5152 4102,5131 4143,5100 4183,5068 4224,5044 4265,5033 4305,5036 4346,5052 4387,5079 4427,5113 4468,5145 4509,5170 4549,5182 4590,5180 4631,5168 4671,5155 4712,5145 4753,5143 4793,5152 4834,5170 4875,5192 4915,5215 4956,5232 4997,5242 5037,5242 5078,5236 5119,5228 5159,5223 5200,5223 5241,5231 5281,5247 5322,5267 5363,5289 5403,5308 5444,5320 5485,5324 5525,5321 5566,5314 5607,5307 5647,5303 5688,5301 5729,5303 5769,5307 5810,5312 5851,5319 5891,5326 5932,5334 5973,5341 6013,5349 6054,5357 6095,5364 6135,5368 6176,5369 6217,5367 6257,5360 6298,5352 6339,5344 6379,5338 6420,5337 6461,5342 6501,5350 6542,5360 6583,5371 6623,5379 6664,5383 6705,5384 6745,5380 6786,5375 6827,5370 6867,5366 6908,5363 6949,5362 6989,5361 7030,5360 7071,5359 7111,5356 7152,5351 7193,5348 7233,5345 7274,5344 7315,5346 7355,5348 7396,5351 7437,5352 7477,5351 7518,5348 7559,5344 7599,5339 7640,5335 7681,5332 7721,5330 7762,5329 7803,5329 7843,5328 7884,5328 7925,5326 7965,5325 8006,5324 8047,5323 8087,5325 8128,5328 8169,5331 8209,5334 8250,5336 8291,5336 8331,5334 8372,5330 8413,5325 8453,5321 8494,5319 8535,5318 8575,5319 8616,5321 8657,5324 8697,5327 8738,5330 8779,5332 8818,5334 8859,5336 8900,5339 8940,5341 8981,5344 9022,5346 9062,5346 9103,5344 9144,5318 9184,5313 9225,5307 9266,5301 9306,5296 9347,5293 9388,5290 9428,5288 9469,5285 9510,5283 9550,5279 9591,5274 9632,5269 9672,5264 9713,5259 9754,5255 9794,5252 9835,5250 9876,5247 9916,5244 9957,5240 9998,5236 10038,5232 10079,5228 10120,5224 10160,5221 10201,5218 10242,5215 10282,5211 10323,5206 10364,5200 10404,5194 10445,5187 10486,5181 10526,5129 10567,5121 10608,5114 10648,5106 10689,5098 10730,5088 10770,5077 10811,5065 10852,5052 10892,5039 10933,5026 10974,5013 11014,5001 11055,4988 11096,4974 11136,4958 11177,4942 11218,4925 11258,4908 11299,4891 11340,3394 11380,3335 11421,3092 11462,3025 11502,2959 11543,2896 11584,2838 11624,2786 11665,2745 11706,2719 11746,2711 11787,2727 11828,2771 11868,2846 11909,2952 11950,3086 11990,3238 12031,3384 12072,3492 12112,3534 12153,3485 12194,3355 12234,3182 12275,2998 12316,2833 12356,2700 12397,2604 12438,2548 12478,2527 12519,2539 12560,2577 12600,2635 12641,2708 12682,2789 12722,2872 12763,2952 12804,3023 12844,3080 12885,3124 12926,3154 12966,3169 13007,3170 13048,3157 13088,3136 13129,3107 13170,3071 13210,3033 13251,2995 13292,2963 13332,2942 13373,2931 13414,2936 13454,2957 13495,2996 13536,3056 13576,3136 13617,3235 13658,3354 13698,3491 13739,3644 13780,3873 13820,4027 13861,4143 13902,4187 13942,4137 13983,3992 14024,3779 14064,3541 14105,3301 14146,3078 14186,2885 14227,2723 14268,2592 14308,2491 14349,2420 14390,2375 14430,2351 14471,2349 14512,2370 14552,2417 14593,2494 14634,2598 14674,2731 14715,2895 14756,3082 14796,3281 14837,3474 14878,3636 14918,3743 14959,3778 15000,3735 15040,3628 15081,3480 15122,3320 15162,3163 15203,3019 15244,2893 15284,2785 15325,2701 15366,2644 15406,2609 15447,2593 15488,2590 15528,2673 15569,2691 15610,2701 15650,2692"/>
 <text class="SVGTextShape"><tspan class="TextParagraph"><tspan class="TextPosition" x="2505" y="6239"><tspan font-family="Liberation Sans, sans-serif" font-size="353px" font-weight="400" fill="rgb(0,0,0)" stroke="none" style="white-space: pre">0</tspan></tspan></tspan></text>
 <text class="SVGTextShape"><tspan class="TextParagraph"><tspan class="TextPosition" x="4207" y="6239"><tspan font-family="Liberation Sans, sans-serif" font-size="353px" font-weight="400" fill="rgb(0,0,0)" stroke="none" style="white-space: pre">0.005</tspan></tspan></tspan></text>
 <text class="SVGTextShape"><tspan class="TextParagraph"><tspan class="TextPosition" x="6333" y="6239"><tspan font-family="Liberation Sans, sans-serif" font-size="353px" font-weight="400" fill="rgb(0,0,0)" stroke="none" style="white-space: pre">0.01</tspan></tspan></tspan></text>
 <text class="SVGTextShape"><tspan class="TextParagraph"><tspan class="TextPosition" x="8273" y="6239"><tspan font-family="Liberation Sans, sans-serif" font-size="353px" font-weight="400" fill="rgb(0,0,0)" stroke="none" style="white-space: pre">0.015</tspan></tspan></tspan></text>
 <text class="SVGTextShape"><tspan class="TextParagraph"><tspan class="TextPosition" x="10399" y="6239"><tspan font-family="Liberation Sans, sans-serif" font-size="353px" font-weight="400" fill="rgb(0,0,0)" stroke="none" style="white-space: pre">0.02</tspan></tspan></tspan></text>
 <text class="SVGTextShape"><tspan class="TextParagraph"><tspan class="TextPosition" x="12339" y="6239"><tspan font-family="Liberation Sans, sans-serif" font-size="353px" font-weight="400" fill="rgb(0,0,0)" stroke="none" style="white-space: pre">0.025</tspan></tspan></tspan></text>
 <text class="SVGTextShape"><tspan class="TextParagraph"><tspan class="TextPosition" x="14465" y="6239"><tspan font-family="Liberation Sans, sans-serif" font-size="353px" font-weight="400" fill="rgb(0,0,0)" stroke="none" style="white-space: pre">0.03</tspan></tspan></tspan></text>
 <text class="SVGTextShape"><tspan class="TextParagraph"><tspan class="TextPosition" x="16406" y="6239"><tspan font-family="Liberation Sans, sans-serif" font-size="353px" font-weight="400" fill="rgb(0,0,0)" stroke="none" style="white-space: pre">0.035</tspan></tspan></tspan></text>
 <text class="SVGTextShape"><tspan class="TextParagraph"><tspan class="TextPosition" x="2163" y="5791"><tspan font-family="Liberation Sans, sans-serif" font-size="353px" font-weight="400" fill="rgb(0,0,0)" stroke="none" style="white-space: pre">0</tspan></tspan></tspan></text>
 <text class="SVGTextShape"><tspan class="TextParagraph"><tspan class="TextPosition" x="1792" y="4901"><tspan font-family="Liberation Sans, sans-serif" font-size="353px" font-weight="400" fill="rgb(0,0,0)" stroke="none" style="white-space: pre">200</tspan></tspan></tspan></text>
 <text class="SVGTextShape"><tspan class="TextParagraph"><tspan class="TextPosition" x="1792" y="4011"><tspan font-family="Liberation Sans, sans-serif" font-size="353px" font-weight="400" fill="rgb(0,0,0)" stroke="none" style="white-space: pre">400</tspan></tspan></tspan></text>
 <text class="SVGTextShape"><tspan class="TextParagraph"><tspan class="TextPosition" x="1792" y="3122"><tspan font-family="Liberation Sans, sans-serif" font-size="353px" font-weight="400" fill="rgb(0,0,0)" stroke="none" style="white-space: pre">600</tspan></tspan></tspan></text>
 <text class="SVGTextShape"><tspan class="TextParagraph"><tspan class="TextPosition" x="1792" y="2232"><tspan font-family="Liberation Sans, sans-serif" font-size="353px" font-weight="400" fill="rgb(0,0,0)" stroke="none" style="white-space: pre">800</tspan></tspan></tspan></text>
 <text class="SVGTextShape"><tspan class="TextParagraph"><tspan class="TextPosition" x="1607" y="1342"><tspan font-family="Liberation Sans, sans-serif" font-size="353px" font-weight="400" fill="rgb(0,0,0)" stroke="none" style="white-space: pre">1000</tspan></tspan></tspan></text>
 <text class="SVGTextShape"><tspan class="TextParagraph"><tspan class="TextPosition" x="1607" y="452"><tspan font-family="Liberation Sans, sans-serif" font-size="353px" font-weight="400" fill="rgb(0,0,0)" stroke="none" style="white-space: pre">1200</tspan></tspan></tspan></text>
 <text class="SVGTextShape"><tspan class="TextParagraph"><tspan class="TextPosition" x="8875" y="6854"><tspan font-family="Liberation Sans, sans-serif" font-size="318px" font-weight="400" fill="rgb(0,0,0)" stroke="none" style="white-space: pre">Time [s]</tspan></tspan></tspan></text>
 <text class="SVGTextShape" transform="rotate(-90 1080 4086)"><tspan class="TextParagraph"><tspan class="TextPosition" x="1080" y="4085"><tspan font-family="Liberation Sans, sans-serif" font-size="318px" font-weight="400" fill="rgb(0,0,0)" stroke="none" style="white-space: pre">Omega [1/s]</tspan></tspan></tspan></text>
 <path fill="rgb(255,255,255)" stroke="none" d="M 537,1063 L -13,1063 -13,-13 1088,-13 1088,1063 537,1063 Z"/>
</svg>