<svg width="2874" height="1967" xmlns="http://www.w3.org/2000/svg" xmlns:xlink="http://www.w3.org/1999/xlink" xml:space="preserve" overflow="hidden"><g transform="translate(-775 -111)"><path d="M1064.5 1881.06 3606.94 1881.06 3606.94 1887.94 1064.5 1887.94ZM3581.18 1865.49 3613.77 1884.5 3581.18 1903.51C3579.54 1904.47 3577.43 1903.91 3576.47 1902.27 3575.52 1900.63 3576.07 1898.53 3577.71 1897.57L3605.21 1881.53 3605.21 1887.47 3577.71 1871.43C3576.07 1870.47 3575.52 1868.37 3576.47 1866.73 3577.43 1865.09 3579.54 1864.53 3581.18 1865.49Z"/><path d="M3509.18 1964.7 3541.08 1964.7 3540.22 1968.25C3530.81 1976.23 3523.6 1982.99 3518.6 1988.52 3513.61 1994.06 3509.94 1999.19 3507.59 2003.94 3505.25 2008.68 3504.08 2013.28 3504.08 2017.72 3504.08 2019.83 3504.41 2021.6 3505.07 2023.03 3505.73 2024.47 3506.73 2025.73 3508.05 2026.82 3509.38 2027.91 3511.67 2029.23 3514.93 2030.77 3519.04 2032.74 3521.99 2034.63 3523.76 2036.46 3525.53 2038.29 3526.42 2040.45 3526.42 2042.96 3526.42 2046.58 3525.04 2049.84 3522.28 2052.76 3519.53 2055.68 3515.32 2058.63 3509.66 2061.6L3507.24 2057.68C3511.47 2055.28 3514.38 2053.21 3515.97 2051.47 3517.57 2049.74 3518.36 2047.83 3518.36 2045.75 3518.36 2044.54 3518.1 2043.5 3517.58 2042.64 3517.06 2041.78 3516.21 2040.95 3515.03 2040.17 3513.85 2039.38 3511.86 2038.34 3509.07 2037.05 3503.95 2034.72 3500.24 2032.15 3497.95 2029.32 3495.66 2026.49 3494.52 2023.09 3494.52 2019.11 3494.52 2016.53 3494.91 2013.91 3495.7 2011.24 3496.48 2008.58 3497.74 2005.74 3499.46 2002.73 3501.18 1999.72 3503.4 1996.62 3506.14 1993.44 3508.88 1990.25 3511.94 1987.07 3515.3 1983.9 3518.67 1980.74 3523.23 1976.79 3529 1972.06L3529.1 1971.47 3507.73 1971.47Z" fill-rule="evenodd"/><text fill="#000000" fill-opacity="0" font-family="Arial,Arial_MSFontService,sans-serif" font-size="96.8944" x="3494.52" y="2049.49">洧래</text><path d="M3554.33 2021.9 3556.25 2021.9 3550.47 2047.91C3550.1 2049.45 3549.85 2050.67 3549.7 2051.58 3549.56 2052.5 3549.49 2053.32 3549.49 2054.05 3549.49 2055.04 3549.69 2055.75 3550.09 2056.19 3550.5 2056.64 3551.1 2056.86 3551.91 2056.86 3552.38 2056.86 3552.85 2056.77 3553.32 2056.58 3553.79 2056.4 3554.29 2056.12 3554.82 2055.73 3555.36 2055.33 3555.94 2054.83 3556.58 2054.22 3557.22 2053.61 3557.93 2052.87 3558.71 2052.01L3561.36 2054.59C3560.01 2055.97 3558.78 2057.14 3557.67 2058.09 3556.57 2059.04 3555.52 2059.81 3554.53 2060.41 3553.54 2061.01 3552.57 2061.44 3551.62 2061.7 3550.67 2061.96 3549.66 2062.09 3548.59 2062.09 3547.6 2062.09 3546.71 2061.91 3545.92 2061.55 3545.12 2061.18 3544.44 2060.68 3543.86 2060.04 3543.29 2059.4 3542.85 2058.64 3542.54 2057.76 3542.22 2056.87 3542.07 2055.89 3542.07 2054.83 3542.07 2053.97 3542.17 2052.9 3542.38 2051.62 3542.59 2050.35 3542.86 2048.96 3543.18 2047.46 3543.51 2045.97 3543.86 2044.4 3544.26 2042.76 3544.65 2041.12 3545.03 2039.49 3545.41 2037.87 3545.79 2036.26 3546.12 2034.7 3546.42 2033.21 3546.72 2031.71 3546.94 2030.35 3547.07 2029.12 3547.12 2028.92 3547.15 2028.71 3547.15 2028.52 3547.15 2028.32 3547.15 2028.15 3547.15 2027.99 3547.09 2026.98 3546.74 2026.23 3546.07 2025.76 3545.41 2025.3 3544.23 2025.04 3542.54 2024.98L3543.01 2022.33ZM3552.07 2006.16 3559.88 2006.16 3557.97 2014.55 3550.23 2014.55Z" fill-rule="evenodd"/><text fill="#000000" fill-opacity="0" font-family="Arial,Arial_MSFontService,sans-serif" font-size="55.9375" x="3542.07" y="2055.1">洧녰</text><path d="M3.4375-7.1379e-07 3.43786 1731.19-3.43714 1731.19-3.4375 7.1379e-07ZM19.0113 1705.43 0.000360656 1738.02-19.0106 1705.43C-19.9671 1703.79-19.4132 1701.68-17.7734 1700.72-16.1335 1699.77-14.0287 1700.32-13.0721 1701.96L2.9696 1729.46-2.96888 1729.46 13.0728 1701.96C14.0294 1700.32 16.1342 1699.77 17.7741 1700.72 19.4139 1701.68 19.9678 1703.79 19.0113 1705.43Z" transform="matrix(1 0 0 -1 1064.5 1884.5)"/><path d="M2807.3 1964.7 2839.2 1964.7 2838.35 1968.25C2828.93 1976.23 2821.72 1982.99 2816.73 1988.52 2811.73 1994.06 2808.06 1999.19 2805.72 2003.94 2803.37 2008.68 2802.2 2013.28 2802.2 2017.72 2802.2 2019.83 2802.53 2021.6 2803.19 2023.03 2803.85 2024.46 2804.85 2025.73 2806.17 2026.82 2807.5 2027.91 2809.79 2029.23 2813.05 2030.77 2817.17 2032.74 2820.11 2034.63 2821.88 2036.46 2823.66 2038.29 2824.54 2040.45 2824.54 2042.96 2824.54 2046.58 2823.16 2049.84 2820.41 2052.76 2817.65 2055.68 2813.44 2058.62 2807.78 2061.6L2805.37 2057.68C2809.59 2055.28 2812.5 2053.21 2814.09 2051.47 2815.69 2049.74 2816.49 2047.83 2816.49 2045.75 2816.49 2044.53 2816.23 2043.5 2815.71 2042.64 2815.19 2041.78 2814.34 2040.95 2813.16 2040.17 2811.97 2039.38 2809.99 2038.34 2807.19 2037.05 2802.07 2034.72 2798.37 2032.15 2796.07 2029.32 2793.78 2026.49 2792.64 2023.09 2792.64 2019.11 2792.64 2016.53 2793.03 2013.91 2793.82 2011.24 2794.61 2008.58 2795.86 2005.74 2797.58 2002.73 2799.3 1999.72 2801.53 1996.62 2804.27 1993.44 2807.01 1990.25 2810.06 1987.07 2813.42 1983.9 2816.79 1980.74 2821.35 1976.79 2827.12 1972.06L2827.23 1971.47 2805.85 1971.47Z" fill-rule="evenodd"/><text fill="#000000" fill-opacity="0" font-family="Arial,Arial_MSFontService,sans-serif" font-size="96.8945" x="2792.64" y="2049.49">洧래</text><path d="M2847.92 2021.51C2849.85 2021.51 2851.34 2022.14 2852.4 2023.4 2853.45 2024.66 2853.98 2026.32 2853.98 2028.38 2853.98 2028.95 2853.94 2029.51 2853.86 2030.06 2853.78 2030.61 2853.64 2031.14 2853.43 2031.66L2853.9 2031.86C2856.37 2028.39 2858.85 2025.8 2861.32 2024.08 2863.8 2022.37 2866.34 2021.51 2868.94 2021.51 2871.7 2021.51 2873.76 2022.22 2875.13 2023.64 2876.5 2025.05 2877.18 2027.14 2877.18 2029.9 2877.18 2030.14 2877.18 2030.37 2877.18 2030.59 2877.18 2030.81 2877.16 2031.04 2877.1 2031.27L2877.26 2031.27C2879.68 2027.96 2882.09 2025.51 2884.49 2023.91 2886.88 2022.31 2889.38 2021.51 2891.99 2021.51 2894.75 2021.51 2896.81 2022.25 2898.18 2023.73 2899.55 2025.22 2900.23 2027.3 2900.23 2029.98 2900.23 2030.79 2900.1 2031.88 2899.84 2033.24 2899.58 2034.61 2899.26 2036.12 2898.88 2037.76 2898.5 2039.4 2898.09 2041.1 2897.65 2042.85 2897.21 2044.61 2896.79 2046.27 2896.4 2047.83 2896.17 2048.85 2895.98 2049.68 2895.83 2050.31 2895.69 2050.95 2895.58 2051.49 2895.5 2051.92 2895.42 2052.35 2895.37 2052.72 2895.35 2053.03 2895.32 2053.34 2895.31 2053.68 2895.31 2054.05 2895.31 2055.03 2895.49 2055.75 2895.85 2056.19 2896.22 2056.64 2896.8 2056.86 2897.61 2056.86 2898.08 2056.86 2898.55 2056.77 2899.02 2056.58 2899.49 2056.4 2899.99 2056.12 2900.52 2055.73 2901.06 2055.33 2901.64 2054.83 2902.28 2054.22 2902.92 2053.61 2903.63 2052.87 2904.41 2052.01L2907.1 2054.59C2905.85 2055.89 2904.69 2057.01 2903.61 2057.95 2902.53 2058.89 2901.49 2059.66 2900.48 2060.28 2899.48 2060.89 2898.48 2061.34 2897.49 2061.64 2896.51 2061.94 2895.46 2062.09 2894.37 2062.09 2893.38 2062.09 2892.48 2061.91 2891.67 2061.55 2890.87 2061.18 2890.18 2060.68 2889.62 2060.04 2889.06 2059.4 2888.63 2058.65 2888.31 2057.78 2888 2056.9 2887.85 2055.95 2887.85 2054.9 2887.85 2052.77 2888.3 2050.02 2889.21 2046.66 2889.71 2044.97 2890.16 2043.35 2890.56 2041.8 2890.96 2040.25 2891.31 2038.82 2891.6 2037.5 2891.88 2036.19 2892.11 2035.02 2892.28 2033.99 2892.45 2032.96 2892.53 2032.11 2892.53 2031.43 2892.53 2029.81 2892.23 2028.63 2891.62 2027.87 2891 2027.12 2890.05 2026.74 2888.74 2026.74 2887.94 2026.74 2887.08 2026.95 2886.17 2027.37 2885.26 2027.78 2884.34 2028.36 2883.41 2029.1 2882.49 2029.85 2881.58 2030.73 2880.7 2031.74 2879.81 2032.76 2878.99 2033.86 2878.24 2035.04 2877.48 2036.23 2876.81 2037.47 2876.23 2038.77 2875.64 2040.07 2875.19 2041.39 2874.88 2042.72L2871.01 2061.39 2863.39 2061.39C2863.76 2059.72 2864.17 2057.93 2864.62 2056.02 2865.08 2054.1 2865.54 2052.17 2866.01 2050.22 2866.48 2048.26 2866.93 2046.34 2867.36 2044.44 2867.79 2042.54 2868.17 2040.76 2868.51 2039.1 2868.85 2037.45 2869.12 2035.97 2869.33 2034.65 2869.54 2033.34 2869.64 2032.29 2869.64 2031.51 2869.64 2029.87 2869.32 2028.66 2868.69 2027.89 2868.05 2027.12 2867.03 2026.74 2865.62 2026.74 2864.37 2026.74 2863.03 2027.21 2861.6 2028.15 2860.16 2029.08 2858.8 2030.31 2857.51 2031.84 2856.23 2033.36 2855.07 2035.08 2854.06 2036.99 2853.04 2038.91 2852.33 2040.84 2851.91 2042.8L2847.92 2061.39 2840.27 2061.39 2846.13 2035.92C2846.47 2034.51 2846.71 2033.29 2846.87 2032.25 2847.03 2031.21 2847.1 2030.35 2847.1 2029.67 2847.1 2027.77 2846.34 2026.82 2844.8 2026.82 2844.33 2026.82 2843.86 2026.92 2843.37 2027.11 2842.89 2027.31 2842.38 2027.6 2841.85 2027.99 2841.32 2028.38 2840.74 2028.88 2840.11 2029.48 2839.49 2030.07 2838.78 2030.78 2838 2031.58L2835.31 2029.05C2836.58 2027.74 2837.76 2026.62 2838.84 2025.67 2839.92 2024.72 2840.96 2023.93 2841.97 2023.32 2842.97 2022.71 2843.95 2022.26 2844.92 2021.96 2845.88 2021.66 2846.88 2021.51 2847.92 2021.51Z" fill-rule="evenodd"/><text fill="#000000" fill-opacity="0" font-family="Arial,Arial_MSFontService,sans-serif" font-size="40.5859" x="2835.31" y="2057.02">洧녴</text><path d="M2403.7 1964.92 2435.61 1964.92 2434.75 1968.46C2425.33 1976.45 2418.12 1983.21 2413.13 1988.74 2408.13 1994.27 2404.46 1999.41 2402.12 2004.15 2399.77 2008.9 2398.6 2013.49 2398.6 2017.93 2398.6 2020.04 2398.93 2021.82 2399.59 2023.25 2400.25 2024.68 2401.25 2025.94 2402.57 2027.03 2403.9 2028.13 2406.19 2029.44 2409.45 2030.98 2413.57 2032.95 2416.51 2034.85 2418.28 2036.68 2420.06 2038.5 2420.94 2040.67 2420.94 2043.17 2420.94 2046.79 2419.56 2050.06 2416.81 2052.98 2414.05 2055.89 2409.84 2058.84 2404.18 2061.81L2401.77 2057.89C2405.99 2055.49 2408.9 2053.42 2410.5 2051.69 2412.09 2049.95 2412.89 2048.04 2412.89 2045.97 2412.89 2044.75 2412.63 2043.71 2412.11 2042.85 2411.59 2041.99 2410.74 2041.17 2409.56 2040.38 2408.37 2039.59 2406.39 2038.56 2403.59 2037.27 2398.47 2034.94 2394.77 2032.36 2392.48 2029.53 2390.18 2026.7 2389.04 2023.3 2389.04 2019.33 2389.04 2016.75 2389.43 2014.13 2390.22 2011.46 2391.01 2008.79 2392.26 2005.95 2393.98 2002.94 2395.7 1999.94 2397.93 1996.84 2400.67 1993.65 2403.41 1990.47 2406.46 1987.29 2409.82 1984.12 2413.19 1980.95 2417.76 1977 2423.52 1972.28L2423.63 1971.68 2402.25 1971.68Z" fill-rule="evenodd"/><text fill="#000000" fill-opacity="0" font-family="Arial,Arial_MSFontService,sans-serif" font-size="96.8944" x="2389.04" y="2049.7">洧래</text><path d="M2462.65 2026.96C2461.06 2026.96 2459.59 2027.43 2458.25 2028.38 2456.91 2029.33 2455.47 2030.69 2453.93 2032.46 2453.23 2033.3 2452.58 2034.12 2451.98 2034.92 2451.38 2035.73 2450.84 2036.61 2450.36 2037.56 2449.88 2038.51 2449.45 2039.57 2449.07 2040.73 2448.69 2041.88 2448.36 2043.22 2448.07 2044.73 2447.71 2046.53 2447.42 2048.04 2447.22 2049.26 2447.01 2050.48 2446.9 2051.64 2446.9 2052.74 2446.9 2054.85 2447.39 2056.34 2448.37 2057.21 2449.34 2058.08 2450.91 2058.52 2453.07 2058.52 2454.59 2058.52 2456 2058.19 2457.31 2057.52 2458.63 2056.86 2459.82 2055.95 2460.89 2054.81 2461.96 2053.66 2462.91 2052.33 2463.74 2050.8 2464.57 2049.28 2465.27 2047.65 2465.83 2045.92 2466.39 2044.19 2466.82 2042.41 2467.12 2040.59 2467.42 2038.77 2467.57 2036.99 2467.57 2035.28 2467.57 2032.49 2467.18 2030.41 2466.41 2029.03 2465.65 2027.65 2464.39 2026.96 2462.65 2026.96ZM2444.52 2021.72C2446.42 2021.72 2447.9 2022.35 2448.95 2023.62 2450.01 2024.88 2450.54 2026.54 2450.54 2028.6 2450.54 2029.2 2450.49 2029.77 2450.4 2030.32 2450.31 2030.86 2450.15 2031.41 2449.91 2031.96L2450.46 2032.23C2453.01 2028.66 2455.52 2026.02 2457.98 2024.3 2460.44 2022.58 2463.02 2021.72 2465.73 2021.72 2468.83 2021.72 2471.21 2022.84 2472.86 2025.08 2474.51 2027.32 2475.34 2030.59 2475.34 2034.89 2475.34 2038.64 2474.76 2042.17 2473.6 2045.49 2472.44 2048.81 2470.87 2051.72 2468.9 2054.22 2466.92 2056.72 2464.62 2058.69 2462 2060.14 2459.38 2061.58 2456.62 2062.31 2453.7 2062.31 2451.67 2062.31 2449.9 2062.11 2448.41 2061.7 2446.91 2061.3 2445.67 2060.81 2444.68 2060.24 2444.44 2061.25 2444.19 2062.31 2443.91 2063.4 2443.64 2064.49 2443.38 2065.55 2443.13 2066.57 2442.89 2067.58 2442.68 2068.52 2442.53 2069.38 2442.37 2070.24 2442.29 2070.93 2442.29 2071.45 2442.29 2071.92 2442.37 2072.31 2442.51 2072.62 2442.65 2072.93 2442.91 2073.19 2443.29 2073.4 2443.67 2073.61 2444.17 2073.77 2444.79 2073.89 2445.42 2074.01 2446.2 2074.1 2447.14 2074.18L2447.02 2076.76 2433.27 2076.76 2442.8 2036.06C2443.11 2034.63 2443.34 2033.43 2443.47 2032.46 2443.6 2031.5 2443.66 2030.64 2443.66 2029.89 2443.66 2027.98 2442.89 2027.03 2441.36 2027.03 2440.89 2027.03 2440.42 2027.13 2439.95 2027.33 2439.48 2027.52 2438.98 2027.82 2438.45 2028.21 2437.91 2028.6 2437.33 2029.09 2436.69 2029.69 2436.05 2030.29 2435.34 2030.99 2434.56 2031.8L2431.86 2029.26C2433.17 2027.96 2434.36 2026.83 2435.44 2025.88 2436.52 2024.93 2437.56 2024.15 2438.56 2023.54 2439.57 2022.93 2440.54 2022.47 2441.49 2022.17 2442.44 2021.87 2443.45 2021.72 2444.52 2021.72Z" fill-rule="evenodd"/><text fill="#000000" fill-opacity="0" font-family="Arial,Arial_MSFontService,sans-serif" font-size="55.0391" x="2431.86" y="2069.88">洧녷</text><path d="M837.714 273.302C841.224 273.302 844.249 273.589 846.792 274.162L844.697 283.293 839.97 283.293C839.469 281.252 838.815 279.784 838.01 278.888 837.204 277.993 836.014 277.546 834.438 277.546 832.397 277.546 830.669 278.11 829.255 279.238 827.841 280.365 826.632 282.039 825.629 284.259 824.627 286.48 823.696 289.469 822.836 293.229L821.494 299.084 835.297 299.084 834.116 304.509 820.258 304.509 810.268 351.344C808.621 359.115 806.097 364.906 802.695 368.72 799.293 372.533 795.014 374.44 789.858 374.44 788.354 374.44 787.172 374.351 786.313 374.172L787.226 369.445C787.584 369.552 788.426 369.606 789.751 369.606 791.362 369.606 792.74 369.194 793.886 368.371 795.032 367.547 796.097 366.115 797.082 364.074 798.067 362.033 798.971 359.204 799.794 355.588L811.342 304.509 802.265 304.509 803.071 300.802C805.47 300.659 807.198 300.462 808.254 300.212 809.31 299.961 810.134 299.585 810.725 299.084 811.315 298.582 811.817 297.929 812.229 297.123 812.64 296.318 813.169 294.841 813.813 292.692 815.711 286.247 818.638 281.404 822.595 278.163 826.552 274.923 831.591 273.302 837.714 273.302Z" fill-rule="evenodd"/><text fill="#000000" fill-opacity="0" font-family="Arial,Arial_MSFontService,sans-serif" font-size="101.138" x="786.313" y="361.798">洧녭</text><path d="M893.242 272.819 894.692 276.955C886.313 279.712 880.11 285.092 876.082 293.095 872.053 301.098 870.039 311.151 870.039 323.254 870.039 335.786 872.053 346.117 876.082 354.245 880.11 362.373 886.26 367.816 894.531 370.573L893.242 374.709C882.751 371.952 874.712 366.016 869.126 356.904 863.54 347.791 860.747 336.753 860.747 323.791 860.747 310.864 863.549 299.827 869.153 290.678 874.757 281.529 882.786 275.576 893.242 272.819Z" fill-rule="evenodd"/><text fill="#000000" fill-opacity="0" font-family="Arial,Arial_MSFontService,sans-serif" font-size="101.89" x="860.747" y="361.973">(</text><path d="M916.41 276.203 948.314 276.203 947.454 279.748C938.037 287.733 930.831 294.491 925.836 300.024 920.841 305.556 917.17 310.694 914.825 315.439 912.48 320.183 911.307 324.775 911.307 329.216 911.307 331.328 911.638 333.101 912.301 334.533 912.963 335.965 913.957 337.227 915.282 338.32 916.607 339.412 918.898 340.728 922.157 342.267 926.274 344.237 929.22 346.134 930.992 347.961 932.765 349.787 933.651 351.953 933.651 354.46 933.651 358.076 932.272 361.344 929.515 364.262 926.758 367.18 922.55 370.125 916.893 373.097L914.476 369.176C918.701 366.777 921.611 364.71 923.204 362.973 924.797 361.236 925.594 359.329 925.594 357.253 925.594 356.035 925.335 354.997 924.815 354.137 924.296 353.278 923.446 352.454 922.264 351.667 921.082 350.879 919.095 349.841 916.302 348.551 911.182 346.224 907.476 343.646 905.184 340.817 902.892 337.988 901.746 334.587 901.746 330.612 901.746 328.034 902.14 325.411 902.928 322.743 903.716 320.076 904.969 317.238 906.688 314.23 908.407 311.222 910.636 308.125 913.375 304.938 916.114 301.751 919.167 298.573 922.533 295.405 925.898 292.236 930.464 288.288 936.229 283.561L936.336 282.97 914.959 282.97Z" fill-rule="evenodd"/><text fill="#000000" fill-opacity="0" font-family="Arial,Arial_MSFontService,sans-serif" font-size="96.8945" x="901.746" y="360.986">洧래</text><path d="M961.565 333.398 963.479 333.398 957.697 359.413C957.333 360.95 957.079 362.174 956.936 363.085 956.792 363.996 956.721 364.817 956.721 365.546 956.721 366.536 956.923 367.252 957.326 367.694 957.73 368.137 958.335 368.358 959.143 368.358 959.611 368.358 960.08 368.267 960.549 368.085 961.018 367.903 961.519 367.616 962.053 367.226 962.587 366.835 963.173 366.334 963.811 365.722 964.449 365.11 965.158 364.374 965.94 363.515L968.596 366.093C967.242 367.473 966.011 368.638 964.904 369.589 963.798 370.539 962.749 371.314 961.76 371.913 960.77 372.512 959.8 372.942 958.85 373.202 957.899 373.463 956.89 373.593 955.822 373.593 954.833 373.593 953.941 373.411 953.147 373.046 952.352 372.681 951.669 372.18 951.096 371.542 950.523 370.904 950.08 370.142 949.768 369.257 949.455 368.371 949.299 367.395 949.299 366.327 949.299 365.468 949.403 364.4 949.611 363.124 949.82 361.848 950.087 360.461 950.412 358.964 950.738 357.467 951.096 355.898 951.486 354.257 951.877 352.616 952.261 350.989 952.639 349.374 953.016 347.759 953.355 346.204 953.654 344.706 953.954 343.209 954.169 341.848 954.299 340.624 954.351 340.416 954.377 340.214 954.377 340.019 954.377 339.823 954.377 339.648 954.377 339.491 954.325 338.476 953.967 337.733 953.303 337.265 952.639 336.796 951.46 336.536 949.768 336.483L950.236 333.827ZM959.299 317.655 967.111 317.655 965.197 326.054 957.463 326.054Z" fill-rule="evenodd"/><text fill="#000000" fill-opacity="0" font-family="Arial,Arial_MSFontService,sans-serif" font-size="55.9375" x="949.299" y="366.601">洧녰</text><path d="M981.689 272.819C992.145 275.576 1000.17 281.529 1005.78 290.678 1011.38 299.827 1014.18 310.864 1014.18 323.791 1014.18 336.753 1011.39 347.791 1005.81 356.904 1000.22 366.016 992.181 371.952 981.689 374.709L980.4 370.573C988.672 367.816 994.821 362.373 998.85 354.245 1002.88 346.117 1004.89 335.786 1004.89 323.254 1004.89 311.151 1002.89 301.098 998.877 293.095 994.866 285.092 988.654 279.712 980.239 276.955Z" fill-rule="evenodd"/><text fill="#000000" fill-opacity="0" font-family="Arial,Arial_MSFontService,sans-serif" font-size="101.89" x="980.239" y="361.973">)</text><path d="M0 0 2009.08 1380.42" stroke="#A6A6A6" stroke-width="6.875" stroke-miterlimit="8" stroke-dasharray="27.5 20.625" fill="none" fill-rule="evenodd" transform="matrix(1 0 0 -1 1064.5 1883.92)"/><path d="M0 0 0.000360892 671" stroke="#A6A6A6" stroke-width="6.875" stroke-miterlimit="8" stroke-dasharray="27.5 20.625" fill="none" fill-rule="evenodd" transform="matrix(1 0 0 -1 2030.5 1878.5)"/><path d="M0 0 0.000360892 1225.33" stroke="#A6A6A6" stroke-width="6.875" stroke-miterlimit="8" stroke-dasharray="27.5 20.625" fill="none" fill-rule="evenodd" transform="matrix(1 0 0 -1 2850.5 1883.83)"/><path d="M0 0 965.212 2.75" stroke="#A6A6A6" stroke-width="6.875" stroke-miterlimit="8" stroke-dasharray="27.5 20.625" fill="none" fill-rule="evenodd" transform="matrix(1 0 0 -1 1064.5 1210.25)"/><path d="M1064.5 662.5 2842.82 662.5" stroke="#A6A6A6" stroke-width="6.875" stroke-miterlimit="8" stroke-dasharray="27.5 20.625" fill="none" fill-rule="evenodd"/><path d="M2031.07 1964.76 2034.02 1964.76C2033.81 1968.19 2033.7 1972.96 2033.7 1979.04L2033.7 2024.91C2033.7 2026.99 2033.82 2028.56 2034.05 2029.61 2034.28 2030.67 2034.69 2031.53 2035.28 2032.19 2035.87 2032.85 2036.72 2033.37 2037.83 2033.75 2038.94 2034.12 2040.34 2034.41 2042.02 2034.61 2043.71 2034.8 2045.93 2034.94 2048.68 2035.01L2048.68 2038.93 2008.99 2038.93 2008.99 2035.01C2012.97 2034.83 2015.8 2034.59 2017.51 2034.28 2019.21 2033.98 2020.5 2033.52 2021.4 2032.92 2022.29 2032.31 2022.95 2031.45 2023.36 2030.34 2023.77 2029.23 2023.98 2027.42 2023.98 2024.91L2023.98 1981.35C2023.98 1979.92 2023.73 1978.87 2023.23 1978.21 2022.72 1977.55 2021.99 1977.22 2021.02 1977.22 2019.88 1977.22 2018.25 1977.81 2016.14 1978.99 2014.02 1980.17 2011.41 1981.8 2008.29 1983.88L2005.93 1979.74Z" fill-rule="evenodd"/><text fill="#000000" fill-opacity="0" font-family="Arial,Arial_MSFontService,sans-serif" font-size="74.1748" x="2005.93" y="2029.66">1</text><path d="M955.361 1178.49 958.315 1178.49C958.1 1181.93 957.993 1186.69 957.993 1192.78L957.993 1238.65C957.993 1240.73 958.109 1242.29 958.342 1243.35 958.575 1244.41 958.987 1245.27 959.577 1245.93 960.168 1246.59 961.019 1247.11 962.129 1247.49 963.239 1247.86 964.635 1248.15 966.318 1248.34 968.001 1248.54 970.221 1248.68 972.978 1248.75L972.978 1252.67 933.286 1252.67 933.286 1248.75C937.261 1248.57 940.098 1248.33 941.799 1248.02 943.5 1247.72 944.798 1247.26 945.693 1246.65 946.588 1246.04 947.242 1245.18 947.654 1244.07 948.065 1242.96 948.271 1241.16 948.271 1238.65L948.271 1195.09C948.271 1193.66 948.021 1192.61 947.519 1191.95 947.018 1191.29 946.284 1190.95 945.317 1190.95 944.171 1190.95 942.542 1191.55 940.43 1192.73 938.317 1193.91 935.703 1195.54 932.588 1197.61L930.224 1193.48Z" fill-rule="evenodd"/><text fill="#000000" fill-opacity="0" font-family="Arial,Arial_MSFontService,sans-serif" font-size="74.1748" x="930.224" y="1243.4">1</text><path d="M1697 1207 2434 1210.3" stroke="#215F9A" stroke-width="13.75" stroke-linecap="round" stroke-miterlimit="8" fill="none" fill-rule="evenodd"/><path d="M0 0 0.000360892 673.75" stroke="#A6A6A6" stroke-width="6.875" stroke-miterlimit="8" stroke-dasharray="27.5 20.625" fill="none" fill-rule="evenodd" transform="matrix(1 0 0 -1 2434.5 1884.25)"/><path d="M0 0 0.000360892 673.75" stroke="#A6A6A6" stroke-width="6.875" stroke-miterlimit="8" stroke-dasharray="27.5 20.625" fill="none" fill-rule="evenodd" transform="matrix(1 0 0 -1 1694.5 1884.25)"/><path d="M1619.22 1964.97 1622.18 1964.97C1621.96 1968.41 1621.86 1973.17 1621.86 1979.26L1621.86 2025.13C1621.86 2027.2 1621.97 2028.77 1622.21 2029.83 1622.44 2030.88 1622.85 2031.74 1623.44 2032.41 1624.03 2033.07 1624.88 2033.59 1625.99 2033.96 1627.1 2034.34 1628.5 2034.63 1630.18 2034.82 1631.86 2035.02 1634.08 2035.15 1636.84 2035.22L1636.84 2039.15 1597.15 2039.15 1597.15 2035.22C1601.12 2035.05 1603.96 2034.8 1605.66 2034.5 1607.36 2034.2 1608.66 2033.74 1609.56 2033.13 1610.45 2032.52 1611.1 2031.66 1611.52 2030.55 1611.93 2029.44 1612.13 2027.63 1612.13 2025.13L1612.13 1981.57C1612.13 1980.14 1611.88 1979.09 1611.38 1978.43 1610.88 1977.76 1610.15 1977.43 1609.18 1977.43 1608.03 1977.43 1606.41 1978.02 1604.29 1979.2 1602.18 1980.39 1599.57 1982.02 1596.45 1984.09L1594.09 1979.96Z" fill-rule="evenodd"/><text fill="#000000" fill-opacity="0" font-family="Arial,Arial_MSFontService,sans-serif" font-size="74.1748" x="1594.09" y="2029.87">1</text><path d="M1687.47 1962.29 1695.8 1962.29 1657.02 2062.24 1648.59 2062.24Z" fill-rule="evenodd"/><text fill="#000000" fill-opacity="0" font-family="Arial,Arial_MSFontService,sans-serif" font-size="99.9559" x="1648.59" y="2049.75">/</text><path d="M1718.61 1964.92 1750.51 1964.92 1749.65 1968.46C1740.23 1976.45 1733.03 1983.21 1728.03 1988.74 1723.04 1994.27 1719.37 1999.41 1717.02 2004.15 1714.68 2008.9 1713.5 2013.49 1713.5 2017.93 1713.5 2020.04 1713.84 2021.82 1714.5 2023.25 1715.16 2024.68 1716.15 2025.94 1717.48 2027.03 1718.8 2028.13 1721.1 2029.44 1724.35 2030.98 1728.47 2032.95 1731.42 2034.85 1733.19 2036.68 1734.96 2038.5 1735.85 2040.67 1735.85 2043.17 1735.85 2046.79 1734.47 2050.06 1731.71 2052.98 1728.96 2055.89 1724.75 2058.84 1719.09 2061.81L1716.67 2057.89C1720.9 2055.49 1723.81 2053.42 1725.4 2051.69 1727 2049.95 1727.79 2048.04 1727.79 2045.97 1727.79 2044.75 1727.53 2043.71 1727.01 2042.85 1726.49 2041.99 1725.64 2041.17 1724.46 2040.38 1723.28 2039.59 1721.29 2038.56 1718.5 2037.27 1713.38 2034.94 1709.67 2032.36 1707.38 2029.53 1705.09 2026.7 1703.94 2023.3 1703.94 2019.33 1703.94 2016.75 1704.34 2014.13 1705.13 2011.46 1705.91 2008.79 1707.17 2005.95 1708.89 2002.94 1710.6 1999.94 1712.83 1996.84 1715.57 1993.65 1718.31 1990.47 1721.36 1987.29 1724.73 1984.12 1728.1 1980.95 1732.66 1977 1738.43 1972.28L1738.53 1971.68 1717.16 1971.68Z" fill-rule="evenodd"/><text fill="#000000" fill-opacity="0" font-family="Arial,Arial_MSFontService,sans-serif" font-size="96.8944" x="1703.94" y="2049.7">洧래</text><path d="M1777.55 2026.96C1775.96 2026.96 1774.5 2027.43 1773.16 2028.38 1771.82 2029.33 1770.38 2030.69 1768.84 2032.46 1768.14 2033.3 1767.49 2034.12 1766.89 2034.92 1766.29 2035.73 1765.75 2036.61 1765.27 2037.56 1764.78 2038.51 1764.35 2039.57 1763.98 2040.73 1763.6 2041.88 1763.27 2043.22 1762.98 2044.73 1762.62 2046.53 1762.33 2048.04 1762.12 2049.26 1761.91 2050.48 1761.81 2051.64 1761.81 2052.74 1761.81 2054.85 1762.3 2056.34 1763.27 2057.21 1764.25 2058.08 1765.82 2058.52 1767.98 2058.52 1769.49 2058.52 1770.9 2058.19 1772.22 2057.52 1773.53 2056.86 1774.73 2055.95 1775.79 2054.81 1776.86 2053.66 1777.81 2052.33 1778.65 2050.8 1779.48 2049.28 1780.18 2047.65 1780.74 2045.92 1781.3 2044.19 1781.72 2042.41 1782.02 2040.59 1782.32 2038.77 1782.47 2036.99 1782.47 2035.28 1782.47 2032.49 1782.09 2030.41 1781.32 2029.03 1780.55 2027.65 1779.3 2026.96 1777.55 2026.96ZM1759.43 2021.72C1761.33 2021.72 1762.81 2022.35 1763.86 2023.62 1764.91 2024.88 1765.44 2026.54 1765.44 2028.6 1765.44 2029.2 1765.4 2029.77 1765.31 2030.32 1765.21 2030.86 1765.05 2031.41 1764.82 2031.96L1765.36 2032.23C1767.92 2028.66 1770.42 2026.02 1772.88 2024.3 1775.34 2022.58 1777.93 2021.72 1780.64 2021.72 1783.74 2021.72 1786.11 2022.84 1787.77 2025.08 1789.42 2027.32 1790.25 2030.59 1790.25 2034.89 1790.25 2038.64 1789.67 2042.17 1788.51 2045.49 1787.35 2048.81 1785.78 2051.72 1783.8 2054.22 1781.82 2056.72 1779.52 2058.69 1776.91 2060.14 1774.29 2061.58 1771.52 2062.31 1768.61 2062.31 1766.57 2062.31 1764.81 2062.11 1763.31 2061.7 1761.82 2061.3 1760.57 2060.81 1759.58 2060.24 1759.35 2061.25 1759.09 2062.31 1758.82 2063.4 1758.55 2064.49 1758.29 2065.55 1758.04 2066.57 1757.79 2067.58 1757.59 2068.52 1757.43 2069.38 1757.28 2070.24 1757.2 2070.93 1757.2 2071.45 1757.2 2071.92 1757.27 2072.31 1757.41 2072.62 1757.56 2072.93 1757.82 2073.19 1758.2 2073.4 1758.57 2073.61 1759.07 2073.77 1759.7 2073.89 1760.32 2074.01 1761.11 2074.1 1762.04 2074.18L1761.93 2076.76 1748.18 2076.76 1757.71 2036.06C1758.02 2034.63 1758.24 2033.43 1758.37 2032.46 1758.5 2031.5 1758.57 2030.64 1758.57 2029.89 1758.57 2027.98 1757.8 2027.03 1756.26 2027.03 1755.79 2027.03 1755.32 2027.13 1754.86 2027.33 1754.39 2027.52 1753.89 2027.82 1753.35 2028.21 1752.82 2028.6 1752.23 2029.09 1751.59 2029.69 1750.96 2030.29 1750.25 2030.99 1749.47 2031.8L1746.77 2029.26C1748.07 2027.96 1749.26 2026.83 1750.34 2025.88 1751.43 2024.93 1752.47 2024.15 1753.47 2023.54 1754.47 2022.93 1755.45 2022.47 1756.4 2022.17 1757.35 2021.87 1758.36 2021.72 1759.43 2021.72Z" fill-rule="evenodd"/><text fill="#000000" fill-opacity="0" font-family="Arial,Arial_MSFontService,sans-serif" font-size="55.0391" x="1746.77" y="2069.88">洧녷</text><path d="M0 0 2.75 246.667" stroke="#215F9A" stroke-width="13.75" stroke-linecap="round" stroke-miterlimit="8" fill="none" fill-rule="evenodd" transform="matrix(-1 0 0 1 1696.75 1207)"/><path d="M0 0 1.00075 265.017" stroke="#215F9A" stroke-width="13.75" stroke-linecap="round" stroke-miterlimit="8" fill="none" fill-rule="evenodd" transform="matrix(-1 0 0 1 2434 943)"/><path d="M0 0 406.491 284.918" stroke="#215F9A" stroke-width="13.75" stroke-linecap="round" stroke-miterlimit="8" fill="none" fill-rule="evenodd" transform="matrix(-1 0 0 1 2839.49 658)"/><path d="M3326.17 661.511 2845 660" stroke="#215F9A" stroke-width="13.75" stroke-linecap="round" stroke-miterlimit="8" fill="none" fill-rule="evenodd"/><path d="M0 0 625.083 425.572" stroke="#215F9A" stroke-width="13.75" stroke-linecap="round" stroke-miterlimit="8" fill="none" fill-rule="evenodd" transform="matrix(-1 0 0 1 1689.08 1456)"/><path d="M904.283 623.039 936.187 623.039 935.328 626.584C925.91 634.569 918.704 641.327 913.709 646.86 908.714 652.392 905.044 657.53 902.698 662.275 900.353 667.019 899.18 671.611 899.18 676.052 899.18 678.164 899.511 679.937 900.174 681.369 900.836 682.801 901.83 684.063 903.155 685.156 904.48 686.248 906.771 687.564 910.03 689.103 914.148 691.073 917.093 692.97 918.865 694.797 920.638 696.623 921.524 698.789 921.524 701.296 921.524 704.912 920.145 708.18 917.388 711.098 914.631 714.016 910.424 716.961 904.766 719.933L902.349 716.012C906.574 713.613 909.484 711.545 911.077 709.809 912.671 708.072 913.467 706.165 913.467 704.089 913.467 702.871 913.208 701.833 912.688 700.973 912.169 700.114 911.319 699.29 910.137 698.503 908.956 697.715 906.968 696.677 904.175 695.387 899.055 693.06 895.349 690.482 893.057 687.653 890.765 684.824 889.62 681.423 889.62 677.448 889.62 674.87 890.013 672.247 890.801 669.579 891.589 666.912 892.842 664.074 894.561 661.066 896.28 658.058 898.509 654.961 901.248 651.774 903.987 648.587 907.04 645.409 910.406 642.24 913.772 639.072 918.337 635.124 924.102 630.397L924.209 629.806 902.832 629.806Z" fill-rule="evenodd"/><text fill="#000000" fill-opacity="0" font-family="Arial,Arial_MSFontService,sans-serif" font-size="96.8945" x="889.62" y="707.822">洧래</text><path d="M944.906 679.843C946.833 679.843 948.324 680.474 949.379 681.737 950.434 683 950.961 684.661 950.961 686.718 950.961 687.291 950.922 687.851 950.844 688.398 950.766 688.944 950.622 689.478 950.414 689.999L950.883 690.194C953.357 686.731 955.831 684.14 958.305 682.421 960.779 680.702 963.318 679.843 965.922 679.843 968.682 679.843 970.746 680.552 972.113 681.972 973.481 683.391 974.164 685.481 974.164 688.241 974.164 688.476 974.164 688.703 974.164 688.925 974.164 689.146 974.138 689.374 974.086 689.608L974.242 689.608C976.664 686.301 979.073 683.847 981.469 682.245 983.865 680.644 986.365 679.843 988.969 679.843 991.729 679.843 993.793 680.585 995.16 682.069 996.527 683.554 997.211 685.637 997.211 688.319 997.211 689.127 997.081 690.214 996.82 691.581 996.56 692.948 996.241 694.452 995.863 696.093 995.486 697.733 995.076 699.433 994.633 701.19 994.19 702.948 993.774 704.608 993.383 706.171 993.149 707.187 992.96 708.013 992.817 708.651 992.673 709.289 992.563 709.823 992.484 710.253 992.406 710.683 992.354 711.054 992.328 711.366 992.302 711.679 992.289 712.017 992.289 712.382 992.289 713.371 992.471 714.088 992.836 714.53 993.201 714.973 993.787 715.194 994.594 715.194 995.063 715.194 995.531 715.103 996 714.921 996.469 714.739 996.97 714.452 997.504 714.062 998.038 713.671 998.624 713.17 999.262 712.558 999.9 711.946 1000.61 711.21 1001.39 710.351L1004.09 712.929C1002.84 714.231 1001.67 715.351 1000.59 716.288 999.509 717.226 998.468 718 997.465 718.612 996.462 719.224 995.466 719.68 994.477 719.98 993.487 720.279 992.445 720.429 991.352 720.429 990.362 720.429 989.464 720.246 988.656 719.882 987.849 719.517 987.165 719.016 986.606 718.378 986.046 717.74 985.609 716.985 985.297 716.112 984.984 715.24 984.828 714.283 984.828 713.241 984.828 711.106 985.284 708.358 986.195 704.999 986.69 703.306 987.139 701.685 987.543 700.136 987.947 698.586 988.292 697.154 988.578 695.839 988.865 694.524 989.093 693.352 989.262 692.323 989.431 691.295 989.516 690.442 989.516 689.765 989.516 688.15 989.21 686.965 988.598 686.21 987.986 685.455 987.029 685.077 985.727 685.077 984.919 685.077 984.06 685.286 983.149 685.702 982.237 686.119 981.319 686.698 980.395 687.44 979.47 688.183 978.565 689.062 977.68 690.077 976.794 691.093 975.974 692.193 975.219 693.378 974.464 694.563 973.793 695.806 973.207 697.108 972.621 698.411 972.172 699.726 971.859 701.054L967.992 719.726 960.375 719.726C960.74 718.059 961.15 716.269 961.606 714.355 962.061 712.44 962.524 710.507 962.992 708.554 963.461 706.601 963.91 704.674 964.34 702.773 964.77 700.871 965.154 699.094 965.492 697.44 965.831 695.787 966.104 694.302 966.313 692.987 966.521 691.672 966.625 690.624 966.625 689.843 966.625 688.202 966.306 686.998 965.668 686.23 965.03 685.461 964.008 685.077 962.602 685.077 961.352 685.077 960.011 685.546 958.578 686.483 957.146 687.421 955.785 688.651 954.496 690.175 953.207 691.698 952.055 693.417 951.039 695.331 950.024 697.245 949.307 699.179 948.891 701.132L944.906 719.726 937.25 719.726 943.109 694.257C943.448 692.851 943.695 691.627 943.852 690.585 944.008 689.543 944.086 688.684 944.086 688.007 944.086 686.106 943.318 685.155 941.781 685.155 941.313 685.155 940.837 685.253 940.356 685.448 939.874 685.644 939.366 685.937 938.832 686.327 938.298 686.718 937.719 687.213 937.094 687.812 936.469 688.411 935.766 689.114 934.984 689.921L932.289 687.382C933.565 686.08 934.744 684.953 935.824 684.003 936.905 683.052 937.947 682.271 938.949 681.659 939.952 681.047 940.935 680.592 941.899 680.292 942.862 679.993 943.865 679.843 944.906 679.843Z" fill-rule="evenodd"/><text fill="#000000" fill-opacity="0" font-family="Arial,Arial_MSFontService,sans-serif" font-size="40.5859" x="932.289" y="715.356">洧녴</text></g></svg>