<?xml version="1.0" encoding="UTF-8"?>
<!DOCTYPE svg PUBLIC "-//W3C//DTD SVG 1.1//EN" "http://www.w3.org/Graphics/SVG/1.1/DTD/svg11.dtd">
<svg width="176mm" height="75mm" viewBox="0 0 17600 7500" version="1.1" xmlns="http://www.w3.org/2000/svg" xmlns:xlink="http://www.w3.org/1999/xlink" stroke-width="28.222" stroke-linejoin="round" xml:space="preserve">
 <path fill="rgb(255,255,255)" stroke="none" d="M 8798,7450 L -13,7450 -13,-13 17609,-13 17609,7450 8798,7450 Z"/>
 <path fill="none" stroke="rgb(179,179,179)" stroke-linejoin="round" d="M 9751,5672 L 2672,5672 2672,335 16830,335 16830,5672 9751,5672 Z"/>
 <path fill="none" stroke="rgb(179,179,179)" stroke-linejoin="round" d="M 2672,334 L 2672,5671"/>
 <path fill="none" stroke="rgb(179,179,179)" stroke-linejoin="round" d="M 4694,334 L 4694,5671"/>
 <path fill="none" stroke="rgb(179,179,179)" stroke-linejoin="round" d="M 6717,334 L 6717,5671"/>
 <path fill="none" stroke="rgb(179,179,179)" stroke-linejoin="round" d="M 8740,334 L 8740,5671"/>
 <path fill="none" stroke="rgb(179,179,179)" stroke-linejoin="round" d="M 10761,334 L 10761,5671"/>
 <path fill="none" stroke="rgb(179,179,179)" stroke-linejoin="round" d="M 12784,334 L 12784,5671"/>
 <path fill="none" stroke="rgb(179,179,179)" stroke-linejoin="round" d="M 14807,334 L 14807,5671"/>
 <path fill="none" stroke="rgb(179,179,179)" stroke-linejoin="round" d="M 16830,334 L 16830,5671"/>
 <path fill="none" stroke="rgb(179,179,179)" stroke-linejoin="round" d="M 16830,5671 L 2672,5671"/>
 <path fill="none" stroke="rgb(179,179,179)" stroke-linejoin="round" d="M 16830,4603 L 2672,4603"/>
 <path fill="none" stroke="rgb(179,179,179)" stroke-linejoin="round" d="M 16830,3536 L 2672,3536"/>
 <path fill="none" stroke="rgb(179,179,179)" stroke-linejoin="round" d="M 16830,2469 L 2672,2469"/>
 <path fill="none" stroke="rgb(179,179,179)" stroke-linejoin="round" d="M 16830,1401 L 2672,1401"/>
 <path fill="none" stroke="rgb(179,179,179)" stroke-linejoin="round" d="M 16830,334 L 2672,334"/>
 <path fill="none" stroke="rgb(179,179,179)" stroke-linejoin="round" d="M 2672,5821 L 2672,5671"/>
 <path fill="none" stroke="rgb(179,179,179)" stroke-linejoin="round" d="M 2672,5821 L 2672,5671"/>
 <path fill="none" stroke="rgb(179,179,179)" stroke-linejoin="round" d="M 4694,5821 L 4694,5671"/>
 <path fill="none" stroke="rgb(179,179,179)" stroke-linejoin="round" d="M 4694,5821 L 4694,5671"/>
 <path fill="none" stroke="rgb(179,179,179)" stroke-linejoin="round" d="M 6717,5821 L 6717,5671"/>
 <path fill="none" stroke="rgb(179,179,179)" stroke-linejoin="round" d="M 6717,5821 L 6717,5671"/>
 <path fill="none" stroke="rgb(179,179,179)" stroke-linejoin="round" d="M 8740,5821 L 8740,5671"/>
 <path fill="none" stroke="rgb(179,179,179)" stroke-linejoin="round" d="M 8740,5821 L 8740,5671"/>
 <path fill="none" stroke="rgb(179,179,179)" stroke-linejoin="round" d="M 10761,5821 L 10761,5671"/>
 <path fill="none" stroke="rgb(179,179,179)" stroke-linejoin="round" d="M 10761,5821 L 10761,5671"/>
 <path fill="none" stroke="rgb(179,179,179)" stroke-linejoin="round" d="M 12784,5821 L 12784,5671"/>
 <path fill="none" stroke="rgb(179,179,179)" stroke-linejoin="round" d="M 12784,5821 L 12784,5671"/>
 <path fill="none" stroke="rgb(179,179,179)" stroke-linejoin="round" d="M 14807,5821 L 14807,5671"/>
 <path fill="none" stroke="rgb(179,179,179)" stroke-linejoin="round" d="M 14807,5821 L 14807,5671"/>
 <path fill="none" stroke="rgb(179,179,179)" stroke-linejoin="round" d="M 16830,5821 L 16830,5671"/>
 <path fill="none" stroke="rgb(179,179,179)" stroke-linejoin="round" d="M 16830,5821 L 16830,5671"/>
 <path fill="none" stroke="rgb(179,179,179)" stroke-linejoin="round" d="M 2672,5671 L 16830,5671"/>
 <path fill="none" stroke="rgb(179,179,179)" stroke-linejoin="round" d="M 2522,5671 L 2672,5671"/>
 <path fill="none" stroke="rgb(179,179,179)" stroke-linejoin="round" d="M 2522,5671 L 2672,5671"/>
 <path fill="none" stroke="rgb(179,179,179)" stroke-linejoin="round" d="M 2522,4603 L 2672,4603"/>
 <path fill="none" stroke="rgb(179,179,179)" stroke-linejoin="round" d="M 2522,4603 L 2672,4603"/>
 <path fill="none" stroke="rgb(179,179,179)" stroke-linejoin="round" d="M 2522,3536 L 2672,3536"/>
 <path fill="none" stroke="rgb(179,179,179)" stroke-linejoin="round" d="M 2522,3536 L 2672,3536"/>
 <path fill="none" stroke="rgb(179,179,179)" stroke-linejoin="round" d="M 2522,2469 L 2672,2469"/>
 <path fill="none" stroke="rgb(179,179,179)" stroke-linejoin="round" d="M 2522,2469 L 2672,2469"/>
 <path fill="none" stroke="rgb(179,179,179)" stroke-linejoin="round" d="M 2522,1401 L 2672,1401"/>
 <path fill="none" stroke="rgb(179,179,179)" stroke-linejoin="round" d="M 2522,1401 L 2672,1401"/>
 <path fill="none" stroke="rgb(179,179,179)" stroke-linejoin="round" d="M 2522,334 L 2672,334"/>
 <path fill="none" stroke="rgb(179,179,179)" stroke-linejoin="round" d="M 2522,334 L 2672,334"/>
 <path fill="none" stroke="rgb(179,179,179)" stroke-linejoin="round" d="M 2672,5671 L 2672,334"/>
 <path fill="none" stroke="rgb(0,69,134)" stroke-width="80" stroke-linejoin="round" d="M 2712,5398 L 2752,5391 2793,5378 2833,5358 2874,5327 2914,5282 2955,5220 2995,5131 3036,5009 3076,4851 3116,4681 3157,4562 3197,4539 3238,4575 3278,4614 3319,4629 3359,4610 3400,4556 3440,4466 3481,4344 3521,4211 3561,4099 3602,4044 3642,4051 3683,4092 3723,4137 3764,4165 3804,4166 3845,4135 3885,4067 3926,3960 3966,3813 4006,3640 4047,3475 4087,3371 4128,3371 4168,3459 4209,3581 4249,3690 4290,3764 4330,3797 4371,3789 4411,3739 4451,3652 4492,3532 4532,3399 4573,3286 4613,3228 4654,3238 4694,3294 4735,3357 4775,3401 4816,3407 4856,3369 4896,3288 4937,3176 4977,3052 5018,2947 5058,2889 5099,2885 5139,2922 5180,2972 5220,3006 5261,3004 5301,2955 5341,2856 5382,2711 5422,2542 5463,2380 5503,2265 5544,2226 5584,2256 5625,2320 5665,2384 5706,2426 5746,2438 5786,2425 5827,2390 5867,2338 5908,2274 5948,2203 5989,2126 6029,2044 6070,1956 6110,1865 6151,1781 6191,1723 6231,1708 6272,1743 6312,1823 6353,1924 6393,2016 6434,2076 6474,2087 6515,2042 6555,1950 6596,1824 6636,1688 6676,1575 6717,1512 6757,1509 6798,1557 6838,1631 6879,1701 6919,1754 6960,1788 7000,1804 7041,1811 7081,1822 7121,1844 7162,1881 7202,1930 7243,1975 7283,2004 7324,2010 7364,1995 7405,1967 7445,1940 7486,1926 7526,1933 7566,1965 7607,2014 7647,2067 7688,2113 7728,2146 7769,2165 7809,2174 7850,2180 7890,2183 7931,2189 7971,2202 8011,2218 8052,2230 8092,2232 8133,2218 8173,2190 8214,2155 8254,2123 8295,2103 8335,2104 8376,2128 8416,2168 8456,2213 8497,2252 8537,2274 8578,2280 8618,2272 8659,2251 8699,2224 8740,2195 8780,2167 8820,2143 8860,2123 8900,2101 8941,2073 8981,2043 9022,2014 9062,1994 9103,1992 9143,2011 9184,2281 9224,2331 9265,2387 9305,2438 9345,2480 9386,2511 9426,2533 9467,2552 9507,2571 9548,2594 9588,2623 9629,2658 9669,2696 9710,2733 9750,2767 9790,2795 9831,2816 9871,2834 9912,2852 9952,2873 9993,2897 10033,2924 10074,2951 10114,2976 10155,2997 10195,3015 10235,3032 10276,3051 10316,3074 10357,3101 10397,3132 10438,3167 10478,3201 10519,3234 10559,3468 10600,3497 10640,3526 10680,3556 10721,3587 10761,3622 10802,3660 10842,3700 10883,3740 10923,3780 10964,3818 11004,3853 11045,3888 11085,3922 11125,3958 11166,3994 11206,4031 11247,4068 11287,4105 11328,4140 11368,5146 11409,5160 11449,5208 11490,5219 11530,5230 11570,5240 11611,5249 11651,5257 11692,5263 11732,5266 11773,5267 11813,5265 11854,5259 11894,5248 11935,5231 11975,5209 12015,5180 12056,5149 12096,5123 12137,5112 12177,5124 12218,5155 12258,5191 12299,5224 12339,5250 12380,5269 12420,5281 12460,5288 12501,5291 12541,5289 12582,5285 12622,5277 12663,5268 12703,5256 12744,5244 12784,5232 12825,5220 12865,5210 12905,5202 12946,5196 12986,5193 13027,5193 13067,5196 13108,5200 13148,5205 13189,5211 13229,5218 13270,5224 13310,5230 13350,5233 13391,5235 13431,5234 13472,5231 13512,5224 13553,5214 13593,5200 13634,5181 13674,5155 13715,5123 13755,5082 13795,5006 13836,4944 13876,4889 13917,4866 13957,4892 13998,4959 14038,5039 14079,5110 14119,5167 14160,5210 14200,5242 14240,5266 14281,5283 14321,5295 14362,5303 14402,5308 14443,5311 14483,5311 14524,5309 14564,5304 14605,5295 14645,5282 14685,5264 14726,5241 14766,5209 14807,5171 14847,5127 14888,5084 14928,5051 14969,5040 15009,5054 15050,5086 15090,5126 15130,5163 15171,5195 15211,5220 15252,5241 15292,5257 15333,5269 15373,5276 15414,5281 15454,5283 15495,5283 15535,5272 15575,5270 15616,5269 15656,5270"/>
 <text class="SVGTextShape"><tspan class="TextParagraph"><tspan class="TextPosition" x="2579" y="6239"><tspan font-family="Liberation Sans, sans-serif" font-size="353px" font-weight="400" fill="rgb(0,0,0)" stroke="none" style="white-space: pre">0</tspan></tspan></tspan></text>
 <text class="SVGTextShape"><tspan class="TextParagraph"><tspan class="TextPosition" x="4270" y="6239"><tspan font-family="Liberation Sans, sans-serif" font-size="353px" font-weight="400" fill="rgb(0,0,0)" stroke="none" style="white-space: pre">0.005</tspan></tspan></tspan></text>
 <text class="SVGTextShape"><tspan class="TextParagraph"><tspan class="TextPosition" x="6386" y="6239"><tspan font-family="Liberation Sans, sans-serif" font-size="353px" font-weight="400" fill="rgb(0,0,0)" stroke="none" style="white-space: pre">0.01</tspan></tspan></tspan></text>
 <text class="SVGTextShape"><tspan class="TextParagraph"><tspan class="TextPosition" x="8316" y="6239"><tspan font-family="Liberation Sans, sans-serif" font-size="353px" font-weight="400" fill="rgb(0,0,0)" stroke="none" style="white-space: pre">0.015</tspan></tspan></tspan></text>
 <text class="SVGTextShape"><tspan class="TextParagraph"><tspan class="TextPosition" x="10430" y="6239"><tspan font-family="Liberation Sans, sans-serif" font-size="353px" font-weight="400" fill="rgb(0,0,0)" stroke="none" style="white-space: pre">0.02</tspan></tspan></tspan></text>
 <text class="SVGTextShape"><tspan class="TextParagraph"><tspan class="TextPosition" x="12360" y="6239"><tspan font-family="Liberation Sans, sans-serif" font-size="353px" font-weight="400" fill="rgb(0,0,0)" stroke="none" style="white-space: pre">0.025</tspan></tspan></tspan></text>
 <text class="SVGTextShape"><tspan class="TextParagraph"><tspan class="TextPosition" x="14476" y="6239"><tspan font-family="Liberation Sans, sans-serif" font-size="353px" font-weight="400" fill="rgb(0,0,0)" stroke="none" style="white-space: pre">0.03</tspan></tspan></tspan></text>
 <text class="SVGTextShape"><tspan class="TextParagraph"><tspan class="TextPosition" x="16406" y="6239"><tspan font-family="Liberation Sans, sans-serif" font-size="353px" font-weight="400" fill="rgb(0,0,0)" stroke="none" style="white-space: pre">0.035</tspan></tspan></tspan></text>
 <text class="SVGTextShape"><tspan class="TextParagraph"><tspan class="TextPosition" x="2237" y="5791"><tspan font-family="Liberation Sans, sans-serif" font-size="353px" font-weight="400" fill="rgb(0,0,0)" stroke="none" style="white-space: pre">0</tspan></tspan></tspan></text>
 <text class="SVGTextShape"><tspan class="TextParagraph"><tspan class="TextPosition" x="1390" y="4723"><tspan font-family="Liberation Sans, sans-serif" font-size="353px" font-weight="400" fill="rgb(0,0,0)" stroke="none" style="white-space: pre">0.0005</tspan></tspan></tspan></text>
 <text class="SVGTextShape"><tspan class="TextParagraph"><tspan class="TextPosition" x="1575" y="3656"><tspan font-family="Liberation Sans, sans-serif" font-size="353px" font-weight="400" fill="rgb(0,0,0)" stroke="none" style="white-space: pre">0.001</tspan></tspan></tspan></text>
 <text class="SVGTextShape"><tspan class="TextParagraph"><tspan class="TextPosition" x="1390" y="2589"><tspan font-family="Liberation Sans, sans-serif" font-size="353px" font-weight="400" fill="rgb(0,0,0)" stroke="none" style="white-space: pre">0.0015</tspan></tspan></tspan></text>
 <text class="SVGTextShape"><tspan class="TextParagraph"><tspan class="TextPosition" x="1575" y="1521"><tspan font-family="Liberation Sans, sans-serif" font-size="353px" font-weight="400" fill="rgb(0,0,0)" stroke="none" style="white-space: pre">0.002</tspan></tspan></tspan></text>
 <text class="SVGTextShape"><tspan class="TextParagraph"><tspan class="TextPosition" x="1390" y="454"><tspan font-family="Liberation Sans, sans-serif" font-size="353px" font-weight="400" fill="rgb(0,0,0)" stroke="none" style="white-space: pre">0.0025</tspan></tspan></tspan></text>
 <text class="SVGTextShape"><tspan class="TextParagraph"><tspan class="TextPosition" x="8766" y="6854"><tspan font-family="Liberation Sans, sans-serif" font-size="318px" font-weight="400" fill="rgb(0,0,0)" stroke="none" style="white-space: pre">Time [s]</tspan></tspan></tspan></text>
 <text class="SVGTextShape" transform="rotate(-90 -13207 -5018)"><tspan class="TextParagraph"><tspan class="TextPosition" x="863" y="4086"><tspan font-family="Liberation Sans, sans-serif" font-size="318px" font-weight="400" fill="rgb(0,0,0)" stroke="none" style="white-space: pre">Timestep [s]</tspan></tspan></tspan></text>
</svg>