<svg width="1421" height="581" xmlns="http://www.w3.org/2000/svg" xmlns:xlink="http://www.w3.org/1999/xlink" xml:space="preserve" overflow="hidden"><g transform="translate(-363 -518)"><path d="M532.5 700.208 1734.96 700.209 1734.96 704.792 532.5 704.792ZM1730.37 693.334 1757.87 702.5 1730.37 711.667Z" fill="#7F7F7F"/><rect x="1456" y="669" width="85.9999" height="59.0001" fill="#FFFFFF"/><path d="M2.29167-1.49235e-06 2.29201 531.274-2.29132 531.274-2.29167 1.49235e-06ZM9.16701 526.69 0.000360892 554.19-9.16632 526.69Z" fill="#7F7F7F" transform="matrix(1 0 0 -1 532.5 1098.69)"/><path d="M1699.11 726.437C1699.67 726.437 1700.16 726.5 1700.58 726.625 1701 726.75 1701.37 726.943 1701.69 727.203 1702.01 727.462 1702.3 727.798 1702.55 728.21 1702.8 728.621 1703.04 729.181 1703.28 729.888 1703.51 730.595 1703.73 731.473 1703.94 732.52 1704.14 733.567 1704.32 734.655 1704.49 735.783L1704.75 735.783C1706.47 733.366 1707.78 731.598 1708.66 730.479 1709.55 729.36 1710.3 728.527 1710.9 727.981 1711.51 727.435 1712.1 727.05 1712.66 726.827 1713.23 726.603 1713.97 726.491 1714.91 726.491 1715.75 726.491 1716.44 726.598 1716.97 726.813L1715.9 731.674 1714.02 731.674C1713.91 730.922 1713.6 730.546 1713.08 730.546 1712.92 730.546 1712.75 730.573 1712.57 730.627 1712.39 730.68 1712.17 730.797 1711.91 730.976 1711.65 731.155 1711.27 731.504 1710.77 732.023 1710.27 732.542 1709.7 733.178 1709.08 733.93 1708.45 734.682 1707.81 735.47 1707.14 736.293L1705.32 738.576C1705.64 740.295 1705.94 741.781 1706.23 743.034 1706.52 744.287 1706.77 745.33 1707 746.163 1707.22 746.995 1707.42 747.653 1707.59 748.136 1707.76 748.62 1707.94 748.982 1708.14 749.224 1708.33 749.466 1708.54 749.636 1708.74 749.734 1708.95 749.833 1709.19 749.882 1709.45 749.882 1709.94 749.882 1710.41 749.694 1710.86 749.318 1711.32 748.942 1711.98 748.092 1712.84 746.767L1714.58 747.922C1713.33 749.784 1712.2 751.095 1711.19 751.856 1710.17 752.617 1708.97 752.997 1707.57 752.997 1706.8 752.997 1706.15 752.859 1705.61 752.581 1705.08 752.303 1704.61 751.86 1704.22 751.252 1703.82 750.643 1703.47 749.694 1703.17 748.405 1702.61 746.113 1702.27 744.359 1702.15 743.141L1701.88 743.141C1699.98 745.809 1698.57 747.725 1697.65 748.888 1696.73 750.052 1695.97 750.911 1695.37 751.466 1694.77 752.021 1694.19 752.411 1693.62 752.635 1693.06 752.859 1692.31 752.97 1691.38 752.97 1690.54 752.97 1689.85 752.863 1689.31 752.648L1690.39 747.787 1692.27 747.787C1692.37 748.539 1692.69 748.915 1693.21 748.915 1693.46 748.915 1693.72 748.848 1694 748.714 1694.28 748.58 1694.67 748.257 1695.19 747.747 1695.71 747.237 1696.43 746.436 1697.34 745.343 1698.26 744.251 1699.58 742.613 1701.32 740.429 1701.05 739.015 1700.77 737.654 1700.48 736.347 1700.2 735.04 1699.9 733.822 1699.6 732.695 1699.29 731.567 1699.04 730.828 1698.85 730.479 1698.65 730.13 1698.44 729.888 1698.21 729.754 1697.99 729.62 1697.71 729.552 1697.37 729.552 1696.99 729.552 1696.65 729.637 1696.35 729.808 1696.04 729.978 1695.71 730.273 1695.35 730.694 1695 731.115 1694.52 731.772 1693.93 732.668L1692.19 731.513C1693.31 729.812 1694.4 728.541 1695.44 727.699 1696.47 726.858 1697.7 726.437 1699.11 726.437Z" fill="#7F7F7F" fill-rule="evenodd"/><text fill="#000000" fill-opacity="0" font-family="Arial,Arial_MSFontService,sans-serif" font-size="26.5601" x="1689.31" y="749.677">ğ‘¥</text><path d="M465.548 568.887C466.282 568.887 466.909 568.986 467.428 569.183 467.786 569.326 468.144 569.563 468.502 569.894 468.86 570.226 469.178 570.687 469.456 571.277 469.733 571.868 469.975 572.531 470.181 573.265 470.387 573.999 470.615 575.055 470.866 576.434 471.295 578.743 471.711 581.174 472.114 583.725 472.517 586.276 472.862 588.644 473.148 590.828 474.885 588.322 476.357 585.869 477.566 583.47 478.774 581.071 479.643 578.985 480.171 577.212 480.699 575.44 480.963 573.999 480.963 572.889 480.963 572.047 480.784 571.474 480.426 571.17 480.068 570.866 479.459 570.687 478.6 570.633L478.868 569.317 485.931 569.317 486.657 570.66C485.296 574.384 483.452 578.367 481.124 582.61 478.833 586.764 476.21 590.9 473.256 595.018 470.427 598.939 468.073 601.776 466.193 603.531 464.886 604.73 463.623 605.59 462.406 606.109 461.439 606.503 460.41 606.7 459.318 606.7 458.942 606.7 458.508 606.668 458.015 606.606 457.523 606.543 457.142 606.458 456.874 606.351L458.029 601.141 460.15 601.141C460.15 602.286 460.544 602.859 461.332 602.859 462.37 602.859 463.579 602.21 464.957 600.912 466.336 599.614 467.956 597.658 469.818 595.044 469.299 591.911 468.592 588.134 467.697 583.711 466.748 578.985 466.121 576.058 465.817 574.93 465.441 573.569 465.047 572.701 464.635 572.325 464.384 572.092 464.071 571.976 463.695 571.976 463.122 571.976 462.585 572.208 462.084 572.674 461.582 573.139 460.965 573.945 460.231 575.091L458.485 573.936C459.72 572.092 460.875 570.79 461.949 570.029 463.024 569.268 464.223 568.887 465.548 568.887Z" fill="#7F7F7F" fill-rule="evenodd"/><text fill="#000000" fill-opacity="0" font-family="Arial,Arial_MSFontService,sans-serif" font-size="37.8125" x="456.874" y="601.973">ğ‘¦</text><path d="M532.5 698.638C1031.37 702.474 1471.81 868.918 1611.5 571.5" stroke="#0070C0" stroke-width="9.16667" stroke-miterlimit="8" fill="none" fill-rule="evenodd"/><path d="M0 0 892.144 219.14" stroke="#C00000" stroke-width="3.4375" stroke-miterlimit="8" fill="none" fill-rule="evenodd" transform="matrix(1 0 0 -1 532.5 954.641)"/><path d="M1424.5 735.5C1534.62 703.429 1586.27 645.529 1614.5 574.5" stroke="#C00000" stroke-width="3.4375" stroke-miterlimit="8" fill="none" fill-rule="evenodd"/><text fill="#7F7F7F" font-family="Aptos,Aptos_MSFontService,sans-serif" font-weight="400" font-size="37" transform="matrix(-1.83697e-16 -1 1 -1.83697e-16 413.93 927)">Brace height</text><path d="M497.5 960.5C480.379 960.5 466.5 958.187 466.5 955.333L466.5 836.667C466.5 833.813 452.621 831.5 435.5 831.5 452.621 831.5 466.5 829.187 466.5 826.334L466.5 707.667C466.5 704.813 480.379 702.5 497.5 702.5" stroke="#7F7F7F" stroke-width="4.58333" stroke-miterlimit="8" fill="none" fill-rule="evenodd"/><path d="M765.646 992.497 758.762 1010.56 771.337 1010.56ZM765.013 988.504 767.687 988.504 775.311 1012.3 775.311 1013.45 755.565 1013.45 755.565 1012.3Z" fill="#C00000" fill-rule="evenodd"/><text fill="#000000" fill-opacity="0" font-family="Arial,Arial_MSFontService,sans-serif" font-size="24.9497" x="755.565" y="1010.33">âˆ†</text><path d="M782.376 995.893C782.87 995.893 783.291 995.959 783.641 996.092 783.882 996.188 784.122 996.348 784.363 996.571 784.604 996.793 784.818 997.104 785.005 997.501 785.191 997.898 785.354 998.344 785.492 998.838 785.631 999.332 785.785 1000.04 785.953 1000.97 786.242 1002.52 786.522 1004.16 786.793 1005.87 787.064 1007.59 787.296 1009.18 787.489 1010.65 788.657 1008.97 789.648 1007.32 790.461 1005.7 791.274 1004.09 791.858 1002.69 792.213 1001.49 792.568 1000.3 792.746 999.332 792.746 998.585 792.746 998.019 792.626 997.633 792.385 997.429 792.144 997.224 791.734 997.104 791.156 997.067L791.337 996.182 796.088 996.182 796.576 997.085C795.661 999.591 794.42 1002.27 792.855 1005.12 791.313 1007.92 789.548 1010.7 787.561 1013.47 785.658 1016.11 784.074 1018.02 782.81 1019.2 781.93 1020.01 781.081 1020.58 780.262 1020.93 779.612 1021.2 778.919 1021.33 778.185 1021.33 777.932 1021.33 777.64 1021.31 777.308 1021.27 776.977 1021.23 776.721 1021.17 776.541 1021.1L777.317 1017.59 778.745 1017.59C778.745 1018.36 779.01 1018.75 779.54 1018.75 780.238 1018.75 781.051 1018.31 781.979 1017.44 782.906 1016.56 783.996 1015.25 785.249 1013.49 784.899 1011.38 784.424 1008.84 783.821 1005.87 783.183 1002.69 782.761 1000.72 782.557 999.958 782.304 999.043 782.039 998.458 781.762 998.206 781.593 998.049 781.382 997.971 781.129 997.971 780.744 997.971 780.383 998.127 780.045 998.44 779.708 998.754 779.293 999.296 778.799 1000.07L777.625 999.29C778.456 998.049 779.232 997.173 779.955 996.661 780.678 996.149 781.485 995.893 782.376 995.893Z" fill="#C00000" fill-rule="evenodd"/><text fill="#000000" fill-opacity="0" font-family="Arial,Arial_MSFontService,sans-serif" font-size="25.4375" x="776.541" y="1018.15">ğ‘¦</text><path d="M765.967 1044.77 759.083 1062.84 771.657 1062.84ZM765.334 1040.78 768.008 1040.78 775.632 1064.57 775.632 1065.73 755.885 1065.73 755.885 1064.57Z" fill="#C00000" fill-rule="evenodd"/><text fill="#000000" fill-opacity="0" font-family="Arial,Arial_MSFontService,sans-serif" font-size="24.9497" x="755.885" y="1062.61">âˆ†</text><path d="M783.871 1048.15C784.245 1048.15 784.573 1048.19 784.856 1048.27 785.139 1048.36 785.389 1048.49 785.606 1048.66 785.822 1048.84 786.015 1049.06 786.184 1049.34 786.352 1049.62 786.515 1049.99 786.671 1050.47 786.828 1050.95 786.976 1051.54 787.114 1052.24 787.253 1052.94 787.376 1053.68 787.484 1054.44L787.665 1054.44C788.821 1052.81 789.698 1051.62 790.294 1050.87 790.89 1050.11 791.393 1049.55 791.802 1049.19 792.212 1048.82 792.606 1048.56 792.986 1048.41 793.365 1048.26 793.868 1048.18 794.494 1048.18 795.06 1048.18 795.524 1048.26 795.885 1048.4L795.163 1051.67 793.898 1051.67C793.826 1051.17 793.615 1050.91 793.266 1050.91 793.157 1050.91 793.043 1050.93 792.922 1050.97 792.802 1051 792.654 1051.08 792.48 1051.2 792.305 1051.32 792.049 1051.56 791.712 1051.91 791.375 1052.26 790.995 1052.68 790.574 1053.19 790.152 1053.69 789.719 1054.22 789.273 1054.78L788.044 1056.31C788.261 1057.47 788.466 1058.47 788.659 1059.31 788.851 1060.16 789.023 1060.86 789.174 1061.42 789.324 1061.98 789.457 1062.42 789.571 1062.75 789.686 1063.07 789.809 1063.31 789.941 1063.48 790.074 1063.64 790.209 1063.75 790.348 1063.82 790.486 1063.89 790.646 1063.92 790.827 1063.92 791.152 1063.92 791.468 1063.79 791.775 1063.54 792.082 1063.29 792.525 1062.72 793.103 1061.82L794.277 1062.6C793.434 1063.85 792.672 1064.74 791.992 1065.25 791.312 1065.76 790.502 1066.02 789.562 1066.02 789.044 1066.02 788.605 1065.92 788.243 1065.74 787.882 1065.55 787.569 1065.25 787.304 1064.84 787.039 1064.43 786.804 1063.79 786.599 1062.93 786.226 1061.38 785.997 1060.2 785.913 1059.39L785.732 1059.39C784.455 1061.18 783.507 1062.47 782.887 1063.25 782.266 1064.03 781.754 1064.61 781.351 1064.99 780.947 1065.36 780.556 1065.62 780.177 1065.77 779.797 1065.92 779.294 1066 778.668 1066 778.102 1066 777.638 1065.93 777.277 1065.78L778 1062.51 779.264 1062.51C779.336 1063.02 779.547 1063.27 779.897 1063.27 780.065 1063.27 780.243 1063.22 780.43 1063.13 780.616 1063.04 780.884 1062.83 781.233 1062.48 781.583 1062.14 782.065 1061.6 782.679 1060.87 783.293 1060.13 784.184 1059.03 785.353 1057.56 785.172 1056.61 784.985 1055.69 784.793 1054.81 784.6 1053.94 784.401 1053.12 784.196 1052.36 783.992 1051.6 783.823 1051.1 783.69 1050.87 783.558 1050.63 783.417 1050.47 783.266 1050.38 783.115 1050.29 782.926 1050.24 782.697 1050.24 782.444 1050.24 782.215 1050.3 782.01 1050.42 781.806 1050.53 781.583 1050.73 781.342 1051.01 781.101 1051.29 780.782 1051.74 780.384 1052.34L779.21 1051.56C779.969 1050.42 780.698 1049.56 781.396 1049 782.095 1048.43 782.92 1048.15 783.871 1048.15Z" fill="#C00000" fill-rule="evenodd"/><text fill="#000000" fill-opacity="0" font-family="Arial,Arial_MSFontService,sans-serif" font-size="17.8677" x="777.277" y="1063.78">ğ‘¥</text><path d="M754.518 1029.2 776.018 1029.2 797.518 1029.2 797.518 1031.2 776.018 1031.2 754.518 1031.2Z" fill="#C00000" fill-rule="evenodd"/><path d="M810.525 1019.42 832.855 1029.37 832.855 1031.9 810.525 1041.86 810.525 1039.15 830.145 1030.64 810.525 1022.13Z" fill="#C00000" fill-rule="evenodd"/><text fill="#000000" fill-opacity="0" font-family="Arial,Arial_MSFontService,sans-serif" font-size="22.4385" x="810.525" y="1039.05">&gt;</text><path d="M855.752 1017.79C854.92 1017.79 854.225 1018.04 853.665 1018.53 853.105 1019.03 852.653 1019.74 852.31 1020.66 851.967 1021.59 851.723 1022.72 851.578 1024.05 851.434 1025.38 851.361 1026.89 851.361 1028.56 851.361 1032.49 851.726 1035.37 852.454 1037.2 853.183 1039.04 854.312 1039.96 855.842 1039.96 857.299 1039.96 858.38 1039.09 859.085 1037.37 859.789 1035.64 860.142 1032.96 860.142 1029.34 860.142 1026.57 859.961 1024.32 859.6 1022.61 859.238 1020.89 858.735 1019.66 858.091 1018.91 857.447 1018.16 856.667 1017.79 855.752 1017.79ZM855.842 1016.26C858.48 1016.26 860.443 1017.27 861.732 1019.31 863.02 1021.34 863.665 1024.42 863.665 1028.54 863.665 1032.8 862.975 1036.03 861.596 1038.22 860.217 1040.4 858.203 1041.49 855.553 1041.49 852.951 1041.49 851.015 1040.47 849.744 1038.42 848.474 1036.38 847.838 1033.27 847.838 1029.1 847.838 1026.89 848.034 1024.97 848.426 1023.36 848.817 1021.74 849.365 1020.41 850.07 1019.35 850.774 1018.3 851.62 1017.52 852.608 1017.01 853.596 1016.51 854.674 1016.26 855.842 1016.26Z" fill="#C00000" fill-rule="evenodd"/><text fill="#000000" fill-opacity="0" font-family="Arial,Arial_MSFontService,sans-serif" font-size="25.2388" x="847.838" y="1038.34">0</text><path d="M532.5 957.5 786.362 957.5" stroke="#7F7F7F" stroke-width="3.4375" stroke-miterlimit="8" fill="none" fill-rule="evenodd"/><path d="M702.5 855.5C714.485 901.174 728.736 945.706 727.415 1016.5" stroke="#7F7F7F" stroke-width="3.4375" stroke-miterlimit="8" fill="none" fill-rule="evenodd"/><text fill="#C00000" font-family="Cambria Math,Cambria Math_MSFontService,sans-serif" font-weight="400" font-size="46" transform="matrix(0.972158 -0.234328 0.234328 0.972158 919.561 844)">ğ‘™</text><text fill="#C00000" font-family="Cambria Math,Cambria Math_MSFontService,sans-serif" font-weight="400" font-size="46" transform="matrix(0.972158 -0.234328 0.234328 0.972158 947.276 837)">=</text><text fill="#C00000" font-family="Cambria Math,Cambria Math_MSFontService,sans-serif" font-weight="400" font-size="46" transform="matrix(0.972158 -0.234328 0.234328 0.972158 993.081 826)">ğ‘™</text><text fill="#C00000" font-family="Cambria Math,Cambria Math_MSFontService,sans-serif" font-weight="400" font-size="34" transform="matrix(0.972158 -0.234328 0.234328 0.972158 1009.2 832)">0</text><path d="M719.172 985.017 724.945 954.368 735.616 983.674Z" fill="#7F7F7F" fill-rule="evenodd"/><path d="M716.575 874.587 715.333 905.751 700.502 878.315Z" fill="#7F7F7F" fill-rule="evenodd"/></g></svg>