<svg width="1421" height="581" xmlns="http://www.w3.org/2000/svg" xmlns:xlink="http://www.w3.org/1999/xlink" xml:space="preserve" overflow="hidden"><g transform="translate(-363 -1373)"><path d="M532.5 1555.21 1734.96 1555.21 1734.96 1559.79 532.5 1559.79ZM1730.37 1548.33 1757.87 1557.5 1730.37 1566.67Z" fill="#7F7F7F"/><path d="M2.29167-1.49235e-06 2.29201 531.274-2.29132 531.274-2.29167 1.49235e-06ZM9.16701 526.69 0.000360892 554.19-9.16632 526.69Z" fill="#7F7F7F" transform="matrix(1 0 0 -1 532.5 1953.69)"/><path d="M1699.11 1581.88C1699.67 1581.88 1700.16 1581.94 1700.58 1582.07 1701 1582.19 1701.37 1582.39 1701.69 1582.64 1702.01 1582.9 1702.3 1583.24 1702.55 1583.65 1702.8 1584.06 1703.04 1584.62 1703.28 1585.33 1703.51 1586.04 1703.73 1586.91 1703.93 1587.96 1704.14 1589.01 1704.32 1590.1 1704.49 1591.23L1704.75 1591.23C1706.47 1588.81 1707.78 1587.04 1708.66 1585.92 1709.55 1584.8 1710.29 1583.97 1710.9 1583.42 1711.51 1582.88 1712.1 1582.49 1712.66 1582.27 1713.23 1582.05 1713.97 1581.93 1714.91 1581.93 1715.75 1581.93 1716.44 1582.04 1716.97 1582.26L1715.9 1587.12 1714.02 1587.12C1713.91 1586.36 1713.6 1585.99 1713.08 1585.99 1712.92 1585.99 1712.75 1586.02 1712.57 1586.07 1712.39 1586.12 1712.17 1586.24 1711.91 1586.42 1711.65 1586.6 1711.27 1586.95 1710.77 1587.47 1710.27 1587.98 1709.7 1588.62 1709.08 1589.37 1708.45 1590.12 1707.81 1590.91 1707.14 1591.74L1705.32 1594.02C1705.64 1595.74 1705.94 1597.22 1706.23 1598.48 1706.52 1599.73 1706.77 1600.77 1707 1601.6 1707.22 1602.44 1707.42 1603.1 1707.59 1603.58 1707.76 1604.06 1707.94 1604.42 1708.14 1604.67 1708.33 1604.91 1708.54 1605.08 1708.74 1605.18 1708.95 1605.28 1709.18 1605.32 1709.45 1605.32 1709.94 1605.32 1710.41 1605.14 1710.86 1604.76 1711.32 1604.38 1711.98 1603.53 1712.84 1602.21L1714.58 1603.36C1713.33 1605.23 1712.2 1606.54 1711.19 1607.3 1710.17 1608.06 1708.97 1608.44 1707.57 1608.44 1706.8 1608.44 1706.15 1608.3 1705.61 1608.02 1705.08 1607.75 1704.61 1607.3 1704.22 1606.69 1703.82 1606.09 1703.47 1605.14 1703.17 1603.85 1702.61 1601.56 1702.27 1599.8 1702.15 1598.58L1701.88 1598.58C1699.98 1601.25 1698.57 1603.17 1697.65 1604.33 1696.73 1605.49 1695.97 1606.35 1695.37 1606.91 1694.77 1607.46 1694.19 1607.85 1693.62 1608.08 1693.06 1608.3 1692.31 1608.41 1691.38 1608.41 1690.54 1608.41 1689.85 1608.31 1689.31 1608.09L1690.39 1603.23 1692.27 1603.23C1692.37 1603.98 1692.69 1604.36 1693.21 1604.36 1693.46 1604.36 1693.72 1604.29 1694 1604.16 1694.28 1604.02 1694.67 1603.7 1695.19 1603.19 1695.71 1602.68 1696.43 1601.88 1697.34 1600.79 1698.25 1599.69 1699.58 1598.06 1701.32 1595.87 1701.05 1594.46 1700.77 1593.1 1700.48 1591.79 1700.2 1590.48 1699.9 1589.26 1699.6 1588.14 1699.29 1587.01 1699.04 1586.27 1698.85 1585.92 1698.65 1585.57 1698.44 1585.33 1698.21 1585.2 1697.99 1585.06 1697.71 1584.99 1697.37 1584.99 1696.99 1584.99 1696.65 1585.08 1696.35 1585.25 1696.04 1585.42 1695.71 1585.72 1695.35 1586.14 1695 1586.56 1694.52 1587.21 1693.93 1588.11L1692.19 1586.96C1693.31 1585.25 1694.4 1583.98 1695.43 1583.14 1696.47 1582.3 1697.7 1581.88 1699.11 1581.88Z" fill="#7F7F7F" fill-rule="evenodd"/><text fill="#000000" fill-opacity="0" font-family="Arial,Arial_MSFontService,sans-serif" font-size="26.5601" x="1689.31" y="1605.12">ğ‘¥</text><path d="M465.548 1424.33C466.282 1424.33 466.908 1424.43 467.428 1424.62 467.786 1424.77 468.144 1425.01 468.502 1425.34 468.86 1425.67 469.178 1426.13 469.455 1426.72 469.733 1427.31 469.974 1427.97 470.18 1428.71 470.386 1429.44 470.615 1430.5 470.865 1431.88 471.295 1434.19 471.711 1436.62 472.114 1439.17 472.517 1441.72 472.861 1444.09 473.148 1446.27 474.885 1443.76 476.357 1441.31 477.566 1438.91 478.774 1436.51 479.642 1434.43 480.171 1432.65 480.699 1430.88 480.963 1429.44 480.963 1428.33 480.963 1427.49 480.784 1426.92 480.426 1426.61 480.068 1426.31 479.459 1426.13 478.6 1426.08L478.868 1424.76 485.931 1424.76 486.656 1426.1C485.296 1429.83 483.451 1433.81 481.124 1438.05 478.832 1442.21 476.209 1446.34 473.255 1450.46 470.427 1454.38 468.072 1457.22 466.192 1458.97 464.885 1460.17 463.623 1461.03 462.406 1461.55 461.439 1461.95 460.409 1462.14 459.317 1462.14 458.941 1462.14 458.507 1462.11 458.015 1462.05 457.522 1461.99 457.142 1461.9 456.873 1461.79L458.028 1456.58 460.15 1456.58C460.15 1457.73 460.544 1458.3 461.331 1458.3 462.37 1458.3 463.578 1457.65 464.957 1456.35 466.336 1455.06 467.956 1453.1 469.818 1450.49 469.299 1447.35 468.591 1443.58 467.696 1439.15 466.747 1434.43 466.121 1431.5 465.816 1430.37 465.44 1429.01 465.046 1428.14 464.635 1427.77 464.384 1427.53 464.071 1427.42 463.695 1427.42 463.122 1427.42 462.585 1427.65 462.083 1428.12 461.582 1428.58 460.964 1429.39 460.23 1430.53L458.485 1429.38C459.72 1427.53 460.875 1426.23 461.949 1425.47 463.023 1424.71 464.223 1424.33 465.548 1424.33Z" fill="#7F7F7F" fill-rule="evenodd"/><text fill="#000000" fill-opacity="0" font-family="Arial,Arial_MSFontService,sans-serif" font-size="37.8125" x="456.873" y="1457.42">ğ‘¦</text><path d="M532.5 1554.5C1094.83 1557.21 1414.04 1898.68 1652.5 1775.85" stroke="#0070C0" stroke-width="9.16667" stroke-miterlimit="8" fill="none" fill-rule="evenodd"/><path d="M532.5 1810.5 1542.67 1810.5" stroke="#C00000" stroke-width="3.4375" stroke-miterlimit="8" fill="none" fill-rule="evenodd"/><text fill="#7F7F7F" font-family="Aptos,Aptos_MSFontService,sans-serif" font-weight="400" font-size="37" transform="matrix(-1.83697e-16 -1 1 -1.83697e-16 413.93 1783)">Brace height</text><path d="M497.5 1816.5C480.379 1816.5 466.5 1814.19 466.5 1811.33L466.5 1692.17C466.5 1689.31 452.621 1687 435.5 1687 452.621 1687 466.5 1684.69 466.5 1681.83L466.5 1562.67C466.5 1559.81 480.379 1557.5 497.5 1557.5" stroke="#7F7F7F" stroke-width="4.58333" stroke-miterlimit="8" fill="none" fill-rule="evenodd"/><path d="M765.645 1847.94 758.762 1866.01 771.336 1866.01ZM765.013 1843.95 767.687 1843.95 775.311 1867.74 775.311 1868.9 755.564 1868.9 755.564 1867.74Z" fill="#C00000" fill-rule="evenodd"/><text fill="#000000" fill-opacity="0" font-family="Arial,Arial_MSFontService,sans-serif" font-size="24.9497" x="755.564" y="1865.78">âˆ†</text><path d="M782.376 1851.34C782.87 1851.34 783.291 1851.4 783.64 1851.53 783.881 1851.63 784.122 1851.79 784.363 1852.01 784.604 1852.24 784.818 1852.55 785.004 1852.94 785.191 1853.34 785.354 1853.79 785.492 1854.28 785.631 1854.77 785.784 1855.48 785.953 1856.41 786.242 1857.97 786.522 1859.6 786.793 1861.32 787.064 1863.03 787.296 1864.63 787.488 1866.1 788.657 1864.41 789.647 1862.76 790.46 1861.15 791.273 1859.53 791.858 1858.13 792.213 1856.94 792.568 1855.74 792.746 1854.77 792.746 1854.03 792.746 1853.46 792.625 1853.08 792.384 1852.87 792.144 1852.67 791.734 1852.55 791.156 1852.51L791.337 1851.62 796.088 1851.62 796.576 1852.53C795.661 1855.03 794.42 1857.71 792.854 1860.57 791.312 1863.36 789.548 1866.14 787.561 1868.91 785.658 1871.55 784.074 1873.46 782.809 1874.64 781.93 1875.45 781.081 1876.03 780.262 1876.38 779.612 1876.64 778.919 1876.77 778.184 1876.77 777.931 1876.77 777.639 1876.75 777.308 1876.71 776.977 1876.67 776.721 1876.61 776.54 1876.54L777.317 1873.03 778.744 1873.03C778.744 1873.8 779.009 1874.19 779.539 1874.19 780.238 1874.19 781.051 1873.75 781.978 1872.88 782.906 1872.01 783.996 1870.69 785.248 1868.93 784.899 1866.82 784.423 1864.28 783.821 1861.31 783.183 1858.13 782.761 1856.16 782.556 1855.4 782.303 1854.48 782.038 1853.9 781.761 1853.65 781.593 1853.49 781.382 1853.41 781.129 1853.41 780.744 1853.41 780.382 1853.57 780.045 1853.88 779.708 1854.2 779.292 1854.74 778.799 1855.51L777.624 1854.73C778.455 1853.49 779.232 1852.61 779.955 1852.1 780.677 1851.59 781.484 1851.34 782.376 1851.34Z" fill="#C00000" fill-rule="evenodd"/><text fill="#000000" fill-opacity="0" font-family="Arial,Arial_MSFontService,sans-serif" font-size="25.4375" x="776.54" y="1873.59">ğ‘¦</text><path d="M765.966 1900.21 759.083 1918.28 771.657 1918.28ZM765.334 1896.22 768.008 1896.22 775.632 1920.01 775.632 1921.17 755.885 1921.17 755.885 1920.01Z" fill="#C00000" fill-rule="evenodd"/><text fill="#000000" fill-opacity="0" font-family="Arial,Arial_MSFontService,sans-serif" font-size="24.9497" x="755.885" y="1918.05">âˆ†</text><path d="M783.871 1903.59C784.244 1903.59 784.572 1903.63 784.855 1903.72 785.138 1903.8 785.388 1903.93 785.605 1904.11 785.822 1904.28 786.015 1904.51 786.183 1904.78 786.352 1905.06 786.515 1905.44 786.671 1905.91 786.828 1906.39 786.975 1906.98 787.114 1907.68 787.252 1908.39 787.376 1909.12 787.484 1909.88L787.665 1909.88C788.821 1908.25 789.697 1907.06 790.293 1906.31 790.89 1905.56 791.392 1905 791.802 1904.63 792.211 1904.26 792.606 1904 792.985 1903.85 793.365 1903.7 793.868 1903.63 794.494 1903.63 795.06 1903.63 795.524 1903.7 795.885 1903.84L795.162 1907.11 793.898 1907.11C793.825 1906.61 793.615 1906.35 793.265 1906.35 793.157 1906.35 793.042 1906.37 792.922 1906.41 792.802 1906.44 792.654 1906.52 792.479 1906.64 792.305 1906.76 792.049 1907 791.712 1907.35 791.374 1907.7 790.995 1908.12 790.573 1908.63 790.152 1909.14 789.718 1909.67 789.273 1910.22L788.044 1911.76C788.261 1912.91 788.466 1913.91 788.658 1914.76 788.851 1915.6 789.023 1916.3 789.173 1916.86 789.324 1917.42 789.456 1917.86 789.571 1918.19 789.685 1918.51 789.809 1918.76 789.941 1918.92 790.074 1919.08 790.209 1919.2 790.348 1919.26 790.486 1919.33 790.646 1919.36 790.826 1919.36 791.152 1919.36 791.468 1919.24 791.775 1918.98 792.082 1918.73 792.525 1918.16 793.103 1917.27L794.277 1918.04C793.434 1919.3 792.672 1920.18 791.992 1920.69 791.311 1921.2 790.501 1921.46 789.562 1921.46 789.044 1921.46 788.604 1921.36 788.243 1921.18 787.882 1920.99 787.568 1920.69 787.303 1920.28 787.038 1919.87 786.804 1919.24 786.599 1918.37 786.225 1916.83 785.997 1915.65 785.912 1914.83L785.732 1914.83C784.455 1916.62 783.506 1917.91 782.886 1918.69 782.266 1919.48 781.754 1920.05 781.351 1920.43 780.947 1920.8 780.556 1921.06 780.176 1921.21 779.797 1921.36 779.294 1921.44 778.668 1921.44 778.102 1921.44 777.638 1921.37 777.277 1921.22L777.999 1917.95 779.264 1917.95C779.336 1918.46 779.547 1918.71 779.896 1918.71 780.065 1918.71 780.242 1918.67 780.429 1918.58 780.616 1918.49 780.884 1918.27 781.233 1917.93 781.582 1917.58 782.064 1917.04 782.678 1916.31 783.293 1915.57 784.184 1914.47 785.352 1913 785.172 1912.05 784.985 1911.14 784.792 1910.26 784.599 1909.38 784.401 1908.56 784.196 1907.8 783.991 1907.04 783.823 1906.54 783.69 1906.31 783.558 1906.07 783.416 1905.91 783.266 1905.82 783.115 1905.73 782.925 1905.69 782.696 1905.69 782.444 1905.69 782.215 1905.74 782.01 1905.86 781.805 1905.97 781.582 1906.17 781.341 1906.45 781.101 1906.74 780.781 1907.18 780.384 1907.78L779.21 1907C779.968 1905.86 780.697 1905.01 781.396 1904.44 782.094 1903.87 782.919 1903.59 783.871 1903.59Z" fill="#C00000" fill-rule="evenodd"/><text fill="#000000" fill-opacity="0" font-family="Arial,Arial_MSFontService,sans-serif" font-size="17.8677" x="777.277" y="1919.22">ğ‘¥</text><path d="M754.518 1884.65 776.018 1884.65 797.518 1884.65 797.518 1886.65 776.018 1886.65 754.518 1886.65Z" fill="#C00000" fill-rule="evenodd"/><path d="M810.524 1888.63 832.782 1888.63 832.782 1891.03 810.524 1891.03ZM810.524 1881.13 832.782 1881.13 832.782 1883.53 810.524 1883.53Z" fill="#C00000" fill-rule="evenodd"/><text fill="#000000" fill-opacity="0" font-family="Arial,Arial_MSFontService,sans-serif" font-size="9.90039" x="810.524" y="1889.79">=</text><path d="M855.751 1873.23C854.92 1873.23 854.225 1873.48 853.664 1873.97 853.104 1874.47 852.653 1875.18 852.31 1876.11 851.966 1877.03 851.722 1878.16 851.578 1879.49 851.433 1880.82 851.361 1882.33 851.361 1884 851.361 1887.93 851.725 1890.81 852.454 1892.65 853.183 1894.48 854.312 1895.4 855.841 1895.4 857.299 1895.4 858.38 1894.54 859.084 1892.81 859.789 1891.08 860.141 1888.4 860.141 1884.78 860.141 1882.01 859.961 1879.76 859.599 1878.05 859.238 1876.33 858.735 1875.1 858.091 1874.35 857.446 1873.61 856.667 1873.23 855.751 1873.23ZM855.841 1871.7C858.479 1871.7 860.442 1872.72 861.731 1874.75 863.02 1876.79 863.664 1879.86 863.664 1883.98 863.664 1888.25 862.975 1891.47 861.596 1893.66 860.217 1895.84 858.202 1896.94 855.552 1896.94 852.951 1896.94 851.015 1895.91 849.744 1893.87 848.473 1891.82 847.838 1888.71 847.838 1884.54 847.838 1882.33 848.034 1880.41 848.425 1878.8 848.817 1877.18 849.365 1875.85 850.069 1874.8 850.774 1873.74 851.62 1872.96 852.608 1872.46 853.595 1871.95 854.673 1871.7 855.841 1871.7Z" fill="#C00000" fill-rule="evenodd"/><text fill="#000000" fill-opacity="0" font-family="Arial,Arial_MSFontService,sans-serif" font-size="25.2388" x="847.838" y="1893.78">0</text><path d="M532.5 1812.5 786.362 1812.5" stroke="#7F7F7F" stroke-width="3.4375" stroke-miterlimit="8" fill="none" fill-rule="evenodd"/><text fill="#C00000" font-family="Cambria Math,Cambria Math_MSFontService,sans-serif" font-weight="400" font-size="46" transform="matrix(1 0 0 1 993.184 1786)">ğ‘™</text><text fill="#C00000" font-family="Cambria Math,Cambria Math_MSFontService,sans-serif" font-weight="400" font-size="46" transform="matrix(1 0 0 1 1021.69 1786)">=</text><text fill="#C00000" font-family="Cambria Math,Cambria Math_MSFontService,sans-serif" font-weight="400" font-size="46" transform="matrix(1 0 0 1 1068.81 1786)">ğ‘™</text><text fill="#C00000" font-family="Cambria Math,Cambria Math_MSFontService,sans-serif" font-weight="400" font-size="34" transform="matrix(1 0 0 1 1083.13 1795)">âˆ—</text><path d="M720 1841 728 1811 736 1841Z" fill="#7F7F7F" fill-rule="evenodd"/><path d="M737 1782 728.5 1812 720 1782Z" fill="#7F7F7F" fill-rule="evenodd"/><path d="M727.5 1753.5 727.5 1868.08" stroke="#7F7F7F" stroke-width="3.4375" stroke-miterlimit="8" fill="none" fill-rule="evenodd"/><path d="M1541.5 1810.5C1592.93 1807.64 1616.12 1799.52 1654.5 1781.5" stroke="#C00000" stroke-width="3.4375" stroke-miterlimit="8" fill="none" fill-rule="evenodd"/></g></svg>