<?xml version="1.0" encoding="UTF-8" standalone="no"?>
<svg
   xmlns:dc="http://purl.org/dc/elements/1.1/"
   xmlns:cc="http://creativecommons.org/ns#"
   xmlns:rdf="http://www.w3.org/1999/02/22-rdf-syntax-ns#"
   xmlns:svg="http://www.w3.org/2000/svg"
   xmlns="http://www.w3.org/2000/svg"
   xmlns:sodipodi="http://sodipodi.sourceforge.net/DTD/sodipodi-0.dtd"
   xmlns:inkscape="http://www.inkscape.org/namespaces/inkscape"
   width="1653"
   height="993"
   xml:space="preserve"
   overflow="hidden"
   version="1.1"
   id="svg109"
   sodipodi:docname="bracing-plot.svg"
   inkscape:version="0.92.5 (2060ec1f9f, 2020-04-08)"><metadata
     id="metadata113"><rdf:RDF><cc:Work
         rdf:about=""><dc:format>image/svg+xml</dc:format><dc:type
           rdf:resource="http://purl.org/dc/dcmitype/StillImage" /></cc:Work></rdf:RDF></metadata><sodipodi:namedview
     pagecolor="#ffffff"
     bordercolor="#666666"
     borderopacity="1"
     objecttolerance="10"
     gridtolerance="10"
     guidetolerance="10"
     inkscape:pageopacity="0"
     inkscape:pageshadow="2"
     inkscape:window-width="1834"
     inkscape:window-height="858"
     id="namedview111"
     showgrid="false"
     inkscape:zoom="0.67271627"
     inkscape:cx="398.6586"
     inkscape:cy="355.61237"
     inkscape:window-x="0"
     inkscape:window-y="0"
     inkscape:window-maximized="0"
     inkscape:current-layer="svg109" /><defs
     id="defs5"><clipPath
       id="clip0"><rect
         x="1006"
         y="238"
         width="1653"
         height="993"
         id="rect2" /></clipPath></defs><rect
     style="fill:#ffffff"
     id="rect7"
     height="990"
     width="1650"
     y="1"
     x="1" /><g
     id="g11"
     transform="translate(-1006,-238)"><path
       style="fill:none;stroke:#d9d9d9;stroke-width:3.4375;stroke-linejoin:round;stroke-miterlimit:10"
       inkscape:connector-curvature="0"
       id="path9"
       stroke-miterlimit="10"
       d="m 1258.5,1108.5 h 1312 m -1312,-101.97 h 1312 m -1312,-103 h 1312 m -1312,-102.004 h 1312 M 1258.5,596.52 h 1312 m -1312,-102.004 h 1312 m -1312,-103.003 h 1312 M 1258.5,289.5 h 1312" /></g><g
     id="g15"
     transform="translate(-1006,-238)"><path
       style="fill:none;stroke:#d9d9d9;stroke-width:3.4375;stroke-linejoin:round;stroke-miterlimit:10"
       inkscape:connector-curvature="0"
       id="path13"
       stroke-miterlimit="10"
       d="m 1445.55,289.5 v 819 m 188,-819 v 819 m 187.01,-819 v 819 m 187.01,-819 v 819 m 188,-819 v 819 m 187.01,-819 v 819 m 187.92,-819 v 819" /></g><g
     id="g19"
     transform="translate(-1006,-238)"><path
       style="fill:none;fill-rule:evenodd;stroke:#bfbfbf;stroke-width:3.4375;stroke-linejoin:round;stroke-miterlimit:10"
       inkscape:connector-curvature="0"
       id="path17"
       transform="matrix(1,0,0,-1,1258.5,1108.5)"
       stroke-miterlimit="10"
       d="M 0,0 3.60892e-4,819" /></g><g
     id="g23"
     transform="translate(-1006,-238)"><path
       style="fill:none;fill-rule:evenodd;stroke:#bfbfbf;stroke-width:3.4375;stroke-linejoin:round;stroke-miterlimit:10"
       inkscape:connector-curvature="0"
       id="path21"
       stroke-miterlimit="10"
       d="m 1258.5,699.5 h 1312" /></g><g
     id="g27"
     transform="translate(-1006,-238)"><path
       style="fill:none;stroke:#156082;stroke-width:6.875;stroke-linecap:round;stroke-linejoin:round;stroke-miterlimit:10"
       inkscape:connector-curvature="0"
       id="path25"
       stroke-miterlimit="10"
       d="m 1445.5,1022.5 c 3.15,-1.57 6.31,-3.14 9.46,-4.72 3.16,-1.58 6.31,-3.16 9.47,-4.74 3.15,-1.58 6.31,-3.17 9.46,-4.76 3.16,-1.59 6.31,-3.18 9.47,-4.78 3.15,-1.59 6.31,-3.19 9.46,-4.793 3.16,-1.603 6.31,-3.208 9.47,-4.817 3.15,-1.609 6.31,-3.222 9.46,-4.837 3.16,-1.616 6.31,-3.235 9.47,-4.858 3.15,-1.622 6.31,-3.248 9.46,-4.878 3.16,-1.63 6.31,-3.263 9.47,-4.9 3.15,-1.636 6.31,-3.277 9.46,-4.92 3.16,-1.644 6.31,-3.292 9.47,-4.943 3.15,-1.652 6.31,-3.307 9.46,-4.965 3.16,-1.659 6.31,-3.321 9.46,-4.987 3.16,-1.667 6.31,-3.337 9.47,-5.011 3.15,-1.674 6.31,-3.352 9.46,-5.033 3.16,-1.682 6.31,-3.368 9.47,-5.058 3.15,-1.689 6.31,-3.383 9.46,-5.081 3.16,-1.698 6.31,-3.4 9.47,-5.106 3.15,-1.706 6.31,-3.417 9.46,-5.131 3.16,-1.715 6.31,-3.433 9.47,-5.156 3.15,-1.723 6.31,-3.45 9.46,-5.182 3.16,-1.732 6.31,-3.468 9.47,-5.208 3.15,-1.741 6.31,-3.486 9.46,-5.235 3.16,-1.75 6.31,-3.504 9.47,-5.262 3.15,-1.759 6.31,-3.522 9.46,-5.29 3.16,-1.768 6.31,-3.54 9.47,-5.317 3.15,-1.778 6.31,-3.56 9.46,-5.347 3.15,-1.787 6.31,-3.579 9.46,-5.375 3.16,-1.797 6.31,-3.599 9.47,-5.405 3.15,-1.807 6.31,-3.619 9.46,-5.435 3.16,-1.817 6.31,-3.639 9.47,-5.466 3.15,-1.828 6.31,-3.66 9.46,-5.498 3.16,-1.838 6.31,-3.681 9.47,-5.529 3.15,-1.849 6.31,-3.703 9.46,-5.562 3.16,-1.859 6.31,-3.724 9.47,-5.594 3.15,-1.871 6.31,-3.748 9.46,-5.629 3.16,-1.882 6.31,-3.77 9.47,-5.663 3.15,-1.893 6.31,-3.793 9.46,-5.698 3.16,-1.905 6.31,-3.816 9.47,-5.733 3.15,-1.918 6.31,-3.841 9.46,-5.77 3.16,-1.93 6.31,-3.865 9.47,-5.807 3.15,-1.942 6.3,-3.89 9.46,-5.844 3.15,-1.955 6.31,-3.916 9.46,-5.884 3.16,-1.968 6.31,-3.942 9.47,-5.922 3.15,-1.981 6.31,-3.968 9.46,-5.963 3.16,-1.994 6.31,-3.995 9.47,-6.003 3.15,-2.008 6.31,-4.023 9.46,-6.045 3.16,-2.022 6.31,-4.051 9.47,-6.087 3.15,-2.037 6.31,-4.08 9.46,-6.131 3.16,-2.051 6.31,-4.109 9.47,-6.175 3.15,-2.066 6.31,-4.139 9.46,-6.22 3.16,-2.081 6.31,-4.17 9.47,-6.266 3.15,-2.097 6.31,-4.201 9.46,-6.313 3.16,-2.113 6.31,-4.233 9.47,-6.361 3.15,-2.129 6.31,-4.265 9.46,-6.41 3.16,-2.145 6.31,-4.299 9.47,-6.46 3.15,-2.162 6.3,-4.332 9.46,-6.511 3.15,-2.179 6.31,-4.367 9.46,-6.563 3.16,-2.197 6.31,-4.402 9.47,-6.616 3.15,-2.215 6.31,-4.438 9.46,-6.671 3.16,-2.233 6.31,-4.474 9.47,-6.725 3.15,-2.252 6.31,-4.512 9.46,-6.783 3.16,-2.271 6.31,-4.55 9.47,-6.84 3.15,-2.29 6.31,-4.59 9.46,-6.9 3.16,-2.31 6.31,-4.629 9.47,-6.959 3.15,-2.33 6.31,-4.671 9.46,-7.021 3.16,-2.351 6.31,-4.713 9.47,-7.085 3.15,-2.372 6.31,-4.754 9.46,-7.148 3.16,-2.393 6.31,-4.798 9.47,-7.214 3.15,-2.415 6.3,-4.842 9.46,-7.28 3.15,-2.439 6.31,-4.888 9.46,-7.349 3.16,-2.462 6.31,-4.934 9.47,-7.419 3.15,-2.485 6.31,-4.982 9.46,-7.49 3.16,-2.509 6.31,-5.03 9.47,-7.564 3.15,-2.533 6.31,-5.078 9.46,-7.637 3.16,-2.558 6.31,-5.129 9.47,-7.713 3.15,-2.584 6.31,-5.18 9.46,-7.79 3.16,-2.61 6.31,-5.233 9.47,-7.869 3.15,-2.637 6.31,-5.287 9.46,-7.95 3.16,-2.664 6.31,-5.341 9.47,-8.032 3.15,-2.691 6.31,-5.396 9.46,-8.115 3.16,-2.72 6.31,-5.453 9.47,-8.201 3.15,-2.748 6.31,-5.51 9.46,-8.287 3.16,-2.777 6.31,-5.569 9.47,-8.376 3.15,-2.806 6.3,-5.628 9.46,-8.465 3.15,-2.837 6.31,-5.689 9.46,-8.557 3.16,-2.868 6.31,-5.751 9.47,-8.65 3.15,-2.899 6.31,-5.814 9.46,-8.744 3.16,-2.931 6.31,-5.878 9.47,-8.84 3.15,-2.963 6.31,-5.942 9.46,-8.938 3.16,-2.995 6.31,-6.007 9.47,-9.035 3.15,-3.029 6.31,-6.074 9.46,-9.136 3.16,-3.062 6.31,-6.141 9.47,-9.236 3.15,-3.096 6.31,-6.209 9.46,-9.339 3.16,-3.13 6.31,-6.277 9.47,-9.441 3.15,-3.164 6.31,-6.346 9.46,-9.545 3.16,-3.199 6.31,-6.415 9.47,-9.649 3.15,-3.234 7.88,-8.128 9.46,-9.754" /></g><g
     id="g31"
     transform="translate(-1006,-238)"><text
       style="font-weight:400;font-stretch:semi-condensed;font-size:41px;font-family:'Aptos Narrow', 'Aptos Narrow_MSFontService', sans-serif;fill:#595959"
       id="text29"
       transform="translate(1155.07,1120)"
       font-size="41"
       font-stretch="semi-condensed"
       font-weight="400">-0.2</text>
</g><g
     id="g35"
     transform="translate(-1006,-238)"><text
       style="font-weight:400;font-stretch:semi-condensed;font-size:41px;font-family:'Aptos Narrow', 'Aptos Narrow_MSFontService', sans-serif;fill:#595959"
       id="text33"
       transform="translate(1134.17,1018)"
       font-size="41"
       font-stretch="semi-condensed"
       font-weight="400">-0.15</text>
</g><g
     id="g39"
     transform="translate(-1006,-238)"><text
       style="font-weight:400;font-stretch:semi-condensed;font-size:41px;font-family:'Aptos Narrow', 'Aptos Narrow_MSFontService', sans-serif;fill:#595959"
       id="text37"
       transform="translate(1155.07,915)"
       font-size="41"
       font-stretch="semi-condensed"
       font-weight="400">-0.1</text>
</g><g
     id="g43"
     transform="translate(-1006,-238)"><text
       style="font-weight:400;font-stretch:semi-condensed;font-size:41px;font-family:'Aptos Narrow', 'Aptos Narrow_MSFontService', sans-serif;fill:#595959"
       id="text41"
       transform="translate(1134.17,813)"
       font-size="41"
       font-stretch="semi-condensed"
       font-weight="400">-0.05</text>
</g><g
     id="g47"
     transform="translate(-1006,-238)"><text
       style="font-weight:400;font-stretch:semi-condensed;font-size:41px;font-family:'Aptos Narrow', 'Aptos Narrow_MSFontService', sans-serif;fill:#595959"
       id="text45"
       transform="translate(1199.32,711)"
       font-size="41"
       font-stretch="semi-condensed"
       font-weight="400">0</text>
</g><g
     id="g51"
     transform="translate(-1006,-238)"><text
       style="font-weight:400;font-stretch:semi-condensed;font-size:41px;font-family:'Aptos Narrow', 'Aptos Narrow_MSFontService', sans-serif;fill:#595959"
       id="text49"
       transform="translate(1146.8,608)"
       font-size="41"
       font-stretch="semi-condensed"
       font-weight="400">0.05</text>
</g><g
     id="g55"
     transform="translate(-1006,-238)"><text
       style="font-weight:400;font-stretch:semi-condensed;font-size:41px;font-family:'Aptos Narrow', 'Aptos Narrow_MSFontService', sans-serif;fill:#595959"
       id="text53"
       transform="translate(1167.7,506)"
       font-size="41"
       font-stretch="semi-condensed"
       font-weight="400">0.1</text>
</g><g
     id="g59"
     transform="translate(-1006,-238)"><text
       style="font-weight:400;font-stretch:semi-condensed;font-size:41px;font-family:'Aptos Narrow', 'Aptos Narrow_MSFontService', sans-serif;fill:#595959"
       id="text57"
       transform="translate(1146.8,403)"
       font-size="41"
       font-stretch="semi-condensed"
       font-weight="400">0.15</text>
</g><g
     id="g63"
     transform="translate(-1006,-238)"><text
       style="font-weight:400;font-stretch:semi-condensed;font-size:41px;font-family:'Aptos Narrow', 'Aptos Narrow_MSFontService', sans-serif;fill:#595959"
       id="text61"
       transform="translate(1167.7,301)"
       font-size="41"
       font-stretch="semi-condensed"
       font-weight="400">0.2</text>
</g><g
     id="g67"
     transform="translate(-1006,-238)"><text
       style="font-weight:400;font-stretch:semi-condensed;font-size:41px;font-family:'Aptos Narrow', 'Aptos Narrow_MSFontService', sans-serif;fill:#595959"
       id="text65"
       transform="translate(1221.59,764)"
       font-size="41"
       font-stretch="semi-condensed"
       font-weight="400">0.88</text>
</g><g
     id="g71"
     transform="translate(-1006,-238)"><text
       style="font-weight:400;font-stretch:semi-condensed;font-size:41px;font-family:'Aptos Narrow', 'Aptos Narrow_MSFontService', sans-serif;fill:#595959"
       id="text69"
       transform="translate(1419.44,764)"
       font-size="41"
       font-stretch="semi-condensed"
       font-weight="400">0.9</text>
</g><g
     id="g75"
     transform="translate(-1006,-238)"><text
       style="font-weight:400;font-stretch:semi-condensed;font-size:41px;font-family:'Aptos Narrow', 'Aptos Narrow_MSFontService', sans-serif;fill:#595959"
       id="text73"
       transform="translate(1596.38,764)"
       font-size="41"
       font-stretch="semi-condensed"
       font-weight="400">0.92</text>
</g><g
     id="g79"
     transform="translate(-1006,-238)"><text
       style="font-weight:400;font-stretch:semi-condensed;font-size:41px;font-family:'Aptos Narrow', 'Aptos Narrow_MSFontService', sans-serif;fill:#595959"
       id="text77"
       transform="translate(1783.77,764)"
       font-size="41"
       font-stretch="semi-condensed"
       font-weight="400">0.94</text>
</g><g
     id="g83"
     transform="translate(-1006,-238)"><text
       style="font-weight:400;font-stretch:semi-condensed;font-size:41px;font-family:'Aptos Narrow', 'Aptos Narrow_MSFontService', sans-serif;fill:#595959"
       id="text81"
       transform="translate(1971.17,764)"
       font-size="41"
       font-stretch="semi-condensed"
       font-weight="400">0.96</text>
</g><g
     id="g87"
     transform="translate(-1006,-238)"><text
       style="font-weight:400;font-stretch:semi-condensed;font-size:41px;font-family:'Aptos Narrow', 'Aptos Narrow_MSFontService', sans-serif;fill:#595959"
       id="text85"
       transform="translate(2158.56,764)"
       font-size="41"
       font-stretch="semi-condensed"
       font-weight="400">0.98</text>
</g><g
     id="g91"
     transform="translate(-1006,-238)"><text
       style="font-weight:400;font-stretch:semi-condensed;font-size:41px;font-family:'Aptos Narrow', 'Aptos Narrow_MSFontService', sans-serif;fill:#595959"
       id="text89"
       transform="translate(2372.21,764)"
       font-size="41"
       font-stretch="semi-condensed"
       font-weight="400">1</text>
</g><g
     id="g95"
     transform="translate(-1006,-238)"><text
       style="font-weight:400;font-stretch:semi-condensed;font-size:41px;font-family:'Aptos Narrow', 'Aptos Narrow_MSFontService', sans-serif;fill:#595959"
       id="text93"
       transform="translate(2533.35,764)"
       font-size="41"
       font-stretch="semi-condensed"
       font-weight="400">1.02</text>
</g><g
     id="g99"
     transform="translate(-1006,-238)"><text
       style="font-weight:400;font-stretch:semi-condensed;font-size:46px;font-family:'Aptos Narrow', 'Aptos Narrow_MSFontService', sans-serif;fill:#595959"
       id="text97"
       transform="rotate(-90,929.235,-178.235)"
       font-size="46"
       font-stretch="semi-condensed"
       font-weight="400">Slope</text>
</g><g
     id="g103"
     transform="translate(-1006,-238)"><text
       style="font-weight:400;font-stretch:semi-condensed;font-size:46px;font-family:'Aptos Narrow', 'Aptos Narrow_MSFontService', sans-serif;fill:#595959"
       id="text101"
       transform="translate(1793.98,1159)"
       font-size="46"
       font-stretch="semi-condensed"
       font-weight="400">Length factor</text>
</g></svg>